<?xml version="1.0" standalone="no"?>
<!DOCTYPE svg PUBLIC "-//W3C//DTD SVG 1.1//EN" "http://www.w3.org/Graphics/SVG/1.1/DTD/svg11.dtd">
<svg viewBox="0 0 586.000000 421.000000" version="1.1" xmlns="http://www.w3.org/2000/svg" xmlns:xlink="http://www.w3.org/1999/xlink">
	<polyline fill="none" stroke="rgb(229,229,229)" stroke-width="1" stroke-opacity="1" points="59.000000,17.000000 59.000000,396.000000"/>
	<polyline fill="none" stroke="rgb(229,229,229)" stroke-width="1" stroke-opacity="1" points="92.466667,17.000000 92.466667,396.000000"/>
	<polyline fill="none" stroke="rgb(229,229,229)" stroke-width="1" stroke-opacity="1" points="125.933333,17.000000 125.933333,396.000000"/>
	<polyline fill="none" stroke="rgb(229,229,229)" stroke-width="1" stroke-opacity="1" points="159.400000,17.000000 159.400000,396.000000"/>
	<polyline fill="none" stroke="rgb(229,229,229)" stroke-width="1" stroke-opacity="1" points="192.866667,17.000000 192.866667,396.000000"/>
	<polyline fill="none" stroke="rgb(229,229,229)" stroke-width="1" stroke-opacity="1" points="226.333333,17.000000 226.333333,396.000000"/>
	<polyline fill="none" stroke="rgb(229,229,229)" stroke-width="1" stroke-opacity="1" points="259.800000,17.000000 259.800000,396.000000"/>
	<polyline fill="none" stroke="rgb(229,229,229)" stroke-width="1" stroke-opacity="1" points="293.266667,17.000000 293.266667,396.000000"/>
	<polyline fill="none" stroke="rgb(229,229,229)" stroke-width="1" stroke-opacity="1" points="326.733333,17.000000 326.733333,396.000000"/>
	<polyline fill="none" stroke="rgb(229,229,229)" stroke-width="1" stroke-opacity="1" points="360.200000,17.000000 360.200000,396.000000"/>
	<polyline fill="none" stroke="rgb(229,229,229)" stroke-width="1" stroke-opacity="1" points="393.666667,17.000000 393.666667,396.000000"/>
	<polyline fill="none" stroke="rgb(229,229,229)" stroke-width="1" stroke-opacity="1" points="427.133333,17.000000 427.133333,396.000000"/>
	<polyline fill="none" stroke="rgb(229,229,229)" stroke-width="1" stroke-opacity="1" points="460.600000,17.000000 460.600000,396.000000"/>
	<polyline fill="none" stroke="rgb(229,229,229)" stroke-width="1" stroke-opacity="1" points="494.066667,17.000000 494.066667,396.000000"/>
	<polyline fill="none" stroke="rgb(229,229,229)" stroke-width="1" stroke-opacity="1" points="527.533333,17.000000 527.533333,396.000000"/>
	<polyline fill="none" stroke="rgb(229,229,229)" stroke-width="1" stroke-opacity="1" points="561.000000,17.000000 561.000000,396.000000"/>
	<polyline fill="none" stroke="rgb(229,229,229)" stroke-width="1" stroke-opacity="1" points="59.000000,396.000000 561.000000,396.000000"/>
	<polyline fill="none" stroke="rgb(229,229,229)" stroke-width="1" stroke-opacity="1" points="59.000000,348.625000 561.000000,348.625000"/>
	<polyline fill="none" stroke="rgb(229,229,229)" stroke-width="1" stroke-opacity="1" points="59.000000,301.250000 561.000000,301.250000"/>
	<polyline fill="none" stroke="rgb(229,229,229)" stroke-width="1" stroke-opacity="1" points="59.000000,253.875000 561.000000,253.875000"/>
	<polyline fill="none" stroke="rgb(229,229,229)" stroke-width="1" stroke-opacity="1" points="59.000000,206.500000 561.000000,206.500000"/>
	<polyline fill="none" stroke="rgb(229,229,229)" stroke-width="1" stroke-opacity="1" points="59.000000,159.125000 561.000000,159.125000"/>
	<polyline fill="none" stroke="rgb(229,229,229)" stroke-width="1" stroke-opacity="1" points="59.000000,111.750000 561.000000,111.750000"/>
	<polyline fill="none" stroke="rgb(229,229,229)" stroke-width="1" stroke-opacity="1" points="59.000000,64.375000 561.000000,64.375000"/>
	<polyline fill="none" stroke="rgb(229,229,229)" stroke-width="1" stroke-opacity="1" points="59.000000,17.000000 561.000000,17.000000"/>
	<polyline fill="none" stroke="rgb(0,0,0)" stroke-width="1" stroke-opacity="1" points="59.000000,396.000000 561.000000,396.000000"/>
	<polyline fill="none" stroke="rgb(0,0,0)" stroke-width="1" stroke-opacity="1" points="561.000000,396.000000 561.000000,17.000000"/>
	<polyline fill="none" stroke="rgb(0,0,0)" stroke-width="1" stroke-opacity="1" points="561.000000,17.000000 59.000000,17.000000"/>
	<polyline fill="none" stroke="rgb(0,0,0)" stroke-width="1" stroke-opacity="1" points="59.000000,17.000000 59.000000,396.000000"/>
	<polyline fill="none" stroke="rgb(0,0,0)" stroke-width="1" stroke-opacity="1" points="59.000000,396.000000 59.000000,400.000000"/>
	<polyline fill="none" stroke="rgb(0,0,0)" stroke-width="1" stroke-opacity="1" points="92.466667,396.000000 92.466667,400.000000"/>
	<polyline fill="none" stroke="rgb(0,0,0)" stroke-width="1" stroke-opacity="1" points="125.933333,396.000000 125.933333,400.000000"/>
	<polyline fill="none" stroke="rgb(0,0,0)" stroke-width="1" stroke-opacity="1" points="159.400000,396.000000 159.400000,400.000000"/>
	<polyline fill="none" stroke="rgb(0,0,0)" stroke-width="1" stroke-opacity="1" points="192.866667,396.000000 192.866667,400.000000"/>
	<polyline fill="none" stroke="rgb(0,0,0)" stroke-width="1" stroke-opacity="1" points="226.333333,396.000000 226.333333,400.000000"/>
	<polyline fill="none" stroke="rgb(0,0,0)" stroke-width="1" stroke-opacity="1" points="259.800000,396.000000 259.800000,400.000000"/>
	<polyline fill="none" stroke="rgb(0,0,0)" stroke-width="1" stroke-opacity="1" points="293.266667,396.000000 293.266667,400.000000"/>
	<polyline fill="none" stroke="rgb(0,0,0)" stroke-width="1" stroke-opacity="1" points="326.733333,396.000000 326.733333,400.000000"/>
	<polyline fill="none" stroke="rgb(0,0,0)" stroke-width="1" stroke-opacity="1" points="360.200000,396.000000 360.200000,400.000000"/>
	<polyline fill="none" stroke="rgb(0,0,0)" stroke-width="1" stroke-opacity="1" points="393.666667,396.000000 393.666667,400.000000"/>
	<polyline fill="none" stroke="rgb(0,0,0)" stroke-width="1" stroke-opacity="1" points="427.133333,396.000000 427.133333,400.000000"/>
	<polyline fill="none" stroke="rgb(0,0,0)" stroke-width="1" stroke-opacity="1" points="460.600000,396.000000 460.600000,400.000000"/>
	<polyline fill="none" stroke="rgb(0,0,0)" stroke-width="1" stroke-opacity="1" points="494.066667,396.000000 494.066667,400.000000"/>
	<polyline fill="none" stroke="rgb(0,0,0)" stroke-width="1" stroke-opacity="1" points="527.533333,396.000000 527.533333,400.000000"/>
	<polyline fill="none" stroke="rgb(0,0,0)" stroke-width="1" stroke-opacity="1" points="561.000000,396.000000 561.000000,400.000000"/>
	<polyline fill="none" stroke="rgb(0,0,0)" stroke-width="1" stroke-opacity="1" points="59.000000,396.000000 59.000000,402.400000"/>
	<text x="59" y="412.5" fill="rgb(0,0,0)" dominant-baseline="central" font-size="11" font-family="Arial" text-anchor="middle">50</text>
	<polyline fill="none" stroke="rgb(0,0,0)" stroke-width="1" stroke-opacity="1" points="226.333333,396.000000 226.333333,402.400000"/>
	<text x="226.333" y="412.5" fill="rgb(0,0,0)" dominant-baseline="central" font-size="11" font-family="Arial" text-anchor="middle">75</text>
	<polyline fill="none" stroke="rgb(0,0,0)" stroke-width="1" stroke-opacity="1" points="393.666667,396.000000 393.666667,402.400000"/>
	<text x="393.667" y="412.5" fill="rgb(0,0,0)" dominant-baseline="central" font-size="11" font-family="Arial" text-anchor="middle">100</text>
	<polyline fill="none" stroke="rgb(0,0,0)" stroke-width="1" stroke-opacity="1" points="561.000000,396.000000 561.000000,402.400000"/>
	<text x="561" y="412.5" fill="rgb(0,0,0)" dominant-baseline="central" font-size="11" font-family="Arial" text-anchor="middle">125</text>
	<polyline fill="none" stroke="rgb(0,0,0)" stroke-width="1" stroke-opacity="1" points="55.000000,396.000000 59.000000,396.000000"/>
	<polyline fill="none" stroke="rgb(0,0,0)" stroke-width="1" stroke-opacity="1" points="55.000000,348.625000 59.000000,348.625000"/>
	<polyline fill="none" stroke="rgb(0,0,0)" stroke-width="1" stroke-opacity="1" points="55.000000,301.250000 59.000000,301.250000"/>
	<polyline fill="none" stroke="rgb(0,0,0)" stroke-width="1" stroke-opacity="1" points="55.000000,253.875000 59.000000,253.875000"/>
	<polyline fill="none" stroke="rgb(0,0,0)" stroke-width="1" stroke-opacity="1" points="55.000000,206.500000 59.000000,206.500000"/>
	<polyline fill="none" stroke="rgb(0,0,0)" stroke-width="1" stroke-opacity="1" points="55.000000,159.125000 59.000000,159.125000"/>
	<polyline fill="none" stroke="rgb(0,0,0)" stroke-width="1" stroke-opacity="1" points="55.000000,111.750000 59.000000,111.750000"/>
	<polyline fill="none" stroke="rgb(0,0,0)" stroke-width="1" stroke-opacity="1" points="55.000000,64.375000 59.000000,64.375000"/>
	<polyline fill="none" stroke="rgb(0,0,0)" stroke-width="1" stroke-opacity="1" points="55.000000,17.000000 59.000000,17.000000"/>
	<rect fill="none" stroke="none" stroke-dasharray="none" stroke-width="1" stroke-opacity="1" x="0" y="388" width="51" height="16"/>
	<polyline fill="none" stroke="rgb(0,0,0)" stroke-width="1" stroke-opacity="1" points="52.600000,396.000000 59.000000,396.000000"/>
	<text x="51" y="396" fill="rgb(0,0,0)" dominant-baseline="central" font-size="11" font-family="Arial" text-anchor="end">7.10</text>
	<polyline fill="none" stroke="rgb(0,0,0)" stroke-width="1" stroke-opacity="1" points="52.600000,348.625000 59.000000,348.625000"/>
	<text x="51" y="348.625" fill="rgb(0,0,0)" dominant-baseline="central" font-size="11" font-family="Arial" text-anchor="end">7.15</text>
	<polyline fill="none" stroke="rgb(0,0,0)" stroke-width="1" stroke-opacity="1" points="52.600000,301.250000 59.000000,301.250000"/>
	<text x="51" y="301.25" fill="rgb(0,0,0)" dominant-baseline="central" font-size="11" font-family="Arial" text-anchor="end">7.20</text>
	<polyline fill="none" stroke="rgb(0,0,0)" stroke-width="1" stroke-opacity="1" points="52.600000,253.875000 59.000000,253.875000"/>
	<text x="51" y="253.875" fill="rgb(0,0,0)" dominant-baseline="central" font-size="11" font-family="Arial" text-anchor="end">7.25</text>
	<polyline fill="none" stroke="rgb(0,0,0)" stroke-width="1" stroke-opacity="1" points="52.600000,206.500000 59.000000,206.500000"/>
	<text x="51" y="206.5" fill="rgb(0,0,0)" dominant-baseline="central" font-size="11" font-family="Arial" text-anchor="end">7.30</text>
	<polyline fill="none" stroke="rgb(0,0,0)" stroke-width="1" stroke-opacity="1" points="52.600000,159.125000 59.000000,159.125000"/>
	<text x="51" y="159.125" fill="rgb(0,0,0)" dominant-baseline="central" font-size="11" font-family="Arial" text-anchor="end">7.35</text>
	<polyline fill="none" stroke="rgb(0,0,0)" stroke-width="1" stroke-opacity="1" points="52.600000,111.750000 59.000000,111.750000"/>
	<text x="51" y="111.75" fill="rgb(0,0,0)" dominant-baseline="central" font-size="11" font-family="Arial" text-anchor="end">7.40</text>
	<polyline fill="none" stroke="rgb(0,0,0)" stroke-width="1" stroke-opacity="1" points="52.600000,64.375000 59.000000,64.375000"/>
	<text x="51" y="64.375" fill="rgb(0,0,0)" dominant-baseline="central" font-size="11" font-family="Arial" text-anchor="end">7.45</text>
	<polyline fill="none" stroke="rgb(0,0,0)" stroke-width="1" stroke-opacity="1" points="52.600000,17.000000 59.000000,17.000000"/>
	<text x="51" y="17" fill="rgb(0,0,0)" dominant-baseline="central" font-size="11" font-family="Arial" text-anchor="end">7.50</text>
	<clipPath id="clipArea1">
		<rect x="59" y="17" width="502" height="379">
		</rect>
	</clipPath>
	<polyline fill="none" stroke="rgb(0,0,0)" stroke-width="2" stroke-opacity="1" clip-path="url(#clipArea1)" points="561.000000,28.522337 559.661354,29.120525 558.322656,29.719616 556.984010,30.319159 555.645313,30.920057 554.306667,31.521859 552.968020,32.124564 551.629323,32.728625 550.290677,33.333138 548.951980,33.939006 547.613333,34.545778 546.274687,35.153001 544.935990,35.762032 543.597344,36.371514 542.258646,36.981900 540.920000,37.593642 539.581354,38.206287 538.242656,38.819836 536.904010,39.434288 535.565313,40.049644 534.226667,40.666356 532.888020,41.283971 531.549323,41.902489 530.210677,42.521911 528.871980,43.142689 527.533333,43.764370 526.194687,44.386955 524.855990,45.010443 523.517344,45.635287 522.178646,46.261035 520.840000,46.887686 519.501354,47.515692 518.162656,48.144602 516.824010,48.774416 515.485313,49.405585 514.146667,50.037658 512.808020,50.670634 511.469323,51.304966 510.130677,51.939749 508.791980,52.576340 507.453333,53.213834 506.114687,53.852232 504.775990,54.491534 503.437344,55.132191 502.098646,55.773751 500.760000,56.416667 499.421354,57.060487 498.082656,57.705662 496.744010,58.351740 495.405313,58.998723 494.066667,59.647060 492.728020,60.296753 491.389323,60.947350 490.050677,61.598850 488.711980,62.251706 487.373333,62.905465 486.034687,63.560580 484.695990,64.216598 483.357344,64.873971 482.018646,65.532701 480.680000,66.192333 479.341354,66.852870 478.002656,67.515213 476.664010,68.178008 475.325313,68.842611 473.986667,69.507665 472.648020,70.174527 471.309323,70.842292 469.970677,71.511412 468.631980,72.181437 467.293333,72.852816 465.954687,73.525551 464.615990,74.199190 463.277344,74.874184 461.938646,75.550533 460.600000,76.227786 459.261354,76.906394 457.922656,77.586358 456.584010,78.267226 455.245313,78.949449 453.906667,79.633027 452.568020,80.317961 451.229323,81.003798 449.890677,81.691442 448.551980,82.379539 447.213333,83.069442 445.874687,83.760701 444.535990,84.452863 443.197344,85.146381 441.858646,85.841255 440.520000,86.537483 439.181354,87.235068 437.842656,87.933555 436.504010,88.633850 435.165313,89.335049 433.826667,90.037603 432.488020,90.741512 431.149323,91.446777 429.810677,92.153397 428.471980,92.861373 427.133333,93.570704 425.794687,94.281390 424.455990,94.992980 423.117344,95.706378 421.778646,96.421130 420.440000,97.137239 419.101354,97.854250 417.762656,98.573069 416.424010,99.293243 415.085313,100.014773 413.746667,100.737658 412.408020,101.461899 411.069323,102.187495 409.730677,102.914446 408.391980,103.642753 407.053333,104.372867 405.714687,105.103884 404.375990,105.836709 403.037344,106.570889 401.698646,107.306425 400.360000,108.043316 399.021354,108.781563 397.682656,109.521616 396.344010,110.263025 395.005313,111.005790 393.666667,111.749910 392.328020,112.495837 390.989323,113.243119 389.650677,113.991757 388.311980,114.741750 386.973333,115.493551 385.634687,116.246707 384.295990,117.001218 382.957344,117.757537 381.618646,118.515211 380.280000,119.274692 378.941354,120.035529 377.602656,120.797721 376.264010,121.561720 374.925313,122.327075 373.586667,123.094236 372.248020,123.862754 370.909323,124.632626 369.570677,125.404306 368.231980,126.177793 366.893333,126.952636 365.554687,127.729285 364.215990,128.507291 362.877344,129.287103 361.538646,130.068271 360.200000,130.851246 358.861354,131.635576 357.522656,132.422165 356.184010,133.209658 354.845313,133.999410 353.506667,134.790518 352.168020,135.583432 350.829323,136.377702 349.490677,137.174232 348.151980,137.972116 346.813333,138.771356 345.474687,139.572855 344.135990,140.375709 342.797344,141.180371 341.458646,141.986839 340.120000,142.795115 338.781354,143.604747 337.442656,144.416637 336.104010,145.229883 334.765313,146.044936 333.426667,146.862248 332.088020,147.680915 330.749323,148.501390 329.410677,149.323672 328.071980,150.147761 326.733333,150.973657 325.394687,151.801360 324.055990,152.630871 322.717344,153.462189 321.378646,154.295314 320.040000,155.130246 318.701354,155.967438 317.362656,156.805984 316.024010,157.646790 314.685313,158.489403 313.346667,159.333823 312.008020,160.180051 310.669323,161.028537 309.330677,161.878831 307.991980,162.730932 306.653333,163.584840 305.314687,164.440555 303.975990,165.298529 302.637344,166.158763 301.298646,167.020351 299.960000,167.884199 298.621354,168.750306 297.282656,169.617768 295.944010,170.487941 294.605313,171.359469 293.266667,172.233709 291.928020,173.109303 290.589323,173.987609 289.250677,174.867270 287.911980,175.749641 286.573333,176.633820 285.234687,177.519806 283.895990,178.408503 282.557344,179.299007 281.218646,180.191319 279.880000,181.085889 278.541354,181.982718 277.202656,182.881807 275.864010,183.783154 274.525313,184.686309 273.186667,185.591722 271.848020,186.499395 270.509323,187.409327 269.170677,188.321517 267.831980,189.235515 266.493333,190.152224 265.154687,191.071192 263.815990,191.991966 262.477344,192.915452 261.138646,193.840745 259.800000,194.768749 258.461354,195.699012 257.122656,196.631534 255.784010,197.566314 254.445313,198.503354 253.106667,199.442653 251.768020,200.384663 250.429323,201.328932 249.090677,202.275459 247.751980,203.224246 246.413333,204.175744 245.074687,205.129500 243.735990,206.085516 242.397344,207.044242 241.058646,208.005679 239.720000,208.968924 238.381354,209.935331 237.042656,210.903545 235.704010,211.874922 234.365313,212.848558 233.026667,213.824453 231.688020,214.803059 230.349323,215.784375 229.010677,216.768403 227.671980,217.754689 226.333333,218.743686 224.994687,219.735394 223.655990,220.729361 222.317344,221.726491 220.978646,222.725880 219.640000,223.727979 218.301354,224.732790 216.962656,225.740762 215.624010,226.750994 214.285313,227.763937 212.946667,228.779591 211.608020,229.798407 210.269323,230.819482 208.930677,231.843720 207.591980,232.870669 206.253333,233.900328 204.914687,234.933151 203.575990,235.968232 202.237344,237.006927 200.898646,238.047882 199.560000,239.091999 198.221354,240.138827 196.882656,241.188818 195.544010,242.241971 194.205313,243.297835 192.866667,244.356410 191.528020,245.418599 190.189323,246.483500 188.850677,247.551111 187.511980,248.622336 186.173333,249.696272 184.834687,250.773371 183.495990,251.853632 182.157344,252.937057 180.818646,254.023643 179.480000,255.112941 178.141354,256.205853 176.802656,257.301927 175.464010,258.401165 174.125313,259.503564 172.786667,260.609579 171.448020,261.718755 170.109323,262.831095 168.770677,263.946597 167.431980,265.065714 166.093333,266.187993 164.754687,267.313435 163.415990,268.442943 162.077344,269.575161 160.738646,270.711447 159.400000,271.850442 158.061354,272.993505 156.722656,274.140181 155.384010,275.290020 154.045313,276.443474 152.706667,277.600542 151.367995,278.761224 150.029323,279.925521 148.690677,281.093432 147.352005,282.264958 146.013333,283.440098 144.674662,284.619305 143.335990,285.801674 141.997344,286.988109 140.658672,288.178610 139.320000,289.372274 137.981328,290.570457 136.642656,291.772253 135.304010,292.977664 133.965338,294.187141 132.626667,295.400685 131.287995,296.617842 129.949323,297.839067 128.610677,299.064809 127.272005,300.294165 125.933333,301.527588 124.594662,302.765077 123.255990,304.006632 121.917344,305.252254 120.578672,306.502393 119.240000,307.756599 117.901328,309.014871 116.562656,310.277661 115.224010,311.544517 113.885338,312.815891 112.546667,314.091331 111.207995,315.371290 109.869323,316.655766 108.530677,317.944309 107.192005,319.237822 105.853333,320.535401 104.514662,321.837949 103.175990,323.144564 101.837344,324.456149 100.498672,325.772252 99.160000,327.092872 97.821328,328.418463 96.482656,329.748572 95.144010,331.083650 93.805338,332.423247 92.466667,333.767813 91.127995,335.117349 89.789323,336.471403 88.450677,337.830879 87.112005,339.195325 85.773333,340.564289 84.434662,341.938674 83.095990,343.318029 81.757344,344.702806 80.418672,346.092101 79.080000,347.487269 77.741328,348.887407 76.402656,350.292515 75.064010,351.703497 73.725338,353.119448 72.386667,354.540821 71.047995,355.968067 69.709323,357.400283 68.370677,358.838373 67.032005,360.281884 65.693333,361.731269 64.354662,363.186075 63.015990,364.646303 61.677344,366.112856 60.338672,367.584831 59.000000,369.062680 57.661328,370.546853 56.322656,372.036448 54.984010,373.532369 53.645338,375.034163 52.306667,376.541830 50.967995,378.055822 49.629323,379.576140 48.290677,381.102783 46.952005,382.635300 45.613333,384.174593 44.274662,385.719760 42.935990,387.271704 41.597344,388.830425 40.258672,390.395472 38.920000,391.966843 37.581328,393.545444 36.242656,395.130369 34.904010,396.722072 33.565338,398.321003 32.226667,399.926260 30.887995,401.539198 29.549323,403.158460 28.210677,404.785404 26.872005,406.419124 25.533333,408.060073 24.194662,409.708703 22.855990,411.364110 21.517344,413.027198 20.178672,414.697966 18.840000,416.375963 17.501328,418.061641 16.162656,419.755451 14.824010,421.456490 13.485338,423.165662 12.146667,424.882514 10.807995,426.607499 9.469323,428.340616 8.130677,430.081865 6.792005,431.831247 5.453333,433.588762 4.114662,435.354861 2.775990,437.129092 1.437344,438.912359 0.098672,440.703759 -1.240000,442.504194 -2.578672,444.313215 -3.917344,446.131271 -5.255990,447.958363 -6.594662,449.794039 -7.933333,451.639204 -9.272005,453.493856 -10.610677,455.357544 -11.949323,457.230720 -13.287995,459.113384 -14.626667,461.005536 -15.965338,462.907627 -17.304010,464.819207 -18.642656,466.741178 -19.981328,468.672636 -21.320000,470.614938 -22.658672,472.566728 -23.997344,474.529361 -25.335990,476.502386 -26.674662,478.485802 -28.013333,480.480061 -29.352005,482.485164 -30.690677,484.501110 -32.029323,486.528351 -33.367995,488.566435 -34.706667,490.615814 -36.045338,492.676941 -37.384010,494.749362 -38.722656,496.833530 -40.061328,498.929445 -41.400000,501.037107 -42.738672,503.156968 -44.077344,505.289479 -45.415990,507.434189 -46.754662,509.591097 -48.093333,511.761108 -49.432005,513.943769 -50.770677,516.139081 -52.109323,518.347947 -53.447995,520.569915 -54.786667,522.805438 -56.125338,525.054514 -57.464010,527.317144 -58.802656,529.594233 -60.141328,531.884875 -61.480000,534.190427 -62.818672,536.509984 -64.157331,538.844451 -65.496003,541.193828 -66.834662,543.558114 -68.173333,545.937762 -69.512005,548.332771 -70.850664,550.743593 -72.189336,553.170228 -73.527995,555.612676 -74.866667,558.071841 -76.205338,560.547270 -77.543997,563.039417 -78.882669,565.548280 -80.221328,568.074764 -81.560000,570.618416 -82.898672,573.179688 -84.237331,575.759032 -85.576003,578.356901 -86.914662,580.972842 -88.253333,583.607306 -89.592005,586.261198 -90.930664,588.934066 -92.269336,591.626813 -93.607995,594.338988 -94.946667,597.071493 -96.285338,599.824330 -97.623997,602.597950 -98.962669,605.392353 -100.301328,608.208442 -101.640000,611.046218 -102.978672,613.906133 -104.317331,616.788185 -105.656003,619.693280 -106.994662,622.621417 -108.333333,625.573047 -108.333333,625.573047"/>
	<polyline fill="none" stroke="rgb(0,0,0)" stroke-dasharray="4,2" stroke-width="2" stroke-opacity="1" clip-path="url(#clipArea1)" points="561.000000,111.749910 559.661354,111.749910 558.322656,111.749910 556.984010,111.749910 555.645313,111.749910 554.306667,111.749910 552.968020,111.749910 551.629323,111.749910 550.290677,111.749910 548.951980,111.749910 547.613333,111.749910 546.274687,111.749910 544.935990,111.749910 543.597344,111.749910 542.258646,111.749910 540.920000,111.749910 539.581354,111.749910 538.242656,111.749910 536.904010,111.749910 535.565313,111.749910 534.226667,111.749910 532.888020,111.749910 531.549323,111.749910 530.210677,111.749910 528.871980,111.749910 527.533333,111.749910 526.194687,111.749910 524.855990,111.749910 523.517344,111.749910 522.178646,111.749910 520.840000,111.749910 519.501354,111.749910 518.162656,111.749910 516.824010,111.749910 515.485313,111.749910 514.146667,111.749910 512.808020,111.749910 511.469323,111.749910 510.130677,111.749910 508.791980,111.749910 507.453333,111.749910 506.114687,111.749910 504.775990,111.749910 503.437344,111.749910 502.098646,111.749910 500.760000,111.749910 499.421354,111.749910 498.082656,111.749910 496.744010,111.749910 495.405313,111.749910 494.066667,111.749910 492.728020,111.749910 491.389323,111.749910 490.050677,111.749910 488.711980,111.749910 487.373333,111.749910 486.034687,111.749910 484.695990,111.749910 483.357344,111.749910 482.018646,111.749910 480.680000,111.749910 479.341354,111.749910 478.002656,111.749910 476.664010,111.749910 475.325313,111.749910 473.986667,111.749910 472.648020,111.749910 471.309323,111.749910 469.970677,111.749910 468.631980,111.749910 467.293333,111.749910 465.954687,111.749910 464.615990,111.749910 463.277344,111.749910 461.938646,111.749910 460.600000,111.749910 459.261354,111.749910 457.922656,111.749910 456.584010,111.749910 455.245313,111.749910 453.906667,111.749910 452.568020,111.749910 451.229323,111.749910 449.890677,111.749910 448.551980,111.749910 447.213333,111.749910 445.874687,111.749910 444.535990,111.749910 443.197344,111.749910 441.858646,111.749910 440.520000,111.749910 439.181354,111.749910 437.842656,111.749910 436.504010,111.749910 435.165313,111.749910 433.826667,111.749910 432.488020,111.749910 431.149323,111.749910 429.810677,111.749910 428.471980,111.749910 427.133333,111.749910 425.794687,111.749910 424.455990,111.749910 423.117344,111.749910 421.778646,111.749910 420.440000,111.749910 419.101354,111.749910 417.762656,111.749910 416.424010,111.749910 415.085313,111.749910 413.746667,111.749910 412.408020,111.749910 411.069323,111.749910 409.730677,111.749910 408.391980,111.749910 407.053333,111.749910 405.714687,111.749910 404.375990,111.749910 403.037344,111.749910 401.698646,111.749910 400.360000,111.749910 399.021354,111.749910 397.682656,111.749910 396.344010,111.749910 395.005313,111.749910 393.666667,111.749910 392.328020,111.749910 390.989323,111.749910 389.650677,111.749910 388.311980,111.749910 386.973333,111.749910 385.634687,111.749910 384.295990,111.749910 382.957344,111.749910 381.618646,111.749910 380.280000,111.749910 378.941354,111.749910 377.602656,111.749910 376.264010,111.749910 374.925313,111.749910 373.586667,111.749910 372.248020,111.749910 370.909323,111.749910 369.570677,111.749910 368.231980,111.749910 366.893333,111.749910 365.554687,111.749910 364.215990,111.749910 362.877344,111.749910 361.538646,111.749910 360.200000,111.749910 358.861354,111.749910 357.522656,111.749910 356.184010,111.749910 354.845313,111.749910 353.506667,111.749910 352.168020,111.749910 350.829323,111.749910 349.490677,111.749910 348.151980,111.749910 346.813333,111.749910 345.474687,111.749910 344.135990,111.749910 342.797344,111.749910 341.458646,111.749910 340.120000,111.749910 338.781354,111.749910 337.442656,111.749910 336.104010,111.749910 334.765313,111.749910 333.426667,111.749910 332.088020,111.749910 330.749323,111.749910 329.410677,111.749910 328.071980,111.749910 326.733333,111.749910 325.394687,111.749910 324.055990,111.749910 322.717344,111.749910 321.378646,111.749910 320.040000,111.749910 318.701354,111.749910 317.362656,111.749910 316.024010,111.749910 314.685313,111.749910 313.346667,111.749910 312.008020,111.749910 310.669323,111.749910 309.330677,111.749910 307.991980,111.749910 306.653333,111.749910 305.314687,111.749910 303.975990,111.749910 302.637344,111.749910 301.298646,111.749910 299.960000,111.749910 298.621354,111.749910 297.282656,111.749910 295.944010,111.749910 294.605313,111.749910 293.266667,111.749910 291.928020,111.749910 290.589323,111.749910 289.250677,111.749910 287.911980,111.749910 286.573333,111.749910 285.234687,111.749910 283.895990,111.749910 282.557344,111.749910 281.218646,111.749910 279.880000,111.749910 278.541354,111.749910 277.202656,111.749910 275.864010,111.749910 274.525313,111.749910 273.186667,111.749910 271.848020,111.749910 270.509323,111.749910 269.170677,111.749910 267.831980,111.749910 266.493333,111.749910 265.154687,111.749910 263.815990,111.749910 262.477344,111.749910 261.138646,111.749910 259.800000,111.749910 258.461354,111.749910 257.122656,111.749910 255.784010,111.749910 254.445313,111.749910 253.106667,111.749910 251.768020,111.749910 250.429323,111.749910 249.090677,111.749910 247.751980,111.749910 246.413333,111.749910 245.074687,111.749910 243.735990,111.749910 242.397344,111.749910 241.058646,111.749910 239.720000,111.749910 238.381354,111.749910 237.042656,111.749910 235.704010,111.749910 234.365313,111.749910 233.026667,111.749910 231.688020,111.749910 230.349323,111.749910 229.010677,111.749910 227.671980,111.749910 226.333333,111.749910 224.994687,111.749910 223.655990,111.749910 222.317344,111.749910 220.978646,111.749910 219.640000,111.749910 218.301354,111.749910 216.962656,111.749910 215.624010,111.749910 214.285313,111.749910 212.946667,111.749910 211.608020,111.749910 210.269323,111.749910 208.930677,111.749910 207.591980,111.749910 206.253333,111.749910 204.914687,111.749910 203.575990,111.749910 202.237344,111.749910 200.898646,111.749910 199.560000,111.749910 198.221354,111.749910 196.882656,111.749910 195.544010,111.749910 194.205313,111.749910 192.866667,111.749910 191.528020,111.749910 190.189323,111.749910 188.850677,111.749910 187.511980,111.749910 186.173333,111.749910 184.834687,111.749910 183.495990,111.749910 182.157344,111.749910 180.818646,111.749910 179.480000,111.749910 178.141354,111.749910 176.802656,111.749910 175.464010,111.749910 174.125313,111.749910 172.786667,111.749910 171.448020,111.749910 170.109323,111.749910 168.770677,111.749910 167.431980,111.749910 166.093333,111.749910 164.754687,111.749910 163.415990,111.749910 162.077344,111.749910 160.738646,111.749910 159.400000,111.749910 158.061354,111.749910 156.722656,111.749910 155.384010,111.749910 154.045313,111.749910 152.706667,111.749910 151.367995,111.749910 150.029323,111.749910 148.690677,111.749910 147.352005,111.749910 146.013333,111.749910 144.674662,111.749910 143.335990,111.749910 141.997344,111.749910 140.658672,111.749910 139.320000,111.749910 137.981328,111.749910 136.642656,111.749910 135.304010,111.749910 133.965338,111.749910 132.626667,111.749910 131.287995,111.749910 129.949323,111.749910 128.610677,111.749910 127.272005,111.749910 125.933333,111.749910 124.594662,111.749910 123.255990,111.749910 121.917344,111.749910 120.578672,111.749910 119.240000,111.749910 117.901328,111.749910 116.562656,111.749910 115.224010,111.749910 113.885338,111.749910 112.546667,111.749910 111.207995,111.749910 109.869323,111.749910 108.530677,111.749910 107.192005,111.749910 105.853333,111.749910 104.514662,111.749910 103.175990,111.749910 101.837344,111.749910 100.498672,111.749910 99.160000,111.749910 97.821328,111.749910 96.482656,111.749910 95.144010,111.749910 93.805338,111.749910 92.466667,111.749910 91.127995,111.749910 89.789323,111.749910 88.450677,111.749910 87.112005,111.749910 85.773333,111.749910 84.434662,111.749910 83.095990,111.749910 81.757344,111.749910 80.418672,111.749910 79.080000,111.749910 77.741328,111.749910 76.402656,111.749910 75.064010,111.749910 73.725338,111.749910 72.386667,111.749910 71.047995,111.749910 69.709323,111.749910 68.370677,111.749910 67.032005,111.749910 65.693333,111.749910 64.354662,111.749910 63.015990,111.749910 61.677344,111.749910 60.338672,111.749910 59.000000,111.749910 57.661328,111.749910 56.322656,111.749910 54.984010,111.749910 53.645338,111.749910 52.306667,111.749910 50.967995,111.749910 49.629323,111.749910 48.290677,111.749910 46.952005,111.749910 45.613333,111.749910 44.274662,111.749910 42.935990,111.749910 41.597344,111.749910 40.258672,111.749910 38.920000,111.749910 37.581328,111.749910 36.242656,111.749910 34.904010,111.749910 33.565338,111.749910 32.226667,111.749910 30.887995,111.749910 29.549323,111.749910 28.210677,111.749910 26.872005,111.749910 25.533333,111.749910 24.194662,111.749910 22.855990,111.749910 21.517344,111.749910 20.178672,111.749910 18.840000,111.749910 17.501328,111.749910 16.162656,111.749910 14.824010,111.749910 13.485338,111.749910 12.146667,111.749910 10.807995,111.749910 9.469323,111.749910 8.130677,111.749910 6.792005,111.749910 5.453333,111.749910 4.114662,111.749910 2.775990,111.749910 1.437344,111.749910 0.098672,111.749910 -1.240000,111.749910 -2.578672,111.749910 -3.917344,111.749910 -5.255990,111.749910 -6.594662,111.749910 -7.933333,111.749910 -9.272005,111.749910 -10.610677,111.749910 -11.949323,111.749910 -13.287995,111.749910 -14.626667,111.749910 -15.965338,111.749910 -17.304010,111.749910 -18.642656,111.749910 -19.981328,111.749910 -21.320000,111.749910 -22.658672,111.749910 -23.997344,111.749910 -25.335990,111.749910 -26.674662,111.749910 -28.013333,111.749910 -29.352005,111.749910 -30.690677,111.749910 -32.029323,111.749910 -33.367995,111.749910 -34.706667,111.749910 -36.045338,111.749910 -37.384010,111.749910 -38.722656,111.749910 -40.061328,111.749910 -41.400000,111.749910 -42.738672,111.749910 -44.077344,111.749910 -45.415990,111.749910 -46.754662,111.749910 -48.093333,111.749910 -49.432005,111.749910 -50.770677,111.749910 -52.109323,111.749910 -53.447995,111.749910 -54.786667,111.749910 -56.125338,111.749910 -57.464010,111.749910 -58.802656,111.749910 -60.141328,111.749910 -61.480000,111.749910 -62.818672,111.749910 -64.157331,111.749910 -65.496003,111.749910 -66.834662,111.749910 -68.173333,111.749910 -69.512005,111.749910 -70.850664,111.749910 -72.189336,111.749910 -73.527995,111.749910 -74.866667,111.749910 -76.205338,111.749910 -77.543997,111.749910 -78.882669,111.749910 -80.221328,111.749910 -81.560000,111.749910 -82.898672,111.749910 -84.237331,111.749910 -85.576003,111.749910 -86.914662,111.749910 -88.253333,111.749910 -89.592005,111.749910 -90.930664,111.749910 -92.269336,111.749910 -93.607995,111.749910 -94.946667,111.749910 -96.285338,111.749910 -97.623997,111.749910 -98.962669,111.749910 -100.301328,111.749910 -101.640000,111.749910 -102.978672,111.749910 -104.317331,111.749910 -105.656003,111.749910 -106.994662,111.749910 -108.333333,111.749910 -108.333333,111.749910"/>
	<polyline fill="none" stroke="rgb(238,46,47)" stroke-dasharray="4,2" stroke-width="2" stroke-opacity="1" clip-path="url(#clipArea1)" points="561.000000,91.742708 559.661354,91.922074 558.322656,92.101440 556.984010,92.280354 555.645313,92.458816 554.306667,92.637279 552.968020,92.815289 551.629323,92.992848 550.290677,93.169955 548.951980,93.347061 547.613333,93.523716 546.274687,93.699920 544.935990,93.876123 543.597344,94.051874 542.258646,94.227174 540.920000,94.402474 539.581354,94.576870 538.242656,94.751266 536.904010,94.925662 535.565313,95.099154 534.226667,95.272647 532.888020,95.445687 531.549323,95.618728 530.210677,95.791317 528.871980,95.963454 527.533333,96.135139 526.194687,96.306824 524.855990,96.478058 523.517344,96.648839 522.178646,96.819169 520.840000,96.989499 519.501354,97.159377 518.162656,97.329255 516.824010,97.498229 515.485313,97.667204 514.146667,97.836178 512.808020,98.004249 511.469323,98.172320 510.130677,98.339939 508.791980,98.507558 507.453333,98.674273 506.114687,98.840988 504.775990,99.007704 503.437344,99.173516 502.098646,99.339327 500.760000,99.505139 499.421354,99.670047 498.082656,99.834955 496.744010,99.999412 495.405313,100.163868 494.066667,100.327421 492.728020,100.490974 491.389323,100.654526 490.050677,100.817176 488.711980,100.979825 487.373333,101.142022 486.034687,101.304219 484.695990,101.465965 483.357344,101.627259 482.018646,101.788101 480.680000,101.948943 479.341354,102.109333 478.002656,102.269271 476.664010,102.429209 475.325313,102.588696 473.986667,102.747731 472.648020,102.906765 471.309323,103.065348 469.970677,103.223480 468.631980,103.381159 467.293333,103.538838 465.954687,103.696066 464.615990,103.853293 463.277344,104.009617 461.938646,104.166393 460.600000,104.322265 459.261354,104.478137 457.922656,104.633106 456.584010,104.788526 455.245313,104.943043 453.906667,105.097559 452.568020,105.251624 451.229323,105.405689 449.890677,105.559302 448.551980,105.712463 447.213333,105.865173 445.874687,106.017882 444.535990,106.170140 443.197344,106.322398 441.858646,106.474204 440.520000,106.625558 439.181354,106.776460 437.842656,106.927362 436.504010,107.077813 435.165313,107.227811 433.826667,107.377810 432.488020,107.527357 431.149323,107.676452 429.810677,107.825095 428.471980,107.973738 427.133333,108.122382 425.794687,108.270121 424.455990,108.417861 423.117344,108.565149 421.778646,108.712437 420.440000,108.859273 419.101354,109.005657 417.762656,109.151589 416.424010,109.297522 415.085313,109.443002 413.746667,109.588483 412.408020,109.733512 411.069323,109.878089 409.730677,110.022214 408.391980,110.166339 407.053333,110.310013 405.714687,110.453686 404.375990,110.596456 403.037344,110.739678 401.698646,110.881996 400.360000,111.024314 399.021354,111.166180 397.682656,111.307594 396.344010,111.449009 395.005313,111.589971 393.666667,111.730934 392.328020,111.870993 390.989323,112.011052 389.650677,112.151111 388.311980,112.290718 386.973333,112.429873 385.634687,112.568577 384.295990,112.707281 382.957344,112.845532 381.618646,112.983332 380.280000,113.121132 378.941354,113.258481 377.602656,113.395829 376.264010,113.532273 374.925313,113.668718 373.586667,113.805162 372.248020,113.941155 370.909323,114.076696 369.570677,114.211785 368.231980,114.346874 366.893333,114.481512 365.554687,114.615697 364.215990,114.749883 362.877344,114.883617 361.538646,115.017350 360.200000,115.150181 358.861354,115.283011 357.522656,115.415841 356.184010,115.548219 354.845313,115.680146 353.506667,115.811620 352.168020,115.943095 350.829323,116.074118 349.490677,116.205141 348.151980,116.335260 346.813333,116.465832 345.474687,116.595499 344.135990,116.725167 342.797344,116.854382 341.458646,116.983598 340.120000,117.111910 338.781354,117.240674 337.442656,117.368534 336.104010,117.496395 334.765313,117.623803 333.426667,117.751212 332.088020,117.878168 330.749323,118.004673 329.410677,118.130726 328.071980,118.256779 326.733333,118.382381 325.394687,118.507982 324.055990,118.633132 322.717344,118.757829 321.378646,118.882075 320.040000,119.006321 318.701354,119.130567 317.362656,119.253909 316.024010,119.377251 314.685313,119.500142 313.346667,119.623032 312.008020,119.745471 310.669323,119.867458 309.330677,119.989445 307.991980,120.110528 306.653333,120.232063 305.314687,120.352695 303.975990,120.473326 302.637344,120.593506 301.298646,120.713685 299.960000,120.833413 298.621354,120.952689 297.282656,121.071965 295.944010,121.190338 294.605313,121.309162 293.266667,121.427083 291.928020,121.545003 290.589323,121.662472 289.250677,121.779941 287.911980,121.896958 286.573333,122.013523 285.234687,122.129637 283.895990,122.245750 282.557344,122.361412 281.218646,122.477073 279.880000,122.592283 278.541354,122.707041 277.202656,122.821347 275.864010,122.935653 274.525313,123.049508 273.186667,123.163362 271.848020,123.276313 270.509323,123.389264 269.170677,123.502215 267.831980,123.614262 266.493333,123.726309 265.154687,123.838356 263.815990,123.949500 262.477344,124.060643 261.138646,124.171787 259.800000,124.282027 258.461354,124.392267 257.122656,124.502055 255.784010,124.611843 254.445313,124.721180 253.106667,124.830064 251.768020,124.938497 250.429323,125.046930 249.090677,125.154911 247.751980,125.262892 246.413333,125.369969 245.074687,125.477046 243.735990,125.583672 242.397344,125.690298 241.058646,125.796471 239.720000,125.902193 238.381354,126.007915 237.042656,126.112734 235.704010,126.217552 234.365313,126.322370 233.026667,126.426285 231.688020,126.530200 230.349323,126.634115 229.010677,126.737126 227.671980,126.840137 226.333333,126.942696 224.994687,127.044804 223.655990,127.146911 222.317344,127.248567 220.978646,127.349771 219.640000,127.450975 218.301354,127.551727 216.962656,127.652027 215.624010,127.751876 214.285313,127.851724 212.946667,127.950669 211.608020,128.050066 210.269323,128.148559 208.930677,128.247052 207.591980,128.345093 206.253333,128.442683 204.914687,128.539820 203.575990,128.636958 202.237344,128.733644 200.898646,128.829878 199.560000,128.926112 198.221354,129.021894 196.882656,129.117225 195.544010,129.212104 194.205313,129.306530 192.866667,129.400957 191.528020,129.494932 190.189323,129.588456 188.850677,129.681979 187.511980,129.774599 186.173333,129.867218 184.834687,129.959838 183.495990,130.051554 182.157344,130.143270 180.818646,130.234082 179.480000,130.325347 178.141354,130.415707 176.802656,130.505616 175.464010,130.595525 174.125313,130.684982 172.786667,130.773987 171.448020,130.862993 170.109323,130.951094 168.770677,131.039196 167.431980,131.126846 166.093333,131.214044 164.754687,131.301242 163.415990,131.387536 162.077344,131.473830 160.738646,131.559673 159.400000,131.645064 158.061354,131.730003 156.722656,131.814942 155.384010,131.899429 154.045313,131.983464 152.706667,132.067048 151.367995,132.150180 150.029323,132.232860 148.690677,132.315540 147.352005,132.397768 146.013333,132.479093 144.674662,132.560869 143.335990,132.641742 141.997344,132.722163 140.658672,132.802584 139.320000,132.882101 137.981328,132.961618 136.642656,133.040684 135.304010,133.119298 133.965338,133.197460 132.626667,133.275170 131.287995,133.352880 129.949323,133.429687 128.610677,133.506493 127.272005,133.582848 125.933333,133.658751 124.594662,133.734202 123.255990,133.809201 121.917344,133.883749 120.578672,133.957844 119.240000,134.031488 117.901328,134.105132 116.562656,134.177873 115.224010,134.250613 113.885338,134.322901 112.546667,134.394738 111.207995,134.465671 109.869323,134.536604 108.530677,134.607086 107.192005,134.677115 105.853333,134.746693 104.514662,134.815819 103.175990,134.884493 101.837344,134.953167 100.498672,135.020937 99.160000,135.088256 97.821328,135.155123 96.482656,135.221538 95.144010,135.287953 93.805338,135.353465 92.466667,135.418524 91.127995,135.483132 89.789323,135.547740 88.450677,135.611444 87.112005,135.674697 85.773333,135.737497 84.434662,135.800298 83.095990,135.862195 81.757344,135.923640 80.418672,135.984634 79.080000,136.045175 77.741328,136.105265 76.402656,136.164903 75.064010,136.224089 73.725338,136.282372 72.386667,136.340655 71.047995,136.398485 69.709323,136.455413 68.370677,136.511888 67.032005,136.568363 65.693333,136.623935 64.354662,136.679055 63.015990,136.733723 61.677344,136.787940 60.338672,136.841253 59.000000,136.894565 57.661328,136.946975 56.322656,136.999384 54.984010,137.050889 53.645338,137.101943 52.306667,137.152093 50.967995,137.202243 49.629323,137.251490 48.290677,137.300285 46.952005,137.348628 45.613333,137.396519 44.274662,137.443958 42.935990,137.490494 41.597344,137.536578 40.258672,137.582210 38.920000,137.626938 37.581328,137.671215 36.242656,137.715492 34.904010,137.758413 33.565338,137.801334 32.226667,137.843352 30.887995,137.884918 29.549323,137.925580 28.210677,137.965791 26.872005,138.005549 25.533333,138.044856 24.194662,138.083260 22.855990,138.121211 21.517344,138.158259 20.178672,138.195307 18.840000,138.230999 17.501328,138.266692 16.162656,138.301481 14.824010,138.335366 13.485338,138.368799 12.146667,138.401781 10.807995,138.433859 9.469323,138.465485 8.130677,138.496208 6.792005,138.526479 5.453333,138.555846 4.114662,138.584761 2.775990,138.612773 1.437344,138.640333 0.098672,138.666989 -1.240000,138.693194 -2.578672,138.718495 -3.917344,138.742892 -5.255990,138.766838 -6.594662,138.790332 -7.933333,138.812470 -9.272005,138.834157 -10.610677,138.855391 -11.949323,138.875722 -13.287995,138.895150 -14.626667,138.913674 -15.965338,138.931746 -17.304010,138.948915 -18.642656,138.965179 -19.981328,138.980993 -21.320000,138.995902 -22.658672,139.009908 -23.997344,139.023010 -25.335990,139.035661 -26.674662,139.046956 -28.013333,139.057799 -29.352005,139.067739 -30.690677,139.076775 -32.029323,139.085359 -33.367995,139.092588 -34.706667,139.098913 -36.045338,139.104787 -37.384010,139.109305 -38.722656,139.113371 -40.061328,139.116534 -41.400000,139.118341 -42.738672,139.119696 -44.077344,139.119696 -45.415990,139.119244 -46.754662,139.117437 -48.093333,139.114726 -49.432005,139.111564 -50.770677,139.107046 -52.109323,139.101172 -53.447995,139.094847 -54.786667,139.087166 -56.125338,139.079034 -57.464010,139.069546 -58.802656,139.058703 -60.141328,139.047408 -61.480000,139.034757 -62.818672,139.020751 -64.157331,139.006294 -65.496003,138.990029 -66.834662,138.973312 -68.173333,138.955240 -69.512005,138.935812 -70.850664,138.915481 -72.189336,138.894246 -73.527995,138.871656 -74.866667,138.847711 -76.205338,138.822861 -77.543997,138.796657 -78.882669,138.769097 -80.221328,138.740633 -81.560000,138.710362 -82.898672,138.679188 -84.237331,138.647110 -85.576003,138.613225 -86.914662,138.578436 -88.253333,138.541840 -89.592005,138.504340 -90.930664,138.465033 -92.269336,138.424823 -93.607995,138.383257 -94.946667,138.339884 -96.285338,138.295155 -97.623997,138.249071 -98.962669,138.201632 -100.301328,138.152837 -101.640000,138.102235 -102.978672,138.050278 -104.317331,137.996965 -105.656003,137.941845 -106.994662,137.884918 -108.333333,137.826635 -108.333333,137.826635"/>
	<polyline fill="none" stroke="rgb(238,46,47)" stroke-width="2" stroke-opacity="1" clip-path="url(#clipArea1)" points="561.000000,31.002285 559.661354,31.617189 558.322656,32.232093 556.984010,32.847449 555.645313,33.463257 554.306667,34.079065 552.968020,34.695776 551.629323,35.312488 550.290677,35.929651 548.951980,36.546814 547.613333,37.164881 546.274687,37.782948 544.935990,38.401918 543.597344,39.020888 542.258646,39.639859 540.920000,40.259733 539.581354,40.880059 538.242656,41.500384 536.904010,42.121614 535.565313,42.742843 534.226667,43.364524 532.888020,43.986657 531.549323,44.609242 530.210677,45.232279 528.871980,45.855767 527.533333,46.479707 526.194687,47.103648 524.855990,47.728492 523.517344,48.353787 522.178646,48.979083 520.840000,49.605282 519.501354,50.231933 518.162656,50.858584 516.824010,51.486139 515.485313,52.113693 514.146667,52.742152 512.808020,53.371062 511.469323,53.999972 510.130677,54.629786 508.791980,55.260051 507.453333,55.890768 506.114687,56.521937 504.775990,57.153558 503.437344,57.785631 502.098646,58.418155 500.760000,59.051584 499.421354,59.685012 498.082656,60.319343 496.744010,60.954127 495.405313,61.589362 494.066667,62.225049 492.728020,62.861188 491.389323,63.497779 490.050677,64.135273 488.711980,64.773219 487.373333,65.411617 486.034687,66.050467 484.695990,66.690220 483.357344,67.329974 482.018646,67.970631 480.680000,68.612191 479.341354,69.253752 478.002656,69.896216 476.664010,70.539132 475.325313,71.182500 473.986667,71.826771 472.648020,72.471494 471.309323,73.116669 469.970677,73.762748 468.631980,74.409278 467.293333,75.056260 465.954687,75.703694 464.615990,76.352484 463.277344,77.001273 461.938646,77.650966 460.600000,78.301111 459.261354,78.952159 457.922656,79.603660 456.584010,80.255612 455.245313,80.908467 453.906667,81.562227 452.568020,82.215986 451.229323,82.871100 449.890677,83.526667 448.551980,84.182685 447.213333,84.839607 445.874687,85.496981 444.535990,86.155258 443.197344,86.814439 441.858646,87.474072 440.520000,88.134156 439.181354,88.795144 437.842656,89.457036 436.504010,90.119379 435.165313,90.782626 433.826667,91.446777 432.488020,92.111380 431.149323,92.776886 429.810677,93.442844 428.471980,94.109705 427.133333,94.777470 425.794687,95.446139 424.455990,96.115260 423.117344,96.785284 421.778646,97.455760 420.440000,98.127591 419.101354,98.799874 417.762656,99.473061 416.424010,100.146700 415.085313,100.821694 413.746667,101.497139 412.408020,102.173489 411.069323,102.850742 409.730677,103.528447 408.391980,104.207507 407.053333,104.887019 405.714687,105.567435 404.375990,106.248754 403.037344,106.930977 401.698646,107.614103 400.360000,108.298133 399.021354,108.982615 397.682656,109.668452 396.344010,110.355193 395.005313,111.042386 393.666667,111.730934 392.328020,112.419934 390.989323,113.110289 389.650677,113.801096 388.311980,114.493259 386.973333,115.185873 385.634687,115.879843 384.295990,116.574264 382.957344,117.270041 381.618646,117.966722 380.280000,118.664306 378.941354,119.362794 377.602656,120.062185 376.264010,120.762480 374.925313,121.464130 373.586667,122.166233 372.248020,122.869690 370.909323,123.574051 369.570677,124.279316 368.231980,124.985936 366.893333,125.693008 365.554687,126.401436 364.215990,127.110767 362.877344,127.821453 361.538646,128.532592 360.200000,129.245085 358.861354,129.958934 357.522656,130.673235 356.184010,131.388891 354.845313,132.105903 353.506667,132.823367 352.168020,133.542186 350.829323,134.262360 349.490677,134.983438 348.151980,135.705419 346.813333,136.428756 345.474687,137.152997 344.135990,137.878593 342.797344,138.605092 341.458646,139.332947 340.120000,140.061706 338.781354,140.791820 337.442656,141.522837 336.104010,142.255210 334.765313,142.988487 333.426667,143.723119 332.088020,144.459106 330.749323,145.195997 329.410677,145.934244 328.071980,146.673846 326.733333,147.414351 325.394687,148.156212 324.055990,148.898977 322.717344,149.643548 321.378646,150.389024 320.040000,151.135402 318.701354,151.883589 317.362656,152.632678 316.024010,153.383123 314.685313,154.134924 313.346667,154.888080 312.008020,155.642591 310.669323,156.398006 309.330677,157.154777 307.991980,157.913354 306.653333,158.672835 305.314687,159.433672 303.975990,160.195864 302.637344,160.959411 301.298646,161.724314 299.960000,162.490572 298.621354,163.258186 297.282656,164.027155 295.944010,164.797480 294.605313,165.569160 293.266667,166.342195 291.928020,167.116585 290.589323,167.892332 289.250677,168.669885 287.911980,169.448794 286.573333,170.228606 285.234687,171.010226 283.895990,171.793652 282.557344,172.577983 281.218646,173.364120 279.880000,174.151613 278.541354,174.940462 277.202656,175.731117 275.864010,176.522676 274.525313,177.316495 273.186667,178.111217 271.848020,178.907746 270.509323,179.705630 269.170677,180.505322 267.831980,181.306369 266.493333,182.109223 265.154687,182.913433 263.815990,183.719450 262.477344,184.526822 261.138646,185.336002 259.800000,186.146537 258.461354,186.958879 257.122656,187.772576 255.784010,188.588081 254.445313,189.405393 253.106667,190.224061 251.768020,191.044535 250.429323,191.866817 249.090677,192.690454 247.751980,193.515899 246.413333,194.343150 245.074687,195.172209 243.735990,196.003075 242.397344,196.835297 241.058646,197.669326 239.720000,198.505613 238.381354,199.343256 237.042656,200.182707 235.704010,201.023513 234.365313,201.866577 233.026667,202.711449 231.688020,203.558129 230.349323,204.406615 229.010677,205.256909 227.671980,206.109010 226.333333,206.963369 224.994687,207.819085 223.655990,208.676607 222.317344,209.536389 220.978646,210.397977 219.640000,211.261373 218.301354,212.127028 216.962656,212.994490 215.624010,213.863760 214.285313,214.734836 212.946667,215.608172 211.608020,216.483315 210.269323,217.360717 208.930677,218.239926 207.591980,219.120942 206.253333,220.004217 204.914687,220.889751 203.575990,221.777093 202.237344,222.666693 200.898646,223.558101 199.560000,224.451768 198.221354,225.347694 196.882656,226.245878 195.544010,227.145870 194.205313,228.048121 192.866667,228.952180 191.528020,229.858949 190.189323,230.767525 188.850677,231.678812 187.511980,232.591906 186.173333,233.507260 184.834687,234.424872 183.495990,235.344743 182.157344,236.266874 180.818646,237.191715 179.480000,238.118363 178.141354,239.047722 176.802656,239.978889 175.464010,240.912766 174.125313,241.848902 172.786667,242.787749 171.448020,243.728855 170.109323,244.672220 168.770677,245.617845 167.431980,246.566180 166.093333,247.516773 164.754687,248.470078 163.415990,249.426094 162.077344,250.384368 160.738646,251.344902 159.400000,252.308146 158.061354,253.274102 156.722656,254.242768 155.384010,255.213693 154.045313,256.187329 152.706667,257.163676 151.367995,258.142733 150.029323,259.124501 148.690677,260.108981 147.352005,261.095719 146.013333,262.085620 144.674662,263.078231 143.335990,264.073554 141.997344,265.071587 140.658672,266.072783 139.320000,267.076238 137.981328,268.082855 136.642656,269.092184 135.304010,270.104675 133.965338,271.119877 132.626667,272.138241 131.287995,273.159316 129.949323,274.183554 128.610677,275.210503 127.272005,276.240614 125.933333,277.273888 124.594662,278.309873 123.255990,279.349472 121.917344,280.391782 120.578672,281.437255 119.240000,282.485890 117.901328,283.538140 116.562656,284.593100 115.224010,285.651223 113.885338,286.712961 112.546667,287.777861 111.207995,288.845924 109.869323,289.917601 108.530677,290.992441 107.192005,292.070443 105.853333,293.152060 104.514662,294.237291 103.175990,295.325685 101.837344,296.417694 100.498672,297.513316 99.160000,298.612554 97.821328,299.714953 96.482656,300.821419 95.144010,301.931500 93.805338,303.044743 92.466667,304.162052 91.127995,305.282976 89.789323,306.407966 88.450677,307.536119 87.112005,308.668789 85.773333,309.804623 84.434662,310.944974 83.095990,312.088940 81.757344,313.236520 80.418672,314.388618 79.080000,315.544331 77.741328,316.704561 76.402656,317.868406 75.064010,319.036769 73.725338,320.208747 72.386667,321.385242 71.047995,322.566256 69.709323,323.750884 68.370677,324.940482 67.032005,326.134146 65.693333,327.331876 64.354662,328.534125 63.015990,329.741343 61.677344,330.952627 60.338672,332.168430 59.000000,333.388750 57.661328,334.614040 56.322656,335.843849 54.984010,337.078175 53.645338,338.317471 52.306667,339.561285 50.967995,340.810070 49.629323,342.063823 48.290677,343.322547 46.952005,344.586241 45.613333,345.854904 44.274662,347.128537 42.935990,348.407140 41.597344,349.691165 40.258672,350.980612 38.920000,352.275028 37.581328,353.574414 36.242656,354.879673 34.904010,356.190354 33.565338,357.506005 32.226667,358.827530 30.887995,360.154927 29.549323,361.487295 28.210677,362.825988 26.872005,364.170103 25.533333,365.520091 24.194662,366.875500 22.855990,368.237235 21.517344,369.604843 20.178672,370.978777 18.840000,372.358584 17.501328,373.744264 16.162656,375.136722 14.824010,376.535053 13.485338,377.939709 12.146667,379.350690 10.807995,380.768449 9.469323,382.192533 8.130677,383.623393 6.792005,385.060579 5.453333,386.504542 4.114662,387.955734 2.775990,389.413251 1.437344,390.877997 0.098672,392.349972 -1.240000,393.828724 -2.578672,395.314705 -3.917344,396.807463 -5.255990,398.307901 -6.594662,399.816020 -7.933333,401.330916 -9.272005,402.853945 -10.610677,404.384202 -11.949323,405.922141 -13.287995,407.467759 -14.626667,409.021511 -15.965338,410.582942 -17.304010,412.152055 -18.642656,413.729752 -19.981328,415.315129 -21.320000,416.909091 -22.658672,418.511185 -23.997344,420.121412 -25.335990,421.740223 -26.674662,423.367618 -28.013333,425.003597 -29.352005,426.648161 -30.690677,428.301761 -32.029323,429.963945 -33.367995,431.635165 -34.706667,433.314969 -36.045338,435.004261 -37.384010,436.702590 -38.722656,438.409954 -40.061328,440.126806 -41.400000,441.852694 -42.738672,443.588070 -44.077344,445.333386 -45.415990,447.087738 -46.754662,448.851578 -48.093333,450.625357 -49.432005,452.408624 -50.770677,454.201831 -52.109323,456.004526 -53.447995,457.817161 -54.786667,459.639735 -56.125338,461.471797 -57.464010,463.314250 -58.802656,465.166192 -60.141328,467.028073 -61.480000,468.899441 -62.818672,470.781202 -64.157331,472.671998 -65.496003,474.572734 -66.834662,476.483410 -68.173333,478.403122 -69.512005,480.332322 -70.850664,482.271009 -72.189336,484.218281 -73.527995,486.174589 -74.866667,488.139481 -76.205338,490.112957 -77.543997,492.094566 -78.882669,494.083856 -80.221328,496.080374 -81.560000,498.084573 -82.898672,500.095549 -84.237331,502.112851 -85.576003,504.136477 -86.914662,506.165977 -88.253333,508.200899 -89.592005,510.242146 -90.930664,512.288814 -92.269336,514.341356 -93.607995,516.400675 -94.946667,518.467675 -96.285338,520.543259 -97.623997,522.630138 -98.962669,524.730119 -100.301328,526.845914 -101.640000,528.981587 -102.978672,531.141659 -104.317331,533.329290 -105.656003,535.550354 -106.994662,537.808918 -108.333333,540.110404 -108.333333,540.110404"/>
</svg>
