<?xml version="1.0" standalone="no"?>
<!DOCTYPE svg PUBLIC "-//W3C//DTD SVG 1.1//EN" "http://www.w3.org/Graphics/SVG/1.1/DTD/svg11.dtd">
<svg viewBox="0 0 483.000000 300.000000" version="1.1" xmlns="http://www.w3.org/2000/svg" xmlns:xlink="http://www.w3.org/1999/xlink">
	<polyline fill="none" stroke="rgb(229,229,229)" stroke-width="1" stroke-opacity="1" points="59.000000,17.000000 59.000000,275.000000"/>
	<polyline fill="none" stroke="rgb(229,229,229)" stroke-width="1" stroke-opacity="1" points="103.333333,17.000000 103.333333,275.000000"/>
	<polyline fill="none" stroke="rgb(229,229,229)" stroke-width="1" stroke-opacity="1" points="147.666667,17.000000 147.666667,275.000000"/>
	<polyline fill="none" stroke="rgb(229,229,229)" stroke-width="1" stroke-opacity="1" points="192.000000,17.000000 192.000000,275.000000"/>
	<polyline fill="none" stroke="rgb(229,229,229)" stroke-width="1" stroke-opacity="1" points="236.333333,17.000000 236.333333,275.000000"/>
	<polyline fill="none" stroke="rgb(229,229,229)" stroke-width="1" stroke-opacity="1" points="280.666667,17.000000 280.666667,275.000000"/>
	<polyline fill="none" stroke="rgb(229,229,229)" stroke-width="1" stroke-opacity="1" points="325.000000,17.000000 325.000000,275.000000"/>
	<polyline fill="none" stroke="rgb(229,229,229)" stroke-width="1" stroke-opacity="1" points="369.333333,17.000000 369.333333,275.000000"/>
	<polyline fill="none" stroke="rgb(229,229,229)" stroke-width="1" stroke-opacity="1" points="413.666667,17.000000 413.666667,275.000000"/>
	<polyline fill="none" stroke="rgb(229,229,229)" stroke-width="1" stroke-opacity="1" points="458.000000,17.000000 458.000000,275.000000"/>
	<polyline fill="none" stroke="rgb(229,229,229)" stroke-width="1" stroke-opacity="1" points="59.000000,275.000000 458.000000,275.000000"/>
	<polyline fill="none" stroke="rgb(229,229,229)" stroke-width="1" stroke-opacity="1" points="59.000000,246.333333 458.000000,246.333333"/>
	<polyline fill="none" stroke="rgb(229,229,229)" stroke-width="1" stroke-opacity="1" points="59.000000,217.666667 458.000000,217.666667"/>
	<polyline fill="none" stroke="rgb(229,229,229)" stroke-width="1" stroke-opacity="1" points="59.000000,189.000000 458.000000,189.000000"/>
	<polyline fill="none" stroke="rgb(229,229,229)" stroke-width="1" stroke-opacity="1" points="59.000000,160.333333 458.000000,160.333333"/>
	<polyline fill="none" stroke="rgb(229,229,229)" stroke-width="1" stroke-opacity="1" points="59.000000,131.666667 458.000000,131.666667"/>
	<polyline fill="none" stroke="rgb(229,229,229)" stroke-width="1" stroke-opacity="1" points="59.000000,103.000000 458.000000,103.000000"/>
	<polyline fill="none" stroke="rgb(229,229,229)" stroke-width="1" stroke-opacity="1" points="59.000000,74.333333 458.000000,74.333333"/>
	<polyline fill="none" stroke="rgb(229,229,229)" stroke-width="1" stroke-opacity="1" points="59.000000,45.666667 458.000000,45.666667"/>
	<polyline fill="none" stroke="rgb(229,229,229)" stroke-width="1" stroke-opacity="1" points="59.000000,17.000000 458.000000,17.000000"/>
	<polyline fill="none" stroke="rgb(0,0,0)" stroke-width="1" stroke-opacity="1" points="59.000000,275.000000 458.000000,275.000000"/>
	<polyline fill="none" stroke="rgb(0,0,0)" stroke-width="1" stroke-opacity="1" points="458.000000,275.000000 458.000000,17.000000"/>
	<polyline fill="none" stroke="rgb(0,0,0)" stroke-width="1" stroke-opacity="1" points="458.000000,17.000000 59.000000,17.000000"/>
	<polyline fill="none" stroke="rgb(0,0,0)" stroke-width="1" stroke-opacity="1" points="59.000000,17.000000 59.000000,275.000000"/>
	<polyline fill="none" stroke="rgb(0,0,0)" stroke-width="1" stroke-opacity="1" points="59.000000,275.000000 59.000000,279.000000"/>
	<polyline fill="none" stroke="rgb(0,0,0)" stroke-width="1" stroke-opacity="1" points="103.333333,275.000000 103.333333,279.000000"/>
	<polyline fill="none" stroke="rgb(0,0,0)" stroke-width="1" stroke-opacity="1" points="147.666667,275.000000 147.666667,279.000000"/>
	<polyline fill="none" stroke="rgb(0,0,0)" stroke-width="1" stroke-opacity="1" points="192.000000,275.000000 192.000000,279.000000"/>
	<polyline fill="none" stroke="rgb(0,0,0)" stroke-width="1" stroke-opacity="1" points="236.333333,275.000000 236.333333,279.000000"/>
	<polyline fill="none" stroke="rgb(0,0,0)" stroke-width="1" stroke-opacity="1" points="280.666667,275.000000 280.666667,279.000000"/>
	<polyline fill="none" stroke="rgb(0,0,0)" stroke-width="1" stroke-opacity="1" points="325.000000,275.000000 325.000000,279.000000"/>
	<polyline fill="none" stroke="rgb(0,0,0)" stroke-width="1" stroke-opacity="1" points="369.333333,275.000000 369.333333,279.000000"/>
	<polyline fill="none" stroke="rgb(0,0,0)" stroke-width="1" stroke-opacity="1" points="413.666667,275.000000 413.666667,279.000000"/>
	<polyline fill="none" stroke="rgb(0,0,0)" stroke-width="1" stroke-opacity="1" points="458.000000,275.000000 458.000000,279.000000"/>
	<polyline fill="none" stroke="rgb(0,0,0)" stroke-width="1" stroke-opacity="1" points="59.000000,275.000000 59.000000,281.400000"/>
	<text x="59" y="291.5" fill="rgb(0,0,0)" dominant-baseline="central" font-size="11" font-family="Arial" text-anchor="middle">20</text>
	<polyline fill="none" stroke="rgb(0,0,0)" stroke-width="1" stroke-opacity="1" points="147.666667,275.000000 147.666667,281.400000"/>
	<text x="147.667" y="291.5" fill="rgb(0,0,0)" dominant-baseline="central" font-size="11" font-family="Arial" text-anchor="middle">30</text>
	<polyline fill="none" stroke="rgb(0,0,0)" stroke-width="1" stroke-opacity="1" points="236.333333,275.000000 236.333333,281.400000"/>
	<text x="236.333" y="291.5" fill="rgb(0,0,0)" dominant-baseline="central" font-size="11" font-family="Arial" text-anchor="middle">40</text>
	<polyline fill="none" stroke="rgb(0,0,0)" stroke-width="1" stroke-opacity="1" points="325.000000,275.000000 325.000000,281.400000"/>
	<text x="325" y="291.5" fill="rgb(0,0,0)" dominant-baseline="central" font-size="11" font-family="Arial" text-anchor="middle">50</text>
	<polyline fill="none" stroke="rgb(0,0,0)" stroke-width="1" stroke-opacity="1" points="413.666667,275.000000 413.666667,281.400000"/>
	<text x="413.667" y="291.5" fill="rgb(0,0,0)" dominant-baseline="central" font-size="11" font-family="Arial" text-anchor="middle">60</text>
	<polyline fill="none" stroke="rgb(0,0,0)" stroke-width="1" stroke-opacity="1" points="55.000000,275.000000 59.000000,275.000000"/>
	<polyline fill="none" stroke="rgb(0,0,0)" stroke-width="1" stroke-opacity="1" points="55.000000,246.333333 59.000000,246.333333"/>
	<polyline fill="none" stroke="rgb(0,0,0)" stroke-width="1" stroke-opacity="1" points="55.000000,217.666667 59.000000,217.666667"/>
	<polyline fill="none" stroke="rgb(0,0,0)" stroke-width="1" stroke-opacity="1" points="55.000000,189.000000 59.000000,189.000000"/>
	<polyline fill="none" stroke="rgb(0,0,0)" stroke-width="1" stroke-opacity="1" points="55.000000,160.333333 59.000000,160.333333"/>
	<polyline fill="none" stroke="rgb(0,0,0)" stroke-width="1" stroke-opacity="1" points="55.000000,131.666667 59.000000,131.666667"/>
	<polyline fill="none" stroke="rgb(0,0,0)" stroke-width="1" stroke-opacity="1" points="55.000000,103.000000 59.000000,103.000000"/>
	<polyline fill="none" stroke="rgb(0,0,0)" stroke-width="1" stroke-opacity="1" points="55.000000,74.333333 59.000000,74.333333"/>
	<polyline fill="none" stroke="rgb(0,0,0)" stroke-width="1" stroke-opacity="1" points="55.000000,45.666667 59.000000,45.666667"/>
	<polyline fill="none" stroke="rgb(0,0,0)" stroke-width="1" stroke-opacity="1" points="55.000000,17.000000 59.000000,17.000000"/>
	<rect fill="none" stroke="none" stroke-dasharray="none" stroke-width="1" stroke-opacity="1" x="0" y="267" width="51" height="16"/>
	<polyline fill="none" stroke="rgb(0,0,0)" stroke-width="1" stroke-opacity="1" points="52.600000,275.000000 59.000000,275.000000"/>
	<text x="51" y="275" fill="rgb(0,0,0)" dominant-baseline="central" font-size="11" font-family="Arial" text-anchor="end">0</text>
	<polyline fill="none" stroke="rgb(0,0,0)" stroke-width="1" stroke-opacity="1" points="52.600000,217.666667 59.000000,217.666667"/>
	<text x="51" y="217.667" fill="rgb(0,0,0)" dominant-baseline="central" font-size="11" font-family="Arial" text-anchor="end">10</text>
	<polyline fill="none" stroke="rgb(0,0,0)" stroke-width="1" stroke-opacity="1" points="52.600000,160.333333 59.000000,160.333333"/>
	<text x="51" y="160.333" fill="rgb(0,0,0)" dominant-baseline="central" font-size="11" font-family="Arial" text-anchor="end">20</text>
	<polyline fill="none" stroke="rgb(0,0,0)" stroke-width="1" stroke-opacity="1" points="52.600000,103.000000 59.000000,103.000000"/>
	<text x="51" y="103" fill="rgb(0,0,0)" dominant-baseline="central" font-size="11" font-family="Arial" text-anchor="end">30</text>
	<polyline fill="none" stroke="rgb(0,0,0)" stroke-width="1" stroke-opacity="1" points="52.600000,45.666667 59.000000,45.666667"/>
	<text x="51" y="45.6667" fill="rgb(0,0,0)" dominant-baseline="central" font-size="11" font-family="Arial" text-anchor="end">40</text>
	<clipPath id="clipArea1">
		<rect x="59" y="17" width="399" height="258">
		</rect>
	</clipPath>
	<polyline fill="none" stroke="rgb(238,46,47)" stroke-width="2" stroke-opacity="1" clip-path="url(#clipArea1)" points="59.000000,262.488977 60.064007,262.491430 61.127998,262.493875 62.192005,262.496312 63.255996,262.498744 64.320003,262.501168 65.383994,262.503584 66.448001,262.505996 67.511992,262.508399 68.575999,262.510796 69.640007,262.513186 70.703997,262.515570 71.768005,262.517947 72.831995,262.520317 73.896003,262.522680 74.959993,262.525038 76.024001,262.527389 77.088008,262.529735 78.151999,262.532074 79.216006,262.534406 80.279997,262.536732 81.344004,262.539052 82.407995,262.541366 83.472002,262.543674 84.535993,262.545976 85.600000,262.548271 86.664007,262.550562 87.727998,262.552846 88.792005,262.555123 89.855996,262.557395 90.920003,262.559663 91.983994,262.561922 93.048001,262.564178 94.111992,262.566428 95.175999,262.568671 96.240007,262.570908 97.303997,262.573142 98.368005,262.575369 99.431995,262.577590 100.496003,262.579806 101.559993,262.582018 102.624001,262.584222 103.688008,262.586423 104.751999,262.588617 105.816006,262.590807 106.879997,262.592991 107.944004,262.595170 109.007995,262.597344 110.072002,262.599512 111.135993,262.601675 112.200000,262.603834 113.264007,262.605987 114.327998,262.608136 115.392005,262.610279 116.455996,262.612417 117.520003,262.614551 118.583994,262.616679 119.648001,262.618803 120.711992,262.620922 121.775999,262.623035 122.840007,262.625144 123.903997,262.627249 124.968005,262.629349 126.031995,262.631443 127.096003,262.633535 128.159993,262.635619 129.224001,262.637701 130.288008,262.639777 131.351999,262.641850 132.416006,262.643916 133.479997,262.645979 134.544004,262.648038 135.607995,262.650091 136.672002,262.652140 137.735993,262.654185 138.800000,262.656226 139.864007,262.658262 140.927998,262.660294 141.992005,262.662321 143.055996,262.664345 144.120003,262.666363 145.183994,262.668378 146.248001,262.670388 147.311992,262.672395 148.375999,262.674396 149.440007,262.676395 150.503997,262.678388 151.568005,262.680378 152.631995,262.682363 153.696003,262.684345 154.759993,262.686321 155.824001,262.688295 156.888008,262.690265 157.951999,262.692229 159.016006,262.694191 160.079997,262.696148 161.144004,262.698102 162.207995,262.700051 163.272002,262.701996 164.335993,262.703938 165.400000,262.705877 166.463991,262.707810 167.528015,262.709740 168.592005,262.711667 169.655996,262.713589 170.719986,262.715508 171.784011,262.717423 172.848001,262.719334 173.911992,262.721242 174.976016,262.723147 176.040007,262.725047 177.103997,262.726943 178.167988,262.728836 179.232012,262.730725 180.296003,262.732611 181.359993,262.734493 182.423984,262.736372 183.488008,262.738247 184.551999,262.740118 185.615989,262.741987 186.680014,262.743852 187.744004,262.745712 188.807995,262.747570 189.871985,262.749423 190.936009,262.751274 192.000000,262.753121 193.063991,262.754965 194.128015,262.756806 195.192005,262.758642 196.255996,262.760476 197.319986,262.762306 198.384011,262.764133 199.448001,262.765958 200.511992,262.767777 201.576016,262.769594 202.640007,262.771408 203.703997,262.773219 204.767988,262.775026 205.832012,262.776830 206.896003,262.778630 207.959993,262.780428 209.023984,262.782223 210.088008,262.784013 211.151999,262.785801 212.215989,262.787587 213.280014,262.789369 214.344004,262.791147 215.407995,262.792923 216.471985,262.794696 217.536009,262.796465 218.600000,262.798231 219.663991,262.799994 220.728015,262.801755 221.792005,262.803511 222.855996,262.805266 223.919986,262.807017 224.984011,262.808766 226.048001,262.810510 227.111992,262.812253 228.176016,262.813992 229.240007,262.815728 230.303997,262.817461 231.367988,262.819191 232.432012,262.820919 233.496003,262.822644 234.559993,262.824365 235.623984,262.826085 236.688008,262.827800 237.751999,262.829513 238.815989,262.831225 239.880014,262.832932 240.944004,262.834636 242.007995,262.836338 243.071985,262.838037 244.136009,262.839734 245.200000,262.841427 246.263991,262.843118 247.328015,262.844805 248.392005,262.846490 249.455996,262.848173 250.519986,262.849853 251.584011,262.851530 252.648001,262.853205 253.711992,262.854877 254.776016,262.856546 255.840007,262.858212 256.903997,262.859875 257.967988,262.861536 259.032012,262.863194 260.096003,262.864850 261.159993,262.866504 262.223984,262.868154 263.288008,262.869802 264.351999,262.871447 265.415989,262.873090 266.480014,262.874730 267.544004,262.876367 268.607995,262.878002 269.671985,262.879634 270.736009,262.881265 271.800000,262.882892 272.863991,262.884517 273.928015,262.886140 274.992005,262.887759 276.055996,262.889377 277.119986,262.890991 278.184011,262.892604 279.248001,262.894214 280.311992,262.895822 281.376016,262.897426 282.440007,262.899028 283.503997,262.900629 284.567988,262.902227 285.632012,262.903822 286.696003,262.905415 287.759993,262.907006 288.823984,262.908594 289.888008,262.910180 290.951999,262.911763 292.015989,262.913344 293.080014,262.914923 294.144004,262.916499 295.207995,262.918073 296.271985,262.919645 297.336009,262.921214 298.400000,262.922782 299.463991,262.924345 300.528015,262.925908 301.592005,262.927469 302.655996,262.929026 303.719986,262.930581 304.784011,262.932136 305.848001,262.933686 306.911992,262.935234 307.976016,262.936782 309.040007,262.938326 310.103997,262.939868 311.167988,262.941408 312.232012,262.942945 313.296003,262.944480 314.359993,262.946014 315.423984,262.947545 316.488008,262.949073 317.551999,262.950600 318.615989,262.952126 319.680014,262.953647 320.744004,262.955167 321.807995,262.956686 322.871985,262.958202 323.936009,262.959715 325.000000,262.961227 326.063991,262.962736 327.128015,262.964244 328.192005,262.965749 329.255996,262.967252 330.319986,262.968753 331.384011,262.970251 332.448001,262.971748 333.511992,262.973243 334.576016,262.974736 335.640007,262.976226 336.703997,262.977715 337.767988,262.979202 338.832012,262.980686 339.896003,262.982168 340.959993,262.983648 342.023984,262.985128 343.088008,262.986604 344.151999,262.988077 345.215989,262.989550 346.280014,262.991020 347.344004,262.992488 348.407995,262.993955 349.471985,262.995419 350.536009,262.996882 351.600000,262.998342 352.663991,262.999800 353.728015,263.001256 354.792005,263.002710 355.855996,263.004163 356.919986,263.005614 357.984011,263.007063 359.048001,263.008509 360.111992,263.009954 361.176016,263.011397 362.240007,263.012838 363.303997,263.014276 364.367988,263.015714 365.432012,263.017149 366.496003,263.018582 367.559993,263.020013 368.623984,263.021443 369.688008,263.022871 370.751999,263.024297 371.815989,263.025720 372.880014,263.027143 373.944004,263.028563 375.007995,263.029981 376.071985,263.031398 377.136009,263.032812 378.200000,263.034225 379.263991,263.035636 380.328015,263.037045 381.392005,263.038453 382.455996,263.039858 383.519986,263.041262 384.584011,263.042664 385.648001,263.044064 386.711992,263.045463 387.776016,263.046858 388.840007,263.048254 389.903997,263.049647 390.967988,263.051038 392.032012,263.052427 393.096003,263.053815 394.159993,263.055201 395.223984,263.056585 396.288008,263.057967 397.351999,263.059348 398.415989,263.060727 399.480014,263.062104 400.544004,263.063480 401.607995,263.064853 402.671985,263.066225 403.736009,263.067596 404.800000,263.068964 405.863991,263.070331 406.928015,263.071695 407.992005,263.073060 409.055996,263.074421 410.119986,263.075781 411.184011,263.077140 412.248001,263.078496 413.311992,263.079852 414.376016,263.081205 415.440007,263.082557 416.503997,263.083906 417.567988,263.085255 418.632012,263.086602 419.696003,263.087947 420.759993,263.089291 421.823984,263.090632 422.888008,263.091972 423.951999,263.093311 425.015989,263.094648 426.080014,263.095983 427.144004,263.097317 428.207995,263.098649 429.271985,263.099979 430.336009,263.101307 431.400000,263.102635 432.463991,263.103960 433.528015,263.105285 434.592005,263.106607 435.655996,263.107929 436.719986,263.109248 437.784011,263.110566 438.848001,263.111880 439.911992,263.113195 440.976016,263.114509 442.040007,263.115820 443.103997,263.117130 444.167988,263.118438 445.232012,263.119744 446.296003,263.121050 447.359993,263.122354 448.423984,263.123657 449.488008,263.124957 450.552032,263.126255 451.615989,263.127554 452.680014,263.128850 453.743970,263.130144 454.807995,263.131437 455.872019,263.132728 456.935976,263.134018 458.000000,263.135307 459.064024,263.136593"/>
	<polyline fill="none" stroke="rgb(238,46,47)" stroke-width="2" stroke-opacity="1" clip-path="url(#clipArea1)" points="59.000000,186.243410 60.064007,186.294320 61.127998,186.344984 62.192005,186.395396 63.255996,186.445568 64.320003,186.495500 65.383994,186.545185 66.448001,186.594635 67.511992,186.643856 68.575999,186.692841 69.640007,186.741597 70.703997,186.790123 71.768005,186.838430 72.831995,186.886508 73.896003,186.934367 74.959993,186.982013 76.024001,187.029435 77.088008,187.076648 78.151999,187.123649 79.216006,187.170436 80.279997,187.217022 81.344004,187.263399 82.407995,187.309568 83.472002,187.355541 84.535993,187.401311 85.600000,187.446885 86.664007,187.492262 87.727998,187.537447 88.792005,187.582436 89.855996,187.627238 90.920003,187.671849 91.983994,187.716269 93.048001,187.760509 94.111992,187.804562 95.175999,187.848435 96.240007,187.892128 97.303997,187.935640 98.368005,187.978977 99.431995,188.022140 100.496003,188.065122 101.559993,188.107939 102.624001,188.150582 103.688008,188.193050 104.751999,188.235359 105.816006,188.277494 106.879997,188.319470 107.944004,188.361276 109.007995,188.402924 110.072002,188.444407 111.135993,188.485732 112.200000,188.526899 113.264007,188.567912 114.327998,188.608767 115.392005,188.649464 116.455996,188.690012 117.520003,188.730408 118.583994,188.770650 119.648001,188.810745 120.711992,188.850693 121.775999,188.890487 122.840007,188.930144 123.903997,188.969649 124.968005,189.009016 126.031995,189.048236 127.096003,189.087320 128.159993,189.126261 129.224001,189.165060 130.288008,189.203722 131.351999,189.242248 132.416006,189.280637 133.479997,189.318895 134.544004,189.357016 135.607995,189.395005 136.672002,189.432864 137.735993,189.470586 138.800000,189.508182 139.864007,189.545652 140.927998,189.582992 141.992005,189.620199 143.055996,189.657287 144.120003,189.694249 145.183994,189.731085 146.248001,189.767795 147.311992,189.804386 148.375999,189.840855 149.440007,189.877205 150.503997,189.913434 151.568005,189.949543 152.631995,189.985531 153.696003,190.021405 154.759993,190.057164 155.824001,190.092808 156.888008,190.128332 157.951999,190.163747 159.016006,190.199046 160.079997,190.234237 161.144004,190.269312 162.207995,190.304273 163.272002,190.339130 164.335993,190.373872 165.400000,190.408510 166.463991,190.443039 167.528015,190.477458 168.592005,190.511773 169.655996,190.545985 170.719986,190.580087 171.784011,190.614086 172.848001,190.647980 173.911992,190.681771 174.976016,190.715463 176.040007,190.749051 177.103997,190.782541 178.167988,190.815927 179.232012,190.849215 180.296003,190.882404 181.359993,190.915489 182.423984,190.948481 183.488008,190.981375 184.551999,191.014176 185.615989,191.046879 186.680014,191.079483 187.744004,191.111994 188.807995,191.144412 189.871985,191.176737 190.936009,191.208969 192.000000,191.241109 193.063991,191.273155 194.128015,191.305109 195.192005,191.336975 196.255996,191.368748 197.319986,191.400433 198.384011,191.432026 199.448001,191.463536 200.511992,191.494954 201.576016,191.526284 202.640007,191.557532 203.703997,191.588687 204.767988,191.619760 205.832012,191.650746 206.896003,191.681650 207.959993,191.712466 209.023984,191.743200 210.088008,191.773846 211.151999,191.804411 212.215989,191.834899 213.280014,191.865300 214.344004,191.895618 215.407995,191.925860 216.471985,191.956015 217.536009,191.986093 218.600000,192.016094 219.663991,192.046014 220.728015,192.075857 221.792005,192.105618 222.855996,192.135302 223.919986,192.164910 224.984011,192.194435 226.048001,192.223890 227.111992,192.253268 228.176016,192.282564 229.240007,192.311795 230.303997,192.340943 231.367988,192.370021 232.432012,192.399022 233.496003,192.427946 234.559993,192.456805 235.623984,192.485587 236.688008,192.514292 237.751999,192.542932 238.815989,192.571496 239.880014,192.599988 240.944004,192.628409 242.007995,192.656765 243.071985,192.685044 244.136009,192.713258 245.200000,192.741395 246.263991,192.769471 247.328015,192.797472 248.392005,192.825412 249.455996,192.853275 250.519986,192.881073 251.584011,192.908806 252.648001,192.936472 253.711992,192.964073 254.776016,192.991603 255.840007,193.019068 256.903997,193.046467 257.967988,193.073805 259.032012,193.101073 260.096003,193.128275 261.159993,193.155417 262.223984,193.182493 263.288008,193.209504 264.351999,193.236454 265.415989,193.263339 266.480014,193.290164 267.544004,193.316923 268.607995,193.343622 269.671985,193.370260 270.736009,193.396834 271.800000,193.423347 272.863991,193.449799 273.928015,193.476192 274.992005,193.502519 276.055996,193.528792 277.119986,193.555004 278.184011,193.581156 279.248001,193.607248 280.311992,193.633280 281.376016,193.659257 282.440007,193.685174 283.503997,193.711031 284.567988,193.736828 285.632012,193.762570 286.696003,193.788258 287.759993,193.813885 288.823984,193.839457 289.888008,193.864970 290.951999,193.890428 292.015989,193.915831 293.080014,193.941179 294.144004,193.966467 295.207995,193.991706 296.271985,194.016885 297.336009,194.042015 298.400000,194.067085 299.463991,194.092100 300.528015,194.117065 301.592005,194.141976 302.655996,194.166832 303.719986,194.191634 304.784011,194.216381 305.848001,194.241079 306.911992,194.265722 307.976016,194.290316 309.040007,194.314855 310.103997,194.339345 311.167988,194.363780 312.232012,194.388161 313.296003,194.412498 314.359993,194.436780 315.423984,194.461013 316.488008,194.485191 317.551999,194.509320 318.615989,194.533406 319.680014,194.557436 320.744004,194.581418 321.807995,194.605350 322.871985,194.629228 323.936009,194.653062 325.000000,194.676846 326.063991,194.700582 327.128015,194.724273 328.192005,194.747910 329.255996,194.771504 330.319986,194.795048 331.384011,194.818542 332.448001,194.841988 333.511992,194.865390 334.576016,194.888748 335.640007,194.912052 336.703997,194.935317 337.767988,194.958527 338.832012,194.981700 339.896003,195.004817 340.959993,195.027896 342.023984,195.050927 343.088008,195.073913 344.151999,195.096850 345.215989,195.119749 346.280014,195.142599 347.344004,195.165399 348.407995,195.188161 349.471985,195.210880 350.536009,195.233549 351.600000,195.256180 352.663991,195.278762 353.728015,195.301300 354.792005,195.323799 355.855996,195.346250 356.919986,195.368662 357.984011,195.391031 359.048001,195.413355 360.111992,195.435636 361.176016,195.457874 362.240007,195.480073 363.303997,195.502228 364.367988,195.524339 365.432012,195.546413 366.496003,195.568442 367.559993,195.590428 368.623984,195.612375 369.688008,195.634279 370.751999,195.656144 371.815989,195.677972 372.880014,195.699750 373.944004,195.721495 375.007995,195.743196 376.071985,195.764859 377.136009,195.786479 378.200000,195.808060 379.263991,195.829603 380.328015,195.851107 381.392005,195.872568 382.455996,195.893991 383.519986,195.915375 384.584011,195.936721 385.648001,195.958023 386.711992,195.979293 387.776016,196.000524 388.840007,196.021712 389.903997,196.042866 390.967988,196.063977 392.032012,196.085055 393.096003,196.106090 394.159993,196.127091 395.223984,196.148055 396.288008,196.168980 397.351999,196.189866 398.415989,196.210720 399.480014,196.231530 400.544004,196.252308 401.607995,196.273047 402.671985,196.293748 403.736009,196.314416 404.800000,196.335045 405.863991,196.355637 406.928015,196.376196 407.992005,196.396716 409.055996,196.417204 410.119986,196.437653 411.184011,196.458069 412.248001,196.478448 413.311992,196.498788 414.376016,196.519095 415.440007,196.539369 416.503997,196.559611 417.567988,196.579809 418.632012,196.599979 419.696003,196.620111 420.759993,196.640211 421.823984,196.660277 422.888008,196.680305 423.951999,196.700301 425.015989,196.720264 426.080014,196.740194 427.144004,196.760085 428.207995,196.779944 429.271985,196.799775 430.336009,196.819569 431.400000,196.839329 432.463991,196.859051 433.528015,196.878746 434.592005,196.898408 435.655996,196.918037 436.719986,196.937628 437.784011,196.957191 438.848001,196.976722 439.911992,196.996220 440.976016,197.015685 442.040007,197.035118 443.103997,197.054517 444.167988,197.073884 445.232012,197.093223 446.296003,197.112524 447.359993,197.131798 448.423984,197.151039 449.488008,197.170253 450.552032,197.189428 451.615989,197.208576 452.680014,197.227691 453.743970,197.246779 454.807995,197.265829 455.872019,197.284856 456.935976,197.303846 458.000000,197.322808 459.064024,197.341737"/>
	<polyline fill="none" stroke="rgb(238,46,47)" stroke-width="2" stroke-opacity="1" clip-path="url(#clipArea1)" points="59.000000,74.426066 60.064007,74.258710 61.127998,74.091922 62.192005,73.925703 63.255996,73.760052 64.320003,73.594949 65.383994,73.430392 66.448001,73.266404 67.511992,73.102940 68.575999,72.940024 69.640007,72.777632 70.703997,72.615787 71.768005,72.454445 72.831995,72.293628 73.896003,72.133336 74.959993,71.973547 76.024001,71.814261 77.088008,71.655478 78.151999,71.497198 79.216006,71.339422 80.279997,71.182126 81.344004,71.025311 82.407995,70.868978 83.472002,70.713126 84.535993,70.557733 85.600000,70.402821 86.664007,70.248390 87.727998,70.094397 88.792005,69.940885 89.855996,69.787810 90.920003,69.635195 91.983994,69.483017 93.048001,69.331298 94.111992,69.180017 95.175999,69.029173 96.240007,68.878767 97.303997,68.728798 98.368005,68.579244 99.431995,68.430107 100.496003,68.281406 101.559993,68.133121 102.624001,67.985252 103.688008,67.837798 104.751999,67.690738 105.816006,67.544093 106.879997,67.397864 107.944004,67.252007 109.007995,67.106565 110.072002,66.961517 111.135993,66.816863 112.200000,66.672602 113.264007,66.528713 114.327998,66.385218 115.392005,66.242095 116.455996,66.099365 117.520003,65.956985 118.583994,65.814999 119.648001,65.673385 120.711992,65.532121 121.775999,65.391228 122.840007,65.250707 123.903997,65.110537 124.968005,64.970716 126.031995,64.831267 127.096003,64.692168 128.159993,64.553418 129.224001,64.415019 130.288008,64.276948 131.351999,64.139227 132.416006,64.001855 133.479997,63.864834 134.544004,63.728119 135.607995,63.591754 136.672002,63.455738 137.735993,63.320029 138.800000,63.184648 139.864007,63.049617 140.927998,62.914892 141.992005,62.780473 143.055996,62.646405 144.120003,62.512620 145.183994,62.379185 146.248001,62.246035 147.311992,62.113213 148.375999,61.980697 149.440007,61.848487 150.503997,61.716606 151.568005,61.585008 152.631995,61.453695 153.696003,61.322710 154.759993,61.192009 155.824001,61.061615 156.888008,60.931505 157.951999,60.801701 159.016006,60.672181 160.079997,60.542946 161.144004,60.413995 162.207995,60.285350 163.272002,60.156968 164.335993,60.028870 165.400000,59.901078 166.463991,59.773527 167.528015,59.646281 168.592005,59.519299 169.655996,59.392601 170.719986,59.266165 171.784011,59.140013 172.848001,59.014124 173.911992,58.888497 174.976016,58.763155 176.040007,58.638075 177.103997,58.513236 178.167988,58.388681 179.232012,58.264367 180.296003,58.140337 181.359993,58.016547 182.423984,57.893020 183.488008,57.769734 184.551999,57.646710 185.615989,57.523948 186.680014,57.401427 187.744004,57.279169 188.807995,57.157129 189.871985,57.035352 190.936009,56.913837 192.000000,56.792540 193.063991,56.671507 194.128015,56.550692 195.192005,56.430139 196.255996,56.309805 197.319986,56.189712 198.384011,56.069859 199.448001,55.950247 200.511992,55.830854 201.576016,55.711701 202.640007,55.592789 203.703997,55.474095 204.767988,55.355642 205.832012,55.237386 206.896003,55.119392 207.959993,55.001596 209.023984,54.884039 210.088008,54.766702 211.151999,54.649583 212.215989,54.532683 213.280014,54.416001 214.344004,54.299539 215.407995,54.183295 216.471985,54.067269 217.536009,53.951463 218.600000,53.835875 219.663991,53.720484 220.728015,53.605312 221.792005,53.490336 222.855996,53.375579 223.919986,53.261041 224.984011,53.146700 226.048001,53.032556 227.111992,52.918630 228.176016,52.804901 229.240007,52.691391 230.303997,52.578056 231.367988,52.464939 232.432012,52.352020 233.496003,52.239319 234.559993,52.126793 235.623984,52.014464 236.688008,51.902332 237.751999,51.790396 238.815989,51.678658 239.880014,51.567116 240.944004,51.455771 242.007995,51.344601 243.071985,51.233628 244.136009,51.122852 245.200000,51.012250 246.263991,50.901846 247.328015,50.791638 248.392005,50.681606 249.455996,50.571770 250.519986,50.462109 251.584011,50.352623 252.648001,50.243334 253.711992,50.134220 254.776016,50.025281 255.840007,49.916517 256.903997,49.807949 257.967988,49.699557 259.032012,49.591340 260.096003,49.483297 261.159993,49.375430 262.223984,49.267737 263.288008,49.160220 264.351999,49.052877 265.415989,48.945710 266.480014,48.838717 267.544004,48.731900 268.607995,48.625235 269.671985,48.518745 270.736009,48.412431 271.800000,48.306291 272.863991,48.200305 273.928015,48.094493 274.992005,47.988835 276.055996,47.883351 277.119986,47.778043 278.184011,47.672887 279.248001,47.567885 280.311992,47.463057 281.376016,47.358383 282.440007,47.253884 283.503997,47.149516 284.567988,47.045345 285.632012,46.941305 286.696003,46.837439 287.759993,46.733706 288.823984,46.630147 289.888008,46.526763 290.951999,46.423510 292.015989,46.320411 293.080014,46.217464 294.144004,46.114693 295.207995,46.012052 296.271985,45.909565 297.336009,45.807253 298.400000,45.705072 299.463991,45.603044 300.528015,45.501147 301.592005,45.399426 302.655996,45.297835 303.719986,45.196398 304.784011,45.095114 305.848001,44.993982 306.911992,44.892982 307.976016,44.792114 309.040007,44.691420 310.103997,44.590857 311.167988,44.490426 312.232012,44.390148 313.296003,44.290023 314.359993,44.190029 315.423984,44.090166 316.488008,43.990457 317.551999,43.890878 318.615989,43.791453 319.680014,43.692159 320.744004,43.592996 321.807995,43.493987 322.871985,43.395086 323.936009,43.296339 325.000000,43.197745 326.063991,43.099260 327.128015,43.000928 328.192005,42.902706 329.255996,42.804637 330.319986,42.706699 331.384011,42.608892 332.448001,42.511216 333.511992,42.413672 334.576016,42.316259 335.640007,42.218977 336.703997,42.121826 337.767988,42.024807 338.832012,41.927918 339.896003,41.831140 340.959993,41.734514 342.023984,41.637997 343.088008,41.541612 344.151999,41.445358 345.215989,41.349236 346.280014,41.253222 347.344004,41.157340 348.407995,41.061589 349.471985,40.965947 350.536009,40.870437 351.600000,40.775058 352.663991,40.679788 353.728015,40.584650 354.792005,40.489642 355.855996,40.394744 356.919986,40.299956 357.984011,40.205298 359.048001,40.110772 360.111992,40.016355 361.176016,39.922048 362.240007,39.827872 363.303997,39.733805 364.367988,39.639869 365.432012,39.546043 366.496003,39.452326 367.559993,39.358718 368.623984,39.265242 369.688008,39.171897 370.751999,39.078639 371.815989,38.985513 372.880014,38.892474 373.944004,38.799588 375.007995,38.706790 376.071985,38.614101 377.136009,38.521543 378.200000,38.429073 379.263991,38.336734 380.328015,38.244504 381.392005,38.152383 382.455996,38.060372 383.519986,37.968471 384.584011,37.876678 385.648001,37.784996 386.711992,37.693422 387.776016,37.601958 388.840007,37.510603 389.903997,37.419335 390.967988,37.328199 392.032012,37.237172 393.096003,37.146233 394.159993,37.055425 395.223984,36.964704 396.288008,36.874093 397.351999,36.783569 398.415989,36.693177 399.480014,36.602872 400.544004,36.512676 401.607995,36.422590 402.671985,36.332613 403.736009,36.242723 404.800000,36.152943 405.863991,36.063250 406.928015,35.973667 407.992005,35.884193 409.055996,35.794828 410.119986,35.705551 411.184011,35.616361 412.248001,35.527303 413.311992,35.438310 414.376016,35.349449 415.440007,35.260653 416.503997,35.171988 417.567988,35.083411 418.632012,34.994921 419.696003,34.906540 420.759993,34.818247 421.823984,34.730042 422.888008,34.641946 423.951999,34.553959 425.015989,34.466060 426.080014,34.378248 427.144004,34.290546 428.207995,34.202909 429.271985,34.115403 430.336009,34.027963 431.400000,33.940633 432.463991,33.853389 433.528015,33.766256 434.592005,33.679188 435.655996,33.592229 436.719986,33.505357 437.784011,33.418595 438.848001,33.331899 439.911992,33.245312 440.976016,33.158812 442.040007,33.072400 443.103997,32.986076 444.167988,32.899839 445.232012,32.813711 446.296003,32.727649 447.359993,32.641696 448.423984,32.555831 449.488008,32.470031 450.552032,32.384341 451.615989,32.298738 452.680014,32.213223 453.743970,32.127795 454.807995,32.042455 455.872019,31.957202 456.935976,31.872014 458.000000,31.786936 459.064024,31.701946"/>
	<polyline fill="none" stroke="rgb(0,0,0)" stroke-dasharray="4,2" stroke-width="2" stroke-opacity="1" clip-path="url(#clipArea1)" points="59.000000,262.394831 60.064007,262.397737 61.127998,262.400638 62.192005,262.403534 63.255996,262.406427 64.320003,262.409315 65.383994,262.412198 66.448001,262.415077 67.511992,262.417951 68.575999,262.420821 69.640007,262.423687 70.703997,262.426548 71.768005,262.429405 72.831995,262.432258 73.896003,262.435105 74.959993,262.437950 76.024001,262.440789 77.088008,262.443625 78.151999,262.446456 79.216006,262.449283 80.279997,262.452106 81.344004,262.454924 82.407995,262.457737 83.472002,262.460548 84.535993,262.463354 85.600000,262.466156 86.664007,262.468953 87.727998,262.471747 88.792005,262.474537 89.855996,262.477321 90.920003,262.480103 91.983994,262.482881 93.048001,262.485654 94.111992,262.488424 95.175999,262.491189 96.240007,262.493950 97.303997,262.496707 98.368005,262.499460 99.431995,262.502211 100.496003,262.504955 101.559993,262.507697 102.624001,262.510434 103.688008,262.513168 104.751999,262.515898 105.816006,262.518625 106.879997,262.521346 107.944004,262.524065 109.007995,262.526780 110.072002,262.529490 111.135993,262.532197 112.200000,262.534901 113.264007,262.537599 114.327998,262.540296 115.392005,262.542988 116.455996,262.545675 117.520003,262.548360 118.583994,262.551040 119.648001,262.553718 120.711992,262.556392 121.775999,262.559061 122.840007,262.561727 123.903997,262.564390 124.968005,262.567048 126.031995,262.569703 127.096003,262.572355 128.159993,262.575002 129.224001,262.577647 130.288008,262.580288 131.351999,262.582925 132.416006,262.585559 133.479997,262.588189 134.544004,262.590816 135.607995,262.593440 136.672002,262.596059 137.735993,262.598675 138.800000,262.601287 139.864007,262.603897 140.927998,262.606502 141.992005,262.609105 143.055996,262.611703 144.120003,262.614299 145.183994,262.616891 146.248001,262.619480 147.311992,262.622065 148.375999,262.624647 149.440007,262.627225 150.503997,262.629800 151.568005,262.632371 152.631995,262.634940 153.696003,262.637505 154.759993,262.640067 155.824001,262.642626 156.888008,262.645181 157.951999,262.647733 159.016006,262.650281 160.079997,262.652826 161.144004,262.655369 162.207995,262.657907 163.272002,262.660443 164.335993,262.662974 165.400000,262.665503 166.463991,262.668029 167.528015,262.670552 168.592005,262.673072 169.655996,262.675587 170.719986,262.678101 171.784011,262.680610 172.848001,262.683117 173.911992,262.685620 174.976016,262.688120 176.040007,262.690618 177.103997,262.693112 178.167988,262.695603 179.232012,262.698091 180.296003,262.700576 181.359993,262.703058 182.423984,262.705536 183.488008,262.708012 184.551999,262.710485 185.615989,262.712953 186.680014,262.715421 187.744004,262.717884 188.807995,262.720344 189.871985,262.722801 190.936009,262.725256 192.000000,262.727707 193.063991,262.730155 194.128015,262.732600 195.192005,262.735042 196.255996,262.737482 197.319986,262.739917 198.384011,262.742351 199.448001,262.744782 200.511992,262.747209 201.576016,262.749634 202.640007,262.752056 203.703997,262.754474 204.767988,262.756889 205.832012,262.759303 206.896003,262.761713 207.959993,262.764120 209.023984,262.766523 210.088008,262.768925 211.151999,262.771324 212.215989,262.773719 213.280014,262.776112 214.344004,262.778502 215.407995,262.780889 216.471985,262.783274 217.536009,262.785655 218.600000,262.788034 219.663991,262.790409 220.728015,262.792782 221.792005,262.795153 222.855996,262.797520 223.919986,262.799885 224.984011,262.802247 226.048001,262.804606 227.111992,262.806961 228.176016,262.809315 229.240007,262.811666 230.303997,262.814015 231.367988,262.816360 232.432012,262.818702 233.496003,262.821042 234.559993,262.823380 235.623984,262.825714 236.688008,262.828046 237.751999,262.830376 238.815989,262.832702 239.880014,262.835026 240.944004,262.837347 242.007995,262.839665 243.071985,262.841981 244.136009,262.844294 245.200000,262.846604 246.263991,262.848913 247.328015,262.851217 248.392005,262.853521 249.455996,262.855820 250.519986,262.858118 251.584011,262.860413 252.648001,262.862705 253.711992,262.864995 254.776016,262.867281 255.840007,262.869566 256.903997,262.871847 257.967988,262.874127 259.032012,262.876403 260.096003,262.878678 261.159993,262.880949 262.223984,262.883219 263.288008,262.885485 264.351999,262.887749 265.415989,262.890009 266.480014,262.892269 267.544004,262.894524 268.607995,262.896779 269.671985,262.899030 270.736009,262.901280 271.800000,262.903526 272.863991,262.905770 273.928015,262.908011 274.992005,262.910250 276.055996,262.912486 277.119986,262.914721 278.184011,262.916952 279.248001,262.919181 280.311992,262.921408 281.376016,262.923632 282.440007,262.925853 283.503997,262.928073 284.567988,262.930290 285.632012,262.932505 286.696003,262.934716 287.759993,262.936927 288.823984,262.939134 289.888008,262.941339 290.951999,262.943541 292.015989,262.945741 293.080014,262.947939 294.144004,262.950134 295.207995,262.952327 296.271985,262.954518 297.336009,262.956706 298.400000,262.958892 299.463991,262.961075 300.528015,262.963257 301.592005,262.965435 302.655996,262.967612 303.719986,262.969786 304.784011,262.971958 305.848001,262.974128 306.911992,262.976296 307.976016,262.978460 309.040007,262.980622 310.103997,262.982783 311.167988,262.984942 312.232012,262.987097 313.296003,262.989250 314.359993,262.991402 315.423984,262.993551 316.488008,262.995697 317.551999,262.997841 318.615989,262.999983 319.680014,263.002124 320.744004,263.004260 321.807995,263.006397 322.871985,263.008529 323.936009,263.010660 325.000000,263.012789 326.063991,263.014916 327.128015,263.017040 328.192005,263.019161 329.255996,263.021282 330.319986,263.023399 331.384011,263.025515 332.448001,263.027628 333.511992,263.029739 334.576016,263.031848 335.640007,263.033954 336.703997,263.036058 337.767988,263.038160 338.832012,263.040261 339.896003,263.042358 340.959993,263.044455 342.023984,263.046548 343.088008,263.048639 344.151999,263.050729 345.215989,263.052817 346.280014,263.054901 347.344004,263.056984 348.407995,263.059065 349.471985,263.061144 350.536009,263.063220 351.600000,263.065294 352.663991,263.067366 353.728015,263.069437 354.792005,263.071505 355.855996,263.073571 356.919986,263.075635 357.984011,263.077696 359.048001,263.079756 360.111992,263.081813 361.176016,263.083869 362.240007,263.085922 363.303997,263.087974 364.367988,263.090023 365.432012,263.092071 366.496003,263.094116 367.559993,263.096159 368.623984,263.098200 369.688008,263.100238 370.751999,263.102276 371.815989,263.104310 372.880014,263.106344 373.944004,263.108374 375.007995,263.110404 376.071985,263.112430 377.136009,263.114456 378.200000,263.116477 379.263991,263.118499 380.328015,263.120518 381.392005,263.122534 382.455996,263.124549 383.519986,263.126561 384.584011,263.128572 385.648001,263.130582 386.711992,263.132588 387.776016,263.134593 388.840007,263.136596 389.903997,263.138597 390.967988,263.140596 392.032012,263.142593 393.096003,263.144588 394.159993,263.146581 395.223984,263.148572 396.288008,263.150562 397.351999,263.152548 398.415989,263.154534 399.480014,263.156518 400.544004,263.158498 401.607995,263.160478 402.671985,263.162456 403.736009,263.164431 404.800000,263.166405 405.863991,263.168377 406.928015,263.170347 407.992005,263.172314 409.055996,263.174281 410.119986,263.176245 411.184011,263.178207 412.248001,263.180167 413.311992,263.182126 414.376016,263.184082 415.440007,263.186037 416.503997,263.187990 417.567988,263.189941 418.632012,263.191890 419.696003,263.193838 420.759993,263.195783 421.823984,263.197727 422.888008,263.199668 423.951999,263.201607 425.015989,263.203546 426.080014,263.205481 427.144004,263.207415 428.207995,263.209348 429.271985,263.211278 430.336009,263.213207 431.400000,263.215135 432.463991,263.217059 433.528015,263.218982 434.592005,263.220904 435.655996,263.222824 436.719986,263.224741 437.784011,263.226656 438.848001,263.228571 439.911992,263.230484 440.976016,263.232395 442.040007,263.234303 443.103997,263.236210 444.167988,263.238115 445.232012,263.240018 446.296003,263.241920 447.359993,263.243820 448.423984,263.245718 449.488008,263.247614 450.552032,263.249509 451.615989,263.251401 452.680014,263.253292 453.743970,263.255182 454.807995,263.257069 455.872019,263.258954 456.935976,263.260838 458.000000,263.262720 459.064024,263.264601"/>
	<polyline fill="none" stroke="rgb(0,0,0)" stroke-dasharray="4,2" stroke-width="2" stroke-opacity="1" clip-path="url(#clipArea1)" points="59.000000,184.203306 60.064007,184.268984 61.127998,184.334378 62.192005,184.399482 63.255996,184.464308 64.320003,184.528844 65.383994,184.593106 66.448001,184.657089 67.511992,184.720805 68.575999,184.784241 69.640007,184.847416 70.703997,184.910322 71.768005,184.972971 72.831995,185.035352 73.896003,185.097477 74.959993,185.159350 76.024001,185.220966 77.088008,185.282335 78.151999,185.343454 79.216006,185.404326 80.279997,185.464952 81.344004,185.525338 82.407995,185.585488 83.472002,185.645398 84.535993,185.705073 85.600000,185.764513 86.664007,185.823723 87.727998,185.882703 88.792005,185.941460 89.855996,185.999986 90.920003,186.058294 91.983994,186.116378 93.048001,186.174243 94.111992,186.231895 95.175999,186.289328 96.240007,186.346542 97.303997,186.403554 98.368005,186.460347 99.431995,186.516939 100.496003,186.573316 101.559993,186.629497 102.624001,186.685470 103.688008,186.741241 104.751999,186.796810 105.816006,186.852187 106.879997,186.907362 107.944004,186.962346 109.007995,187.017132 110.072002,187.071727 111.135993,187.126131 112.200000,187.180349 113.264007,187.234376 114.327998,187.288217 115.392005,187.341877 116.455996,187.395352 117.520003,187.448640 118.583994,187.501754 119.648001,187.554687 120.711992,187.607445 121.775999,187.660023 122.840007,187.712425 123.903997,187.764653 124.968005,187.816712 126.031995,187.868600 127.096003,187.920314 128.159993,187.971864 129.224001,188.023244 130.288008,188.074455 131.351999,188.125507 132.416006,188.176390 133.479997,188.227114 134.544004,188.277674 135.607995,188.328076 136.672002,188.378319 137.735993,188.428398 138.800000,188.478329 139.864007,188.528096 140.927998,188.577716 141.992005,188.627177 143.055996,188.676485 144.120003,188.725646 145.183994,188.774653 146.248001,188.823513 147.311992,188.872219 148.375999,188.920783 149.440007,188.969200 150.503997,189.017469 151.568005,189.065596 152.631995,189.113576 153.696003,189.161418 154.759993,189.209113 155.824001,189.256672 156.888008,189.304088 157.951999,189.351367 159.016006,189.398510 160.079997,189.445516 161.144004,189.492380 162.207995,189.539113 163.272002,189.585714 164.335993,189.632179 165.400000,189.678507 166.463991,189.724710 167.528015,189.770781 168.592005,189.816715 169.655996,189.862529 170.719986,189.908207 171.784011,189.953764 172.848001,189.999190 173.911992,190.044490 174.976016,190.089664 176.040007,190.134713 177.103997,190.179636 178.167988,190.224444 179.232012,190.269121 180.296003,190.313683 181.359993,190.358119 182.423984,190.402435 183.488008,190.446636 184.551999,190.490717 185.615989,190.534678 186.680014,190.578524 187.744004,190.622249 188.807995,190.665860 189.871985,190.709361 190.936009,190.752742 192.000000,190.796008 193.063991,190.839165 194.128015,190.882207 195.192005,190.925134 196.255996,190.967957 197.319986,191.010666 198.384011,191.053259 199.448001,191.095749 200.511992,191.138130 201.576016,191.180401 202.640007,191.222568 203.703997,191.264626 204.767988,191.306574 205.832012,191.348419 206.896003,191.390159 207.959993,191.431796 209.023984,191.473329 210.088008,191.514752 211.151999,191.556078 212.215989,191.597304 213.280014,191.638422 214.344004,191.679441 215.407995,191.720361 216.471985,191.761183 217.536009,191.801901 218.600000,191.842521 219.663991,191.883043 220.728015,191.923465 221.792005,191.963790 222.855996,192.004022 223.919986,192.044155 224.984011,192.084189 226.048001,192.124131 227.111992,192.163975 228.176016,192.203725 229.240007,192.243388 230.303997,192.282947 231.367988,192.322419 232.432012,192.361797 233.496003,192.401088 234.559993,192.440281 235.623984,192.479386 236.688008,192.518399 237.751999,192.557323 238.815989,192.596155 239.880014,192.634900 240.944004,192.673551 242.007995,192.712120 243.071985,192.750597 244.136009,192.788991 245.200000,192.827293 246.263991,192.865512 247.328015,192.903644 248.392005,192.941689 249.455996,192.979646 250.519986,193.017521 251.584011,193.055313 252.648001,193.093019 253.711992,193.130642 254.776016,193.168178 255.840007,193.205638 256.903997,193.243010 257.967988,193.280300 259.032012,193.317513 260.096003,193.354639 261.159993,193.391688 262.223984,193.428650 263.288008,193.465541 264.351999,193.502344 265.415989,193.539071 266.480014,193.575721 267.544004,193.612290 268.607995,193.648781 269.671985,193.685196 270.736009,193.721529 271.800000,193.757786 272.863991,193.793966 273.928015,193.830075 274.992005,193.866102 276.055996,193.902052 277.119986,193.937931 278.184011,193.973729 279.248001,194.009460 280.311992,194.045110 281.376016,194.080688 282.440007,194.116190 283.503997,194.151621 284.567988,194.186981 285.632012,194.222264 286.696003,194.257477 287.759993,194.292618 288.823984,194.327682 289.888008,194.362681 290.951999,194.397604 292.015989,194.432460 293.080014,194.467241 294.144004,194.501955 295.207995,194.536599 296.271985,194.571171 297.336009,194.605673 298.400000,194.640108 299.463991,194.674473 300.528015,194.708772 301.592005,194.743000 302.655996,194.777157 303.719986,194.811254 304.784011,194.845280 305.848001,194.879234 306.911992,194.913129 307.976016,194.946952 309.040007,194.980710 310.103997,195.014408 311.167988,195.048034 312.232012,195.081595 313.296003,195.115090 314.359993,195.148520 315.423984,195.181890 316.488008,195.215194 317.551999,195.248432 318.615989,195.281605 319.680014,195.314717 320.744004,195.347764 321.807995,195.380746 322.871985,195.413672 323.936009,195.446528 325.000000,195.479323 326.063991,195.512059 327.128015,195.544734 328.192005,195.577343 329.255996,195.609893 330.319986,195.642382 331.384011,195.674811 332.448001,195.707180 333.511992,195.739489 334.576016,195.771732 335.640007,195.803921 336.703997,195.836049 337.767988,195.868118 338.832012,195.900126 339.896003,195.932079 340.959993,195.963967 342.023984,195.995800 343.088008,196.027578 344.151999,196.059291 345.215989,196.090955 346.280014,196.122553 347.344004,196.154096 348.407995,196.185585 349.471985,196.217014 350.536009,196.248387 351.600000,196.279707 352.663991,196.310966 353.728015,196.342170 354.792005,196.373320 355.855996,196.404409 356.919986,196.435449 357.984011,196.466430 359.048001,196.497355 360.111992,196.528231 361.176016,196.559048 362.240007,196.589809 363.303997,196.620521 364.367988,196.651173 365.432012,196.681776 366.496003,196.712325 367.559993,196.742818 368.623984,196.773257 369.688008,196.803647 370.751999,196.833982 371.815989,196.864262 372.880014,196.894493 373.944004,196.924669 375.007995,196.954797 376.071985,196.984869 377.136009,197.014892 378.200000,197.044861 379.263991,197.074781 380.328015,197.104651 381.392005,197.134466 382.455996,197.164233 383.519986,197.193950 384.584011,197.223618 385.648001,197.253231 386.711992,197.282795 387.776016,197.312310 388.840007,197.341775 389.903997,197.371192 390.967988,197.400559 392.032012,197.429877 393.096003,197.459146 394.159993,197.488365 395.223984,197.517536 396.288008,197.546657 397.351999,197.575734 398.415989,197.604757 399.480014,197.633736 400.544004,197.662666 401.607995,197.691546 402.671985,197.720383 403.736009,197.749171 404.800000,197.777909 405.863991,197.806604 406.928015,197.835249 407.992005,197.863851 409.055996,197.892403 410.119986,197.920907 411.184011,197.949366 412.248001,197.977782 413.311992,198.006154 414.376016,198.034472 415.440007,198.062751 416.503997,198.090981 417.567988,198.119167 418.632012,198.147309 419.696003,198.175408 420.759993,198.203457 421.823984,198.231463 422.888008,198.259425 423.951999,198.287343 425.015989,198.315212 426.080014,198.343043 427.144004,198.370830 428.207995,198.398568 429.271985,198.426267 430.336009,198.453918 431.400000,198.481530 432.463991,198.509098 433.528015,198.536623 434.592005,198.564103 435.655996,198.591541 436.719986,198.618934 437.784011,198.646289 438.848001,198.673600 439.911992,198.700868 440.976016,198.728092 442.040007,198.755277 443.103997,198.782414 444.167988,198.809517 445.232012,198.836572 446.296003,198.863593 447.359993,198.890565 448.423984,198.917499 449.488008,198.944390 450.552032,198.971242 451.615989,198.998056 452.680014,199.024826 453.743970,199.051552 454.807995,199.078245 455.872019,199.104890 456.935976,199.131501 458.000000,199.158069 459.064024,199.184598"/>
	<polyline fill="none" stroke="rgb(0,0,0)" stroke-dasharray="4,2" stroke-width="2" stroke-opacity="1" clip-path="url(#clipArea1)" points="59.000000,52.248789 60.064007,52.245355 61.127998,52.241965 62.192005,52.238597 63.255996,52.235273 64.320003,52.231992 65.383994,52.228733 66.448001,52.225518 67.511992,52.222325 68.575999,52.219176 69.640007,52.216070 70.703997,52.212986 71.768005,52.209924 72.831995,52.206906 73.896003,52.203910 74.959993,52.200957 76.024001,52.198027 77.088008,52.195118 78.151999,52.192253 79.216006,52.189409 80.279997,52.186588 81.344004,52.183810 82.407995,52.181055 83.472002,52.178321 84.535993,52.175609 85.600000,52.172919 86.664007,52.170272 87.727998,52.167648 88.792005,52.165045 89.855996,52.162464 90.920003,52.159905 91.983994,52.157368 93.048001,52.154853 94.111992,52.152382 95.175999,52.149910 96.240007,52.147483 97.303997,52.145055 98.368005,52.142671 99.431995,52.140287 100.496003,52.137947 101.559993,52.135607 102.624001,52.133289 103.688008,52.131014 104.751999,52.128739 105.816006,52.126487 106.879997,52.124256 107.944004,52.122047 109.007995,52.119860 110.072002,52.117673 111.135993,52.115529 112.200000,52.113386 113.264007,52.111265 114.327998,52.109165 115.392005,52.107087 116.455996,52.105031 117.520003,52.102975 118.583994,52.100941 119.648001,52.098929 120.711992,52.096939 121.775999,52.094949 122.840007,52.092980 123.903997,52.091034 124.968005,52.089109 126.031995,52.087185 127.096003,52.085282 128.159993,52.083401 129.224001,52.081520 130.288008,52.079661 131.351999,52.077824 132.416006,52.076009 133.479997,52.074193 134.544004,52.072378 135.607995,52.070606 136.672002,52.068835 137.735993,52.067063 138.800000,52.065314 139.864007,52.063586 140.927998,52.061880 141.992005,52.060174 143.055996,52.058468 144.120003,52.056784 145.183994,52.055122 146.248001,52.053460 147.311992,52.051819 148.375999,52.050201 149.440007,52.048582 150.503997,52.046964 151.568005,52.045367 152.631995,52.043793 153.696003,52.042218 154.759993,52.040643 155.824001,52.039090 156.888008,52.037560 157.951999,52.036029 159.016006,52.034519 160.079997,52.033010 161.144004,52.031501 162.207995,52.030036 163.272002,52.028549 164.335993,52.027083 165.400000,52.025640 166.463991,52.024174 167.528015,52.022753 168.592005,52.021331 169.655996,52.019910 170.719986,52.018510 171.784011,52.017110 172.848001,52.015710 173.911992,52.014333 174.976016,52.012977 176.040007,52.011621 177.103997,52.010265 178.167988,52.008909 179.232012,52.007574 180.296003,52.006262 181.359993,52.004950 182.423984,52.003638 183.488008,52.002347 184.551999,52.001057 185.615989,51.999767 186.680014,51.998498 187.744004,51.997230 188.807995,51.995961 189.871985,51.994714 190.936009,51.993490 192.000000,51.992243 193.063991,51.991018 194.128015,51.989793 195.192005,51.988590 196.255996,51.987388 197.319986,51.986185 198.384011,51.985004 199.448001,51.983823 200.511992,51.982642 201.576016,51.981482 202.640007,51.980323 203.703997,51.979164 204.767988,51.978027 205.832012,51.976890 206.896003,51.975752 207.959993,51.974637 209.023984,51.973521 210.088008,51.972406 211.151999,51.971291 212.215989,51.970197 213.280014,51.969103 214.344004,51.968032 215.407995,51.966938 216.471985,51.965867 217.536009,51.964795 218.600000,51.963745 219.663991,51.962695 220.728015,51.961646 221.792005,51.960596 222.855996,51.959568 223.919986,51.958540 224.984011,51.957512 226.048001,51.956484 227.111992,51.955478 228.176016,51.954472 229.240007,51.953466 230.303997,51.952482 231.367988,51.951476 232.432012,51.950491 233.496003,51.949529 234.559993,51.948545 235.623984,51.947582 236.688008,51.946620 237.751999,51.945658 238.815989,51.944717 239.880014,51.943755 240.944004,51.942815 242.007995,51.941874 243.071985,51.940956 244.136009,51.940015 245.200000,51.939097 246.263991,51.938178 247.328015,51.937259 248.392005,51.936363 249.455996,51.935466 250.519986,51.934569 251.584011,51.933673 252.648001,51.932776 253.711992,51.931901 254.776016,51.931026 255.840007,51.930151 256.903997,51.929277 257.967988,51.928402 259.032012,51.927549 260.096003,51.926696 261.159993,51.925843 262.223984,51.924990 263.288008,51.924159 264.351999,51.923306 265.415989,51.922475 266.480014,51.921644 267.544004,51.920812 268.607995,51.920003 269.671985,51.919172 270.736009,51.918363 271.800000,51.917554 272.863991,51.916744 273.928015,51.915957 274.992005,51.915148 276.055996,51.914361 277.119986,51.913573 278.184011,51.912786 279.248001,51.911998 280.311992,51.911211 281.376016,51.910446 282.440007,51.909680 283.503997,51.908915 284.567988,51.908149 285.632012,51.907384 286.696003,51.906618 287.759993,51.905875 288.823984,51.905131 289.888008,51.904387 290.951999,51.903644 292.015989,51.902900 293.080014,51.902157 294.144004,51.901435 295.207995,51.900713 296.271985,51.899991 297.336009,51.899270 298.400000,51.898548 299.463991,51.897826 300.528015,51.897126 301.592005,51.896405 302.655996,51.895705 303.719986,51.895005 304.784011,51.894305 305.848001,51.893605 306.911992,51.892927 307.976016,51.892227 309.040007,51.891549 310.103997,51.890871 311.167988,51.890193 312.232012,51.889515 313.296003,51.888837 314.359993,51.888181 315.423984,51.887503 316.488008,51.886847 317.551999,51.886169 318.615989,51.885513 319.680014,51.884857 320.744004,51.884222 321.807995,51.883566 322.871985,51.882910 323.936009,51.882276 325.000000,51.881642 326.063991,51.881007 327.128015,51.880373 328.192005,51.879739 329.255996,51.879105 330.319986,51.878470 331.384011,51.877858 332.448001,51.877224 333.511992,51.876611 334.576016,51.875999 335.640007,51.875387 336.703997,51.874774 337.767988,51.874162 338.832012,51.873549 339.896003,51.872959 340.959993,51.872346 342.023984,51.871756 343.088008,51.871165 344.151999,51.870575 345.215989,51.869984 346.280014,51.869394 347.344004,51.868803 348.407995,51.868213 349.471985,51.867644 350.536009,51.867054 351.600000,51.866485 352.663991,51.865916 353.728015,51.865348 354.792005,51.864779 355.855996,51.864211 356.919986,51.863642 357.984011,51.863073 359.048001,51.862526 360.111992,51.861958 361.176016,51.861411 362.240007,51.860864 363.303997,51.860296 364.367988,51.859749 365.432012,51.859202 366.496003,51.858655 367.559993,51.858130 368.623984,51.857584 369.688008,51.857037 370.751999,51.856512 371.815989,51.855987 372.880014,51.855440 373.944004,51.854915 375.007995,51.854390 376.071985,51.853866 377.136009,51.853341 378.200000,51.852816 379.263991,51.852313 380.328015,51.851788 381.392005,51.851263 382.455996,51.850760 383.519986,51.850257 384.584011,51.849732 385.648001,51.849229 386.711992,51.848726 387.776016,51.848223 388.840007,51.847720 389.903997,51.847217 390.967988,51.846736 392.032012,51.846233 393.096003,51.845730 394.159993,51.845248 395.223984,51.844767 396.288008,51.844264 397.351999,51.843783 398.415989,51.843302 399.480014,51.842821 400.544004,51.842340 401.607995,51.841858 402.671985,51.841377 403.736009,51.840918 404.800000,51.840437 405.863991,51.839956 406.928015,51.839496 407.992005,51.839015 409.055996,51.838556 410.119986,51.838097 411.184011,51.837637 412.248001,51.837178 413.311992,51.836719 414.376016,51.836259 415.440007,51.835800 416.503997,51.835341 417.567988,51.834882 418.632012,51.834444 419.696003,51.833985 420.759993,51.833547 421.823984,51.833088 422.888008,51.832651 423.951999,51.832191 425.015989,51.831754 426.080014,51.831317 427.144004,51.830879 428.207995,51.830442 429.271985,51.830004 430.336009,51.829567 431.400000,51.829151 432.463991,51.828714 433.528015,51.828277 434.592005,51.827861 435.655996,51.827424 436.719986,51.827008 437.784011,51.826571 438.848001,51.826155 439.911992,51.825740 440.976016,51.825324 442.040007,51.824908 443.103997,51.824493 444.167988,51.824077 445.232012,51.823662 446.296003,51.823246 447.359993,51.822831 448.423984,51.822415 449.488008,51.822021 450.552032,51.821606 451.615989,51.821212 452.680014,51.820797 453.743970,51.820403 454.807995,51.819987 455.872019,51.819594 456.935976,51.819200 458.000000,51.818806 459.064024,51.818413"/>
</svg>
