<?xml version="1.0" standalone="no"?>
<!DOCTYPE svg PUBLIC "-//W3C//DTD SVG 1.1//EN" "http://www.w3.org/Graphics/SVG/1.1/DTD/svg11.dtd">
<svg viewBox="0 0 483.000000 300.000000" version="1.1" xmlns="http://www.w3.org/2000/svg" xmlns:xlink="http://www.w3.org/1999/xlink">
	<polyline fill="none" stroke="rgb(229,229,229)" stroke-width="1" stroke-opacity="1" points="59.000000,17.000000 59.000000,275.000000"/>
	<polyline fill="none" stroke="rgb(229,229,229)" stroke-width="1" stroke-opacity="1" points="73.042671,17.000000 73.042671,275.000000"/>
	<polyline fill="none" stroke="rgb(229,229,229)" stroke-width="1" stroke-opacity="1" points="86.431953,17.000000 86.431953,275.000000"/>
	<polyline fill="none" stroke="rgb(229,229,229)" stroke-width="1" stroke-opacity="1" points="99.225955,17.000000 99.225955,275.000000"/>
	<polyline fill="none" stroke="rgb(229,229,229)" stroke-width="1" stroke-opacity="1" points="111.475364,17.000000 111.475364,275.000000"/>
	<polyline fill="none" stroke="rgb(229,229,229)" stroke-width="1" stroke-opacity="1" points="123.224655,17.000000 123.224655,275.000000"/>
	<polyline fill="none" stroke="rgb(229,229,229)" stroke-width="1" stroke-opacity="1" points="134.513069,17.000000 134.513069,275.000000"/>
	<polyline fill="none" stroke="rgb(229,229,229)" stroke-width="1" stroke-opacity="1" points="145.375402,17.000000 145.375402,275.000000"/>
	<polyline fill="none" stroke="rgb(229,229,229)" stroke-width="1" stroke-opacity="1" points="155.842652,17.000000 155.842652,275.000000"/>
	<polyline fill="none" stroke="rgb(229,229,229)" stroke-width="1" stroke-opacity="1" points="165.942554,17.000000 165.942554,275.000000"/>
	<polyline fill="none" stroke="rgb(229,229,229)" stroke-width="1" stroke-opacity="1" points="175.700019,17.000000 175.700019,275.000000"/>
	<polyline fill="none" stroke="rgb(229,229,229)" stroke-width="1" stroke-opacity="1" points="185.137509,17.000000 185.137509,275.000000"/>
	<polyline fill="none" stroke="rgb(229,229,229)" stroke-width="1" stroke-opacity="1" points="194.275345,17.000000 194.275345,275.000000"/>
	<polyline fill="none" stroke="rgb(229,229,229)" stroke-width="1" stroke-opacity="1" points="203.131972,17.000000 203.131972,275.000000"/>
	<polyline fill="none" stroke="rgb(229,229,229)" stroke-width="1" stroke-opacity="1" points="211.724182,17.000000 211.724182,275.000000"/>
	<polyline fill="none" stroke="rgb(229,229,229)" stroke-width="1" stroke-opacity="1" points="220.067307,17.000000 220.067307,275.000000"/>
	<polyline fill="none" stroke="rgb(229,229,229)" stroke-width="1" stroke-opacity="1" points="228.175383,17.000000 228.175383,275.000000"/>
	<polyline fill="none" stroke="rgb(229,229,229)" stroke-width="1" stroke-opacity="1" points="236.061292,17.000000 236.061292,275.000000"/>
	<polyline fill="none" stroke="rgb(229,229,229)" stroke-width="1" stroke-opacity="1" points="243.736884,17.000000 243.736884,275.000000"/>
	<polyline fill="none" stroke="rgb(229,229,229)" stroke-width="1" stroke-opacity="1" points="251.213088,17.000000 251.213088,275.000000"/>
	<polyline fill="none" stroke="rgb(229,229,229)" stroke-width="1" stroke-opacity="1" points="258.500000,17.000000 258.500000,275.000000"/>
	<polyline fill="none" stroke="rgb(229,229,229)" stroke-width="1" stroke-opacity="1" points="265.606970,17.000000 265.606970,275.000000"/>
	<polyline fill="none" stroke="rgb(229,229,229)" stroke-width="1" stroke-opacity="1" points="272.542671,17.000000 272.542671,275.000000"/>
	<polyline fill="none" stroke="rgb(229,229,229)" stroke-width="1" stroke-opacity="1" points="279.315164,17.000000 279.315164,275.000000"/>
	<polyline fill="none" stroke="rgb(229,229,229)" stroke-width="1" stroke-opacity="1" points="285.931953,17.000000 285.931953,275.000000"/>
	<polyline fill="none" stroke="rgb(229,229,229)" stroke-width="1" stroke-opacity="1" points="292.400038,17.000000 292.400038,275.000000"/>
	<polyline fill="none" stroke="rgb(229,229,229)" stroke-width="1" stroke-opacity="1" points="298.725955,17.000000 298.725955,275.000000"/>
	<polyline fill="none" stroke="rgb(229,229,229)" stroke-width="1" stroke-opacity="1" points="304.915821,17.000000 304.915821,275.000000"/>
	<polyline fill="none" stroke="rgb(229,229,229)" stroke-width="1" stroke-opacity="1" points="310.975364,17.000000 310.975364,275.000000"/>
	<polyline fill="none" stroke="rgb(229,229,229)" stroke-width="1" stroke-opacity="1" points="316.909959,17.000000 316.909959,275.000000"/>
	<polyline fill="none" stroke="rgb(229,229,229)" stroke-width="1" stroke-opacity="1" points="322.724655,17.000000 322.724655,275.000000"/>
	<polyline fill="none" stroke="rgb(229,229,229)" stroke-width="1" stroke-opacity="1" points="328.424201,17.000000 328.424201,275.000000"/>
	<polyline fill="none" stroke="rgb(229,229,229)" stroke-width="1" stroke-opacity="1" points="334.013069,17.000000 334.013069,275.000000"/>
	<polyline fill="none" stroke="rgb(229,229,229)" stroke-width="1" stroke-opacity="1" points="339.495476,17.000000 339.495476,275.000000"/>
	<polyline fill="none" stroke="rgb(229,229,229)" stroke-width="1" stroke-opacity="1" points="344.875402,17.000000 344.875402,275.000000"/>
	<polyline fill="none" stroke="rgb(229,229,229)" stroke-width="1" stroke-opacity="1" points="350.156608,17.000000 350.156608,275.000000"/>
	<polyline fill="none" stroke="rgb(229,229,229)" stroke-width="1" stroke-opacity="1" points="355.342652,17.000000 355.342652,275.000000"/>
	<polyline fill="none" stroke="rgb(229,229,229)" stroke-width="1" stroke-opacity="1" points="360.436903,17.000000 360.436903,275.000000"/>
	<polyline fill="none" stroke="rgb(229,229,229)" stroke-width="1" stroke-opacity="1" points="365.442554,17.000000 365.442554,275.000000"/>
	<polyline fill="none" stroke="rgb(229,229,229)" stroke-width="1" stroke-opacity="1" points="370.362633,17.000000 370.362633,275.000000"/>
	<polyline fill="none" stroke="rgb(229,229,229)" stroke-width="1" stroke-opacity="1" points="375.200019,17.000000 375.200019,275.000000"/>
	<polyline fill="none" stroke="rgb(229,229,229)" stroke-width="1" stroke-opacity="1" points="379.957444,17.000000 379.957444,275.000000"/>
	<polyline fill="none" stroke="rgb(229,229,229)" stroke-width="1" stroke-opacity="1" points="384.637509,17.000000 384.637509,275.000000"/>
	<polyline fill="none" stroke="rgb(229,229,229)" stroke-width="1" stroke-opacity="1" points="389.242690,17.000000 389.242690,275.000000"/>
	<polyline fill="none" stroke="rgb(229,229,229)" stroke-width="1" stroke-opacity="1" points="393.775345,17.000000 393.775345,275.000000"/>
	<polyline fill="none" stroke="rgb(229,229,229)" stroke-width="1" stroke-opacity="1" points="398.237724,17.000000 398.237724,275.000000"/>
	<polyline fill="none" stroke="rgb(229,229,229)" stroke-width="1" stroke-opacity="1" points="402.631972,17.000000 402.631972,275.000000"/>
	<polyline fill="none" stroke="rgb(229,229,229)" stroke-width="1" stroke-opacity="1" points="406.960139,17.000000 406.960139,275.000000"/>
	<polyline fill="none" stroke="rgb(229,229,229)" stroke-width="1" stroke-opacity="1" points="411.224182,17.000000 411.224182,275.000000"/>
	<polyline fill="none" stroke="rgb(229,229,229)" stroke-width="1" stroke-opacity="1" points="415.425974,17.000000 415.425974,275.000000"/>
	<polyline fill="none" stroke="rgb(229,229,229)" stroke-width="1" stroke-opacity="1" points="419.567307,17.000000 419.567307,275.000000"/>
	<polyline fill="none" stroke="rgb(229,229,229)" stroke-width="1" stroke-opacity="1" points="423.649895,17.000000 423.649895,275.000000"/>
	<polyline fill="none" stroke="rgb(229,229,229)" stroke-width="1" stroke-opacity="1" points="427.675383,17.000000 427.675383,275.000000"/>
	<polyline fill="none" stroke="rgb(229,229,229)" stroke-width="1" stroke-opacity="1" points="431.645345,17.000000 431.645345,275.000000"/>
	<polyline fill="none" stroke="rgb(229,229,229)" stroke-width="1" stroke-opacity="1" points="435.561292,17.000000 435.561292,275.000000"/>
	<polyline fill="none" stroke="rgb(229,229,229)" stroke-width="1" stroke-opacity="1" points="439.424674,17.000000 439.424674,275.000000"/>
	<polyline fill="none" stroke="rgb(229,229,229)" stroke-width="1" stroke-opacity="1" points="443.236884,17.000000 443.236884,275.000000"/>
	<polyline fill="none" stroke="rgb(229,229,229)" stroke-width="1" stroke-opacity="1" points="446.999260,17.000000 446.999260,275.000000"/>
	<polyline fill="none" stroke="rgb(229,229,229)" stroke-width="1" stroke-opacity="1" points="450.713088,17.000000 450.713088,275.000000"/>
	<polyline fill="none" stroke="rgb(229,229,229)" stroke-width="1" stroke-opacity="1" points="454.379604,17.000000 454.379604,275.000000"/>
	<polyline fill="none" stroke="rgb(229,229,229)" stroke-width="1" stroke-opacity="1" points="-67075.690148,17.000000 -67075.690148,275.000000"/>
	<polyline fill="none" stroke="rgb(229,229,229)" stroke-width="1" stroke-opacity="1" points="-67075.690148,17.000000 -67075.690148,275.000000"/>
	<polyline fill="none" stroke="rgb(229,229,229)" stroke-width="1" stroke-opacity="1" points="-67075.690148,17.000000 -67075.690148,275.000000"/>
	<polyline fill="none" stroke="rgb(229,229,229)" stroke-width="1" stroke-opacity="1" points="-67075.690148,17.000000 -67075.690148,275.000000"/>
	<polyline fill="none" stroke="rgb(229,229,229)" stroke-width="1" stroke-opacity="1" points="-67075.690148,17.000000 -67075.690148,275.000000"/>
	<polyline fill="none" stroke="rgb(229,229,229)" stroke-width="1" stroke-opacity="1" points="-67075.690148,17.000000 -67075.690148,275.000000"/>
	<polyline fill="none" stroke="rgb(229,229,229)" stroke-width="1" stroke-opacity="1" points="-67075.690148,17.000000 -67075.690148,275.000000"/>
	<polyline fill="none" stroke="rgb(229,229,229)" stroke-width="1" stroke-opacity="1" points="-67075.690148,17.000000 -67075.690148,275.000000"/>
	<polyline fill="none" stroke="rgb(229,229,229)" stroke-width="1" stroke-opacity="1" points="-67075.690148,17.000000 -67075.690148,275.000000"/>
	<polyline fill="none" stroke="rgb(229,229,229)" stroke-width="1" stroke-opacity="1" points="-67075.690148,17.000000 -67075.690148,275.000000"/>
	<polyline fill="none" stroke="rgb(229,229,229)" stroke-width="1" stroke-opacity="1" points="-67075.690148,17.000000 -67075.690148,275.000000"/>
	<polyline fill="none" stroke="rgb(229,229,229)" stroke-width="1" stroke-opacity="1" points="-67075.690148,17.000000 -67075.690148,275.000000"/>
	<polyline fill="none" stroke="rgb(229,229,229)" stroke-width="1" stroke-opacity="1" points="-67075.690148,17.000000 -67075.690148,275.000000"/>
	<polyline fill="none" stroke="rgb(229,229,229)" stroke-width="1" stroke-opacity="1" points="-67075.690148,17.000000 -67075.690148,275.000000"/>
	<polyline fill="none" stroke="rgb(229,229,229)" stroke-width="1" stroke-opacity="1" points="-67075.690148,17.000000 -67075.690148,275.000000"/>
	<polyline fill="none" stroke="rgb(229,229,229)" stroke-width="1" stroke-opacity="1" points="-67075.690148,17.000000 -67075.690148,275.000000"/>
	<polyline fill="none" stroke="rgb(229,229,229)" stroke-width="1" stroke-opacity="1" points="-67075.690148,17.000000 -67075.690148,275.000000"/>
	<polyline fill="none" stroke="rgb(229,229,229)" stroke-width="1" stroke-opacity="1" points="-67075.690148,17.000000 -67075.690148,275.000000"/>
	<polyline fill="none" stroke="rgb(229,229,229)" stroke-width="1" stroke-opacity="1" points="458.000000,17.000000 458.000000,275.000000"/>
	<polyline fill="none" stroke="rgb(229,229,229)" stroke-width="1" stroke-opacity="1" points="59.000000,275.000000 458.000000,275.000000"/>
	<polyline fill="none" stroke="rgb(229,229,229)" stroke-width="1" stroke-opacity="1" points="59.000000,242.750000 458.000000,242.750000"/>
	<polyline fill="none" stroke="rgb(229,229,229)" stroke-width="1" stroke-opacity="1" points="59.000000,210.500000 458.000000,210.500000"/>
	<polyline fill="none" stroke="rgb(229,229,229)" stroke-width="1" stroke-opacity="1" points="59.000000,178.250000 458.000000,178.250000"/>
	<polyline fill="none" stroke="rgb(229,229,229)" stroke-width="1" stroke-opacity="1" points="59.000000,146.000000 458.000000,146.000000"/>
	<polyline fill="none" stroke="rgb(229,229,229)" stroke-width="1" stroke-opacity="1" points="59.000000,113.750000 458.000000,113.750000"/>
	<polyline fill="none" stroke="rgb(229,229,229)" stroke-width="1" stroke-opacity="1" points="59.000000,81.500000 458.000000,81.500000"/>
	<polyline fill="none" stroke="rgb(229,229,229)" stroke-width="1" stroke-opacity="1" points="59.000000,49.250000 458.000000,49.250000"/>
	<polyline fill="none" stroke="rgb(229,229,229)" stroke-width="1" stroke-opacity="1" points="59.000000,17.000000 458.000000,17.000000"/>
	<polyline fill="none" stroke="rgb(0,0,0)" stroke-width="1" stroke-opacity="1" points="59.000000,275.000000 458.000000,275.000000"/>
	<polyline fill="none" stroke="rgb(0,0,0)" stroke-width="1" stroke-opacity="1" points="458.000000,275.000000 458.000000,17.000000"/>
	<polyline fill="none" stroke="rgb(0,0,0)" stroke-width="1" stroke-opacity="1" points="458.000000,17.000000 59.000000,17.000000"/>
	<polyline fill="none" stroke="rgb(0,0,0)" stroke-width="1" stroke-opacity="1" points="59.000000,17.000000 59.000000,275.000000"/>
	<polyline fill="none" stroke="rgb(0,0,0)" stroke-width="1" stroke-opacity="1" points="59.000000,275.000000 59.000000,279.000000"/>
	<polyline fill="none" stroke="rgb(0,0,0)" stroke-width="1" stroke-opacity="1" points="73.042671,275.000000 73.042671,279.000000"/>
	<polyline fill="none" stroke="rgb(0,0,0)" stroke-width="1" stroke-opacity="1" points="86.431953,275.000000 86.431953,279.000000"/>
	<polyline fill="none" stroke="rgb(0,0,0)" stroke-width="1" stroke-opacity="1" points="99.225955,275.000000 99.225955,279.000000"/>
	<polyline fill="none" stroke="rgb(0,0,0)" stroke-width="1" stroke-opacity="1" points="111.475364,275.000000 111.475364,279.000000"/>
	<polyline fill="none" stroke="rgb(0,0,0)" stroke-width="1" stroke-opacity="1" points="123.224655,275.000000 123.224655,279.000000"/>
	<polyline fill="none" stroke="rgb(0,0,0)" stroke-width="1" stroke-opacity="1" points="134.513069,275.000000 134.513069,279.000000"/>
	<polyline fill="none" stroke="rgb(0,0,0)" stroke-width="1" stroke-opacity="1" points="145.375402,275.000000 145.375402,279.000000"/>
	<polyline fill="none" stroke="rgb(0,0,0)" stroke-width="1" stroke-opacity="1" points="155.842652,275.000000 155.842652,279.000000"/>
	<polyline fill="none" stroke="rgb(0,0,0)" stroke-width="1" stroke-opacity="1" points="165.942554,275.000000 165.942554,279.000000"/>
	<polyline fill="none" stroke="rgb(0,0,0)" stroke-width="1" stroke-opacity="1" points="175.700019,275.000000 175.700019,279.000000"/>
	<polyline fill="none" stroke="rgb(0,0,0)" stroke-width="1" stroke-opacity="1" points="185.137509,275.000000 185.137509,279.000000"/>
	<polyline fill="none" stroke="rgb(0,0,0)" stroke-width="1" stroke-opacity="1" points="194.275345,275.000000 194.275345,279.000000"/>
	<polyline fill="none" stroke="rgb(0,0,0)" stroke-width="1" stroke-opacity="1" points="203.131972,275.000000 203.131972,279.000000"/>
	<polyline fill="none" stroke="rgb(0,0,0)" stroke-width="1" stroke-opacity="1" points="211.724182,275.000000 211.724182,279.000000"/>
	<polyline fill="none" stroke="rgb(0,0,0)" stroke-width="1" stroke-opacity="1" points="220.067307,275.000000 220.067307,279.000000"/>
	<polyline fill="none" stroke="rgb(0,0,0)" stroke-width="1" stroke-opacity="1" points="228.175383,275.000000 228.175383,279.000000"/>
	<polyline fill="none" stroke="rgb(0,0,0)" stroke-width="1" stroke-opacity="1" points="236.061292,275.000000 236.061292,279.000000"/>
	<polyline fill="none" stroke="rgb(0,0,0)" stroke-width="1" stroke-opacity="1" points="243.736884,275.000000 243.736884,279.000000"/>
	<polyline fill="none" stroke="rgb(0,0,0)" stroke-width="1" stroke-opacity="1" points="251.213088,275.000000 251.213088,279.000000"/>
	<polyline fill="none" stroke="rgb(0,0,0)" stroke-width="1" stroke-opacity="1" points="258.500000,275.000000 258.500000,279.000000"/>
	<polyline fill="none" stroke="rgb(0,0,0)" stroke-width="1" stroke-opacity="1" points="265.606970,275.000000 265.606970,279.000000"/>
	<polyline fill="none" stroke="rgb(0,0,0)" stroke-width="1" stroke-opacity="1" points="272.542671,275.000000 272.542671,279.000000"/>
	<polyline fill="none" stroke="rgb(0,0,0)" stroke-width="1" stroke-opacity="1" points="279.315164,275.000000 279.315164,279.000000"/>
	<polyline fill="none" stroke="rgb(0,0,0)" stroke-width="1" stroke-opacity="1" points="285.931953,275.000000 285.931953,279.000000"/>
	<polyline fill="none" stroke="rgb(0,0,0)" stroke-width="1" stroke-opacity="1" points="292.400038,275.000000 292.400038,279.000000"/>
	<polyline fill="none" stroke="rgb(0,0,0)" stroke-width="1" stroke-opacity="1" points="298.725955,275.000000 298.725955,279.000000"/>
	<polyline fill="none" stroke="rgb(0,0,0)" stroke-width="1" stroke-opacity="1" points="304.915821,275.000000 304.915821,279.000000"/>
	<polyline fill="none" stroke="rgb(0,0,0)" stroke-width="1" stroke-opacity="1" points="310.975364,275.000000 310.975364,279.000000"/>
	<polyline fill="none" stroke="rgb(0,0,0)" stroke-width="1" stroke-opacity="1" points="316.909959,275.000000 316.909959,279.000000"/>
	<polyline fill="none" stroke="rgb(0,0,0)" stroke-width="1" stroke-opacity="1" points="322.724655,275.000000 322.724655,279.000000"/>
	<polyline fill="none" stroke="rgb(0,0,0)" stroke-width="1" stroke-opacity="1" points="328.424201,275.000000 328.424201,279.000000"/>
	<polyline fill="none" stroke="rgb(0,0,0)" stroke-width="1" stroke-opacity="1" points="334.013069,275.000000 334.013069,279.000000"/>
	<polyline fill="none" stroke="rgb(0,0,0)" stroke-width="1" stroke-opacity="1" points="339.495476,275.000000 339.495476,279.000000"/>
	<polyline fill="none" stroke="rgb(0,0,0)" stroke-width="1" stroke-opacity="1" points="344.875402,275.000000 344.875402,279.000000"/>
	<polyline fill="none" stroke="rgb(0,0,0)" stroke-width="1" stroke-opacity="1" points="350.156608,275.000000 350.156608,279.000000"/>
	<polyline fill="none" stroke="rgb(0,0,0)" stroke-width="1" stroke-opacity="1" points="355.342652,275.000000 355.342652,279.000000"/>
	<polyline fill="none" stroke="rgb(0,0,0)" stroke-width="1" stroke-opacity="1" points="360.436903,275.000000 360.436903,279.000000"/>
	<polyline fill="none" stroke="rgb(0,0,0)" stroke-width="1" stroke-opacity="1" points="365.442554,275.000000 365.442554,279.000000"/>
	<polyline fill="none" stroke="rgb(0,0,0)" stroke-width="1" stroke-opacity="1" points="370.362633,275.000000 370.362633,279.000000"/>
	<polyline fill="none" stroke="rgb(0,0,0)" stroke-width="1" stroke-opacity="1" points="375.200019,275.000000 375.200019,279.000000"/>
	<polyline fill="none" stroke="rgb(0,0,0)" stroke-width="1" stroke-opacity="1" points="379.957444,275.000000 379.957444,279.000000"/>
	<polyline fill="none" stroke="rgb(0,0,0)" stroke-width="1" stroke-opacity="1" points="384.637509,275.000000 384.637509,279.000000"/>
	<polyline fill="none" stroke="rgb(0,0,0)" stroke-width="1" stroke-opacity="1" points="389.242690,275.000000 389.242690,279.000000"/>
	<polyline fill="none" stroke="rgb(0,0,0)" stroke-width="1" stroke-opacity="1" points="393.775345,275.000000 393.775345,279.000000"/>
	<polyline fill="none" stroke="rgb(0,0,0)" stroke-width="1" stroke-opacity="1" points="398.237724,275.000000 398.237724,279.000000"/>
	<polyline fill="none" stroke="rgb(0,0,0)" stroke-width="1" stroke-opacity="1" points="402.631972,275.000000 402.631972,279.000000"/>
	<polyline fill="none" stroke="rgb(0,0,0)" stroke-width="1" stroke-opacity="1" points="406.960139,275.000000 406.960139,279.000000"/>
	<polyline fill="none" stroke="rgb(0,0,0)" stroke-width="1" stroke-opacity="1" points="411.224182,275.000000 411.224182,279.000000"/>
	<polyline fill="none" stroke="rgb(0,0,0)" stroke-width="1" stroke-opacity="1" points="415.425974,275.000000 415.425974,279.000000"/>
	<polyline fill="none" stroke="rgb(0,0,0)" stroke-width="1" stroke-opacity="1" points="419.567307,275.000000 419.567307,279.000000"/>
	<polyline fill="none" stroke="rgb(0,0,0)" stroke-width="1" stroke-opacity="1" points="423.649895,275.000000 423.649895,279.000000"/>
	<polyline fill="none" stroke="rgb(0,0,0)" stroke-width="1" stroke-opacity="1" points="427.675383,275.000000 427.675383,279.000000"/>
	<polyline fill="none" stroke="rgb(0,0,0)" stroke-width="1" stroke-opacity="1" points="431.645345,275.000000 431.645345,279.000000"/>
	<polyline fill="none" stroke="rgb(0,0,0)" stroke-width="1" stroke-opacity="1" points="435.561292,275.000000 435.561292,279.000000"/>
	<polyline fill="none" stroke="rgb(0,0,0)" stroke-width="1" stroke-opacity="1" points="439.424674,275.000000 439.424674,279.000000"/>
	<polyline fill="none" stroke="rgb(0,0,0)" stroke-width="1" stroke-opacity="1" points="443.236884,275.000000 443.236884,279.000000"/>
	<polyline fill="none" stroke="rgb(0,0,0)" stroke-width="1" stroke-opacity="1" points="446.999260,275.000000 446.999260,279.000000"/>
	<polyline fill="none" stroke="rgb(0,0,0)" stroke-width="1" stroke-opacity="1" points="450.713088,275.000000 450.713088,279.000000"/>
	<polyline fill="none" stroke="rgb(0,0,0)" stroke-width="1" stroke-opacity="1" points="454.379604,275.000000 454.379604,279.000000"/>
	<polyline fill="none" stroke="rgb(0,0,0)" stroke-width="1" stroke-opacity="1" points="-67075.690148,275.000000 -67075.690148,279.000000"/>
	<polyline fill="none" stroke="rgb(0,0,0)" stroke-width="1" stroke-opacity="1" points="-67075.690148,275.000000 -67075.690148,279.000000"/>
	<polyline fill="none" stroke="rgb(0,0,0)" stroke-width="1" stroke-opacity="1" points="-67075.690148,275.000000 -67075.690148,279.000000"/>
	<polyline fill="none" stroke="rgb(0,0,0)" stroke-width="1" stroke-opacity="1" points="-67075.690148,275.000000 -67075.690148,279.000000"/>
	<polyline fill="none" stroke="rgb(0,0,0)" stroke-width="1" stroke-opacity="1" points="-67075.690148,275.000000 -67075.690148,279.000000"/>
	<polyline fill="none" stroke="rgb(0,0,0)" stroke-width="1" stroke-opacity="1" points="-67075.690148,275.000000 -67075.690148,279.000000"/>
	<polyline fill="none" stroke="rgb(0,0,0)" stroke-width="1" stroke-opacity="1" points="-67075.690148,275.000000 -67075.690148,279.000000"/>
	<polyline fill="none" stroke="rgb(0,0,0)" stroke-width="1" stroke-opacity="1" points="-67075.690148,275.000000 -67075.690148,279.000000"/>
	<polyline fill="none" stroke="rgb(0,0,0)" stroke-width="1" stroke-opacity="1" points="-67075.690148,275.000000 -67075.690148,279.000000"/>
	<polyline fill="none" stroke="rgb(0,0,0)" stroke-width="1" stroke-opacity="1" points="-67075.690148,275.000000 -67075.690148,279.000000"/>
	<polyline fill="none" stroke="rgb(0,0,0)" stroke-width="1" stroke-opacity="1" points="-67075.690148,275.000000 -67075.690148,279.000000"/>
	<polyline fill="none" stroke="rgb(0,0,0)" stroke-width="1" stroke-opacity="1" points="-67075.690148,275.000000 -67075.690148,279.000000"/>
	<polyline fill="none" stroke="rgb(0,0,0)" stroke-width="1" stroke-opacity="1" points="-67075.690148,275.000000 -67075.690148,279.000000"/>
	<polyline fill="none" stroke="rgb(0,0,0)" stroke-width="1" stroke-opacity="1" points="-67075.690148,275.000000 -67075.690148,279.000000"/>
	<polyline fill="none" stroke="rgb(0,0,0)" stroke-width="1" stroke-opacity="1" points="-67075.690148,275.000000 -67075.690148,279.000000"/>
	<polyline fill="none" stroke="rgb(0,0,0)" stroke-width="1" stroke-opacity="1" points="-67075.690148,275.000000 -67075.690148,279.000000"/>
	<polyline fill="none" stroke="rgb(0,0,0)" stroke-width="1" stroke-opacity="1" points="-67075.690148,275.000000 -67075.690148,279.000000"/>
	<polyline fill="none" stroke="rgb(0,0,0)" stroke-width="1" stroke-opacity="1" points="-67075.690148,275.000000 -67075.690148,279.000000"/>
	<polyline fill="none" stroke="rgb(0,0,0)" stroke-width="1" stroke-opacity="1" points="458.000000,275.000000 458.000000,279.000000"/>
	<polyline fill="none" stroke="rgb(0,0,0)" stroke-width="1" stroke-opacity="1" points="59.000000,275.000000 59.000000,281.400000"/>
	<text x="59" y="291.5" fill="rgb(0,0,0)" dominant-baseline="central" font-size="11" font-family="Arial" text-anchor="middle">20</text>
	<polyline fill="none" stroke="rgb(0,0,0)" stroke-width="1" stroke-opacity="1" points="175.700019,275.000000 175.700019,281.400000"/>
	<text x="175.7" y="291.5" fill="rgb(0,0,0)" dominant-baseline="central" font-size="11" font-family="Arial" text-anchor="middle">30</text>
	<polyline fill="none" stroke="rgb(0,0,0)" stroke-width="1" stroke-opacity="1" points="258.500000,275.000000 258.500000,281.400000"/>
	<text x="258.5" y="291.5" fill="rgb(0,0,0)" dominant-baseline="central" font-size="11" font-family="Arial" text-anchor="middle">40</text>
	<polyline fill="none" stroke="rgb(0,0,0)" stroke-width="1" stroke-opacity="1" points="322.724655,275.000000 322.724655,281.400000"/>
	<text x="322.725" y="291.5" fill="rgb(0,0,0)" dominant-baseline="central" font-size="11" font-family="Arial" text-anchor="middle">50</text>
	<polyline fill="none" stroke="rgb(0,0,0)" stroke-width="1" stroke-opacity="1" points="375.200019,275.000000 375.200019,281.400000"/>
	<text x="375.2" y="291.5" fill="rgb(0,0,0)" dominant-baseline="central" font-size="11" font-family="Arial" text-anchor="middle">60</text>
	<polyline fill="none" stroke="rgb(0,0,0)" stroke-width="1" stroke-opacity="1" points="419.567307,275.000000 419.567307,281.400000"/>
	<text x="419.567" y="291.5" fill="rgb(0,0,0)" dominant-baseline="central" font-size="11" font-family="Arial" text-anchor="middle">70</text>
	<polyline fill="none" stroke="rgb(0,0,0)" stroke-width="1" stroke-opacity="1" points="458.000000,275.000000 458.000000,281.400000"/>
	<text x="458" y="291.5" fill="rgb(0,0,0)" dominant-baseline="central" font-size="11" font-family="Arial" text-anchor="middle">80</text>
	<polyline fill="none" stroke="rgb(0,0,0)" stroke-width="1" stroke-opacity="1" points="55.000000,275.000000 59.000000,275.000000"/>
	<polyline fill="none" stroke="rgb(0,0,0)" stroke-width="1" stroke-opacity="1" points="55.000000,242.750000 59.000000,242.750000"/>
	<polyline fill="none" stroke="rgb(0,0,0)" stroke-width="1" stroke-opacity="1" points="55.000000,210.500000 59.000000,210.500000"/>
	<polyline fill="none" stroke="rgb(0,0,0)" stroke-width="1" stroke-opacity="1" points="55.000000,178.250000 59.000000,178.250000"/>
	<polyline fill="none" stroke="rgb(0,0,0)" stroke-width="1" stroke-opacity="1" points="55.000000,146.000000 59.000000,146.000000"/>
	<polyline fill="none" stroke="rgb(0,0,0)" stroke-width="1" stroke-opacity="1" points="55.000000,113.750000 59.000000,113.750000"/>
	<polyline fill="none" stroke="rgb(0,0,0)" stroke-width="1" stroke-opacity="1" points="55.000000,81.500000 59.000000,81.500000"/>
	<polyline fill="none" stroke="rgb(0,0,0)" stroke-width="1" stroke-opacity="1" points="55.000000,49.250000 59.000000,49.250000"/>
	<polyline fill="none" stroke="rgb(0,0,0)" stroke-width="1" stroke-opacity="1" points="55.000000,17.000000 59.000000,17.000000"/>
	<rect fill="none" stroke="none" stroke-dasharray="none" stroke-width="1" stroke-opacity="1" x="0" y="267" width="51" height="16"/>
	<polyline fill="none" stroke="rgb(0,0,0)" stroke-width="1" stroke-opacity="1" points="52.600000,275.000000 59.000000,275.000000"/>
	<text x="51" y="275" fill="rgb(0,0,0)" dominant-baseline="central" font-size="11" font-family="Arial" text-anchor="end">7.0</text>
	<polyline fill="none" stroke="rgb(0,0,0)" stroke-width="1" stroke-opacity="1" points="52.600000,242.750000 59.000000,242.750000"/>
	<text x="51" y="242.75" fill="rgb(0,0,0)" dominant-baseline="central" font-size="11" font-family="Arial" text-anchor="end">7.1</text>
	<polyline fill="none" stroke="rgb(0,0,0)" stroke-width="1" stroke-opacity="1" points="52.600000,210.500000 59.000000,210.500000"/>
	<text x="51" y="210.5" fill="rgb(0,0,0)" dominant-baseline="central" font-size="11" font-family="Arial" text-anchor="end">7.2</text>
	<polyline fill="none" stroke="rgb(0,0,0)" stroke-width="1" stroke-opacity="1" points="52.600000,178.250000 59.000000,178.250000"/>
	<text x="51" y="178.25" fill="rgb(0,0,0)" dominant-baseline="central" font-size="11" font-family="Arial" text-anchor="end">7.3</text>
	<polyline fill="none" stroke="rgb(0,0,0)" stroke-width="1" stroke-opacity="1" points="52.600000,146.000000 59.000000,146.000000"/>
	<text x="51" y="146" fill="rgb(0,0,0)" dominant-baseline="central" font-size="11" font-family="Arial" text-anchor="end">7.4</text>
	<polyline fill="none" stroke="rgb(0,0,0)" stroke-width="1" stroke-opacity="1" points="52.600000,113.750000 59.000000,113.750000"/>
	<text x="51" y="113.75" fill="rgb(0,0,0)" dominant-baseline="central" font-size="11" font-family="Arial" text-anchor="end">7.5</text>
	<polyline fill="none" stroke="rgb(0,0,0)" stroke-width="1" stroke-opacity="1" points="52.600000,81.500000 59.000000,81.500000"/>
	<text x="51" y="81.5" fill="rgb(0,0,0)" dominant-baseline="central" font-size="11" font-family="Arial" text-anchor="end">7.6</text>
	<polyline fill="none" stroke="rgb(0,0,0)" stroke-width="1" stroke-opacity="1" points="52.600000,49.250000 59.000000,49.250000"/>
	<text x="51" y="49.25" fill="rgb(0,0,0)" dominant-baseline="central" font-size="11" font-family="Arial" text-anchor="end">7.7</text>
	<polyline fill="none" stroke="rgb(0,0,0)" stroke-width="1" stroke-opacity="1" points="52.600000,17.000000 59.000000,17.000000"/>
	<text x="51" y="17" fill="rgb(0,0,0)" dominant-baseline="central" font-size="11" font-family="Arial" text-anchor="end">7.8</text>
	<clipPath id="clipArea1">
		<rect x="59" y="17" width="399" height="258">
		</rect>
	</clipPath>
	<polyline fill="none" stroke="rgb(28,108,200)" stroke-width="1" stroke-opacity="1" clip-path="url(#clipArea1)" points="57.819275,196.120403 60.900608,195.913107 63.943609,195.703198 66.948766,195.490828 69.916633,195.275689 72.847643,195.058091 75.742320,194.838032 78.601122,194.615512 81.424547,194.390378 84.213024,194.162784 86.967024,193.932883 89.687002,193.700367 92.373376,193.465545 95.026577,193.228416 97.647047,192.988827 100.235193,192.746931 102.791409,192.502729 105.316125,192.256066 107.809713,192.007250 110.272580,191.756281 112.705076,191.502851 115.107610,191.247269 117.480532,190.989534 119.824230,190.729492 122.139012,190.467451 124.425267,190.203103 126.683329,189.936602 128.913544,189.667948 131.116228,189.397296 133.291707,189.124490 135.440323,188.849531 137.562384,188.572574 139.658191,188.293617 141.728057,188.012661 143.772288,187.729552 145.791179,187.444597 147.784998,187.157490 149.754067,186.868538 151.698638,186.577586 153.618996,186.284635 155.515438,185.989839 157.388175,185.693197 159.237528,185.394557 161.063735,185.093917 162.867043,184.791585 164.647695,184.487255 166.405964,184.181232 168.142079,183.873211 169.856282,183.563498 171.548807,183.251940 173.219883,182.938536 174.869733,182.623441 176.498593,182.306501 178.106672,181.987715 179.694194,181.667237 181.261378,181.345068 182.808417,181.021208 184.335536,180.695502 185.842936,180.368104 187.330796,180.039015 188.799342,179.708234 190.248760,179.375916 191.679230,179.041752 193.090948,178.706050 194.484118,178.368503 195.858873,178.029418 197.215444,177.688795 198.553989,177.346481 199.874695,177.002475 201.177711,176.656932 202.463184,176.309696 203.731353,175.960923 204.982324,175.610613 206.216294,175.258764 207.433394,174.905224 208.633813,174.550146 209.817643,174.193530 210.985097,173.835223 212.136324,173.475531 213.271433,173.114302 214.390598,172.751381 215.493954,172.387077 216.581666,172.021234 217.653800,171.653700 218.710577,171.284782 219.752089,170.914326 220.778487,170.542486 221.789887,170.168954 222.786404,169.794039 223.768210,169.417585 224.735412,169.039594 225.688086,168.660219 226.626425,168.279306 227.550528,167.896855 228.460492,167.513020 229.356411,167.127647 230.238467,166.740737 231.106749,166.352443 231.961314,165.962764 232.802364,165.571394 233.629921,165.178794 234.444124,164.784502 235.245110,164.388826 236.032922,163.991766 236.807721,163.593168 237.569578,163.193033 238.318559,162.791513 239.054819,162.388610 239.778421,161.984168 240.489484,161.578189 241.188067,161.170826 241.874258,160.761925 242.548198,160.351640 243.209912,159.939817 243.859538,159.526610 244.497154,159.111866 245.122808,158.695737 245.736604,158.278071 246.338642,157.858866 246.928994,157.438124 247.507701,157.015998 248.074887,156.592488 248.630618,156.167287 249.174958,155.740701 249.707998,155.312577 250.229770,154.883070 250.740390,154.451871 251.239916,154.019288 251.728431,153.585167 252.205964,153.149508 252.672621,152.712312 253.128429,152.273577 253.573491,151.833305 254.007858,151.391649 254.431575,150.948302 254.844718,150.503416 255.247359,150.056993 255.639512,149.608878 256.021304,149.159379 256.392719,148.708189 256.753880,148.255460 257.104796,147.801194 257.445506,147.345237 257.776126,146.887741 258.096665,146.428554 258.407154,145.967675 258.707682,145.505413 258.998306,145.041305 259.279029,144.575659 259.549907,144.108322 259.811021,143.639293 260.062371,143.168572 260.304010,142.696160 260.536015,142.222056 260.758384,141.746261 260.971193,141.268774 261.174435,140.789596 261.368186,140.308726 261.552490,139.826010 261.727340,139.341450 261.892807,138.855351 262.048906,138.367254 262.195708,137.877464 262.333198,137.385830 262.461419,136.892503 262.580408,136.397178 262.690178,135.900161 262.790793,135.401145 262.882262,134.900438 262.964595,134.397731 263.037853,133.893179 263.102016,133.386627 263.157144,132.878231 263.203243,132.367989 263.240316,131.855594 263.268422,131.341354 263.287563,130.825114 263.297767,130.306876 263.299036,129.786792 263.291369,129.264401 263.274820,128.740165 263.249388,128.213930 263.215070,127.685388 263.171917,127.155001 263.119925,126.622307 263.059062,126.087614 262.989404,125.550768 262.910916,125.011770 262.823620,124.470618 262.727534,123.927313 262.622622,123.381702 262.508955,122.833937 262.386470,122.284020 262.255209,121.731642 262.115161,121.177112 261.966311,120.620275 261.808702,120.061131 261.642291,119.499680 261.467090,118.935769 261.283084,118.369704 261.090283,117.801026 260.888696,117.230041 260.678278,116.656595 260.459064,116.080689 260.231007,115.502323 259.994113,114.921496 259.748361,114.338055 259.493755,113.752153 259.230272,113.163791 258.957887,112.572814 258.676604,111.979070 258.386396,111.382865 258.087264,110.784045 257.779153,110.182458 257.462062,109.578257 257.135962,108.971287 256.800850,108.361549 256.456667,107.749044 256.103436,107.133924 255.741070,106.515882 255.369617,105.895072 254.988960,105.271341 254.599146,104.644687 254.200111,104.015266 253.791816,103.382769 253.374224,102.747504 252.947323,102.109163 252.511043,101.467746 252.065400,100.823408 251.610295,100.175995 251.145712,99.525505 250.671605,98.871940 250.187959,98.215300 249.694668,97.555276 249.191742,96.892331 248.679131,96.226002 248.156729,95.556444 247.624569,94.883657 247.082512,94.207640 246.530563,93.528240 245.968637,92.845457 245.396706,92.159444 244.814656,91.469895 244.222485,90.776962 243.620132,90.080492 243.007479,89.380640 242.384491,88.677096 241.751104,87.970170 241.107252,87.259552 240.452868,86.545398 239.787853,85.827553 239.112167,85.106171 238.425679,84.380945 237.728375,83.652028 237.020150,82.919266 236.300898,82.182814 235.570570,81.442517 234.829057,80.698376 234.076276,79.950236 233.312144,79.198252 232.536546,78.442423 231.749424,77.682443 230.950629,76.918464 230.140130,76.150486 229.317773,75.378357 228.483464,74.602230 227.637104,73.821796 226.778595,73.037211 225.907803,72.248473 225.024595,71.455430 224.128926,70.658234 223.220593,69.856579 222.299549,69.050618 221.365618,68.240198 220.418683,67.425318 219.458626,66.606132 218.485294,65.782332 217.498594,64.953920 216.498305,64.121047 215.484392,63.283561 214.456595,62.441462 213.414842,61.594596 212.358961,60.743116 211.288811,59.886869 210.204215,59.025701 209.104990,58.159766 207.990985,57.289064 206.862043,56.413287 205.717973,55.532743 204.558610,54.647124 203.383788,53.756430 202.193270,52.860662 200.986880,51.959972 199.764472,51.053901 198.525761,50.142908 197.270626,49.226533 195.998808,48.304930 194.710108,47.377944 193.404308,46.445730 192.081164,45.508133 190.740482,44.565154 189.382009,43.616639 188.005488,42.662588 186.610688,41.703155 185.197376,40.738032 183.765257,39.767219 182.314084,38.790870 180.843605,37.808677 179.353504,36.820794 177.843517,35.827222 176.313350,34.827652 174.762722,33.822238 173.191292,32.810981 171.598779,31.793727 169.984826,30.770321 168.349156,29.741071 166.691375,28.705671 165.011171,27.663965 163.308168,26.616262 161.582017,25.562254 159.832342,24.501941 158.058735,23.435323 156.260839,22.362247 154.438204,21.282865 152.590451,20.197024 150.717148,19.104725 148.817830,18.005813 146.892062,16.900289 144.939374,15.788152 142.959302,14.669249 140.951329,13.543733 138.914986,12.411298 136.849723,11.272095 134.754999,10.125973 132.630296,8.972931 130.475017,7.812968 128.288590,6.645932 126.070403,5.471822 123.819868,4.290638 121.536311,3.102226 119.219062,1.906587 116.867470,0.703720 114.480843,-0.506529 112.058418,-1.724005 109.599477,-2.949016 107.103230,-4.181563 104.568861,-5.421491 101.995595,-6.669108 99.382536,-7.924260 96.728827,-9.187101 94.033534,-10.457631 91.295709,-11.736004 88.514400,-13.022220 85.688564,-14.316279 82.817172,-15.618180 79.899105,-16.928232 76.933252,-18.246126 73.918432,-19.572325 70.853444,-20.906520 67.736987,-22.249019 64.567785,-23.599669 61.344403,-24.958622 58.065485,-26.326034 54.729531,-27.701750 51.334980,-29.085923 47.880230,-30.478709 44.363581,-31.879952 40.783315,-33.289961 37.137576,-34.708581 33.424486,-36.135813 29.642016,-37.571964 25.788074,-39.017035 21.860465,-40.470871 17.856954,-41.933780 13.775063,-43.405608 9.612322,-44.886663 5.366037,-46.376791 1.033437,-47.876146 -3.388358,-49.384420 -7.902505,-50.902228 -12.512211,-52.429571 -17.220915,-53.966141 -22.032234,-55.512245 -26.950010,-57.067883 -31.978277,-58.633056 -37.121309,-60.207763 -42.383681,-61.792312 -47.770215,-63.386703 -53.286041,-64.990935 -58.936602,-66.605010 -64.727745,-68.228927 -70.665693,-69.862993 -76.757062,-71.507208 -83.008979,-73.161266 -89.429071,-74.825780 -96.025510,-76.500137 -96.025510,-76.500137"/>
</svg>
