<?xml version="1.0" standalone="no"?>
<!DOCTYPE svg PUBLIC "-//W3C//DTD SVG 1.1//EN" "http://www.w3.org/Graphics/SVG/1.1/DTD/svg11.dtd">
<svg viewBox="0 0 483.000000 300.000000" version="1.1" xmlns="http://www.w3.org/2000/svg" xmlns:xlink="http://www.w3.org/1999/xlink">
	<polyline fill="none" stroke="rgb(229,229,229)" stroke-width="1" stroke-opacity="1" points="59.000000,17.000000 59.000000,275.000000"/>
	<polyline fill="none" stroke="rgb(229,229,229)" stroke-width="1" stroke-opacity="1" points="92.250000,17.000000 92.250000,275.000000"/>
	<polyline fill="none" stroke="rgb(229,229,229)" stroke-width="1" stroke-opacity="1" points="125.500000,17.000000 125.500000,275.000000"/>
	<polyline fill="none" stroke="rgb(229,229,229)" stroke-width="1" stroke-opacity="1" points="158.750000,17.000000 158.750000,275.000000"/>
	<polyline fill="none" stroke="rgb(229,229,229)" stroke-width="1" stroke-opacity="1" points="192.000000,17.000000 192.000000,275.000000"/>
	<polyline fill="none" stroke="rgb(229,229,229)" stroke-width="1" stroke-opacity="1" points="225.250000,17.000000 225.250000,275.000000"/>
	<polyline fill="none" stroke="rgb(229,229,229)" stroke-width="1" stroke-opacity="1" points="258.500000,17.000000 258.500000,275.000000"/>
	<polyline fill="none" stroke="rgb(229,229,229)" stroke-width="1" stroke-opacity="1" points="291.750000,17.000000 291.750000,275.000000"/>
	<polyline fill="none" stroke="rgb(229,229,229)" stroke-width="1" stroke-opacity="1" points="325.000000,17.000000 325.000000,275.000000"/>
	<polyline fill="none" stroke="rgb(229,229,229)" stroke-width="1" stroke-opacity="1" points="358.250000,17.000000 358.250000,275.000000"/>
	<polyline fill="none" stroke="rgb(229,229,229)" stroke-width="1" stroke-opacity="1" points="391.500000,17.000000 391.500000,275.000000"/>
	<polyline fill="none" stroke="rgb(229,229,229)" stroke-width="1" stroke-opacity="1" points="424.750000,17.000000 424.750000,275.000000"/>
	<polyline fill="none" stroke="rgb(229,229,229)" stroke-width="1" stroke-opacity="1" points="458.000000,17.000000 458.000000,275.000000"/>
	<polyline fill="none" stroke="rgb(229,229,229)" stroke-width="1" stroke-opacity="1" points="59.000000,275.000000 458.000000,275.000000"/>
	<polyline fill="none" stroke="rgb(229,229,229)" stroke-width="1" stroke-opacity="1" points="59.000000,246.333333 458.000000,246.333333"/>
	<polyline fill="none" stroke="rgb(229,229,229)" stroke-width="1" stroke-opacity="1" points="59.000000,217.666667 458.000000,217.666667"/>
	<polyline fill="none" stroke="rgb(229,229,229)" stroke-width="1" stroke-opacity="1" points="59.000000,189.000000 458.000000,189.000000"/>
	<polyline fill="none" stroke="rgb(229,229,229)" stroke-width="1" stroke-opacity="1" points="59.000000,160.333333 458.000000,160.333333"/>
	<polyline fill="none" stroke="rgb(229,229,229)" stroke-width="1" stroke-opacity="1" points="59.000000,131.666667 458.000000,131.666667"/>
	<polyline fill="none" stroke="rgb(229,229,229)" stroke-width="1" stroke-opacity="1" points="59.000000,103.000000 458.000000,103.000000"/>
	<polyline fill="none" stroke="rgb(229,229,229)" stroke-width="1" stroke-opacity="1" points="59.000000,74.333333 458.000000,74.333333"/>
	<polyline fill="none" stroke="rgb(229,229,229)" stroke-width="1" stroke-opacity="1" points="59.000000,45.666667 458.000000,45.666667"/>
	<polyline fill="none" stroke="rgb(229,229,229)" stroke-width="1" stroke-opacity="1" points="59.000000,17.000000 458.000000,17.000000"/>
	<polyline fill="none" stroke="rgb(0,0,0)" stroke-width="1" stroke-opacity="1" points="59.000000,275.000000 458.000000,275.000000"/>
	<polyline fill="none" stroke="rgb(0,0,0)" stroke-width="1" stroke-opacity="1" points="458.000000,275.000000 458.000000,17.000000"/>
	<polyline fill="none" stroke="rgb(0,0,0)" stroke-width="1" stroke-opacity="1" points="458.000000,17.000000 59.000000,17.000000"/>
	<polyline fill="none" stroke="rgb(0,0,0)" stroke-width="1" stroke-opacity="1" points="59.000000,17.000000 59.000000,275.000000"/>
	<polyline fill="none" stroke="rgb(0,0,0)" stroke-width="1" stroke-opacity="1" points="59.000000,275.000000 59.000000,279.000000"/>
	<polyline fill="none" stroke="rgb(0,0,0)" stroke-width="1" stroke-opacity="1" points="92.250000,275.000000 92.250000,279.000000"/>
	<polyline fill="none" stroke="rgb(0,0,0)" stroke-width="1" stroke-opacity="1" points="125.500000,275.000000 125.500000,279.000000"/>
	<polyline fill="none" stroke="rgb(0,0,0)" stroke-width="1" stroke-opacity="1" points="158.750000,275.000000 158.750000,279.000000"/>
	<polyline fill="none" stroke="rgb(0,0,0)" stroke-width="1" stroke-opacity="1" points="192.000000,275.000000 192.000000,279.000000"/>
	<polyline fill="none" stroke="rgb(0,0,0)" stroke-width="1" stroke-opacity="1" points="225.250000,275.000000 225.250000,279.000000"/>
	<polyline fill="none" stroke="rgb(0,0,0)" stroke-width="1" stroke-opacity="1" points="258.500000,275.000000 258.500000,279.000000"/>
	<polyline fill="none" stroke="rgb(0,0,0)" stroke-width="1" stroke-opacity="1" points="291.750000,275.000000 291.750000,279.000000"/>
	<polyline fill="none" stroke="rgb(0,0,0)" stroke-width="1" stroke-opacity="1" points="325.000000,275.000000 325.000000,279.000000"/>
	<polyline fill="none" stroke="rgb(0,0,0)" stroke-width="1" stroke-opacity="1" points="358.250000,275.000000 358.250000,279.000000"/>
	<polyline fill="none" stroke="rgb(0,0,0)" stroke-width="1" stroke-opacity="1" points="391.500000,275.000000 391.500000,279.000000"/>
	<polyline fill="none" stroke="rgb(0,0,0)" stroke-width="1" stroke-opacity="1" points="424.750000,275.000000 424.750000,279.000000"/>
	<polyline fill="none" stroke="rgb(0,0,0)" stroke-width="1" stroke-opacity="1" points="458.000000,275.000000 458.000000,279.000000"/>
	<polyline fill="none" stroke="rgb(0,0,0)" stroke-width="1" stroke-opacity="1" points="92.250000,275.000000 92.250000,281.400000"/>
	<text x="92.25" y="291.5" fill="rgb(0,0,0)" dominant-baseline="central" font-size="11" font-family="Arial" text-anchor="middle">25</text>
	<polyline fill="none" stroke="rgb(0,0,0)" stroke-width="1" stroke-opacity="1" points="258.500000,275.000000 258.500000,281.400000"/>
	<text x="258.5" y="291.5" fill="rgb(0,0,0)" dominant-baseline="central" font-size="11" font-family="Arial" text-anchor="middle">50</text>
	<polyline fill="none" stroke="rgb(0,0,0)" stroke-width="1" stroke-opacity="1" points="424.750000,275.000000 424.750000,281.400000"/>
	<text x="424.75" y="291.5" fill="rgb(0,0,0)" dominant-baseline="central" font-size="11" font-family="Arial" text-anchor="middle">75</text>
	<polyline fill="none" stroke="rgb(0,0,0)" stroke-width="1" stroke-opacity="1" points="55.000000,275.000000 59.000000,275.000000"/>
	<polyline fill="none" stroke="rgb(0,0,0)" stroke-width="1" stroke-opacity="1" points="55.000000,246.333333 59.000000,246.333333"/>
	<polyline fill="none" stroke="rgb(0,0,0)" stroke-width="1" stroke-opacity="1" points="55.000000,217.666667 59.000000,217.666667"/>
	<polyline fill="none" stroke="rgb(0,0,0)" stroke-width="1" stroke-opacity="1" points="55.000000,189.000000 59.000000,189.000000"/>
	<polyline fill="none" stroke="rgb(0,0,0)" stroke-width="1" stroke-opacity="1" points="55.000000,160.333333 59.000000,160.333333"/>
	<polyline fill="none" stroke="rgb(0,0,0)" stroke-width="1" stroke-opacity="1" points="55.000000,131.666667 59.000000,131.666667"/>
	<polyline fill="none" stroke="rgb(0,0,0)" stroke-width="1" stroke-opacity="1" points="55.000000,103.000000 59.000000,103.000000"/>
	<polyline fill="none" stroke="rgb(0,0,0)" stroke-width="1" stroke-opacity="1" points="55.000000,74.333333 59.000000,74.333333"/>
	<polyline fill="none" stroke="rgb(0,0,0)" stroke-width="1" stroke-opacity="1" points="55.000000,45.666667 59.000000,45.666667"/>
	<polyline fill="none" stroke="rgb(0,0,0)" stroke-width="1" stroke-opacity="1" points="55.000000,17.000000 59.000000,17.000000"/>
	<rect fill="none" stroke="none" stroke-dasharray="none" stroke-width="1" stroke-opacity="1" x="0" y="267" width="51" height="16"/>
	<polyline fill="none" stroke="rgb(0,0,0)" stroke-width="1" stroke-opacity="1" points="52.600000,275.000000 59.000000,275.000000"/>
	<text x="51" y="275" fill="rgb(0,0,0)" dominant-baseline="central" font-size="11" font-family="Arial" text-anchor="end">0</text>
	<polyline fill="none" stroke="rgb(0,0,0)" stroke-width="1" stroke-opacity="1" points="52.600000,217.666667 59.000000,217.666667"/>
	<text x="51" y="217.667" fill="rgb(0,0,0)" dominant-baseline="central" font-size="11" font-family="Arial" text-anchor="end">10</text>
	<polyline fill="none" stroke="rgb(0,0,0)" stroke-width="1" stroke-opacity="1" points="52.600000,160.333333 59.000000,160.333333"/>
	<text x="51" y="160.333" fill="rgb(0,0,0)" dominant-baseline="central" font-size="11" font-family="Arial" text-anchor="end">20</text>
	<polyline fill="none" stroke="rgb(0,0,0)" stroke-width="1" stroke-opacity="1" points="52.600000,103.000000 59.000000,103.000000"/>
	<text x="51" y="103" fill="rgb(0,0,0)" dominant-baseline="central" font-size="11" font-family="Arial" text-anchor="end">30</text>
	<polyline fill="none" stroke="rgb(0,0,0)" stroke-width="1" stroke-opacity="1" points="52.600000,45.666667 59.000000,45.666667"/>
	<text x="51" y="45.6667" fill="rgb(0,0,0)" dominant-baseline="central" font-size="11" font-family="Arial" text-anchor="end">40</text>
	<clipPath id="clipArea1">
		<rect x="59" y="17" width="399" height="258">
		</rect>
	</clipPath>
	<polyline fill="none" stroke="rgb(238,46,47)" stroke-width="2" stroke-opacity="1" clip-path="url(#clipArea1)" points="59.000000,262.488977 59.798006,262.491430 60.595998,262.493875 61.394004,262.496312 62.191997,262.498744 62.990003,262.501168 63.787995,262.503584 64.586001,262.505996 65.383994,262.508399 66.181999,262.510796 66.980005,262.513186 67.777998,262.515570 68.576004,262.517947 69.373996,262.520317 70.172002,262.522680 70.969995,262.525038 71.768001,262.527389 72.566006,262.529735 73.363999,262.532074 74.162005,262.534406 74.959997,262.536732 75.758003,262.539052 76.555996,262.541366 77.354002,262.543674 78.151994,262.545976 78.950000,262.548271 79.748006,262.550562 80.545998,262.552846 81.344004,262.555123 82.141997,262.557395 82.940003,262.559663 83.737995,262.561922 84.536001,262.564178 85.333994,262.566428 86.131999,262.568671 86.930005,262.570908 87.727998,262.573142 88.526004,262.575369 89.323996,262.577590 90.122002,262.579806 90.919995,262.582018 91.718001,262.584222 92.516006,262.586423 93.313999,262.588617 94.112005,262.590807 94.909997,262.592991 95.708003,262.595170 96.505996,262.597344 97.304002,262.599512 98.101994,262.601675 98.900000,262.603834 99.698006,262.605987 100.495998,262.608136 101.294004,262.610279 102.091997,262.612417 102.890003,262.614551 103.687995,262.616679 104.486001,262.618803 105.283994,262.620922 106.081999,262.623035 106.880005,262.625144 107.677998,262.627249 108.476004,262.629349 109.273996,262.631443 110.072002,262.633535 110.869995,262.635619 111.668001,262.637701 112.466006,262.639777 113.263999,262.641850 114.062005,262.643916 114.859997,262.645979 115.658003,262.648038 116.455996,262.650091 117.254002,262.652140 118.051994,262.654185 118.850000,262.656226 119.648006,262.658262 120.445998,262.660294 121.244004,262.662321 122.041997,262.664345 122.840003,262.666363 123.637995,262.668378 124.436001,262.670388 125.233994,262.672395 126.031999,262.674396 126.830005,262.676395 127.627998,262.678388 128.426004,262.680378 129.223996,262.682363 130.022002,262.684345 130.819995,262.686321 131.618001,262.688295 132.416006,262.690265 133.213999,262.692229 134.012005,262.694191 134.809997,262.696148 135.608003,262.698102 136.405996,262.700051 137.204002,262.701996 138.001994,262.703938 138.800000,262.705877 139.597993,262.707810 140.396011,262.709740 141.194004,262.711667 141.991997,262.713589 142.789990,262.715508 143.588008,262.717423 144.386001,262.719334 145.183994,262.721242 145.982012,262.723147 146.780005,262.725047 147.577998,262.726943 148.375991,262.728836 149.174009,262.730725 149.972002,262.732611 150.769995,262.734493 151.567988,262.736372 152.366006,262.738247 153.163999,262.740118 153.961992,262.741987 154.760010,262.743852 155.558003,262.745712 156.355996,262.747570 157.153989,262.749423 157.952007,262.751274 158.750000,262.753121 159.547993,262.754965 160.346011,262.756806 161.144004,262.758642 161.941997,262.760476 162.739990,262.762306 163.538008,262.764133 164.336001,262.765958 165.133994,262.767777 165.932012,262.769594 166.730005,262.771408 167.527998,262.773219 168.325991,262.775026 169.124009,262.776830 169.922002,262.778630 170.719995,262.780428 171.517988,262.782223 172.316006,262.784013 173.113999,262.785801 173.911992,262.787587 174.710010,262.789369 175.508003,262.791147 176.305996,262.792923 177.103989,262.794696 177.902007,262.796465 178.700000,262.798231 179.497993,262.799994 180.296011,262.801755 181.094004,262.803511 181.891997,262.805266 182.689990,262.807017 183.488008,262.808766 184.286001,262.810510 185.083994,262.812253 185.882012,262.813992 186.680005,262.815728 187.477998,262.817461 188.275991,262.819191 189.074009,262.820919 189.872002,262.822644 190.669995,262.824365 191.467988,262.826085 192.266006,262.827800 193.063999,262.829513 193.861992,262.831225 194.660010,262.832932 195.458003,262.834636 196.255996,262.836338 197.053989,262.838037 197.852007,262.839734 198.650000,262.841427 199.447993,262.843118 200.246011,262.844805 201.044004,262.846490 201.841997,262.848173 202.639990,262.849853 203.438008,262.851530 204.236001,262.853205 205.033994,262.854877 205.832012,262.856546 206.630005,262.858212 207.427998,262.859875 208.225991,262.861536 209.024009,262.863194 209.822002,262.864850 210.619995,262.866504 211.417988,262.868154 212.216006,262.869802 213.013999,262.871447 213.811992,262.873090 214.610010,262.874730 215.408003,262.876367 216.205996,262.878002 217.003989,262.879634 217.802007,262.881265 218.600000,262.882892 219.397993,262.884517 220.196011,262.886140 220.994004,262.887759 221.791997,262.889377 222.589990,262.890991 223.388008,262.892604 224.186001,262.894214 224.983994,262.895822 225.782012,262.897426 226.580005,262.899028 227.377998,262.900629 228.175991,262.902227 228.974009,262.903822 229.772002,262.905415 230.569995,262.907006 231.367988,262.908594 232.166006,262.910180 232.963999,262.911763 233.761992,262.913344 234.560010,262.914923 235.358003,262.916499 236.155996,262.918073 236.953989,262.919645 237.752007,262.921214 238.550000,262.922782 239.347993,262.924345 240.146011,262.925908 240.944004,262.927469 241.741997,262.929026 242.539990,262.930581 243.338008,262.932136 244.136001,262.933686 244.933994,262.935234 245.732012,262.936782 246.530005,262.938326 247.327998,262.939868 248.125991,262.941408 248.924009,262.942945 249.722002,262.944480 250.519995,262.946014 251.317988,262.947545 252.116006,262.949073 252.913999,262.950600 253.711992,262.952126 254.510010,262.953647 255.308003,262.955167 256.105996,262.956686 256.903989,262.958202 257.702007,262.959715 258.500000,262.961227 259.297993,262.962736 260.096011,262.964244 260.894004,262.965749 261.691997,262.967252 262.489990,262.968753 263.288008,262.970251 264.086001,262.971748 264.883994,262.973243 265.682012,262.974736 266.480005,262.976226 267.277998,262.977715 268.075991,262.979202 268.874009,262.980686 269.672002,262.982168 270.469995,262.983648 271.267988,262.985128 272.066006,262.986604 272.863999,262.988077 273.661992,262.989550 274.460010,262.991020 275.258003,262.992488 276.055996,262.993955 276.853989,262.995419 277.652007,262.996882 278.450000,262.998342 279.247993,262.999800 280.046011,263.001256 280.844004,263.002710 281.641997,263.004163 282.439990,263.005614 283.238008,263.007063 284.036001,263.008509 284.833994,263.009954 285.632012,263.011397 286.430005,263.012838 287.227998,263.014276 288.025991,263.015714 288.824009,263.017149 289.622002,263.018582 290.419995,263.020013 291.217988,263.021443 292.016006,263.022871 292.813999,263.024297 293.611992,263.025720 294.410010,263.027143 295.208003,263.028563 296.005996,263.029981 296.803989,263.031398 297.602007,263.032812 298.400000,263.034225 299.197993,263.035636 299.996011,263.037045 300.794004,263.038453 301.591997,263.039858 302.389990,263.041262 303.188008,263.042664 303.986001,263.044064 304.783994,263.045463 305.582012,263.046858 306.380005,263.048254 307.177998,263.049647 307.975991,263.051038 308.774009,263.052427 309.572002,263.053815 310.369995,263.055201 311.167988,263.056585 311.966006,263.057967 312.763999,263.059348 313.561992,263.060727 314.360010,263.062104 315.158003,263.063480 315.955996,263.064853 316.753989,263.066225 317.552007,263.067596 318.350000,263.068964 319.147993,263.070331 319.946011,263.071695 320.744004,263.073060 321.541997,263.074421 322.339990,263.075781 323.138008,263.077140 323.936001,263.078496 324.733994,263.079852 325.532012,263.081205 326.330005,263.082557 327.127998,263.083906 327.925991,263.085255 328.724009,263.086602 329.522002,263.087947 330.319995,263.089291 331.117988,263.090632 331.916006,263.091972 332.713999,263.093311 333.511992,263.094648 334.310010,263.095983 335.108003,263.097317 335.905996,263.098649 336.703989,263.099979 337.502007,263.101307 338.300000,263.102635 339.097993,263.103960 339.896011,263.105285 340.694004,263.106607 341.491997,263.107929 342.289990,263.109248 343.088008,263.110566 343.886001,263.111880 344.683994,263.113195 345.482012,263.114509 346.280005,263.115820 347.077998,263.117130 347.875991,263.118438 348.674009,263.119744 349.472002,263.121050 350.269995,263.122354 351.067988,263.123657 351.866006,263.124957 352.664024,263.126255 353.461992,263.127554 354.260010,263.128850 355.057978,263.130144 355.855996,263.131437 356.654014,263.132728 357.451982,263.134018 358.250000,263.135307 359.048018,263.136593 359.845986,263.137880 360.644004,263.139163 361.442022,263.140445 362.239990,263.141726 363.038008,263.143006 363.835976,263.144284 364.633994,263.145560 365.432012,263.146836 366.229980,263.148110 367.027998,263.149381 367.826016,263.150652 368.623984,263.151921 369.422002,263.153189 370.220020,263.154455 371.017988,263.155721 371.816006,263.156984 372.614024,263.158245 373.411992,263.159506 374.210010,263.160766 375.007978,263.162024 375.805996,263.163280 376.604014,263.164535 377.401982,263.165788 378.200000,263.167040 378.998018,263.168290 379.795986,263.169539 380.594004,263.170787 381.392022,263.172034 382.189990,263.173279 382.988008,263.174523 383.785976,263.175764 384.583994,263.177005 385.382012,263.178245 386.179980,263.179482 386.977998,263.180719 387.776016,263.181955 388.573984,263.183189 389.372002,263.184421 390.170020,263.185653 390.967988,263.186883 391.766006,263.188110 392.564024,263.189338 393.361992,263.190564 394.160010,263.191787 394.957978,263.193011 395.755996,263.194233 396.554014,263.195453 397.351982,263.196673 398.150000,263.197889 398.948018,263.199106 399.745986,263.200321 400.544004,263.201535 401.342022,263.202747 402.139990,263.203958 402.938008,263.205168 403.735976,263.206377 404.533994,263.207584 405.332012,263.208789 406.129980,263.209993 406.927998,263.211196 407.726016,263.212399 408.523984,263.213599 409.322002,263.214798 410.120020,263.215997 410.917988,263.217193 411.716006,263.218389 412.514024,263.219583 413.311992,263.220776 414.110010,263.221968 414.907978,263.223158 415.705996,263.224348 416.504014,263.225534 417.301982,263.226721 418.100000,263.227907 418.898018,263.229091 419.695986,263.230273 420.494004,263.231454 421.292022,263.232635 422.089990,263.233814 422.888008,263.234992 423.685976,263.236169 424.483994,263.237343 425.282012,263.238517 426.079980,263.239690 426.877998,263.240862 427.676016,263.242032 428.473984,263.243202 429.272002,263.244369 430.070020,263.245535 430.867988,263.246701 431.666006,263.247866 432.464024,263.249029 433.261992,263.250190 434.060010,263.251351 434.857978,263.252511 435.655996,263.253668 436.454014,263.254825 437.251982,263.255981 438.050000,263.257135 438.848018,263.258289 439.645986,263.259441 440.444004,263.260592 441.242022,263.261741 442.039990,263.262891 442.838008,263.264038 443.635976,263.265185 444.433994,263.266329 445.232012,263.267473 446.029980,263.268616 446.827998,263.269757 447.626016,263.270899 448.423984,263.272037 449.222002,263.273176 450.020020,263.274312 450.817988,263.275448 451.616006,263.276582 452.414024,263.277717 453.211992,263.278849 454.010010,263.279979 454.807978,263.281110 455.605996,263.282239 456.404014,263.283366 457.201982,263.284493 458.000000,263.285619 458.000000,263.285619"/>
	<polyline fill="none" stroke="rgb(238,46,47)" stroke-width="2" stroke-opacity="1" clip-path="url(#clipArea1)" points="59.000000,186.243410 59.798006,186.294320 60.595998,186.344984 61.394004,186.395396 62.191997,186.445568 62.990003,186.495500 63.787995,186.545185 64.586001,186.594635 65.383994,186.643856 66.181999,186.692841 66.980005,186.741597 67.777998,186.790123 68.576004,186.838430 69.373996,186.886508 70.172002,186.934367 70.969995,186.982013 71.768001,187.029435 72.566006,187.076648 73.363999,187.123649 74.162005,187.170436 74.959997,187.217022 75.758003,187.263399 76.555996,187.309568 77.354002,187.355541 78.151994,187.401311 78.950000,187.446885 79.748006,187.492262 80.545998,187.537447 81.344004,187.582436 82.141997,187.627238 82.940003,187.671849 83.737995,187.716269 84.536001,187.760509 85.333994,187.804562 86.131999,187.848435 86.930005,187.892128 87.727998,187.935640 88.526004,187.978977 89.323996,188.022140 90.122002,188.065122 90.919995,188.107939 91.718001,188.150582 92.516006,188.193050 93.313999,188.235359 94.112005,188.277494 94.909997,188.319470 95.708003,188.361276 96.505996,188.402924 97.304002,188.444407 98.101994,188.485732 98.900000,188.526899 99.698006,188.567912 100.495998,188.608767 101.294004,188.649464 102.091997,188.690012 102.890003,188.730408 103.687995,188.770650 104.486001,188.810745 105.283994,188.850693 106.081999,188.890487 106.880005,188.930144 107.677998,188.969649 108.476004,189.009016 109.273996,189.048236 110.072002,189.087320 110.869995,189.126261 111.668001,189.165060 112.466006,189.203722 113.263999,189.242248 114.062005,189.280637 114.859997,189.318895 115.658003,189.357016 116.455996,189.395005 117.254002,189.432864 118.051994,189.470586 118.850000,189.508182 119.648006,189.545652 120.445998,189.582992 121.244004,189.620199 122.041997,189.657287 122.840003,189.694249 123.637995,189.731085 124.436001,189.767795 125.233994,189.804386 126.031999,189.840855 126.830005,189.877205 127.627998,189.913434 128.426004,189.949543 129.223996,189.985531 130.022002,190.021405 130.819995,190.057164 131.618001,190.092808 132.416006,190.128332 133.213999,190.163747 134.012005,190.199046 134.809997,190.234237 135.608003,190.269312 136.405996,190.304273 137.204002,190.339130 138.001994,190.373872 138.800000,190.408510 139.597993,190.443039 140.396011,190.477458 141.194004,190.511773 141.991997,190.545985 142.789990,190.580087 143.588008,190.614086 144.386001,190.647980 145.183994,190.681771 145.982012,190.715463 146.780005,190.749051 147.577998,190.782541 148.375991,190.815927 149.174009,190.849215 149.972002,190.882404 150.769995,190.915489 151.567988,190.948481 152.366006,190.981375 153.163999,191.014176 153.961992,191.046879 154.760010,191.079483 155.558003,191.111994 156.355996,191.144412 157.153989,191.176737 157.952007,191.208969 158.750000,191.241109 159.547993,191.273155 160.346011,191.305109 161.144004,191.336975 161.941997,191.368748 162.739990,191.400433 163.538008,191.432026 164.336001,191.463536 165.133994,191.494954 165.932012,191.526284 166.730005,191.557532 167.527998,191.588687 168.325991,191.619760 169.124009,191.650746 169.922002,191.681650 170.719995,191.712466 171.517988,191.743200 172.316006,191.773846 173.113999,191.804411 173.911992,191.834899 174.710010,191.865300 175.508003,191.895618 176.305996,191.925860 177.103989,191.956015 177.902007,191.986093 178.700000,192.016094 179.497993,192.046014 180.296011,192.075857 181.094004,192.105618 181.891997,192.135302 182.689990,192.164910 183.488008,192.194435 184.286001,192.223890 185.083994,192.253268 185.882012,192.282564 186.680005,192.311795 187.477998,192.340943 188.275991,192.370021 189.074009,192.399022 189.872002,192.427946 190.669995,192.456805 191.467988,192.485587 192.266006,192.514292 193.063999,192.542932 193.861992,192.571496 194.660010,192.599988 195.458003,192.628409 196.255996,192.656765 197.053989,192.685044 197.852007,192.713258 198.650000,192.741395 199.447993,192.769471 200.246011,192.797472 201.044004,192.825412 201.841997,192.853275 202.639990,192.881073 203.438008,192.908806 204.236001,192.936472 205.033994,192.964073 205.832012,192.991603 206.630005,193.019068 207.427998,193.046467 208.225991,193.073805 209.024009,193.101073 209.822002,193.128275 210.619995,193.155417 211.417988,193.182493 212.216006,193.209504 213.013999,193.236454 213.811992,193.263339 214.610010,193.290164 215.408003,193.316923 216.205996,193.343622 217.003989,193.370260 217.802007,193.396834 218.600000,193.423347 219.397993,193.449799 220.196011,193.476192 220.994004,193.502519 221.791997,193.528792 222.589990,193.555004 223.388008,193.581156 224.186001,193.607248 224.983994,193.633280 225.782012,193.659257 226.580005,193.685174 227.377998,193.711031 228.175991,193.736828 228.974009,193.762570 229.772002,193.788258 230.569995,193.813885 231.367988,193.839457 232.166006,193.864970 232.963999,193.890428 233.761992,193.915831 234.560010,193.941179 235.358003,193.966467 236.155996,193.991706 236.953989,194.016885 237.752007,194.042015 238.550000,194.067085 239.347993,194.092100 240.146011,194.117065 240.944004,194.141976 241.741997,194.166832 242.539990,194.191634 243.338008,194.216381 244.136001,194.241079 244.933994,194.265722 245.732012,194.290316 246.530005,194.314855 247.327998,194.339345 248.125991,194.363780 248.924009,194.388161 249.722002,194.412498 250.519995,194.436780 251.317988,194.461013 252.116006,194.485191 252.913999,194.509320 253.711992,194.533406 254.510010,194.557436 255.308003,194.581418 256.105996,194.605350 256.903989,194.629228 257.702007,194.653062 258.500000,194.676846 259.297993,194.700582 260.096011,194.724273 260.894004,194.747910 261.691997,194.771504 262.489990,194.795048 263.288008,194.818542 264.086001,194.841988 264.883994,194.865390 265.682012,194.888748 266.480005,194.912052 267.277998,194.935317 268.075991,194.958527 268.874009,194.981700 269.672002,195.004817 270.469995,195.027896 271.267988,195.050927 272.066006,195.073913 272.863999,195.096850 273.661992,195.119749 274.460010,195.142599 275.258003,195.165399 276.055996,195.188161 276.853989,195.210880 277.652007,195.233549 278.450000,195.256180 279.247993,195.278762 280.046011,195.301300 280.844004,195.323799 281.641997,195.346250 282.439990,195.368662 283.238008,195.391031 284.036001,195.413355 284.833994,195.435636 285.632012,195.457874 286.430005,195.480073 287.227998,195.502228 288.025991,195.524339 288.824009,195.546413 289.622002,195.568442 290.419995,195.590428 291.217988,195.612375 292.016006,195.634279 292.813999,195.656144 293.611992,195.677972 294.410010,195.699750 295.208003,195.721495 296.005996,195.743196 296.803989,195.764859 297.602007,195.786479 298.400000,195.808060 299.197993,195.829603 299.996011,195.851107 300.794004,195.872568 301.591997,195.893991 302.389990,195.915375 303.188008,195.936721 303.986001,195.958023 304.783994,195.979293 305.582012,196.000524 306.380005,196.021712 307.177998,196.042866 307.975991,196.063977 308.774009,196.085055 309.572002,196.106090 310.369995,196.127091 311.167988,196.148055 311.966006,196.168980 312.763999,196.189866 313.561992,196.210720 314.360010,196.231530 315.158003,196.252308 315.955996,196.273047 316.753989,196.293748 317.552007,196.314416 318.350000,196.335045 319.147993,196.355637 319.946011,196.376196 320.744004,196.396716 321.541997,196.417204 322.339990,196.437653 323.138008,196.458069 323.936001,196.478448 324.733994,196.498788 325.532012,196.519095 326.330005,196.539369 327.127998,196.559611 327.925991,196.579809 328.724009,196.599979 329.522002,196.620111 330.319995,196.640211 331.117988,196.660277 331.916006,196.680305 332.713999,196.700301 333.511992,196.720264 334.310010,196.740194 335.108003,196.760085 335.905996,196.779944 336.703989,196.799775 337.502007,196.819569 338.300000,196.839329 339.097993,196.859051 339.896011,196.878746 340.694004,196.898408 341.491997,196.918037 342.289990,196.937628 343.088008,196.957191 343.886001,196.976722 344.683994,196.996220 345.482012,197.015685 346.280005,197.035118 347.077998,197.054517 347.875991,197.073884 348.674009,197.093223 349.472002,197.112524 350.269995,197.131798 351.067988,197.151039 351.866006,197.170253 352.664024,197.189428 353.461992,197.208576 354.260010,197.227691 355.057978,197.246779 355.855996,197.265829 356.654014,197.284856 357.451982,197.303846 358.250000,197.322808 359.048018,197.341737 359.845986,197.360639 360.644004,197.379508 361.442022,197.398350 362.239990,197.417159 363.038008,197.435935 363.835976,197.454684 364.633994,197.473406 365.432012,197.492094 366.229980,197.510756 367.027998,197.529384 367.826016,197.547985 368.623984,197.566559 369.422002,197.585100 370.220020,197.603614 371.017988,197.622095 371.816006,197.640549 372.614024,197.658975 373.411992,197.677374 374.210010,197.695740 375.007978,197.714079 375.805996,197.732390 376.604014,197.750674 377.401982,197.768926 378.200000,197.787150 378.998018,197.805346 379.795986,197.823515 380.594004,197.841657 381.392022,197.859772 382.189990,197.877854 382.988008,197.895914 383.785976,197.913941 384.583994,197.931941 385.382012,197.949918 386.179980,197.967864 386.977998,197.985781 387.776016,198.003677 388.573984,198.021540 389.372002,198.039376 390.170020,198.057190 390.967988,198.074971 391.766006,198.092725 392.564024,198.110457 393.361992,198.128161 394.160010,198.145838 394.957978,198.163488 395.755996,198.181111 396.554014,198.198706 397.351982,198.216279 398.150000,198.233820 398.948018,198.251338 399.745986,198.268829 400.544004,198.286299 401.342022,198.303735 402.139990,198.321150 402.938008,198.338538 403.735976,198.355903 404.533994,198.373241 405.332012,198.390552 406.129980,198.407836 406.927998,198.425097 407.726016,198.442332 408.523984,198.459544 409.322002,198.476729 410.120020,198.493887 410.917988,198.511023 411.716006,198.528131 412.514024,198.545218 413.311992,198.562277 414.110010,198.579309 414.907978,198.596319 415.705996,198.613308 416.504014,198.630268 417.301982,198.647202 418.100000,198.664114 418.898018,198.681004 419.695986,198.697866 420.494004,198.714707 421.292022,198.731520 422.089990,198.748311 422.888008,198.765081 423.685976,198.781823 424.483994,198.798543 425.282012,198.815242 426.079980,198.831913 426.877998,198.848562 427.676016,198.865184 428.473984,198.881784 429.272002,198.898362 430.070020,198.914919 430.867988,198.931448 431.666006,198.947955 432.464024,198.964440 433.261992,198.980903 434.060010,198.997339 434.857978,199.013759 435.655996,199.030151 436.454014,199.046516 437.251982,199.062865 438.050000,199.079191 438.848018,199.095491 439.645986,199.111768 440.444004,199.128024 441.242022,199.144257 442.039990,199.160469 442.838008,199.176659 443.635976,199.192827 444.433994,199.208968 445.232012,199.225092 446.029980,199.241189 446.827998,199.257270 447.626016,199.273323 448.423984,199.289360 449.222002,199.305369 450.020020,199.321363 450.817988,199.337328 451.616006,199.353278 452.414024,199.369200 453.211992,199.385105 454.010010,199.400984 454.807978,199.416846 455.605996,199.432686 456.404014,199.448504 457.201982,199.464300 458.000000,199.480074 458.000000,199.480074"/>
	<polyline fill="none" stroke="rgb(238,46,47)" stroke-width="2" stroke-opacity="1" clip-path="url(#clipArea1)" points="59.000000,74.426066 59.798006,74.258710 60.595998,74.091922 61.394004,73.925703 62.191997,73.760052 62.990003,73.594949 63.787995,73.430392 64.586001,73.266404 65.383994,73.102940 66.181999,72.940024 66.980005,72.777632 67.777998,72.615787 68.576004,72.454445 69.373996,72.293628 70.172002,72.133336 70.969995,71.973547 71.768001,71.814261 72.566006,71.655478 73.363999,71.497198 74.162005,71.339422 74.959997,71.182126 75.758003,71.025311 76.555996,70.868978 77.354002,70.713126 78.151994,70.557733 78.950000,70.402821 79.748006,70.248390 80.545998,70.094397 81.344004,69.940885 82.141997,69.787810 82.940003,69.635195 83.737995,69.483017 84.536001,69.331298 85.333994,69.180017 86.131999,69.029173 86.930005,68.878767 87.727998,68.728798 88.526004,68.579244 89.323996,68.430107 90.122002,68.281406 90.919995,68.133121 91.718001,67.985252 92.516006,67.837798 93.313999,67.690738 94.112005,67.544093 94.909997,67.397864 95.708003,67.252007 96.505996,67.106565 97.304002,66.961517 98.101994,66.816863 98.900000,66.672602 99.698006,66.528713 100.495998,66.385218 101.294004,66.242095 102.091997,66.099365 102.890003,65.956985 103.687995,65.814999 104.486001,65.673385 105.283994,65.532121 106.081999,65.391228 106.880005,65.250707 107.677998,65.110537 108.476004,64.970716 109.273996,64.831267 110.072002,64.692168 110.869995,64.553418 111.668001,64.415019 112.466006,64.276948 113.263999,64.139227 114.062005,64.001855 114.859997,63.864834 115.658003,63.728119 116.455996,63.591754 117.254002,63.455738 118.051994,63.320029 118.850000,63.184648 119.648006,63.049617 120.445998,62.914892 121.244004,62.780473 122.041997,62.646405 122.840003,62.512620 123.637995,62.379185 124.436001,62.246035 125.233994,62.113213 126.031999,61.980697 126.830005,61.848487 127.627998,61.716606 128.426004,61.585008 129.223996,61.453695 130.022002,61.322710 130.819995,61.192009 131.618001,61.061615 132.416006,60.931505 133.213999,60.801701 134.012005,60.672181 134.809997,60.542946 135.608003,60.413995 136.405996,60.285350 137.204002,60.156968 138.001994,60.028870 138.800000,59.901078 139.597993,59.773527 140.396011,59.646281 141.194004,59.519299 141.991997,59.392601 142.789990,59.266165 143.588008,59.140013 144.386001,59.014124 145.183994,58.888497 145.982012,58.763155 146.780005,58.638075 147.577998,58.513236 148.375991,58.388681 149.174009,58.264367 149.972002,58.140337 150.769995,58.016547 151.567988,57.893020 152.366006,57.769734 153.163999,57.646710 153.961992,57.523948 154.760010,57.401427 155.558003,57.279169 156.355996,57.157129 157.153989,57.035352 157.952007,56.913837 158.750000,56.792540 159.547993,56.671507 160.346011,56.550692 161.144004,56.430139 161.941997,56.309805 162.739990,56.189712 163.538008,56.069859 164.336001,55.950247 165.133994,55.830854 165.932012,55.711701 166.730005,55.592789 167.527998,55.474095 168.325991,55.355642 169.124009,55.237386 169.922002,55.119392 170.719995,55.001596 171.517988,54.884039 172.316006,54.766702 173.113999,54.649583 173.911992,54.532683 174.710010,54.416001 175.508003,54.299539 176.305996,54.183295 177.103989,54.067269 177.902007,53.951463 178.700000,53.835875 179.497993,53.720484 180.296011,53.605312 181.094004,53.490336 181.891997,53.375579 182.689990,53.261041 183.488008,53.146700 184.286001,53.032556 185.083994,52.918630 185.882012,52.804901 186.680005,52.691391 187.477998,52.578056 188.275991,52.464939 189.074009,52.352020 189.872002,52.239319 190.669995,52.126793 191.467988,52.014464 192.266006,51.902332 193.063999,51.790396 193.861992,51.678658 194.660010,51.567116 195.458003,51.455771 196.255996,51.344601 197.053989,51.233628 197.852007,51.122852 198.650000,51.012250 199.447993,50.901846 200.246011,50.791638 201.044004,50.681606 201.841997,50.571770 202.639990,50.462109 203.438008,50.352623 204.236001,50.243334 205.033994,50.134220 205.832012,50.025281 206.630005,49.916517 207.427998,49.807949 208.225991,49.699557 209.024009,49.591340 209.822002,49.483297 210.619995,49.375430 211.417988,49.267737 212.216006,49.160220 213.013999,49.052877 213.811992,48.945710 214.610010,48.838717 215.408003,48.731900 216.205996,48.625235 217.003989,48.518745 217.802007,48.412431 218.600000,48.306291 219.397993,48.200305 220.196011,48.094493 220.994004,47.988835 221.791997,47.883351 222.589990,47.778043 223.388008,47.672887 224.186001,47.567885 224.983994,47.463057 225.782012,47.358383 226.580005,47.253884 227.377998,47.149516 228.175991,47.045345 228.974009,46.941305 229.772002,46.837439 230.569995,46.733706 231.367988,46.630147 232.166006,46.526763 232.963999,46.423510 233.761992,46.320411 234.560010,46.217464 235.358003,46.114693 236.155996,46.012052 236.953989,45.909565 237.752007,45.807253 238.550000,45.705072 239.347993,45.603044 240.146011,45.501147 240.944004,45.399426 241.741997,45.297835 242.539990,45.196398 243.338008,45.095114 244.136001,44.993982 244.933994,44.892982 245.732012,44.792114 246.530005,44.691420 247.327998,44.590857 248.125991,44.490426 248.924009,44.390148 249.722002,44.290023 250.519995,44.190029 251.317988,44.090166 252.116006,43.990457 252.913999,43.890878 253.711992,43.791453 254.510010,43.692159 255.308003,43.592996 256.105996,43.493987 256.903989,43.395086 257.702007,43.296339 258.500000,43.197745 259.297993,43.099260 260.096011,43.000928 260.894004,42.902706 261.691997,42.804637 262.489990,42.706699 263.288008,42.608892 264.086001,42.511216 264.883994,42.413672 265.682012,42.316259 266.480005,42.218977 267.277998,42.121826 268.075991,42.024807 268.874009,41.927918 269.672002,41.831140 270.469995,41.734514 271.267988,41.637997 272.066006,41.541612 272.863999,41.445358 273.661992,41.349236 274.460010,41.253222 275.258003,41.157340 276.055996,41.061589 276.853989,40.965947 277.652007,40.870437 278.450000,40.775058 279.247993,40.679788 280.046011,40.584650 280.844004,40.489642 281.641997,40.394744 282.439990,40.299956 283.238008,40.205298 284.036001,40.110772 284.833994,40.016355 285.632012,39.922048 286.430005,39.827872 287.227998,39.733805 288.025991,39.639869 288.824009,39.546043 289.622002,39.452326 290.419995,39.358718 291.217988,39.265242 292.016006,39.171897 292.813999,39.078639 293.611992,38.985513 294.410010,38.892474 295.208003,38.799588 296.005996,38.706790 296.803989,38.614101 297.602007,38.521543 298.400000,38.429073 299.197993,38.336734 299.996011,38.244504 300.794004,38.152383 301.591997,38.060372 302.389990,37.968471 303.188008,37.876678 303.986001,37.784996 304.783994,37.693422 305.582012,37.601958 306.380005,37.510603 307.177998,37.419335 307.975991,37.328199 308.774009,37.237172 309.572002,37.146233 310.369995,37.055425 311.167988,36.964704 311.966006,36.874093 312.763999,36.783569 313.561992,36.693177 314.360010,36.602872 315.158003,36.512676 315.955996,36.422590 316.753989,36.332613 317.552007,36.242723 318.350000,36.152943 319.147993,36.063250 319.946011,35.973667 320.744004,35.884193 321.541997,35.794828 322.339990,35.705551 323.138008,35.616361 323.936001,35.527303 324.733994,35.438310 325.532012,35.349449 326.330005,35.260653 327.127998,35.171988 327.925991,35.083411 328.724009,34.994921 329.522002,34.906540 330.319995,34.818247 331.117988,34.730042 331.916006,34.641946 332.713999,34.553959 333.511992,34.466060 334.310010,34.378248 335.108003,34.290546 335.905996,34.202909 336.703989,34.115403 337.502007,34.027963 338.300000,33.940633 339.097993,33.853389 339.896011,33.766256 340.694004,33.679188 341.491997,33.592229 342.289990,33.505357 343.088008,33.418595 343.886001,33.331899 344.683994,33.245312 345.482012,33.158812 346.280005,33.072400 347.077998,32.986076 347.875991,32.899839 348.674009,32.813711 349.472002,32.727649 350.269995,32.641696 351.067988,32.555831 351.866006,32.470031 352.664024,32.384341 353.461992,32.298738 354.260010,32.213223 355.057978,32.127795 355.855996,32.042455 356.654014,31.957202 357.451982,31.872014 358.250000,31.786936 359.048018,31.701946 359.845986,31.617043 360.644004,31.532206 361.442022,31.447478 362.239990,31.362815 363.038008,31.278262 363.835976,31.193775 364.633994,31.109375 365.432012,31.025063 366.229980,30.940816 367.027998,30.856678 367.826016,30.772606 368.623984,30.688622 369.422002,30.604725 370.220020,30.520916 371.017988,30.437194 371.816006,30.353537 372.614024,30.269969 373.411992,30.186487 374.210010,30.103072 375.007978,30.019743 375.805996,29.936503 376.604014,29.853327 377.401982,29.770262 378.200000,29.687240 378.998018,29.604327 379.795986,29.521480 380.594004,29.438720 381.392022,29.356026 382.189990,29.273420 382.988008,29.190901 383.785976,29.108447 384.583994,29.026081 385.382012,28.943781 386.179980,28.861568 386.977998,28.779421 387.776016,28.697361 388.573984,28.615389 389.372002,28.533460 390.170020,28.451641 390.967988,28.369888 391.766006,28.288200 392.564024,28.206599 393.361992,28.125065 394.160010,28.043617 394.957978,27.962236 395.755996,27.880941 396.554014,27.799713 397.351982,27.718571 398.150000,27.637474 398.948018,27.556486 399.745986,27.475542 400.544004,27.394685 401.342022,27.313916 402.139990,27.233190 402.938008,27.152552 403.735976,27.072001 404.533994,26.991494 405.332012,26.911075 406.129980,26.830743 406.927998,26.750455 407.726016,26.670254 408.523984,26.590119 409.322002,26.510049 410.120020,26.430067 410.917988,26.350151 411.716006,26.270300 412.514024,26.190515 413.311992,26.110817 414.110010,26.031185 414.907978,25.951597 415.705996,25.872118 416.504014,25.792683 417.301982,25.713313 418.100000,25.634031 418.898018,25.554815 419.695986,25.475664 420.494004,25.396578 421.292022,25.317559 422.089990,25.238605 422.888008,25.159738 423.685976,25.080915 424.483994,25.002180 425.282012,24.923488 426.079980,24.844884 426.877998,24.766346 427.676016,24.687873 428.473984,24.609466 429.272002,24.531124 430.070020,24.452848 430.867988,24.374637 431.666006,24.296493 432.464024,24.218413 433.261992,24.140400 434.060010,24.062452 434.857978,23.984569 435.655996,23.906753 436.454014,23.828979 437.251982,23.751294 438.050000,23.673674 438.848018,23.596120 439.645986,23.518631 440.444004,23.441186 441.242022,23.363829 442.039990,23.286515 442.838008,23.209289 443.635976,23.132106 444.433994,23.054989 445.232012,22.977938 446.029980,22.900952 446.827998,22.824032 447.626016,22.747156 448.423984,22.670367 449.222002,22.593622 450.020020,22.516942 450.817988,22.440328 451.616006,22.363780 452.414024,22.287276 453.211992,22.210859 454.010010,22.134485 454.807978,22.058178 455.605996,21.981936 456.404014,21.905737 457.201982,21.829626 458.000000,21.753559 458.000000,21.753559"/>
	<polyline fill="none" stroke="rgb(0,0,0)" stroke-dasharray="4,2" stroke-width="2" stroke-opacity="1" clip-path="url(#clipArea1)" points="59.000000,262.394831 59.798006,262.397737 60.595998,262.400638 61.394004,262.403534 62.191997,262.406427 62.990003,262.409315 63.787995,262.412198 64.586001,262.415077 65.383994,262.417951 66.181999,262.420821 66.980005,262.423687 67.777998,262.426548 68.576004,262.429405 69.373996,262.432258 70.172002,262.435105 70.969995,262.437950 71.768001,262.440789 72.566006,262.443625 73.363999,262.446456 74.162005,262.449283 74.959997,262.452106 75.758003,262.454924 76.555996,262.457737 77.354002,262.460548 78.151994,262.463354 78.950000,262.466156 79.748006,262.468953 80.545998,262.471747 81.344004,262.474537 82.141997,262.477321 82.940003,262.480103 83.737995,262.482881 84.536001,262.485654 85.333994,262.488424 86.131999,262.491189 86.930005,262.493950 87.727998,262.496707 88.526004,262.499460 89.323996,262.502211 90.122002,262.504955 90.919995,262.507697 91.718001,262.510434 92.516006,262.513168 93.313999,262.515898 94.112005,262.518625 94.909997,262.521346 95.708003,262.524065 96.505996,262.526780 97.304002,262.529490 98.101994,262.532197 98.900000,262.534901 99.698006,262.537599 100.495998,262.540296 101.294004,262.542988 102.091997,262.545675 102.890003,262.548360 103.687995,262.551040 104.486001,262.553718 105.283994,262.556392 106.081999,262.559061 106.880005,262.561727 107.677998,262.564390 108.476004,262.567048 109.273996,262.569703 110.072002,262.572355 110.869995,262.575002 111.668001,262.577647 112.466006,262.580288 113.263999,262.582925 114.062005,262.585559 114.859997,262.588189 115.658003,262.590816 116.455996,262.593440 117.254002,262.596059 118.051994,262.598675 118.850000,262.601287 119.648006,262.603897 120.445998,262.606502 121.244004,262.609105 122.041997,262.611703 122.840003,262.614299 123.637995,262.616891 124.436001,262.619480 125.233994,262.622065 126.031999,262.624647 126.830005,262.627225 127.627998,262.629800 128.426004,262.632371 129.223996,262.634940 130.022002,262.637505 130.819995,262.640067 131.618001,262.642626 132.416006,262.645181 133.213999,262.647733 134.012005,262.650281 134.809997,262.652826 135.608003,262.655369 136.405996,262.657907 137.204002,262.660443 138.001994,262.662974 138.800000,262.665503 139.597993,262.668029 140.396011,262.670552 141.194004,262.673072 141.991997,262.675587 142.789990,262.678101 143.588008,262.680610 144.386001,262.683117 145.183994,262.685620 145.982012,262.688120 146.780005,262.690618 147.577998,262.693112 148.375991,262.695603 149.174009,262.698091 149.972002,262.700576 150.769995,262.703058 151.567988,262.705536 152.366006,262.708012 153.163999,262.710485 153.961992,262.712953 154.760010,262.715421 155.558003,262.717884 156.355996,262.720344 157.153989,262.722801 157.952007,262.725256 158.750000,262.727707 159.547993,262.730155 160.346011,262.732600 161.144004,262.735042 161.941997,262.737482 162.739990,262.739917 163.538008,262.742351 164.336001,262.744782 165.133994,262.747209 165.932012,262.749634 166.730005,262.752056 167.527998,262.754474 168.325991,262.756889 169.124009,262.759303 169.922002,262.761713 170.719995,262.764120 171.517988,262.766523 172.316006,262.768925 173.113999,262.771324 173.911992,262.773719 174.710010,262.776112 175.508003,262.778502 176.305996,262.780889 177.103989,262.783274 177.902007,262.785655 178.700000,262.788034 179.497993,262.790409 180.296011,262.792782 181.094004,262.795153 181.891997,262.797520 182.689990,262.799885 183.488008,262.802247 184.286001,262.804606 185.083994,262.806961 185.882012,262.809315 186.680005,262.811666 187.477998,262.814015 188.275991,262.816360 189.074009,262.818702 189.872002,262.821042 190.669995,262.823380 191.467988,262.825714 192.266006,262.828046 193.063999,262.830376 193.861992,262.832702 194.660010,262.835026 195.458003,262.837347 196.255996,262.839665 197.053989,262.841981 197.852007,262.844294 198.650000,262.846604 199.447993,262.848913 200.246011,262.851217 201.044004,262.853521 201.841997,262.855820 202.639990,262.858118 203.438008,262.860413 204.236001,262.862705 205.033994,262.864995 205.832012,262.867281 206.630005,262.869566 207.427998,262.871847 208.225991,262.874127 209.024009,262.876403 209.822002,262.878678 210.619995,262.880949 211.417988,262.883219 212.216006,262.885485 213.013999,262.887749 213.811992,262.890009 214.610010,262.892269 215.408003,262.894524 216.205996,262.896779 217.003989,262.899030 217.802007,262.901280 218.600000,262.903526 219.397993,262.905770 220.196011,262.908011 220.994004,262.910250 221.791997,262.912486 222.589990,262.914721 223.388008,262.916952 224.186001,262.919181 224.983994,262.921408 225.782012,262.923632 226.580005,262.925853 227.377998,262.928073 228.175991,262.930290 228.974009,262.932505 229.772002,262.934716 230.569995,262.936927 231.367988,262.939134 232.166006,262.941339 232.963999,262.943541 233.761992,262.945741 234.560010,262.947939 235.358003,262.950134 236.155996,262.952327 236.953989,262.954518 237.752007,262.956706 238.550000,262.958892 239.347993,262.961075 240.146011,262.963257 240.944004,262.965435 241.741997,262.967612 242.539990,262.969786 243.338008,262.971958 244.136001,262.974128 244.933994,262.976296 245.732012,262.978460 246.530005,262.980622 247.327998,262.982783 248.125991,262.984942 248.924009,262.987097 249.722002,262.989250 250.519995,262.991402 251.317988,262.993551 252.116006,262.995697 252.913999,262.997841 253.711992,262.999983 254.510010,263.002124 255.308003,263.004260 256.105996,263.006397 256.903989,263.008529 257.702007,263.010660 258.500000,263.012789 259.297993,263.014916 260.096011,263.017040 260.894004,263.019161 261.691997,263.021282 262.489990,263.023399 263.288008,263.025515 264.086001,263.027628 264.883994,263.029739 265.682012,263.031848 266.480005,263.033954 267.277998,263.036058 268.075991,263.038160 268.874009,263.040261 269.672002,263.042358 270.469995,263.044455 271.267988,263.046548 272.066006,263.048639 272.863999,263.050729 273.661992,263.052817 274.460010,263.054901 275.258003,263.056984 276.055996,263.059065 276.853989,263.061144 277.652007,263.063220 278.450000,263.065294 279.247993,263.067366 280.046011,263.069437 280.844004,263.071505 281.641997,263.073571 282.439990,263.075635 283.238008,263.077696 284.036001,263.079756 284.833994,263.081813 285.632012,263.083869 286.430005,263.085922 287.227998,263.087974 288.025991,263.090023 288.824009,263.092071 289.622002,263.094116 290.419995,263.096159 291.217988,263.098200 292.016006,263.100238 292.813999,263.102276 293.611992,263.104310 294.410010,263.106344 295.208003,263.108374 296.005996,263.110404 296.803989,263.112430 297.602007,263.114456 298.400000,263.116477 299.197993,263.118499 299.996011,263.120518 300.794004,263.122534 301.591997,263.124549 302.389990,263.126561 303.188008,263.128572 303.986001,263.130582 304.783994,263.132588 305.582012,263.134593 306.380005,263.136596 307.177998,263.138597 307.975991,263.140596 308.774009,263.142593 309.572002,263.144588 310.369995,263.146581 311.167988,263.148572 311.966006,263.150562 312.763999,263.152548 313.561992,263.154534 314.360010,263.156518 315.158003,263.158498 315.955996,263.160478 316.753989,263.162456 317.552007,263.164431 318.350000,263.166405 319.147993,263.168377 319.946011,263.170347 320.744004,263.172314 321.541997,263.174281 322.339990,263.176245 323.138008,263.178207 323.936001,263.180167 324.733994,263.182126 325.532012,263.184082 326.330005,263.186037 327.127998,263.187990 327.925991,263.189941 328.724009,263.191890 329.522002,263.193838 330.319995,263.195783 331.117988,263.197727 331.916006,263.199668 332.713999,263.201607 333.511992,263.203546 334.310010,263.205481 335.108003,263.207415 335.905996,263.209348 336.703989,263.211278 337.502007,263.213207 338.300000,263.215135 339.097993,263.217059 339.896011,263.218982 340.694004,263.220904 341.491997,263.222824 342.289990,263.224741 343.088008,263.226656 343.886001,263.228571 344.683994,263.230484 345.482012,263.232395 346.280005,263.234303 347.077998,263.236210 347.875991,263.238115 348.674009,263.240018 349.472002,263.241920 350.269995,263.243820 351.067988,263.245718 351.866006,263.247614 352.664024,263.249509 353.461992,263.251401 354.260010,263.253292 355.057978,263.255182 355.855996,263.257069 356.654014,263.258954 357.451982,263.260838 358.250000,263.262720 359.048018,263.264601 359.845986,263.266479 360.644004,263.268356 361.442022,263.270232 362.239990,263.272106 363.038008,263.273977 363.835976,263.275847 364.633994,263.277715 365.432012,263.279581 366.229980,263.281446 367.027998,263.283309 367.826016,263.285171 368.623984,263.287031 369.422002,263.288889 370.220020,263.290745 371.017988,263.292600 371.816006,263.294452 372.614024,263.296303 373.411992,263.298152 374.210010,263.300001 375.007978,263.301847 375.805996,263.303691 376.604014,263.305534 377.401982,263.307375 378.200000,263.309214 378.998018,263.311052 379.795986,263.312888 380.594004,263.314722 381.392022,263.316556 382.189990,263.318386 382.988008,263.320216 383.785976,263.322044 384.583994,263.323870 385.382012,263.325693 386.179980,263.327517 386.977998,263.329338 387.776016,263.331157 388.573984,263.332975 389.372002,263.334792 390.170020,263.336606 390.967988,263.338420 391.766006,263.340231 392.564024,263.342041 393.361992,263.343848 394.160010,263.345655 394.957978,263.347459 395.755996,263.349262 396.554014,263.351064 397.351982,263.352864 398.150000,263.354663 398.948018,263.356459 399.745986,263.358255 400.544004,263.360049 401.342022,263.361841 402.139990,263.363631 402.938008,263.365419 403.735976,263.367207 404.533994,263.368992 405.332012,263.370776 406.129980,263.372559 406.927998,263.374340 407.726016,263.376120 408.523984,263.377898 409.322002,263.379674 410.120020,263.381448 410.917988,263.383222 411.716006,263.384994 412.514024,263.386763 413.311992,263.388531 414.110010,263.390299 414.907978,263.392064 415.705996,263.393827 416.504014,263.395590 417.301982,263.397351 418.100000,263.399110 418.898018,263.400867 419.695986,263.402623 420.494004,263.404378 421.292022,263.406131 422.089990,263.407883 422.888008,263.409633 423.685976,263.411381 424.483994,263.413128 425.282012,263.414874 426.079980,263.416618 426.877998,263.418359 427.676016,263.420101 428.473984,263.421839 429.272002,263.423578 430.070020,263.425314 430.867988,263.427049 431.666006,263.428782 432.464024,263.430514 433.261992,263.432245 434.060010,263.433974 434.857978,263.435700 435.655996,263.437427 436.454014,263.439152 437.251982,263.440874 438.050000,263.442595 438.848018,263.444316 439.645986,263.446034 440.444004,263.447751 441.242022,263.449467 442.039990,263.451181 442.838008,263.452893 443.635976,263.454605 444.433994,263.456315 445.232012,263.458022 446.029980,263.459729 446.827998,263.461434 447.626016,263.463139 448.423984,263.464840 449.222002,263.466542 450.020020,263.468241 450.817988,263.469939 451.616006,263.471637 452.414024,263.473332 453.211992,263.475025 454.010010,263.476718 454.807978,263.478409 455.605996,263.480098 456.404014,263.481786 457.201982,263.483473 458.000000,263.485159 458.000000,263.485159"/>
	<polyline fill="none" stroke="rgb(0,0,0)" stroke-dasharray="4,2" stroke-width="2" stroke-opacity="1" clip-path="url(#clipArea1)" points="59.000000,184.203306 59.798006,184.268984 60.595998,184.334378 61.394004,184.399482 62.191997,184.464308 62.990003,184.528844 63.787995,184.593106 64.586001,184.657089 65.383994,184.720805 66.181999,184.784241 66.980005,184.847416 67.777998,184.910322 68.576004,184.972971 69.373996,185.035352 70.172002,185.097477 70.969995,185.159350 71.768001,185.220966 72.566006,185.282335 73.363999,185.343454 74.162005,185.404326 74.959997,185.464952 75.758003,185.525338 76.555996,185.585488 77.354002,185.645398 78.151994,185.705073 78.950000,185.764513 79.748006,185.823723 80.545998,185.882703 81.344004,185.941460 82.141997,185.999986 82.940003,186.058294 83.737995,186.116378 84.536001,186.174243 85.333994,186.231895 86.131999,186.289328 86.930005,186.346542 87.727998,186.403554 88.526004,186.460347 89.323996,186.516939 90.122002,186.573316 90.919995,186.629497 91.718001,186.685470 92.516006,186.741241 93.313999,186.796810 94.112005,186.852187 94.909997,186.907362 95.708003,186.962346 96.505996,187.017132 97.304002,187.071727 98.101994,187.126131 98.900000,187.180349 99.698006,187.234376 100.495998,187.288217 101.294004,187.341877 102.091997,187.395352 102.890003,187.448640 103.687995,187.501754 104.486001,187.554687 105.283994,187.607445 106.081999,187.660023 106.880005,187.712425 107.677998,187.764653 108.476004,187.816712 109.273996,187.868600 110.072002,187.920314 110.869995,187.971864 111.668001,188.023244 112.466006,188.074455 113.263999,188.125507 114.062005,188.176390 114.859997,188.227114 115.658003,188.277674 116.455996,188.328076 117.254002,188.378319 118.051994,188.428398 118.850000,188.478329 119.648006,188.528096 120.445998,188.577716 121.244004,188.627177 122.041997,188.676485 122.840003,188.725646 123.637995,188.774653 124.436001,188.823513 125.233994,188.872219 126.031999,188.920783 126.830005,188.969200 127.627998,189.017469 128.426004,189.065596 129.223996,189.113576 130.022002,189.161418 130.819995,189.209113 131.618001,189.256672 132.416006,189.304088 133.213999,189.351367 134.012005,189.398510 134.809997,189.445516 135.608003,189.492380 136.405996,189.539113 137.204002,189.585714 138.001994,189.632179 138.800000,189.678507 139.597993,189.724710 140.396011,189.770781 141.194004,189.816715 141.991997,189.862529 142.789990,189.908207 143.588008,189.953764 144.386001,189.999190 145.183994,190.044490 145.982012,190.089664 146.780005,190.134713 147.577998,190.179636 148.375991,190.224444 149.174009,190.269121 149.972002,190.313683 150.769995,190.358119 151.567988,190.402435 152.366006,190.446636 153.163999,190.490717 153.961992,190.534678 154.760010,190.578524 155.558003,190.622249 156.355996,190.665860 157.153989,190.709361 157.952007,190.752742 158.750000,190.796008 159.547993,190.839165 160.346011,190.882207 161.144004,190.925134 161.941997,190.967957 162.739990,191.010666 163.538008,191.053259 164.336001,191.095749 165.133994,191.138130 165.932012,191.180401 166.730005,191.222568 167.527998,191.264626 168.325991,191.306574 169.124009,191.348419 169.922002,191.390159 170.719995,191.431796 171.517988,191.473329 172.316006,191.514752 173.113999,191.556078 173.911992,191.597304 174.710010,191.638422 175.508003,191.679441 176.305996,191.720361 177.103989,191.761183 177.902007,191.801901 178.700000,191.842521 179.497993,191.883043 180.296011,191.923465 181.094004,191.963790 181.891997,192.004022 182.689990,192.044155 183.488008,192.084189 184.286001,192.124131 185.083994,192.163975 185.882012,192.203725 186.680005,192.243388 187.477998,192.282947 188.275991,192.322419 189.074009,192.361797 189.872002,192.401088 190.669995,192.440281 191.467988,192.479386 192.266006,192.518399 193.063999,192.557323 193.861992,192.596155 194.660010,192.634900 195.458003,192.673551 196.255996,192.712120 197.053989,192.750597 197.852007,192.788991 198.650000,192.827293 199.447993,192.865512 200.246011,192.903644 201.044004,192.941689 201.841997,192.979646 202.639990,193.017521 203.438008,193.055313 204.236001,193.093019 205.033994,193.130642 205.832012,193.168178 206.630005,193.205638 207.427998,193.243010 208.225991,193.280300 209.024009,193.317513 209.822002,193.354639 210.619995,193.391688 211.417988,193.428650 212.216006,193.465541 213.013999,193.502344 213.811992,193.539071 214.610010,193.575721 215.408003,193.612290 216.205996,193.648781 217.003989,193.685196 217.802007,193.721529 218.600000,193.757786 219.397993,193.793966 220.196011,193.830075 220.994004,193.866102 221.791997,193.902052 222.589990,193.937931 223.388008,193.973729 224.186001,194.009460 224.983994,194.045110 225.782012,194.080688 226.580005,194.116190 227.377998,194.151621 228.175991,194.186981 228.974009,194.222264 229.772002,194.257477 230.569995,194.292618 231.367988,194.327682 232.166006,194.362681 232.963999,194.397604 233.761992,194.432460 234.560010,194.467241 235.358003,194.501955 236.155996,194.536599 236.953989,194.571171 237.752007,194.605673 238.550000,194.640108 239.347993,194.674473 240.146011,194.708772 240.944004,194.743000 241.741997,194.777157 242.539990,194.811254 243.338008,194.845280 244.136001,194.879234 244.933994,194.913129 245.732012,194.946952 246.530005,194.980710 247.327998,195.014408 248.125991,195.048034 248.924009,195.081595 249.722002,195.115090 250.519995,195.148520 251.317988,195.181890 252.116006,195.215194 252.913999,195.248432 253.711992,195.281605 254.510010,195.314717 255.308003,195.347764 256.105996,195.380746 256.903989,195.413672 257.702007,195.446528 258.500000,195.479323 259.297993,195.512059 260.096011,195.544734 260.894004,195.577343 261.691997,195.609893 262.489990,195.642382 263.288008,195.674811 264.086001,195.707180 264.883994,195.739489 265.682012,195.771732 266.480005,195.803921 267.277998,195.836049 268.075991,195.868118 268.874009,195.900126 269.672002,195.932079 270.469995,195.963967 271.267988,195.995800 272.066006,196.027578 272.863999,196.059291 273.661992,196.090955 274.460010,196.122553 275.258003,196.154096 276.055996,196.185585 276.853989,196.217014 277.652007,196.248387 278.450000,196.279707 279.247993,196.310966 280.046011,196.342170 280.844004,196.373320 281.641997,196.404409 282.439990,196.435449 283.238008,196.466430 284.036001,196.497355 284.833994,196.528231 285.632012,196.559048 286.430005,196.589809 287.227998,196.620521 288.025991,196.651173 288.824009,196.681776 289.622002,196.712325 290.419995,196.742818 291.217988,196.773257 292.016006,196.803647 292.813999,196.833982 293.611992,196.864262 294.410010,196.894493 295.208003,196.924669 296.005996,196.954797 296.803989,196.984869 297.602007,197.014892 298.400000,197.044861 299.197993,197.074781 299.996011,197.104651 300.794004,197.134466 301.591997,197.164233 302.389990,197.193950 303.188008,197.223618 303.986001,197.253231 304.783994,197.282795 305.582012,197.312310 306.380005,197.341775 307.177998,197.371192 307.975991,197.400559 308.774009,197.429877 309.572002,197.459146 310.369995,197.488365 311.167988,197.517536 311.966006,197.546657 312.763999,197.575734 313.561992,197.604757 314.360010,197.633736 315.158003,197.662666 315.955996,197.691546 316.753989,197.720383 317.552007,197.749171 318.350000,197.777909 319.147993,197.806604 319.946011,197.835249 320.744004,197.863851 321.541997,197.892403 322.339990,197.920907 323.138008,197.949366 323.936001,197.977782 324.733994,198.006154 325.532012,198.034472 326.330005,198.062751 327.127998,198.090981 327.925991,198.119167 328.724009,198.147309 329.522002,198.175408 330.319995,198.203457 331.117988,198.231463 331.916006,198.259425 332.713999,198.287343 333.511992,198.315212 334.310010,198.343043 335.108003,198.370830 335.905996,198.398568 336.703989,198.426267 337.502007,198.453918 338.300000,198.481530 339.097993,198.509098 339.896011,198.536623 340.694004,198.564103 341.491997,198.591541 342.289990,198.618934 343.088008,198.646289 343.886001,198.673600 344.683994,198.700868 345.482012,198.728092 346.280005,198.755277 347.077998,198.782414 347.875991,198.809517 348.674009,198.836572 349.472002,198.863593 350.269995,198.890565 351.067988,198.917499 351.866006,198.944390 352.664024,198.971242 353.461992,198.998056 354.260010,199.024826 355.057978,199.051552 355.855996,199.078245 356.654014,199.104890 357.451982,199.131501 358.250000,199.158069 359.048018,199.184598 359.845986,199.211084 360.644004,199.237531 361.442022,199.263940 362.239990,199.290311 363.038008,199.316644 363.835976,199.342933 364.633994,199.369183 365.432012,199.395396 366.229980,199.421570 367.027998,199.447705 367.826016,199.473797 368.623984,199.499857 369.422002,199.525878 370.220020,199.551855 371.017988,199.577799 371.816006,199.603705 372.614024,199.629568 373.411992,199.655397 374.210010,199.681189 375.007978,199.706942 375.805996,199.732656 376.604014,199.758338 377.401982,199.783976 378.200000,199.809582 378.998018,199.835149 379.795986,199.860678 380.594004,199.886168 381.392022,199.911626 382.189990,199.937040 382.988008,199.962427 383.785976,199.987770 384.583994,200.013080 385.382012,200.038352 386.179980,200.063591 386.977998,200.088792 387.776016,200.113960 388.573984,200.139089 389.372002,200.164181 390.170020,200.189239 390.967988,200.214260 391.766006,200.239247 392.564024,200.264202 393.361992,200.289118 394.160010,200.313997 394.957978,200.338847 395.755996,200.363655 396.554014,200.388434 397.351982,200.413176 398.150000,200.437885 398.948018,200.462555 399.745986,200.487193 400.544004,200.511797 401.342022,200.536369 402.139990,200.560903 402.938008,200.585404 403.735976,200.609872 404.533994,200.634307 405.332012,200.658704 406.129980,200.683074 406.927998,200.707405 407.726016,200.731704 408.523984,200.755970 409.322002,200.780203 410.120020,200.804403 410.917988,200.828570 411.716006,200.852705 412.514024,200.876801 413.311992,200.900870 414.110010,200.924906 414.907978,200.948910 415.705996,200.972875 416.504014,200.996813 417.301982,201.020717 418.100000,201.044590 418.898018,201.068429 419.695986,201.092241 420.494004,201.116015 421.292022,201.139761 422.089990,201.163469 422.888008,201.187150 423.685976,201.210798 424.483994,201.234418 425.282012,201.258001 426.079980,201.281556 426.877998,201.305078 427.676016,201.328573 428.473984,201.352029 429.272002,201.375459 430.070020,201.398855 430.867988,201.422224 431.666006,201.445560 432.464024,201.468864 433.261992,201.492140 434.060010,201.515383 434.857978,201.538599 435.655996,201.561782 436.454014,201.584933 437.251982,201.608056 438.050000,201.631146 438.848018,201.654209 439.645986,201.677239 440.444004,201.700242 441.242022,201.723217 442.039990,201.746160 442.838008,201.769070 443.635976,201.791952 444.433994,201.814807 445.232012,201.837630 446.029980,201.860425 446.827998,201.883187 447.626016,201.905922 448.423984,201.928629 449.222002,201.951304 450.020020,201.973951 450.817988,201.996571 451.616006,202.019164 452.414024,202.041724 453.211992,202.064256 454.010010,202.086761 454.807978,202.109234 455.605996,202.131679 456.404014,202.154096 457.201982,202.176487 458.000000,202.198850 458.000000,202.198850"/>
	<polyline fill="none" stroke="rgb(0,0,0)" stroke-dasharray="4,2" stroke-width="2" stroke-opacity="1" clip-path="url(#clipArea1)" points="59.000000,52.248789 59.798006,52.245355 60.595998,52.241965 61.394004,52.238597 62.191997,52.235273 62.990003,52.231992 63.787995,52.228733 64.586001,52.225518 65.383994,52.222325 66.181999,52.219176 66.980005,52.216070 67.777998,52.212986 68.576004,52.209924 69.373996,52.206906 70.172002,52.203910 70.969995,52.200957 71.768001,52.198027 72.566006,52.195118 73.363999,52.192253 74.162005,52.189409 74.959997,52.186588 75.758003,52.183810 76.555996,52.181055 77.354002,52.178321 78.151994,52.175609 78.950000,52.172919 79.748006,52.170272 80.545998,52.167648 81.344004,52.165045 82.141997,52.162464 82.940003,52.159905 83.737995,52.157368 84.536001,52.154853 85.333994,52.152382 86.131999,52.149910 86.930005,52.147483 87.727998,52.145055 88.526004,52.142671 89.323996,52.140287 90.122002,52.137947 90.919995,52.135607 91.718001,52.133289 92.516006,52.131014 93.313999,52.128739 94.112005,52.126487 94.909997,52.124256 95.708003,52.122047 96.505996,52.119860 97.304002,52.117673 98.101994,52.115529 98.900000,52.113386 99.698006,52.111265 100.495998,52.109165 101.294004,52.107087 102.091997,52.105031 102.890003,52.102975 103.687995,52.100941 104.486001,52.098929 105.283994,52.096939 106.081999,52.094949 106.880005,52.092980 107.677998,52.091034 108.476004,52.089109 109.273996,52.087185 110.072002,52.085282 110.869995,52.083401 111.668001,52.081520 112.466006,52.079661 113.263999,52.077824 114.062005,52.076009 114.859997,52.074193 115.658003,52.072378 116.455996,52.070606 117.254002,52.068835 118.051994,52.067063 118.850000,52.065314 119.648006,52.063586 120.445998,52.061880 121.244004,52.060174 122.041997,52.058468 122.840003,52.056784 123.637995,52.055122 124.436001,52.053460 125.233994,52.051819 126.031999,52.050201 126.830005,52.048582 127.627998,52.046964 128.426004,52.045367 129.223996,52.043793 130.022002,52.042218 130.819995,52.040643 131.618001,52.039090 132.416006,52.037560 133.213999,52.036029 134.012005,52.034519 134.809997,52.033010 135.608003,52.031501 136.405996,52.030036 137.204002,52.028549 138.001994,52.027083 138.800000,52.025640 139.597993,52.024174 140.396011,52.022753 141.194004,52.021331 141.991997,52.019910 142.789990,52.018510 143.588008,52.017110 144.386001,52.015710 145.183994,52.014333 145.982012,52.012977 146.780005,52.011621 147.577998,52.010265 148.375991,52.008909 149.174009,52.007574 149.972002,52.006262 150.769995,52.004950 151.567988,52.003638 152.366006,52.002347 153.163999,52.001057 153.961992,51.999767 154.760010,51.998498 155.558003,51.997230 156.355996,51.995961 157.153989,51.994714 157.952007,51.993490 158.750000,51.992243 159.547993,51.991018 160.346011,51.989793 161.144004,51.988590 161.941997,51.987388 162.739990,51.986185 163.538008,51.985004 164.336001,51.983823 165.133994,51.982642 165.932012,51.981482 166.730005,51.980323 167.527998,51.979164 168.325991,51.978027 169.124009,51.976890 169.922002,51.975752 170.719995,51.974637 171.517988,51.973521 172.316006,51.972406 173.113999,51.971291 173.911992,51.970197 174.710010,51.969103 175.508003,51.968032 176.305996,51.966938 177.103989,51.965867 177.902007,51.964795 178.700000,51.963745 179.497993,51.962695 180.296011,51.961646 181.094004,51.960596 181.891997,51.959568 182.689990,51.958540 183.488008,51.957512 184.286001,51.956484 185.083994,51.955478 185.882012,51.954472 186.680005,51.953466 187.477998,51.952482 188.275991,51.951476 189.074009,51.950491 189.872002,51.949529 190.669995,51.948545 191.467988,51.947582 192.266006,51.946620 193.063999,51.945658 193.861992,51.944717 194.660010,51.943755 195.458003,51.942815 196.255996,51.941874 197.053989,51.940956 197.852007,51.940015 198.650000,51.939097 199.447993,51.938178 200.246011,51.937259 201.044004,51.936363 201.841997,51.935466 202.639990,51.934569 203.438008,51.933673 204.236001,51.932776 205.033994,51.931901 205.832012,51.931026 206.630005,51.930151 207.427998,51.929277 208.225991,51.928402 209.024009,51.927549 209.822002,51.926696 210.619995,51.925843 211.417988,51.924990 212.216006,51.924159 213.013999,51.923306 213.811992,51.922475 214.610010,51.921644 215.408003,51.920812 216.205996,51.920003 217.003989,51.919172 217.802007,51.918363 218.600000,51.917554 219.397993,51.916744 220.196011,51.915957 220.994004,51.915148 221.791997,51.914361 222.589990,51.913573 223.388008,51.912786 224.186001,51.911998 224.983994,51.911211 225.782012,51.910446 226.580005,51.909680 227.377998,51.908915 228.175991,51.908149 228.974009,51.907384 229.772002,51.906618 230.569995,51.905875 231.367988,51.905131 232.166006,51.904387 232.963999,51.903644 233.761992,51.902900 234.560010,51.902157 235.358003,51.901435 236.155996,51.900713 236.953989,51.899991 237.752007,51.899270 238.550000,51.898548 239.347993,51.897826 240.146011,51.897126 240.944004,51.896405 241.741997,51.895705 242.539990,51.895005 243.338008,51.894305 244.136001,51.893605 244.933994,51.892927 245.732012,51.892227 246.530005,51.891549 247.327998,51.890871 248.125991,51.890193 248.924009,51.889515 249.722002,51.888837 250.519995,51.888181 251.317988,51.887503 252.116006,51.886847 252.913999,51.886169 253.711992,51.885513 254.510010,51.884857 255.308003,51.884222 256.105996,51.883566 256.903989,51.882910 257.702007,51.882276 258.500000,51.881642 259.297993,51.881007 260.096011,51.880373 260.894004,51.879739 261.691997,51.879105 262.489990,51.878470 263.288008,51.877858 264.086001,51.877224 264.883994,51.876611 265.682012,51.875999 266.480005,51.875387 267.277998,51.874774 268.075991,51.874162 268.874009,51.873549 269.672002,51.872959 270.469995,51.872346 271.267988,51.871756 272.066006,51.871165 272.863999,51.870575 273.661992,51.869984 274.460010,51.869394 275.258003,51.868803 276.055996,51.868213 276.853989,51.867644 277.652007,51.867054 278.450000,51.866485 279.247993,51.865916 280.046011,51.865348 280.844004,51.864779 281.641997,51.864211 282.439990,51.863642 283.238008,51.863073 284.036001,51.862526 284.833994,51.861958 285.632012,51.861411 286.430005,51.860864 287.227998,51.860296 288.025991,51.859749 288.824009,51.859202 289.622002,51.858655 290.419995,51.858130 291.217988,51.857584 292.016006,51.857037 292.813999,51.856512 293.611992,51.855987 294.410010,51.855440 295.208003,51.854915 296.005996,51.854390 296.803989,51.853866 297.602007,51.853341 298.400000,51.852816 299.197993,51.852313 299.996011,51.851788 300.794004,51.851263 301.591997,51.850760 302.389990,51.850257 303.188008,51.849732 303.986001,51.849229 304.783994,51.848726 305.582012,51.848223 306.380005,51.847720 307.177998,51.847217 307.975991,51.846736 308.774009,51.846233 309.572002,51.845730 310.369995,51.845248 311.167988,51.844767 311.966006,51.844264 312.763999,51.843783 313.561992,51.843302 314.360010,51.842821 315.158003,51.842340 315.955996,51.841858 316.753989,51.841377 317.552007,51.840918 318.350000,51.840437 319.147993,51.839956 319.946011,51.839496 320.744004,51.839015 321.541997,51.838556 322.339990,51.838097 323.138008,51.837637 323.936001,51.837178 324.733994,51.836719 325.532012,51.836259 326.330005,51.835800 327.127998,51.835341 327.925991,51.834882 328.724009,51.834444 329.522002,51.833985 330.319995,51.833547 331.117988,51.833088 331.916006,51.832651 332.713999,51.832191 333.511992,51.831754 334.310010,51.831317 335.108003,51.830879 335.905996,51.830442 336.703989,51.830004 337.502007,51.829567 338.300000,51.829151 339.097993,51.828714 339.896011,51.828277 340.694004,51.827861 341.491997,51.827424 342.289990,51.827008 343.088008,51.826571 343.886001,51.826155 344.683994,51.825740 345.482012,51.825324 346.280005,51.824908 347.077998,51.824493 347.875991,51.824077 348.674009,51.823662 349.472002,51.823246 350.269995,51.822831 351.067988,51.822415 351.866006,51.822021 352.664024,51.821606 353.461992,51.821212 354.260010,51.820797 355.057978,51.820403 355.855996,51.819987 356.654014,51.819594 357.451982,51.819200 358.250000,51.818806 359.048018,51.818413 359.845986,51.818019 360.644004,51.817625 361.442022,51.817232 362.239990,51.816838 363.038008,51.816444 363.835976,51.816073 364.633994,51.815679 365.432012,51.815285 366.229980,51.814913 367.027998,51.814520 367.826016,51.814148 368.623984,51.813754 369.422002,51.813382 370.220020,51.813011 371.017988,51.812639 371.816006,51.812245 372.614024,51.811873 373.411992,51.811502 374.210010,51.811130 375.007978,51.810758 375.805996,51.810408 376.604014,51.810036 377.401982,51.809664 378.200000,51.809293 378.998018,51.808943 379.795986,51.808571 380.594004,51.808199 381.392022,51.807849 382.189990,51.807477 382.988008,51.807127 383.785976,51.806777 384.583994,51.806406 385.382012,51.806056 386.179980,51.805706 386.977998,51.805356 387.776016,51.805006 388.573984,51.804656 389.372002,51.804306 390.170020,51.803956 390.967988,51.803606 391.766006,51.803256 392.564024,51.802906 393.361992,51.802578 394.160010,51.802228 394.957978,51.801878 395.755996,51.801550 396.554014,51.801200 397.351982,51.800872 398.150000,51.800522 398.948018,51.800194 399.745986,51.799844 400.544004,51.799516 401.342022,51.799188 402.139990,51.798860 402.938008,51.798510 403.735976,51.798182 404.533994,51.797854 405.332012,51.797526 406.129980,51.797198 406.927998,51.796870 407.726016,51.796542 408.523984,51.796214 409.322002,51.795908 410.120020,51.795580 410.917988,51.795251 411.716006,51.794923 412.514024,51.794617 413.311992,51.794289 414.110010,51.793983 414.907978,51.793655 415.705996,51.793349 416.504014,51.793021 417.301982,51.792714 418.100000,51.792408 418.898018,51.792080 419.695986,51.791774 420.494004,51.791468 421.292022,51.791162 422.089990,51.790855 422.888008,51.790527 423.685976,51.790221 424.483994,51.789915 425.282012,51.789609 426.079980,51.789303 426.877998,51.789018 427.676016,51.788712 428.473984,51.788406 429.272002,51.788100 430.070020,51.787793 430.867988,51.787509 431.666006,51.787203 432.464024,51.786919 433.261992,51.786612 434.060010,51.786306 434.857978,51.786022 435.655996,51.785716 436.454014,51.785431 437.251982,51.785147 438.050000,51.784841 438.848018,51.784557 439.645986,51.784272 440.444004,51.783988 441.242022,51.783682 442.039990,51.783397 442.838008,51.783113 443.635976,51.782829 444.433994,51.782544 445.232012,51.782260 446.029980,51.781976 446.827998,51.781691 447.626016,51.781407 448.423984,51.781123 449.222002,51.780839 450.020020,51.780576 450.817988,51.780292 451.616006,51.780007 452.414024,51.779745 453.211992,51.779461 454.010010,51.779176 454.807978,51.778914 455.605996,51.778630 456.404014,51.778367 457.201982,51.778083 458.000000,51.777820 458.000000,51.777820"/>
</svg>
