<?xml version="1.0" standalone="no"?>
<!DOCTYPE svg PUBLIC "-//W3C//DTD SVG 1.1//EN" "http://www.w3.org/Graphics/SVG/1.1/DTD/svg11.dtd">
<svg viewBox="0 0 584.000000 408.000000" version="1.1" xmlns="http://www.w3.org/2000/svg" xmlns:xlink="http://www.w3.org/1999/xlink">
	<polyline fill="none" stroke="rgb(229,229,229)" stroke-width="1" stroke-opacity="1" points="110.000000,54.000000 110.000000,369.000000"/>
	<polyline fill="none" stroke="rgb(229,229,229)" stroke-width="1" stroke-opacity="1" points="153.500000,54.000000 153.500000,369.000000"/>
	<polyline fill="none" stroke="rgb(229,229,229)" stroke-width="1" stroke-opacity="1" points="197.000000,54.000000 197.000000,369.000000"/>
	<polyline fill="none" stroke="rgb(229,229,229)" stroke-width="1" stroke-opacity="1" points="240.500000,54.000000 240.500000,369.000000"/>
	<polyline fill="none" stroke="rgb(229,229,229)" stroke-width="1" stroke-opacity="1" points="284.000000,54.000000 284.000000,369.000000"/>
	<polyline fill="none" stroke="rgb(229,229,229)" stroke-width="1" stroke-opacity="1" points="327.500000,54.000000 327.500000,369.000000"/>
	<polyline fill="none" stroke="rgb(229,229,229)" stroke-width="1" stroke-opacity="1" points="371.000000,54.000000 371.000000,369.000000"/>
	<polyline fill="none" stroke="rgb(229,229,229)" stroke-width="1" stroke-opacity="1" points="414.500000,54.000000 414.500000,369.000000"/>
	<polyline fill="none" stroke="rgb(229,229,229)" stroke-width="1" stroke-opacity="1" points="458.000000,54.000000 458.000000,369.000000"/>
	<polyline fill="none" stroke="rgb(229,229,229)" stroke-width="1" stroke-opacity="1" points="501.500000,54.000000 501.500000,369.000000"/>
	<polyline fill="none" stroke="rgb(229,229,229)" stroke-width="1" stroke-opacity="1" points="545.000000,54.000000 545.000000,369.000000"/>
	<polyline fill="none" stroke="rgb(229,229,229)" stroke-width="1" stroke-opacity="1" points="110.000000,369.000000 545.000000,369.000000"/>
	<polyline fill="none" stroke="rgb(229,229,229)" stroke-width="1" stroke-opacity="1" points="110.000000,316.500000 545.000000,316.500000"/>
	<polyline fill="none" stroke="rgb(229,229,229)" stroke-width="1" stroke-opacity="1" points="110.000000,264.000000 545.000000,264.000000"/>
	<polyline fill="none" stroke="rgb(229,229,229)" stroke-width="1" stroke-opacity="1" points="110.000000,211.500000 545.000000,211.500000"/>
	<polyline fill="none" stroke="rgb(229,229,229)" stroke-width="1" stroke-opacity="1" points="110.000000,159.000000 545.000000,159.000000"/>
	<polyline fill="none" stroke="rgb(229,229,229)" stroke-width="1" stroke-opacity="1" points="110.000000,106.500000 545.000000,106.500000"/>
	<polyline fill="none" stroke="rgb(229,229,229)" stroke-width="1" stroke-opacity="1" points="110.000000,54.000000 545.000000,54.000000"/>
	<polyline fill="none" stroke="rgb(0,0,0)" stroke-width="1" stroke-opacity="1" points="110.000000,369.000000 545.000000,369.000000"/>
	<polyline fill="none" stroke="rgb(0,0,0)" stroke-width="1" stroke-opacity="1" points="545.000000,369.000000 545.000000,54.000000"/>
	<polyline fill="none" stroke="rgb(0,0,0)" stroke-width="1" stroke-opacity="1" points="545.000000,54.000000 110.000000,54.000000"/>
	<polyline fill="none" stroke="rgb(0,0,0)" stroke-width="1" stroke-opacity="1" points="110.000000,54.000000 110.000000,369.000000"/>
	<polyline fill="none" stroke="rgb(0,0,0)" stroke-width="1" stroke-opacity="1" points="110.000000,369.000000 110.000000,375.000000"/>
	<polyline fill="none" stroke="rgb(0,0,0)" stroke-width="1" stroke-opacity="1" points="153.500000,369.000000 153.500000,375.000000"/>
	<polyline fill="none" stroke="rgb(0,0,0)" stroke-width="1" stroke-opacity="1" points="197.000000,369.000000 197.000000,375.000000"/>
	<polyline fill="none" stroke="rgb(0,0,0)" stroke-width="1" stroke-opacity="1" points="240.500000,369.000000 240.500000,375.000000"/>
	<polyline fill="none" stroke="rgb(0,0,0)" stroke-width="1" stroke-opacity="1" points="284.000000,369.000000 284.000000,375.000000"/>
	<polyline fill="none" stroke="rgb(0,0,0)" stroke-width="1" stroke-opacity="1" points="327.500000,369.000000 327.500000,375.000000"/>
	<polyline fill="none" stroke="rgb(0,0,0)" stroke-width="1" stroke-opacity="1" points="371.000000,369.000000 371.000000,375.000000"/>
	<polyline fill="none" stroke="rgb(0,0,0)" stroke-width="1" stroke-opacity="1" points="414.500000,369.000000 414.500000,375.000000"/>
	<polyline fill="none" stroke="rgb(0,0,0)" stroke-width="1" stroke-opacity="1" points="458.000000,369.000000 458.000000,375.000000"/>
	<polyline fill="none" stroke="rgb(0,0,0)" stroke-width="1" stroke-opacity="1" points="501.500000,369.000000 501.500000,375.000000"/>
	<polyline fill="none" stroke="rgb(0,0,0)" stroke-width="1" stroke-opacity="1" points="545.000000,369.000000 545.000000,375.000000"/>
	<polyline fill="none" stroke="rgb(0,0,0)" stroke-width="1" stroke-opacity="1" points="110.000000,369.000000 110.000000,378.600000"/>
	<text x="110" y="392.5" fill="rgb(0,0,0)" dominant-baseline="central" font-size="14" font-family="Arial" text-anchor="middle">0.0</text>
	<polyline fill="none" stroke="rgb(0,0,0)" stroke-width="1" stroke-opacity="1" points="327.500000,369.000000 327.500000,378.600000"/>
	<text x="327.5" y="392.5" fill="rgb(0,0,0)" dominant-baseline="central" font-size="14" font-family="Arial" text-anchor="middle">0.5</text>
	<polyline fill="none" stroke="rgb(0,0,0)" stroke-width="1" stroke-opacity="1" points="545.000000,369.000000 545.000000,378.600000"/>
	<text x="545" y="392.5" fill="rgb(0,0,0)" dominant-baseline="central" font-size="14" font-family="Arial" text-anchor="middle">1.0</text>
	<polyline fill="none" stroke="rgb(0,0,0)" stroke-width="1" stroke-opacity="1" points="104.000000,369.000000 110.000000,369.000000"/>
	<polyline fill="none" stroke="rgb(0,0,0)" stroke-width="1" stroke-opacity="1" points="104.000000,316.500000 110.000000,316.500000"/>
	<polyline fill="none" stroke="rgb(0,0,0)" stroke-width="1" stroke-opacity="1" points="104.000000,264.000000 110.000000,264.000000"/>
	<polyline fill="none" stroke="rgb(0,0,0)" stroke-width="1" stroke-opacity="1" points="104.000000,211.500000 110.000000,211.500000"/>
	<polyline fill="none" stroke="rgb(0,0,0)" stroke-width="1" stroke-opacity="1" points="104.000000,159.000000 110.000000,159.000000"/>
	<polyline fill="none" stroke="rgb(0,0,0)" stroke-width="1" stroke-opacity="1" points="104.000000,106.500000 110.000000,106.500000"/>
	<polyline fill="none" stroke="rgb(0,0,0)" stroke-width="1" stroke-opacity="1" points="104.000000,54.000000 110.000000,54.000000"/>
	<rect fill="none" stroke="none" stroke-dasharray="none" stroke-width="1" stroke-opacity="1" x="20" y="358" width="78" height="22"/>
	<polyline fill="none" stroke="rgb(0,0,0)" stroke-width="1" stroke-opacity="1" points="100.400000,369.000000 110.000000,369.000000"/>
	<text x="98" y="369" fill="rgb(0,0,0)" dominant-baseline="central" font-size="14" font-family="Arial" text-anchor="end">0.0</text>
	<polyline fill="none" stroke="rgb(0,0,0)" stroke-width="1" stroke-opacity="1" points="100.400000,316.500000 110.000000,316.500000"/>
	<text x="98" y="316.5" fill="rgb(0,0,0)" dominant-baseline="central" font-size="14" font-family="Arial" text-anchor="end">0.5</text>
	<polyline fill="none" stroke="rgb(0,0,0)" stroke-width="1" stroke-opacity="1" points="100.400000,264.000000 110.000000,264.000000"/>
	<text x="98" y="264" fill="rgb(0,0,0)" dominant-baseline="central" font-size="14" font-family="Arial" text-anchor="end">1.0</text>
	<polyline fill="none" stroke="rgb(0,0,0)" stroke-width="1" stroke-opacity="1" points="100.400000,211.500000 110.000000,211.500000"/>
	<text x="98" y="211.5" fill="rgb(0,0,0)" dominant-baseline="central" font-size="14" font-family="Arial" text-anchor="end">1.5</text>
	<polyline fill="none" stroke="rgb(0,0,0)" stroke-width="1" stroke-opacity="1" points="100.400000,159.000000 110.000000,159.000000"/>
	<text x="98" y="159" fill="rgb(0,0,0)" dominant-baseline="central" font-size="14" font-family="Arial" text-anchor="end">2.0</text>
	<polyline fill="none" stroke="rgb(0,0,0)" stroke-width="1" stroke-opacity="1" points="100.400000,106.500000 110.000000,106.500000"/>
	<text x="98" y="106.5" fill="rgb(0,0,0)" dominant-baseline="central" font-size="14" font-family="Arial" text-anchor="end">2.5</text>
	<polyline fill="none" stroke="rgb(0,0,0)" stroke-width="1" stroke-opacity="1" points="100.400000,54.000000 110.000000,54.000000"/>
	<text x="98" y="54" fill="rgb(0,0,0)" dominant-baseline="central" font-size="14" font-family="Arial" text-anchor="end">3.0</text>
	<text x="19.5" y="211.5" fill="rgb(0,0,0)" dominant-baseline="central" transform="rotate(-90 19.5,211.5)" font-size="14" font-family="Arial" text-anchor="middle">[s]</text>
	<rect fill="rgb(255,255,255)" stroke="none" stroke-opacity="0.7" x="110" y="22" width="241" height="19"/>
	<polyline fill="none" stroke="rgb(28,108,200)" stroke-width="1" stroke-opacity="1" points="110.000000,38.000000 140.000000,38.000000"/>
	<text x="145" y="38" fill="rgb(0,0,0)" dominant-baseline="central" font-size="14" font-family="Arial" text-anchor="start">CPUtime</text>
	<polyline fill="none" stroke="rgb(0,140,72)" stroke-width="1" stroke-opacity="1" points="232.000000,38.000000 262.000000,38.000000"/>
	<text x="267" y="38" fill="rgb(0,0,0)" dominant-baseline="central" font-size="14" font-family="Arial" text-anchor="start">CPUtime</text>
	<polyline fill="none" stroke="rgb(238,46,47)" stroke-width="1" stroke-opacity="1" points="354.000000,38.000000 384.000000,38.000000"/>
	<text x="389" y="38" fill="rgb(0,0,0)" dominant-baseline="central" font-size="14" font-family="Arial" text-anchor="start">CPUtime</text>
	<clipPath id="clipArea1">
		<rect x="110" y="54" width="435" height="315">
		</rect>
	</clipPath>
	<polyline fill="none" stroke="rgb(28,108,200)" stroke-width="1" stroke-opacity="1" clip-path="url(#clipArea1)" points="110.000000,353.880001 110.870000,353.880001 111.740000,353.880001 112.610000,353.775000 113.480000,353.775000 114.350000,353.775000 115.220000,353.775000 116.090000,353.775000 116.960000,353.775000 117.830000,353.775000 118.700000,353.775000 119.570000,353.775000 120.440000,353.775000 121.310000,353.775000 122.180000,353.775000 123.050000,353.775000 123.920001,353.775000 124.790001,353.670000 125.659999,353.670000 126.529999,353.670000 127.400000,353.670000 128.270000,353.670000 129.140000,353.670000 130.010000,353.670000 130.880000,353.670000 131.750000,353.670000 132.620000,353.670000 133.490001,353.670000 134.360001,353.670000 135.229999,353.670000 136.099999,353.565000 136.970000,353.565000 137.840001,353.565000 138.710000,353.565000 139.580002,353.565000 140.450000,353.565000 141.319999,353.565000 142.190000,353.565000 143.059999,353.565000 143.930001,353.565000 144.799999,353.565000 145.670001,353.565000 146.540000,353.565000 147.410001,353.460000 148.280000,353.460000 149.150002,353.460000 150.020000,353.460000 150.889999,353.460000 151.760000,353.460000 152.629999,353.460000 153.500001,353.460000 154.369999,353.460000 155.240001,353.460000 156.109999,353.460000 156.980001,353.460000 157.850000,353.460000 158.720002,353.355000 159.590000,353.355000 160.459999,353.355000 161.330000,353.355000 162.199999,353.355000 163.070001,353.355000 163.939999,353.355000 164.810001,353.355000 165.680003,353.355000 166.549998,353.355000 167.420000,353.355000 168.290001,353.355000 169.160003,353.355000 170.029998,353.355000 170.900000,353.249999 171.770002,353.249999 172.639997,353.249999 173.509999,353.249999 174.380001,353.249999 175.250003,353.249999 176.119998,353.249999 176.990000,353.249999 177.860001,353.249999 178.730003,353.249999 179.599998,353.249999 180.470000,353.249999 181.340002,353.249999 182.209997,353.145001 183.079999,353.145001 183.950001,353.145001 184.820003,353.145001 185.689998,353.145001 186.560000,353.145001 187.430001,353.145001 188.300003,353.145001 189.169998,353.145001 190.040000,353.145001 190.910002,353.145001 191.779997,353.145001 192.649999,353.145001 193.520001,353.040001 194.390002,353.040001 195.259998,353.040001 196.130000,353.040001 197.000001,353.040001 197.870003,353.040001 198.739998,353.040001 199.610000,353.040001 200.480002,353.040001 201.349997,353.040001 202.219999,353.040001 203.090001,353.040001 203.960002,353.040001 204.829998,352.935000 205.699999,352.935000 206.570001,352.935000 207.440003,352.935000 208.309998,352.935000 209.180000,352.935000 210.050002,352.935000 210.919997,352.935000 211.789999,352.935000 212.660001,352.935000 213.530002,352.935000 214.399998,352.935000 215.269999,352.935000 216.140001,352.935000 217.010003,352.830000 217.879998,352.830000 218.750000,352.830000 219.620002,352.830000 220.490004,352.830000 221.360005,352.830000 222.229994,352.830000 223.099996,352.830000 223.969998,352.830000 224.839999,352.830000 225.710001,352.830000 226.580003,352.830000 227.450005,352.830000 228.320006,352.725000 229.189995,352.725000 230.059997,352.725000 230.929999,352.725000 231.800001,352.725000 232.670002,352.725000 233.540004,352.725000 234.410006,352.725000 235.279995,352.725000 236.149996,352.725000 237.019998,352.725000 237.890000,352.725000 238.760002,352.725000 239.630003,352.620000 240.500005,352.620000 241.369994,352.620000 242.239996,352.620000 243.109998,352.620000 243.979999,352.620000 244.850001,352.620000 245.720003,352.620000 246.590005,352.620000 247.460006,352.620000 248.329995,352.620000 249.199997,352.620000 250.069999,352.620000 250.940000,352.620000 251.810002,352.514999 252.680004,352.514999 253.550006,352.514999 254.419995,352.514999 255.289996,352.514999 256.159998,352.514999 257.030000,352.514999 257.900002,352.514999 258.770003,352.514999 259.640005,352.514999 260.509994,352.409999 261.379996,352.409999 262.249997,352.409999 263.119999,352.409999 263.990001,352.409999 264.860003,352.409999 265.730004,352.409999 266.600006,352.409999 267.469995,352.409999 268.339997,352.409999 269.209999,352.409999 270.080000,352.409999 270.950002,352.409999 271.820004,352.305001 272.690006,352.305001 273.559994,352.305001 274.429996,352.305001 275.299998,352.305001 276.170000,352.305001 277.040001,352.305001 277.910003,352.305001 278.780005,352.305001 279.649994,352.305001 280.519996,352.305001 281.389997,352.305001 282.259999,352.305001 283.130001,352.200000 284.000003,352.200000 284.870004,352.200000 285.740006,352.200000 286.609995,352.200000 287.479997,352.200000 288.349998,352.200000 289.220000,352.200000 290.090002,352.200000 290.960004,352.200000 291.830005,352.200000 292.699994,352.200000 293.569996,352.200000 294.439998,352.095000 295.310000,352.095000 296.180001,352.095000 297.050003,352.095000 297.920005,352.095000 298.789994,352.095000 299.659995,352.095000 300.529997,352.095000 301.399999,352.095000 302.270001,352.095000 303.140002,352.095000 304.010004,352.095000 304.880006,352.095000 305.749995,352.095000 306.619997,351.990000 307.489998,351.990000 308.360000,351.990000 309.230002,351.990000 310.100004,351.990000 310.970005,351.990000 311.839994,351.990000 312.709996,351.990000 313.579998,351.990000 314.449999,351.990000 315.320001,351.990000 316.190003,351.990000 317.060005,351.885000 317.929994,351.885000 318.799995,351.885000 319.669997,351.885000 320.539999,351.885000 321.410001,351.885000 322.280002,351.885000 323.150004,351.885000 324.020006,351.885000 324.889995,351.885000 325.759996,351.885000 326.629998,351.885000 327.500000,351.885000 328.369989,351.780000 329.240004,351.780000 330.109992,351.780000 330.980007,351.780000 331.849996,351.780000 332.720011,351.780000 333.589999,351.780000 334.459988,351.780000 335.330003,351.780000 336.199992,351.780000 337.070006,351.780000 337.939995,351.780000 338.810010,351.780000 339.679999,351.674999 340.549988,351.674999 341.420002,351.674999 342.289991,351.674999 343.160006,351.674999 344.029995,351.674999 344.900009,351.674999 345.769998,351.674999 346.640013,351.674999 347.510002,351.674999 348.379990,351.674999 349.250005,351.674999 350.119994,351.570001 350.990009,351.570001 351.859998,351.570001 352.730012,351.570001 353.600001,351.570001 354.469990,351.570001 355.340005,351.570001 356.209993,351.570001 357.080008,351.570001 357.949997,351.570001 358.820012,351.570001 359.690000,351.570001 360.559989,351.570001 361.430004,351.465000 362.299993,351.465000 363.170007,351.465000 364.039996,351.465000 364.910011,351.465000 365.780000,351.465000 366.649989,351.465000 367.520003,351.465000 368.389992,351.465000 369.260007,351.465000 370.129996,351.465000 371.000010,351.465000 371.869999,351.360000 372.739988,351.360000 373.610003,351.360000 374.479991,351.360000 375.350006,351.360000 376.219995,351.360000 377.090010,351.360000 377.959999,351.360000 378.829987,351.360000 379.700002,351.360000 380.569991,351.360000 381.440006,351.360000 382.309994,351.360000 383.180009,351.255000 384.049998,351.255000 384.920013,351.255000 385.790001,351.255000 386.659990,351.255000 387.530005,351.255000 388.399994,351.255000 389.270009,351.255000 390.139997,351.255000 391.010012,351.255000 391.880001,351.255000 392.749990,351.255000 393.620004,351.150000 394.489993,351.150000 395.360008,351.150000 396.229997,351.150000 397.100011,351.150000 397.970000,351.150000 398.839989,351.150000 399.710004,351.150000 400.579993,351.150000 401.450007,351.150000 402.319996,351.150000 403.190011,351.150000 404.060000,351.045000 404.929988,351.045000 405.800003,351.045000 406.669992,351.045000 407.540007,351.045000 408.409995,351.045000 409.280010,351.045000 410.149999,351.045000 411.019988,351.045000 411.890002,351.045000 412.759991,351.045000 413.630006,351.045000 414.499995,351.045000 415.370010,350.939999 416.239998,350.939999 417.109987,350.939999 417.980002,350.939999 418.849991,350.939999 419.720005,350.939999 420.589994,350.939999 421.460009,350.939999 422.329998,350.939999 423.200012,350.939999 424.070001,350.939999 424.939990,350.939999 425.810005,350.835001 426.679994,350.835001 427.550008,350.835001 428.419997,350.835001 429.290012,350.835001 430.160001,350.835001 431.029989,350.835001 431.900004,350.835001 432.769993,350.835001 433.640008,350.835001 434.509996,350.835001 435.380011,350.835001 436.250000,350.835001 437.119989,350.730001 437.990004,350.730001 438.859992,350.730001 439.730007,350.730001 440.599996,350.730001 441.470011,350.730001 442.339999,350.730001 443.209988,350.730001 444.080003,350.730001 444.949992,350.625000 445.820006,350.625000 446.689995,350.625000 447.560010,350.625000 448.429999,350.625000 449.299988,350.625000 450.170002,350.625000 451.039991,350.625000 451.910006,350.625000 452.779995,350.625000 453.650009,350.625000 454.519998,350.625000 455.390013,350.520000 456.260002,350.520000 457.129990,350.520000 458.000005,350.520000 458.869994,350.520000 459.740009,350.520000 460.609998,350.520000 461.480012,350.520000 462.350001,350.520000 463.219990,350.520000 464.090005,350.520000 464.959993,350.520000 465.830008,350.520000 466.699997,350.415000 467.570012,350.415000 468.440000,350.415000 469.309989,350.415000 470.180004,350.415000 471.049993,350.415000 471.920007,350.415000 472.789996,350.415000 473.660011,350.415000 474.530000,350.415000 475.399989,350.415000 476.270003,350.415000 477.139992,350.310000 478.010007,350.310000 478.879996,350.310000 479.750010,350.310000 480.619999,350.310000 481.489988,350.310000 482.360003,350.310000 483.229991,350.310000 484.100006,350.310000 484.969995,350.310000 485.840010,350.310000 486.709999,350.310000 487.579987,350.204999 488.450002,350.204999 489.319991,350.204999 490.190006,350.204999 491.059994,350.204999 491.930009,350.204999 492.799998,350.204999 493.670013,350.204999 494.540001,350.204999 495.409990,350.204999 496.280005,350.204999 497.149994,350.204999 498.020009,350.204999 498.889997,350.099999 499.760012,350.099999 500.630001,350.099999 501.499990,350.099999 502.370004,350.099999 503.239993,350.099999 504.110008,350.099999 504.979997,350.099999 505.850011,350.099999 506.720000,350.099999 507.589989,350.099999 508.460004,350.099999 509.329993,349.995001 510.200007,349.995001 511.069996,349.995001 511.940011,349.995001 512.810000,349.995001 513.679988,349.995001 514.550003,349.995001 515.419992,349.995001 516.290007,349.995001 517.159995,349.995001 518.030010,349.995001 518.899999,349.995001 519.769988,349.995001 520.640002,349.890000 521.509991,349.890000 522.380006,349.890000 523.249995,349.890000 524.120010,349.890000 524.989998,349.890000 525.859987,349.890000 526.730002,349.890000 527.599991,349.890000 528.470005,349.890000 529.339994,349.890000 530.210009,349.890000 531.079998,349.785000 531.950012,349.785000 532.820001,349.785000 533.689990,349.785000 534.560005,349.785000 535.429994,349.785000 536.300008,349.785000 537.169997,349.785000 538.040012,349.785000 538.910001,349.785000 539.779989,349.785000 540.650004,349.785000 541.519993,349.785000 542.390008,349.680000 543.259996,349.680000 544.130011,349.680000 545.000000,349.680000 545.000000,349.680000"/>
	<polyline fill="none" stroke="rgb(0,140,72)" stroke-width="1" stroke-opacity="1" clip-path="url(#clipArea1)" points="110.000000,206.879997 110.870000,206.775005 111.740000,206.670000 112.610000,206.670000 113.480000,206.564995 114.350000,206.564995 115.220000,206.460002 116.090000,206.460002 116.960000,206.460002 117.830000,205.620001 118.700000,205.620001 119.570000,205.514996 120.440000,205.514996 121.310000,205.514996 122.180000,205.410003 123.050000,205.410003 123.920001,205.304998 124.790001,205.304998 125.659999,205.304998 126.529999,205.200006 127.400000,205.200006 128.270000,205.200006 129.140000,205.095001 130.010000,205.095001 130.880000,205.095001 131.750000,204.989996 132.620000,204.989996 133.490001,204.885004 134.360001,204.885004 135.229999,204.779999 136.099999,204.674994 136.970000,204.674994 137.840001,204.570002 138.710000,204.570002 139.580002,204.570002 140.450000,204.464997 141.319999,204.464997 142.190000,204.464997 143.059999,204.360004 143.930001,204.360004 144.799999,204.360004 145.670001,204.254999 146.540000,204.254999 147.410001,204.254999 148.280000,204.149994 149.150002,204.149994 150.020000,204.149994 150.889999,204.045002 151.760000,204.045002 152.629999,203.939997 153.500001,203.939997 154.369999,203.939997 155.240001,203.835005 156.109999,203.835005 156.980001,203.835005 157.850000,203.730000 158.720002,203.730000 159.590000,203.624995 160.459999,203.624995 161.330000,203.624995 162.199999,203.520003 163.070001,203.520003 163.939999,203.520003 164.810001,203.414998 165.680003,203.414998 166.549998,203.414998 167.420000,203.310005 168.290001,203.310005 169.160003,203.310005 170.029998,203.205000 170.900000,203.205000 171.770002,203.099995 172.639997,203.099995 173.509999,203.099995 174.380001,202.995003 175.250003,202.995003 176.119998,202.995003 176.990000,202.889998 177.860001,202.889998 178.730003,202.889998 179.599998,202.785006 180.470000,202.785006 181.340002,202.680001 182.209997,202.680001 183.079999,202.680001 183.950001,202.574996 184.820003,202.574996 185.689998,202.574996 186.560000,202.470004 187.430001,202.470004 188.300003,202.470004 189.169998,202.364999 190.040000,202.364999 190.910002,202.364999 191.779997,202.259994 192.649999,202.259994 193.520001,202.259994 194.390002,202.155001 195.259998,202.155001 196.130000,202.155001 197.000001,202.049996 197.870003,202.049996 198.739998,202.049996 199.610000,201.945004 200.480002,201.945004 201.349997,201.839999 202.219999,201.734994 203.090001,201.734994 203.960002,201.630002 204.829998,201.524997 205.699999,201.524997 206.570001,201.420005 207.440003,201.420005 208.309998,201.420005 209.180000,201.315000 210.050002,201.315000 210.919997,201.209995 211.789999,201.209995 212.660001,201.209995 213.530002,201.105002 214.399998,201.105002 215.269999,201.105002 216.140001,200.999997 217.010003,200.999997 217.879998,200.999997 218.750000,200.895005 219.620002,200.895005 220.490004,200.895005 221.360005,200.790000 222.229994,200.790000 223.099996,200.790000 223.969998,200.684995 224.839999,200.684995 225.710001,200.580003 226.580003,200.580003 227.450005,200.580003 228.320006,200.474998 229.189995,200.474998 230.059997,200.474998 230.929999,200.370006 231.800001,200.370006 232.670002,200.265001 233.540004,200.265001 234.410006,200.265001 235.279995,200.159996 236.149996,200.159996 237.019998,200.055003 237.890000,200.055003 238.760002,200.055003 239.630003,199.949998 240.500005,199.949998 241.369994,199.845006 242.239996,199.845006 243.109998,199.740001 243.979999,199.740001 244.850001,199.740001 245.720003,199.634996 246.590005,199.634996 247.460006,199.530004 248.329995,199.530004 249.199997,199.530004 250.069999,199.424999 250.940000,199.424999 251.810002,199.424999 252.680004,199.319994 253.550006,199.319994 254.419995,199.319994 255.289996,199.215002 256.159998,199.215002 257.030000,199.215002 257.900002,199.109997 258.770003,199.109997 259.640005,199.109997 260.509994,199.005004 261.379996,199.005004 262.249997,199.005004 263.119999,198.899999 263.990001,198.899999 264.860003,198.899999 265.730004,198.794995 266.600006,198.794995 267.469995,198.794995 268.339997,198.690002 269.209999,198.690002 270.080000,198.690002 270.950002,198.584997 271.820004,198.584997 272.690006,198.584997 273.559994,198.480005 274.429996,198.480005 275.299998,198.480005 276.170000,198.375000 277.040001,198.375000 277.910003,198.375000 278.780005,198.269995 279.649994,198.269995 280.519996,198.269995 281.389997,198.165003 282.259999,198.165003 283.130001,198.165003 284.000003,198.059998 284.870004,198.059998 285.740006,198.059998 286.609995,197.955005 287.479997,197.955005 288.349998,197.850001 289.220000,197.850001 290.090002,197.850001 290.960004,197.744996 291.830005,197.744996 292.699994,197.744996 293.569996,197.640003 294.439998,197.640003 295.310000,197.640003 296.180001,197.534998 297.050003,197.534998 297.920005,197.534998 298.789994,197.430006 299.659995,197.430006 300.529997,197.430006 301.399999,197.325001 302.270001,197.325001 303.140002,197.219996 304.010004,197.219996 304.880006,197.115004 305.749995,197.115004 306.619997,197.115004 307.489998,197.009999 308.360000,197.009999 309.230002,196.904994 310.100004,196.904994 310.970005,196.904994 311.839994,196.800002 312.709996,196.800002 313.579998,196.694997 314.449999,196.694997 315.320001,196.694997 316.190003,196.590004 317.060005,196.590004 317.929994,196.590004 318.799995,196.484999 319.669997,196.484999 320.539999,196.484999 321.410001,196.379994 322.280002,196.379994 323.150004,196.379994 324.020006,196.275002 324.889995,196.275002 325.759996,196.275002 326.629998,196.169997 327.500000,196.169997 328.369989,196.169997 329.240004,196.065005 330.109992,196.065005 330.980007,195.960000 331.849996,195.960000 332.720011,195.960000 333.589999,195.854995 334.459988,195.854995 335.330003,195.854995 336.199992,195.750003 337.070006,195.750003 337.939995,195.750003 338.810010,195.644998 339.679999,195.644998 340.549988,195.644998 341.420002,195.540005 342.289991,195.540005 343.160006,195.435000 344.029995,195.435000 344.900009,195.329995 345.769998,195.329995 346.640013,195.329995 347.510002,195.225003 348.379990,195.225003 349.250005,195.119998 350.119994,195.119998 350.990009,195.119998 351.859998,195.015006 352.730012,195.015006 353.600001,195.015006 354.469990,194.910001 355.340005,194.910001 356.209993,194.910001 357.080008,194.804996 357.949997,194.804996 358.820012,194.804996 359.690000,194.700004 360.559989,194.700004 361.430004,194.700004 362.299993,194.594999 363.170007,194.594999 364.039996,194.594999 364.910011,194.490006 365.780000,194.490006 366.649989,194.490006 367.520003,194.385001 368.389992,194.385001 369.260007,194.279996 370.129996,194.279996 371.000010,194.279996 371.869999,194.175004 372.739988,194.175004 373.610003,194.175004 374.479991,194.069999 375.350006,194.069999 376.219995,194.069999 377.090010,193.964994 377.959999,193.964994 378.829987,193.964994 379.700002,193.860002 380.569991,193.860002 381.440006,193.754997 382.309994,193.754997 383.180009,193.754997 384.049998,193.650005 384.920013,193.650005 385.790001,193.650005 386.659990,193.545000 387.530005,193.545000 388.399994,193.545000 389.270009,193.439995 390.139997,193.439995 391.010012,193.335002 391.880001,193.335002 392.749990,193.335002 393.620004,193.229997 394.489993,193.229997 395.360008,193.229997 396.229997,193.125005 397.100011,193.125005 397.970000,193.125005 398.839989,193.020000 399.710004,193.020000 400.579993,193.020000 401.450007,192.914995 402.319996,192.914995 403.190011,192.914995 404.060000,192.810003 404.929988,192.810003 405.800003,192.810003 406.669992,192.704998 407.540007,192.704998 408.409995,192.704998 409.280010,192.600006 410.149999,192.600006 411.019988,192.495001 411.890002,192.495001 412.759991,192.389996 413.630006,192.389996 414.499995,192.389996 415.370010,192.285003 416.239998,192.179998 417.109987,192.179998 417.980002,192.179998 418.849991,192.075006 419.720005,192.075006 420.589994,192.075006 421.460009,191.970001 422.329998,191.970001 423.200012,191.864996 424.070001,191.864996 424.939990,191.864996 425.810005,191.760004 426.679994,191.760004 427.550008,191.760004 428.419997,191.654999 429.290012,191.654999 430.160001,191.654999 431.029989,191.549994 431.900004,191.549994 432.769993,191.549994 433.640008,191.445002 434.509996,191.445002 435.380011,191.445002 436.250000,191.339997 437.119989,191.339997 437.990004,191.339997 438.859992,191.235004 439.730007,191.235004 440.599996,191.235004 441.470011,191.129999 442.339999,191.129999 443.209988,191.024994 444.080003,191.024994 444.949992,191.024994 445.820006,190.920002 446.689995,190.920002 447.560010,190.920002 448.429999,190.814997 449.299988,190.814997 450.170002,190.710005 451.039991,190.710005 451.910006,190.710005 452.779995,190.605000 453.650009,190.605000 454.519998,190.605000 455.390013,190.499995 456.260002,190.499995 457.129990,190.499995 458.000005,190.395003 458.869994,190.395003 459.740009,190.289998 460.609998,190.289998 461.480012,190.289998 462.350001,190.185005 463.219990,190.185005 464.090005,190.185005 464.959993,190.080000 465.830008,190.080000 466.699997,190.080000 467.570012,189.974995 468.440000,189.974995 469.309989,189.974995 470.180004,189.870003 471.049993,189.870003 471.920007,189.870003 472.789996,189.764998 473.660011,189.764998 474.530000,189.764998 475.399989,189.660006 476.270003,189.660006 477.139992,189.555001 478.010007,189.555001 478.879996,189.449996 479.750010,189.449996 480.619999,189.345004 481.489988,189.345004 482.360003,189.239999 483.229991,189.239999 484.100006,189.239999 484.969995,189.134994 485.840010,189.134994 486.709999,189.030001 487.579987,189.030001 488.450002,189.030001 489.319991,188.924996 490.190006,188.924996 491.059994,188.924996 491.930009,188.820004 492.799998,188.820004 493.670013,188.714999 494.540001,188.714999 495.409990,188.714999 496.280005,188.609994 497.149994,188.609994 498.020009,188.609994 498.889997,188.505002 499.760012,188.505002 500.630001,188.505002 501.499990,188.399997 502.370004,188.399997 503.239993,188.399997 504.110008,188.295005 504.979997,188.295005 505.850011,188.295005 506.720000,188.190000 507.589989,188.190000 508.460004,188.190000 509.329993,188.084995 510.200007,188.084995 511.069996,188.084995 511.940011,187.980002 512.810000,187.980002 513.679988,187.980002 514.550003,187.874997 515.419992,187.874997 516.290007,187.874997 517.159995,187.770005 518.030010,187.770005 518.899999,187.770005 519.769988,187.665000 520.640002,187.665000 521.509991,187.665000 522.380006,187.559995 523.249995,187.559995 524.120010,187.455003 524.989998,187.455003 525.859987,187.349998 526.730002,187.349998 527.599991,187.245006 528.470005,187.245006 529.339994,187.140001 530.210009,187.140001 531.079998,187.034996 531.950012,187.034996 532.820001,187.034996 533.689990,186.930003 534.560005,186.930003 535.429994,186.930003 536.300008,186.824998 537.169997,186.824998 538.040012,186.824998 538.910001,186.720006 539.779989,186.720006 540.650004,186.720006 541.519993,186.615001 542.390008,186.615001 543.259996,186.509996 544.130011,186.509996 545.000000,186.405004 545.000000,186.299999"/>
	<polyline fill="none" stroke="rgb(238,46,47)" stroke-width="1" stroke-opacity="1" clip-path="url(#clipArea1)" points="110.000000,88.440007 110.870000,88.440007 111.740000,88.440007 112.610000,88.440007 113.480000,88.334990 114.350000,88.334990 115.220000,88.334990 116.090000,88.334990 116.960000,88.229997 117.830000,88.229997 118.700000,88.229997 119.570000,88.229997 120.440000,88.125005 121.310000,88.125005 122.180000,88.125005 123.050000,88.125005 123.920001,88.019988 124.790001,88.019988 125.659999,88.019988 126.529999,88.019988 127.400000,87.914995 128.270000,87.914995 129.140000,87.914995 130.010000,87.914995 130.880000,87.914995 131.750000,87.810003 132.620000,87.810003 133.490001,87.810003 134.360001,87.810003 135.229999,87.705010 136.099999,87.705010 136.970000,87.705010 137.840001,87.705010 138.710000,87.599993 139.580002,87.599993 140.450000,87.599993 141.319999,87.599993 142.190000,87.599993 143.059999,87.495001 143.930001,87.495001 144.799999,87.495001 145.670001,87.495001 146.540000,87.390008 147.410001,87.390008 148.280000,87.390008 149.150002,87.390008 150.020000,87.390008 150.889999,87.284991 151.760000,87.284991 152.629999,87.284991 153.500001,87.284991 154.369999,87.179998 155.240001,87.179998 156.109999,87.179998 156.980001,87.179998 157.850000,87.075006 158.720002,87.075006 159.590000,87.075006 160.459999,87.075006 161.330000,87.075006 162.199999,86.969989 163.070001,86.969989 163.939999,86.969989 164.810001,86.969989 165.680003,86.864996 166.549998,86.864996 167.420000,86.864996 168.290001,86.864996 169.160003,86.760004 170.029998,86.760004 170.900000,86.760004 171.770002,86.760004 172.639997,86.760004 173.509999,86.655011 174.380001,86.655011 175.250003,86.655011 176.119998,86.655011 176.990000,86.549994 177.860001,86.549994 178.730003,86.549994 179.599998,86.549994 180.470000,86.445002 181.340002,86.445002 182.209997,86.445002 183.079999,86.445002 183.950001,86.445002 184.820003,86.340009 185.689998,86.340009 186.560000,86.340009 187.430001,86.340009 188.300003,86.234992 189.169998,86.234992 190.040000,86.234992 190.910002,86.234992 191.779997,86.234992 192.649999,86.129999 193.520001,86.129999 194.390002,86.129999 195.259998,86.129999 196.130000,86.025007 197.000001,86.025007 197.870003,86.025007 198.739998,86.025007 199.610000,86.025007 200.480002,85.919990 201.349997,85.919990 202.219999,85.919990 203.090001,85.919990 203.960002,85.814997 204.829998,85.814997 205.699999,85.814997 206.570001,85.814997 207.440003,85.710005 208.309998,85.710005 209.180000,85.710005 210.050002,85.710005 210.919997,85.710005 211.789999,85.605012 212.660001,85.605012 213.530002,85.605012 214.399998,85.605012 215.269999,85.499995 216.140001,85.499995 217.010003,85.499995 217.879998,85.499995 218.750000,85.395003 219.620002,85.395003 220.490004,85.395003 221.360005,85.395003 222.229994,85.395003 223.099996,85.290010 223.969998,85.290010 224.839999,85.290010 225.710001,85.290010 226.580003,85.184993 227.450005,85.184993 228.320006,85.184993 229.189995,85.184993 230.059997,85.184993 230.929999,85.184993 231.800001,85.080000 232.670002,85.080000 233.540004,85.080000 234.410006,85.080000 235.279995,85.080000 236.149996,85.080000 237.019998,85.080000 237.890000,84.975008 238.760002,84.975008 239.630003,84.975008 240.500005,84.975008 241.369994,84.975008 242.239996,84.975008 243.109998,84.869991 243.979999,84.869991 244.850001,84.869991 245.720003,84.869991 246.590005,84.869991 247.460006,84.869991 248.329995,84.869991 249.199997,84.764998 250.069999,84.764998 250.940000,84.764998 251.810002,84.764998 252.680004,84.764998 253.550006,84.764998 254.419995,84.660006 255.289996,84.660006 256.159998,84.660006 257.030000,84.660006 257.900002,84.660006 258.770003,84.660006 259.640005,84.660006 260.509994,84.554988 261.379996,84.554988 262.249997,84.554988 263.119999,84.554988 263.990001,84.554988 264.860003,84.554988 265.730004,84.449996 266.600006,84.449996 267.469995,84.449996 268.339997,84.449996 269.209999,84.449996 270.080000,84.449996 270.950002,84.345004 271.820004,84.345004 272.690006,84.345004 273.559994,84.345004 274.429996,84.345004 275.299998,84.345004 276.170000,84.345004 277.040001,84.240011 277.910003,84.240011 278.780005,84.240011 279.649994,84.240011 280.519996,84.240011 281.389997,84.240011 282.259999,84.134994 283.130001,84.134994 284.000003,84.134994 284.870004,84.134994 285.740006,84.134994 286.609995,84.134994 287.479997,84.134994 288.349998,84.030001 289.220000,84.030001 290.090002,84.030001 290.960004,84.030001 291.830005,84.030001 292.699994,84.030001 293.569996,83.925009 294.439998,83.925009 295.310000,83.925009 296.180001,83.925009 297.050003,83.925009 297.920005,83.925009 298.789994,83.925009 299.659995,83.819992 300.529997,83.819992 301.399999,83.819992 302.270001,83.819992 303.140002,83.714999 304.010004,83.714999 304.880006,83.714999 305.749995,83.714999 306.619997,83.610007 307.489998,83.610007 308.360000,83.610007 309.230002,83.610007 310.100004,83.610007 310.970005,83.504989 311.839994,83.504989 312.709996,83.504989 313.579998,83.504989 314.449999,83.399997 315.320001,83.399997 316.190003,83.399997 317.060005,83.399997 317.929994,83.295005 318.799995,83.295005 319.669997,83.295005 320.539999,83.295005 321.410001,83.190012 322.280002,83.190012 323.150004,83.190012 324.020006,83.084995 324.889995,83.084995 325.759996,83.084995 326.629998,83.084995 327.500000,82.980002 328.369989,82.980002 329.240004,82.980002 330.109992,82.980002 330.980007,82.875010 331.849996,82.875010 332.720011,82.875010 333.589999,82.875010 334.459988,82.769993 335.330003,82.769993 336.199992,82.769993 337.070006,82.769993 337.939995,82.769993 338.810010,82.665000 339.679999,82.665000 340.549988,82.665000 341.420002,82.665000 342.289991,82.560008 343.160006,82.560008 344.029995,82.560008 344.900009,82.560008 345.769998,82.454990 346.640013,82.454990 347.510002,82.454990 348.379990,82.454990 349.250005,82.454990 350.119994,82.349998 350.990009,82.349998 351.859998,82.349998 352.730012,82.349998 353.600001,82.245006 354.469990,82.245006 355.340005,82.245006 356.209993,82.245006 357.080008,82.139988 357.949997,82.139988 358.820012,82.139988 359.690000,82.139988 360.559989,82.139988 361.430004,82.034996 362.299993,82.034996 363.170007,82.034996 364.039996,82.034996 364.910011,81.930003 365.780000,81.930003 366.649989,81.930003 367.520003,81.930003 368.389992,81.825011 369.260007,81.825011 370.129996,81.825011 371.000010,81.825011 371.869999,81.825011 372.739988,81.719994 373.610003,81.719994 374.479991,81.719994 375.350006,81.719994 376.219995,81.615001 377.090010,81.615001 377.959999,81.615001 378.829987,80.880004 379.700002,80.880004 380.569991,80.880004 381.440006,80.775012 382.309994,80.775012 383.180009,80.775012 384.049998,80.775012 384.920013,80.669995 385.790001,80.669995 386.659990,80.669995 387.530005,80.669995 388.399994,80.669995 389.270009,80.565002 390.139997,80.565002 391.010012,80.565002 391.880001,80.565002 392.749990,80.460010 393.620004,80.460010 394.489993,80.460010 395.360008,80.460010 396.229997,80.354992 397.100011,80.354992 397.970000,80.354992 398.839989,80.354992 399.710004,80.250000 400.579993,80.250000 401.450007,80.250000 402.319996,80.250000 403.190011,80.250000 404.060000,80.145008 404.929988,80.145008 405.800003,80.145008 406.669992,80.145008 407.540007,80.039990 408.409995,80.039990 409.280010,80.039990 410.149999,80.039990 411.019988,79.934998 411.890002,79.934998 412.759991,79.934998 413.630006,79.934998 414.499995,79.830005 415.370010,79.830005 416.239998,79.830005 417.109987,79.830005 417.980002,79.830005 418.849991,79.724988 419.720005,79.724988 420.589994,79.724988 421.460009,79.724988 422.329998,79.619996 423.200012,79.619996 424.070001,79.619996 424.939990,79.619996 425.810005,79.515003 426.679994,79.515003 427.550008,79.515003 428.419997,79.515003 429.290012,79.410011 430.160001,79.410011 431.029989,79.410011 431.900004,79.410011 432.769993,79.410011 433.640008,79.304993 434.509996,79.304993 435.380011,79.304993 436.250000,79.304993 437.119989,79.200001 437.990004,79.200001 438.859992,79.200001 439.730007,79.200001 440.599996,79.095009 441.470011,79.095009 442.339999,79.095009 443.209988,79.095009 444.080003,78.989991 444.949992,78.989991 445.820006,78.989991 446.689995,78.989991 447.560010,78.989991 448.429999,78.884999 449.299988,78.884999 450.170002,78.884999 451.039991,78.884999 451.910006,78.884999 452.779995,78.884999 453.650009,78.884999 454.519998,78.780006 455.390013,78.780006 456.260002,78.780006 457.129990,78.780006 458.000005,78.780006 458.869994,78.780006 459.740009,78.674989 460.609998,78.674989 461.480012,78.674989 462.350001,78.674989 463.219990,78.674989 464.090005,78.674989 464.959993,78.674989 465.830008,78.569997 466.699997,78.569997 467.570012,78.569997 468.440000,78.569997 469.309989,78.569997 470.180004,78.569997 471.049993,78.465004 471.920007,78.465004 472.789996,78.465004 473.660011,78.465004 474.530000,78.360012 475.399989,78.360012 476.270003,78.360012 477.139992,78.360012 478.010007,78.254994 478.879996,78.254994 479.750010,78.254994 480.619999,78.254994 481.489988,78.254994 482.360003,78.150002 483.229991,78.150002 484.100006,78.150002 484.969995,78.150002 485.840010,78.150002 486.709999,78.150002 487.579987,78.045010 488.450002,78.045010 489.319991,78.045010 490.190006,78.045010 491.059994,78.045010 491.930009,78.045010 492.799998,77.939992 493.670013,77.939992 494.540001,77.939992 495.409990,77.939992 496.280005,77.939992 497.149994,77.939992 498.020009,77.939992 498.889997,77.835000 499.760012,77.835000 500.630001,77.835000 501.499990,77.835000 502.370004,77.835000 503.239993,77.835000 504.110008,77.730007 504.979997,77.730007 505.850011,77.730007 506.720000,77.730007 507.589989,77.730007 508.460004,77.730007 509.329993,77.624990 510.200007,77.624990 511.069996,77.624990 511.940011,77.624990 512.810000,77.624990 513.679988,77.624990 514.550003,77.624990 515.419992,77.519998 516.290007,77.519998 517.159995,77.519998 518.030010,77.519998 518.899999,77.519998 519.769988,77.519998 520.640002,77.415005 521.509991,77.415005 522.380006,77.415005 523.249995,77.415005 524.120010,77.309988 524.989998,77.309988 525.859987,77.309988 526.730002,77.309988 527.599991,77.204995 528.470005,77.204995 529.339994,77.204995 530.210009,77.204995 531.079998,77.100003 531.950012,77.100003 532.820001,77.100003 533.689990,77.100003 534.560005,76.995011 535.429994,76.995011 536.300008,76.995011 537.169997,76.995011 538.040012,76.995011 538.910001,76.889993 539.779989,76.889993 540.650004,76.889993 541.519993,76.889993 542.390008,76.785001 543.259996,76.785001 544.130011,76.785001 545.000000,76.785001 545.000000,76.574991"/>
</svg>
