<?xml version="1.0" standalone="no"?>
<!DOCTYPE svg PUBLIC "-//W3C//DTD SVG 1.1//EN" "http://www.w3.org/Graphics/SVG/1.1/DTD/svg11.dtd">
<svg width="483" height="300" version="1.1" xmlns="http://www.w3.org/2000/svg" xmlns:xlink="http://www.w3.org/1999/xlink">
	<polyline style="shape-rendering:crispEdges" fill="none" stroke="rgb(229,229,229)" stroke-width="1" stroke-opacity="1" points="59.000000,17.000000 59.000000,275.000000"/>
	<polyline style="shape-rendering:crispEdges" fill="none" stroke="rgb(229,229,229)" stroke-width="1" stroke-opacity="1" points="67.967998,17.000000 67.967998,275.000000"/>
	<polyline style="shape-rendering:crispEdges" fill="none" stroke="rgb(229,229,229)" stroke-width="1" stroke-opacity="1" points="76.719878,17.000000 76.719878,275.000000"/>
	<polyline style="shape-rendering:crispEdges" fill="none" stroke="rgb(229,229,229)" stroke-width="1" stroke-opacity="1" points="85.265812,17.000000 85.265812,275.000000"/>
	<polyline style="shape-rendering:crispEdges" fill="none" stroke="rgb(229,229,229)" stroke-width="1" stroke-opacity="1" points="93.615271,17.000000 93.615271,275.000000"/>
	<polyline style="shape-rendering:crispEdges" fill="none" stroke="rgb(229,229,229)" stroke-width="1" stroke-opacity="1" points="101.777085,17.000000 101.777085,275.000000"/>
	<polyline style="shape-rendering:crispEdges" fill="none" stroke="rgb(229,229,229)" stroke-width="1" stroke-opacity="1" points="109.759504,17.000000 109.759504,275.000000"/>
	<polyline style="shape-rendering:crispEdges" fill="none" stroke="rgb(229,229,229)" stroke-width="1" stroke-opacity="1" points="117.570245,17.000000 117.570245,275.000000"/>
	<polyline style="shape-rendering:crispEdges" fill="none" stroke="rgb(229,229,229)" stroke-width="1" stroke-opacity="1" points="125.216537,17.000000 125.216537,275.000000"/>
	<polyline style="shape-rendering:crispEdges" fill="none" stroke="rgb(229,229,229)" stroke-width="1" stroke-opacity="1" points="132.705162,17.000000 132.705162,275.000000"/>
	<polyline style="shape-rendering:crispEdges" fill="none" stroke="rgb(229,229,229)" stroke-width="1" stroke-opacity="1" points="140.042491,17.000000 140.042491,275.000000"/>
	<polyline style="shape-rendering:crispEdges" fill="none" stroke="rgb(229,229,229)" stroke-width="1" stroke-opacity="1" points="147.234518,17.000000 147.234518,275.000000"/>
	<polyline style="shape-rendering:crispEdges" fill="none" stroke="rgb(229,229,229)" stroke-width="1" stroke-opacity="1" points="154.286884,17.000000 154.286884,275.000000"/>
	<polyline style="shape-rendering:crispEdges" fill="none" stroke="rgb(229,229,229)" stroke-width="1" stroke-opacity="1" points="161.204911,17.000000 161.204911,275.000000"/>
	<polyline style="shape-rendering:crispEdges" fill="none" stroke="rgb(229,229,229)" stroke-width="1" stroke-opacity="1" points="167.993622,17.000000 167.993622,275.000000"/>
	<polyline style="shape-rendering:crispEdges" fill="none" stroke="rgb(229,229,229)" stroke-width="1" stroke-opacity="1" points="174.657762,17.000000 174.657762,275.000000"/>
	<polyline style="shape-rendering:crispEdges" fill="none" stroke="rgb(229,229,229)" stroke-width="1" stroke-opacity="1" points="181.201821,17.000000 181.201821,275.000000"/>
	<polyline style="shape-rendering:crispEdges" fill="none" stroke="rgb(229,229,229)" stroke-width="1" stroke-opacity="1" points="187.630050,17.000000 187.630050,275.000000"/>
	<polyline style="shape-rendering:crispEdges" fill="none" stroke="rgb(229,229,229)" stroke-width="1" stroke-opacity="1" points="193.946478,17.000000 193.946478,275.000000"/>
	<polyline style="shape-rendering:crispEdges" fill="none" stroke="rgb(229,229,229)" stroke-width="1" stroke-opacity="1" points="200.154927,17.000000 200.154927,275.000000"/>
	<polyline style="shape-rendering:crispEdges" fill="none" stroke="rgb(229,229,229)" stroke-width="1" stroke-opacity="1" points="206.259028,17.000000 206.259028,275.000000"/>
	<polyline style="shape-rendering:crispEdges" fill="none" stroke="rgb(229,229,229)" stroke-width="1" stroke-opacity="1" points="212.262230,17.000000 212.262230,275.000000"/>
	<polyline style="shape-rendering:crispEdges" fill="none" stroke="rgb(229,229,229)" stroke-width="1" stroke-opacity="1" points="218.167815,17.000000 218.167815,275.000000"/>
	<polyline style="shape-rendering:crispEdges" fill="none" stroke="rgb(229,229,229)" stroke-width="1" stroke-opacity="1" points="223.978906,17.000000 223.978906,275.000000"/>
	<polyline style="shape-rendering:crispEdges" fill="none" stroke="rgb(229,229,229)" stroke-width="1" stroke-opacity="1" points="229.698480,17.000000 229.698480,275.000000"/>
	<polyline style="shape-rendering:crispEdges" fill="none" stroke="rgb(229,229,229)" stroke-width="1" stroke-opacity="1" points="235.329375,17.000000 235.329375,275.000000"/>
	<polyline style="shape-rendering:crispEdges" fill="none" stroke="rgb(229,229,229)" stroke-width="1" stroke-opacity="1" points="240.874299,17.000000 240.874299,275.000000"/>
	<polyline style="shape-rendering:crispEdges" fill="none" stroke="rgb(229,229,229)" stroke-width="1" stroke-opacity="1" points="246.335837,17.000000 246.335837,275.000000"/>
	<polyline style="shape-rendering:crispEdges" fill="none" stroke="rgb(229,229,229)" stroke-width="1" stroke-opacity="1" points="251.716461,17.000000 251.716461,275.000000"/>
	<polyline style="shape-rendering:crispEdges" fill="none" stroke="rgb(229,229,229)" stroke-width="1" stroke-opacity="1" points="257.018532,17.000000 257.018532,275.000000"/>
	<polyline style="shape-rendering:crispEdges" fill="none" stroke="rgb(229,229,229)" stroke-width="1" stroke-opacity="1" points="262.244313,17.000000 262.244313,275.000000"/>
	<polyline style="shape-rendering:crispEdges" fill="none" stroke="rgb(229,229,229)" stroke-width="1" stroke-opacity="1" points="267.395966,17.000000 267.395966,275.000000"/>
	<polyline style="shape-rendering:crispEdges" fill="none" stroke="rgb(229,229,229)" stroke-width="1" stroke-opacity="1" points="272.475565,17.000000 272.475565,275.000000"/>
	<polyline style="shape-rendering:crispEdges" fill="none" stroke="rgb(229,229,229)" stroke-width="1" stroke-opacity="1" points="277.485099,17.000000 277.485099,275.000000"/>
	<polyline style="shape-rendering:crispEdges" fill="none" stroke="rgb(229,229,229)" stroke-width="1" stroke-opacity="1" points="282.426474,17.000000 282.426474,275.000000"/>
	<polyline style="shape-rendering:crispEdges" fill="none" stroke="rgb(229,229,229)" stroke-width="1" stroke-opacity="1" points="287.301520,17.000000 287.301520,275.000000"/>
	<polyline style="shape-rendering:crispEdges" fill="none" stroke="rgb(229,229,229)" stroke-width="1" stroke-opacity="1" points="292.111993,17.000000 292.111993,275.000000"/>
	<polyline style="shape-rendering:crispEdges" fill="none" stroke="rgb(229,229,229)" stroke-width="1" stroke-opacity="1" points="296.859583,17.000000 296.859583,275.000000"/>
	<polyline style="shape-rendering:crispEdges" fill="none" stroke="rgb(229,229,229)" stroke-width="1" stroke-opacity="1" points="301.545912,17.000000 301.545912,275.000000"/>
	<polyline style="shape-rendering:crispEdges" fill="none" stroke="rgb(229,229,229)" stroke-width="1" stroke-opacity="1" points="306.172541,17.000000 306.172541,275.000000"/>
	<polyline style="shape-rendering:crispEdges" fill="none" stroke="rgb(229,229,229)" stroke-width="1" stroke-opacity="1" points="310.740972,17.000000 310.740972,275.000000"/>
	<polyline style="shape-rendering:crispEdges" fill="none" stroke="rgb(229,229,229)" stroke-width="1" stroke-opacity="1" points="315.252650,17.000000 315.252650,275.000000"/>
	<polyline style="shape-rendering:crispEdges" fill="none" stroke="rgb(229,229,229)" stroke-width="1" stroke-opacity="1" points="319.708969,17.000000 319.708969,275.000000"/>
	<polyline style="shape-rendering:crispEdges" fill="none" stroke="rgb(229,229,229)" stroke-width="1" stroke-opacity="1" points="324.111271,17.000000 324.111271,275.000000"/>
	<polyline style="shape-rendering:crispEdges" fill="none" stroke="rgb(229,229,229)" stroke-width="1" stroke-opacity="1" points="328.460849,17.000000 328.460849,275.000000"/>
	<polyline style="shape-rendering:crispEdges" fill="none" stroke="rgb(229,229,229)" stroke-width="1" stroke-opacity="1" points="332.758952,17.000000 332.758952,275.000000"/>
	<polyline style="shape-rendering:crispEdges" fill="none" stroke="rgb(229,229,229)" stroke-width="1" stroke-opacity="1" points="337.006784,17.000000 337.006784,275.000000"/>
	<polyline style="shape-rendering:crispEdges" fill="none" stroke="rgb(229,229,229)" stroke-width="1" stroke-opacity="1" points="341.205506,17.000000 341.205506,275.000000"/>
	<polyline style="shape-rendering:crispEdges" fill="none" stroke="rgb(229,229,229)" stroke-width="1" stroke-opacity="1" points="345.356242,17.000000 345.356242,275.000000"/>
	<polyline style="shape-rendering:crispEdges" fill="none" stroke="rgb(229,229,229)" stroke-width="1" stroke-opacity="1" points="349.460076,17.000000 349.460076,275.000000"/>
	<polyline style="shape-rendering:crispEdges" fill="none" stroke="rgb(229,229,229)" stroke-width="1" stroke-opacity="1" points="353.518057,17.000000 353.518057,275.000000"/>
	<polyline style="shape-rendering:crispEdges" fill="none" stroke="rgb(229,229,229)" stroke-width="1" stroke-opacity="1" points="357.531196,17.000000 357.531196,275.000000"/>
	<polyline style="shape-rendering:crispEdges" fill="none" stroke="rgb(229,229,229)" stroke-width="1" stroke-opacity="1" points="361.500476,17.000000 361.500476,275.000000"/>
	<polyline style="shape-rendering:crispEdges" fill="none" stroke="rgb(229,229,229)" stroke-width="1" stroke-opacity="1" points="365.426843,17.000000 365.426843,275.000000"/>
	<polyline style="shape-rendering:crispEdges" fill="none" stroke="rgb(229,229,229)" stroke-width="1" stroke-opacity="1" points="369.311217,17.000000 369.311217,275.000000"/>
	<polyline style="shape-rendering:crispEdges" fill="none" stroke="rgb(229,229,229)" stroke-width="1" stroke-opacity="1" points="373.154485,17.000000 373.154485,275.000000"/>
	<polyline style="shape-rendering:crispEdges" fill="none" stroke="rgb(229,229,229)" stroke-width="1" stroke-opacity="1" points="376.957509,17.000000 376.957509,275.000000"/>
	<polyline style="shape-rendering:crispEdges" fill="none" stroke="rgb(229,229,229)" stroke-width="1" stroke-opacity="1" points="380.721122,17.000000 380.721122,275.000000"/>
	<polyline style="shape-rendering:crispEdges" fill="none" stroke="rgb(229,229,229)" stroke-width="1" stroke-opacity="1" points="384.446134,17.000000 384.446134,275.000000"/>
	<polyline style="shape-rendering:crispEdges" fill="none" stroke="rgb(229,229,229)" stroke-width="1" stroke-opacity="1" points="388.133327,17.000000 388.133327,275.000000"/>
	<polyline style="shape-rendering:crispEdges" fill="none" stroke="rgb(229,229,229)" stroke-width="1" stroke-opacity="1" points="391.783463,17.000000 391.783463,275.000000"/>
	<polyline style="shape-rendering:crispEdges" fill="none" stroke="rgb(229,229,229)" stroke-width="1" stroke-opacity="1" points="395.397278,17.000000 395.397278,275.000000"/>
	<polyline style="shape-rendering:crispEdges" fill="none" stroke="rgb(229,229,229)" stroke-width="1" stroke-opacity="1" points="398.975489,17.000000 398.975489,275.000000"/>
	<polyline style="shape-rendering:crispEdges" fill="none" stroke="rgb(229,229,229)" stroke-width="1" stroke-opacity="1" points="402.518790,17.000000 402.518790,275.000000"/>
	<polyline style="shape-rendering:crispEdges" fill="none" stroke="rgb(229,229,229)" stroke-width="1" stroke-opacity="1" points="406.027856,17.000000 406.027856,275.000000"/>
	<polyline style="shape-rendering:crispEdges" fill="none" stroke="rgb(229,229,229)" stroke-width="1" stroke-opacity="1" points="409.503341,17.000000 409.503341,275.000000"/>
	<polyline style="shape-rendering:crispEdges" fill="none" stroke="rgb(229,229,229)" stroke-width="1" stroke-opacity="1" points="412.945883,17.000000 412.945883,275.000000"/>
	<polyline style="shape-rendering:crispEdges" fill="none" stroke="rgb(229,229,229)" stroke-width="1" stroke-opacity="1" points="416.356100,17.000000 416.356100,275.000000"/>
	<polyline style="shape-rendering:crispEdges" fill="none" stroke="rgb(229,229,229)" stroke-width="1" stroke-opacity="1" points="419.734594,17.000000 419.734594,275.000000"/>
	<polyline style="shape-rendering:crispEdges" fill="none" stroke="rgb(229,229,229)" stroke-width="1" stroke-opacity="1" points="423.081949,17.000000 423.081949,275.000000"/>
	<polyline style="shape-rendering:crispEdges" fill="none" stroke="rgb(229,229,229)" stroke-width="1" stroke-opacity="1" points="426.398734,17.000000 426.398734,275.000000"/>
	<polyline style="shape-rendering:crispEdges" fill="none" stroke="rgb(229,229,229)" stroke-width="1" stroke-opacity="1" points="429.685502,17.000000 429.685502,275.000000"/>
	<polyline style="shape-rendering:crispEdges" fill="none" stroke="rgb(229,229,229)" stroke-width="1" stroke-opacity="1" points="432.942793,17.000000 432.942793,275.000000"/>
	<polyline style="shape-rendering:crispEdges" fill="none" stroke="rgb(229,229,229)" stroke-width="1" stroke-opacity="1" points="436.171129,17.000000 436.171129,275.000000"/>
	<polyline style="shape-rendering:crispEdges" fill="none" stroke="rgb(229,229,229)" stroke-width="1" stroke-opacity="1" points="439.371022,17.000000 439.371022,275.000000"/>
	<polyline style="shape-rendering:crispEdges" fill="none" stroke="rgb(229,229,229)" stroke-width="1" stroke-opacity="1" points="442.542967,17.000000 442.542967,275.000000"/>
	<polyline style="shape-rendering:crispEdges" fill="none" stroke="rgb(229,229,229)" stroke-width="1" stroke-opacity="1" points="445.687450,17.000000 445.687450,275.000000"/>
	<polyline style="shape-rendering:crispEdges" fill="none" stroke="rgb(229,229,229)" stroke-width="1" stroke-opacity="1" points="448.804940,17.000000 448.804940,275.000000"/>
	<polyline style="shape-rendering:crispEdges" fill="none" stroke="rgb(229,229,229)" stroke-width="1" stroke-opacity="1" points="451.895899,17.000000 451.895899,275.000000"/>
	<polyline style="shape-rendering:crispEdges" fill="none" stroke="rgb(229,229,229)" stroke-width="1" stroke-opacity="1" points="454.960773,17.000000 454.960773,275.000000"/>
	<polyline style="shape-rendering:crispEdges" fill="none" stroke="rgb(229,229,229)" stroke-width="1" stroke-opacity="1" points="458.000000,17.000000 458.000000,275.000000"/>
	<polyline style="shape-rendering:crispEdges" fill="none" stroke="rgb(229,229,229)" stroke-width="1" stroke-opacity="1" points="59.000000,275.000000 458.000000,275.000000"/>
	<polyline style="shape-rendering:crispEdges" fill="none" stroke="rgb(229,229,229)" stroke-width="1" stroke-opacity="1" points="59.000000,238.142857 458.000000,238.142857"/>
	<polyline style="shape-rendering:crispEdges" fill="none" stroke="rgb(229,229,229)" stroke-width="1" stroke-opacity="1" points="59.000000,201.285714 458.000000,201.285714"/>
	<polyline style="shape-rendering:crispEdges" fill="none" stroke="rgb(229,229,229)" stroke-width="1" stroke-opacity="1" points="59.000000,164.428571 458.000000,164.428571"/>
	<polyline style="shape-rendering:crispEdges" fill="none" stroke="rgb(229,229,229)" stroke-width="1" stroke-opacity="1" points="59.000000,127.571429 458.000000,127.571429"/>
	<polyline style="shape-rendering:crispEdges" fill="none" stroke="rgb(229,229,229)" stroke-width="1" stroke-opacity="1" points="59.000000,90.714286 458.000000,90.714286"/>
	<polyline style="shape-rendering:crispEdges" fill="none" stroke="rgb(229,229,229)" stroke-width="1" stroke-opacity="1" points="59.000000,53.857143 458.000000,53.857143"/>
	<polyline style="shape-rendering:crispEdges" fill="none" stroke="rgb(229,229,229)" stroke-width="1" stroke-opacity="1" points="59.000000,17.000000 458.000000,17.000000"/>
	<polyline style="shape-rendering:crispEdges" fill="none" stroke="rgb(0,0,0)" stroke-width="1" stroke-opacity="1" points="59.000000,275.000000 458.000000,275.000000"/>
	<polyline style="shape-rendering:crispEdges" fill="none" stroke="rgb(0,0,0)" stroke-width="1" stroke-opacity="1" points="458.000000,275.000000 458.000000,17.000000"/>
	<polyline style="shape-rendering:crispEdges" fill="none" stroke="rgb(0,0,0)" stroke-width="1" stroke-opacity="1" points="458.000000,17.000000 59.000000,17.000000"/>
	<polyline style="shape-rendering:crispEdges" fill="none" stroke="rgb(0,0,0)" stroke-width="1" stroke-opacity="1" points="59.000000,17.000000 59.000000,275.000000"/>
	<polyline style="shape-rendering:crispEdges" fill="none" stroke="rgb(0,0,0)" stroke-width="1" stroke-opacity="1" points="59.000000,275.000000 59.000000,279.000000"/>
	<polyline style="shape-rendering:crispEdges" fill="none" stroke="rgb(0,0,0)" stroke-width="1" stroke-opacity="1" points="67.967998,275.000000 67.967998,279.000000"/>
	<polyline style="shape-rendering:crispEdges" fill="none" stroke="rgb(0,0,0)" stroke-width="1" stroke-opacity="1" points="76.719878,275.000000 76.719878,279.000000"/>
	<polyline style="shape-rendering:crispEdges" fill="none" stroke="rgb(0,0,0)" stroke-width="1" stroke-opacity="1" points="85.265812,275.000000 85.265812,279.000000"/>
	<polyline style="shape-rendering:crispEdges" fill="none" stroke="rgb(0,0,0)" stroke-width="1" stroke-opacity="1" points="93.615271,275.000000 93.615271,279.000000"/>
	<polyline style="shape-rendering:crispEdges" fill="none" stroke="rgb(0,0,0)" stroke-width="1" stroke-opacity="1" points="101.777085,275.000000 101.777085,279.000000"/>
	<polyline style="shape-rendering:crispEdges" fill="none" stroke="rgb(0,0,0)" stroke-width="1" stroke-opacity="1" points="109.759504,275.000000 109.759504,279.000000"/>
	<polyline style="shape-rendering:crispEdges" fill="none" stroke="rgb(0,0,0)" stroke-width="1" stroke-opacity="1" points="117.570245,275.000000 117.570245,279.000000"/>
	<polyline style="shape-rendering:crispEdges" fill="none" stroke="rgb(0,0,0)" stroke-width="1" stroke-opacity="1" points="125.216537,275.000000 125.216537,279.000000"/>
	<polyline style="shape-rendering:crispEdges" fill="none" stroke="rgb(0,0,0)" stroke-width="1" stroke-opacity="1" points="132.705162,275.000000 132.705162,279.000000"/>
	<polyline style="shape-rendering:crispEdges" fill="none" stroke="rgb(0,0,0)" stroke-width="1" stroke-opacity="1" points="140.042491,275.000000 140.042491,279.000000"/>
	<polyline style="shape-rendering:crispEdges" fill="none" stroke="rgb(0,0,0)" stroke-width="1" stroke-opacity="1" points="147.234518,275.000000 147.234518,279.000000"/>
	<polyline style="shape-rendering:crispEdges" fill="none" stroke="rgb(0,0,0)" stroke-width="1" stroke-opacity="1" points="154.286884,275.000000 154.286884,279.000000"/>
	<polyline style="shape-rendering:crispEdges" fill="none" stroke="rgb(0,0,0)" stroke-width="1" stroke-opacity="1" points="161.204911,275.000000 161.204911,279.000000"/>
	<polyline style="shape-rendering:crispEdges" fill="none" stroke="rgb(0,0,0)" stroke-width="1" stroke-opacity="1" points="167.993622,275.000000 167.993622,279.000000"/>
	<polyline style="shape-rendering:crispEdges" fill="none" stroke="rgb(0,0,0)" stroke-width="1" stroke-opacity="1" points="174.657762,275.000000 174.657762,279.000000"/>
	<polyline style="shape-rendering:crispEdges" fill="none" stroke="rgb(0,0,0)" stroke-width="1" stroke-opacity="1" points="181.201821,275.000000 181.201821,279.000000"/>
	<polyline style="shape-rendering:crispEdges" fill="none" stroke="rgb(0,0,0)" stroke-width="1" stroke-opacity="1" points="187.630050,275.000000 187.630050,279.000000"/>
	<polyline style="shape-rendering:crispEdges" fill="none" stroke="rgb(0,0,0)" stroke-width="1" stroke-opacity="1" points="193.946478,275.000000 193.946478,279.000000"/>
	<polyline style="shape-rendering:crispEdges" fill="none" stroke="rgb(0,0,0)" stroke-width="1" stroke-opacity="1" points="200.154927,275.000000 200.154927,279.000000"/>
	<polyline style="shape-rendering:crispEdges" fill="none" stroke="rgb(0,0,0)" stroke-width="1" stroke-opacity="1" points="206.259028,275.000000 206.259028,279.000000"/>
	<polyline style="shape-rendering:crispEdges" fill="none" stroke="rgb(0,0,0)" stroke-width="1" stroke-opacity="1" points="212.262230,275.000000 212.262230,279.000000"/>
	<polyline style="shape-rendering:crispEdges" fill="none" stroke="rgb(0,0,0)" stroke-width="1" stroke-opacity="1" points="218.167815,275.000000 218.167815,279.000000"/>
	<polyline style="shape-rendering:crispEdges" fill="none" stroke="rgb(0,0,0)" stroke-width="1" stroke-opacity="1" points="223.978906,275.000000 223.978906,279.000000"/>
	<polyline style="shape-rendering:crispEdges" fill="none" stroke="rgb(0,0,0)" stroke-width="1" stroke-opacity="1" points="229.698480,275.000000 229.698480,279.000000"/>
	<polyline style="shape-rendering:crispEdges" fill="none" stroke="rgb(0,0,0)" stroke-width="1" stroke-opacity="1" points="235.329375,275.000000 235.329375,279.000000"/>
	<polyline style="shape-rendering:crispEdges" fill="none" stroke="rgb(0,0,0)" stroke-width="1" stroke-opacity="1" points="240.874299,275.000000 240.874299,279.000000"/>
	<polyline style="shape-rendering:crispEdges" fill="none" stroke="rgb(0,0,0)" stroke-width="1" stroke-opacity="1" points="246.335837,275.000000 246.335837,279.000000"/>
	<polyline style="shape-rendering:crispEdges" fill="none" stroke="rgb(0,0,0)" stroke-width="1" stroke-opacity="1" points="251.716461,275.000000 251.716461,279.000000"/>
	<polyline style="shape-rendering:crispEdges" fill="none" stroke="rgb(0,0,0)" stroke-width="1" stroke-opacity="1" points="257.018532,275.000000 257.018532,279.000000"/>
	<polyline style="shape-rendering:crispEdges" fill="none" stroke="rgb(0,0,0)" stroke-width="1" stroke-opacity="1" points="262.244313,275.000000 262.244313,279.000000"/>
	<polyline style="shape-rendering:crispEdges" fill="none" stroke="rgb(0,0,0)" stroke-width="1" stroke-opacity="1" points="267.395966,275.000000 267.395966,279.000000"/>
	<polyline style="shape-rendering:crispEdges" fill="none" stroke="rgb(0,0,0)" stroke-width="1" stroke-opacity="1" points="272.475565,275.000000 272.475565,279.000000"/>
	<polyline style="shape-rendering:crispEdges" fill="none" stroke="rgb(0,0,0)" stroke-width="1" stroke-opacity="1" points="277.485099,275.000000 277.485099,279.000000"/>
	<polyline style="shape-rendering:crispEdges" fill="none" stroke="rgb(0,0,0)" stroke-width="1" stroke-opacity="1" points="282.426474,275.000000 282.426474,279.000000"/>
	<polyline style="shape-rendering:crispEdges" fill="none" stroke="rgb(0,0,0)" stroke-width="1" stroke-opacity="1" points="287.301520,275.000000 287.301520,279.000000"/>
	<polyline style="shape-rendering:crispEdges" fill="none" stroke="rgb(0,0,0)" stroke-width="1" stroke-opacity="1" points="292.111993,275.000000 292.111993,279.000000"/>
	<polyline style="shape-rendering:crispEdges" fill="none" stroke="rgb(0,0,0)" stroke-width="1" stroke-opacity="1" points="296.859583,275.000000 296.859583,279.000000"/>
	<polyline style="shape-rendering:crispEdges" fill="none" stroke="rgb(0,0,0)" stroke-width="1" stroke-opacity="1" points="301.545912,275.000000 301.545912,279.000000"/>
	<polyline style="shape-rendering:crispEdges" fill="none" stroke="rgb(0,0,0)" stroke-width="1" stroke-opacity="1" points="306.172541,275.000000 306.172541,279.000000"/>
	<polyline style="shape-rendering:crispEdges" fill="none" stroke="rgb(0,0,0)" stroke-width="1" stroke-opacity="1" points="310.740972,275.000000 310.740972,279.000000"/>
	<polyline style="shape-rendering:crispEdges" fill="none" stroke="rgb(0,0,0)" stroke-width="1" stroke-opacity="1" points="315.252650,275.000000 315.252650,279.000000"/>
	<polyline style="shape-rendering:crispEdges" fill="none" stroke="rgb(0,0,0)" stroke-width="1" stroke-opacity="1" points="319.708969,275.000000 319.708969,279.000000"/>
	<polyline style="shape-rendering:crispEdges" fill="none" stroke="rgb(0,0,0)" stroke-width="1" stroke-opacity="1" points="324.111271,275.000000 324.111271,279.000000"/>
	<polyline style="shape-rendering:crispEdges" fill="none" stroke="rgb(0,0,0)" stroke-width="1" stroke-opacity="1" points="328.460849,275.000000 328.460849,279.000000"/>
	<polyline style="shape-rendering:crispEdges" fill="none" stroke="rgb(0,0,0)" stroke-width="1" stroke-opacity="1" points="332.758952,275.000000 332.758952,279.000000"/>
	<polyline style="shape-rendering:crispEdges" fill="none" stroke="rgb(0,0,0)" stroke-width="1" stroke-opacity="1" points="337.006784,275.000000 337.006784,279.000000"/>
	<polyline style="shape-rendering:crispEdges" fill="none" stroke="rgb(0,0,0)" stroke-width="1" stroke-opacity="1" points="341.205506,275.000000 341.205506,279.000000"/>
	<polyline style="shape-rendering:crispEdges" fill="none" stroke="rgb(0,0,0)" stroke-width="1" stroke-opacity="1" points="345.356242,275.000000 345.356242,279.000000"/>
	<polyline style="shape-rendering:crispEdges" fill="none" stroke="rgb(0,0,0)" stroke-width="1" stroke-opacity="1" points="349.460076,275.000000 349.460076,279.000000"/>
	<polyline style="shape-rendering:crispEdges" fill="none" stroke="rgb(0,0,0)" stroke-width="1" stroke-opacity="1" points="353.518057,275.000000 353.518057,279.000000"/>
	<polyline style="shape-rendering:crispEdges" fill="none" stroke="rgb(0,0,0)" stroke-width="1" stroke-opacity="1" points="357.531196,275.000000 357.531196,279.000000"/>
	<polyline style="shape-rendering:crispEdges" fill="none" stroke="rgb(0,0,0)" stroke-width="1" stroke-opacity="1" points="361.500476,275.000000 361.500476,279.000000"/>
	<polyline style="shape-rendering:crispEdges" fill="none" stroke="rgb(0,0,0)" stroke-width="1" stroke-opacity="1" points="365.426843,275.000000 365.426843,279.000000"/>
	<polyline style="shape-rendering:crispEdges" fill="none" stroke="rgb(0,0,0)" stroke-width="1" stroke-opacity="1" points="369.311217,275.000000 369.311217,279.000000"/>
	<polyline style="shape-rendering:crispEdges" fill="none" stroke="rgb(0,0,0)" stroke-width="1" stroke-opacity="1" points="373.154485,275.000000 373.154485,279.000000"/>
	<polyline style="shape-rendering:crispEdges" fill="none" stroke="rgb(0,0,0)" stroke-width="1" stroke-opacity="1" points="376.957509,275.000000 376.957509,279.000000"/>
	<polyline style="shape-rendering:crispEdges" fill="none" stroke="rgb(0,0,0)" stroke-width="1" stroke-opacity="1" points="380.721122,275.000000 380.721122,279.000000"/>
	<polyline style="shape-rendering:crispEdges" fill="none" stroke="rgb(0,0,0)" stroke-width="1" stroke-opacity="1" points="384.446134,275.000000 384.446134,279.000000"/>
	<polyline style="shape-rendering:crispEdges" fill="none" stroke="rgb(0,0,0)" stroke-width="1" stroke-opacity="1" points="388.133327,275.000000 388.133327,279.000000"/>
	<polyline style="shape-rendering:crispEdges" fill="none" stroke="rgb(0,0,0)" stroke-width="1" stroke-opacity="1" points="391.783463,275.000000 391.783463,279.000000"/>
	<polyline style="shape-rendering:crispEdges" fill="none" stroke="rgb(0,0,0)" stroke-width="1" stroke-opacity="1" points="395.397278,275.000000 395.397278,279.000000"/>
	<polyline style="shape-rendering:crispEdges" fill="none" stroke="rgb(0,0,0)" stroke-width="1" stroke-opacity="1" points="398.975489,275.000000 398.975489,279.000000"/>
	<polyline style="shape-rendering:crispEdges" fill="none" stroke="rgb(0,0,0)" stroke-width="1" stroke-opacity="1" points="402.518790,275.000000 402.518790,279.000000"/>
	<polyline style="shape-rendering:crispEdges" fill="none" stroke="rgb(0,0,0)" stroke-width="1" stroke-opacity="1" points="406.027856,275.000000 406.027856,279.000000"/>
	<polyline style="shape-rendering:crispEdges" fill="none" stroke="rgb(0,0,0)" stroke-width="1" stroke-opacity="1" points="409.503341,275.000000 409.503341,279.000000"/>
	<polyline style="shape-rendering:crispEdges" fill="none" stroke="rgb(0,0,0)" stroke-width="1" stroke-opacity="1" points="412.945883,275.000000 412.945883,279.000000"/>
	<polyline style="shape-rendering:crispEdges" fill="none" stroke="rgb(0,0,0)" stroke-width="1" stroke-opacity="1" points="416.356100,275.000000 416.356100,279.000000"/>
	<polyline style="shape-rendering:crispEdges" fill="none" stroke="rgb(0,0,0)" stroke-width="1" stroke-opacity="1" points="419.734594,275.000000 419.734594,279.000000"/>
	<polyline style="shape-rendering:crispEdges" fill="none" stroke="rgb(0,0,0)" stroke-width="1" stroke-opacity="1" points="423.081949,275.000000 423.081949,279.000000"/>
	<polyline style="shape-rendering:crispEdges" fill="none" stroke="rgb(0,0,0)" stroke-width="1" stroke-opacity="1" points="426.398734,275.000000 426.398734,279.000000"/>
	<polyline style="shape-rendering:crispEdges" fill="none" stroke="rgb(0,0,0)" stroke-width="1" stroke-opacity="1" points="429.685502,275.000000 429.685502,279.000000"/>
	<polyline style="shape-rendering:crispEdges" fill="none" stroke="rgb(0,0,0)" stroke-width="1" stroke-opacity="1" points="432.942793,275.000000 432.942793,279.000000"/>
	<polyline style="shape-rendering:crispEdges" fill="none" stroke="rgb(0,0,0)" stroke-width="1" stroke-opacity="1" points="436.171129,275.000000 436.171129,279.000000"/>
	<polyline style="shape-rendering:crispEdges" fill="none" stroke="rgb(0,0,0)" stroke-width="1" stroke-opacity="1" points="439.371022,275.000000 439.371022,279.000000"/>
	<polyline style="shape-rendering:crispEdges" fill="none" stroke="rgb(0,0,0)" stroke-width="1" stroke-opacity="1" points="442.542967,275.000000 442.542967,279.000000"/>
	<polyline style="shape-rendering:crispEdges" fill="none" stroke="rgb(0,0,0)" stroke-width="1" stroke-opacity="1" points="445.687450,275.000000 445.687450,279.000000"/>
	<polyline style="shape-rendering:crispEdges" fill="none" stroke="rgb(0,0,0)" stroke-width="1" stroke-opacity="1" points="448.804940,275.000000 448.804940,279.000000"/>
	<polyline style="shape-rendering:crispEdges" fill="none" stroke="rgb(0,0,0)" stroke-width="1" stroke-opacity="1" points="451.895899,275.000000 451.895899,279.000000"/>
	<polyline style="shape-rendering:crispEdges" fill="none" stroke="rgb(0,0,0)" stroke-width="1" stroke-opacity="1" points="454.960773,275.000000 454.960773,279.000000"/>
	<polyline style="shape-rendering:crispEdges" fill="none" stroke="rgb(0,0,0)" stroke-width="1" stroke-opacity="1" points="458.000000,275.000000 458.000000,279.000000"/>
	<polyline style="shape-rendering:crispEdges" fill="none" stroke="rgb(0,0,0)" stroke-width="1" stroke-opacity="1" points="59.000000,275.000000 59.000000,281.400000"/>
	<text style="shape-rendering:crispEdges" x="59" y="291.5" fill="rgb(0,0,0)" dominant-baseline="central" font-size="11" font-family="Arial" text-anchor="middle">20</text>
	<polyline style="shape-rendering:crispEdges" fill="none" stroke="rgb(0,0,0)" stroke-width="1" stroke-opacity="1" points="140.042491,275.000000 140.042491,281.400000"/>
	<text style="shape-rendering:crispEdges" x="140.042" y="291.5" fill="rgb(0,0,0)" dominant-baseline="central" font-size="11" font-family="Arial" text-anchor="middle">25</text>
	<polyline style="shape-rendering:crispEdges" fill="none" stroke="rgb(0,0,0)" stroke-width="1" stroke-opacity="1" points="206.259028,275.000000 206.259028,281.400000"/>
	<text style="shape-rendering:crispEdges" x="206.259" y="291.5" fill="rgb(0,0,0)" dominant-baseline="central" font-size="11" font-family="Arial" text-anchor="middle">30</text>
	<polyline style="shape-rendering:crispEdges" fill="none" stroke="rgb(0,0,0)" stroke-width="1" stroke-opacity="1" points="262.244313,275.000000 262.244313,281.400000"/>
	<text style="shape-rendering:crispEdges" x="262.244" y="291.5" fill="rgb(0,0,0)" dominant-baseline="central" font-size="11" font-family="Arial" text-anchor="middle">35</text>
	<polyline style="shape-rendering:crispEdges" fill="none" stroke="rgb(0,0,0)" stroke-width="1" stroke-opacity="1" points="310.740972,275.000000 310.740972,281.400000"/>
	<text style="shape-rendering:crispEdges" x="310.741" y="291.5" fill="rgb(0,0,0)" dominant-baseline="central" font-size="11" font-family="Arial" text-anchor="middle">40</text>
	<polyline style="shape-rendering:crispEdges" fill="none" stroke="rgb(0,0,0)" stroke-width="1" stroke-opacity="1" points="353.518057,275.000000 353.518057,281.400000"/>
	<text style="shape-rendering:crispEdges" x="353.518" y="291.5" fill="rgb(0,0,0)" dominant-baseline="central" font-size="11" font-family="Arial" text-anchor="middle">45</text>
	<polyline style="shape-rendering:crispEdges" fill="none" stroke="rgb(0,0,0)" stroke-width="1" stroke-opacity="1" points="391.783463,275.000000 391.783463,281.400000"/>
	<text style="shape-rendering:crispEdges" x="391.783" y="291.5" fill="rgb(0,0,0)" dominant-baseline="central" font-size="11" font-family="Arial" text-anchor="middle">50</text>
	<polyline style="shape-rendering:crispEdges" fill="none" stroke="rgb(0,0,0)" stroke-width="1" stroke-opacity="1" points="426.398734,275.000000 426.398734,281.400000"/>
	<text style="shape-rendering:crispEdges" x="426.399" y="291.5" fill="rgb(0,0,0)" dominant-baseline="central" font-size="11" font-family="Arial" text-anchor="middle">55</text>
	<polyline style="shape-rendering:crispEdges" fill="none" stroke="rgb(0,0,0)" stroke-width="1" stroke-opacity="1" points="458.000000,275.000000 458.000000,281.400000"/>
	<text style="shape-rendering:crispEdges" x="458" y="291.5" fill="rgb(0,0,0)" dominant-baseline="central" font-size="11" font-family="Arial" text-anchor="middle">60</text>
	<polyline style="shape-rendering:crispEdges" fill="none" stroke="rgb(0,0,0)" stroke-width="1" stroke-opacity="1" points="55.000000,275.000000 59.000000,275.000000"/>
	<polyline style="shape-rendering:crispEdges" fill="none" stroke="rgb(0,0,0)" stroke-width="1" stroke-opacity="1" points="55.000000,238.142857 59.000000,238.142857"/>
	<polyline style="shape-rendering:crispEdges" fill="none" stroke="rgb(0,0,0)" stroke-width="1" stroke-opacity="1" points="55.000000,201.285714 59.000000,201.285714"/>
	<polyline style="shape-rendering:crispEdges" fill="none" stroke="rgb(0,0,0)" stroke-width="1" stroke-opacity="1" points="55.000000,164.428571 59.000000,164.428571"/>
	<polyline style="shape-rendering:crispEdges" fill="none" stroke="rgb(0,0,0)" stroke-width="1" stroke-opacity="1" points="55.000000,127.571429 59.000000,127.571429"/>
	<polyline style="shape-rendering:crispEdges" fill="none" stroke="rgb(0,0,0)" stroke-width="1" stroke-opacity="1" points="55.000000,90.714286 59.000000,90.714286"/>
	<polyline style="shape-rendering:crispEdges" fill="none" stroke="rgb(0,0,0)" stroke-width="1" stroke-opacity="1" points="55.000000,53.857143 59.000000,53.857143"/>
	<polyline style="shape-rendering:crispEdges" fill="none" stroke="rgb(0,0,0)" stroke-width="1" stroke-opacity="1" points="55.000000,17.000000 59.000000,17.000000"/>
	<rect style="shape-rendering:crispEdges" fill="none" stroke="none" stroke-dasharray="none" stroke-width="1" stroke-opacity="1" x="0" y="267" width="51" height="16"/>
	<polyline style="shape-rendering:crispEdges" fill="none" stroke="rgb(0,0,0)" stroke-width="1" stroke-opacity="1" points="52.600000,275.000000 59.000000,275.000000"/>
	<text style="shape-rendering:crispEdges" x="51" y="275" fill="rgb(0,0,0)" dominant-baseline="central" font-size="11" font-family="Arial" text-anchor="end">7.1</text>
	<polyline style="shape-rendering:crispEdges" fill="none" stroke="rgb(0,0,0)" stroke-width="1" stroke-opacity="1" points="52.600000,238.142857 59.000000,238.142857"/>
	<text style="shape-rendering:crispEdges" x="51" y="238.143" fill="rgb(0,0,0)" dominant-baseline="central" font-size="11" font-family="Arial" text-anchor="end">7.2</text>
	<polyline style="shape-rendering:crispEdges" fill="none" stroke="rgb(0,0,0)" stroke-width="1" stroke-opacity="1" points="52.600000,201.285714 59.000000,201.285714"/>
	<text style="shape-rendering:crispEdges" x="51" y="201.286" fill="rgb(0,0,0)" dominant-baseline="central" font-size="11" font-family="Arial" text-anchor="end">7.3</text>
	<polyline style="shape-rendering:crispEdges" fill="none" stroke="rgb(0,0,0)" stroke-width="1" stroke-opacity="1" points="52.600000,164.428571 59.000000,164.428571"/>
	<text style="shape-rendering:crispEdges" x="51" y="164.429" fill="rgb(0,0,0)" dominant-baseline="central" font-size="11" font-family="Arial" text-anchor="end">7.4</text>
	<polyline style="shape-rendering:crispEdges" fill="none" stroke="rgb(0,0,0)" stroke-width="1" stroke-opacity="1" points="52.600000,127.571429 59.000000,127.571429"/>
	<text style="shape-rendering:crispEdges" x="51" y="127.571" fill="rgb(0,0,0)" dominant-baseline="central" font-size="11" font-family="Arial" text-anchor="end">7.5</text>
	<polyline style="shape-rendering:crispEdges" fill="none" stroke="rgb(0,0,0)" stroke-width="1" stroke-opacity="1" points="52.600000,90.714286 59.000000,90.714286"/>
	<text style="shape-rendering:crispEdges" x="51" y="90.7143" fill="rgb(0,0,0)" dominant-baseline="central" font-size="11" font-family="Arial" text-anchor="end">7.6</text>
	<polyline style="shape-rendering:crispEdges" fill="none" stroke="rgb(0,0,0)" stroke-width="1" stroke-opacity="1" points="52.600000,53.857143 59.000000,53.857143"/>
	<text style="shape-rendering:crispEdges" x="51" y="53.8571" fill="rgb(0,0,0)" dominant-baseline="central" font-size="11" font-family="Arial" text-anchor="end">7.7</text>
	<polyline style="shape-rendering:crispEdges" fill="none" stroke="rgb(0,0,0)" stroke-width="1" stroke-opacity="1" points="52.600000,17.000000 59.000000,17.000000"/>
	<text style="shape-rendering:crispEdges" x="51" y="17" fill="rgb(0,0,0)" dominant-baseline="central" font-size="11" font-family="Arial" text-anchor="end">7.8</text>
	<clipPath id="clipArea1">
		<rect x="59" y="17" width="399" height="258">
		</rect>
	</clipPath>
	<polyline fill="none" stroke="rgb(0,140,72)" stroke-width="1" stroke-opacity="1" clip-path="url(#clipArea1)" points="57.510091,221.709032 61.398301,221.472123 65.238140,221.232226 69.030226,220.989517 72.775257,220.743645 76.473779,220.494961 80.126455,220.243465 83.733863,219.989156 87.296628,219.731861 90.815294,219.471753 94.290455,219.209009 97.722685,218.943277 101.112512,218.674909 104.460478,218.403905 107.767144,218.130088 111.033020,217.853636 114.258606,217.574547 117.444443,217.292646 120.591000,217.008285 123.698793,216.721464 126.768261,216.431830 129.799921,216.139736 132.794215,215.845181 135.751632,215.547991 138.672562,215.248515 141.557495,214.946403 144.406852,214.641831 147.221070,214.334798 150.000548,214.025481 152.745697,213.713703 155.456948,213.399464 158.134691,213.082941 160.779305,212.764133 163.391186,212.443041 165.970717,212.119488 168.518274,211.793826 171.034194,211.465703 173.518883,211.135472 175.972658,210.802955 178.395879,210.468154 180.788923,210.131244 183.152054,209.792225 185.485678,209.450922 187.790094,209.107333 190.065616,208.761812 192.312548,208.414005 194.531237,208.064266 196.721971,207.712241 198.885054,207.358284 201.020782,207.002217 203.129446,206.644042 205.211325,206.283933 207.266716,205.921715 209.295886,205.557388 211.299117,205.191128 213.276682,204.822935 215.228828,204.452809 217.155838,204.080573 219.057965,203.706405 220.935435,203.330303 222.788534,202.952268 224.617495,202.572475 226.422548,202.190573 228.203937,201.806914 229.961922,201.421146 231.696670,201.033621 233.408472,200.644338 235.097527,200.253121 236.764073,199.859972 238.408297,199.465065 240.030382,199.068224 241.630634,198.669627 243.209183,198.269272 244.766280,197.867159 246.302089,197.463113 247.816850,197.057310 249.310676,196.649749 250.783840,196.240255 252.236526,195.829179 253.668875,195.416345 255.081103,195.001579 256.473384,194.585230 257.845923,194.167125 259.198806,193.747086 260.532310,193.325465 261.846552,192.902087 263.141722,192.477127 264.417967,192.050233 265.675431,191.621758 266.914332,191.191526 268.134806,190.759536 269.336946,190.325964 270.520998,189.890635 271.687086,189.453548 272.835333,189.014880 273.965857,188.574454 275.078888,188.132271 276.174538,187.688506 277.252878,187.243159 278.314165,186.795879 279.358426,186.347193 280.385836,185.896573 281.396567,185.444372 282.390675,184.990590 283.368364,184.535049 284.329720,184.077752 285.274829,183.618872 286.203885,183.158411 287.116969,182.696192 288.014231,182.232216 288.895745,181.766658 289.761621,181.299343 290.612039,180.830446 291.447029,180.359791 292.266765,179.887555 293.071347,179.413561 293.860835,178.937985 294.635359,178.460652 295.395046,177.981562 296.139988,177.500714 296.870235,177.018284 297.585944,176.534272 298.287198,176.048328 298.974079,175.560801 299.646700,175.071517 300.305103,174.580651 300.949434,174.087852 301.579765,173.593472 302.196203,173.097334 302.798782,172.599438 303.387639,172.099785 303.962803,171.598374 304.524409,171.095206 305.072519,170.590456 305.607191,170.083773 306.128520,169.575333 306.636596,169.065135 307.131438,168.553003 307.613206,168.039290 308.081879,167.523644 308.537613,167.006240 308.980421,166.487079 309.410348,165.965985 309.827545,165.443133 310.232019,164.918347 310.623814,164.391629 311.003037,163.863329 311.369764,163.332920 311.723997,162.800753 312.065806,162.266653 312.395296,161.730620 312.712464,161.192654 313.017378,160.652754 313.310137,160.110922 313.590735,159.567156 313.859270,159.021456 314.115733,158.473824 314.360219,157.924258 314.592786,157.372583 314.813422,156.818800 315.022217,156.263259 315.219193,155.705433 315.404436,155.145673 315.577930,154.583805 315.739726,154.020004 315.889873,153.453918 316.028387,152.885899 316.155349,152.315595 316.270771,151.743357 316.374663,151.168835 316.467104,150.592204 316.548069,150.013288 316.617633,149.432264 316.675804,148.849130 316.722585,148.263536 316.758051,147.675833 316.782203,147.085845 316.795079,146.493572 316.796680,145.899191 316.787006,145.302173 316.766124,144.703046 316.734033,144.101634 316.690728,143.497587 316.636275,142.891430 316.570668,142.282637 316.493867,141.671559 316.405968,141.058021 316.306928,140.442022 316.196773,139.823563 316.075525,139.202644 315.943141,138.579088 315.799710,137.953071 315.645151,137.324594 315.479518,136.693306 315.302796,136.059556 315.114969,135.423171 314.916088,134.784149 314.706101,134.142491 314.485023,133.498021 314.252833,132.851091 314.009545,132.201173 313.755171,131.548618 313.489653,130.893252 313.213036,130.235074 312.925260,129.574083 312.626333,128.910281 312.316228,128.243491 311.994950,127.573889 311.662472,126.901475 311.318761,126.226073 310.963821,125.547508 310.597619,124.866131 310.220157,124.181766 309.831364,123.494238 309.431240,122.803722 309.019747,122.110042 308.596883,121.413199 308.162572,120.713193 307.716845,120.010199 307.259590,119.303865 306.790869,118.594368 306.310533,117.881532 305.818642,117.165357 305.315116,116.446018 304.799906,115.723164 304.272963,114.997147 303.734273,114.267615 303.183750,113.534567 302.621411,112.798181 302.047132,112.058280 301.460893,111.314863 300.862637,110.567932 300.252343,109.817486 299.629880,109.063173 298.995258,108.305521 298.348415,107.544002 297.689217,106.778793 297.017705,106.009893 296.333706,105.237303 295.637224,104.460845 294.928152,103.680522 294.206456,102.896508 293.471990,102.108451 292.724753,101.316528 291.964669,100.520563 291.191587,99.720731 290.405464,98.916682 289.606218,98.108765 288.793767,97.296631 287.968026,96.480455 287.128871,95.660061 286.276250,94.835624 285.409999,94.006794 284.530099,93.173746 283.636419,92.336304 282.728824,91.494644 281.807253,90.648591 280.871567,89.798144 279.921663,88.943127 278.957436,88.083717 277.978740,87.219912 276.985503,86.351363 275.977536,85.478244 274.954800,84.600556 273.917101,83.718122 272.864320,82.831120 271.796333,81.939196 270.713015,81.042527 269.614198,80.141112 268.499714,79.234777 267.369505,78.323696 266.223317,77.407519 265.061089,76.486421 263.882599,75.560226 262.687700,74.628935 261.476243,73.692722 260.248034,72.751237 259.002958,71.804480 257.740734,70.852625 256.461318,69.895499 255.164382,68.933100 253.849836,67.965252 252.517463,66.992133 251.167084,66.013565 249.798476,65.029373 248.411409,64.039733 247.005691,63.044644 245.581125,62.043756 244.137469,61.037420 242.674516,60.025284 241.192056,59.007349 239.689789,57.983613 238.167494,56.954254 236.624987,55.918744 235.061908,54.877609 233.478105,53.830324 231.873249,52.777063 230.247091,51.717650 228.599353,50.652263 226.929732,49.580724 225.237980,48.503034 223.523778,47.419016 221.786801,46.328672 220.026760,45.232177 218.243358,44.129179 216.436225,43.019679 214.605049,41.903851 212.749511,40.781345 210.869214,39.652336 208.963822,38.516825 207.032966,37.374459 205.076292,36.225415 203.093367,35.069693 201.083840,33.907116 199.047258,32.737510 196.983273,31.561225 194.891386,30.377910 192.771204,29.187389 190.622253,27.990014 188.444093,26.785433 186.236249,25.573647 183.998207,24.354655 181.729514,23.128282 179.429605,21.894703 177.098001,20.653742 174.734155,19.405400 172.337483,18.149501 169.907434,16.886045 167.443416,15.615031 164.944843,14.336285 162.411064,13.049981 159.841485,11.755769 157.235413,10.453823 154.592166,9.143969 151.911089,7.826207 149.191430,6.500535 146.432466,5.166780 143.633426,3.824939 140.793566,2.475015 137.912039,1.116830 134.987996,-0.249615 132.020618,-1.624320 129.009029,-3.007461 125.952269,-4.398863 122.849431,-5.798876 119.699518,-7.207500 116.501500,-8.624561 113.254400,-10.050409 109.957087,-11.484868 106.608479,-12.928116 103.207397,-14.380150 99.752648,-15.841148 96.243026,-17.311109 92.677218,-18.790033 89.053925,-20.277920 85.371735,-21.775122 81.629245,-23.281287 77.824966,-24.796943 73.957382,-26.321737 70.024850,-27.856022 66.025762,-29.399621 61.958308,-30.952711 57.820773,-32.515468 53.611268,-34.087714 49.327822,-35.669627 44.968413,-37.261381 40.530896,-38.862802 36.013103,-40.474241 31.412693,-42.095521 26.727295,-43.726643 21.954349,-45.367959 17.091215,-47.019468 12.135125,-48.680995 7.083256,-50.352891 1.932483,-52.034981 -3.320311,-53.727615 -8.678527,-55.430618 -14.145659,-57.144167 -19.725343,-58.867908 -25.421562,-60.602547 -31.238364,-62.348081 -37.180087,-64.104161 -43.251295,-65.871137 -49.456838,-67.649009 -55.801804,-69.437778 -62.291587,-71.237443 -68.931962,-73.048356 -75.729011,-74.870517 -82.689209,-76.703926 -89.819423,-78.548583 -97.127031,-80.404488 -104.619888,-82.271992 -112.306339,-84.151095 -120.195380,-86.041447 -128.296634,-87.943749 -136.620414,-89.857299 -136.620414,-89.857299"/>
</svg>
