<?xml version="1.0" standalone="no"?>
<!DOCTYPE svg PUBLIC "-//W3C//DTD SVG 1.1//EN" "http://www.w3.org/Graphics/SVG/1.1/DTD/svg11.dtd">
<svg width="483" height="300" version="1.1" xmlns="http://www.w3.org/2000/svg" xmlns:xlink="http://www.w3.org/1999/xlink">
	<polyline style="shape-rendering:crispEdges" fill="none" stroke="rgb(229,229,229)" stroke-width="1" stroke-opacity="1" points="59.000000,17.000000 59.000000,275.000000"/>
	<polyline style="shape-rendering:crispEdges" fill="none" stroke="rgb(229,229,229)" stroke-width="1" stroke-opacity="1" points="67.967998,17.000000 67.967998,275.000000"/>
	<polyline style="shape-rendering:crispEdges" fill="none" stroke="rgb(229,229,229)" stroke-width="1" stroke-opacity="1" points="76.719878,17.000000 76.719878,275.000000"/>
	<polyline style="shape-rendering:crispEdges" fill="none" stroke="rgb(229,229,229)" stroke-width="1" stroke-opacity="1" points="85.265812,17.000000 85.265812,275.000000"/>
	<polyline style="shape-rendering:crispEdges" fill="none" stroke="rgb(229,229,229)" stroke-width="1" stroke-opacity="1" points="93.615271,17.000000 93.615271,275.000000"/>
	<polyline style="shape-rendering:crispEdges" fill="none" stroke="rgb(229,229,229)" stroke-width="1" stroke-opacity="1" points="101.777085,17.000000 101.777085,275.000000"/>
	<polyline style="shape-rendering:crispEdges" fill="none" stroke="rgb(229,229,229)" stroke-width="1" stroke-opacity="1" points="109.759504,17.000000 109.759504,275.000000"/>
	<polyline style="shape-rendering:crispEdges" fill="none" stroke="rgb(229,229,229)" stroke-width="1" stroke-opacity="1" points="117.570245,17.000000 117.570245,275.000000"/>
	<polyline style="shape-rendering:crispEdges" fill="none" stroke="rgb(229,229,229)" stroke-width="1" stroke-opacity="1" points="125.216537,17.000000 125.216537,275.000000"/>
	<polyline style="shape-rendering:crispEdges" fill="none" stroke="rgb(229,229,229)" stroke-width="1" stroke-opacity="1" points="132.705162,17.000000 132.705162,275.000000"/>
	<polyline style="shape-rendering:crispEdges" fill="none" stroke="rgb(229,229,229)" stroke-width="1" stroke-opacity="1" points="140.042491,17.000000 140.042491,275.000000"/>
	<polyline style="shape-rendering:crispEdges" fill="none" stroke="rgb(229,229,229)" stroke-width="1" stroke-opacity="1" points="147.234518,17.000000 147.234518,275.000000"/>
	<polyline style="shape-rendering:crispEdges" fill="none" stroke="rgb(229,229,229)" stroke-width="1" stroke-opacity="1" points="154.286884,17.000000 154.286884,275.000000"/>
	<polyline style="shape-rendering:crispEdges" fill="none" stroke="rgb(229,229,229)" stroke-width="1" stroke-opacity="1" points="161.204911,17.000000 161.204911,275.000000"/>
	<polyline style="shape-rendering:crispEdges" fill="none" stroke="rgb(229,229,229)" stroke-width="1" stroke-opacity="1" points="167.993622,17.000000 167.993622,275.000000"/>
	<polyline style="shape-rendering:crispEdges" fill="none" stroke="rgb(229,229,229)" stroke-width="1" stroke-opacity="1" points="174.657762,17.000000 174.657762,275.000000"/>
	<polyline style="shape-rendering:crispEdges" fill="none" stroke="rgb(229,229,229)" stroke-width="1" stroke-opacity="1" points="181.201821,17.000000 181.201821,275.000000"/>
	<polyline style="shape-rendering:crispEdges" fill="none" stroke="rgb(229,229,229)" stroke-width="1" stroke-opacity="1" points="187.630050,17.000000 187.630050,275.000000"/>
	<polyline style="shape-rendering:crispEdges" fill="none" stroke="rgb(229,229,229)" stroke-width="1" stroke-opacity="1" points="193.946478,17.000000 193.946478,275.000000"/>
	<polyline style="shape-rendering:crispEdges" fill="none" stroke="rgb(229,229,229)" stroke-width="1" stroke-opacity="1" points="200.154927,17.000000 200.154927,275.000000"/>
	<polyline style="shape-rendering:crispEdges" fill="none" stroke="rgb(229,229,229)" stroke-width="1" stroke-opacity="1" points="206.259028,17.000000 206.259028,275.000000"/>
	<polyline style="shape-rendering:crispEdges" fill="none" stroke="rgb(229,229,229)" stroke-width="1" stroke-opacity="1" points="212.262230,17.000000 212.262230,275.000000"/>
	<polyline style="shape-rendering:crispEdges" fill="none" stroke="rgb(229,229,229)" stroke-width="1" stroke-opacity="1" points="218.167815,17.000000 218.167815,275.000000"/>
	<polyline style="shape-rendering:crispEdges" fill="none" stroke="rgb(229,229,229)" stroke-width="1" stroke-opacity="1" points="223.978906,17.000000 223.978906,275.000000"/>
	<polyline style="shape-rendering:crispEdges" fill="none" stroke="rgb(229,229,229)" stroke-width="1" stroke-opacity="1" points="229.698480,17.000000 229.698480,275.000000"/>
	<polyline style="shape-rendering:crispEdges" fill="none" stroke="rgb(229,229,229)" stroke-width="1" stroke-opacity="1" points="235.329375,17.000000 235.329375,275.000000"/>
	<polyline style="shape-rendering:crispEdges" fill="none" stroke="rgb(229,229,229)" stroke-width="1" stroke-opacity="1" points="240.874299,17.000000 240.874299,275.000000"/>
	<polyline style="shape-rendering:crispEdges" fill="none" stroke="rgb(229,229,229)" stroke-width="1" stroke-opacity="1" points="246.335837,17.000000 246.335837,275.000000"/>
	<polyline style="shape-rendering:crispEdges" fill="none" stroke="rgb(229,229,229)" stroke-width="1" stroke-opacity="1" points="251.716461,17.000000 251.716461,275.000000"/>
	<polyline style="shape-rendering:crispEdges" fill="none" stroke="rgb(229,229,229)" stroke-width="1" stroke-opacity="1" points="257.018532,17.000000 257.018532,275.000000"/>
	<polyline style="shape-rendering:crispEdges" fill="none" stroke="rgb(229,229,229)" stroke-width="1" stroke-opacity="1" points="262.244313,17.000000 262.244313,275.000000"/>
	<polyline style="shape-rendering:crispEdges" fill="none" stroke="rgb(229,229,229)" stroke-width="1" stroke-opacity="1" points="267.395966,17.000000 267.395966,275.000000"/>
	<polyline style="shape-rendering:crispEdges" fill="none" stroke="rgb(229,229,229)" stroke-width="1" stroke-opacity="1" points="272.475565,17.000000 272.475565,275.000000"/>
	<polyline style="shape-rendering:crispEdges" fill="none" stroke="rgb(229,229,229)" stroke-width="1" stroke-opacity="1" points="277.485099,17.000000 277.485099,275.000000"/>
	<polyline style="shape-rendering:crispEdges" fill="none" stroke="rgb(229,229,229)" stroke-width="1" stroke-opacity="1" points="282.426474,17.000000 282.426474,275.000000"/>
	<polyline style="shape-rendering:crispEdges" fill="none" stroke="rgb(229,229,229)" stroke-width="1" stroke-opacity="1" points="287.301520,17.000000 287.301520,275.000000"/>
	<polyline style="shape-rendering:crispEdges" fill="none" stroke="rgb(229,229,229)" stroke-width="1" stroke-opacity="1" points="292.111993,17.000000 292.111993,275.000000"/>
	<polyline style="shape-rendering:crispEdges" fill="none" stroke="rgb(229,229,229)" stroke-width="1" stroke-opacity="1" points="296.859583,17.000000 296.859583,275.000000"/>
	<polyline style="shape-rendering:crispEdges" fill="none" stroke="rgb(229,229,229)" stroke-width="1" stroke-opacity="1" points="301.545912,17.000000 301.545912,275.000000"/>
	<polyline style="shape-rendering:crispEdges" fill="none" stroke="rgb(229,229,229)" stroke-width="1" stroke-opacity="1" points="306.172541,17.000000 306.172541,275.000000"/>
	<polyline style="shape-rendering:crispEdges" fill="none" stroke="rgb(229,229,229)" stroke-width="1" stroke-opacity="1" points="310.740972,17.000000 310.740972,275.000000"/>
	<polyline style="shape-rendering:crispEdges" fill="none" stroke="rgb(229,229,229)" stroke-width="1" stroke-opacity="1" points="315.252650,17.000000 315.252650,275.000000"/>
	<polyline style="shape-rendering:crispEdges" fill="none" stroke="rgb(229,229,229)" stroke-width="1" stroke-opacity="1" points="319.708969,17.000000 319.708969,275.000000"/>
	<polyline style="shape-rendering:crispEdges" fill="none" stroke="rgb(229,229,229)" stroke-width="1" stroke-opacity="1" points="324.111271,17.000000 324.111271,275.000000"/>
	<polyline style="shape-rendering:crispEdges" fill="none" stroke="rgb(229,229,229)" stroke-width="1" stroke-opacity="1" points="328.460849,17.000000 328.460849,275.000000"/>
	<polyline style="shape-rendering:crispEdges" fill="none" stroke="rgb(229,229,229)" stroke-width="1" stroke-opacity="1" points="332.758952,17.000000 332.758952,275.000000"/>
	<polyline style="shape-rendering:crispEdges" fill="none" stroke="rgb(229,229,229)" stroke-width="1" stroke-opacity="1" points="337.006784,17.000000 337.006784,275.000000"/>
	<polyline style="shape-rendering:crispEdges" fill="none" stroke="rgb(229,229,229)" stroke-width="1" stroke-opacity="1" points="341.205506,17.000000 341.205506,275.000000"/>
	<polyline style="shape-rendering:crispEdges" fill="none" stroke="rgb(229,229,229)" stroke-width="1" stroke-opacity="1" points="345.356242,17.000000 345.356242,275.000000"/>
	<polyline style="shape-rendering:crispEdges" fill="none" stroke="rgb(229,229,229)" stroke-width="1" stroke-opacity="1" points="349.460076,17.000000 349.460076,275.000000"/>
	<polyline style="shape-rendering:crispEdges" fill="none" stroke="rgb(229,229,229)" stroke-width="1" stroke-opacity="1" points="353.518057,17.000000 353.518057,275.000000"/>
	<polyline style="shape-rendering:crispEdges" fill="none" stroke="rgb(229,229,229)" stroke-width="1" stroke-opacity="1" points="357.531196,17.000000 357.531196,275.000000"/>
	<polyline style="shape-rendering:crispEdges" fill="none" stroke="rgb(229,229,229)" stroke-width="1" stroke-opacity="1" points="361.500476,17.000000 361.500476,275.000000"/>
	<polyline style="shape-rendering:crispEdges" fill="none" stroke="rgb(229,229,229)" stroke-width="1" stroke-opacity="1" points="365.426843,17.000000 365.426843,275.000000"/>
	<polyline style="shape-rendering:crispEdges" fill="none" stroke="rgb(229,229,229)" stroke-width="1" stroke-opacity="1" points="369.311217,17.000000 369.311217,275.000000"/>
	<polyline style="shape-rendering:crispEdges" fill="none" stroke="rgb(229,229,229)" stroke-width="1" stroke-opacity="1" points="373.154485,17.000000 373.154485,275.000000"/>
	<polyline style="shape-rendering:crispEdges" fill="none" stroke="rgb(229,229,229)" stroke-width="1" stroke-opacity="1" points="376.957509,17.000000 376.957509,275.000000"/>
	<polyline style="shape-rendering:crispEdges" fill="none" stroke="rgb(229,229,229)" stroke-width="1" stroke-opacity="1" points="380.721122,17.000000 380.721122,275.000000"/>
	<polyline style="shape-rendering:crispEdges" fill="none" stroke="rgb(229,229,229)" stroke-width="1" stroke-opacity="1" points="384.446134,17.000000 384.446134,275.000000"/>
	<polyline style="shape-rendering:crispEdges" fill="none" stroke="rgb(229,229,229)" stroke-width="1" stroke-opacity="1" points="388.133327,17.000000 388.133327,275.000000"/>
	<polyline style="shape-rendering:crispEdges" fill="none" stroke="rgb(229,229,229)" stroke-width="1" stroke-opacity="1" points="391.783463,17.000000 391.783463,275.000000"/>
	<polyline style="shape-rendering:crispEdges" fill="none" stroke="rgb(229,229,229)" stroke-width="1" stroke-opacity="1" points="395.397278,17.000000 395.397278,275.000000"/>
	<polyline style="shape-rendering:crispEdges" fill="none" stroke="rgb(229,229,229)" stroke-width="1" stroke-opacity="1" points="398.975489,17.000000 398.975489,275.000000"/>
	<polyline style="shape-rendering:crispEdges" fill="none" stroke="rgb(229,229,229)" stroke-width="1" stroke-opacity="1" points="402.518790,17.000000 402.518790,275.000000"/>
	<polyline style="shape-rendering:crispEdges" fill="none" stroke="rgb(229,229,229)" stroke-width="1" stroke-opacity="1" points="406.027856,17.000000 406.027856,275.000000"/>
	<polyline style="shape-rendering:crispEdges" fill="none" stroke="rgb(229,229,229)" stroke-width="1" stroke-opacity="1" points="409.503341,17.000000 409.503341,275.000000"/>
	<polyline style="shape-rendering:crispEdges" fill="none" stroke="rgb(229,229,229)" stroke-width="1" stroke-opacity="1" points="412.945883,17.000000 412.945883,275.000000"/>
	<polyline style="shape-rendering:crispEdges" fill="none" stroke="rgb(229,229,229)" stroke-width="1" stroke-opacity="1" points="416.356100,17.000000 416.356100,275.000000"/>
	<polyline style="shape-rendering:crispEdges" fill="none" stroke="rgb(229,229,229)" stroke-width="1" stroke-opacity="1" points="419.734594,17.000000 419.734594,275.000000"/>
	<polyline style="shape-rendering:crispEdges" fill="none" stroke="rgb(229,229,229)" stroke-width="1" stroke-opacity="1" points="423.081949,17.000000 423.081949,275.000000"/>
	<polyline style="shape-rendering:crispEdges" fill="none" stroke="rgb(229,229,229)" stroke-width="1" stroke-opacity="1" points="426.398734,17.000000 426.398734,275.000000"/>
	<polyline style="shape-rendering:crispEdges" fill="none" stroke="rgb(229,229,229)" stroke-width="1" stroke-opacity="1" points="429.685502,17.000000 429.685502,275.000000"/>
	<polyline style="shape-rendering:crispEdges" fill="none" stroke="rgb(229,229,229)" stroke-width="1" stroke-opacity="1" points="432.942793,17.000000 432.942793,275.000000"/>
	<polyline style="shape-rendering:crispEdges" fill="none" stroke="rgb(229,229,229)" stroke-width="1" stroke-opacity="1" points="436.171129,17.000000 436.171129,275.000000"/>
	<polyline style="shape-rendering:crispEdges" fill="none" stroke="rgb(229,229,229)" stroke-width="1" stroke-opacity="1" points="439.371022,17.000000 439.371022,275.000000"/>
	<polyline style="shape-rendering:crispEdges" fill="none" stroke="rgb(229,229,229)" stroke-width="1" stroke-opacity="1" points="442.542967,17.000000 442.542967,275.000000"/>
	<polyline style="shape-rendering:crispEdges" fill="none" stroke="rgb(229,229,229)" stroke-width="1" stroke-opacity="1" points="445.687450,17.000000 445.687450,275.000000"/>
	<polyline style="shape-rendering:crispEdges" fill="none" stroke="rgb(229,229,229)" stroke-width="1" stroke-opacity="1" points="448.804940,17.000000 448.804940,275.000000"/>
	<polyline style="shape-rendering:crispEdges" fill="none" stroke="rgb(229,229,229)" stroke-width="1" stroke-opacity="1" points="451.895899,17.000000 451.895899,275.000000"/>
	<polyline style="shape-rendering:crispEdges" fill="none" stroke="rgb(229,229,229)" stroke-width="1" stroke-opacity="1" points="454.960773,17.000000 454.960773,275.000000"/>
	<polyline style="shape-rendering:crispEdges" fill="none" stroke="rgb(229,229,229)" stroke-width="1" stroke-opacity="1" points="458.000000,17.000000 458.000000,275.000000"/>
	<polyline style="shape-rendering:crispEdges" fill="none" stroke="rgb(229,229,229)" stroke-width="1" stroke-opacity="1" points="59.000000,275.000000 458.000000,275.000000"/>
	<polyline style="shape-rendering:crispEdges" fill="none" stroke="rgb(229,229,229)" stroke-width="1" stroke-opacity="1" points="59.000000,238.142857 458.000000,238.142857"/>
	<polyline style="shape-rendering:crispEdges" fill="none" stroke="rgb(229,229,229)" stroke-width="1" stroke-opacity="1" points="59.000000,201.285714 458.000000,201.285714"/>
	<polyline style="shape-rendering:crispEdges" fill="none" stroke="rgb(229,229,229)" stroke-width="1" stroke-opacity="1" points="59.000000,164.428571 458.000000,164.428571"/>
	<polyline style="shape-rendering:crispEdges" fill="none" stroke="rgb(229,229,229)" stroke-width="1" stroke-opacity="1" points="59.000000,127.571429 458.000000,127.571429"/>
	<polyline style="shape-rendering:crispEdges" fill="none" stroke="rgb(229,229,229)" stroke-width="1" stroke-opacity="1" points="59.000000,90.714286 458.000000,90.714286"/>
	<polyline style="shape-rendering:crispEdges" fill="none" stroke="rgb(229,229,229)" stroke-width="1" stroke-opacity="1" points="59.000000,53.857143 458.000000,53.857143"/>
	<polyline style="shape-rendering:crispEdges" fill="none" stroke="rgb(229,229,229)" stroke-width="1" stroke-opacity="1" points="59.000000,17.000000 458.000000,17.000000"/>
	<polyline style="shape-rendering:crispEdges" fill="none" stroke="rgb(0,0,0)" stroke-width="1" stroke-opacity="1" points="59.000000,275.000000 458.000000,275.000000"/>
	<polyline style="shape-rendering:crispEdges" fill="none" stroke="rgb(0,0,0)" stroke-width="1" stroke-opacity="1" points="458.000000,275.000000 458.000000,17.000000"/>
	<polyline style="shape-rendering:crispEdges" fill="none" stroke="rgb(0,0,0)" stroke-width="1" stroke-opacity="1" points="458.000000,17.000000 59.000000,17.000000"/>
	<polyline style="shape-rendering:crispEdges" fill="none" stroke="rgb(0,0,0)" stroke-width="1" stroke-opacity="1" points="59.000000,17.000000 59.000000,275.000000"/>
	<polyline style="shape-rendering:crispEdges" fill="none" stroke="rgb(0,0,0)" stroke-width="1" stroke-opacity="1" points="59.000000,275.000000 59.000000,279.000000"/>
	<polyline style="shape-rendering:crispEdges" fill="none" stroke="rgb(0,0,0)" stroke-width="1" stroke-opacity="1" points="67.967998,275.000000 67.967998,279.000000"/>
	<polyline style="shape-rendering:crispEdges" fill="none" stroke="rgb(0,0,0)" stroke-width="1" stroke-opacity="1" points="76.719878,275.000000 76.719878,279.000000"/>
	<polyline style="shape-rendering:crispEdges" fill="none" stroke="rgb(0,0,0)" stroke-width="1" stroke-opacity="1" points="85.265812,275.000000 85.265812,279.000000"/>
	<polyline style="shape-rendering:crispEdges" fill="none" stroke="rgb(0,0,0)" stroke-width="1" stroke-opacity="1" points="93.615271,275.000000 93.615271,279.000000"/>
	<polyline style="shape-rendering:crispEdges" fill="none" stroke="rgb(0,0,0)" stroke-width="1" stroke-opacity="1" points="101.777085,275.000000 101.777085,279.000000"/>
	<polyline style="shape-rendering:crispEdges" fill="none" stroke="rgb(0,0,0)" stroke-width="1" stroke-opacity="1" points="109.759504,275.000000 109.759504,279.000000"/>
	<polyline style="shape-rendering:crispEdges" fill="none" stroke="rgb(0,0,0)" stroke-width="1" stroke-opacity="1" points="117.570245,275.000000 117.570245,279.000000"/>
	<polyline style="shape-rendering:crispEdges" fill="none" stroke="rgb(0,0,0)" stroke-width="1" stroke-opacity="1" points="125.216537,275.000000 125.216537,279.000000"/>
	<polyline style="shape-rendering:crispEdges" fill="none" stroke="rgb(0,0,0)" stroke-width="1" stroke-opacity="1" points="132.705162,275.000000 132.705162,279.000000"/>
	<polyline style="shape-rendering:crispEdges" fill="none" stroke="rgb(0,0,0)" stroke-width="1" stroke-opacity="1" points="140.042491,275.000000 140.042491,279.000000"/>
	<polyline style="shape-rendering:crispEdges" fill="none" stroke="rgb(0,0,0)" stroke-width="1" stroke-opacity="1" points="147.234518,275.000000 147.234518,279.000000"/>
	<polyline style="shape-rendering:crispEdges" fill="none" stroke="rgb(0,0,0)" stroke-width="1" stroke-opacity="1" points="154.286884,275.000000 154.286884,279.000000"/>
	<polyline style="shape-rendering:crispEdges" fill="none" stroke="rgb(0,0,0)" stroke-width="1" stroke-opacity="1" points="161.204911,275.000000 161.204911,279.000000"/>
	<polyline style="shape-rendering:crispEdges" fill="none" stroke="rgb(0,0,0)" stroke-width="1" stroke-opacity="1" points="167.993622,275.000000 167.993622,279.000000"/>
	<polyline style="shape-rendering:crispEdges" fill="none" stroke="rgb(0,0,0)" stroke-width="1" stroke-opacity="1" points="174.657762,275.000000 174.657762,279.000000"/>
	<polyline style="shape-rendering:crispEdges" fill="none" stroke="rgb(0,0,0)" stroke-width="1" stroke-opacity="1" points="181.201821,275.000000 181.201821,279.000000"/>
	<polyline style="shape-rendering:crispEdges" fill="none" stroke="rgb(0,0,0)" stroke-width="1" stroke-opacity="1" points="187.630050,275.000000 187.630050,279.000000"/>
	<polyline style="shape-rendering:crispEdges" fill="none" stroke="rgb(0,0,0)" stroke-width="1" stroke-opacity="1" points="193.946478,275.000000 193.946478,279.000000"/>
	<polyline style="shape-rendering:crispEdges" fill="none" stroke="rgb(0,0,0)" stroke-width="1" stroke-opacity="1" points="200.154927,275.000000 200.154927,279.000000"/>
	<polyline style="shape-rendering:crispEdges" fill="none" stroke="rgb(0,0,0)" stroke-width="1" stroke-opacity="1" points="206.259028,275.000000 206.259028,279.000000"/>
	<polyline style="shape-rendering:crispEdges" fill="none" stroke="rgb(0,0,0)" stroke-width="1" stroke-opacity="1" points="212.262230,275.000000 212.262230,279.000000"/>
	<polyline style="shape-rendering:crispEdges" fill="none" stroke="rgb(0,0,0)" stroke-width="1" stroke-opacity="1" points="218.167815,275.000000 218.167815,279.000000"/>
	<polyline style="shape-rendering:crispEdges" fill="none" stroke="rgb(0,0,0)" stroke-width="1" stroke-opacity="1" points="223.978906,275.000000 223.978906,279.000000"/>
	<polyline style="shape-rendering:crispEdges" fill="none" stroke="rgb(0,0,0)" stroke-width="1" stroke-opacity="1" points="229.698480,275.000000 229.698480,279.000000"/>
	<polyline style="shape-rendering:crispEdges" fill="none" stroke="rgb(0,0,0)" stroke-width="1" stroke-opacity="1" points="235.329375,275.000000 235.329375,279.000000"/>
	<polyline style="shape-rendering:crispEdges" fill="none" stroke="rgb(0,0,0)" stroke-width="1" stroke-opacity="1" points="240.874299,275.000000 240.874299,279.000000"/>
	<polyline style="shape-rendering:crispEdges" fill="none" stroke="rgb(0,0,0)" stroke-width="1" stroke-opacity="1" points="246.335837,275.000000 246.335837,279.000000"/>
	<polyline style="shape-rendering:crispEdges" fill="none" stroke="rgb(0,0,0)" stroke-width="1" stroke-opacity="1" points="251.716461,275.000000 251.716461,279.000000"/>
	<polyline style="shape-rendering:crispEdges" fill="none" stroke="rgb(0,0,0)" stroke-width="1" stroke-opacity="1" points="257.018532,275.000000 257.018532,279.000000"/>
	<polyline style="shape-rendering:crispEdges" fill="none" stroke="rgb(0,0,0)" stroke-width="1" stroke-opacity="1" points="262.244313,275.000000 262.244313,279.000000"/>
	<polyline style="shape-rendering:crispEdges" fill="none" stroke="rgb(0,0,0)" stroke-width="1" stroke-opacity="1" points="267.395966,275.000000 267.395966,279.000000"/>
	<polyline style="shape-rendering:crispEdges" fill="none" stroke="rgb(0,0,0)" stroke-width="1" stroke-opacity="1" points="272.475565,275.000000 272.475565,279.000000"/>
	<polyline style="shape-rendering:crispEdges" fill="none" stroke="rgb(0,0,0)" stroke-width="1" stroke-opacity="1" points="277.485099,275.000000 277.485099,279.000000"/>
	<polyline style="shape-rendering:crispEdges" fill="none" stroke="rgb(0,0,0)" stroke-width="1" stroke-opacity="1" points="282.426474,275.000000 282.426474,279.000000"/>
	<polyline style="shape-rendering:crispEdges" fill="none" stroke="rgb(0,0,0)" stroke-width="1" stroke-opacity="1" points="287.301520,275.000000 287.301520,279.000000"/>
	<polyline style="shape-rendering:crispEdges" fill="none" stroke="rgb(0,0,0)" stroke-width="1" stroke-opacity="1" points="292.111993,275.000000 292.111993,279.000000"/>
	<polyline style="shape-rendering:crispEdges" fill="none" stroke="rgb(0,0,0)" stroke-width="1" stroke-opacity="1" points="296.859583,275.000000 296.859583,279.000000"/>
	<polyline style="shape-rendering:crispEdges" fill="none" stroke="rgb(0,0,0)" stroke-width="1" stroke-opacity="1" points="301.545912,275.000000 301.545912,279.000000"/>
	<polyline style="shape-rendering:crispEdges" fill="none" stroke="rgb(0,0,0)" stroke-width="1" stroke-opacity="1" points="306.172541,275.000000 306.172541,279.000000"/>
	<polyline style="shape-rendering:crispEdges" fill="none" stroke="rgb(0,0,0)" stroke-width="1" stroke-opacity="1" points="310.740972,275.000000 310.740972,279.000000"/>
	<polyline style="shape-rendering:crispEdges" fill="none" stroke="rgb(0,0,0)" stroke-width="1" stroke-opacity="1" points="315.252650,275.000000 315.252650,279.000000"/>
	<polyline style="shape-rendering:crispEdges" fill="none" stroke="rgb(0,0,0)" stroke-width="1" stroke-opacity="1" points="319.708969,275.000000 319.708969,279.000000"/>
	<polyline style="shape-rendering:crispEdges" fill="none" stroke="rgb(0,0,0)" stroke-width="1" stroke-opacity="1" points="324.111271,275.000000 324.111271,279.000000"/>
	<polyline style="shape-rendering:crispEdges" fill="none" stroke="rgb(0,0,0)" stroke-width="1" stroke-opacity="1" points="328.460849,275.000000 328.460849,279.000000"/>
	<polyline style="shape-rendering:crispEdges" fill="none" stroke="rgb(0,0,0)" stroke-width="1" stroke-opacity="1" points="332.758952,275.000000 332.758952,279.000000"/>
	<polyline style="shape-rendering:crispEdges" fill="none" stroke="rgb(0,0,0)" stroke-width="1" stroke-opacity="1" points="337.006784,275.000000 337.006784,279.000000"/>
	<polyline style="shape-rendering:crispEdges" fill="none" stroke="rgb(0,0,0)" stroke-width="1" stroke-opacity="1" points="341.205506,275.000000 341.205506,279.000000"/>
	<polyline style="shape-rendering:crispEdges" fill="none" stroke="rgb(0,0,0)" stroke-width="1" stroke-opacity="1" points="345.356242,275.000000 345.356242,279.000000"/>
	<polyline style="shape-rendering:crispEdges" fill="none" stroke="rgb(0,0,0)" stroke-width="1" stroke-opacity="1" points="349.460076,275.000000 349.460076,279.000000"/>
	<polyline style="shape-rendering:crispEdges" fill="none" stroke="rgb(0,0,0)" stroke-width="1" stroke-opacity="1" points="353.518057,275.000000 353.518057,279.000000"/>
	<polyline style="shape-rendering:crispEdges" fill="none" stroke="rgb(0,0,0)" stroke-width="1" stroke-opacity="1" points="357.531196,275.000000 357.531196,279.000000"/>
	<polyline style="shape-rendering:crispEdges" fill="none" stroke="rgb(0,0,0)" stroke-width="1" stroke-opacity="1" points="361.500476,275.000000 361.500476,279.000000"/>
	<polyline style="shape-rendering:crispEdges" fill="none" stroke="rgb(0,0,0)" stroke-width="1" stroke-opacity="1" points="365.426843,275.000000 365.426843,279.000000"/>
	<polyline style="shape-rendering:crispEdges" fill="none" stroke="rgb(0,0,0)" stroke-width="1" stroke-opacity="1" points="369.311217,275.000000 369.311217,279.000000"/>
	<polyline style="shape-rendering:crispEdges" fill="none" stroke="rgb(0,0,0)" stroke-width="1" stroke-opacity="1" points="373.154485,275.000000 373.154485,279.000000"/>
	<polyline style="shape-rendering:crispEdges" fill="none" stroke="rgb(0,0,0)" stroke-width="1" stroke-opacity="1" points="376.957509,275.000000 376.957509,279.000000"/>
	<polyline style="shape-rendering:crispEdges" fill="none" stroke="rgb(0,0,0)" stroke-width="1" stroke-opacity="1" points="380.721122,275.000000 380.721122,279.000000"/>
	<polyline style="shape-rendering:crispEdges" fill="none" stroke="rgb(0,0,0)" stroke-width="1" stroke-opacity="1" points="384.446134,275.000000 384.446134,279.000000"/>
	<polyline style="shape-rendering:crispEdges" fill="none" stroke="rgb(0,0,0)" stroke-width="1" stroke-opacity="1" points="388.133327,275.000000 388.133327,279.000000"/>
	<polyline style="shape-rendering:crispEdges" fill="none" stroke="rgb(0,0,0)" stroke-width="1" stroke-opacity="1" points="391.783463,275.000000 391.783463,279.000000"/>
	<polyline style="shape-rendering:crispEdges" fill="none" stroke="rgb(0,0,0)" stroke-width="1" stroke-opacity="1" points="395.397278,275.000000 395.397278,279.000000"/>
	<polyline style="shape-rendering:crispEdges" fill="none" stroke="rgb(0,0,0)" stroke-width="1" stroke-opacity="1" points="398.975489,275.000000 398.975489,279.000000"/>
	<polyline style="shape-rendering:crispEdges" fill="none" stroke="rgb(0,0,0)" stroke-width="1" stroke-opacity="1" points="402.518790,275.000000 402.518790,279.000000"/>
	<polyline style="shape-rendering:crispEdges" fill="none" stroke="rgb(0,0,0)" stroke-width="1" stroke-opacity="1" points="406.027856,275.000000 406.027856,279.000000"/>
	<polyline style="shape-rendering:crispEdges" fill="none" stroke="rgb(0,0,0)" stroke-width="1" stroke-opacity="1" points="409.503341,275.000000 409.503341,279.000000"/>
	<polyline style="shape-rendering:crispEdges" fill="none" stroke="rgb(0,0,0)" stroke-width="1" stroke-opacity="1" points="412.945883,275.000000 412.945883,279.000000"/>
	<polyline style="shape-rendering:crispEdges" fill="none" stroke="rgb(0,0,0)" stroke-width="1" stroke-opacity="1" points="416.356100,275.000000 416.356100,279.000000"/>
	<polyline style="shape-rendering:crispEdges" fill="none" stroke="rgb(0,0,0)" stroke-width="1" stroke-opacity="1" points="419.734594,275.000000 419.734594,279.000000"/>
	<polyline style="shape-rendering:crispEdges" fill="none" stroke="rgb(0,0,0)" stroke-width="1" stroke-opacity="1" points="423.081949,275.000000 423.081949,279.000000"/>
	<polyline style="shape-rendering:crispEdges" fill="none" stroke="rgb(0,0,0)" stroke-width="1" stroke-opacity="1" points="426.398734,275.000000 426.398734,279.000000"/>
	<polyline style="shape-rendering:crispEdges" fill="none" stroke="rgb(0,0,0)" stroke-width="1" stroke-opacity="1" points="429.685502,275.000000 429.685502,279.000000"/>
	<polyline style="shape-rendering:crispEdges" fill="none" stroke="rgb(0,0,0)" stroke-width="1" stroke-opacity="1" points="432.942793,275.000000 432.942793,279.000000"/>
	<polyline style="shape-rendering:crispEdges" fill="none" stroke="rgb(0,0,0)" stroke-width="1" stroke-opacity="1" points="436.171129,275.000000 436.171129,279.000000"/>
	<polyline style="shape-rendering:crispEdges" fill="none" stroke="rgb(0,0,0)" stroke-width="1" stroke-opacity="1" points="439.371022,275.000000 439.371022,279.000000"/>
	<polyline style="shape-rendering:crispEdges" fill="none" stroke="rgb(0,0,0)" stroke-width="1" stroke-opacity="1" points="442.542967,275.000000 442.542967,279.000000"/>
	<polyline style="shape-rendering:crispEdges" fill="none" stroke="rgb(0,0,0)" stroke-width="1" stroke-opacity="1" points="445.687450,275.000000 445.687450,279.000000"/>
	<polyline style="shape-rendering:crispEdges" fill="none" stroke="rgb(0,0,0)" stroke-width="1" stroke-opacity="1" points="448.804940,275.000000 448.804940,279.000000"/>
	<polyline style="shape-rendering:crispEdges" fill="none" stroke="rgb(0,0,0)" stroke-width="1" stroke-opacity="1" points="451.895899,275.000000 451.895899,279.000000"/>
	<polyline style="shape-rendering:crispEdges" fill="none" stroke="rgb(0,0,0)" stroke-width="1" stroke-opacity="1" points="454.960773,275.000000 454.960773,279.000000"/>
	<polyline style="shape-rendering:crispEdges" fill="none" stroke="rgb(0,0,0)" stroke-width="1" stroke-opacity="1" points="458.000000,275.000000 458.000000,279.000000"/>
	<polyline style="shape-rendering:crispEdges" fill="none" stroke="rgb(0,0,0)" stroke-width="1" stroke-opacity="1" points="59.000000,275.000000 59.000000,281.400000"/>
	<text style="shape-rendering:crispEdges" x="59" y="291.5" fill="rgb(0,0,0)" dominant-baseline="central" font-size="11" font-family="Arial" text-anchor="middle">20</text>
	<polyline style="shape-rendering:crispEdges" fill="none" stroke="rgb(0,0,0)" stroke-width="1" stroke-opacity="1" points="140.042491,275.000000 140.042491,281.400000"/>
	<text style="shape-rendering:crispEdges" x="140.042" y="291.5" fill="rgb(0,0,0)" dominant-baseline="central" font-size="11" font-family="Arial" text-anchor="middle">25</text>
	<polyline style="shape-rendering:crispEdges" fill="none" stroke="rgb(0,0,0)" stroke-width="1" stroke-opacity="1" points="206.259028,275.000000 206.259028,281.400000"/>
	<text style="shape-rendering:crispEdges" x="206.259" y="291.5" fill="rgb(0,0,0)" dominant-baseline="central" font-size="11" font-family="Arial" text-anchor="middle">30</text>
	<polyline style="shape-rendering:crispEdges" fill="none" stroke="rgb(0,0,0)" stroke-width="1" stroke-opacity="1" points="262.244313,275.000000 262.244313,281.400000"/>
	<text style="shape-rendering:crispEdges" x="262.244" y="291.5" fill="rgb(0,0,0)" dominant-baseline="central" font-size="11" font-family="Arial" text-anchor="middle">35</text>
	<polyline style="shape-rendering:crispEdges" fill="none" stroke="rgb(0,0,0)" stroke-width="1" stroke-opacity="1" points="310.740972,275.000000 310.740972,281.400000"/>
	<text style="shape-rendering:crispEdges" x="310.741" y="291.5" fill="rgb(0,0,0)" dominant-baseline="central" font-size="11" font-family="Arial" text-anchor="middle">40</text>
	<polyline style="shape-rendering:crispEdges" fill="none" stroke="rgb(0,0,0)" stroke-width="1" stroke-opacity="1" points="353.518057,275.000000 353.518057,281.400000"/>
	<text style="shape-rendering:crispEdges" x="353.518" y="291.5" fill="rgb(0,0,0)" dominant-baseline="central" font-size="11" font-family="Arial" text-anchor="middle">45</text>
	<polyline style="shape-rendering:crispEdges" fill="none" stroke="rgb(0,0,0)" stroke-width="1" stroke-opacity="1" points="391.783463,275.000000 391.783463,281.400000"/>
	<text style="shape-rendering:crispEdges" x="391.783" y="291.5" fill="rgb(0,0,0)" dominant-baseline="central" font-size="11" font-family="Arial" text-anchor="middle">50</text>
	<polyline style="shape-rendering:crispEdges" fill="none" stroke="rgb(0,0,0)" stroke-width="1" stroke-opacity="1" points="426.398734,275.000000 426.398734,281.400000"/>
	<text style="shape-rendering:crispEdges" x="426.399" y="291.5" fill="rgb(0,0,0)" dominant-baseline="central" font-size="11" font-family="Arial" text-anchor="middle">55</text>
	<polyline style="shape-rendering:crispEdges" fill="none" stroke="rgb(0,0,0)" stroke-width="1" stroke-opacity="1" points="458.000000,275.000000 458.000000,281.400000"/>
	<text style="shape-rendering:crispEdges" x="458" y="291.5" fill="rgb(0,0,0)" dominant-baseline="central" font-size="11" font-family="Arial" text-anchor="middle">60</text>
	<polyline style="shape-rendering:crispEdges" fill="none" stroke="rgb(0,0,0)" stroke-width="1" stroke-opacity="1" points="55.000000,275.000000 59.000000,275.000000"/>
	<polyline style="shape-rendering:crispEdges" fill="none" stroke="rgb(0,0,0)" stroke-width="1" stroke-opacity="1" points="55.000000,238.142857 59.000000,238.142857"/>
	<polyline style="shape-rendering:crispEdges" fill="none" stroke="rgb(0,0,0)" stroke-width="1" stroke-opacity="1" points="55.000000,201.285714 59.000000,201.285714"/>
	<polyline style="shape-rendering:crispEdges" fill="none" stroke="rgb(0,0,0)" stroke-width="1" stroke-opacity="1" points="55.000000,164.428571 59.000000,164.428571"/>
	<polyline style="shape-rendering:crispEdges" fill="none" stroke="rgb(0,0,0)" stroke-width="1" stroke-opacity="1" points="55.000000,127.571429 59.000000,127.571429"/>
	<polyline style="shape-rendering:crispEdges" fill="none" stroke="rgb(0,0,0)" stroke-width="1" stroke-opacity="1" points="55.000000,90.714286 59.000000,90.714286"/>
	<polyline style="shape-rendering:crispEdges" fill="none" stroke="rgb(0,0,0)" stroke-width="1" stroke-opacity="1" points="55.000000,53.857143 59.000000,53.857143"/>
	<polyline style="shape-rendering:crispEdges" fill="none" stroke="rgb(0,0,0)" stroke-width="1" stroke-opacity="1" points="55.000000,17.000000 59.000000,17.000000"/>
	<rect style="shape-rendering:crispEdges" fill="none" stroke="none" stroke-dasharray="none" stroke-width="1" stroke-opacity="1" x="0" y="267" width="51" height="16"/>
	<polyline style="shape-rendering:crispEdges" fill="none" stroke="rgb(0,0,0)" stroke-width="1" stroke-opacity="1" points="52.600000,275.000000 59.000000,275.000000"/>
	<text style="shape-rendering:crispEdges" x="51" y="275" fill="rgb(0,0,0)" dominant-baseline="central" font-size="11" font-family="Arial" text-anchor="end">7.1</text>
	<polyline style="shape-rendering:crispEdges" fill="none" stroke="rgb(0,0,0)" stroke-width="1" stroke-opacity="1" points="52.600000,238.142857 59.000000,238.142857"/>
	<text style="shape-rendering:crispEdges" x="51" y="238.143" fill="rgb(0,0,0)" dominant-baseline="central" font-size="11" font-family="Arial" text-anchor="end">7.2</text>
	<polyline style="shape-rendering:crispEdges" fill="none" stroke="rgb(0,0,0)" stroke-width="1" stroke-opacity="1" points="52.600000,201.285714 59.000000,201.285714"/>
	<text style="shape-rendering:crispEdges" x="51" y="201.286" fill="rgb(0,0,0)" dominant-baseline="central" font-size="11" font-family="Arial" text-anchor="end">7.3</text>
	<polyline style="shape-rendering:crispEdges" fill="none" stroke="rgb(0,0,0)" stroke-width="1" stroke-opacity="1" points="52.600000,164.428571 59.000000,164.428571"/>
	<text style="shape-rendering:crispEdges" x="51" y="164.429" fill="rgb(0,0,0)" dominant-baseline="central" font-size="11" font-family="Arial" text-anchor="end">7.4</text>
	<polyline style="shape-rendering:crispEdges" fill="none" stroke="rgb(0,0,0)" stroke-width="1" stroke-opacity="1" points="52.600000,127.571429 59.000000,127.571429"/>
	<text style="shape-rendering:crispEdges" x="51" y="127.571" fill="rgb(0,0,0)" dominant-baseline="central" font-size="11" font-family="Arial" text-anchor="end">7.5</text>
	<polyline style="shape-rendering:crispEdges" fill="none" stroke="rgb(0,0,0)" stroke-width="1" stroke-opacity="1" points="52.600000,90.714286 59.000000,90.714286"/>
	<text style="shape-rendering:crispEdges" x="51" y="90.7143" fill="rgb(0,0,0)" dominant-baseline="central" font-size="11" font-family="Arial" text-anchor="end">7.6</text>
	<polyline style="shape-rendering:crispEdges" fill="none" stroke="rgb(0,0,0)" stroke-width="1" stroke-opacity="1" points="52.600000,53.857143 59.000000,53.857143"/>
	<text style="shape-rendering:crispEdges" x="51" y="53.8571" fill="rgb(0,0,0)" dominant-baseline="central" font-size="11" font-family="Arial" text-anchor="end">7.7</text>
	<polyline style="shape-rendering:crispEdges" fill="none" stroke="rgb(0,0,0)" stroke-width="1" stroke-opacity="1" points="52.600000,17.000000 59.000000,17.000000"/>
	<text style="shape-rendering:crispEdges" x="51" y="17" fill="rgb(0,0,0)" dominant-baseline="central" font-size="11" font-family="Arial" text-anchor="end">7.8</text>
	<clipPath id="clipArea1">
		<rect x="59" y="17" width="399" height="258">
		</rect>
	</clipPath>
	<polyline fill="none" stroke="rgb(28,108,200)" stroke-width="1" stroke-opacity="1" clip-path="url(#clipArea1)" points="57.510091,221.709032 61.398301,221.472123 65.238140,221.232226 69.030226,220.989517 72.775257,220.743645 76.473779,220.494961 80.126455,220.243465 83.733863,219.989156 87.296628,219.731861 90.815294,219.471753 94.290455,219.209009 97.722685,218.943277 101.112512,218.674909 104.460478,218.403905 107.767144,218.130088 111.033020,217.853636 114.258606,217.574547 117.444443,217.292646 120.591000,217.008285 123.698793,216.721464 126.768261,216.431830 129.799921,216.139736 132.794215,215.845181 135.751632,215.547991 138.672562,215.248515 141.557495,214.946403 144.406852,214.641831 147.221070,214.334798 150.000548,214.025481 152.745697,213.713703 155.456948,213.399464 158.134691,213.082941 160.779305,212.764133 163.391186,212.443041 165.970717,212.119488 168.518274,211.793826 171.034194,211.465703 173.518883,211.135472 175.972658,210.802955 178.395879,210.468154 180.788923,210.131244 183.152054,209.792225 185.485678,209.450922 187.790094,209.107333 190.065616,208.761812 192.312548,208.414005 194.531237,208.064266 196.721971,207.712241 198.885054,207.358284 201.020782,207.002217 203.129446,206.644042 205.211325,206.283933 207.266716,205.921715 209.295886,205.557388 211.299117,205.191128 213.276682,204.822935 215.228828,204.452809 217.155838,204.080573 219.057965,203.706405 220.935435,203.330303 222.788534,202.952268 224.617495,202.572475 226.422548,202.190573 228.203937,201.806914 229.961922,201.421146 231.696670,201.033621 233.408472,200.644338 235.097527,200.253121 236.764073,199.859972 238.408297,199.465065 240.030382,199.068224 241.630634,198.669627 243.209183,198.269272 244.766280,197.867159 246.302089,197.463113 247.816850,197.057310 249.310676,196.649749 250.783840,196.240255 252.236526,195.829179 253.668875,195.416345 255.081103,195.001579 256.473384,194.585230 257.845923,194.167125 259.198806,193.747086 260.532310,193.325465 261.846552,192.902087 263.141722,192.477127 264.417967,192.050233 265.675431,191.621758 266.914332,191.191526 268.134806,190.759536 269.336946,190.325964 270.520998,189.890635 271.687086,189.453548 272.835333,189.014880 273.965857,188.574454 275.078888,188.132271 276.174538,187.688506 277.252878,187.243159 278.314165,186.795879 279.358426,186.347193 280.385836,185.896573 281.396567,185.444372 282.390675,184.990590 283.368364,184.535049 284.329720,184.077752 285.274829,183.618872 286.203885,183.158411 287.116969,182.696192 288.014231,182.232216 288.895745,181.766658 289.761621,181.299343 290.612039,180.830446 291.447029,180.359791 292.266765,179.887555 293.071347,179.413561 293.860835,178.937985 294.635359,178.460652 295.395046,177.981562 296.139988,177.500714 296.870235,177.018284 297.585944,176.534272 298.287198,176.048328 298.974079,175.560801 299.646700,175.071517 300.305103,174.580651 300.949434,174.087852 301.579765,173.593472 302.196203,173.097334 302.798782,172.599438 303.387639,172.099785 303.962803,171.598374 304.524409,171.095206 305.072519,170.590456 305.607191,170.083773 306.128520,169.575333 306.636596,169.065135 307.131438,168.553003 307.613206,168.039290 308.081879,167.523644 308.537613,167.006240 308.980421,166.487079 309.410348,165.965985 309.827545,165.443133 310.232019,164.918347 310.623814,164.391629 311.003037,163.863329 311.369764,163.332920 311.723997,162.800753 312.065806,162.266653 312.395296,161.730620 312.712464,161.192654 313.017378,160.652754 313.310137,160.110922 313.590735,159.567156 313.859270,159.021456 314.115733,158.473824 314.360219,157.924258 314.592786,157.372583 314.813422,156.818800 315.022217,156.263259 315.219193,155.705433 315.404436,155.145673 315.577930,154.583805 315.739726,154.020004 315.889873,153.453918 316.028387,152.885899 316.155349,152.315595 316.270771,151.743357 316.374663,151.168835 316.467104,150.592204 316.548069,150.013288 316.617633,149.432264 316.675804,148.849130 316.722585,148.263536 316.758051,147.675833 316.782203,147.085845 316.795079,146.493572 316.796680,145.899191 316.787006,145.302173 316.766124,144.703046 316.734033,144.101634 316.690728,143.497587 316.636275,142.891430 316.570668,142.282637 316.493867,141.671559 316.405968,141.058021 316.306928,140.442022 316.196773,139.823563 316.075525,139.202644 315.943141,138.579088 315.799710,137.953071 315.645151,137.324594 315.479518,136.693306 315.302796,136.059556 315.114969,135.423171 314.916088,134.784149 314.706101,134.142491 314.485023,133.498021 314.252833,132.851091 314.009545,132.201173 313.755171,131.548618 313.489653,130.893252 313.213036,130.235074 312.925260,129.574083 312.626333,128.910281 312.316228,128.243491 311.994950,127.573889 311.662472,126.901475 311.318761,126.226073 310.963821,125.547508 310.597619,124.866131 310.220157,124.181766 309.831364,123.494238 309.431240,122.803722 309.019747,122.110042 308.596883,121.413199 308.162572,120.713193 307.716845,120.010199 307.259590,119.303865 306.790869,118.594368 306.310533,117.881532 305.818642,117.165357 305.315116,116.446018 304.799906,115.723164 304.272963,114.997147 303.734273,114.267615 303.183750,113.534567 302.621411,112.798181 302.047132,112.058280 301.460893,111.314863 300.862637,110.567932 300.252343,109.817486 299.629880,109.063173 298.995258,108.305521 298.348415,107.544002 297.689217,106.778793 297.017705,106.009893 296.333706,105.237303 295.637224,104.460845 294.928152,103.680522 294.206456,102.896508 293.471990,102.108451 292.724753,101.316528 291.964669,100.520563 291.191587,99.720731 290.405464,98.916682 289.606218,98.108765 288.793767,97.296631 287.968026,96.480455 287.128871,95.660061 286.276250,94.835624 285.409999,94.006794 284.530099,93.173746 283.636419,92.336304 282.728824,91.494644 281.807253,90.648591 280.871567,89.798144 279.921663,88.943127 278.957436,88.083717 277.978740,87.219912 276.985503,86.351363 275.977536,85.478244 274.954800,84.600556 273.917101,83.718122 272.864320,82.831120 271.796333,81.939196 270.713015,81.042527 269.614198,80.141112 268.499714,79.234777 267.369505,78.323696 266.223317,77.407519 265.061089,76.486421 263.882599,75.560226 262.687700,74.628935 261.476243,73.692722 260.248034,72.751237 259.002958,71.804480 257.740734,70.852625 256.461318,69.895499 255.164382,68.933100 253.849836,67.965252 252.517463,66.992133 251.167084,66.013565 249.798476,65.029373 248.411409,64.039733 247.005691,63.044644 245.581125,62.043756 244.137469,61.037420 242.674516,60.025284 241.192056,59.007349 239.689789,57.983613 238.167494,56.954254 236.624987,55.918744 235.061908,54.877609 233.478105,53.830324 231.873249,52.777063 230.247091,51.717650 228.599353,50.652263 226.929732,49.580724 225.237980,48.503034 223.523778,47.419016 221.786801,46.328672 220.026760,45.232177 218.243358,44.129179 216.436225,43.019679 214.605049,41.903851 212.749511,40.781345 210.869214,39.652336 208.963822,38.516825 207.032966,37.374459 205.076292,36.225415 203.093367,35.069693 201.083840,33.907116 199.047258,32.737510 196.983273,31.561225 194.891386,30.377910 192.771204,29.187389 190.622253,27.990014 188.444093,26.785433 186.236249,25.573647 183.998207,24.354655 181.729514,23.128282 179.429605,21.894703 177.098001,20.653742 174.734155,19.405400 172.337483,18.149501 169.907434,16.886045 167.443416,15.615031 164.944843,14.336285 162.411064,13.049981 159.841485,11.755769 157.235413,10.453823 154.592166,9.143969 151.911089,7.826207 149.191430,6.500535 146.432466,5.166780 143.633426,3.824939 140.793566,2.475015 137.912039,1.116830 134.987996,-0.249615 132.020618,-1.624320 129.009029,-3.007461 125.952269,-4.398863 122.849431,-5.798876 119.699518,-7.207500 116.501500,-8.624561 113.254400,-10.050409 109.957087,-11.484868 106.608479,-12.928116 103.207397,-14.380150 99.752648,-15.841148 96.243026,-17.311109 92.677218,-18.790033 89.053925,-20.277920 85.371735,-21.775122 81.629245,-23.281287 77.824966,-24.796943 73.957382,-26.321737 70.024850,-27.856022 66.025762,-29.399621 61.958308,-30.952711 57.820773,-32.515468 53.611268,-34.087714 49.327822,-35.669627 44.968413,-37.261381 40.530896,-38.862802 36.013103,-40.474241 31.412693,-42.095521 26.727295,-43.726643 21.954349,-45.367959 17.091215,-47.019468 12.135125,-48.680995 7.083256,-50.352891 1.932483,-52.034981 -3.320311,-53.727615 -8.678527,-55.430618 -14.145659,-57.144167 -19.725343,-58.867908 -25.421562,-60.602547 -31.238364,-62.348081 -37.180087,-64.104161 -43.251295,-65.871137 -49.456838,-67.649009 -55.801804,-69.437778 -62.291587,-71.237443 -68.931962,-73.048356 -75.729011,-74.870517 -82.689209,-76.703926 -89.819423,-78.548583 -97.127031,-80.404488 -104.619888,-82.271992 -112.306339,-84.151095 -120.195380,-86.041447 -128.296634,-87.943749 -136.620414,-89.857299 -136.620414,-89.857299"/>
	<clipPath id="clipArea2">
		<rect x="59" y="17" width="399" height="258">
		</rect>
	</clipPath>
	<polyline fill="none" stroke="rgb(238,46,47)" stroke-width="2" stroke-opacity="1" clip-path="url(#clipArea2)" points="126.768261,216.431830 128.288800,216.286134 129.799921,216.139736 131.301715,215.992810 132.794215,215.845181 134.277511,215.696850 135.751632,215.547991 137.216612,215.398604 138.672562,215.248515 140.119514,215.097723 141.557495,214.946403 142.986590,214.794381 144.406852,214.641831 145.818337,214.488578 147.221070,214.334798 148.615132,214.180491 150.000548,214.025481 151.377395,213.869943 152.745697,213.713703 154.105532,213.556935 155.456948,213.399464 156.799994,213.241642 158.134691,213.082941 159.461112,212.923889 160.779305,212.764133 162.089314,212.603851 163.391186,212.443041 164.684989,212.281528 165.970717,212.119488 167.248465,211.956920 168.518274,211.793826 169.780162,211.630028 171.034194,211.465703 172.280438,211.300851 173.518883,211.135472 174.749618,210.969565 175.972658,210.802955 177.188066,210.635818 178.395879,210.468154 179.596161,210.299963 180.788923,210.131244 181.974200,209.961999 183.152054,209.792225 184.322543,209.621749 185.485678,209.450922 186.641517,209.279391 187.790094,209.107333 188.931441,208.934924 190.065616,208.761812 191.192625,208.588172 192.312548,208.414005 193.425417,208.239487 194.531237,208.064266 195.630086,207.888517 196.721971,207.712241 197.806966,207.535614 198.885054,207.358284 199.956332,207.180426 201.020782,207.002217 202.078478,206.823305 203.129446,206.644042 204.173712,206.464251 205.211325,206.283933 206.242310,206.102912 207.266716,205.921715 208.284567,205.739815 209.295886,205.557388 210.300744,205.374610 211.299117,205.191128 212.291096,205.007295 213.276682,204.822935 214.255919,204.638048 215.228828,204.452809 216.195476,204.266867 217.155838,204.080573 218.110002,203.893753 219.057965,203.706405 219.999770,203.518705 220.935435,203.330303 221.865024,203.141549 222.788534,202.952268 223.706025,202.762635 224.617495,202.572475 225.523004,202.381788 226.422548,202.190573 227.316187,201.999007 228.203937,201.806914 229.085836,201.614294 229.961922,201.421146 230.832166,201.227647 231.696670,201.033621 232.555426,200.839243 233.408472,200.644338 234.255841,200.448905 235.097527,200.253121 235.933607,200.056810 236.764073,199.859972 237.588958,199.662782 238.408297,199.465065 239.222080,199.266820 240.030382,199.068224 240.833237,198.869277 241.630634,198.669627 242.422606,198.469801 243.209183,198.269272 243.990398,198.068391 244.766280,197.867159 245.536820,197.665224 246.302089,197.463113 247.062075,197.260475 247.816850,197.057310 248.566360,196.853617 249.310676,196.649749 250.049826,196.445177 250.783840,196.240255 251.512744,196.034980 252.236526,195.829179 252.955254,195.623026 253.668875,195.416345 254.377496,195.209138 255.081103,195.001579 255.779724,194.793668 256.473384,194.585230 257.162108,194.376265 257.845923,194.167125 258.524814,193.957281 259.198806,193.747086 259.868003,193.536539 260.532310,193.325465 261.191832,193.114039 261.846552,192.902087 262.496534,192.689782 263.141722,192.477127 263.782179,192.263944 264.417967,192.050233 265.049030,191.836172 265.675431,191.621758 266.297191,191.406818 266.914332,191.191526 267.526876,190.975707 268.134806,190.759536 268.738142,190.543014 269.336946,190.325964 269.931237,190.108563 270.520998,189.890635 271.106287,189.672355 271.687086,189.453548 272.263415,189.234390 272.835333,189.014880 273.402781,188.794843 273.965857,188.574454 274.524578,188.353538 275.078888,188.132271 275.628881,187.910652 276.174538,187.688506 276.715839,187.466008 277.252878,187.243159 277.785635,187.019782 278.314165,186.795879 278.838410,186.571799 279.358426,186.347193 279.874229,186.122059 280.385836,185.896573 280.893302,185.670737 281.396567,185.444372 281.895687,185.217657 282.390675,184.990590 282.881587,184.762995 283.368364,184.535049 283.851057,184.306576 284.329720,184.077752 284.804293,183.848576 285.274829,183.618872 285.741379,183.388817 286.203885,183.158411 286.662435,182.927477 287.116969,182.696192 287.567575,182.464380 288.014231,182.232216 288.456949,181.999701 288.895745,181.766658 289.330631,181.533264 289.761621,181.299343 290.188765,181.065246 290.612039,180.830446 291.031456,180.595470 291.447029,180.359791 291.858807,180.123937 292.266765,179.887555 292.670954,179.650821 293.071347,179.413561 293.467958,179.175949 293.860835,178.937985 294.249952,178.699494 294.635359,178.460652 295.017065,178.221283 295.395046,177.981562 295.769351,177.741313 296.139988,177.500714 296.506934,177.259762 296.870235,177.018284 297.229901,176.776454 297.585944,176.534272 297.938373,176.291564 298.287198,176.048328 298.632430,175.804740 298.974079,175.560801 299.312153,175.316335 299.646700,175.071517 299.977656,174.826348 300.305103,174.580651 300.629049,174.334428 300.949434,174.087852 301.266371,173.840926 301.579765,173.593472 301.889730,173.345666 302.196203,173.097334 302.499230,172.848649 302.798782,172.599438 303.094904,172.349875 303.387639,172.099785 303.676924,171.849343 303.962803,171.598374 304.245319,171.347054 304.524409,171.095206 304.800152,170.843007 305.072519,170.590456 305.341518,170.337203 305.607191,170.083773 305.869511,169.829641 306.128520,169.575333 306.384189,169.320321 306.636596,169.065135 306.885677,168.809245 307.131438,168.553003 307.373958,168.296410 307.613206,168.039290 307.849154,167.781643 308.081879,167.523644 308.311352,167.265118 308.537613,167.006240 308.760599,166.746835 308.980421,166.487079 309.196978,166.226795 309.410348,165.965985 309.620535,165.704647 309.827545,165.443133 310.031348,165.180916 310.232019,164.918347 310.429495,164.655252 310.623814,164.391629 310.815016,164.127655 311.003037,163.863329 311.187952,163.598300 311.369764,163.332920 311.548410,163.067012 311.723997,162.800753 311.896461,162.533967 312.065806,162.266653 312.232072,161.998813 312.395296,161.730620 312.555414,161.461901 312.712464,161.192654 312.866451,160.922880 313.017378,160.652754 313.165284,160.382102 313.310137,160.110922 313.451942,159.839390 313.590735,159.567156 313.726522,159.294570 313.859270,159.021456 313.988983,158.747992 314.115733,158.473824 314.239489,158.199305 314.360219,157.924258 314.477995,157.648684 314.592786,157.372583 314.704594,157.095955 314.813422,156.818800 314.919307,156.541293 315.022217,156.263259 315.122190,155.984521 315.219193,155.705433 315.313297,155.425817 315.404436,155.145673 315.492646,154.865003 315.577930,154.583805 315.660289,154.302256 315.739726,154.020004 315.816242,153.737225 315.889873,153.453918 315.960588,153.170260 316.028387,152.885899 316.093341,152.601010 316.155349,152.315595 316.214515,152.029827 316.270771,151.743357 316.324153,151.456360 316.374663,151.168835 316.422336,150.880783 316.467104,150.592204 316.509004,150.303098 316.548069,150.013288 316.584267,149.723128 316.617633,149.432264 316.648134,149.140873 316.675804,148.849130 316.700609,148.556509 316.722585,148.263536 316.741732,147.970036 316.758051,147.675833 316.771541,147.381102 316.782203,147.085845 316.790038,146.790060 316.795079,146.493572 316.797294,146.196733 316.796680,145.899191 316.793240,145.600945 316.787006,145.302173 316.777979,145.002873 316.766124,144.703046 316.751476,144.402692 316.734033,144.101634 316.713795,143.799874 316.690728,143.497587 316.664900,143.194772 316.636275,142.891430 316.604853,142.587385 316.570668,142.282637 316.533650,141.977537 316.493867,141.671559 316.451318,141.365229 316.405968,141.058021 316.357850,140.750461 316.306928,140.442022 316.253236,140.133232 316.196773,139.823563 316.137536,139.513367 316.075525,139.202644 316.010739,138.891217 315.943141,138.579088 315.872799,138.266431 315.799710,137.953071 315.723805,137.639184 315.645151,137.324594 315.563711,137.009302 315.479518,136.693306 315.392536,136.376783 315.302796,136.059556 315.210263,135.741803 315.114969,135.423171 315.016912,135.104012 314.916088,134.784149 314.812463,134.463584 314.706101,134.142491 314.596932,133.820696 314.485023,133.498021 314.370301,133.174820 314.252833,132.851091 314.132582,132.526483 314.009545,132.201173 313.883754,131.875159 313.755171,131.548618 313.623828,131.221199 313.489653,130.893252 313.352746,130.564602 313.213036,130.235074 313.070553,129.905018 312.925260,129.574083 312.777187,129.242622 312.626333,128.910281 312.472692,128.577238 312.316228,128.243491 312.157005,127.909217 311.994950,127.573889 311.830096,127.238034 311.662472,126.901475 311.492040,126.564038 311.318761,126.226073 311.142701,125.887230 310.963821,125.547508 310.782152,125.207259 310.597619,124.866131 310.410289,124.524300 310.220157,124.181766 310.027183,123.838354 309.831364,123.494238 309.632730,123.149243 309.431240,122.803722 309.226926,122.457146 309.019747,122.110042 308.809735,121.762060 308.596883,121.413199 308.381152,121.063635 308.162572,120.713193 307.941138,120.362047 307.716845,120.010199 307.489652,119.657471 307.259590,119.303865 307.026687,118.949380 306.790869,118.594368 306.552129,118.238302 306.310533,117.881532 306.066039,117.523884 305.818642,117.165357 305.568336,116.806127 305.315116,116.446018 305.058974,116.085030 304.799906,115.723164 304.537904,115.360595 304.272963,114.997147 304.005076,114.632820 303.734273,114.267615 303.460476,113.901530 303.183750,113.534567 302.904052,113.166901 302.621411,112.798181 302.335750,112.428758 302.047132,112.058280 301.755515,111.687099 301.460893,111.314863 301.163257,110.941925 300.862637,110.567932 300.558990,110.193060 300.252343,109.817486 299.942619,109.440856 299.629880,109.063173 299.314119,108.684786 298.995258,108.305521 298.673359,107.925201 298.348415,107.544002 298.020347,107.161925 297.689217,106.778793 297.355018,106.394958 297.017705,106.009893 296.677271,105.624125 296.333706,105.237303 295.987039,104.849601 295.637224,104.460845 295.284252,104.071211 294.928152,103.680522 294.568877,103.288954 294.206456,102.896508 293.840806,102.503007 293.471990,102.108451 293.100000,101.713017 292.724753,101.316528 292.346313,100.918985 291.964669,100.520563 291.579739,100.121086 291.191587,99.720731 290.800165,99.319146 290.405464,98.916682 290.007509,98.513339 289.606218,98.108765 289.201653,97.703314 288.793767,97.296631 288.382586,96.889071 287.968026,96.480455 287.550112,96.070785 287.128871,95.660061 286.704254,95.248458 286.276250,94.835624 285.844811,94.421737 285.409999,94.006794 284.971766,93.590797 284.530099,93.173746 284.084988,92.755640 283.636419,92.336304 283.184344,91.916089 282.728824,91.494644 282.269773,91.072145 281.807253,90.648591 281.341176,90.223982 280.871567,89.798144 280.398375,89.371250 279.921663,88.943127 279.441342,88.513949 278.957436,88.083717 278.469894,87.652430 277.978740,87.219912 277.483960,86.786165 276.985503,86.351363 276.483353,85.915331 275.977536,85.478244 275.468036,85.039927 274.954800,84.600556 274.437814,84.159954 273.917101,83.718122 273.392609,83.275236 272.864320,82.831120 272.332259,82.385773 271.796333,81.939196 271.256603,81.491564 270.713015,81.042527 270.165552,80.592434 269.614198,80.141112 269.058938,79.688560 268.499714,79.234777 267.936588,78.779940 267.369505,78.323696 267.369505,78.323696"/>
	<clipPath id="clipArea3">
		<rect x="59" y="17" width="399" height="258">
		</rect>
	</clipPath>
	<polyline fill="none" stroke="rgb(0,140,72)" stroke-width="4" stroke-opacity="1" clip-path="url(#clipArea3)" points="126.768261,216.431830 127.529713,216.359070 128.288800,216.286134 129.045532,216.213023 129.799921,216.139736 130.551978,216.066449 131.301715,215.992810 132.049114,215.918996 132.794215,215.845181 133.537029,215.771191 134.277511,215.696850 135.015699,215.622508 135.751632,215.547991 136.485266,215.473297 137.216612,215.398604 137.945735,215.323560 138.672562,215.248515 139.397161,215.173119 140.119514,215.097723 140.839631,215.022151 141.557495,214.946403 142.273172,214.870480 142.986590,214.794381 143.697840,214.718106 144.406852,214.641831 145.113690,214.565380 145.818337,214.488578 146.520776,214.411776 147.221070,214.334798 147.919177,214.257645 148.615132,214.180491 149.308919,214.102986 150.000548,214.025481 150.690027,213.947800 151.377395,213.869943 152.062606,213.791911 152.745697,213.713703 153.426678,213.635319 154.105532,213.556935 154.782294,213.478376 155.456948,213.399464 156.129529,213.320553 156.799994,213.241642 157.468378,213.162380 158.134691,213.082941 158.798941,213.003503 159.461112,212.923889 160.121239,212.844099 160.779305,212.764133 161.435344,212.684168 162.089314,212.603851 162.741276,212.523534 163.391186,212.443041 164.039104,212.362372 164.684989,212.281528 165.328849,212.200684 165.970717,212.119488 166.610604,212.038292 167.248465,211.956920 167.884361,211.875373 168.518274,211.793826 169.150214,211.711927 169.780162,211.630028 170.408153,211.547953 171.034194,211.465703 171.658295,211.383453 172.280438,211.300851 172.900631,211.218249 173.518883,211.135472 174.135200,211.052518 174.749618,210.969565 175.362093,210.886260 175.972658,210.802955 176.581321,210.719475 177.188066,210.635818 177.792924,210.552162 178.395879,210.468154 178.996964,210.384147 179.596161,210.299963 180.193478,210.215779 180.788923,210.131244 181.382478,210.046709 181.974200,209.961999 182.564048,209.877112 183.152054,209.792225 183.738224,209.706987 184.322543,209.621749 184.905017,209.536336 185.485678,209.450922 186.064509,209.365156 186.641517,209.279391 187.216710,209.193450 187.790094,209.107333 188.361653,209.021217 188.931441,208.934924 189.499419,208.848456 190.065616,208.761812 190.630015,208.674992 191.192625,208.588172 191.753475,208.501177 192.312548,208.414005 192.869876,208.326834 193.425417,208.239487 193.979202,208.151964 194.531237,208.064266 195.081530,207.976391 195.630086,207.888517 196.176890,207.800467 196.721971,207.712241 197.265335,207.624016 197.806966,207.535614 198.346870,207.447037 198.885054,207.358284 199.421547,207.269531 199.956332,207.180426 200.489393,207.091322 201.020782,207.002217 201.550483,206.912761 202.078478,206.823305 202.604797,206.733849 203.129446,206.644042 203.652408,206.554234 204.173712,206.464251 204.693341,206.374092 205.211325,206.283933 205.727646,206.193422 206.242310,206.102912 206.755347,206.012401 207.266716,205.921715 207.776469,205.830677 208.284567,205.739815 208.791037,205.648602 209.295886,205.557388 209.799120,205.465999 210.300744,205.374610 210.800741,205.282869 211.299117,205.191128 211.795900,205.099212 212.291096,205.007295 212.784689,204.915203 213.276682,204.822935 213.767083,204.730491 214.255919,204.638048 214.743173,204.545428 215.228828,204.452809 215.712935,204.359838 216.195476,204.266867 216.676434,204.173720 217.155838,204.080573 217.633692,203.987251 218.110002,203.893753 218.584750,203.800079 219.057965,203.706405 219.529629,203.612555 219.999770,203.518705 220.468370,203.424504 220.935435,203.330303 221.400992,203.236101 221.865024,203.141549 222.327536,203.046996 222.788534,202.952268 223.248021,202.857539 223.706025,202.762635 224.162508,202.667555 224.617495,202.572475 225.070992,202.477043 225.523004,202.381788 225.973514,202.286180 226.422548,202.190573 226.870112,202.094790 227.316187,201.999007 227.760801,201.902873 228.203937,201.806914 228.645621,201.710604 229.085836,201.614294 229.524609,201.517808 229.961922,201.421146 230.397758,201.324484 230.832166,201.227647 231.265149,201.130810 231.696670,201.033621 232.126775,200.936607 232.555426,200.839243 232.982671,200.741878 233.408472,200.644338 233.832875,200.546621 234.255841,200.448905 234.677377,200.351013 235.097527,200.253121 235.516255,200.155054 235.933607,200.056810 236.349545,199.958391 236.764073,199.859972 237.177195,199.761377 237.588958,199.662782 237.999282,199.564011 238.408297,199.465065 238.815881,199.366118 239.222080,199.266820 239.626940,199.167698 240.030382,199.068224 240.432494,198.968751 240.833237,198.869277 241.232616,198.769452 241.630634,198.669627 242.027296,198.569802 242.422606,198.469801 242.816567,198.369624 243.209183,198.269272 243.600459,198.168919 243.990398,198.068391 244.379003,197.967863 244.766280,197.867159 245.152232,197.766279 245.536820,197.665224 245.920132,197.564168 246.302089,197.463113 246.682735,197.361706 247.062075,197.260475 247.440112,197.158892 247.816850,197.057310 248.192251,196.955551 248.566360,196.853617 248.939181,196.751683 249.310676,196.649749 249.680931,196.547463 250.049826,196.445177 250.417489,196.342892 250.783840,196.240255 251.148923,196.137617 251.512744,196.034980 251.875263,195.932167 252.236526,195.829179 252.596495,195.726190 252.955254,195.623026 253.312686,195.519685 253.668875,195.416345 254.023824,195.312829 254.377496,195.209138 254.729935,195.105446 255.081103,195.001579 255.431045,194.897711 255.779724,194.793668 256.127182,194.689449 256.473384,194.585230 256.818371,194.480836 257.162108,194.376265 257.504638,194.271695 257.845923,194.167125 258.185968,194.062203 258.524814,193.957281 258.862426,193.852359 259.198806,193.747086 259.533997,193.641812 259.868003,193.536539 260.200746,193.431090 260.532310,193.325465 260.862658,193.219840 261.191832,193.114039 261.519796,193.008239 261.846552,192.902087 262.172144,192.796110 262.496534,192.689782 262.819726,192.583454 263.141722,192.477127 263.462565,192.370447 263.782179,192.263944 264.100685,192.157088 264.417967,192.050233 264.734068,191.943378 265.049030,191.836172 265.362817,191.728965 265.675431,191.621758 265.986914,191.514376 266.297191,191.406818 266.606342,191.299260 266.914332,191.191526 267.221163,191.083616 267.526876,190.975707 267.831397,190.867797 268.134806,190.759536 268.437027,190.651275 268.738142,190.543014 269.038114,190.434577 269.336946,190.325964 269.634678,190.217352 269.931237,190.108563 270.226702,189.999599 270.520998,189.890635 270.814205,189.781495 271.106287,189.672355 271.397246,189.563040 271.687086,189.453548 271.975808,189.344057 272.263415,189.234390 272.549910,189.124723 272.835333,189.014880 273.119609,188.904861 273.402781,188.794843 273.684888,188.684649 273.965857,188.574454 274.245765,188.464084 274.524578,188.353538 274.802259,188.242992 275.078888,188.132271 275.354428,188.021549 275.628881,187.910652 275.902250,187.799579 276.174538,187.688506 276.445708,187.577433 276.715839,187.466008 276.984895,187.354583 277.252878,187.243159 277.519791,187.131383 277.785635,187.019782 278.050413,186.907831 278.314165,186.795879 278.576818,186.683927 278.838410,186.571799 279.098946,186.459496 279.358426,186.347193 279.616853,186.234714 279.874229,186.122059 280.130556,186.009404 280.385836,185.896573 280.640072,185.783743 280.893302,185.670737 281.145454,185.557555 281.396567,185.444372 281.646644,185.331190 281.895687,185.217657 282.143696,185.104123 282.390675,184.990590 282.636663,184.876880 282.881587,184.762995 283.125487,184.649110 283.368364,184.535049 283.610220,184.420813 283.851057,184.306576 284.090877,184.192340 284.329720,184.077752 284.567512,183.963339 284.804293,183.848576 285.040065,183.733812 285.274829,183.618872 285.508587,183.503933 285.741379,183.388817 285.973132,183.273702 286.203885,183.158411 286.433640,183.042944 286.662435,182.927477 286.890198,182.811835 287.116969,182.696192 287.342785,182.580374 287.567575,182.464380 287.791377,182.348386 288.014231,182.232216 288.236063,182.116046 288.456949,181.999701 288.676818,181.883180 288.895745,181.766658 289.113657,181.649961 289.330631,181.533264 289.546631,181.416391 289.761621,181.299343 289.975678,181.182294 290.188765,181.065246 290.400885,180.947846 290.612039,180.830446 290.822229,180.713046 291.031456,180.595470 291.239722,180.477718 291.447029,180.359791 291.653414,180.241864 291.858807,180.123937 292.063281,180.005833 292.266765,179.887555 292.469335,179.769276 292.670954,179.650821 292.871624,179.532191 293.071347,179.413561 293.270125,179.294755 293.467958,179.175949 293.664849,179.056967 293.860835,178.937985 294.055881,178.818828 294.249952,178.699494 294.443123,178.579985 294.635359,178.460652 294.826696,178.340967 295.017065,178.221283 295.206502,178.101422 295.395046,177.981562 295.582662,177.861525 295.769351,177.741313 295.955113,177.621101 296.139988,177.500714 296.323904,177.380326 296.506934,177.259762 296.689044,177.139199 296.870235,177.018284 297.050544,176.897545 297.229901,176.776454 297.408379,176.655363 297.585944,176.534272 297.762596,176.412830 297.938373,176.291564 298.113240,176.169946 298.287198,176.048328 298.460249,175.926710 298.632430,175.804740 298.803706,175.682946 298.974079,175.560801 299.143549,175.438656 299.312153,175.316335 299.479858,175.194014 299.646700,175.071517 299.812608,174.949020 299.977656,174.826348 300.141844,174.703500 300.305103,174.580651 300.467504,174.457627 300.629049,174.334428 300.789668,174.211228 300.949434,174.087852 301.108346,173.964477 301.266371,173.840926 301.423511,173.717199 301.579765,173.593472 301.735171,173.469569 301.889730,173.345666 302.043407,173.221588 302.196203,173.097334 302.348120,172.973079 302.499230,172.848649 302.649426,172.724044 302.798782,172.599438 302.947298,172.474657 303.094904,172.349875 303.241707,172.224918 303.387639,172.099785 303.532699,171.974652 303.676924,171.849343 303.820280,171.723859 303.962803,171.598374 304.104494,171.472714 304.245319,171.347054 304.385279,171.221218 304.524409,171.095206 304.662712,170.969194 304.800152,170.843007 304.936731,170.716819 305.072519,170.590456 305.207448,170.463917 305.341518,170.337203 305.474766,170.210488 305.607191,170.083773 305.738761,169.956707 305.869511,169.829641 305.999442,169.702575 306.128520,169.575333 306.256780,169.447915 306.384189,169.320321 306.510817,169.192728 306.636596,169.065135 306.761525,168.937190 306.885677,168.809245 307.008981,168.681300 307.131438,168.553003 307.253120,168.424707 307.373958,168.296410 307.493986,168.167938 307.613206,168.039290 307.731583,167.910467 307.849154,167.781643 307.965919,167.652643 308.081879,167.523644 308.197035,167.394469 308.311352,167.265118 308.424901,167.135767 308.537613,167.006240 308.649524,166.876538 308.760599,166.746835 308.870909,166.616957 308.980421,166.487079 309.089098,166.356849 309.196978,166.226795 309.304061,166.096390 309.410348,165.965985 309.515839,165.835403 309.620535,165.704647 309.724437,165.573890 309.827545,165.443133 309.929860,165.312024 310.031348,165.180916 310.132079,165.049632 310.232019,164.918347 310.331134,164.786888 310.429495,164.655252 310.527066,164.523616 310.623814,164.391629 310.623814,164.391629"/>
</svg>
