<?xml version="1.0" standalone="no"?>
<!DOCTYPE svg PUBLIC "-//W3C//DTD SVG 1.1//EN" "http://www.w3.org/Graphics/SVG/1.1/DTD/svg11.dtd">
<svg width="483" height="300" version="1.1" xmlns="http://www.w3.org/2000/svg" xmlns:xlink="http://www.w3.org/1999/xlink">
	<polyline style="shape-rendering:crispEdges" fill="none" stroke="rgb(229,229,229)" stroke-width="1" stroke-opacity="1" points="59.000000,17.000000 59.000000,275.000000"/>
	<polyline style="shape-rendering:crispEdges" fill="none" stroke="rgb(229,229,229)" stroke-width="1" stroke-opacity="1" points="108.875000,17.000000 108.875000,275.000000"/>
	<polyline style="shape-rendering:crispEdges" fill="none" stroke="rgb(229,229,229)" stroke-width="1" stroke-opacity="1" points="158.750000,17.000000 158.750000,275.000000"/>
	<polyline style="shape-rendering:crispEdges" fill="none" stroke="rgb(229,229,229)" stroke-width="1" stroke-opacity="1" points="208.625000,17.000000 208.625000,275.000000"/>
	<polyline style="shape-rendering:crispEdges" fill="none" stroke="rgb(229,229,229)" stroke-width="1" stroke-opacity="1" points="258.500000,17.000000 258.500000,275.000000"/>
	<polyline style="shape-rendering:crispEdges" fill="none" stroke="rgb(229,229,229)" stroke-width="1" stroke-opacity="1" points="308.375000,17.000000 308.375000,275.000000"/>
	<polyline style="shape-rendering:crispEdges" fill="none" stroke="rgb(229,229,229)" stroke-width="1" stroke-opacity="1" points="358.250000,17.000000 358.250000,275.000000"/>
	<polyline style="shape-rendering:crispEdges" fill="none" stroke="rgb(229,229,229)" stroke-width="1" stroke-opacity="1" points="408.125000,17.000000 408.125000,275.000000"/>
	<polyline style="shape-rendering:crispEdges" fill="none" stroke="rgb(229,229,229)" stroke-width="1" stroke-opacity="1" points="458.000000,17.000000 458.000000,275.000000"/>
	<polyline style="shape-rendering:crispEdges" fill="none" stroke="rgb(229,229,229)" stroke-width="1" stroke-opacity="1" points="59.000000,275.000000 458.000000,275.000000"/>
	<polyline style="shape-rendering:crispEdges" fill="none" stroke="rgb(229,229,229)" stroke-width="1" stroke-opacity="1" points="59.000000,246.333333 458.000000,246.333333"/>
	<polyline style="shape-rendering:crispEdges" fill="none" stroke="rgb(229,229,229)" stroke-width="1" stroke-opacity="1" points="59.000000,217.666667 458.000000,217.666667"/>
	<polyline style="shape-rendering:crispEdges" fill="none" stroke="rgb(229,229,229)" stroke-width="1" stroke-opacity="1" points="59.000000,189.000000 458.000000,189.000000"/>
	<polyline style="shape-rendering:crispEdges" fill="none" stroke="rgb(229,229,229)" stroke-width="1" stroke-opacity="1" points="59.000000,160.333333 458.000000,160.333333"/>
	<polyline style="shape-rendering:crispEdges" fill="none" stroke="rgb(229,229,229)" stroke-width="1" stroke-opacity="1" points="59.000000,131.666667 458.000000,131.666667"/>
	<polyline style="shape-rendering:crispEdges" fill="none" stroke="rgb(229,229,229)" stroke-width="1" stroke-opacity="1" points="59.000000,103.000000 458.000000,103.000000"/>
	<polyline style="shape-rendering:crispEdges" fill="none" stroke="rgb(229,229,229)" stroke-width="1" stroke-opacity="1" points="59.000000,74.333333 458.000000,74.333333"/>
	<polyline style="shape-rendering:crispEdges" fill="none" stroke="rgb(229,229,229)" stroke-width="1" stroke-opacity="1" points="59.000000,45.666667 458.000000,45.666667"/>
	<polyline style="shape-rendering:crispEdges" fill="none" stroke="rgb(229,229,229)" stroke-width="1" stroke-opacity="1" points="59.000000,17.000000 458.000000,17.000000"/>
	<polyline style="shape-rendering:crispEdges" fill="none" stroke="rgb(0,0,0)" stroke-width="1" stroke-opacity="1" points="59.000000,275.000000 458.000000,275.000000"/>
	<polyline style="shape-rendering:crispEdges" fill="none" stroke="rgb(0,0,0)" stroke-width="1" stroke-opacity="1" points="458.000000,275.000000 458.000000,17.000000"/>
	<polyline style="shape-rendering:crispEdges" fill="none" stroke="rgb(0,0,0)" stroke-width="1" stroke-opacity="1" points="458.000000,17.000000 59.000000,17.000000"/>
	<polyline style="shape-rendering:crispEdges" fill="none" stroke="rgb(0,0,0)" stroke-width="1" stroke-opacity="1" points="59.000000,17.000000 59.000000,275.000000"/>
	<polyline style="shape-rendering:crispEdges" fill="none" stroke="rgb(0,0,0)" stroke-width="1" stroke-opacity="1" points="59.000000,275.000000 59.000000,279.000000"/>
	<polyline style="shape-rendering:crispEdges" fill="none" stroke="rgb(0,0,0)" stroke-width="1" stroke-opacity="1" points="108.875000,275.000000 108.875000,279.000000"/>
	<polyline style="shape-rendering:crispEdges" fill="none" stroke="rgb(0,0,0)" stroke-width="1" stroke-opacity="1" points="158.750000,275.000000 158.750000,279.000000"/>
	<polyline style="shape-rendering:crispEdges" fill="none" stroke="rgb(0,0,0)" stroke-width="1" stroke-opacity="1" points="208.625000,275.000000 208.625000,279.000000"/>
	<polyline style="shape-rendering:crispEdges" fill="none" stroke="rgb(0,0,0)" stroke-width="1" stroke-opacity="1" points="258.500000,275.000000 258.500000,279.000000"/>
	<polyline style="shape-rendering:crispEdges" fill="none" stroke="rgb(0,0,0)" stroke-width="1" stroke-opacity="1" points="308.375000,275.000000 308.375000,279.000000"/>
	<polyline style="shape-rendering:crispEdges" fill="none" stroke="rgb(0,0,0)" stroke-width="1" stroke-opacity="1" points="358.250000,275.000000 358.250000,279.000000"/>
	<polyline style="shape-rendering:crispEdges" fill="none" stroke="rgb(0,0,0)" stroke-width="1" stroke-opacity="1" points="408.125000,275.000000 408.125000,279.000000"/>
	<polyline style="shape-rendering:crispEdges" fill="none" stroke="rgb(0,0,0)" stroke-width="1" stroke-opacity="1" points="458.000000,275.000000 458.000000,279.000000"/>
	<polyline style="shape-rendering:crispEdges" fill="none" stroke="rgb(0,0,0)" stroke-width="1" stroke-opacity="1" points="59.000000,275.000000 59.000000,281.400000"/>
	<text style="shape-rendering:crispEdges" x="59" y="291.5" fill="rgb(0,0,0)" dominant-baseline="central" font-size="11" font-family="Arial" text-anchor="middle">20</text>
	<polyline style="shape-rendering:crispEdges" fill="none" stroke="rgb(0,0,0)" stroke-width="1" stroke-opacity="1" points="158.750000,275.000000 158.750000,281.400000"/>
	<text style="shape-rendering:crispEdges" x="158.75" y="291.5" fill="rgb(0,0,0)" dominant-baseline="central" font-size="11" font-family="Arial" text-anchor="middle">30</text>
	<polyline style="shape-rendering:crispEdges" fill="none" stroke="rgb(0,0,0)" stroke-width="1" stroke-opacity="1" points="258.500000,275.000000 258.500000,281.400000"/>
	<text style="shape-rendering:crispEdges" x="258.5" y="291.5" fill="rgb(0,0,0)" dominant-baseline="central" font-size="11" font-family="Arial" text-anchor="middle">40</text>
	<polyline style="shape-rendering:crispEdges" fill="none" stroke="rgb(0,0,0)" stroke-width="1" stroke-opacity="1" points="358.250000,275.000000 358.250000,281.400000"/>
	<text style="shape-rendering:crispEdges" x="358.25" y="291.5" fill="rgb(0,0,0)" dominant-baseline="central" font-size="11" font-family="Arial" text-anchor="middle">50</text>
	<polyline style="shape-rendering:crispEdges" fill="none" stroke="rgb(0,0,0)" stroke-width="1" stroke-opacity="1" points="458.000000,275.000000 458.000000,281.400000"/>
	<text style="shape-rendering:crispEdges" x="458" y="291.5" fill="rgb(0,0,0)" dominant-baseline="central" font-size="11" font-family="Arial" text-anchor="middle">60</text>
	<polyline style="shape-rendering:crispEdges" fill="none" stroke="rgb(0,0,0)" stroke-width="1" stroke-opacity="1" points="55.000000,275.000000 59.000000,275.000000"/>
	<polyline style="shape-rendering:crispEdges" fill="none" stroke="rgb(0,0,0)" stroke-width="1" stroke-opacity="1" points="55.000000,246.333333 59.000000,246.333333"/>
	<polyline style="shape-rendering:crispEdges" fill="none" stroke="rgb(0,0,0)" stroke-width="1" stroke-opacity="1" points="55.000000,217.666667 59.000000,217.666667"/>
	<polyline style="shape-rendering:crispEdges" fill="none" stroke="rgb(0,0,0)" stroke-width="1" stroke-opacity="1" points="55.000000,189.000000 59.000000,189.000000"/>
	<polyline style="shape-rendering:crispEdges" fill="none" stroke="rgb(0,0,0)" stroke-width="1" stroke-opacity="1" points="55.000000,160.333333 59.000000,160.333333"/>
	<polyline style="shape-rendering:crispEdges" fill="none" stroke="rgb(0,0,0)" stroke-width="1" stroke-opacity="1" points="55.000000,131.666667 59.000000,131.666667"/>
	<polyline style="shape-rendering:crispEdges" fill="none" stroke="rgb(0,0,0)" stroke-width="1" stroke-opacity="1" points="55.000000,103.000000 59.000000,103.000000"/>
	<polyline style="shape-rendering:crispEdges" fill="none" stroke="rgb(0,0,0)" stroke-width="1" stroke-opacity="1" points="55.000000,74.333333 59.000000,74.333333"/>
	<polyline style="shape-rendering:crispEdges" fill="none" stroke="rgb(0,0,0)" stroke-width="1" stroke-opacity="1" points="55.000000,45.666667 59.000000,45.666667"/>
	<polyline style="shape-rendering:crispEdges" fill="none" stroke="rgb(0,0,0)" stroke-width="1" stroke-opacity="1" points="55.000000,17.000000 59.000000,17.000000"/>
	<rect style="shape-rendering:crispEdges" fill="none" stroke="none" stroke-dasharray="none" stroke-width="1" stroke-opacity="1" x="0" y="267" width="51" height="16"/>
	<polyline style="shape-rendering:crispEdges" fill="none" stroke="rgb(0,0,0)" stroke-width="1" stroke-opacity="1" points="52.600000,275.000000 59.000000,275.000000"/>
	<text style="shape-rendering:crispEdges" x="51" y="275" fill="rgb(0,0,0)" dominant-baseline="central" font-size="11" font-family="Arial" text-anchor="end">0</text>
	<polyline style="shape-rendering:crispEdges" fill="none" stroke="rgb(0,0,0)" stroke-width="1" stroke-opacity="1" points="52.600000,217.666667 59.000000,217.666667"/>
	<text style="shape-rendering:crispEdges" x="51" y="217.667" fill="rgb(0,0,0)" dominant-baseline="central" font-size="11" font-family="Arial" text-anchor="end">10</text>
	<polyline style="shape-rendering:crispEdges" fill="none" stroke="rgb(0,0,0)" stroke-width="1" stroke-opacity="1" points="52.600000,160.333333 59.000000,160.333333"/>
	<text style="shape-rendering:crispEdges" x="51" y="160.333" fill="rgb(0,0,0)" dominant-baseline="central" font-size="11" font-family="Arial" text-anchor="end">20</text>
	<polyline style="shape-rendering:crispEdges" fill="none" stroke="rgb(0,0,0)" stroke-width="1" stroke-opacity="1" points="52.600000,103.000000 59.000000,103.000000"/>
	<text style="shape-rendering:crispEdges" x="51" y="103" fill="rgb(0,0,0)" dominant-baseline="central" font-size="11" font-family="Arial" text-anchor="end">30</text>
	<polyline style="shape-rendering:crispEdges" fill="none" stroke="rgb(0,0,0)" stroke-width="1" stroke-opacity="1" points="52.600000,45.666667 59.000000,45.666667"/>
	<text style="shape-rendering:crispEdges" x="51" y="45.6667" fill="rgb(0,0,0)" dominant-baseline="central" font-size="11" font-family="Arial" text-anchor="end">40</text>
	<clipPath id="clipArea1">
		<rect x="59" y="17" width="399" height="258">
		</rect>
	</clipPath>
	<polyline fill="none" stroke="rgb(238,46,47)" stroke-width="2" stroke-opacity="1" clip-path="url(#clipArea1)" points="59.000000,262.488977 59.797999,262.490613 60.595998,262.492246 61.393998,262.493875 62.191997,262.495500 62.989996,262.497124 63.787995,262.498744 64.585995,262.500360 65.383994,262.501974 66.181993,262.503584 66.979992,262.505192 67.777992,262.506797 68.575991,262.508399 69.374009,262.509998 70.172008,262.511593 70.970008,262.513186 71.768007,262.514775 72.566006,262.516362 73.364005,262.517947 74.162005,262.519528 74.960004,262.521106 75.758003,262.522680 76.556002,262.524254 77.354002,262.525823 78.152001,262.527389 78.950000,262.528953 79.747999,262.530516 80.545998,262.532074 81.343998,262.533629 82.141997,262.535182 82.939996,262.536732 83.737995,262.538280 84.535995,262.539824 85.333994,262.541366 86.131993,262.542905 86.929992,262.544442 87.727992,262.545976 88.525991,262.547507 89.324009,262.549035 90.122008,262.550562 90.920008,262.552084 91.718007,262.553606 92.516006,262.555123 93.314005,262.556639 94.112005,262.558152 94.910004,262.559663 95.708003,262.561170 96.506002,262.562675 97.304002,262.564178 98.102001,262.565679 98.900000,262.567175 99.697999,262.568671 100.495998,262.570164 101.293998,262.571653 102.091997,262.573142 102.889996,262.574627 103.687995,262.576110 104.485995,262.577590 105.283994,262.579069 106.081993,262.580544 106.879992,262.582018 107.677992,262.583488 108.475991,262.584956 109.274009,262.586423 110.072008,262.587886 110.870008,262.589347 111.668007,262.590807 112.466006,262.592263 113.264005,262.593717 114.062005,262.595170 114.860004,262.596619 115.658003,262.598067 116.456002,262.599512 117.254002,262.600955 118.052001,262.602396 118.850000,262.603834 119.647999,262.605270 120.445998,262.606704 121.243998,262.608136 122.041997,262.609565 122.839996,262.610992 123.637995,262.612417 124.435995,262.613840 125.233994,262.615260 126.031993,262.616679 126.829992,262.618095 127.627992,262.619510 128.425991,262.620922 129.224009,262.622331 130.022008,262.623739 130.820008,262.625144 131.618007,262.626548 132.416006,262.627949 133.214005,262.629349 134.012005,262.630746 134.810004,262.632142 135.608003,262.633535 136.406002,262.634925 137.204002,262.636314 138.002001,262.637701 138.800000,262.639086 139.597999,262.640468 140.395998,262.641850 141.193998,262.643227 141.991997,262.644604 142.789996,262.645979 143.587995,262.647351 144.385995,262.648723 145.183994,262.650091 145.981993,262.651458 146.779992,262.652822 147.577992,262.654185 148.375991,262.655546 149.174009,262.656905 149.972008,262.658262 150.770008,262.659617 151.568007,262.660970 152.366006,262.662321 153.164005,262.663671 153.962005,262.665018 154.760004,262.666363 155.558003,262.667706 156.356002,262.669049 157.154002,262.670388 157.952001,262.671727 158.750000,262.673062 159.547999,262.674396 160.345998,262.675729 161.143998,262.677059 161.941997,262.678388 162.739996,262.679715 163.537995,262.681040 164.335995,262.682363 165.133994,262.683685 165.931993,262.685004 166.729992,262.686321 167.527992,262.687638 168.325991,262.688951 169.124009,262.690265 169.922008,262.691575 170.720008,262.692884 171.518007,262.694191 172.316006,262.695496 173.114005,262.696800 173.912005,262.698102 174.710004,262.699402 175.508003,262.700700 176.306002,262.701996 177.104002,262.703292 177.902001,262.704585 178.700000,262.705877 179.498018,262.707166 180.295998,262.708453 181.094017,262.709740 181.891997,262.711025 182.690015,262.712308 183.487995,262.713589 184.286014,262.714868 185.083994,262.716147 185.882012,262.717423 186.679992,262.718697 187.478011,262.719971 188.275991,262.721242 189.074009,262.722512 189.871989,262.723779 190.670008,262.725047 191.467988,262.726311 192.266006,262.727574 193.063986,262.728836 193.862005,262.730096 194.659985,262.731355 195.458003,262.732611 196.255983,262.733866 197.054002,262.735120 197.851982,262.736372 198.650000,262.737622 199.448018,262.738872 200.245998,262.740118 201.044017,262.741364 201.841997,262.742608 202.640015,262.743852 203.437995,262.745091 204.236014,262.746331 205.033994,262.747570 205.832012,262.748805 206.629992,262.750041 207.428011,262.751274 208.225991,262.752506 209.024009,262.753736 209.821989,262.754965 210.620008,262.756192 211.417988,262.757418 212.216006,262.758642 213.013986,262.759865 213.812005,262.761086 214.609985,262.762306 215.408003,262.763524 216.205983,262.764741 217.004002,262.765958 217.801982,262.767171 218.600000,262.768384 219.398018,262.769594 220.195998,262.770803 220.994017,262.772012 221.791997,262.773219 222.590015,262.774424 223.387995,262.775627 224.186014,262.776830 224.983994,262.778030 225.782012,262.779230 226.579992,262.780428 227.378011,262.781625 228.175991,262.782820 228.974009,262.784013 229.771989,262.785207 230.570008,262.786397 231.367988,262.787587 232.166006,262.788776 232.963986,262.789962 233.762005,262.791147 234.559985,262.792331 235.358003,262.793514 236.155983,262.794696 236.954002,262.795876 237.751982,262.797054 238.550000,262.798231 239.348018,262.799406 240.145998,262.800582 240.944017,262.801755 241.741997,262.802926 242.540015,262.804096 243.337995,262.805266 244.136014,262.806434 244.933994,262.807600 245.732012,262.808766 246.529992,262.809929 247.328011,262.811091 248.125991,262.812253 248.924009,262.813412 249.721989,262.814571 250.520008,262.815728 251.317988,262.816884 252.116006,262.818039 252.913986,262.819191 253.712005,262.820344 254.509985,262.821495 255.308003,262.822644 256.105983,262.823792 256.904002,262.824939 257.701982,262.826085 258.500000,262.827229 259.298018,262.828372 260.095998,262.829513 260.894017,262.830654 261.691997,262.831793 262.490015,262.832932 263.287995,262.834068 264.086014,262.835204 264.883994,262.836338 265.682012,262.837471 266.479992,262.838603 267.278011,262.839734 268.075991,262.840863 268.874009,262.841990 269.671989,262.843118 270.470008,262.844243 271.267988,262.845368 272.066006,262.846490 272.863986,262.847613 273.662005,262.848734 274.459985,262.849853 275.258003,262.850971 276.055983,262.852088 276.854002,262.853205 277.651982,262.854319 278.450000,262.855433 279.248018,262.856546 280.045998,262.857656 280.844017,262.858767 281.641997,262.859875 282.440015,262.860983 283.237995,262.862088 284.036014,262.863194 284.833994,262.864299 285.632012,262.865402 286.429992,262.866504 287.228011,262.867604 288.025991,262.868703 288.824009,262.869802 289.621989,262.870898 290.420008,262.871995 291.217988,262.873090 292.016006,262.874183 292.813986,262.875275 293.612005,262.876367 294.409985,262.877457 295.208003,262.878546 296.005983,262.879634 296.804002,262.880721 297.601982,262.881808 298.400000,262.882892 299.198018,262.883976 299.995998,262.885058 300.794017,262.886140 301.591997,262.887220 302.390015,262.888298 303.187995,262.889377 303.986014,262.890454 304.783994,262.891529 305.582012,262.892604 306.379992,262.893677 307.178011,262.894750 307.975991,262.895822 308.774009,262.896892 309.571989,262.897961 310.370008,262.899028 311.167988,262.900096 311.966006,262.901162 312.763986,262.902227 313.562005,262.903291 314.359985,262.904354 315.158003,262.905415 315.955983,262.906476 316.754002,262.907535 317.551982,262.908594 318.350000,262.909651 319.148018,262.910708 319.945998,262.911763 320.744017,262.912818 321.541997,262.913871 322.340015,262.914923 323.137995,262.915974 323.936014,262.917024 324.733994,262.918073 325.532012,262.919121 326.329992,262.920168 327.128011,262.921214 327.925991,262.922260 328.724009,262.923302 329.521989,262.924345 330.320008,262.925388 331.117988,262.926429 331.916006,262.927469 332.713986,262.928508 333.512005,262.929545 334.309985,262.930581 335.108003,262.931618 335.905983,262.932652 336.704002,262.933686 337.501982,262.934719 338.300000,262.935751 339.098018,262.936782 339.895998,262.937811 340.694017,262.938840 341.491997,262.939868 342.290015,262.940895 343.087995,262.941920 343.886014,262.942945 344.683994,262.943969 345.482012,262.944992 346.279992,262.946014 347.078011,262.947035 347.875991,262.948055 348.674009,262.949073 349.471989,262.950092 350.270008,262.951109 351.067988,262.952126 351.866006,262.953140 352.663986,262.954154 353.462005,262.955167 354.259985,262.956180 355.058003,262.957191 355.855983,262.958202 356.654002,262.959210 357.451982,262.960219 358.250000,262.961227 359.048018,262.962233 359.845998,262.963239 360.644017,262.964244 361.441997,262.965247 362.240015,262.966250 363.037995,262.967252 363.836014,262.968253 364.633994,262.969252 365.432012,262.970251 366.229992,262.971249 367.028011,262.972247 367.825991,262.973243 368.624009,262.974239 369.421989,262.975232 370.220008,262.976226 371.017988,262.977218 371.816006,262.978211 372.613986,262.979202 373.412005,262.980192 374.209985,262.981180 375.008003,262.982168 375.805983,262.983155 376.604002,262.984142 377.401982,262.985128 378.200000,262.986112 378.998018,262.987095 379.795998,262.988077 380.594017,262.989059 381.391997,262.990040 382.190015,262.991020 382.987995,262.991999 383.786014,262.992978 384.583994,262.993955 385.382012,262.994931 386.179992,262.995907 386.978011,262.996882 387.775991,262.997855 388.574009,262.998828 389.371989,262.999800 390.170008,263.000771 390.967988,263.001741 391.766006,263.002710 392.563986,263.003680 393.362005,263.004647 394.159985,263.005614 394.958003,263.006580 395.755983,263.007545 396.554002,263.008509 397.351982,263.009473 398.150000,263.010435 398.948018,263.011397 399.745998,263.012358 400.544017,263.013318 401.341997,263.014276 402.140015,263.015236 402.937995,263.016192 403.736014,263.017149 404.533994,263.018105 405.332012,263.019060 406.129992,263.020013 406.928011,263.020967 407.725991,263.021920 408.524009,263.022871 409.321989,263.023821 410.120008,263.024771 410.917988,263.025720 411.716006,263.026669 412.513986,263.027616 413.312005,263.028563 414.109985,263.029509 414.908003,263.030454 415.705983,263.031398 416.504002,263.032341 417.301982,263.033283 418.100000,263.034225 418.898018,263.035165 419.695998,263.036106 420.494017,263.037045 421.291997,263.037984 422.090015,263.038922 422.887995,263.039858 423.686014,263.040794 424.483994,263.041729 425.282012,263.042664 426.079992,263.043598 426.878011,263.044530 427.675991,263.045463 428.474009,263.046393 429.271989,263.047324 430.070008,263.048254 430.867988,263.049182 431.666006,263.050110 432.463986,263.051038 433.262005,263.051964 434.059985,263.052890 434.858003,263.053815 435.655983,263.054739 436.454002,263.055663 437.251982,263.056585 438.050000,263.057507 438.848018,263.058428 439.645998,263.059348 440.444017,263.060268 441.241997,263.061186 442.040015,263.062104 442.837995,263.063021 443.636014,263.063938 444.433994,263.064853 445.232012,263.065768 446.029992,263.066681 446.828011,263.067596 447.625991,263.068508 448.424009,263.069419 449.221989,263.070331 450.020008,263.071242 450.817988,263.072151 451.616006,263.073060 452.413986,263.073967 453.212005,263.074875 454.009985,263.075781 454.808003,263.076687 455.605983,263.077592 456.404002,263.078496 457.201982,263.079399 458.000000,263.080303 458.000000,263.080303"/>
	<clipPath id="clipArea2">
		<rect x="59" y="17" width="399" height="258">
		</rect>
	</clipPath>
	<polyline fill="none" stroke="rgb(238,46,47)" stroke-width="2" stroke-opacity="1" clip-path="url(#clipArea2)" points="59.000000,186.243410 59.797999,186.277381 60.595998,186.311237 61.393998,186.344984 62.191997,186.378621 62.989996,186.412149 63.787995,186.445568 64.585995,186.478883 65.383994,186.512089 66.181993,186.545185 66.979992,186.578183 67.777992,186.611071 68.575991,186.643856 69.374009,186.676536 70.172008,186.709118 70.970008,186.741597 71.768007,186.773971 72.566006,186.806253 73.364005,186.838430 74.162005,186.870504 74.960004,186.902485 75.758003,186.934367 76.556002,186.966151 77.354002,186.997842 78.152001,187.029435 78.950000,187.060934 79.747999,187.092335 80.545998,187.123649 81.343998,187.154864 82.141997,187.185987 82.939996,187.217022 83.737995,187.247963 84.535995,187.278812 85.333994,187.309568 86.131993,187.340242 86.929992,187.370823 87.727992,187.401311 88.525991,187.431718 89.324009,187.462036 90.122008,187.492262 90.920008,187.522405 91.718007,187.552467 92.516006,187.582436 93.314005,187.612322 94.112005,187.642127 94.910004,187.671849 95.708003,187.701485 96.506002,187.731038 97.304002,187.760509 98.102001,187.789898 98.900000,187.819210 99.697999,187.848435 100.495998,187.877584 101.293998,187.906656 102.091997,187.935640 102.889996,187.964554 103.687995,187.993385 104.485995,188.022140 105.283994,188.050813 106.081993,188.079414 106.879992,188.107939 107.677992,188.136383 108.475991,188.164755 109.274009,188.193050 110.072008,188.221275 110.870008,188.249422 111.668007,188.277494 112.466006,188.305494 113.264005,188.333423 114.062005,188.361276 114.860004,188.389057 115.658003,188.416768 116.456002,188.444407 117.254002,188.471976 118.052001,188.499473 118.850000,188.526899 119.647999,188.554259 120.445998,188.581543 121.243998,188.608767 122.041997,188.635915 122.839996,188.662996 123.637995,188.690012 124.435995,188.716957 125.233994,188.743837 126.031993,188.770650 126.829992,188.797393 127.627992,188.824076 128.425991,188.850693 129.224009,188.877238 130.022008,188.903724 130.820008,188.930144 131.618007,188.956499 132.416006,188.982788 133.214005,189.009016 134.012005,189.035179 134.810004,189.061277 135.608003,189.087320 136.406002,189.113291 137.204002,189.139208 138.002001,189.165060 138.800000,189.190851 139.597999,189.216582 140.395998,189.242248 141.193998,189.267859 141.991997,189.293404 142.789996,189.318895 143.587995,189.344325 144.385995,189.369695 145.183994,189.395005 145.981993,189.420255 146.779992,189.445451 147.577992,189.470586 148.375991,189.495666 149.174009,189.520687 149.972008,189.545652 150.770008,189.570558 151.568007,189.595409 152.366006,189.620199 153.164005,189.644941 153.962005,189.669622 154.760004,189.694249 155.558003,189.718821 156.356002,189.743333 157.154002,189.767795 157.952001,189.792203 158.750000,189.816557 159.547999,189.840855 160.345998,189.865105 161.143998,189.889294 161.941997,189.913434 162.739996,189.937519 163.537995,189.961555 164.335995,189.985531 165.133994,190.009464 165.931993,190.033341 166.729992,190.057164 167.527992,190.080938 168.325991,190.104662 169.124009,190.128332 169.922008,190.151958 170.720008,190.175524 171.518007,190.199046 172.316006,190.222519 173.114005,190.245938 173.912005,190.269312 174.710004,190.292632 175.508003,190.315903 176.306002,190.339130 177.104002,190.362302 177.902001,190.385431 178.700000,190.408510 179.498018,190.431540 180.295998,190.454526 181.094017,190.477458 181.891997,190.500346 182.690015,190.523190 183.487995,190.545985 184.286014,190.568731 185.083994,190.591433 185.882012,190.614086 186.679992,190.636695 187.478011,190.659255 188.275991,190.681771 189.074009,190.704243 189.871989,190.726672 190.670008,190.749051 191.467988,190.771387 192.266006,190.793679 193.063986,190.815927 193.862005,190.838126 194.659985,190.860287 195.458003,190.882404 196.255983,190.904471 197.054002,190.926501 197.851982,190.948481 198.650000,190.970423 199.448018,190.992322 200.245998,191.014176 201.044017,191.035987 201.841997,191.057759 202.640015,191.079483 203.437995,191.101168 204.236014,191.122814 205.033994,191.144412 205.832012,191.165971 206.629992,191.187492 207.428011,191.208969 208.225991,191.230403 209.024009,191.251798 209.821989,191.273155 210.620008,191.294468 211.417988,191.315738 212.216006,191.336975 213.013986,191.358168 213.812005,191.379317 214.609985,191.400433 215.408003,191.421506 216.205983,191.442540 217.004002,191.463536 217.801982,191.484489 218.600000,191.505408 219.398018,191.526284 220.195998,191.547127 220.994017,191.567926 221.791997,191.588687 222.590015,191.609410 223.387995,191.630100 224.186014,191.650746 224.983994,191.671354 225.782012,191.691929 226.579992,191.712466 227.378011,191.732964 228.175991,191.753424 228.974009,191.773846 229.771989,191.794236 230.570008,191.814581 231.367988,191.834899 232.166006,191.855173 232.963986,191.875415 233.762005,191.895618 234.559985,191.915789 235.358003,191.935921 236.155983,191.956015 236.954002,191.976076 237.751982,191.996104 238.550000,192.016094 239.348018,192.036052 240.145998,192.055971 240.944017,192.075857 241.741997,192.095705 242.540015,192.115520 243.337995,192.135302 244.136014,192.155046 244.933994,192.174757 245.732012,192.194435 246.529992,192.214081 247.328011,192.233688 248.125991,192.253268 248.924009,192.272810 249.721989,192.292319 250.520008,192.311795 251.317988,192.331233 252.116006,192.350643 252.913986,192.370021 253.712005,192.389360 254.509985,192.408672 255.308003,192.427946 256.105983,192.447192 256.904002,192.466406 257.701982,192.485587 258.500000,192.504729 259.298018,192.523844 260.095998,192.542932 260.894017,192.561982 261.691997,192.580999 262.490015,192.599988 263.287995,192.618945 264.086014,192.637868 264.883994,192.656765 265.682012,192.675623 266.479992,192.694454 267.278011,192.713258 268.075991,192.732023 268.874009,192.750761 269.671989,192.769471 270.470008,192.788149 271.267988,192.806794 272.066006,192.825412 272.863986,192.843997 273.662005,192.862549 274.459985,192.881073 275.258003,192.899571 276.055983,192.918035 276.854002,192.936472 277.651982,192.954877 278.450000,192.973254 279.248018,192.991603 280.045998,193.009920 280.844017,193.028210 281.641997,193.046467 282.440015,193.064696 283.237995,193.082898 284.036014,193.101073 284.833994,193.119215 285.632012,193.137329 286.429992,193.155417 287.228011,193.173477 288.025991,193.191504 288.824009,193.209504 289.621989,193.227481 290.420008,193.245421 291.217988,193.263339 292.016006,193.281229 292.813986,193.299092 293.612005,193.316923 294.409985,193.334731 295.208003,193.352507 296.005983,193.370260 296.804002,193.387981 297.601982,193.405680 298.400000,193.423347 299.198018,193.440985 299.995998,193.458603 300.794017,193.476192 301.591997,193.493749 302.390015,193.511284 303.187995,193.528792 303.986014,193.546272 304.783994,193.563725 305.582012,193.581156 306.379992,193.598555 307.178011,193.615931 307.975991,193.633280 308.774009,193.650602 309.571989,193.667902 310.370008,193.685174 311.167988,193.702414 311.966006,193.719638 312.763986,193.736828 313.562005,193.753997 314.359985,193.771138 315.158003,193.788258 315.955983,193.805350 316.754002,193.822415 317.551982,193.839457 318.350000,193.856473 319.148018,193.873461 319.945998,193.890428 320.744017,193.907372 321.541997,193.924289 322.340015,193.941179 323.137995,193.958047 323.936014,193.974888 324.733994,193.991706 325.532012,194.008498 326.329992,194.025267 327.128011,194.042015 327.925991,194.058735 328.724009,194.075428 329.521989,194.092100 330.320008,194.108749 331.117988,194.125376 331.916006,194.141976 332.713986,194.158549 333.512005,194.175105 334.309985,194.191634 335.108003,194.208136 335.905983,194.224621 336.704002,194.241079 337.501982,194.257515 338.300000,194.273923 339.098018,194.290316 339.895998,194.306681 340.694017,194.323024 341.491997,194.339345 342.290015,194.355639 343.087995,194.371911 343.886014,194.388161 344.683994,194.404389 345.482012,194.420595 346.279992,194.436780 347.078011,194.452937 347.875991,194.469078 348.674009,194.485191 349.471989,194.501283 350.270008,194.517358 351.067988,194.533406 351.866006,194.549432 352.663986,194.565436 353.462005,194.581418 354.259985,194.597378 355.058003,194.613317 355.855983,194.629228 356.654002,194.645122 357.451982,194.660995 358.250000,194.676846 359.048018,194.692675 359.845998,194.708488 360.644017,194.724273 361.441997,194.740037 362.240015,194.755778 363.037995,194.771504 363.836014,194.787201 364.633994,194.802883 365.432012,194.818542 366.229992,194.834180 367.028011,194.849796 367.825991,194.865390 368.624009,194.880968 369.421989,194.896523 370.220008,194.912052 371.017988,194.927564 371.816006,194.943059 372.613986,194.958527 373.412005,194.973979 374.209985,194.989409 375.008003,195.004817 375.805983,195.020209 376.604002,195.035579 377.401982,195.050927 378.200000,195.066253 378.998018,195.081562 379.795998,195.096850 380.594017,195.112121 381.391997,195.127365 382.190015,195.142599 382.987995,195.157804 383.786014,195.172994 384.583994,195.188161 385.382012,195.203312 386.179992,195.218442 386.978011,195.233549 387.775991,195.248640 388.574009,195.263709 389.371989,195.278762 390.170008,195.293792 390.967988,195.308807 391.766006,195.323799 392.563986,195.338775 393.362005,195.353730 394.159985,195.368662 394.958003,195.383578 395.755983,195.398478 396.554002,195.413355 397.351982,195.428217 398.150000,195.443056 398.948018,195.457874 399.745998,195.472680 400.544017,195.487465 401.341997,195.502228 402.140015,195.516974 402.937995,195.531704 403.736014,195.546413 404.533994,195.561104 405.332012,195.575774 406.129992,195.590428 406.928011,195.605065 407.725991,195.619680 408.524009,195.634279 409.321989,195.648861 410.120008,195.663422 410.917988,195.677972 411.716006,195.692494 412.513986,195.707005 413.312005,195.721495 414.109985,195.735968 414.908003,195.750419 415.705983,195.764859 416.504002,195.779278 417.301982,195.793680 418.100000,195.808060 418.898018,195.822424 419.695998,195.836776 420.494017,195.851107 421.291997,195.865416 422.090015,195.879715 422.887995,195.893991 423.686014,195.908251 424.483994,195.922494 425.282012,195.936721 426.079992,195.950926 426.878011,195.965121 427.675991,195.979293 428.474009,195.993449 429.271989,196.007588 430.070008,196.021712 430.867988,196.035818 431.666006,196.049909 432.463986,196.063977 433.262005,196.078035 434.059985,196.092070 434.858003,196.106090 435.655983,196.120098 436.454002,196.134084 437.251982,196.148055 438.050000,196.162008 438.848018,196.175945 439.645998,196.189866 440.444017,196.203771 441.241997,196.217659 442.040015,196.231530 442.837995,196.245386 443.636014,196.259224 444.433994,196.273047 445.232012,196.286853 446.029992,196.300643 446.828011,196.314416 447.625991,196.328173 448.424009,196.341913 449.221989,196.355637 450.020008,196.369350 450.817988,196.383041 451.616006,196.396716 452.413986,196.410380 453.212005,196.424022 454.009985,196.437653 454.808003,196.451268 455.605983,196.464866 456.404002,196.478448 457.201982,196.492013 458.000000,196.505562 458.000000,196.505562"/>
	<clipPath id="clipArea3">
		<rect x="59" y="17" width="399" height="258">
		</rect>
	</clipPath>
	<polyline fill="none" stroke="rgb(238,46,47)" stroke-width="2" stroke-opacity="1" clip-path="url(#clipArea3)" points="59.000000,74.426066 59.797999,74.314415 60.595998,74.203048 61.393998,74.091922 62.191997,73.981036 62.989996,73.870413 63.787995,73.760052 64.585995,73.649910 65.383994,73.540031 66.181993,73.430392 66.979992,73.321015 67.777992,73.211858 68.575991,73.102940 69.374009,72.994286 70.172008,72.885850 70.970008,72.777632 71.768007,72.669677 72.566006,72.561941 73.364005,72.454445 74.162005,72.347190 74.960004,72.240154 75.758003,72.133336 76.556002,72.026759 77.354002,71.920401 78.152001,71.814261 78.950000,71.708362 79.747999,71.602682 80.545998,71.497198 81.343998,71.391956 82.141997,71.286931 82.939996,71.182126 83.737995,71.077517 84.535995,70.973149 85.333994,70.868978 86.131993,70.765025 86.929992,70.661270 87.727992,70.557733 88.525991,70.454414 89.324009,70.351293 90.122008,70.248390 90.920008,70.145684 91.718007,70.043175 92.516006,69.940885 93.314005,69.838791 94.112005,69.736895 94.910004,69.635195 95.708003,69.533692 96.506002,69.432408 97.304002,69.331298 98.102001,69.230408 98.900000,69.129692 99.697999,69.029173 100.495998,68.928851 101.293998,68.828726 102.091997,68.728798 102.889996,68.629045 103.687995,68.529488 104.485995,68.430107 105.283994,68.330922 106.081993,68.231934 106.879992,68.133121 107.677992,68.034505 108.475991,67.936042 109.274009,67.837798 110.072008,67.739707 110.870008,67.641813 111.668007,67.544093 112.466006,67.446571 113.264005,67.349201 114.062005,67.252007 114.860004,67.155009 115.658003,67.058187 116.456002,66.961517 117.254002,66.865045 118.052001,66.768747 118.850000,66.672602 119.647999,66.576633 120.445998,66.480838 121.243998,66.385218 122.041997,66.289774 122.839996,66.194482 123.637995,66.099365 124.435995,66.004402 125.233994,65.909613 126.031993,65.814999 126.829992,65.720539 127.627992,65.626253 128.425991,65.532121 129.224009,65.438163 130.022008,65.344359 130.820008,65.250707 131.618007,65.157209 132.416006,65.063886 133.214005,64.970716 134.012005,64.877721 134.810004,64.784857 135.608003,64.692168 136.406002,64.599632 137.204002,64.507249 138.002001,64.415019 138.800000,64.322943 139.597999,64.231019 140.395998,64.139227 141.193998,64.047609 141.991997,63.956145 142.789996,63.864834 143.587995,63.773654 144.385995,63.682627 145.183994,63.591754 145.981993,63.501033 146.779992,63.410465 147.577992,63.320029 148.375991,63.229746 149.174009,63.139594 149.972008,63.049617 150.770008,62.959749 151.568007,62.870057 152.366006,62.780473 153.164005,62.691065 153.962005,62.601766 154.760004,62.512620 155.558003,62.423627 156.356002,62.334766 157.154002,62.246035 157.952001,62.157458 158.750000,62.069012 159.547999,61.980697 160.345998,61.892535 161.143998,61.804505 161.941997,61.716606 162.739996,61.628838 163.537995,61.541201 164.335995,61.453695 165.133994,61.366343 165.931993,61.279121 166.729992,61.192009 167.527992,61.105051 168.325991,61.018201 169.124009,60.931505 169.922008,60.844940 170.720008,60.758484 171.518007,60.672181 172.316006,60.585988 173.114005,60.499926 173.912005,60.413995 174.710004,60.328195 175.508003,60.242527 176.306002,60.156968 177.104002,60.071540 177.902001,59.986243 178.700000,59.901078 179.498018,59.816022 180.295998,59.731097 181.094017,59.646281 181.891997,59.561597 182.690015,59.477044 183.487995,59.392601 184.286014,59.308288 185.083994,59.224085 185.882012,59.140013 186.679992,59.056051 187.478011,58.972219 188.275991,58.888497 189.074009,58.804907 189.871989,58.721425 190.670008,58.638075 191.467988,58.554813 192.266006,58.471681 193.063986,58.388681 193.862005,58.305790 194.659985,58.222987 195.458003,58.140337 196.255983,58.057774 197.054002,57.975342 197.851982,57.893020 198.650000,57.810807 199.448018,57.728704 200.245998,57.646710 201.044017,57.564847 201.841997,57.483071 202.640015,57.401427 203.437995,57.319892 204.236014,57.238467 205.033994,57.157129 205.832012,57.075922 206.629992,56.994825 207.428011,56.913837 208.225991,56.832936 209.024009,56.752167 209.821989,56.671507 210.620008,56.590934 211.417988,56.510471 212.216006,56.430139 213.013986,56.349895 213.812005,56.269738 214.609985,56.189712 215.408003,56.109796 216.205983,56.029967 217.004002,55.950247 217.801982,55.870637 218.600000,55.791114 219.398018,55.711701 220.195998,55.632397 220.994017,55.553202 221.791997,55.474095 222.590015,55.395097 223.387995,55.316187 224.186014,55.237386 224.983994,55.158694 225.782012,55.080090 226.579992,55.001596 227.378011,54.923210 228.175991,54.844912 228.974009,54.766702 229.771989,54.688601 230.570008,54.610587 231.367988,54.532683 232.166006,54.454866 232.963986,54.377159 233.762005,54.299539 234.559985,54.222028 235.358003,54.144605 236.155983,54.067269 236.954002,53.990043 237.751982,53.912904 238.550000,53.835875 239.348018,53.758911 240.145998,53.682057 240.944017,53.605312 241.741997,53.528632 242.540015,53.452062 243.337995,53.375579 244.136014,53.299184 244.933994,53.222898 245.732012,53.146700 246.529992,53.070589 247.328011,52.994566 248.125991,52.918630 248.924009,52.842782 249.721989,52.767043 250.520008,52.691391 251.317988,52.615805 252.116006,52.540328 252.913986,52.464939 253.712005,52.389638 254.509985,52.314424 255.308003,52.239319 256.105983,52.164280 256.904002,52.089328 257.701982,52.014464 258.500000,51.939687 259.298018,51.864998 260.095998,51.790396 260.894017,51.715882 261.691997,51.641455 262.490015,51.567116 263.287995,51.492864 264.086014,51.418700 264.883994,51.344601 265.682012,51.270612 266.479992,51.196688 267.278011,51.122852 268.075991,51.049103 268.874009,50.975441 269.671989,50.901846 270.470008,50.828359 271.267988,50.754939 272.066006,50.681606 272.863986,50.608360 273.662005,50.535180 274.459985,50.462109 275.258003,50.389104 276.055983,50.316164 276.854002,50.243334 277.651982,50.170569 278.450000,50.097870 279.248018,50.025281 280.045998,49.952757 280.844017,49.880320 281.641997,49.807949 282.440015,49.735666 283.237995,49.663470 284.036014,49.591340 284.833994,49.519297 285.632012,49.447320 286.429992,49.375430 287.228011,49.303628 288.025991,49.231891 288.824009,49.160220 289.621989,49.088636 290.420008,49.017140 291.217988,48.945710 292.016006,48.874367 292.813986,48.803089 293.612005,48.731900 294.409985,48.660775 295.208003,48.589717 296.005983,48.518745 296.804002,48.447862 297.601982,48.377022 298.400000,48.306291 299.198018,48.235604 299.995998,48.165005 300.794017,48.094493 301.591997,48.024025 302.390015,47.953666 303.187995,47.883351 303.986014,47.813124 304.783994,47.742962 305.582012,47.672887 306.379992,47.602856 307.178011,47.532913 307.975991,47.463057 308.774009,47.393245 309.571989,47.323521 310.370008,47.253884 311.167988,47.184291 311.966006,47.114785 312.763986,47.045345 313.562005,46.975970 314.359985,46.906661 315.158003,46.837439 315.955983,46.768262 316.754002,46.699171 317.551982,46.630147 318.350000,46.561210 319.148018,46.492316 319.945998,46.423510 320.744017,46.354770 321.541997,46.286073 322.340015,46.217464 323.137995,46.148943 323.936014,46.080465 324.733994,46.012052 325.532012,45.943706 326.329992,45.875447 327.128011,45.807253 327.925991,45.739103 328.724009,45.671041 329.521989,45.603044 330.320008,45.535091 331.117988,45.467226 331.916006,45.399426 332.713986,45.331691 333.512005,45.264001 334.309985,45.196398 335.108003,45.128860 335.905983,45.061389 336.704002,44.993982 337.501982,44.926620 338.300000,44.859345 339.098018,44.792114 339.895998,44.724970 340.694017,44.657870 341.491997,44.590857 342.290015,44.523889 343.087995,44.456985 343.886014,44.390148 344.683994,44.323376 345.482012,44.256670 346.279992,44.190029 347.078011,44.123432 347.875991,44.056922 348.674009,43.990457 349.471989,43.924056 350.270008,43.857722 351.067988,43.791453 351.866006,43.725228 352.663986,43.659090 353.462005,43.592996 354.259985,43.526968 355.058003,43.461005 355.855983,43.395086 356.654002,43.329255 357.451982,43.263467 358.250000,43.197745 359.048018,43.132066 359.845998,43.066475 360.644017,43.000928 361.441997,42.935425 362.240015,42.870009 363.037995,42.804637 363.836014,42.739330 364.633994,42.674089 365.432012,42.608892 366.229992,42.543760 367.028011,42.478694 367.825991,42.413672 368.624009,42.348715 369.421989,42.283824 370.220008,42.218977 371.017988,42.154195 371.816006,42.089479 372.613986,42.024807 373.412005,41.960200 374.209985,41.895637 375.008003,41.831140 375.805983,41.766708 376.604002,41.702320 377.401982,41.637997 378.200000,41.573719 378.998018,41.509506 379.795998,41.445358 380.594017,41.381255 381.391997,41.317216 382.190015,41.253222 382.987995,41.189293 383.786014,41.125408 384.583994,41.061589 385.382012,40.997813 386.179992,40.934103 386.978011,40.870437 387.775991,40.806836 388.574009,40.743280 389.371989,40.679788 390.170008,40.616363 390.967988,40.552959 391.766006,40.489642 392.563986,40.426348 393.362005,40.363141 394.159985,40.299956 394.958003,40.236836 395.755983,40.173782 396.554002,40.110772 397.351982,40.047806 398.150000,39.984905 398.948018,39.922048 399.745998,39.859256 400.544017,39.796509 401.341997,39.733805 402.140015,39.671166 402.937995,39.608572 403.736014,39.546043 404.533994,39.483558 405.332012,39.421116 406.129992,39.358718 406.928011,39.296386 407.725991,39.234120 408.524009,39.171897 409.321989,39.109718 410.120008,39.047582 410.917988,38.985513 411.716006,38.923487 412.513986,38.861505 413.312005,38.799588 414.109985,38.737693 414.908003,38.675886 415.705983,38.614101 416.504002,38.552381 417.301982,38.490705 418.100000,38.429073 418.898018,38.367506 419.695998,38.305983 420.494017,38.244504 421.291997,38.183068 422.090015,38.121699 422.887995,38.060372 423.686014,37.999090 424.483994,37.937851 425.282012,37.876678 426.079992,37.815549 426.878011,37.754464 427.675991,37.693422 428.474009,37.632424 429.271989,37.571491 430.070008,37.510603 430.867988,37.449758 431.666006,37.388957 432.463986,37.328199 433.262005,37.267507 434.059985,37.206837 434.858003,37.146233 435.655983,37.085673 436.454002,37.025156 437.251982,36.964704 438.050000,36.904275 438.848018,36.843911 439.645998,36.783569 440.444017,36.723293 441.241997,36.663061 442.040015,36.602872 442.837995,36.542727 443.636014,36.482647 444.433994,36.422590 445.232012,36.362598 446.029992,36.302628 446.828011,36.242723 447.625991,36.182840 448.424009,36.123023 449.221989,36.063250 450.020008,36.003521 450.817988,35.943835 451.616006,35.884193 452.413986,35.824595 453.212005,35.765040 454.009985,35.705551 454.808003,35.646084 455.605983,35.586661 456.404002,35.527303 457.201982,35.467967 458.000000,35.408675 458.000000,35.408675"/>
	<clipPath id="clipArea4">
		<rect x="59" y="17" width="399" height="258">
		</rect>
	</clipPath>
	<polyline fill="none" stroke="rgb(0,0,0)" stroke-dasharray="4,2" stroke-width="2" stroke-opacity="1" clip-path="url(#clipArea4)" points="59.000000,262.394831 59.797999,262.396769 60.595998,262.398705 61.393998,262.400638 62.191997,262.402569 62.989996,262.404499 63.787995,262.406427 64.585995,262.408353 65.383994,262.410276 66.181993,262.412198 66.979992,262.414117 67.777992,262.416035 68.575991,262.417951 69.374009,262.419865 70.172008,262.421777 70.970008,262.423687 71.768007,262.425595 72.566006,262.427501 73.364005,262.429405 74.162005,262.431308 74.960004,262.433208 75.758003,262.435105 76.556002,262.437002 77.354002,262.438897 78.152001,262.440789 78.950000,262.442681 79.747999,262.444568 80.545998,262.446456 81.343998,262.448341 82.141997,262.450223 82.939996,262.452106 83.737995,262.453985 84.535995,262.455862 85.333994,262.457737 86.131993,262.459611 86.929992,262.461484 87.727992,262.463354 88.525991,262.465223 89.324009,262.467089 90.122008,262.468953 90.920008,262.470816 91.718007,262.472678 92.516006,262.474537 93.314005,262.476395 94.112005,262.478250 94.910004,262.480103 95.708003,262.481955 96.506002,262.483806 97.304002,262.485654 98.102001,262.487501 98.900000,262.489345 99.697999,262.491189 100.495998,262.493030 101.293998,262.494869 102.091997,262.496707 102.889996,262.498543 103.687995,262.500377 104.485995,262.502211 105.283994,262.504041 106.081993,262.505870 106.879992,262.507697 107.677992,262.509522 108.475991,262.511346 109.274009,262.513168 110.072008,262.514989 110.870008,262.516808 111.668007,262.518625 112.466006,262.520440 113.264005,262.522252 114.062005,262.524065 114.860004,262.525875 115.658003,262.527683 116.456002,262.529490 117.254002,262.531295 118.052001,262.533099 118.850000,262.534901 119.647999,262.536701 120.445998,262.538498 121.243998,262.540296 122.041997,262.542091 122.839996,262.543884 123.637995,262.545675 124.435995,262.547466 125.233994,262.549254 126.031993,262.551040 126.829992,262.552825 127.627992,262.554609 128.425991,262.556392 129.224009,262.558171 130.022008,262.559950 130.820008,262.561727 131.618007,262.563502 132.416006,262.565275 133.214005,262.567048 134.012005,262.568818 134.810004,262.570587 135.608003,262.572355 136.406002,262.574121 137.204002,262.575884 138.002001,262.577647 138.800000,262.579408 139.597999,262.581167 140.395998,262.582925 141.193998,262.584682 141.991997,262.586437 142.789996,262.588189 143.587995,262.589940 144.385995,262.591691 145.183994,262.593440 145.981993,262.595185 146.779992,262.596931 147.577992,262.598675 148.375991,262.600416 149.174009,262.602158 149.972008,262.603897 150.770008,262.605634 151.568007,262.607370 152.366006,262.609105 153.164005,262.610838 153.962005,262.612569 154.760004,262.614299 155.558003,262.616027 156.356002,262.617755 157.154002,262.619480 157.952001,262.621203 158.750000,262.622926 159.547999,262.624647 160.345998,262.626366 161.143998,262.628083 161.941997,262.629800 162.739996,262.631516 163.537995,262.633228 164.335995,262.634940 165.133994,262.636651 165.931993,262.638360 166.729992,262.640067 167.527992,262.641773 168.325991,262.643478 169.124009,262.645181 169.922008,262.646883 170.720008,262.648582 171.518007,262.650281 172.316006,262.651979 173.114005,262.653674 173.912005,262.655369 174.710004,262.657061 175.508003,262.658752 176.306002,262.660443 177.104002,262.662131 177.902001,262.663818 178.700000,262.665503 179.498018,262.667187 180.295998,262.668871 181.094017,262.670552 181.891997,262.672232 182.690015,262.673911 183.487995,262.675587 184.286014,262.677263 185.083994,262.678937 185.882012,262.680610 186.679992,262.682282 187.478011,262.683952 188.275991,262.685620 189.074009,262.687288 189.871989,262.688954 190.670008,262.690618 191.467988,262.692281 192.266006,262.693943 193.063986,262.695603 193.862005,262.697262 194.659985,262.698920 195.458003,262.700576 196.255983,262.702231 197.054002,262.703884 197.851982,262.705536 198.650000,262.707188 199.448018,262.708836 200.245998,262.710485 201.044017,262.712130 201.841997,262.713776 202.640015,262.715421 203.437995,262.717062 204.236014,262.718704 205.033994,262.720344 205.832012,262.721982 206.629992,262.723620 207.428011,262.725256 208.225991,262.726889 209.024009,262.728523 209.821989,262.730155 210.620008,262.731786 211.417988,262.733415 212.216006,262.735042 213.013986,262.736668 213.812005,262.738294 214.609985,262.739917 215.408003,262.741540 216.205983,262.743161 217.004002,262.744782 217.801982,262.746401 218.600000,262.748018 219.398018,262.749634 220.195998,262.751248 220.994017,262.752862 221.791997,262.754474 222.590015,262.756086 223.387995,262.757694 224.186014,262.759303 224.983994,262.760909 225.782012,262.762516 226.579992,262.764120 227.378011,262.765722 228.175991,262.767324 228.974009,262.768925 229.771989,262.770524 230.570008,262.772122 231.367988,262.773719 232.166006,262.775316 232.963986,262.776909 233.762005,262.778502 234.559985,262.780094 235.358003,262.781684 236.155983,262.783274 236.954002,262.784861 237.751982,262.786448 238.550000,262.788034 239.348018,262.789618 240.145998,262.791201 240.944017,262.792782 241.741997,262.794362 242.540015,262.795943 243.337995,262.797520 244.136014,262.799096 244.933994,262.800672 245.732012,262.802247 246.529992,262.803819 247.328011,262.805391 248.125991,262.806961 248.924009,262.808531 249.721989,262.810100 250.520008,262.811666 251.317988,262.813232 252.116006,262.814797 252.913986,262.816360 253.712005,262.817922 254.509985,262.819483 255.308003,262.821042 256.105983,262.822601 256.904002,262.824159 257.701982,262.825714 258.500000,262.827269 259.298018,262.828823 260.095998,262.830376 260.894017,262.831927 261.691997,262.833477 262.490015,262.835026 263.287995,262.836573 264.086014,262.838119 264.883994,262.839665 265.682012,262.841209 266.479992,262.842752 267.278011,262.844294 268.075991,262.845834 268.874009,262.847373 269.671989,262.848913 270.470008,262.850449 271.267988,262.851985 272.066006,262.853521 272.863986,262.855054 273.662005,262.856587 274.459985,262.858118 275.258003,262.859647 276.055983,262.861177 276.854002,262.862705 277.651982,262.864230 278.450000,262.865756 279.248018,262.867281 280.045998,262.868804 280.844017,262.870326 281.641997,262.871847 282.440015,262.873367 283.237995,262.874886 284.036014,262.876403 284.833994,262.877919 285.632012,262.879435 286.429992,262.880949 287.228011,262.882461 288.025991,262.883973 288.824009,262.885485 289.621989,262.886994 290.420008,262.888502 291.217988,262.890009 292.016006,262.891516 292.813986,262.893021 293.612005,262.894524 294.409985,262.896028 295.208003,262.897530 296.005983,262.899030 296.804002,262.900529 297.601982,262.902029 298.400000,262.903526 299.198018,262.905022 299.995998,262.906517 300.794017,262.908011 301.591997,262.909503 302.390015,262.910996 303.187995,262.912486 303.986014,262.913976 304.783994,262.915464 305.582012,262.916952 306.379992,262.918439 307.178011,262.919923 307.975991,262.921408 308.774009,262.922891 309.571989,262.924373 310.370008,262.925853 311.167988,262.927334 311.966006,262.928813 312.763986,262.930290 313.562005,262.931767 314.359985,262.933243 315.158003,262.934716 315.955983,262.936190 316.754002,262.937662 317.551982,262.939134 318.350000,262.940604 319.148018,262.942073 319.945998,262.943541 320.744017,262.945008 321.541997,262.946473 322.340015,262.947939 323.137995,262.949403 323.936014,262.950865 324.733994,262.952327 325.532012,262.953788 326.329992,262.955248 327.128011,262.956706 327.925991,262.958163 328.724009,262.959621 329.521989,262.961075 330.320008,262.962529 331.117988,262.963984 331.916006,262.965435 332.713986,262.966887 333.512005,262.968337 334.309985,262.969786 335.108003,262.971234 335.905983,262.972682 336.704002,262.974128 337.501982,262.975573 338.300000,262.977017 339.098018,262.978460 339.895998,262.979902 340.694017,262.981342 341.491997,262.982783 342.290015,262.984223 343.087995,262.985659 343.886014,262.987097 344.683994,262.988533 345.482012,262.989968 346.279992,262.991402 347.078011,262.992834 347.875991,262.994267 348.674009,262.995697 349.471989,262.997126 350.270008,262.998556 351.067988,262.999983 351.866006,263.001410 352.663986,263.002836 353.462005,263.004260 354.259985,263.005685 355.058003,263.007108 355.855983,263.008529 356.654002,263.009951 357.451982,263.011370 358.250000,263.012789 359.048018,263.014208 359.845998,263.015624 360.644017,263.017040 361.441997,263.018455 362.240015,263.019868 363.037995,263.021282 363.836014,263.022694 364.633994,263.024104 365.432012,263.025515 366.229992,263.026924 367.028011,263.028332 367.825991,263.029739 368.624009,263.031145 369.421989,263.032551 370.220008,263.033954 371.017988,263.035357 371.816006,263.036759 372.613986,263.038160 373.412005,263.039562 374.209985,263.040960 375.008003,263.042358 375.805983,263.043757 376.604002,263.045152 377.401982,263.046548 378.200000,263.047942 378.998018,263.049336 379.795998,263.050729 380.594017,263.052121 381.391997,263.053511 382.190015,263.054901 382.987995,263.056290 383.786014,263.057677 384.583994,263.059065 385.382012,263.060451 386.179992,263.061836 386.978011,263.063220 387.775991,263.064602 388.574009,263.065986 389.371989,263.067366 390.170008,263.068747 390.967988,263.070126 391.766006,263.071505 392.563986,263.072882 393.362005,263.074258 394.159985,263.075635 394.958003,263.077009 395.755983,263.078384 396.554002,263.079756 397.351982,263.081129 398.150000,263.082500 398.948018,263.083869 399.745998,263.085239 400.544017,263.086607 401.341997,263.087974 402.140015,263.089340 402.937995,263.090705 403.736014,263.092071 404.533994,263.093434 405.332012,263.094797 406.129992,263.096159 406.928011,263.097519 407.725991,263.098880 408.524009,263.100238 409.321989,263.101597 410.120008,263.102954 410.917988,263.104310 411.716006,263.105666 412.513986,263.107021 413.312005,263.108374 414.109985,263.109728 414.908003,263.111079 415.705983,263.112430 416.504002,263.113781 417.301982,263.115130 418.100000,263.116477 418.898018,263.117825 419.695998,263.119172 420.494017,263.120518 421.291997,263.121862 422.090015,263.123206 422.887995,263.124549 423.686014,263.125892 424.483994,263.127233 425.282012,263.128572 426.079992,263.129912 426.878011,263.131251 427.675991,263.132588 428.474009,263.133925 429.271989,263.135261 430.070008,263.136596 430.867988,263.137930 431.666006,263.139264 432.463986,263.140596 433.262005,263.141927 434.059985,263.143258 434.858003,263.144588 435.655983,263.145917 436.454002,263.147244 437.251982,263.148572 438.050000,263.149899 438.848018,263.151224 439.645998,263.152548 440.444017,263.153873 441.241997,263.155195 442.040015,263.156518 442.837995,263.157838 443.636014,263.159159 444.433994,263.160478 445.232012,263.161797 446.029992,263.163115 446.828011,263.164431 447.625991,263.165747 448.424009,263.167062 449.221989,263.168377 450.020008,263.169689 450.817988,263.171003 451.616006,263.172314 452.413986,263.173625 453.212005,263.174936 454.009985,263.176245 454.808003,263.177553 455.605983,263.178860 456.404002,263.180167 457.201982,263.181474 458.000000,263.182778 458.000000,263.182778"/>
	<clipPath id="clipArea5">
		<rect x="59" y="17" width="399" height="258">
		</rect>
	</clipPath>
	<polyline fill="none" stroke="rgb(0,0,0)" stroke-dasharray="4,2" stroke-width="2" stroke-opacity="1" clip-path="url(#clipArea5)" points="59.000000,184.203306 59.797999,184.247124 60.595998,184.290817 61.393998,184.334378 62.191997,184.377814 62.989996,184.421124 63.787995,184.464308 64.585995,184.507361 65.383994,184.550293 66.181993,184.593106 66.979992,184.635792 67.777992,184.678359 68.575991,184.720805 69.374009,184.763125 70.172008,184.805330 70.970008,184.847416 71.768007,184.889386 72.566006,184.931236 73.364005,184.972971 74.162005,185.014586 74.960004,185.056092 75.758003,185.097477 76.556002,185.138753 77.354002,185.179919 78.152001,185.220966 78.950000,185.261908 79.747999,185.302736 80.545998,185.343454 81.343998,185.384063 82.141997,185.424562 82.939996,185.464952 83.737995,185.505238 84.535995,185.545415 85.333994,185.585488 86.131993,185.625452 86.929992,185.665317 87.727992,185.705073 88.525991,185.744725 89.324009,185.784273 90.122008,185.823723 90.920008,185.863069 91.718007,185.902316 92.516006,185.941460 93.314005,185.980505 94.112005,186.019446 94.910004,186.058294 95.708003,186.097044 96.506002,186.135690 97.304002,186.174243 98.102001,186.212703 98.900000,186.251059 99.697999,186.289328 100.495998,186.327493 101.293998,186.365570 102.091997,186.403554 102.889996,186.441440 103.687995,186.479233 104.485995,186.516939 105.283994,186.554546 106.081993,186.592065 106.879992,186.629497 107.677992,186.666831 108.475991,186.704083 109.274009,186.741241 110.072008,186.778313 110.870008,186.815291 111.668007,186.852187 112.466006,186.888990 113.264005,186.925712 114.062005,186.962346 114.860004,186.998892 115.658003,187.035351 116.456002,187.071727 117.254002,187.108017 118.052001,187.144224 118.850000,187.180349 119.647999,187.216387 120.445998,187.252343 121.243998,187.288217 122.041997,187.324009 122.839996,187.359718 123.637995,187.395352 124.435995,187.430897 125.233994,187.466367 126.031993,187.501754 126.829992,187.537064 127.627992,187.572293 128.425991,187.607445 129.224009,187.642515 130.022008,187.677509 130.820008,187.712425 131.618007,187.747266 132.416006,187.782024 133.214005,187.816712 134.012005,187.851322 134.810004,187.885857 135.608003,187.920314 136.406002,187.954701 137.204002,187.989005 138.002001,188.023244 138.800000,188.057401 139.597999,188.091492 140.395998,188.125507 141.193998,188.159445 141.991997,188.193318 142.789996,188.227114 143.587995,188.260839 144.385995,188.294493 145.183994,188.328076 145.981993,188.361588 146.779992,188.395028 147.577992,188.428398 148.375991,188.461702 149.174009,188.494935 149.972008,188.528096 150.770008,188.561193 151.568007,188.594218 152.366006,188.627177 153.164005,188.660066 153.962005,188.692888 154.760004,188.725646 155.558003,188.758332 156.356002,188.790952 157.154002,188.823513 157.952001,188.856002 158.750000,188.888425 159.547999,188.920783 160.345998,188.953076 161.143998,188.985303 161.941997,189.017469 162.739996,189.049570 163.537995,189.081606 164.335995,189.113576 165.133994,189.145485 165.931993,189.177330 166.729992,189.209113 167.527992,189.240837 168.325991,189.272495 169.124009,189.304088 169.922008,189.335626 170.720008,189.367098 171.518007,189.398510 172.316006,189.429862 173.114005,189.461154 173.912005,189.492380 174.710004,189.523552 175.508003,189.554663 176.306002,189.585714 177.104002,189.616706 177.902001,189.647637 178.700000,189.678507 179.498018,189.709324 180.295998,189.740079 181.094017,189.770781 181.891997,189.801417 182.690015,189.832003 183.487995,189.862529 184.286014,189.892996 185.083994,189.923407 185.882012,189.953764 186.679992,189.984061 187.478011,190.014303 188.275991,190.044490 189.074009,190.074617 189.871989,190.104695 190.670008,190.134713 191.467988,190.164676 192.266006,190.194585 193.063986,190.224444 193.862005,190.254243 194.659985,190.283988 195.458003,190.313683 196.255983,190.343318 197.054002,190.372904 197.851982,190.402435 198.650000,190.431917 199.448018,190.461345 200.245998,190.490717 201.044017,190.520035 201.841997,190.549304 202.640015,190.578524 203.437995,190.607688 204.236014,190.636799 205.033994,190.665860 205.832012,190.694871 206.629992,190.723834 207.428011,190.752742 208.225991,190.781601 209.024009,190.810405 209.821989,190.839165 210.620008,190.867870 211.417988,190.896527 212.216006,190.925134 213.013986,190.953697 213.812005,190.982206 214.609985,191.010666 215.408003,191.039076 216.205983,191.067437 217.004002,191.095749 217.801982,191.124017 218.600000,191.152236 219.398018,191.180401 220.195998,191.208527 220.994017,191.236598 221.791997,191.264626 222.590015,191.292604 223.387995,191.320533 224.186014,191.348419 224.983994,191.376260 225.782012,191.404053 226.579992,191.431796 227.378011,191.459496 228.175991,191.487146 228.974009,191.514752 229.771989,191.542315 230.570008,191.569834 231.367988,191.597304 232.166006,191.624725 232.963986,191.652107 233.762005,191.679441 234.559985,191.706735 235.358003,191.733981 236.155983,191.761183 236.954002,191.788336 237.751982,191.815450 238.550000,191.842521 239.348018,191.869543 240.145998,191.896526 240.944017,191.923465 241.741997,191.950361 242.540015,191.977213 243.337995,192.004022 244.136014,192.030786 244.933994,192.057507 245.732012,192.084189 246.529992,192.110828 247.328011,192.137423 248.125991,192.163975 248.924009,192.190488 249.721989,192.216957 250.520008,192.243388 251.317988,192.269770 252.116006,192.296119 252.913986,192.322419 253.712005,192.348686 254.509985,192.374903 255.308003,192.401088 256.105983,192.427224 256.904002,192.453327 257.701982,192.479386 258.500000,192.505402 259.298018,192.531384 260.095998,192.557323 260.894017,192.583219 261.691997,192.609081 262.490015,192.634900 263.287995,192.660680 264.086014,192.686416 264.883994,192.712120 265.682012,192.737780 266.479992,192.763408 267.278011,192.788991 268.075991,192.814536 268.874009,192.840043 269.671989,192.865512 270.470008,192.890943 271.267988,192.916335 272.066006,192.941689 272.863986,192.967004 273.662005,192.992281 274.459985,193.017521 275.258003,193.042727 276.055983,193.067889 276.854002,193.093019 277.651982,193.118110 278.450000,193.143164 279.248018,193.168178 280.045998,193.193161 280.844017,193.218104 281.641997,193.243010 282.440015,193.267877 283.237995,193.292712 284.036014,193.317513 284.833994,193.342271 285.632012,193.366996 286.429992,193.391688 287.228011,193.416342 288.025991,193.440958 288.824009,193.465541 289.621989,193.490086 290.420008,193.514598 291.217988,193.539071 292.016006,193.563512 292.813986,193.587920 293.612005,193.612290 294.409985,193.636626 295.208003,193.660925 296.005983,193.685196 296.804002,193.709424 297.601982,193.733624 298.400000,193.757786 299.198018,193.781915 299.995998,193.806011 300.794017,193.830075 301.591997,193.854100 302.390015,193.878092 303.187995,193.902052 303.986014,193.925979 304.783994,193.949873 305.582012,193.973729 306.379992,193.997557 307.178011,194.021353 307.975991,194.045110 308.774009,194.068834 309.571989,194.092531 310.370008,194.116190 311.167988,194.139822 311.966006,194.163415 312.763986,194.186981 313.562005,194.210509 314.359985,194.234009 315.158003,194.257477 315.955983,194.280911 316.754002,194.304313 317.551982,194.327682 318.350000,194.351024 319.148018,194.374327 319.945998,194.397604 320.744017,194.420847 321.541997,194.444057 322.340015,194.467241 323.137995,194.490391 323.936014,194.513509 324.733994,194.536599 325.532012,194.559651 326.329992,194.582681 327.128011,194.605673 327.925991,194.628637 328.724009,194.651569 329.521989,194.674473 330.320008,194.697345 331.117988,194.720189 331.916006,194.743000 332.713986,194.765779 333.512005,194.788530 334.309985,194.811254 335.108003,194.833945 335.905983,194.856603 336.704002,194.879234 337.501982,194.901838 338.300000,194.924409 339.098018,194.946952 339.895998,194.969468 340.694017,194.991952 341.491997,195.014408 342.290015,195.036831 343.087995,195.059227 343.886014,195.081595 344.683994,195.103931 345.482012,195.126239 346.279992,195.148520 347.078011,195.170774 347.875991,195.192995 348.674009,195.215194 349.471989,195.237360 350.270008,195.259493 351.067988,195.281605 351.866006,195.303683 352.663986,195.325740 353.462005,195.347764 354.259985,195.369761 355.058003,195.391730 355.855983,195.413672 356.654002,195.435582 357.451982,195.457469 358.250000,195.479323 359.048018,195.501156 359.845998,195.522956 360.644017,195.544734 361.441997,195.566479 362.240015,195.588202 363.037995,195.609893 363.836014,195.631562 364.633994,195.653203 365.432012,195.674811 366.229992,195.696398 367.028011,195.717957 367.825991,195.739489 368.624009,195.760994 369.421989,195.782471 370.220008,195.803921 371.017988,195.825349 371.816006,195.846744 372.613986,195.868118 373.412005,195.889464 374.209985,195.910782 375.008003,195.932079 375.805983,195.953343 376.604002,195.974585 377.401982,195.995800 378.200000,196.016993 378.998018,196.038153 379.795998,196.059291 380.594017,196.080408 381.391997,196.101491 382.190015,196.122553 382.987995,196.143587 383.786014,196.164600 384.583994,196.185585 385.382012,196.206543 386.179992,196.227479 386.978011,196.248387 387.775991,196.269269 388.574009,196.290128 389.371989,196.310966 390.170008,196.331776 390.967988,196.352559 391.766006,196.373320 392.563986,196.394053 393.362005,196.414760 394.159985,196.435449 394.958003,196.456107 395.755983,196.476742 396.554002,196.497355 397.351982,196.517947 398.150000,196.538505 398.948018,196.559048 399.745998,196.579563 400.544017,196.600050 401.341997,196.620521 402.140015,196.640960 402.937995,196.661382 403.736014,196.681776 404.533994,196.702144 405.332012,196.722495 406.129992,196.742818 406.928011,196.763114 407.725991,196.783394 408.524009,196.803647 409.321989,196.823877 410.120008,196.844080 410.917988,196.864262 411.716006,196.884421 412.513986,196.904559 413.312005,196.924669 414.109985,196.944763 414.908003,196.964824 415.705983,196.984869 416.504002,197.004892 417.301982,197.024887 418.100000,197.044861 418.898018,197.064813 419.695998,197.084743 420.494017,197.104651 421.291997,197.124537 422.090015,197.144396 422.887995,197.164233 423.686014,197.184053 424.483994,197.203846 425.282012,197.223618 426.079992,197.243367 426.878011,197.263089 427.675991,197.282795 428.474009,197.302479 429.271989,197.322141 430.070008,197.341775 430.867988,197.361394 431.666006,197.380984 432.463986,197.400559 433.262005,197.420112 434.059985,197.439637 434.858003,197.459146 435.655983,197.478627 436.454002,197.498092 437.251982,197.517536 438.050000,197.536957 438.848018,197.556357 439.645998,197.575734 440.444017,197.595090 441.241997,197.614424 442.040015,197.633736 442.837995,197.653026 443.636014,197.672300 444.433994,197.691546 445.232012,197.710776 446.029992,197.729984 446.828011,197.749171 447.625991,197.768335 448.424009,197.787478 449.221989,197.806604 450.020008,197.825708 450.817988,197.844785 451.616006,197.863851 452.413986,197.882890 453.212005,197.901912 454.009985,197.920907 454.808003,197.939885 455.605983,197.958847 456.404002,197.977782 457.201982,197.996700 458.000000,198.015597 458.000000,198.015597"/>
	<clipPath id="clipArea6">
		<rect x="59" y="17" width="399" height="258">
		</rect>
	</clipPath>
	<polyline fill="none" stroke="rgb(0,0,0)" stroke-dasharray="4,2" stroke-width="2" stroke-opacity="1" clip-path="url(#clipArea6)" points="59.000000,52.248789 59.797999,52.246493 60.595998,52.244218 61.393998,52.241965 62.191997,52.239713 62.989996,52.237482 63.787995,52.235273 64.585995,52.233086 65.383994,52.230899 66.181993,52.228733 66.979992,52.226590 67.777992,52.224447 68.575991,52.222325 69.374009,52.220226 70.172008,52.218148 70.970008,52.216070 71.768007,52.214014 72.566006,52.211958 73.364005,52.209924 74.162005,52.207912 74.960004,52.205900 75.758003,52.203910 76.556002,52.201941 77.354002,52.199973 78.152001,52.198027 78.950000,52.196080 79.747999,52.194155 80.545998,52.192253 81.343998,52.190350 82.141997,52.188469 82.939996,52.186588 83.737995,52.184729 84.535995,52.182892 85.333994,52.181055 86.131993,52.179218 86.929992,52.177402 87.727992,52.175609 88.525991,52.173815 89.324009,52.172044 90.122008,52.170272 90.920008,52.168523 91.718007,52.166773 92.516006,52.165045 93.314005,52.163317 94.112005,52.161611 94.910004,52.159905 95.708003,52.158221 96.506002,52.156537 97.304002,52.154853 98.102001,52.153213 98.900000,52.151551 99.697999,52.149910 100.495998,52.148292 101.293998,52.146674 102.091997,52.145055 102.889996,52.143459 103.687995,52.141862 104.485995,52.140287 105.283994,52.138713 106.081993,52.137160 106.879992,52.135607 107.677992,52.134054 108.475991,52.132523 109.274009,52.131014 110.072008,52.129483 110.870008,52.127974 111.668007,52.126487 112.466006,52.124999 113.264005,52.123512 114.062005,52.122047 114.860004,52.120582 115.658003,52.119138 116.456002,52.117673 117.254002,52.116251 118.052001,52.114808 118.850000,52.113386 119.647999,52.111986 120.445998,52.110565 121.243998,52.109165 122.041997,52.107787 122.839996,52.106409 123.637995,52.105031 124.435995,52.103653 125.233994,52.102297 126.031993,52.100941 126.829992,52.099607 127.627992,52.098273 128.425991,52.096939 129.224009,52.095605 130.022008,52.094293 130.820008,52.092980 131.618007,52.091690 132.416006,52.090400 133.214005,52.089109 134.012005,52.087819 134.810004,52.086550 135.608003,52.085282 136.406002,52.084035 137.204002,52.082767 138.002001,52.081520 138.800000,52.080295 139.597999,52.079049 140.395998,52.077824 141.193998,52.076599 141.991997,52.075396 142.789996,52.074193 143.587995,52.072990 144.385995,52.071788 145.183994,52.070606 145.981993,52.069425 146.779992,52.068244 147.577992,52.067063 148.375991,52.065904 149.174009,52.064745 149.972008,52.063586 150.770008,52.062449 151.568007,52.061311 152.366006,52.060174 153.164005,52.059037 153.962005,52.057921 154.760004,52.056784 155.558003,52.055669 156.356002,52.054575 157.154002,52.053460 157.952001,52.052366 158.750000,52.051273 159.547999,52.050201 160.345998,52.049107 161.143998,52.048036 161.941997,52.046964 162.739996,52.045892 163.537995,52.044843 164.335995,52.043793 165.133994,52.042743 165.931993,52.041693 166.729992,52.040643 167.527992,52.039615 168.325991,52.038587 169.124009,52.037560 169.922008,52.036532 170.720008,52.035526 171.518007,52.034519 172.316006,52.033513 173.114005,52.032507 173.912005,52.031501 174.710004,52.030517 175.508003,52.029533 176.306002,52.028549 177.104002,52.027564 177.902001,52.026602 178.700000,52.025640 179.498018,52.024656 180.295998,52.023715 181.094017,52.022753 181.891997,52.021791 182.690015,52.020850 183.487995,52.019910 184.286014,52.018969 185.083994,52.018029 185.882012,52.017110 186.679992,52.016170 187.478011,52.015251 188.275991,52.014333 189.074009,52.013436 189.871989,52.012517 190.670008,52.011621 191.467988,52.010702 192.266006,52.009805 193.063986,52.008909 193.862005,52.008034 194.659985,52.007137 195.458003,52.006262 196.255983,52.005387 197.054002,52.004513 197.851982,52.003638 198.650000,52.002763 199.448018,52.001910 200.245998,52.001057 201.044017,52.000204 201.841997,51.999351 202.640015,51.998498 203.437995,51.997645 204.236014,51.996814 205.033994,51.995961 205.832012,51.995130 206.629992,51.994299 207.428011,51.993490 208.225991,51.992658 209.024009,51.991827 209.821989,51.991018 210.620008,51.990209 211.417988,51.989400 212.216006,51.988590 213.013986,51.987781 213.812005,51.986994 214.609985,51.986185 215.408003,51.985397 216.205983,51.984610 217.004002,51.983823 217.801982,51.983035 218.600000,51.982270 219.398018,51.981482 220.195998,51.980717 220.994017,51.979930 221.791997,51.979164 222.590015,51.978399 223.387995,51.977655 224.186014,51.976890 224.983994,51.976124 225.782012,51.975380 226.579992,51.974637 227.378011,51.973893 228.175991,51.973150 228.974009,51.972406 229.771989,51.971662 230.570008,51.970941 231.367988,51.970197 232.166006,51.969475 232.963986,51.968754 233.762005,51.968032 234.559985,51.967310 235.358003,51.966588 236.155983,51.965867 236.954002,51.965167 237.751982,51.964445 238.550000,51.963745 239.348018,51.963045 240.145998,51.962345 240.944017,51.961646 241.741997,51.960946 242.540015,51.960246 243.337995,51.959568 244.136014,51.958868 244.933994,51.958190 245.732012,51.957512 246.529992,51.956834 247.328011,51.956156 248.125991,51.955478 248.924009,51.954800 249.721989,51.954144 250.520008,51.953466 251.317988,51.952810 252.116006,51.952154 252.913986,51.951476 253.712005,51.950819 254.509985,51.950163 255.308003,51.949529 256.105983,51.948873 256.904002,51.948217 257.701982,51.947582 258.500000,51.946926 259.298018,51.946292 260.095998,51.945658 260.894017,51.945024 261.691997,51.944389 262.490015,51.943755 263.287995,51.943121 264.086014,51.942508 264.883994,51.941874 265.682012,51.941262 266.479992,51.940649 267.278011,51.940015 268.075991,51.939403 268.874009,51.938790 269.671989,51.938178 270.470008,51.937566 271.267988,51.936975 272.066006,51.936363 272.863986,51.935750 273.662005,51.935160 274.459985,51.934569 275.258003,51.933957 276.055983,51.933366 276.854002,51.932776 277.651982,51.932185 278.450000,51.931595 279.248018,51.931026 280.045998,51.930436 280.844017,51.929845 281.641997,51.929277 282.440015,51.928708 283.237995,51.928117 284.036014,51.927549 284.833994,51.926980 285.632012,51.926411 286.429992,51.925843 287.228011,51.925274 288.025991,51.924706 288.824009,51.924159 289.621989,51.923590 290.420008,51.923021 291.217988,51.922475 292.016006,51.921928 292.813986,51.921359 293.612005,51.920812 294.409985,51.920266 295.208003,51.919719 296.005983,51.919172 296.804002,51.918625 297.601982,51.918100 298.400000,51.917554 299.198018,51.917007 299.995998,51.916482 300.794017,51.915957 301.591997,51.915410 302.390015,51.914885 303.187995,51.914361 303.986014,51.913836 304.783994,51.913311 305.582012,51.912786 306.379992,51.912261 307.178011,51.911736 307.975991,51.911211 308.774009,51.910708 309.571989,51.910183 310.370008,51.909680 311.167988,51.909155 311.966006,51.908652 312.763986,51.908149 313.562005,51.907646 314.359985,51.907121 315.158003,51.906618 315.955983,51.906115 316.754002,51.905634 317.551982,51.905131 318.350000,51.904628 319.148018,51.904125 319.945998,51.903644 320.744017,51.903141 321.541997,51.902660 322.340015,51.902157 323.137995,51.901675 323.936014,51.901194 324.733994,51.900713 325.532012,51.900232 326.329992,51.899751 327.128011,51.899270 327.925991,51.898788 328.724009,51.898307 329.521989,51.897826 330.320008,51.897367 331.117988,51.896886 331.916006,51.896405 332.713986,51.895945 333.512005,51.895464 334.309985,51.895005 335.108003,51.894545 335.905983,51.894086 336.704002,51.893605 337.501982,51.893146 338.300000,51.892686 339.098018,51.892227 339.895998,51.891768 340.694017,51.891330 341.491997,51.890871 342.290015,51.890412 343.087995,51.889974 343.886014,51.889515 344.683994,51.889056 345.482012,51.888618 346.279992,51.888181 347.078011,51.887722 347.875991,51.887284 348.674009,51.886847 349.471989,51.886410 350.270008,51.885950 351.067988,51.885513 351.866006,51.885075 352.663986,51.884660 353.462005,51.884222 354.259985,51.883785 355.058003,51.883348 355.855983,51.882910 356.654002,51.882495 357.451982,51.882057 358.250000,51.881642 359.048018,51.881204 359.845998,51.880789 360.644017,51.880373 361.441997,51.879936 362.240015,51.879520 363.037995,51.879105 363.836014,51.878689 364.633994,51.878274 365.432012,51.877858 366.229992,51.877442 367.028011,51.877027 367.825991,51.876611 368.624009,51.876196 369.421989,51.875780 370.220008,51.875387 371.017988,51.874971 371.816006,51.874555 372.613986,51.874162 373.412005,51.873746 374.209985,51.873353 375.008003,51.872959 375.805983,51.872543 376.604002,51.872150 377.401982,51.871756 378.200000,51.871362 378.998018,51.870969 379.795998,51.870575 380.594017,51.870181 381.391997,51.869788 382.190015,51.869394 382.987995,51.869000 383.786014,51.868607 384.583994,51.868213 385.382012,51.867841 386.179992,51.867447 386.978011,51.867054 387.775991,51.866682 388.574009,51.866288 389.371989,51.865916 390.170008,51.865523 390.967988,51.865151 391.766006,51.864779 392.563986,51.864385 393.362005,51.864014 394.159985,51.863642 394.958003,51.863270 395.755983,51.862898 396.554002,51.862526 397.351982,51.862155 398.150000,51.861783 398.948018,51.861411 399.745998,51.861039 400.544017,51.860667 401.341997,51.860296 402.140015,51.859946 402.937995,51.859574 403.736014,51.859202 404.533994,51.858852 405.332012,51.858480 406.129992,51.858130 406.928011,51.857759 407.725991,51.857409 408.524009,51.857037 409.321989,51.856687 410.120008,51.856337 410.917988,51.855987 411.716006,51.855615 412.513986,51.855265 413.312005,51.854915 414.109985,51.854565 414.908003,51.854215 415.705983,51.853866 416.504002,51.853516 417.301982,51.853166 418.100000,51.852816 418.898018,51.852466 419.695998,51.852138 420.494017,51.851788 421.291997,51.851438 422.090015,51.851110 422.887995,51.850760 423.686014,51.850410 424.483994,51.850082 425.282012,51.849732 426.079992,51.849404 426.878011,51.849054 427.675991,51.848726 428.474009,51.848398 429.271989,51.848048 430.070008,51.847720 430.867988,51.847392 431.666006,51.847064 432.463986,51.846736 433.262005,51.846408 434.059985,51.846080 434.858003,51.845730 435.655983,51.845402 436.454002,51.845095 437.251982,51.844767 438.050000,51.844439 438.848018,51.844111 439.645998,51.843783 440.444017,51.843455 441.241997,51.843149 442.040015,51.842821 442.837995,51.842493 443.636014,51.842186 444.433994,51.841858 445.232012,51.841530 446.029992,51.841224 446.828011,51.840918 447.625991,51.840590 448.424009,51.840284 449.221989,51.839956 450.020008,51.839649 450.817988,51.839343 451.616006,51.839015 452.413986,51.838709 453.212005,51.838403 454.009985,51.838097 454.808003,51.837790 455.605983,51.837484 456.404002,51.837178 457.201982,51.836872 458.000000,51.836566 458.000000,51.836566"/>
</svg>
