<?xml version="1.0" standalone="no"?>
<!DOCTYPE svg PUBLIC "-//W3C//DTD SVG 1.1//EN" "http://www.w3.org/Graphics/SVG/1.1/DTD/svg11.dtd">
<svg width="300" height="300" version="1.1" xmlns="http://www.w3.org/2000/svg" xmlns:xlink="http://www.w3.org/1999/xlink">
	<polyline style="shape-rendering:crispEdges" fill="none" stroke="rgb(229,229,229)" stroke-width="1" stroke-opacity="1" points="59.000000,17.000000 59.000000,275.000000"/>
	<polyline style="shape-rendering:crispEdges" fill="none" stroke="rgb(229,229,229)" stroke-width="1" stroke-opacity="1" points="113.000000,17.000000 113.000000,275.000000"/>
	<polyline style="shape-rendering:crispEdges" fill="none" stroke="rgb(229,229,229)" stroke-width="1" stroke-opacity="1" points="167.000000,17.000000 167.000000,275.000000"/>
	<polyline style="shape-rendering:crispEdges" fill="none" stroke="rgb(229,229,229)" stroke-width="1" stroke-opacity="1" points="221.000000,17.000000 221.000000,275.000000"/>
	<polyline style="shape-rendering:crispEdges" fill="none" stroke="rgb(229,229,229)" stroke-width="1" stroke-opacity="1" points="275.000000,17.000000 275.000000,275.000000"/>
	<polyline style="shape-rendering:crispEdges" fill="none" stroke="rgb(229,229,229)" stroke-width="1" stroke-opacity="1" points="59.000000,275.000000 275.000000,275.000000"/>
	<polyline style="shape-rendering:crispEdges" fill="none" stroke="rgb(229,229,229)" stroke-width="1" stroke-opacity="1" points="59.000000,242.750000 275.000000,242.750000"/>
	<polyline style="shape-rendering:crispEdges" fill="none" stroke="rgb(229,229,229)" stroke-width="1" stroke-opacity="1" points="59.000000,210.500000 275.000000,210.500000"/>
	<polyline style="shape-rendering:crispEdges" fill="none" stroke="rgb(229,229,229)" stroke-width="1" stroke-opacity="1" points="59.000000,178.250000 275.000000,178.250000"/>
	<polyline style="shape-rendering:crispEdges" fill="none" stroke="rgb(229,229,229)" stroke-width="1" stroke-opacity="1" points="59.000000,146.000000 275.000000,146.000000"/>
	<polyline style="shape-rendering:crispEdges" fill="none" stroke="rgb(229,229,229)" stroke-width="1" stroke-opacity="1" points="59.000000,113.750000 275.000000,113.750000"/>
	<polyline style="shape-rendering:crispEdges" fill="none" stroke="rgb(229,229,229)" stroke-width="1" stroke-opacity="1" points="59.000000,81.500000 275.000000,81.500000"/>
	<polyline style="shape-rendering:crispEdges" fill="none" stroke="rgb(229,229,229)" stroke-width="1" stroke-opacity="1" points="59.000000,49.250000 275.000000,49.250000"/>
	<polyline style="shape-rendering:crispEdges" fill="none" stroke="rgb(229,229,229)" stroke-width="1" stroke-opacity="1" points="59.000000,17.000000 275.000000,17.000000"/>
	<polyline style="shape-rendering:crispEdges" fill="none" stroke="rgb(0,0,0)" stroke-width="1" stroke-opacity="1" points="59.000000,275.000000 275.000000,275.000000"/>
	<polyline style="shape-rendering:crispEdges" fill="none" stroke="rgb(0,0,0)" stroke-width="1" stroke-opacity="1" points="275.000000,275.000000 275.000000,17.000000"/>
	<polyline style="shape-rendering:crispEdges" fill="none" stroke="rgb(0,0,0)" stroke-width="1" stroke-opacity="1" points="275.000000,17.000000 59.000000,17.000000"/>
	<polyline style="shape-rendering:crispEdges" fill="none" stroke="rgb(0,0,0)" stroke-width="1" stroke-opacity="1" points="59.000000,17.000000 59.000000,275.000000"/>
	<polyline style="shape-rendering:crispEdges" fill="none" stroke="rgb(0,0,0)" stroke-width="1" stroke-opacity="1" points="59.000000,275.000000 59.000000,279.000000"/>
	<polyline style="shape-rendering:crispEdges" fill="none" stroke="rgb(0,0,0)" stroke-width="1" stroke-opacity="1" points="113.000000,275.000000 113.000000,279.000000"/>
	<polyline style="shape-rendering:crispEdges" fill="none" stroke="rgb(0,0,0)" stroke-width="1" stroke-opacity="1" points="167.000000,275.000000 167.000000,279.000000"/>
	<polyline style="shape-rendering:crispEdges" fill="none" stroke="rgb(0,0,0)" stroke-width="1" stroke-opacity="1" points="221.000000,275.000000 221.000000,279.000000"/>
	<polyline style="shape-rendering:crispEdges" fill="none" stroke="rgb(0,0,0)" stroke-width="1" stroke-opacity="1" points="275.000000,275.000000 275.000000,279.000000"/>
	<polyline style="shape-rendering:crispEdges" fill="none" stroke="rgb(0,0,0)" stroke-width="1" stroke-opacity="1" points="59.000000,275.000000 59.000000,281.400000"/>
	<text style="shape-rendering:crispEdges" x="59" y="291.5" fill="rgb(0,0,0)" dominant-baseline="central" font-size="11" font-family="Arial" text-anchor="middle">6</text>
	<polyline style="shape-rendering:crispEdges" fill="none" stroke="rgb(0,0,0)" stroke-width="1" stroke-opacity="1" points="167.000000,275.000000 167.000000,281.400000"/>
	<text style="shape-rendering:crispEdges" x="167" y="291.5" fill="rgb(0,0,0)" dominant-baseline="central" font-size="11" font-family="Arial" text-anchor="middle">7</text>
	<polyline style="shape-rendering:crispEdges" fill="none" stroke="rgb(0,0,0)" stroke-width="1" stroke-opacity="1" points="275.000000,275.000000 275.000000,281.400000"/>
	<text style="shape-rendering:crispEdges" x="275" y="291.5" fill="rgb(0,0,0)" dominant-baseline="central" font-size="11" font-family="Arial" text-anchor="middle">8</text>
	<polyline style="shape-rendering:crispEdges" fill="none" stroke="rgb(0,0,0)" stroke-width="1" stroke-opacity="1" points="55.000000,275.000000 59.000000,275.000000"/>
	<polyline style="shape-rendering:crispEdges" fill="none" stroke="rgb(0,0,0)" stroke-width="1" stroke-opacity="1" points="55.000000,242.750000 59.000000,242.750000"/>
	<polyline style="shape-rendering:crispEdges" fill="none" stroke="rgb(0,0,0)" stroke-width="1" stroke-opacity="1" points="55.000000,210.500000 59.000000,210.500000"/>
	<polyline style="shape-rendering:crispEdges" fill="none" stroke="rgb(0,0,0)" stroke-width="1" stroke-opacity="1" points="55.000000,178.250000 59.000000,178.250000"/>
	<polyline style="shape-rendering:crispEdges" fill="none" stroke="rgb(0,0,0)" stroke-width="1" stroke-opacity="1" points="55.000000,146.000000 59.000000,146.000000"/>
	<polyline style="shape-rendering:crispEdges" fill="none" stroke="rgb(0,0,0)" stroke-width="1" stroke-opacity="1" points="55.000000,113.750000 59.000000,113.750000"/>
	<polyline style="shape-rendering:crispEdges" fill="none" stroke="rgb(0,0,0)" stroke-width="1" stroke-opacity="1" points="55.000000,81.500000 59.000000,81.500000"/>
	<polyline style="shape-rendering:crispEdges" fill="none" stroke="rgb(0,0,0)" stroke-width="1" stroke-opacity="1" points="55.000000,49.250000 59.000000,49.250000"/>
	<polyline style="shape-rendering:crispEdges" fill="none" stroke="rgb(0,0,0)" stroke-width="1" stroke-opacity="1" points="55.000000,17.000000 59.000000,17.000000"/>
	<rect style="shape-rendering:crispEdges" fill="none" stroke="none" stroke-dasharray="none" stroke-width="1" stroke-opacity="1" x="0" y="267" width="51" height="16"/>
	<polyline style="shape-rendering:crispEdges" fill="none" stroke="rgb(0,0,0)" stroke-width="1" stroke-opacity="1" points="52.600000,275.000000 59.000000,275.000000"/>
	<text style="shape-rendering:crispEdges" x="51" y="275" fill="rgb(0,0,0)" dominant-baseline="central" font-size="11" font-family="Arial" text-anchor="end">-18</text>
	<polyline style="shape-rendering:crispEdges" fill="none" stroke="rgb(0,0,0)" stroke-width="1" stroke-opacity="1" points="52.600000,242.750000 59.000000,242.750000"/>
	<text style="shape-rendering:crispEdges" x="51" y="242.75" fill="rgb(0,0,0)" dominant-baseline="central" font-size="11" font-family="Arial" text-anchor="end">-16</text>
	<polyline style="shape-rendering:crispEdges" fill="none" stroke="rgb(0,0,0)" stroke-width="1" stroke-opacity="1" points="52.600000,210.500000 59.000000,210.500000"/>
	<text style="shape-rendering:crispEdges" x="51" y="210.5" fill="rgb(0,0,0)" dominant-baseline="central" font-size="11" font-family="Arial" text-anchor="end">-14</text>
	<polyline style="shape-rendering:crispEdges" fill="none" stroke="rgb(0,0,0)" stroke-width="1" stroke-opacity="1" points="52.600000,178.250000 59.000000,178.250000"/>
	<text style="shape-rendering:crispEdges" x="51" y="178.25" fill="rgb(0,0,0)" dominant-baseline="central" font-size="11" font-family="Arial" text-anchor="end">-12</text>
	<polyline style="shape-rendering:crispEdges" fill="none" stroke="rgb(0,0,0)" stroke-width="1" stroke-opacity="1" points="52.600000,146.000000 59.000000,146.000000"/>
	<text style="shape-rendering:crispEdges" x="51" y="146" fill="rgb(0,0,0)" dominant-baseline="central" font-size="11" font-family="Arial" text-anchor="end">-10</text>
	<polyline style="shape-rendering:crispEdges" fill="none" stroke="rgb(0,0,0)" stroke-width="1" stroke-opacity="1" points="52.600000,113.750000 59.000000,113.750000"/>
	<text style="shape-rendering:crispEdges" x="51" y="113.75" fill="rgb(0,0,0)" dominant-baseline="central" font-size="11" font-family="Arial" text-anchor="end">-8</text>
	<polyline style="shape-rendering:crispEdges" fill="none" stroke="rgb(0,0,0)" stroke-width="1" stroke-opacity="1" points="52.600000,81.500000 59.000000,81.500000"/>
	<text style="shape-rendering:crispEdges" x="51" y="81.5" fill="rgb(0,0,0)" dominant-baseline="central" font-size="11" font-family="Arial" text-anchor="end">-6</text>
	<polyline style="shape-rendering:crispEdges" fill="none" stroke="rgb(0,0,0)" stroke-width="1" stroke-opacity="1" points="52.600000,49.250000 59.000000,49.250000"/>
	<text style="shape-rendering:crispEdges" x="51" y="49.25" fill="rgb(0,0,0)" dominant-baseline="central" font-size="11" font-family="Arial" text-anchor="end">-4</text>
	<polyline style="shape-rendering:crispEdges" fill="none" stroke="rgb(0,0,0)" stroke-width="1" stroke-opacity="1" points="52.600000,17.000000 59.000000,17.000000"/>
	<text style="shape-rendering:crispEdges" x="51" y="17" fill="rgb(0,0,0)" dominant-baseline="central" font-size="11" font-family="Arial" text-anchor="end">-2</text>
	<clipPath id="clipArea1">
		<rect x="59" y="17" width="216" height="258">
		</rect>
	</clipPath>
	<polyline fill="none" stroke="rgb(0,0,0)" stroke-dasharray="4,2" stroke-width="1" stroke-opacity="1" clip-path="url(#clipArea1)" points="56.368328,31.856300 60.356365,35.733762 64.249903,39.519372 68.046675,43.210856 71.745239,46.806924 75.345236,50.307107 78.846819,53.711619 82.250813,57.021256 85.558556,60.237280 88.771645,63.361328 91.892191,66.395338 94.922358,69.341501 97.864616,72.202185 100.721491,74.979867 103.495659,77.677145 106.189850,80.296656 108.806845,82.841061 111.349270,85.313029 113.819906,87.715195 116.221483,90.050152 118.556524,92.320459 120.827604,94.528602 123.037247,96.676977 125.187769,98.767924 127.281591,100.803686 129.320877,102.786441 131.307789,104.718263 133.244335,106.601145 135.132524,108.436986 136.974211,110.227616 138.771196,111.974772 140.525181,113.680122 142.237812,115.345252 143.910583,116.971660 145.545040,118.560807 147.142572,120.114046 148.704519,121.632700 150.232168,123.118000 151.726755,124.571159 153.189413,125.993286 154.621326,127.385471 156.023474,128.748746 157.396885,130.084095 158.742538,131.392455 160.061361,132.674734 161.354280,133.931777 162.622068,135.164416 163.865498,136.373419 165.085443,137.559540 166.282627,138.723500 167.457666,139.865993 168.611334,140.987680 169.744247,142.089190 170.857025,143.171125 171.950285,144.234052 173.024593,145.278557 174.080465,146.305176 175.118467,147.314404 176.139114,148.306746 177.142870,149.282680 178.130198,150.242651 179.101612,151.187137 180.057526,152.116522 180.998299,153.031236 181.924395,153.931664 182.836226,154.818206 183.734100,155.691199 184.618431,156.551029 185.489578,157.398003 186.347851,158.232475 187.193558,159.054752 188.027060,159.865157 188.848665,160.663952 189.658632,161.451459 190.457218,162.227940 191.244783,162.993672 192.021534,163.748901 192.787779,164.493873 193.543724,165.228849 194.289576,165.954060 195.025642,166.669737 195.752131,167.376079 196.469297,168.073317 197.177246,168.761652 197.876234,169.441298 198.566519,170.112425 199.248255,170.775232 199.921597,171.429919 200.586750,172.076641 201.243870,172.715566 201.893213,173.346879 202.534832,173.970734 203.168983,174.587299 203.795771,175.196698 204.415348,175.799116 205.027870,176.394660 205.633492,176.983499 206.232367,177.565756 206.824598,178.141570 207.410341,178.711063 207.989698,179.274375 208.562824,179.831596 209.129822,180.382882 209.690794,180.928324 210.245895,181.468031 210.795229,182.002124 211.338898,182.530712 211.877005,183.053902 212.409653,183.571772 212.936893,184.084443 213.458933,184.591994 213.975822,185.094532 214.487614,185.592133 214.994410,186.084906 215.496365,186.572911 215.993479,187.056257 216.485855,187.535020 216.973648,188.009262 217.456858,188.479075 217.935587,188.944552 218.409939,189.405738 218.879965,189.862711 219.345716,190.315562 219.807297,190.764338 220.264757,191.209116 220.718149,191.649973 221.167576,192.086954 221.613140,192.520121 222.054790,192.949552 222.492682,193.375292 222.926813,193.797418 223.357340,194.215976 223.784210,194.631013 224.207527,195.042590 224.627342,195.450768 225.043707,195.855609 225.456673,196.257144 225.866343,196.655419 226.272665,197.050495 226.675795,197.442434 227.075680,197.831251 227.472475,198.217024 227.866129,198.599767 228.256744,198.979557 228.644321,199.356410 229.028963,199.730373 229.410669,200.101505 229.789492,200.469839 230.165482,200.835405 230.538691,201.198233 230.909119,201.558386 231.276817,201.915894 231.641787,202.270787 232.004181,202.623112 232.363949,202.972900 232.721090,203.320166 233.075760,203.664972 233.427855,204.007332 233.777529,204.347294 234.124731,204.684871 234.469513,205.020112 234.811926,205.353045 235.152021,205.683688 235.489799,206.012085 235.825260,206.338268 236.158455,206.662236 236.489435,206.984051 236.818253,207.303714 237.144855,207.621285 237.469296,207.936749 237.791676,208.250168 238.111944,208.561542 238.430101,208.870916 238.746250,209.178292 239.060390,209.483730 239.372522,209.787214 239.682697,210.088792 239.990967,210.388463 240.297228,210.686289 240.601635,210.982254 240.904188,211.276404 241.204887,211.568756 241.503733,211.859307 241.800776,212.148122 242.096016,212.435183 242.389505,212.720521 242.681192,213.004169 242.971231,213.286124 243.259520,213.566419 243.546108,213.845068 243.831049,214.122103 244.114290,214.397523 244.395935,214.671359 244.675983,214.943611 244.954384,215.214325 245.231239,215.483486 245.506498,215.751140 245.780264,216.017272 246.052433,216.281927 246.323109,216.545107 246.592291,216.806840 246.860031,217.067128 247.126278,217.325986 247.391031,217.583429 247.654394,217.839473 247.916315,218.094148 248.176846,218.347454 248.435986,218.599392 248.693735,218.850007 248.950146,219.099284 249.205166,219.347255 249.458847,219.593933 249.711241,219.839320 249.962347,220.083430 250.212114,220.326280 250.460594,220.567883 250.707838,220.808241 250.953794,221.047385 251.198515,221.285328 251.441948,221.522057 251.684248,221.757602 251.925261,221.991963 252.165140,222.225170 252.403784,222.457209 252.641294,222.688125 252.877621,222.917887 253.112762,223.146543 253.346823,223.374076 253.579699,223.600517 253.811493,223.825866 254.042154,224.050139 254.271683,224.273335 254.500181,224.495470 254.727547,224.716544 254.953882,224.936588 255.179136,225.155602 255.403309,225.373600 255.626503,225.590568 255.848616,225.806537 256.069750,226.021521 256.289803,226.235506 256.508928,226.448522 256.726973,226.660569 256.944090,226.871648 257.160229,227.081773 257.375389,227.290960 257.589571,227.499208 257.802774,227.706535 258.015102,227.912938 258.226452,228.118434 258.436823,228.323008 258.646370,228.526705 258.854939,228.729510 259.062632,228.931423 259.269398,229.132475 259.475288,229.332650 259.680304,229.531980 259.884392,229.730448 260.087656,229.928071 260.290045,230.124848 260.491610,230.320810 260.692299,230.515941 260.892164,230.710242 261.091154,230.903744 261.289371,231.096445 261.486713,231.288332 261.683283,231.479450 261.879028,231.669768 262.073950,231.859302 262.268099,232.048066 262.461475,232.236078 262.654028,232.423305 262.845860,232.609794 263.036867,232.795529 263.227154,232.980527 263.416668,233.164771 263.605410,233.348307 263.793430,233.531090 263.980679,233.713165 264.167206,233.894534 264.353012,234.075179 264.538097,234.255132 264.722462,234.434378 264.906105,234.612932 265.089027,234.790794 265.271280,234.967979 265.452812,235.144488 265.633675,235.320320 265.813816,235.495475 265.993288,235.669970 266.172091,235.843818 266.350224,236.017005 266.527687,236.189546 266.704481,236.361441 266.880606,236.532691 267.056061,236.703310 267.230898,236.873298 267.405117,237.042656 267.578667,237.211399 267.751598,237.379526 267.923861,237.547039 268.095556,237.713936 268.266582,237.880249 268.436991,238.045947 268.606833,238.211045 268.776005,238.375559 268.944611,238.539489 269.112598,238.702834 269.280020,238.865595 269.446823,239.027786 269.613060,239.189394 269.778679,239.350447 269.943783,239.510932 270.108269,239.670863 270.272188,239.830226 270.435490,239.989050 270.598276,240.147320 270.760496,240.305052 270.922201,240.462231 271.083288,240.618886 271.243860,240.774988 271.403866,240.930583 271.563356,241.085639 271.722281,241.240173 271.880690,241.394183 272.038584,241.547671 272.195911,241.700652 272.352724,241.853124 272.509022,242.005090 272.664804,242.156563 272.820072,242.307529 272.974825,242.457987 273.129114,242.607969 273.282837,242.757443 273.436096,242.906425 273.588840,243.054946 273.741070,243.202974 273.892836,243.350542 274.044086,243.497617 274.194874,243.644200 274.345198,243.790352 274.495007,243.936013 274.644352,244.081212 274.793234,244.225950 274.941652,244.370257 275.089607,244.514072"/>
	<clipPath id="clipArea2">
		<rect x="59" y="17" width="216" height="258">
		</rect>
	</clipPath>
	<polyline fill="none" stroke="rgb(238,46,47)" stroke-width="2" stroke-opacity="1" clip-path="url(#clipArea2)" points="56.368328,40.397451 60.356365,44.004761 64.249903,47.523674 68.046675,50.954851 71.745239,54.299266 75.345236,57.558179 78.846819,60.733067 82.250813,63.825628 85.558556,66.837724 88.771645,69.771339 91.892191,72.628556 94.922358,75.411520 97.864616,78.122415 100.721491,80.763409 103.495659,83.336687 106.189850,85.844392 108.806845,88.288617 111.349270,90.671407 113.819906,92.994746 116.221483,95.260540 118.556524,97.470628 120.827604,99.626777 123.037247,101.730680 125.187769,103.783958 127.281591,105.788164 129.320877,107.744792 131.307789,109.655262 133.244335,111.520936 135.132524,113.343129 136.974211,115.123086 138.771196,116.862046 140.525181,118.561130 142.237812,120.221492 143.910583,121.844194 145.545040,123.430281 147.142572,124.980767 148.704519,126.496638 150.232168,127.978816 151.726755,129.428238 153.189413,130.845798 154.621326,132.232340 156.023474,133.588725 157.396885,134.915754 158.742538,136.214211 160.061361,137.484895 161.354280,138.728560 162.622068,139.945897 163.865498,141.137646 165.085443,142.304513 166.282627,143.447129 167.457666,144.566186 168.611334,145.662299 169.744247,146.736099 170.857025,147.788169 171.950285,148.819125 173.024593,149.829521 174.080465,150.819926 175.118467,151.790847 176.139114,152.742837 177.142870,153.676389 178.130198,154.591995 179.101612,155.490147 180.057526,156.371307 180.998299,157.235934 181.924395,158.084446 182.836226,158.917303 183.734100,159.734875 184.618431,160.537606 185.489578,161.325852 186.347851,162.100026 187.193558,162.860468 188.027060,163.607531 188.848665,164.341585 189.658632,165.062951 190.457218,165.771954 191.244783,166.468900 192.021534,167.154113 192.787779,167.827885 193.543724,168.490492 194.289576,169.142227 195.025642,169.783351 195.752131,170.414126 196.469297,171.034812 197.177246,171.645657 197.876234,172.246906 198.566519,172.838775 199.248255,173.421493 199.921597,173.995292 200.586750,174.560372 201.243870,175.116948 201.893213,175.665205 202.534832,176.205357 203.168983,176.737574 203.795771,177.262056 204.415348,177.778957 205.027870,178.288476 205.633492,178.790752 206.232367,179.285985 206.824598,179.774298 207.410341,180.255860 207.989698,180.730809 208.562824,181.199300 209.129822,181.661471 209.690794,182.117474 210.245895,182.567404 210.795229,183.011428 211.338898,183.449655 211.877005,183.882192 212.409653,184.309193 212.936893,184.730734 213.458933,185.146971 213.975822,185.557963 214.487614,185.963865 214.994410,186.364739 215.496365,186.760723 215.993479,187.151877 216.485855,187.538326 216.973648,187.920162 217.456858,188.297446 217.935587,188.670301 218.409939,189.038788 218.879965,189.403001 219.345716,189.763031 219.807297,190.118939 220.264757,190.470803 220.718149,190.818715 221.167576,191.162736 221.613140,191.502944 222.054790,191.839399 222.492682,192.172179 222.926813,192.501345 223.357340,192.826974 223.784210,193.149112 224.207527,193.467821 224.627342,193.783178 225.043707,194.095228 225.456673,194.404049 225.866343,194.709656 226.272665,195.012141 226.675795,195.311551 227.075680,195.607916 227.472475,195.901312 227.866129,196.191772 228.256744,196.479371 228.644321,196.764126 229.028963,197.046097 229.410669,197.325330 229.789492,197.601858 230.165482,197.875755 230.538691,198.147023 230.909119,198.415738 231.276817,198.681916 231.641787,198.945618 232.004181,199.206859 232.363949,199.465702 232.721090,199.722161 233.075760,199.976297 233.427855,200.228128 233.777529,200.477682 234.124731,200.725021 234.469513,200.970147 234.811926,201.213119 235.152021,201.453969 235.489799,201.692697 235.825260,201.929365 236.158455,202.163987 236.489435,202.396610 236.818253,202.627249 237.144855,202.855935 237.469296,203.082684 237.791676,203.307541 238.111944,203.530537 238.430101,203.751688 238.746250,203.971009 239.060390,204.188547 239.372522,204.404300 239.682697,204.618331 239.990967,204.830624 240.297228,205.041226 240.601635,205.250167 240.904188,205.457431 241.204887,205.663081 241.503733,205.867132 241.800776,206.069583 242.096016,206.270466 242.389505,206.469811 242.681192,206.667634 242.971231,206.863949 243.259520,207.058773 243.546108,207.252136 243.831049,207.444053 244.114290,207.634541 244.395935,207.823613 244.675983,208.011286 244.954384,208.197606 245.231239,208.382542 245.506498,208.566155 245.780264,208.748431 246.052433,208.929399 246.323109,209.109075 246.592291,209.287476 246.860031,209.464615 247.126278,209.640508 247.391031,209.815156 247.654394,209.988605 247.916315,210.160854 248.176846,210.331903 248.435986,210.501768 248.693735,210.670496 248.950146,210.838070 249.205166,211.004506 249.458847,211.169819 249.711241,211.334026 249.962347,211.497140 250.212114,211.659163 250.460594,211.820124 250.707838,211.980040 250.953794,212.138895 251.198515,212.296704 251.441948,212.453513 251.684248,212.609292 251.925261,212.764087 252.165140,212.917883 252.403784,213.070709 252.641294,213.222552 252.877621,213.373441 253.112762,213.523391 253.346823,213.672404 253.579699,213.820494 253.811493,213.967662 254.042154,214.113907 254.271683,214.259275 254.500181,214.403751 254.727547,214.547351 254.953882,214.690074 255.179136,214.831936 255.403309,214.972952 255.626503,215.113123 255.848616,215.252463 256.069750,215.390972 256.289803,215.528667 256.508928,215.665547 256.726973,215.801626 256.944090,215.936922 257.160229,216.071433 257.375389,216.205160 257.589571,216.338119 257.802774,216.470323 258.015102,216.601774 258.226452,216.732472 258.436823,216.862432 258.646370,216.991653 258.854939,217.120167 259.062632,217.247943 259.269398,217.375026 259.475288,217.501403 259.680304,217.627072 259.884392,217.752049 260.087656,217.876349 260.290045,217.999973 260.491610,218.122920 260.692299,218.245206 260.892164,218.366846 261.091154,218.487809 261.289371,218.608142 261.486713,218.727829 261.683283,218.846885 261.879028,218.965311 262.073950,219.083107 262.268099,219.200287 262.461475,219.316868 262.654028,219.432833 262.845860,219.548199 263.036867,219.662965 263.227154,219.777147 263.416668,219.890744 263.605410,220.003772 263.793430,220.116216 263.980679,220.228091 264.167206,220.339397 264.353012,220.450149 264.538097,220.560348 264.722462,220.669993 264.906105,220.779085 265.089027,220.887653 265.271280,220.995684 265.452812,221.103176 265.633675,221.210145 265.813816,221.316592 265.993288,221.422531 266.172091,221.527947 266.350224,221.632856 266.527687,221.737257 266.704481,221.841166 266.880606,221.944583 267.056061,222.047493 267.230898,222.149926 267.405117,222.251882 267.578667,222.353346 267.751598,222.454333 267.923861,222.554859 268.095556,222.654908 268.266582,222.754496 268.436991,222.853623 268.606833,222.952303 268.776005,223.050523 268.944611,223.148296 269.112598,223.245608 269.280020,223.342505 269.446823,223.438940 269.613060,223.534945 269.778679,223.630535 269.943783,223.725678 270.108269,223.820407 270.272188,223.914705 270.435490,224.008603 270.598276,224.102070 270.760496,224.195122 270.922201,224.287775 271.083288,224.380028 271.243860,224.471865 271.403866,224.563318 271.563356,224.654356 271.722281,224.745009 271.880690,224.835278 272.038584,224.925162 272.195911,225.014662 272.352724,225.103762 272.509022,225.192509 272.664804,225.280871 272.820072,225.368848 272.974825,225.456472 273.129114,225.543727 273.282837,225.630612 273.436096,225.717129 273.588840,225.803292 273.741070,225.889101 273.892836,225.974557 274.044086,226.059659 274.194874,226.144422 274.345198,226.228832 274.495007,226.312904 274.644352,226.396621 274.793234,226.480001 274.941652,226.563057 275.089607,226.645776"/>
</svg>
