<?xml version="1.0" standalone="no"?>
<!DOCTYPE svg PUBLIC "-//W3C//DTD SVG 1.1//EN" "http://www.w3.org/Graphics/SVG/1.1/DTD/svg11.dtd">
<svg width="586" height="421" version="1.1" xmlns="http://www.w3.org/2000/svg" xmlns:xlink="http://www.w3.org/1999/xlink">
	<polyline style="shape-rendering:crispEdges" fill="none" stroke="rgb(229,229,229)" stroke-width="1" stroke-opacity="1" points="59.000000,17.000000 59.000000,371.000000"/>
	<polyline style="shape-rendering:crispEdges" fill="none" stroke="rgb(229,229,229)" stroke-width="1" stroke-opacity="1" points="92.466667,17.000000 92.466667,371.000000"/>
	<polyline style="shape-rendering:crispEdges" fill="none" stroke="rgb(229,229,229)" stroke-width="1" stroke-opacity="1" points="125.933333,17.000000 125.933333,371.000000"/>
	<polyline style="shape-rendering:crispEdges" fill="none" stroke="rgb(229,229,229)" stroke-width="1" stroke-opacity="1" points="159.400000,17.000000 159.400000,371.000000"/>
	<polyline style="shape-rendering:crispEdges" fill="none" stroke="rgb(229,229,229)" stroke-width="1" stroke-opacity="1" points="192.866667,17.000000 192.866667,371.000000"/>
	<polyline style="shape-rendering:crispEdges" fill="none" stroke="rgb(229,229,229)" stroke-width="1" stroke-opacity="1" points="226.333333,17.000000 226.333333,371.000000"/>
	<polyline style="shape-rendering:crispEdges" fill="none" stroke="rgb(229,229,229)" stroke-width="1" stroke-opacity="1" points="259.800000,17.000000 259.800000,371.000000"/>
	<polyline style="shape-rendering:crispEdges" fill="none" stroke="rgb(229,229,229)" stroke-width="1" stroke-opacity="1" points="293.266667,17.000000 293.266667,371.000000"/>
	<polyline style="shape-rendering:crispEdges" fill="none" stroke="rgb(229,229,229)" stroke-width="1" stroke-opacity="1" points="326.733333,17.000000 326.733333,371.000000"/>
	<polyline style="shape-rendering:crispEdges" fill="none" stroke="rgb(229,229,229)" stroke-width="1" stroke-opacity="1" points="360.200000,17.000000 360.200000,371.000000"/>
	<polyline style="shape-rendering:crispEdges" fill="none" stroke="rgb(229,229,229)" stroke-width="1" stroke-opacity="1" points="393.666667,17.000000 393.666667,371.000000"/>
	<polyline style="shape-rendering:crispEdges" fill="none" stroke="rgb(229,229,229)" stroke-width="1" stroke-opacity="1" points="427.133333,17.000000 427.133333,371.000000"/>
	<polyline style="shape-rendering:crispEdges" fill="none" stroke="rgb(229,229,229)" stroke-width="1" stroke-opacity="1" points="460.600000,17.000000 460.600000,371.000000"/>
	<polyline style="shape-rendering:crispEdges" fill="none" stroke="rgb(229,229,229)" stroke-width="1" stroke-opacity="1" points="494.066667,17.000000 494.066667,371.000000"/>
	<polyline style="shape-rendering:crispEdges" fill="none" stroke="rgb(229,229,229)" stroke-width="1" stroke-opacity="1" points="527.533333,17.000000 527.533333,371.000000"/>
	<polyline style="shape-rendering:crispEdges" fill="none" stroke="rgb(229,229,229)" stroke-width="1" stroke-opacity="1" points="561.000000,17.000000 561.000000,371.000000"/>
	<polyline style="shape-rendering:crispEdges" fill="none" stroke="rgb(229,229,229)" stroke-width="1" stroke-opacity="1" points="59.000000,371.000000 561.000000,371.000000"/>
	<polyline style="shape-rendering:crispEdges" fill="none" stroke="rgb(229,229,229)" stroke-width="1" stroke-opacity="1" points="59.000000,326.750000 561.000000,326.750000"/>
	<polyline style="shape-rendering:crispEdges" fill="none" stroke="rgb(229,229,229)" stroke-width="1" stroke-opacity="1" points="59.000000,282.500000 561.000000,282.500000"/>
	<polyline style="shape-rendering:crispEdges" fill="none" stroke="rgb(229,229,229)" stroke-width="1" stroke-opacity="1" points="59.000000,238.250000 561.000000,238.250000"/>
	<polyline style="shape-rendering:crispEdges" fill="none" stroke="rgb(229,229,229)" stroke-width="1" stroke-opacity="1" points="59.000000,194.000000 561.000000,194.000000"/>
	<polyline style="shape-rendering:crispEdges" fill="none" stroke="rgb(229,229,229)" stroke-width="1" stroke-opacity="1" points="59.000000,149.750000 561.000000,149.750000"/>
	<polyline style="shape-rendering:crispEdges" fill="none" stroke="rgb(229,229,229)" stroke-width="1" stroke-opacity="1" points="59.000000,105.500000 561.000000,105.500000"/>
	<polyline style="shape-rendering:crispEdges" fill="none" stroke="rgb(229,229,229)" stroke-width="1" stroke-opacity="1" points="59.000000,61.250000 561.000000,61.250000"/>
	<polyline style="shape-rendering:crispEdges" fill="none" stroke="rgb(229,229,229)" stroke-width="1" stroke-opacity="1" points="59.000000,17.000000 561.000000,17.000000"/>
	<polyline style="shape-rendering:crispEdges" fill="none" stroke="rgb(0,0,0)" stroke-width="1" stroke-opacity="1" points="59.000000,371.000000 561.000000,371.000000"/>
	<polyline style="shape-rendering:crispEdges" fill="none" stroke="rgb(0,0,0)" stroke-width="1" stroke-opacity="1" points="561.000000,371.000000 561.000000,17.000000"/>
	<polyline style="shape-rendering:crispEdges" fill="none" stroke="rgb(0,0,0)" stroke-width="1" stroke-opacity="1" points="561.000000,17.000000 59.000000,17.000000"/>
	<polyline style="shape-rendering:crispEdges" fill="none" stroke="rgb(0,0,0)" stroke-width="1" stroke-opacity="1" points="59.000000,17.000000 59.000000,371.000000"/>
	<polyline style="shape-rendering:crispEdges" fill="none" stroke="rgb(0,0,0)" stroke-width="1" stroke-opacity="1" points="59.000000,371.000000 59.000000,375.000000"/>
	<polyline style="shape-rendering:crispEdges" fill="none" stroke="rgb(0,0,0)" stroke-width="1" stroke-opacity="1" points="92.466667,371.000000 92.466667,375.000000"/>
	<polyline style="shape-rendering:crispEdges" fill="none" stroke="rgb(0,0,0)" stroke-width="1" stroke-opacity="1" points="125.933333,371.000000 125.933333,375.000000"/>
	<polyline style="shape-rendering:crispEdges" fill="none" stroke="rgb(0,0,0)" stroke-width="1" stroke-opacity="1" points="159.400000,371.000000 159.400000,375.000000"/>
	<polyline style="shape-rendering:crispEdges" fill="none" stroke="rgb(0,0,0)" stroke-width="1" stroke-opacity="1" points="192.866667,371.000000 192.866667,375.000000"/>
	<polyline style="shape-rendering:crispEdges" fill="none" stroke="rgb(0,0,0)" stroke-width="1" stroke-opacity="1" points="226.333333,371.000000 226.333333,375.000000"/>
	<polyline style="shape-rendering:crispEdges" fill="none" stroke="rgb(0,0,0)" stroke-width="1" stroke-opacity="1" points="259.800000,371.000000 259.800000,375.000000"/>
	<polyline style="shape-rendering:crispEdges" fill="none" stroke="rgb(0,0,0)" stroke-width="1" stroke-opacity="1" points="293.266667,371.000000 293.266667,375.000000"/>
	<polyline style="shape-rendering:crispEdges" fill="none" stroke="rgb(0,0,0)" stroke-width="1" stroke-opacity="1" points="326.733333,371.000000 326.733333,375.000000"/>
	<polyline style="shape-rendering:crispEdges" fill="none" stroke="rgb(0,0,0)" stroke-width="1" stroke-opacity="1" points="360.200000,371.000000 360.200000,375.000000"/>
	<polyline style="shape-rendering:crispEdges" fill="none" stroke="rgb(0,0,0)" stroke-width="1" stroke-opacity="1" points="393.666667,371.000000 393.666667,375.000000"/>
	<polyline style="shape-rendering:crispEdges" fill="none" stroke="rgb(0,0,0)" stroke-width="1" stroke-opacity="1" points="427.133333,371.000000 427.133333,375.000000"/>
	<polyline style="shape-rendering:crispEdges" fill="none" stroke="rgb(0,0,0)" stroke-width="1" stroke-opacity="1" points="460.600000,371.000000 460.600000,375.000000"/>
	<polyline style="shape-rendering:crispEdges" fill="none" stroke="rgb(0,0,0)" stroke-width="1" stroke-opacity="1" points="494.066667,371.000000 494.066667,375.000000"/>
	<polyline style="shape-rendering:crispEdges" fill="none" stroke="rgb(0,0,0)" stroke-width="1" stroke-opacity="1" points="527.533333,371.000000 527.533333,375.000000"/>
	<polyline style="shape-rendering:crispEdges" fill="none" stroke="rgb(0,0,0)" stroke-width="1" stroke-opacity="1" points="561.000000,371.000000 561.000000,375.000000"/>
	<polyline style="shape-rendering:crispEdges" fill="none" stroke="rgb(0,0,0)" stroke-width="1" stroke-opacity="1" points="59.000000,371.000000 59.000000,377.400000"/>
	<text style="shape-rendering:crispEdges" x="59" y="387.5" fill="rgb(0,0,0)" dominant-baseline="central" font-size="11" font-family="Arial" text-anchor="middle">0.50</text>
	<polyline style="shape-rendering:crispEdges" fill="none" stroke="rgb(0,0,0)" stroke-width="1" stroke-opacity="1" points="226.333333,371.000000 226.333333,377.400000"/>
	<text style="shape-rendering:crispEdges" x="226.333" y="387.5" fill="rgb(0,0,0)" dominant-baseline="central" font-size="11" font-family="Arial" text-anchor="middle">0.75</text>
	<polyline style="shape-rendering:crispEdges" fill="none" stroke="rgb(0,0,0)" stroke-width="1" stroke-opacity="1" points="393.666667,371.000000 393.666667,377.400000"/>
	<text style="shape-rendering:crispEdges" x="393.667" y="387.5" fill="rgb(0,0,0)" dominant-baseline="central" font-size="11" font-family="Arial" text-anchor="middle">1.00</text>
	<polyline style="shape-rendering:crispEdges" fill="none" stroke="rgb(0,0,0)" stroke-width="1" stroke-opacity="1" points="561.000000,371.000000 561.000000,377.400000"/>
	<text style="shape-rendering:crispEdges" x="561" y="387.5" fill="rgb(0,0,0)" dominant-baseline="central" font-size="11" font-family="Arial" text-anchor="middle">1.25</text>
	<polyline style="shape-rendering:crispEdges" fill="none" stroke="rgb(0,0,0)" stroke-width="1" stroke-opacity="1" points="55.000000,371.000000 59.000000,371.000000"/>
	<polyline style="shape-rendering:crispEdges" fill="none" stroke="rgb(0,0,0)" stroke-width="1" stroke-opacity="1" points="55.000000,326.750000 59.000000,326.750000"/>
	<polyline style="shape-rendering:crispEdges" fill="none" stroke="rgb(0,0,0)" stroke-width="1" stroke-opacity="1" points="55.000000,282.500000 59.000000,282.500000"/>
	<polyline style="shape-rendering:crispEdges" fill="none" stroke="rgb(0,0,0)" stroke-width="1" stroke-opacity="1" points="55.000000,238.250000 59.000000,238.250000"/>
	<polyline style="shape-rendering:crispEdges" fill="none" stroke="rgb(0,0,0)" stroke-width="1" stroke-opacity="1" points="55.000000,194.000000 59.000000,194.000000"/>
	<polyline style="shape-rendering:crispEdges" fill="none" stroke="rgb(0,0,0)" stroke-width="1" stroke-opacity="1" points="55.000000,149.750000 59.000000,149.750000"/>
	<polyline style="shape-rendering:crispEdges" fill="none" stroke="rgb(0,0,0)" stroke-width="1" stroke-opacity="1" points="55.000000,105.500000 59.000000,105.500000"/>
	<polyline style="shape-rendering:crispEdges" fill="none" stroke="rgb(0,0,0)" stroke-width="1" stroke-opacity="1" points="55.000000,61.250000 59.000000,61.250000"/>
	<polyline style="shape-rendering:crispEdges" fill="none" stroke="rgb(0,0,0)" stroke-width="1" stroke-opacity="1" points="55.000000,17.000000 59.000000,17.000000"/>
	<rect style="shape-rendering:crispEdges" fill="none" stroke="none" stroke-dasharray="none" stroke-width="1" stroke-opacity="1" x="0" y="363" width="51" height="16"/>
	<polyline style="shape-rendering:crispEdges" fill="none" stroke="rgb(0,0,0)" stroke-width="1" stroke-opacity="1" points="52.600000,371.000000 59.000000,371.000000"/>
	<text style="shape-rendering:crispEdges" x="51" y="371" fill="rgb(0,0,0)" dominant-baseline="central" font-size="11" font-family="Arial" text-anchor="end">7.10</text>
	<polyline style="shape-rendering:crispEdges" fill="none" stroke="rgb(0,0,0)" stroke-width="1" stroke-opacity="1" points="52.600000,326.750000 59.000000,326.750000"/>
	<text style="shape-rendering:crispEdges" x="51" y="326.75" fill="rgb(0,0,0)" dominant-baseline="central" font-size="11" font-family="Arial" text-anchor="end">7.15</text>
	<polyline style="shape-rendering:crispEdges" fill="none" stroke="rgb(0,0,0)" stroke-width="1" stroke-opacity="1" points="52.600000,282.500000 59.000000,282.500000"/>
	<text style="shape-rendering:crispEdges" x="51" y="282.5" fill="rgb(0,0,0)" dominant-baseline="central" font-size="11" font-family="Arial" text-anchor="end">7.20</text>
	<polyline style="shape-rendering:crispEdges" fill="none" stroke="rgb(0,0,0)" stroke-width="1" stroke-opacity="1" points="52.600000,238.250000 59.000000,238.250000"/>
	<text style="shape-rendering:crispEdges" x="51" y="238.25" fill="rgb(0,0,0)" dominant-baseline="central" font-size="11" font-family="Arial" text-anchor="end">7.25</text>
	<polyline style="shape-rendering:crispEdges" fill="none" stroke="rgb(0,0,0)" stroke-width="1" stroke-opacity="1" points="52.600000,194.000000 59.000000,194.000000"/>
	<text style="shape-rendering:crispEdges" x="51" y="194" fill="rgb(0,0,0)" dominant-baseline="central" font-size="11" font-family="Arial" text-anchor="end">7.30</text>
	<polyline style="shape-rendering:crispEdges" fill="none" stroke="rgb(0,0,0)" stroke-width="1" stroke-opacity="1" points="52.600000,149.750000 59.000000,149.750000"/>
	<text style="shape-rendering:crispEdges" x="51" y="149.75" fill="rgb(0,0,0)" dominant-baseline="central" font-size="11" font-family="Arial" text-anchor="end">7.35</text>
	<polyline style="shape-rendering:crispEdges" fill="none" stroke="rgb(0,0,0)" stroke-width="1" stroke-opacity="1" points="52.600000,105.500000 59.000000,105.500000"/>
	<text style="shape-rendering:crispEdges" x="51" y="105.5" fill="rgb(0,0,0)" dominant-baseline="central" font-size="11" font-family="Arial" text-anchor="end">7.40</text>
	<polyline style="shape-rendering:crispEdges" fill="none" stroke="rgb(0,0,0)" stroke-width="1" stroke-opacity="1" points="52.600000,61.250000 59.000000,61.250000"/>
	<text style="shape-rendering:crispEdges" x="51" y="61.25" fill="rgb(0,0,0)" dominant-baseline="central" font-size="11" font-family="Arial" text-anchor="end">7.45</text>
	<polyline style="shape-rendering:crispEdges" fill="none" stroke="rgb(0,0,0)" stroke-width="1" stroke-opacity="1" points="52.600000,17.000000 59.000000,17.000000"/>
	<text style="shape-rendering:crispEdges" x="51" y="17" fill="rgb(0,0,0)" dominant-baseline="central" font-size="11" font-family="Arial" text-anchor="end">7.50</text>
	<text style="shape-rendering:crispEdges" x="310" y="404.5" fill="rgb(0,0,0)" dominant-baseline="central" font-size="11" font-family="Arial" text-anchor="middle">Dilution factor</text>
	<clipPath id="clipArea1">
		<rect x="59" y="17" width="502" height="354">
		</rect>
	</clipPath>
	<polyline fill="none" stroke="rgb(0,0,0)" stroke-width="2" stroke-opacity="1" clip-path="url(#clipArea1)" points="59.000000,345.839548 60.338649,344.459183 61.677339,343.084304 63.015988,341.714489 64.354678,340.350582 65.693327,338.991739 67.032016,337.637960 68.370666,336.289668 69.709315,334.946439 71.048004,333.608696 72.386654,332.275595 73.725343,330.947980 75.063993,329.625430 76.402682,328.307521 77.741331,326.995098 79.079981,325.687317 80.418670,324.384179 81.757320,323.086526 83.096009,321.793093 84.434658,320.504725 85.773348,319.220998 87.111997,317.942335 88.450686,316.667892 89.789336,315.398092 91.127985,314.133355 92.466675,312.872838 93.805324,311.616964 95.144013,310.365731 96.482663,309.118719 97.821352,307.876348 99.160002,306.638197 100.498651,305.404689 101.837340,304.175400 103.175990,302.950332 104.514679,301.729905 105.853329,300.513277 107.192018,299.301290 108.530667,298.093102 109.869317,296.889555 111.208006,295.689806 112.546655,294.494278 113.885345,293.302969 115.223994,292.115459 116.562684,290.932168 117.901333,289.752676 119.239982,288.577404 120.578672,287.405929 121.917321,286.238253 123.256011,285.074796 124.594660,283.915138 125.933349,282.759277 127.271999,281.607215 128.610648,280.458951 129.949337,279.314062 131.287987,278.173394 132.626676,277.036523 133.965326,275.903029 135.304015,274.773333 136.642664,273.647434 137.981314,272.524912 139.320003,271.405766 140.658653,270.290839 141.997342,269.178867 143.335991,268.070693 144.674681,266.966316 146.013330,265.864894 147.352019,264.767270 148.690669,263.673021 150.029318,262.582149 151.368008,261.494653 152.706657,260.410532 154.045346,259.329788 155.383996,258.252420 156.722685,257.178428 158.061335,256.107389 159.399984,255.039727 160.738673,253.975863 162.077323,252.914531 163.416012,251.856997 164.754662,250.801994 166.093351,249.750790 167.432000,248.702540 168.770650,247.657244 170.109339,246.615324 171.447989,245.576357 172.786678,244.540345 174.125327,243.507287 175.464017,242.477605 176.802666,241.450877 178.141315,240.427103 179.480005,239.406282 180.818654,238.388838 182.157344,237.373926 183.495993,236.361968 184.834682,235.352964 186.173332,234.346914 187.511981,233.343818 188.850670,232.343254 190.189320,231.346066 191.528009,230.351409 192.866659,229.359285 194.205348,228.370537 195.543997,227.384321 196.882647,226.400637 198.221336,225.419907 199.559986,224.442131 200.898675,223.466887 202.237324,222.494597 203.576014,221.524417 204.914663,220.557613 206.253352,219.592919 207.592002,218.631179 208.930651,217.671971 210.269341,216.715295 211.607990,215.761573 212.946679,214.809961 214.285329,213.861303 215.624018,212.915177 216.962668,211.971583 218.301317,211.030099 219.640006,210.091569 220.978656,209.155571 222.317345,208.222105 223.655995,207.290749 224.994684,206.362347 226.333333,205.436055 227.671983,204.512295 229.010672,203.591067 230.349322,202.671949 231.688011,201.755363 233.026660,200.841310 234.365350,199.929788 235.703999,199.020376 237.042648,198.113074 238.381338,197.208726 239.719987,196.306066 241.058677,195.406360 242.397326,194.508342 243.736015,193.612856 245.074665,192.719903 246.413314,191.829059 247.752004,190.940325 249.090653,190.054123 250.429342,189.170031 251.767992,188.288049 253.106681,187.408177 254.445330,186.530838 255.784020,185.655608 257.122669,184.782488 258.461319,183.911478 259.800008,183.042578 261.138657,182.175788 262.477347,181.311531 263.815996,180.448961 265.154685,179.588923 266.493335,178.730573 267.831984,177.874333 269.170674,177.020626 270.509323,176.168606 271.848012,175.318696 273.186662,174.470896 274.525351,173.625206 275.864001,172.781627 277.202650,171.939735 278.541339,171.099953 279.879989,170.262281 281.218678,169.426720 282.557328,168.593268 283.896017,167.761504 285.234666,166.931428 286.573316,166.103885 287.912005,165.278029 289.250655,164.453861 290.589344,163.632226 291.927993,162.811856 293.266683,161.994018 294.605332,161.177446 295.943981,160.363407 297.282671,159.550633 298.621320,158.740391 299.960010,157.931416 301.298659,157.124550 302.637348,156.319794 303.975998,155.516304 305.314647,154.714925 306.653337,153.915655 307.991986,153.118073 309.330675,152.322180 310.669325,151.527974 312.008014,150.735456 313.346663,149.945049 314.685353,149.156329 316.024002,148.369298 317.362652,147.583954 318.701341,146.800720 320.039990,146.018753 321.378680,145.238895 322.717329,144.460725 324.056019,143.684244 325.394668,142.909450 326.733317,142.136344 328.072007,141.364927 329.410656,140.595197 330.749345,139.827156 332.087995,139.060802 333.426684,138.296136 334.765334,137.532737 336.103983,136.771447 337.442672,136.011846 338.781322,135.253510 340.120011,134.497284 341.458661,133.742325 342.797350,132.989053 344.135999,132.237470 345.474649,131.487574 346.813338,130.738945 348.151988,129.992425 349.490677,129.247171 350.829326,128.503184 352.168016,127.761306 353.506665,127.020695 354.845315,126.281771 356.184004,125.544114 357.522653,124.808566 358.861343,124.073863 360.199992,123.341269 361.538681,122.609941 362.877331,121.880302 364.215980,121.151928 365.554670,120.425243 366.893319,119.699823 368.232008,118.976092 369.570658,118.253626 370.909347,117.532849 372.247996,116.813759 373.586686,116.095936 374.925335,115.379378 376.263985,114.664509 377.602674,113.950905 378.941323,113.238990 380.280013,112.528340 381.618662,111.818957 382.957352,111.111261 384.296001,110.404832 385.634650,109.700090 386.973340,108.996615 388.311989,108.294405 389.650678,107.593884 390.989328,106.894629 392.328017,106.196639 393.666667,105.499916 395.005316,104.804880 396.343966,104.111111 397.682695,103.418607 399.021344,102.727370 400.359994,102.037820 401.698643,101.349537 403.037372,100.662519 404.376022,99.976768 405.714671,99.292283 407.053321,98.609485 408.391970,97.927532 409.730699,97.247266 411.069349,96.568267 412.407998,95.890533 413.746648,95.214066 415.085297,94.538865 416.424026,93.864929 417.762676,93.192260 419.101325,92.520856 420.439974,91.851141 421.778704,91.182270 423.117353,90.514664 424.456003,89.848325 425.794652,89.183673 427.133301,88.519866 428.472031,87.857325 429.810680,87.196049 431.149330,86.536040 432.487979,85.877296 433.826628,85.219819 435.165358,84.563608 436.504007,83.908662 437.842656,83.254561 439.181306,82.602148 440.520035,81.950578 441.858685,81.300275 443.197334,80.651237 444.535983,80.003466 445.874633,79.356961 447.213362,78.711299 448.552011,78.066904 449.890661,77.424197 451.229310,76.781911 452.568040,76.141314 453.906689,75.501561 455.245338,74.863073 456.583988,74.225852 457.922637,73.589897 459.261367,72.954785 460.600016,72.320940 461.938665,71.688361 463.277315,71.056625 464.615964,70.426156 465.954693,69.796953 467.293343,69.168593 468.631992,68.541500 469.970642,67.915673 471.309371,67.290689 472.648020,66.666972 473.986670,66.044099 475.325319,65.422914 476.663969,64.802150 478.002698,64.183075 479.341347,63.564422 480.679997,62.947456 482.018646,62.331335 483.357296,61.716058 484.696025,61.102046 486.034674,60.489301 487.373324,59.877400 488.711973,59.266765 490.050702,58.656973 491.389352,58.048448 492.728001,57.440767 494.066651,56.833930 495.405300,56.228358 496.744029,55.624053 498.082679,55.020592 499.421328,54.417974 500.759978,53.816623 502.098627,53.216116 503.437356,52.616875 504.776006,52.018477 506.114655,51.421346 507.453305,50.825059 508.792034,50.229616 510.130683,49.635016 511.469333,49.042105 512.807982,48.449616 514.146632,47.858393 515.485361,47.268013 516.824010,46.678478 518.162660,46.090209 519.501309,45.502784 520.840038,44.916203 522.178688,44.330887 523.517337,43.746416 524.855987,43.162789 526.194636,42.580428 527.533365,41.998910 528.872015,41.418237 530.210664,40.838408 531.549314,40.259845 532.887963,39.682126 534.226692,39.105250 535.565342,38.529219 536.903991,37.954454 538.242640,37.380533 539.581370,36.807456 540.920019,36.235222 542.258669,35.663833 543.597318,35.093710 544.935967,34.524431 546.274697,33.955574 547.613346,33.388404 548.951996,32.821657 550.290645,32.255754 551.629294,31.691117 552.968024,31.126902 554.306673,30.563952 555.645322,30.001847 556.983972,29.440586 558.322701,28.880591 559.661351,28.321018 561.000000,27.762289 562.338649,27.204825"/>
	<clipPath id="clipArea2">
		<rect x="59" y="17" width="502" height="354">
		</rect>
	</clipPath>
	<polyline fill="none" stroke="rgb(0,0,0)" stroke-dasharray="4,2" stroke-width="2" stroke-opacity="1" clip-path="url(#clipArea2)" points="59.000000,105.499916 60.338649,105.499916 61.677339,105.499916 63.015988,105.499916 64.354678,105.499916 65.693327,105.499916 67.032016,105.499916 68.370666,105.499916 69.709315,105.499916 71.048004,105.499916 72.386654,105.499916 73.725343,105.499916 75.063993,105.499916 76.402682,105.499916 77.741331,105.499916 79.079981,105.499916 80.418670,105.499916 81.757320,105.499916 83.096009,105.499916 84.434658,105.499916 85.773348,105.499916 87.111997,105.499916 88.450686,105.499916 89.789336,105.499916 91.127985,105.499916 92.466675,105.499916 93.805324,105.499916 95.144013,105.499916 96.482663,105.499916 97.821352,105.499916 99.160002,105.499916 100.498651,105.499916 101.837340,105.499916 103.175990,105.499916 104.514679,105.499916 105.853329,105.499916 107.192018,105.499916 108.530667,105.499916 109.869317,105.499916 111.208006,105.499916 112.546655,105.499916 113.885345,105.499916 115.223994,105.499916 116.562684,105.499916 117.901333,105.499916 119.239982,105.499916 120.578672,105.499916 121.917321,105.499916 123.256011,105.499916 124.594660,105.499916 125.933349,105.499916 127.271999,105.499916 128.610648,105.499916 129.949337,105.499916 131.287987,105.499916 132.626676,105.499916 133.965326,105.499916 135.304015,105.499916 136.642664,105.499916 137.981314,105.499916 139.320003,105.499916 140.658653,105.499916 141.997342,105.499916 143.335991,105.499916 144.674681,105.499916 146.013330,105.499916 147.352019,105.499916 148.690669,105.499916 150.029318,105.499916 151.368008,105.499916 152.706657,105.499916 154.045346,105.499916 155.383996,105.499916 156.722685,105.499916 158.061335,105.499916 159.399984,105.499916 160.738673,105.499916 162.077323,105.499916 163.416012,105.499916 164.754662,105.499916 166.093351,105.499916 167.432000,105.499916 168.770650,105.499916 170.109339,105.499916 171.447989,105.499916 172.786678,105.499916 174.125327,105.499916 175.464017,105.499916 176.802666,105.499916 178.141315,105.499916 179.480005,105.499916 180.818654,105.499916 182.157344,105.499916 183.495993,105.499916 184.834682,105.499916 186.173332,105.499916 187.511981,105.499916 188.850670,105.499916 190.189320,105.499916 191.528009,105.499916 192.866659,105.499916 194.205348,105.499916 195.543997,105.499916 196.882647,105.499916 198.221336,105.499916 199.559986,105.499916 200.898675,105.499916 202.237324,105.499916 203.576014,105.499916 204.914663,105.499916 206.253352,105.499916 207.592002,105.499916 208.930651,105.499916 210.269341,105.499916 211.607990,105.499916 212.946679,105.499916 214.285329,105.499916 215.624018,105.499916 216.962668,105.499916 218.301317,105.499916 219.640006,105.499916 220.978656,105.499916 222.317345,105.499916 223.655995,105.499916 224.994684,105.499916 226.333333,105.499916 227.671983,105.499916 229.010672,105.499916 230.349322,105.499916 231.688011,105.499916 233.026660,105.499916 234.365350,105.499916 235.703999,105.499916 237.042648,105.499916 238.381338,105.499916 239.719987,105.499916 241.058677,105.499916 242.397326,105.499916 243.736015,105.499916 245.074665,105.499916 246.413314,105.499916 247.752004,105.499916 249.090653,105.499916 250.429342,105.499916 251.767992,105.499916 253.106681,105.499916 254.445330,105.499916 255.784020,105.499916 257.122669,105.499916 258.461319,105.499916 259.800008,105.499916 261.138657,105.499916 262.477347,105.499916 263.815996,105.499916 265.154685,105.499916 266.493335,105.499916 267.831984,105.499916 269.170674,105.499916 270.509323,105.499916 271.848012,105.499916 273.186662,105.499916 274.525351,105.499916 275.864001,105.499916 277.202650,105.499916 278.541339,105.499916 279.879989,105.499916 281.218678,105.499916 282.557328,105.499916 283.896017,105.499916 285.234666,105.499916 286.573316,105.499916 287.912005,105.499916 289.250655,105.499916 290.589344,105.499916 291.927993,105.499916 293.266683,105.499916 294.605332,105.499916 295.943981,105.499916 297.282671,105.499916 298.621320,105.499916 299.960010,105.499916 301.298659,105.499916 302.637348,105.499916 303.975998,105.499916 305.314647,105.499916 306.653337,105.499916 307.991986,105.499916 309.330675,105.499916 310.669325,105.499916 312.008014,105.499916 313.346663,105.499916 314.685353,105.499916 316.024002,105.499916 317.362652,105.499916 318.701341,105.499916 320.039990,105.499916 321.378680,105.499916 322.717329,105.499916 324.056019,105.499916 325.394668,105.499916 326.733317,105.499916 328.072007,105.499916 329.410656,105.499916 330.749345,105.499916 332.087995,105.499916 333.426684,105.499916 334.765334,105.499916 336.103983,105.499916 337.442672,105.499916 338.781322,105.499916 340.120011,105.499916 341.458661,105.499916 342.797350,105.499916 344.135999,105.499916 345.474649,105.499916 346.813338,105.499916 348.151988,105.499916 349.490677,105.499916 350.829326,105.499916 352.168016,105.499916 353.506665,105.499916 354.845315,105.499916 356.184004,105.499916 357.522653,105.499916 358.861343,105.499916 360.199992,105.499916 361.538681,105.499916 362.877331,105.499916 364.215980,105.499916 365.554670,105.499916 366.893319,105.499916 368.232008,105.499916 369.570658,105.499916 370.909347,105.499916 372.247996,105.499916 373.586686,105.499916 374.925335,105.499916 376.263985,105.499916 377.602674,105.499916 378.941323,105.499916 380.280013,105.499916 381.618662,105.499916 382.957352,105.499916 384.296001,105.499916 385.634650,105.499916 386.973340,105.499916 388.311989,105.499916 389.650678,105.499916 390.989328,105.499916 392.328017,105.499916 393.666667,105.499916 395.005316,105.499916 396.343966,105.499916 397.682695,105.499916 399.021344,105.499916 400.359994,105.499916 401.698643,105.499916 403.037372,105.499916 404.376022,105.499916 405.714671,105.499916 407.053321,105.499916 408.391970,105.499916 409.730699,105.499916 411.069349,105.499916 412.407998,105.499916 413.746648,105.499916 415.085297,105.499916 416.424026,105.499916 417.762676,105.499916 419.101325,105.499916 420.439974,105.499916 421.778704,105.499916 423.117353,105.499916 424.456003,105.499916 425.794652,105.499916 427.133301,105.499916 428.472031,105.499916 429.810680,105.499916 431.149330,105.499916 432.487979,105.499916 433.826628,105.499916 435.165358,105.499916 436.504007,105.499916 437.842656,105.499916 439.181306,105.499916 440.520035,105.499916 441.858685,105.499916 443.197334,105.499916 444.535983,105.499916 445.874633,105.499916 447.213362,105.499916 448.552011,105.499916 449.890661,105.499916 451.229310,105.499916 452.568040,105.499916 453.906689,105.499916 455.245338,105.499916 456.583988,105.499916 457.922637,105.499916 459.261367,105.499916 460.600016,105.499916 461.938665,105.499916 463.277315,105.499916 464.615964,105.499916 465.954693,105.499916 467.293343,105.499916 468.631992,105.499916 469.970642,105.499916 471.309371,105.499916 472.648020,105.499916 473.986670,105.499916 475.325319,105.499916 476.663969,105.499916 478.002698,105.499916 479.341347,105.499916 480.679997,105.499916 482.018646,105.499916 483.357296,105.499916 484.696025,105.499916 486.034674,105.499916 487.373324,105.499916 488.711973,105.499916 490.050702,105.499916 491.389352,105.499916 492.728001,105.499916 494.066651,105.499916 495.405300,105.499916 496.744029,105.499916 498.082679,105.499916 499.421328,105.499916 500.759978,105.499916 502.098627,105.499916 503.437356,105.499916 504.776006,105.499916 506.114655,105.499916 507.453305,105.499916 508.792034,105.499916 510.130683,105.499916 511.469333,105.499916 512.807982,105.499916 514.146632,105.499916 515.485361,105.499916 516.824010,105.499916 518.162660,105.499916 519.501309,105.499916 520.840038,105.499916 522.178688,105.499916 523.517337,105.499916 524.855987,105.499916 526.194636,105.499916 527.533365,105.499916 528.872015,105.499916 530.210664,105.499916 531.549314,105.499916 532.887963,105.499916 534.226692,105.499916 535.565342,105.499916 536.903991,105.499916 538.242640,105.499916 539.581370,105.499916 540.920019,105.499916 542.258669,105.499916 543.597318,105.499916 544.935967,105.499916 546.274697,105.499916 547.613346,105.499916 548.951996,105.499916 550.290645,105.499916 551.629294,105.499916 552.968024,105.499916 554.306673,105.499916 555.645322,105.499916 556.983972,105.499916 558.322701,105.499916 559.661351,105.499916 561.000000,105.499916 562.338649,105.499916"/>
	<clipPath id="clipArea3">
		<rect x="59" y="17" width="502" height="354">
		</rect>
	</clipPath>
	<polyline fill="none" stroke="rgb(238,46,47)" stroke-dasharray="4,2" stroke-width="2" stroke-opacity="1" clip-path="url(#clipArea3)" points="59.000000,128.985953 60.338649,128.936157 61.677339,128.886361 63.015988,128.835721 64.354678,128.784658 65.693327,128.733174 67.032016,128.681268 68.370666,128.628518 69.709315,128.575768 71.048004,128.522596 72.386654,128.468580 73.725343,128.414142 75.063993,128.359704 76.402682,128.304421 77.741331,128.248717 79.079981,128.192591 80.418670,128.136043 81.757320,128.079073 83.096009,128.021681 84.434658,127.963867 85.773348,127.905209 87.111997,127.846550 88.450686,127.787470 89.789336,127.727968 91.127985,127.667622 92.466675,127.607276 93.805324,127.546508 95.144013,127.485318 96.482663,127.423284 97.821352,127.361249 99.160002,127.298793 100.498651,127.235915 101.837340,127.172615 103.175990,127.108471 104.514679,127.044327 105.853329,126.979761 107.192018,126.914773 108.530667,126.849362 109.869317,126.783530 111.208006,126.717276 112.546655,126.651022 113.885345,126.583924 115.223994,126.516404 116.562684,126.448462 117.901333,126.380519 119.239982,126.311733 120.578672,126.242947 121.917321,126.173739 123.256011,126.104109 124.594660,126.034057 125.933349,125.963583 127.271999,125.892686 128.610648,125.821368 129.949337,125.749628 131.287987,125.677888 132.626676,125.605304 133.965326,125.532720 135.304015,125.459713 136.642664,125.386285 137.981314,125.312435 139.320003,125.238163 140.658653,125.163891 141.997342,125.088775 143.335991,125.013659 144.674681,124.938120 146.013330,124.861738 147.352019,124.785778 148.690669,124.708974 150.029318,124.631748 151.368008,124.554522 152.706657,124.476873 154.045346,124.398803 155.383996,124.320311 156.722685,124.241397 158.061335,124.162061 159.399984,124.082725 160.738673,124.002966 162.077323,123.922786 163.416012,123.842184 164.754662,123.761582 166.093351,123.680136 167.432000,123.598690 168.770650,123.516821 170.109339,123.434531 171.447989,123.352241 172.786678,123.269107 174.125327,123.185973 175.464017,123.102417 176.802666,123.018438 178.141315,122.934460 179.480005,122.850060 180.818654,122.764816 182.157344,122.679994 183.495993,122.594327 184.834682,122.508661 186.173332,122.422151 187.511981,122.335641 188.850670,122.249131 190.189320,122.161777 191.528009,122.074422 192.866659,121.986646 194.205348,121.898448 195.543997,121.810250 196.882647,121.721630 198.221336,121.632587 199.559986,121.543123 200.898675,121.453237 202.237324,121.363351 203.576014,121.273043 204.914663,121.182312 206.253352,121.091582 207.592002,121.000430 208.930651,120.908856 210.269341,120.816860 211.607990,120.724864 212.946679,120.632023 214.285329,120.539605 215.624018,120.446343 216.962668,120.353081 218.301317,120.259397 219.640006,120.165290 220.978656,120.070762 222.317345,119.976234 223.655995,119.881284 224.994684,119.785912 226.333333,119.690539 227.671983,119.594745 229.010672,119.498529 230.349322,119.402313 231.688011,119.305253 233.026660,119.208192 234.365350,119.111132 235.703999,119.013228 237.042648,118.915324 238.381338,118.817420 239.719987,118.718671 241.058677,118.619923 242.397326,118.520753 243.736015,118.421161 245.074665,118.321568 246.413314,118.221554 247.752004,118.121540 249.090653,118.020682 250.429342,117.919824 251.767992,117.818543 253.106681,117.717263 254.445330,117.615561 255.784020,117.513437 257.122669,117.410891 258.461319,117.308344 259.800008,117.205376 261.138657,117.102408 262.477347,116.998596 263.815996,116.894783 265.154685,116.790971 266.493335,116.686315 267.831984,116.581659 269.170674,116.477003 270.509323,116.371502 271.848012,116.266002 273.186662,116.160502 274.525351,116.054158 275.864001,115.947814 277.202650,115.841047 278.541339,115.734281 279.879989,115.627093 281.218678,115.519483 282.557328,115.411450 283.896017,115.303418 285.234666,115.194964 286.573316,115.086510 287.912005,114.977633 289.250655,114.868335 290.589344,114.758615 291.927993,114.648895 293.266683,114.538753 294.605332,114.428610 295.943981,114.317624 297.282671,114.207060 298.621320,114.095652 299.960010,113.984243 301.298659,113.872413 302.637348,113.760161 303.975998,113.647909 305.314647,113.535234 306.653337,113.422560 307.991986,113.309042 309.330675,113.195946 310.669325,113.082006 312.008014,112.968065 313.346663,112.853703 314.685353,112.738919 316.024002,112.624135 317.362652,112.508928 318.701341,112.393722 320.039990,112.277672 321.378680,112.161622 322.717329,112.045571 324.056019,111.929099 325.394668,111.812205 326.733317,111.694889 328.072007,111.577572 329.410656,111.459834 330.749345,111.342096 332.087995,111.223936 333.426684,111.105353 334.765334,110.986349 336.103983,110.867345 337.442672,110.747919 338.781322,110.628492 340.120011,110.508222 341.458661,110.388374 342.797350,110.267682 344.135999,110.146989 345.474649,110.025875 346.813338,109.904761 348.151988,109.782803 349.490677,109.661266 350.829326,109.538886 352.168016,109.416506 353.506665,109.293704 354.845315,109.170901 356.184004,109.047677 357.522653,108.924031 358.861343,108.799963 360.199992,108.675894 361.538681,108.551826 362.877331,108.426914 364.215980,108.302001 365.554670,108.176667 366.893319,108.051333 368.232008,107.925577 369.570658,107.799398 370.909347,107.673220 372.247996,107.546620 373.586686,107.419598 374.925335,107.292153 376.263985,107.164709 377.602674,107.037265 378.941323,106.908977 380.280013,106.780688 381.618662,106.651978 382.957352,106.523268 384.296001,106.394135 385.634650,106.264581 386.973340,106.135027 388.311989,106.005051 389.650678,105.874652 390.989328,105.743832 392.328017,105.613012 393.666667,105.482192 395.005316,105.350527 396.343966,105.218863 397.682695,105.086777 399.021344,104.954690 400.359994,104.822182 401.698643,104.689252 403.037372,104.556322 404.376022,104.422547 405.714671,104.289195 407.053321,104.154999 408.391970,104.020802 409.730699,103.886184 411.069349,103.751566 412.407998,103.616526 413.746648,103.481063 415.085297,103.345179 416.424026,103.209295 417.762676,103.072989 419.101325,102.936682 420.439974,102.799954 421.778704,102.662804 423.117353,102.525231 424.456003,102.387659 425.794652,102.249665 427.133301,102.111670 428.472031,101.972832 429.810680,101.833994 431.149330,101.695156 432.487979,101.555895 433.826628,101.416213 435.165358,101.276109 436.504007,101.136004 437.842656,100.995478 439.181306,100.854530 440.520035,100.713582 441.858685,100.572211 443.197334,100.430419 444.535983,100.288205 445.874633,100.145990 447.213362,100.003354 448.552011,99.860718 449.890661,99.717659 451.229310,99.574179 452.568040,99.430277 453.906689,99.286375 455.245338,99.142050 456.583988,98.997726 457.922637,98.852558 459.261367,98.707811 460.600016,98.562221 461.938665,98.416631 463.277315,98.270196 464.615964,98.124184 465.954693,97.977328 467.293343,97.830472 468.631992,97.683193 469.970642,97.535915 471.309371,97.388215 472.648020,97.240092 473.986670,97.091548 475.325319,96.943004 476.663969,96.794037 478.002698,96.644649 479.341347,96.495261 480.679997,96.345450 482.018646,96.195218 483.357296,96.044986 484.696025,95.894331 486.034674,95.743255 487.373324,95.591757 488.711973,95.440259 490.050702,95.288338 491.389352,95.136418 492.728001,94.983654 494.066651,94.830889 495.405300,94.678125 496.744029,94.524517 498.082679,94.370908 499.421328,94.216878 500.759978,94.062848 502.098627,93.907973 503.437356,93.753099 504.776006,93.598225 506.114655,93.442506 507.453305,93.286788 508.792034,93.131070 510.130683,92.974507 511.469333,92.817945 512.807982,92.660961 514.146632,92.503976 515.485361,92.346148 516.824010,92.188320 518.162660,92.030491 519.501309,91.871819 520.840038,91.713147 522.178688,91.554052 523.517337,91.394958 524.855987,91.235442 526.194636,91.075503 527.533365,90.915143 528.872015,90.754783 530.210664,90.594000 531.549314,90.432796 532.887963,90.271170 534.226692,90.109543 535.565342,89.947495 536.903991,89.785447 538.242640,89.622554 539.581370,89.459662 540.920019,89.296770 542.258669,89.133033 543.597318,88.969297 544.935967,88.805139 546.274697,88.640558 547.613346,88.475978 548.951996,88.310976 550.290645,88.145551 551.629294,87.980127 552.968024,87.814281 554.306673,87.648012 555.645322,87.481322 556.983972,87.314631 558.322701,87.147519 559.661351,86.979985 561.000000,86.812450 562.338649,86.644494"/>
	<clipPath id="clipArea4">
		<rect x="59" y="17" width="502" height="354">
		</rect>
	</clipPath>
	<polyline fill="none" stroke="rgb(238,46,47)" stroke-width="2" stroke-opacity="1" clip-path="url(#clipArea4)" points="59.000000,312.518780 60.338649,311.378955 61.677339,310.243351 63.015988,309.111967 64.354678,307.984380 65.693327,306.861436 67.032016,305.742712 68.370666,304.627785 69.709315,303.516657 71.048004,302.410171 72.386654,301.307060 73.725343,300.208170 75.063993,299.113500 76.402682,298.022205 77.741331,296.935131 79.079981,295.851433 80.418670,294.771955 81.757320,293.695852 83.096009,292.623970 84.434658,291.555464 85.773348,290.490334 87.111997,289.429423 88.450686,288.371467 89.789336,287.317731 91.127985,286.266949 92.466675,285.219965 93.805324,284.176356 95.144013,283.136546 96.482663,282.099690 97.821352,281.066210 99.160002,280.036528 100.498651,279.009799 101.837340,277.986447 103.175990,276.966471 104.514679,275.949871 105.853329,274.936225 107.192018,273.925955 108.530667,272.919061 109.869317,271.915121 111.208006,270.914135 112.546655,269.916524 113.885345,268.921868 115.223994,267.930166 116.562684,266.941840 117.901333,265.956468 119.239982,264.973628 120.578672,263.994164 121.917321,263.017654 123.256011,262.044098 124.594660,261.073074 125.933349,260.105426 127.271999,259.140310 128.610648,258.178148 129.949337,257.218940 131.287987,256.262264 132.626676,255.308542 133.965326,254.357352 135.304015,253.409116 136.642664,252.463412 137.981314,251.520662 139.320003,250.580444 140.658653,249.643180 141.997342,248.708026 143.335991,247.775826 144.674681,246.846158 146.013330,245.919022 147.352019,244.994418 148.690669,244.072768 150.029318,243.153228 151.368008,242.236220 152.706657,241.321744 154.045346,240.409801 155.383996,239.500389 156.722685,238.593509 158.061335,237.688739 159.399984,236.786501 160.738673,235.886795 162.077323,234.989621 163.416012,234.094557 164.754662,233.201603 166.093351,232.311182 167.432000,231.423292 168.770650,230.537512 170.109339,229.654264 171.447989,228.773126 172.786678,227.894098 174.125327,227.017180 175.464017,226.142795 176.802666,225.270519 178.141315,224.400775 179.480005,223.532719 180.818654,222.667195 182.157344,221.803360 183.495993,220.942056 184.834682,220.082862 186.173332,219.225778 187.511981,218.370804 188.850670,217.517941 190.189320,216.666765 191.528009,215.818121 192.866659,214.971165 194.205348,214.126741 195.543997,213.284006 196.882647,212.443380 198.221336,211.604442 199.559986,210.767614 200.898675,209.932897 202.237324,209.100289 203.576014,208.269369 204.914663,207.440559 206.253352,206.613438 207.592002,205.788426 208.930651,204.965524 210.269341,204.144310 211.607990,203.324785 212.946679,202.507369 214.285329,201.691641 215.624018,200.878024 216.962668,200.066094 218.301317,199.255852 219.640006,198.447299 220.978656,197.640855 222.317345,196.836099 223.655995,196.033031 224.994684,195.232074 226.333333,194.432804 227.671983,193.634800 229.010672,192.838907 230.349322,192.044701 231.688011,191.252183 233.026660,190.461354 234.365350,189.672212 235.703999,188.884758 237.042648,188.099415 238.381338,187.315337 239.719987,186.532948 241.058677,185.751824 242.397326,184.972810 243.736015,184.195485 245.074665,183.419425 246.413314,182.645053 247.752004,181.872370 249.090653,181.101374 250.429342,180.332067 251.767992,179.564025 253.106681,178.797671 254.445330,178.033006 255.784020,177.269606 257.122669,176.507895 258.461319,175.747871 259.800008,174.989113 261.138657,174.232044 262.477347,173.476240 263.815996,172.722125 265.154685,171.969275 266.493335,171.218113 267.831984,170.468218 269.170674,169.720010 270.509323,168.973069 271.848012,168.227815 273.186662,167.483828 274.525351,166.741528 275.864001,166.000072 277.202650,165.260727 278.541339,164.522225 279.879989,163.785412 281.218678,163.049864 282.557328,162.315583 283.896017,161.582989 285.234666,160.851240 286.573316,160.121178 287.912005,159.392805 289.250655,158.665275 290.589344,157.939012 291.927993,157.214436 293.266683,156.491127 294.605332,155.769083 295.943981,155.048306 297.282671,154.328794 298.621320,153.610548 299.960010,152.893569 301.298659,152.177855 302.637348,151.463408 303.975998,150.750226 305.314647,150.038311 306.653337,149.327662 307.991986,148.618278 309.330675,147.909739 310.669325,147.202887 312.008014,146.497302 313.346663,145.792560 314.685353,145.089085 316.024002,144.386875 317.362652,143.685932 318.701341,142.986254 320.039990,142.287421 321.378680,141.590275 322.717329,140.893974 324.056019,140.198516 325.394668,139.504747 326.733317,138.811821 328.072007,138.120162 329.410656,137.429347 330.749345,136.739797 332.087995,136.051514 333.426684,135.364074 334.765334,134.677901 336.103983,133.992993 337.442672,133.308930 338.781322,132.626132 340.120011,131.944179 341.458661,131.263492 342.797350,130.583648 344.135999,129.905071 345.474649,129.227337 346.813338,128.550870 348.151988,127.875247 349.490677,127.200889 350.829326,126.527376 352.168016,125.854706 353.506665,125.183303 354.845315,124.513165 356.184004,123.843450 357.522653,123.175001 358.861343,122.507817 360.199992,121.841056 361.538681,121.175560 362.877331,120.511331 364.215980,119.847524 365.554670,119.184982 366.893319,118.523285 368.232008,117.862854 369.570658,117.202844 370.909347,116.544101 372.247996,115.886201 373.586686,115.229146 374.925335,114.573357 376.263985,113.917989 377.602674,113.263888 378.941323,112.610631 380.280013,111.958217 381.618662,111.306648 382.957352,110.655922 384.296001,110.006041 385.634650,109.357426 386.973340,108.709232 388.311989,108.062305 389.650678,107.415800 390.989328,106.770560 392.328017,106.125743 393.666667,105.482192 395.005316,104.839062 396.343966,104.197199 397.682695,103.555758 399.021344,102.915160 400.359994,102.275829 401.698643,101.636919 403.037372,100.998854 404.376022,100.361633 405.714671,99.725255 407.053321,99.089722 408.391970,98.455033 409.730699,97.820765 411.069349,97.187764 412.407998,96.555185 413.746648,95.923450 415.085297,95.292558 416.424026,94.662089 417.762676,94.032886 419.101325,93.404104 420.439974,92.776167 421.778704,92.148652 423.117353,91.522402 424.456003,90.896575 425.794652,90.271592 427.133301,89.647030 428.472031,89.023313 429.810680,88.400440 431.149330,87.778410 432.487979,87.156803 433.826628,86.536040 435.165358,85.915699 436.504007,85.296201 437.842656,84.677548 439.181306,84.059317 440.520035,83.441929 441.858685,82.825386 443.197334,82.209265 444.535983,81.593565 445.874633,80.978710 447.213362,80.364699 448.552011,79.751110 449.890661,79.138364 451.229310,78.526041 452.568040,77.914140 453.906689,77.303504 455.245338,76.692869 456.583988,76.083078 457.922637,75.474131 459.261367,74.865605 460.600016,74.257502 461.938665,73.650243 463.277315,73.043406 464.615964,72.437412 465.954693,71.831419 467.293343,71.226692 468.631992,70.622386 469.970642,70.018503 471.309371,69.415042 472.648020,68.812425 473.986670,68.210229 475.325319,67.608456 476.663969,67.007527 478.002698,66.407020 479.341347,65.806934 480.679997,65.207693 482.018646,64.608452 483.357296,64.010055 484.696025,63.412501 486.034674,62.814948 487.373324,62.218239 488.711973,61.621952 490.050702,61.026086 491.389352,60.430643 492.728001,59.836044 494.066651,59.241867 495.405300,58.648111 496.744029,58.054778 498.082679,57.461867 499.421328,56.869378 500.759978,56.277732 502.098627,55.686087 503.437356,55.095286 504.776006,54.504907 506.114655,53.914949 507.453305,53.325414 508.792034,52.736301 510.130683,52.147610 511.469333,51.559340 512.807982,50.971915 514.146632,50.384490 515.485361,49.797487 516.824010,49.211328 518.162660,48.625168 519.501309,48.039853 520.840038,47.454538 522.178688,46.869645 523.517337,46.285595 524.855987,45.701546 526.194636,45.117919 527.533365,44.535136 528.872015,43.952353 530.210664,43.369991 531.549314,42.788052 532.887963,42.206535 534.226692,41.625440 535.565342,41.044766 536.903991,40.464515 538.242640,39.884264 539.581370,39.304857 540.920019,38.725450 542.258669,38.146464 543.597318,37.568323 544.935967,36.990182 546.274697,36.412041 547.613346,35.834743 548.951996,35.257446 550.290645,34.680993 551.629294,34.104540 552.968024,33.528509 554.306673,32.952477 555.645322,32.377290 556.983972,31.802103 558.322701,31.227338 559.661351,30.652995 561.000000,30.078651 562.338649,29.505152"/>
</svg>
