<?xml version="1.0" standalone="no"?>
<!DOCTYPE svg PUBLIC "-//W3C//DTD SVG 1.1//EN" "http://www.w3.org/Graphics/SVG/1.1/DTD/svg11.dtd">
<svg width="483" height="300" version="1.1" xmlns="http://www.w3.org/2000/svg" xmlns:xlink="http://www.w3.org/1999/xlink">
	<polyline style="shape-rendering:crispEdges" fill="none" stroke="rgb(229,229,229)" stroke-width="1" stroke-opacity="1" points="59.000000,17.000000 59.000000,275.000000"/>
	<polyline style="shape-rendering:crispEdges" fill="none" stroke="rgb(229,229,229)" stroke-width="1" stroke-opacity="1" points="108.875000,17.000000 108.875000,275.000000"/>
	<polyline style="shape-rendering:crispEdges" fill="none" stroke="rgb(229,229,229)" stroke-width="1" stroke-opacity="1" points="158.750000,17.000000 158.750000,275.000000"/>
	<polyline style="shape-rendering:crispEdges" fill="none" stroke="rgb(229,229,229)" stroke-width="1" stroke-opacity="1" points="208.625000,17.000000 208.625000,275.000000"/>
	<polyline style="shape-rendering:crispEdges" fill="none" stroke="rgb(229,229,229)" stroke-width="1" stroke-opacity="1" points="258.500000,17.000000 258.500000,275.000000"/>
	<polyline style="shape-rendering:crispEdges" fill="none" stroke="rgb(229,229,229)" stroke-width="1" stroke-opacity="1" points="308.375000,17.000000 308.375000,275.000000"/>
	<polyline style="shape-rendering:crispEdges" fill="none" stroke="rgb(229,229,229)" stroke-width="1" stroke-opacity="1" points="358.250000,17.000000 358.250000,275.000000"/>
	<polyline style="shape-rendering:crispEdges" fill="none" stroke="rgb(229,229,229)" stroke-width="1" stroke-opacity="1" points="408.125000,17.000000 408.125000,275.000000"/>
	<polyline style="shape-rendering:crispEdges" fill="none" stroke="rgb(229,229,229)" stroke-width="1" stroke-opacity="1" points="458.000000,17.000000 458.000000,275.000000"/>
	<polyline style="shape-rendering:crispEdges" fill="none" stroke="rgb(229,229,229)" stroke-width="1" stroke-opacity="1" points="59.000000,275.000000 458.000000,275.000000"/>
	<polyline style="shape-rendering:crispEdges" fill="none" stroke="rgb(229,229,229)" stroke-width="1" stroke-opacity="1" points="59.000000,242.750000 458.000000,242.750000"/>
	<polyline style="shape-rendering:crispEdges" fill="none" stroke="rgb(229,229,229)" stroke-width="1" stroke-opacity="1" points="59.000000,210.500000 458.000000,210.500000"/>
	<polyline style="shape-rendering:crispEdges" fill="none" stroke="rgb(229,229,229)" stroke-width="1" stroke-opacity="1" points="59.000000,178.250000 458.000000,178.250000"/>
	<polyline style="shape-rendering:crispEdges" fill="none" stroke="rgb(229,229,229)" stroke-width="1" stroke-opacity="1" points="59.000000,146.000000 458.000000,146.000000"/>
	<polyline style="shape-rendering:crispEdges" fill="none" stroke="rgb(229,229,229)" stroke-width="1" stroke-opacity="1" points="59.000000,113.750000 458.000000,113.750000"/>
	<polyline style="shape-rendering:crispEdges" fill="none" stroke="rgb(229,229,229)" stroke-width="1" stroke-opacity="1" points="59.000000,81.500000 458.000000,81.500000"/>
	<polyline style="shape-rendering:crispEdges" fill="none" stroke="rgb(229,229,229)" stroke-width="1" stroke-opacity="1" points="59.000000,49.250000 458.000000,49.250000"/>
	<polyline style="shape-rendering:crispEdges" fill="none" stroke="rgb(229,229,229)" stroke-width="1" stroke-opacity="1" points="59.000000,17.000000 458.000000,17.000000"/>
	<polyline style="shape-rendering:crispEdges" fill="none" stroke="rgb(0,0,0)" stroke-width="1" stroke-opacity="1" points="59.000000,275.000000 458.000000,275.000000"/>
	<polyline style="shape-rendering:crispEdges" fill="none" stroke="rgb(0,0,0)" stroke-width="1" stroke-opacity="1" points="458.000000,275.000000 458.000000,17.000000"/>
	<polyline style="shape-rendering:crispEdges" fill="none" stroke="rgb(0,0,0)" stroke-width="1" stroke-opacity="1" points="458.000000,17.000000 59.000000,17.000000"/>
	<polyline style="shape-rendering:crispEdges" fill="none" stroke="rgb(0,0,0)" stroke-width="1" stroke-opacity="1" points="59.000000,17.000000 59.000000,275.000000"/>
	<polyline style="shape-rendering:crispEdges" fill="none" stroke="rgb(0,0,0)" stroke-width="1" stroke-opacity="1" points="59.000000,275.000000 59.000000,279.000000"/>
	<polyline style="shape-rendering:crispEdges" fill="none" stroke="rgb(0,0,0)" stroke-width="1" stroke-opacity="1" points="108.875000,275.000000 108.875000,279.000000"/>
	<polyline style="shape-rendering:crispEdges" fill="none" stroke="rgb(0,0,0)" stroke-width="1" stroke-opacity="1" points="158.750000,275.000000 158.750000,279.000000"/>
	<polyline style="shape-rendering:crispEdges" fill="none" stroke="rgb(0,0,0)" stroke-width="1" stroke-opacity="1" points="208.625000,275.000000 208.625000,279.000000"/>
	<polyline style="shape-rendering:crispEdges" fill="none" stroke="rgb(0,0,0)" stroke-width="1" stroke-opacity="1" points="258.500000,275.000000 258.500000,279.000000"/>
	<polyline style="shape-rendering:crispEdges" fill="none" stroke="rgb(0,0,0)" stroke-width="1" stroke-opacity="1" points="308.375000,275.000000 308.375000,279.000000"/>
	<polyline style="shape-rendering:crispEdges" fill="none" stroke="rgb(0,0,0)" stroke-width="1" stroke-opacity="1" points="358.250000,275.000000 358.250000,279.000000"/>
	<polyline style="shape-rendering:crispEdges" fill="none" stroke="rgb(0,0,0)" stroke-width="1" stroke-opacity="1" points="408.125000,275.000000 408.125000,279.000000"/>
	<polyline style="shape-rendering:crispEdges" fill="none" stroke="rgb(0,0,0)" stroke-width="1" stroke-opacity="1" points="458.000000,275.000000 458.000000,279.000000"/>
	<polyline style="shape-rendering:crispEdges" fill="none" stroke="rgb(0,0,0)" stroke-width="1" stroke-opacity="1" points="59.000000,275.000000 59.000000,281.400000"/>
	<text style="shape-rendering:crispEdges" x="59" y="291.5" fill="rgb(0,0,0)" dominant-baseline="central" font-size="11" font-family="Arial" text-anchor="middle">20</text>
	<polyline style="shape-rendering:crispEdges" fill="none" stroke="rgb(0,0,0)" stroke-width="1" stroke-opacity="1" points="158.750000,275.000000 158.750000,281.400000"/>
	<text style="shape-rendering:crispEdges" x="158.75" y="291.5" fill="rgb(0,0,0)" dominant-baseline="central" font-size="11" font-family="Arial" text-anchor="middle">30</text>
	<polyline style="shape-rendering:crispEdges" fill="none" stroke="rgb(0,0,0)" stroke-width="1" stroke-opacity="1" points="258.500000,275.000000 258.500000,281.400000"/>
	<text style="shape-rendering:crispEdges" x="258.5" y="291.5" fill="rgb(0,0,0)" dominant-baseline="central" font-size="11" font-family="Arial" text-anchor="middle">40</text>
	<polyline style="shape-rendering:crispEdges" fill="none" stroke="rgb(0,0,0)" stroke-width="1" stroke-opacity="1" points="358.250000,275.000000 358.250000,281.400000"/>
	<text style="shape-rendering:crispEdges" x="358.25" y="291.5" fill="rgb(0,0,0)" dominant-baseline="central" font-size="11" font-family="Arial" text-anchor="middle">50</text>
	<polyline style="shape-rendering:crispEdges" fill="none" stroke="rgb(0,0,0)" stroke-width="1" stroke-opacity="1" points="458.000000,275.000000 458.000000,281.400000"/>
	<text style="shape-rendering:crispEdges" x="458" y="291.5" fill="rgb(0,0,0)" dominant-baseline="central" font-size="11" font-family="Arial" text-anchor="middle">60</text>
	<polyline style="shape-rendering:crispEdges" fill="none" stroke="rgb(0,0,0)" stroke-width="1" stroke-opacity="1" points="55.000000,275.000000 59.000000,275.000000"/>
	<polyline style="shape-rendering:crispEdges" fill="none" stroke="rgb(0,0,0)" stroke-width="1" stroke-opacity="1" points="55.000000,242.750000 59.000000,242.750000"/>
	<polyline style="shape-rendering:crispEdges" fill="none" stroke="rgb(0,0,0)" stroke-width="1" stroke-opacity="1" points="55.000000,210.500000 59.000000,210.500000"/>
	<polyline style="shape-rendering:crispEdges" fill="none" stroke="rgb(0,0,0)" stroke-width="1" stroke-opacity="1" points="55.000000,178.250000 59.000000,178.250000"/>
	<polyline style="shape-rendering:crispEdges" fill="none" stroke="rgb(0,0,0)" stroke-width="1" stroke-opacity="1" points="55.000000,146.000000 59.000000,146.000000"/>
	<polyline style="shape-rendering:crispEdges" fill="none" stroke="rgb(0,0,0)" stroke-width="1" stroke-opacity="1" points="55.000000,113.750000 59.000000,113.750000"/>
	<polyline style="shape-rendering:crispEdges" fill="none" stroke="rgb(0,0,0)" stroke-width="1" stroke-opacity="1" points="55.000000,81.500000 59.000000,81.500000"/>
	<polyline style="shape-rendering:crispEdges" fill="none" stroke="rgb(0,0,0)" stroke-width="1" stroke-opacity="1" points="55.000000,49.250000 59.000000,49.250000"/>
	<polyline style="shape-rendering:crispEdges" fill="none" stroke="rgb(0,0,0)" stroke-width="1" stroke-opacity="1" points="55.000000,17.000000 59.000000,17.000000"/>
	<rect style="shape-rendering:crispEdges" fill="none" stroke="none" stroke-dasharray="none" stroke-width="1" stroke-opacity="1" x="0" y="267" width="51" height="16"/>
	<polyline style="shape-rendering:crispEdges" fill="none" stroke="rgb(0,0,0)" stroke-width="1" stroke-opacity="1" points="52.600000,275.000000 59.000000,275.000000"/>
	<text style="shape-rendering:crispEdges" x="51" y="275" fill="rgb(0,0,0)" dominant-baseline="central" font-size="11" font-family="Arial" text-anchor="end">7.25</text>
	<polyline style="shape-rendering:crispEdges" fill="none" stroke="rgb(0,0,0)" stroke-width="1" stroke-opacity="1" points="52.600000,242.750000 59.000000,242.750000"/>
	<text style="shape-rendering:crispEdges" x="51" y="242.75" fill="rgb(0,0,0)" dominant-baseline="central" font-size="11" font-family="Arial" text-anchor="end">7.30</text>
	<polyline style="shape-rendering:crispEdges" fill="none" stroke="rgb(0,0,0)" stroke-width="1" stroke-opacity="1" points="52.600000,210.500000 59.000000,210.500000"/>
	<text style="shape-rendering:crispEdges" x="51" y="210.5" fill="rgb(0,0,0)" dominant-baseline="central" font-size="11" font-family="Arial" text-anchor="end">7.35</text>
	<polyline style="shape-rendering:crispEdges" fill="none" stroke="rgb(0,0,0)" stroke-width="1" stroke-opacity="1" points="52.600000,178.250000 59.000000,178.250000"/>
	<text style="shape-rendering:crispEdges" x="51" y="178.25" fill="rgb(0,0,0)" dominant-baseline="central" font-size="11" font-family="Arial" text-anchor="end">7.40</text>
	<polyline style="shape-rendering:crispEdges" fill="none" stroke="rgb(0,0,0)" stroke-width="1" stroke-opacity="1" points="52.600000,146.000000 59.000000,146.000000"/>
	<text style="shape-rendering:crispEdges" x="51" y="146" fill="rgb(0,0,0)" dominant-baseline="central" font-size="11" font-family="Arial" text-anchor="end">7.45</text>
	<polyline style="shape-rendering:crispEdges" fill="none" stroke="rgb(0,0,0)" stroke-width="1" stroke-opacity="1" points="52.600000,113.750000 59.000000,113.750000"/>
	<text style="shape-rendering:crispEdges" x="51" y="113.75" fill="rgb(0,0,0)" dominant-baseline="central" font-size="11" font-family="Arial" text-anchor="end">7.50</text>
	<polyline style="shape-rendering:crispEdges" fill="none" stroke="rgb(0,0,0)" stroke-width="1" stroke-opacity="1" points="52.600000,81.500000 59.000000,81.500000"/>
	<text style="shape-rendering:crispEdges" x="51" y="81.5" fill="rgb(0,0,0)" dominant-baseline="central" font-size="11" font-family="Arial" text-anchor="end">7.55</text>
	<polyline style="shape-rendering:crispEdges" fill="none" stroke="rgb(0,0,0)" stroke-width="1" stroke-opacity="1" points="52.600000,49.250000 59.000000,49.250000"/>
	<text style="shape-rendering:crispEdges" x="51" y="49.25" fill="rgb(0,0,0)" dominant-baseline="central" font-size="11" font-family="Arial" text-anchor="end">7.60</text>
	<polyline style="shape-rendering:crispEdges" fill="none" stroke="rgb(0,0,0)" stroke-width="1" stroke-opacity="1" points="52.600000,17.000000 59.000000,17.000000"/>
	<text style="shape-rendering:crispEdges" x="51" y="17" fill="rgb(0,0,0)" dominant-baseline="central" font-size="11" font-family="Arial" text-anchor="end">7.65</text>
	<clipPath id="clipArea1">
		<rect x="59" y="17" width="399" height="258">
		</rect>
	</clipPath>
	<polyline fill="none" stroke="rgb(238,46,47)" stroke-width="4" stroke-opacity="1" clip-path="url(#clipArea1)" points="59.000000,53.197594 59.797999,53.920360 60.595998,54.640357 61.393998,55.357280 62.191997,56.071126 62.989996,56.782205 63.787995,57.490823 64.585995,58.196366 65.383994,58.899140 66.181993,59.599147 66.979992,60.296385 67.777992,60.991163 68.575991,61.683173 69.374009,62.372415 70.172008,63.058889 70.970008,63.742902 71.768007,64.424148 72.566006,65.102932 73.364005,65.779257 74.162005,66.452813 74.960004,67.124217 75.758003,67.792852 76.556002,68.458719 77.354002,69.122434 78.152001,69.783688 78.950000,70.442481 79.747999,71.098814 80.545998,71.752687 81.343998,72.404406 82.141997,73.053665 82.939996,73.700464 83.737995,74.345109 84.535995,74.987295 85.333994,75.627019 86.131993,76.264591 86.929992,76.900010 87.727992,77.533276 88.525991,78.164082 89.324009,78.792734 90.122008,79.419234 90.920008,80.043273 91.718007,80.665467 92.516006,81.285508 93.314005,81.903088 94.112005,82.518823 94.910004,83.132405 95.708003,83.743834 96.506002,84.353418 97.304002,84.960542 98.102001,85.565820 98.900000,86.168945 99.697999,86.770225 100.495998,87.369351 101.293998,87.966633 102.091997,88.561761 102.889996,89.154737 103.687995,89.746175 104.485995,90.335460 105.283994,90.922592 106.081993,91.508186 106.879992,92.091627 107.677992,92.673223 108.475991,93.252974 109.274009,93.830879 110.072008,94.406939 110.870008,94.981153 111.668007,95.553215 112.466006,96.123738 113.264005,96.692417 114.062005,97.259250 114.860004,97.824237 115.658003,98.387687 116.456002,98.949292 117.254002,99.509051 118.052001,100.066965 118.850000,100.623341 119.647999,101.177871 120.445998,101.730556 121.243998,102.281704 122.041997,102.831314 122.839996,103.379078 123.637995,103.924997 124.435995,104.469378 125.233994,105.012221 126.031993,105.553219 126.829992,106.092987 127.627992,106.630602 128.425991,107.166986 129.224009,107.701526 130.022008,108.234835 130.820008,108.766298 131.618007,109.296224 132.416006,109.824305 133.214005,110.351155 134.012005,110.876467 134.810004,111.400242 135.608003,111.922171 136.406002,112.442870 137.204002,112.962031 138.002001,113.479655 138.800000,113.995740 139.597999,114.510596 140.395998,115.023606 141.193998,115.535386 141.991997,116.045628 142.789996,116.554332 143.587995,117.061806 144.385995,117.567742 145.183994,118.072140 145.981993,118.575001 146.779992,119.076939 147.577992,119.577031 148.375991,120.075893 149.174009,120.573218 149.972008,121.069312 150.770008,121.564176 151.568007,122.057502 152.366006,122.549598 153.164005,123.040156 153.962005,123.529484 154.760004,124.017274 155.558003,124.504142 156.356002,124.989471 157.154002,125.473263 157.952001,125.956132 158.750000,126.437464 159.547999,126.917565 160.345998,127.396436 161.143998,127.873769 161.941997,128.350179 162.739996,128.825052 163.537995,129.299002 164.335995,129.771414 165.133994,130.242596 165.931993,130.712547 166.729992,131.181269 167.527992,131.649067 168.325991,132.115328 169.124009,132.580359 169.922008,133.044159 170.720008,133.507037 171.518007,133.968377 172.316006,134.428794 173.114005,134.887981 173.912005,135.345938 174.710004,135.802665 175.508003,136.258469 176.306002,136.712735 177.104002,137.166078 177.902001,137.618499 178.700000,138.069382 179.498018,138.519342 180.295998,138.968072 181.094017,139.415572 181.891997,139.862149 182.690015,140.307803 183.487995,140.751920 184.286014,141.195114 185.083994,141.637385 185.882012,142.078426 186.679992,142.518237 187.478011,142.957125 188.275991,143.394783 189.074009,143.831518 189.871989,144.267330 190.670008,144.701912 191.467988,145.135264 192.266006,145.568001 193.063986,145.999200 193.862005,146.429784 194.659985,146.859138 195.458003,147.287569 196.255983,147.714770 197.054002,148.141048 197.851982,148.566403 198.650000,148.990529 199.448018,149.414039 200.245998,149.836318 201.044017,150.257368 201.841997,150.677803 202.640015,151.097007 203.437995,151.515288 204.236014,151.932647 205.033994,152.349083 205.832012,152.764597 206.629992,153.178880 207.428011,153.592241 208.225991,154.004986 209.024009,154.416502 209.821989,154.827094 210.620008,155.236764 211.417988,155.645511 212.216006,156.053336 213.013986,156.460238 213.812005,156.866217 214.609985,157.271273 215.408003,157.675407 216.205983,158.078618 217.004002,158.480906 217.801982,158.882272 218.600000,159.283023 219.398018,159.682543 220.195998,160.081141 220.994017,160.479124 221.791997,160.875876 222.590015,161.272013 223.387995,161.667228 224.186014,162.061520 224.983994,162.455196 225.782012,162.847643 226.579992,163.239474 227.378011,163.630383 228.175991,164.020369 228.974009,164.409432 229.771989,164.797881 230.570008,165.185406 231.367988,165.572009 232.166006,165.957689 232.963986,166.342754 233.762005,166.726897 234.559985,167.110116 235.358003,167.492721 236.155983,167.874403 236.954002,168.255162 237.751982,168.635306 238.550000,169.014528 239.348018,169.393134 240.145998,169.770818 240.944017,170.147579 241.741997,170.523725 242.540015,170.898948 243.337995,171.273556 244.136014,171.647241 244.933994,172.020004 245.732012,172.392151 246.529992,172.763684 247.328011,173.134294 248.125991,173.503981 248.924009,173.873053 249.721989,174.241509 250.520008,174.609044 251.317988,174.975655 252.116006,175.341959 252.913986,175.707033 253.712005,176.071799 254.509985,176.435642 255.308003,176.798563 256.105983,177.160869 256.904002,177.522559 257.701982,177.883327 258.500000,178.243480 259.298018,178.603017 260.095998,178.961632 260.894017,179.319632 261.691997,179.677017 262.490015,180.033479 263.287995,180.389326 264.086014,180.744250 264.883994,181.098866 265.682012,181.452560 266.479992,181.805639 267.278011,182.157795 268.075991,182.509644 268.874009,182.860570 269.671989,183.210881 270.470008,183.560269 271.267988,183.909042 272.066006,184.257507 272.863986,184.605050 273.662005,184.951670 274.459985,185.297983 275.258003,185.643373 276.055983,185.988147 276.854002,186.332614 277.651982,186.675851 278.450000,187.018781 279.248018,187.361095 280.045998,187.702487 280.844017,188.043571 281.641997,188.383732 282.440015,188.723278 283.237995,189.062209 284.036014,189.400525 284.833994,189.738226 285.632012,190.075312 286.429992,190.411475 287.228011,190.747330 288.025991,191.082571 288.824009,191.416888 289.621989,191.750898 290.420008,192.083986 291.217988,192.416766 292.016006,192.748623 292.813986,193.080173 293.612005,193.410800 294.409985,193.741119 295.208003,194.070516 296.005983,194.399605 296.804002,194.728079 297.601982,195.055630 298.400000,195.382874 299.198018,195.709503 299.995998,196.035209 300.794017,196.360607 301.591997,196.685390 302.390015,197.009559 303.187995,197.333112 303.986014,197.656050 304.783994,197.978680 305.582012,198.300388 306.379992,198.621480 307.178011,198.942266 307.975991,199.262435 308.774009,199.581990 309.571989,199.900930 310.370008,200.219254 311.167988,200.536964 311.966006,200.854366 312.763986,201.170845 313.562005,201.487017 314.359985,201.802573 315.158003,202.117515 315.955983,202.432148 316.754002,202.745860 317.551982,203.059263 318.350000,203.372052 319.148018,203.684225 319.945998,203.996091 320.744017,204.307034 321.541997,204.617670 322.340015,204.927998 323.137995,205.237403 323.936014,205.546501 324.733994,205.854983 325.532012,206.162851 326.329992,206.470103 327.128011,206.777048 327.925991,207.083378 328.724009,207.389092 329.521989,207.694499 330.320008,207.999291 331.117988,208.303468 331.916006,208.607030 332.713986,208.910284 333.512005,209.213231 334.309985,209.515254 335.108003,209.816971 335.905983,210.118072 336.704002,210.418866 337.501982,210.718737 338.300000,211.018608 339.098018,211.317556 339.895998,211.616197 340.694017,211.914530 341.491997,212.211940 342.290015,212.509043 343.087995,212.805839 343.886014,213.102019 344.683994,213.397584 345.482012,213.692842 346.279992,213.987484 347.078011,214.281511 347.875991,214.575231 348.674009,214.868643 349.471989,215.161440 350.270008,215.453622 351.067988,215.745189 351.866006,216.036756 352.663986,216.327400 353.462005,216.617737 354.259985,216.907766 355.058003,217.197180 355.855983,217.485979 356.654002,217.774470 357.451982,218.062346 358.250000,218.349915 359.048018,218.637176 359.845998,218.923821 360.644017,219.209852 361.441997,219.495575 362.240015,219.780684 363.037995,220.065484 363.836014,220.349977 364.633994,220.633855 365.432012,220.917118 366.229992,221.200073 367.028011,221.482720 367.825991,221.764753 368.624009,222.046170 369.421989,222.327588 370.220008,222.608082 371.017988,222.888577 371.816006,223.168149 372.613986,223.447721 373.412005,223.726678 374.209985,224.005020 375.008003,224.283361 375.805983,224.560781 376.604002,224.838200 377.401982,225.115004 378.200000,225.391192 378.998018,225.667074 379.795998,225.942647 380.594017,226.217914 381.391997,226.492565 382.190015,226.766601 382.987995,227.040329 383.786014,227.313750 384.583994,227.586863 385.382012,227.859361 386.179992,228.131552 386.978011,228.403127 387.775991,228.674395 388.574009,228.945355 389.371989,229.215701 390.170008,229.486046 390.967988,229.755468 391.766006,230.024891 392.563986,230.293698 393.362005,230.561891 394.159985,230.830083 394.958003,231.097660 395.755983,231.364930 396.554002,231.631584 397.351982,231.898239 398.150000,232.163970 398.948018,232.429702 399.745998,232.694819 400.544017,232.959628 401.341997,233.224130 402.140015,233.488324 402.937995,233.751903 403.736014,234.015174 404.533994,234.277830 405.332012,234.540486 406.129992,234.802527 406.928011,235.064261 407.725991,235.325379 408.524009,235.586498 409.321989,235.847001 410.120008,236.107197 410.917988,236.366777 411.716006,236.626358 412.513986,236.885324 413.312005,237.143981 414.109985,237.402332 414.908003,237.660067 415.705983,237.917495 416.504002,238.174922 417.301982,238.431427 418.100000,238.687932 418.898018,238.943822 419.695998,239.199712 420.494017,239.454987 421.291997,239.709954 422.090015,239.964306 422.887995,240.218658 423.686014,240.472395 424.483994,240.725825 425.282012,240.978947 426.079992,241.231761 426.878011,241.483960 427.675991,241.736159 428.474009,241.987743 429.271989,242.239020 430.070008,242.489989 430.867988,242.740650 431.666006,242.991004 432.463986,243.240743 433.262005,243.490174 434.059985,243.739605 434.858003,243.988421 435.655983,244.236929 436.454002,244.484823 437.251982,244.732716 438.050000,244.979994 438.848018,245.227273 439.645998,245.473936 440.444017,245.720291 441.241997,245.966339 442.040015,246.212080 442.837995,246.457512 443.636014,246.702638 444.433994,246.947455 445.232012,247.191658 446.029992,247.435861 446.828011,247.679448 447.625991,247.922728 448.424009,248.165700 449.221989,248.408365 450.020008,248.650723 450.817988,248.892772 451.616006,249.134514 452.413986,249.375949 453.212005,249.617076 454.009985,249.857588 454.808003,250.098100 455.605983,250.337996 456.404002,250.577893 457.201982,250.817175 458.000000,251.056457 458.000000,251.056457"/>
	<clipPath id="clipArea2">
		<rect x="59" y="17" width="399" height="258">
		</rect>
	</clipPath>
	<polyline fill="none" stroke="rgb(0,0,0)" stroke-dasharray="4,2" stroke-width="2" stroke-opacity="1" clip-path="url(#clipArea2)" points="59.000000,54.208543 59.797999,54.923005 60.595998,55.634391 61.393998,56.343009 62.191997,57.048860 62.989996,57.752249 63.787995,58.452563 64.585995,59.150109 65.383994,59.845195 66.181993,60.537205 66.979992,61.226754 67.777992,61.913843 68.575991,62.598164 69.374009,63.279717 70.172008,63.958809 70.970008,64.635441 71.768007,65.309305 72.566006,65.981016 73.364005,66.649959 74.162005,67.316134 74.960004,67.980156 75.758003,68.641717 76.556002,69.300818 77.354002,69.957459 78.152001,70.611947 78.950000,71.263666 79.747999,71.913233 80.545998,72.560339 81.343998,73.205292 82.141997,73.847785 82.939996,74.488125 83.737995,75.126004 84.535995,75.761731 85.333994,76.394997 86.131993,77.026417 86.929992,77.655377 87.727992,78.282185 88.525991,78.906531 89.324009,79.529033 90.122008,80.149381 90.920008,80.767577 91.718007,81.383312 92.516006,81.997201 93.314005,82.608938 94.112005,83.218830 94.910004,83.826261 95.708003,84.431846 96.506002,85.035586 97.304002,85.636866 98.102001,86.236300 98.900000,86.833889 99.697999,87.429326 100.495998,88.022916 101.293998,88.614354 102.091997,89.203947 102.889996,89.791694 103.687995,90.377595 104.485995,90.961344 105.283994,91.543248 106.081993,92.123306 106.879992,92.701519 107.677992,93.277886 108.475991,93.852100 109.274009,94.424777 110.072008,94.995608 110.870008,95.564594 111.668007,96.131735 112.466006,96.697338 113.264005,97.260787 114.062005,97.822700 114.860004,98.382766 115.658003,98.940988 116.456002,99.497671 117.254002,100.052509 118.052001,100.605810 118.850000,101.156957 119.647999,101.706874 120.445998,102.254946 121.243998,102.801173 122.041997,103.346169 122.839996,103.889012 123.637995,104.430625 124.435995,104.970393 125.233994,105.508623 126.031993,106.045008 126.829992,106.580162 127.627992,107.113471 128.425991,107.645242 129.224009,108.175476 130.022008,108.704171 130.820008,109.231021 131.618007,109.756641 132.416006,110.280724 133.214005,110.803268 134.012005,111.323967 134.810004,111.843436 135.608003,112.361367 136.406002,112.877760 137.204002,113.392923 138.002001,113.906240 138.800000,114.418328 139.597999,114.928877 140.395998,115.437889 141.193998,115.945671 141.991997,116.451914 142.789996,116.956620 143.587995,117.459788 144.385995,117.961726 145.183994,118.462434 145.981993,118.961604 146.779992,119.459236 147.577992,119.955637 148.375991,120.450809 149.174009,120.944443 149.972008,121.436539 150.770008,121.927404 151.568007,122.417040 152.366006,122.905445 153.164005,123.392313 153.962005,123.877950 154.760004,124.362357 155.558003,124.845226 156.356002,125.326865 157.154002,125.807273 157.952001,126.286452 158.750000,126.764092 159.547999,127.240810 160.345998,127.715991 161.143998,128.189940 161.941997,128.662660 162.739996,129.134457 163.537995,129.604716 164.335995,130.073745 165.133994,130.541544 165.931993,131.008112 166.729992,131.473451 167.527992,131.937559 168.325991,132.400744 169.124009,132.862391 169.922008,133.323116 170.720008,133.782611 171.518007,134.240875 172.316006,134.697909 173.114005,135.153713 173.912005,135.608594 174.710004,136.061938 175.508003,136.514666 176.306002,136.965857 177.104002,137.416124 177.902001,137.865162 178.700000,138.312969 179.498018,138.759854 180.295998,139.205508 181.094017,139.649932 181.891997,140.093434 182.690015,140.536013 183.487995,140.977054 184.286014,141.417480 185.083994,141.856675 185.882012,142.294641 186.679992,142.731683 187.478011,143.167496 188.275991,143.602386 189.074009,144.036045 189.871989,144.468782 190.670008,144.900596 191.467988,145.331180 192.266006,145.760841 193.063986,146.189580 193.862005,146.617088 194.659985,147.043674 195.458003,147.469337 196.255983,147.893770 197.054002,148.317280 197.851982,148.739867 198.650000,149.161532 199.448018,149.581966 200.245998,150.001478 201.044017,150.420067 201.841997,150.837734 202.640015,151.254478 203.437995,151.669991 204.236014,152.084582 205.033994,152.498558 205.832012,152.911303 206.629992,153.323126 207.428011,153.734026 208.225991,154.144003 209.024009,154.553058 209.821989,154.960883 210.620008,155.368092 211.417988,155.774379 212.216006,156.179743 213.013986,156.584184 213.812005,156.987703 214.609985,157.390299 215.408003,157.791972 216.205983,158.192723 217.004002,158.592551 217.801982,158.991456 218.600000,159.389439 219.398018,159.786806 220.195998,160.183251 220.994017,160.578465 221.791997,160.973065 222.590015,161.366742 223.387995,161.759803 224.186014,162.151635 224.983994,162.542851 225.782012,162.933145 226.579992,163.322515 227.378011,163.711271 228.175991,164.098797 228.974009,164.485707 229.771989,164.872003 230.570008,165.257068 231.367988,165.641518 232.166006,166.025045 232.963986,166.407957 233.762005,166.789947 234.559985,167.171013 235.358003,167.551157 236.155983,167.930686 236.954002,168.309600 237.751982,168.687592 238.550000,169.064660 239.348018,169.440806 240.145998,169.816337 240.944017,170.191252 241.741997,170.565245 242.540015,170.938315 243.337995,171.310771 244.136014,171.682303 244.933994,172.053220 245.732012,172.423522 246.529992,172.792594 247.328011,173.161359 248.125991,173.529201 248.924009,173.896120 249.721989,174.262424 250.520008,174.628112 251.317988,174.992878 252.116006,175.357029 252.913986,175.720258 253.712005,176.082871 254.509985,176.444869 255.308003,176.805944 256.105983,177.166405 256.904002,177.525942 257.701982,177.884865 258.500000,178.243172 259.298018,178.600864 260.095998,178.957634 260.894017,179.313788 261.691997,179.669020 262.490015,180.023637 263.287995,180.377638 264.086014,180.731025 264.883994,181.083796 265.682012,181.435645 266.479992,181.786878 267.278011,182.137189 268.075991,182.487192 268.874009,182.836273 269.671989,183.184738 270.470008,183.532588 271.267988,183.879824 272.066006,184.226136 272.863986,184.571834 273.662005,184.917223 274.459985,185.261691 275.258003,185.605235 276.055983,185.948472 276.854002,186.291094 277.651982,186.632793 278.450000,186.973877 279.248018,187.314346 280.045998,187.654200 280.844017,187.993438 281.641997,188.332062 282.440015,188.670070 283.237995,189.007463 284.036014,189.344242 284.833994,189.680097 285.632012,190.015645 286.429992,190.350270 287.228011,190.684588 288.025991,191.017983 288.824009,191.351070 289.621989,191.683235 290.420008,192.015092 291.217988,192.346027 292.016006,192.676346 292.813986,193.006358 293.612005,193.335447 294.409985,193.664229 295.208003,193.992395 296.005983,194.319639 296.804002,194.646575 297.601982,194.972897 298.400000,195.298295 299.198018,195.623386 299.995998,195.947862 300.794017,196.271722 301.591997,196.595275 302.390015,196.917906 303.187995,197.239921 303.986014,197.561629 304.783994,197.882414 305.582012,198.202891 306.379992,198.522754 307.178011,198.842001 307.975991,199.160633 308.774009,199.478650 309.571989,199.796360 310.370008,200.113454 311.167988,200.429933 311.966006,200.745797 312.763986,201.061046 313.562005,201.375680 314.359985,201.690006 315.158003,202.003717 315.955983,202.316813 316.754002,202.629294 317.551982,202.941468 318.350000,203.252718 319.148018,203.563662 319.945998,203.874297 320.744017,204.184010 321.541997,204.493415 322.340015,204.802206 323.137995,205.110381 323.936014,205.418248 324.733994,205.725193 325.532012,206.031830 326.329992,206.338160 327.128011,206.643875 327.925991,206.948974 328.724009,207.253458 329.521989,207.557635 330.320008,207.861197 331.117988,208.164144 331.916006,208.466783 332.713986,208.768499 333.512005,209.070215 334.309985,209.371009 335.108003,209.671803 335.905983,209.971673 336.704002,210.271237 337.501982,210.570185 338.300000,210.868518 339.098018,211.166544 339.895998,211.463954 340.694017,211.761057 341.491997,212.057545 342.290015,212.353725 343.087995,212.649291 343.886014,212.944241 344.683994,213.238883 345.482012,213.532910 346.279992,213.826323 347.078011,214.119427 347.875991,214.412224 348.674009,214.704406 349.471989,214.995973 350.270008,215.287232 351.067988,215.577877 351.866006,215.868213 352.663986,216.157935 353.462005,216.447349 354.259985,216.736147 355.058003,217.024639 355.855983,217.312515 356.654002,217.599776 357.451982,217.887037 358.250000,218.173375 359.048018,218.459406 359.845998,218.745129 360.644017,219.030237 361.441997,219.315038 362.240015,219.599223 363.037995,219.883101 363.836014,220.166364 364.633994,220.449319 365.432012,220.731966 366.229992,221.013999 367.028011,221.295416 367.825991,221.576526 368.624009,221.857328 369.421989,222.137516 370.220008,222.417395 371.017988,222.696660 371.816006,222.975616 372.613986,223.254266 373.412005,223.532300 374.209985,223.810027 375.008003,224.087138 375.805983,224.363942 376.604002,224.640439 377.401982,224.916320 378.200000,225.191894 378.998018,225.466852 379.795998,225.741503 380.594017,226.015847 381.391997,226.289575 382.190015,226.562996 382.987995,226.836109 383.786014,227.108607 384.583994,227.380798 385.382012,227.652373 386.179992,227.923949 386.978011,228.194602 387.775991,228.465254 388.574009,228.735292 389.371989,229.005022 390.170008,229.274445 390.967988,229.543252 391.766006,229.811752 392.563986,230.079944 393.362005,230.347521 394.159985,230.614791 394.958003,230.881753 395.755983,231.148100 396.554002,231.414139 397.351982,231.679871 398.150000,231.945295 398.948018,232.210104 399.745998,232.474606 400.544017,232.738800 401.341997,233.002379 402.140015,233.265958 402.937995,233.528922 403.736014,233.791270 404.533994,234.053619 405.332012,234.315352 406.129992,234.576778 406.928011,234.837897 407.725991,235.098400 408.524009,235.358903 409.321989,235.618792 410.120008,235.878065 410.917988,236.137338 411.716006,236.395996 412.513986,236.654654 413.312005,236.912696 414.109985,237.170124 414.908003,237.427552 415.705983,237.684364 416.504002,237.940869 417.301982,238.197067 418.100000,238.452957 418.898018,238.708539 419.695998,238.963506 420.494017,239.218166 421.291997,239.472518 422.090015,239.726563 422.887995,239.980299 423.686014,240.233421 424.483994,240.486543 425.282012,240.739050 426.079992,240.991249 426.878011,241.243141 427.675991,241.494725 428.474009,241.745694 429.271989,241.996663 430.070008,242.247016 430.867988,242.497063 431.666006,242.746801 432.463986,242.996233 433.262005,243.245356 434.059985,243.493865 434.858003,243.742373 435.655983,243.990266 436.454002,244.238160 437.251982,244.485438 438.050000,244.732409 438.848018,244.979072 439.645998,245.225427 440.444017,245.471168 441.241997,245.716908 442.040015,245.962341 442.837995,246.207159 443.636014,246.451669 444.433994,246.696179 445.232012,246.940074 446.029992,247.183661 446.828011,247.426941 447.625991,247.669914 448.424009,247.912579 449.221989,248.154936 450.020008,248.396986 450.817988,248.638420 451.616006,248.879855 452.413986,249.120982 453.212005,249.361494 454.009985,249.602005 454.808003,249.841902 455.605983,250.081491 456.404002,250.321081 457.201982,250.560055 458.000000,250.798721 458.000000,250.798721"/>
</svg>
