<?xml version="1.0" standalone="no"?>
<!DOCTYPE svg PUBLIC "-//W3C//DTD SVG 1.1//EN" "http://www.w3.org/Graphics/SVG/1.1/DTD/svg11.dtd">
<svg width="483" height="300" version="1.1" xmlns="http://www.w3.org/2000/svg" xmlns:xlink="http://www.w3.org/1999/xlink">
	<polyline style="shape-rendering:crispEdges" fill="none" stroke="rgb(229,229,229)" stroke-width="1" stroke-opacity="1" points="59.000000,17.000000 59.000000,275.000000"/>
	<polyline style="shape-rendering:crispEdges" fill="none" stroke="rgb(229,229,229)" stroke-width="1" stroke-opacity="1" points="92.250000,17.000000 92.250000,275.000000"/>
	<polyline style="shape-rendering:crispEdges" fill="none" stroke="rgb(229,229,229)" stroke-width="1" stroke-opacity="1" points="125.500000,17.000000 125.500000,275.000000"/>
	<polyline style="shape-rendering:crispEdges" fill="none" stroke="rgb(229,229,229)" stroke-width="1" stroke-opacity="1" points="158.750000,17.000000 158.750000,275.000000"/>
	<polyline style="shape-rendering:crispEdges" fill="none" stroke="rgb(229,229,229)" stroke-width="1" stroke-opacity="1" points="192.000000,17.000000 192.000000,275.000000"/>
	<polyline style="shape-rendering:crispEdges" fill="none" stroke="rgb(229,229,229)" stroke-width="1" stroke-opacity="1" points="225.250000,17.000000 225.250000,275.000000"/>
	<polyline style="shape-rendering:crispEdges" fill="none" stroke="rgb(229,229,229)" stroke-width="1" stroke-opacity="1" points="258.500000,17.000000 258.500000,275.000000"/>
	<polyline style="shape-rendering:crispEdges" fill="none" stroke="rgb(229,229,229)" stroke-width="1" stroke-opacity="1" points="291.750000,17.000000 291.750000,275.000000"/>
	<polyline style="shape-rendering:crispEdges" fill="none" stroke="rgb(229,229,229)" stroke-width="1" stroke-opacity="1" points="325.000000,17.000000 325.000000,275.000000"/>
	<polyline style="shape-rendering:crispEdges" fill="none" stroke="rgb(229,229,229)" stroke-width="1" stroke-opacity="1" points="358.250000,17.000000 358.250000,275.000000"/>
	<polyline style="shape-rendering:crispEdges" fill="none" stroke="rgb(229,229,229)" stroke-width="1" stroke-opacity="1" points="391.500000,17.000000 391.500000,275.000000"/>
	<polyline style="shape-rendering:crispEdges" fill="none" stroke="rgb(229,229,229)" stroke-width="1" stroke-opacity="1" points="424.750000,17.000000 424.750000,275.000000"/>
	<polyline style="shape-rendering:crispEdges" fill="none" stroke="rgb(229,229,229)" stroke-width="1" stroke-opacity="1" points="458.000000,17.000000 458.000000,275.000000"/>
	<polyline style="shape-rendering:crispEdges" fill="none" stroke="rgb(229,229,229)" stroke-width="1" stroke-opacity="1" points="59.000000,275.000000 458.000000,275.000000"/>
	<polyline style="shape-rendering:crispEdges" fill="none" stroke="rgb(229,229,229)" stroke-width="1" stroke-opacity="1" points="59.000000,232.000000 458.000000,232.000000"/>
	<polyline style="shape-rendering:crispEdges" fill="none" stroke="rgb(229,229,229)" stroke-width="1" stroke-opacity="1" points="59.000000,189.000000 458.000000,189.000000"/>
	<polyline style="shape-rendering:crispEdges" fill="none" stroke="rgb(229,229,229)" stroke-width="1" stroke-opacity="1" points="59.000000,146.000000 458.000000,146.000000"/>
	<polyline style="shape-rendering:crispEdges" fill="none" stroke="rgb(229,229,229)" stroke-width="1" stroke-opacity="1" points="59.000000,103.000000 458.000000,103.000000"/>
	<polyline style="shape-rendering:crispEdges" fill="none" stroke="rgb(229,229,229)" stroke-width="1" stroke-opacity="1" points="59.000000,60.000000 458.000000,60.000000"/>
	<polyline style="shape-rendering:crispEdges" fill="none" stroke="rgb(229,229,229)" stroke-width="1" stroke-opacity="1" points="59.000000,17.000000 458.000000,17.000000"/>
	<polyline style="shape-rendering:crispEdges" fill="none" stroke="rgb(192,192,192)" stroke-width="1" stroke-opacity="1" points="258.500000,17.000000 258.500000,275.000000"/>
	<polyline style="shape-rendering:crispEdges" fill="none" stroke="rgb(0,0,0)" stroke-width="1" stroke-opacity="1" points="59.000000,275.000000 458.000000,275.000000"/>
	<polyline style="shape-rendering:crispEdges" fill="none" stroke="rgb(0,0,0)" stroke-width="1" stroke-opacity="1" points="458.000000,275.000000 458.000000,17.000000"/>
	<polyline style="shape-rendering:crispEdges" fill="none" stroke="rgb(0,0,0)" stroke-width="1" stroke-opacity="1" points="458.000000,17.000000 59.000000,17.000000"/>
	<polyline style="shape-rendering:crispEdges" fill="none" stroke="rgb(0,0,0)" stroke-width="1" stroke-opacity="1" points="59.000000,17.000000 59.000000,275.000000"/>
	<polyline style="shape-rendering:crispEdges" fill="none" stroke="rgb(0,0,0)" stroke-width="1" stroke-opacity="1" points="59.000000,275.000000 59.000000,279.000000"/>
	<polyline style="shape-rendering:crispEdges" fill="none" stroke="rgb(0,0,0)" stroke-width="1" stroke-opacity="1" points="92.250000,275.000000 92.250000,279.000000"/>
	<polyline style="shape-rendering:crispEdges" fill="none" stroke="rgb(0,0,0)" stroke-width="1" stroke-opacity="1" points="125.500000,275.000000 125.500000,279.000000"/>
	<polyline style="shape-rendering:crispEdges" fill="none" stroke="rgb(0,0,0)" stroke-width="1" stroke-opacity="1" points="158.750000,275.000000 158.750000,279.000000"/>
	<polyline style="shape-rendering:crispEdges" fill="none" stroke="rgb(0,0,0)" stroke-width="1" stroke-opacity="1" points="192.000000,275.000000 192.000000,279.000000"/>
	<polyline style="shape-rendering:crispEdges" fill="none" stroke="rgb(0,0,0)" stroke-width="1" stroke-opacity="1" points="225.250000,275.000000 225.250000,279.000000"/>
	<polyline style="shape-rendering:crispEdges" fill="none" stroke="rgb(0,0,0)" stroke-width="1" stroke-opacity="1" points="258.500000,275.000000 258.500000,279.000000"/>
	<polyline style="shape-rendering:crispEdges" fill="none" stroke="rgb(0,0,0)" stroke-width="1" stroke-opacity="1" points="291.750000,275.000000 291.750000,279.000000"/>
	<polyline style="shape-rendering:crispEdges" fill="none" stroke="rgb(0,0,0)" stroke-width="1" stroke-opacity="1" points="325.000000,275.000000 325.000000,279.000000"/>
	<polyline style="shape-rendering:crispEdges" fill="none" stroke="rgb(0,0,0)" stroke-width="1" stroke-opacity="1" points="358.250000,275.000000 358.250000,279.000000"/>
	<polyline style="shape-rendering:crispEdges" fill="none" stroke="rgb(0,0,0)" stroke-width="1" stroke-opacity="1" points="391.500000,275.000000 391.500000,279.000000"/>
	<polyline style="shape-rendering:crispEdges" fill="none" stroke="rgb(0,0,0)" stroke-width="1" stroke-opacity="1" points="424.750000,275.000000 424.750000,279.000000"/>
	<polyline style="shape-rendering:crispEdges" fill="none" stroke="rgb(0,0,0)" stroke-width="1" stroke-opacity="1" points="458.000000,275.000000 458.000000,279.000000"/>
	<polyline style="shape-rendering:crispEdges" fill="none" stroke="rgb(0,0,0)" stroke-width="1" stroke-opacity="1" points="92.250000,275.000000 92.250000,281.400000"/>
	<text style="shape-rendering:crispEdges" x="92.25" y="291.5" fill="rgb(0,0,0)" dominant-baseline="central" font-size="11" font-family="Arial" text-anchor="middle">-25</text>
	<polyline style="shape-rendering:crispEdges" fill="none" stroke="rgb(0,0,0)" stroke-width="1" stroke-opacity="1" points="258.500000,275.000000 258.500000,281.400000"/>
	<text style="shape-rendering:crispEdges" x="258.5" y="291.5" fill="rgb(0,0,0)" dominant-baseline="central" font-size="11" font-family="Arial" text-anchor="middle">0</text>
	<polyline style="shape-rendering:crispEdges" fill="none" stroke="rgb(0,0,0)" stroke-width="1" stroke-opacity="1" points="424.750000,275.000000 424.750000,281.400000"/>
	<text style="shape-rendering:crispEdges" x="424.75" y="291.5" fill="rgb(0,0,0)" dominant-baseline="central" font-size="11" font-family="Arial" text-anchor="middle">25</text>
	<polyline style="shape-rendering:crispEdges" fill="none" stroke="rgb(0,0,0)" stroke-width="1" stroke-opacity="1" points="55.000000,275.000000 59.000000,275.000000"/>
	<polyline style="shape-rendering:crispEdges" fill="none" stroke="rgb(0,0,0)" stroke-width="1" stroke-opacity="1" points="55.000000,232.000000 59.000000,232.000000"/>
	<polyline style="shape-rendering:crispEdges" fill="none" stroke="rgb(0,0,0)" stroke-width="1" stroke-opacity="1" points="55.000000,189.000000 59.000000,189.000000"/>
	<polyline style="shape-rendering:crispEdges" fill="none" stroke="rgb(0,0,0)" stroke-width="1" stroke-opacity="1" points="55.000000,146.000000 59.000000,146.000000"/>
	<polyline style="shape-rendering:crispEdges" fill="none" stroke="rgb(0,0,0)" stroke-width="1" stroke-opacity="1" points="55.000000,103.000000 59.000000,103.000000"/>
	<polyline style="shape-rendering:crispEdges" fill="none" stroke="rgb(0,0,0)" stroke-width="1" stroke-opacity="1" points="55.000000,60.000000 59.000000,60.000000"/>
	<polyline style="shape-rendering:crispEdges" fill="none" stroke="rgb(0,0,0)" stroke-width="1" stroke-opacity="1" points="55.000000,17.000000 59.000000,17.000000"/>
	<rect style="shape-rendering:crispEdges" fill="none" stroke="none" stroke-dasharray="none" stroke-width="1" stroke-opacity="1" x="0" y="267" width="51" height="16"/>
	<polyline style="shape-rendering:crispEdges" fill="none" stroke="rgb(0,0,0)" stroke-width="1" stroke-opacity="1" points="52.600000,275.000000 59.000000,275.000000"/>
	<text style="shape-rendering:crispEdges" x="51" y="275" fill="rgb(0,0,0)" dominant-baseline="central" font-size="11" font-family="Arial" text-anchor="end">6.6</text>
	<polyline style="shape-rendering:crispEdges" fill="none" stroke="rgb(0,0,0)" stroke-width="1" stroke-opacity="1" points="52.600000,232.000000 59.000000,232.000000"/>
	<text style="shape-rendering:crispEdges" x="51" y="232" fill="rgb(0,0,0)" dominant-baseline="central" font-size="11" font-family="Arial" text-anchor="end">6.8</text>
	<polyline style="shape-rendering:crispEdges" fill="none" stroke="rgb(0,0,0)" stroke-width="1" stroke-opacity="1" points="52.600000,189.000000 59.000000,189.000000"/>
	<text style="shape-rendering:crispEdges" x="51" y="189" fill="rgb(0,0,0)" dominant-baseline="central" font-size="11" font-family="Arial" text-anchor="end">7.0</text>
	<polyline style="shape-rendering:crispEdges" fill="none" stroke="rgb(0,0,0)" stroke-width="1" stroke-opacity="1" points="52.600000,146.000000 59.000000,146.000000"/>
	<text style="shape-rendering:crispEdges" x="51" y="146" fill="rgb(0,0,0)" dominant-baseline="central" font-size="11" font-family="Arial" text-anchor="end">7.2</text>
	<polyline style="shape-rendering:crispEdges" fill="none" stroke="rgb(0,0,0)" stroke-width="1" stroke-opacity="1" points="52.600000,103.000000 59.000000,103.000000"/>
	<text style="shape-rendering:crispEdges" x="51" y="103" fill="rgb(0,0,0)" dominant-baseline="central" font-size="11" font-family="Arial" text-anchor="end">7.4</text>
	<polyline style="shape-rendering:crispEdges" fill="none" stroke="rgb(0,0,0)" stroke-width="1" stroke-opacity="1" points="52.600000,60.000000 59.000000,60.000000"/>
	<text style="shape-rendering:crispEdges" x="51" y="60" fill="rgb(0,0,0)" dominant-baseline="central" font-size="11" font-family="Arial" text-anchor="end">7.6</text>
	<polyline style="shape-rendering:crispEdges" fill="none" stroke="rgb(0,0,0)" stroke-width="1" stroke-opacity="1" points="52.600000,17.000000 59.000000,17.000000"/>
	<text style="shape-rendering:crispEdges" x="51" y="17" fill="rgb(0,0,0)" dominant-baseline="central" font-size="11" font-family="Arial" text-anchor="end">7.8</text>
	<clipPath id="clipArea1">
		<rect x="59" y="17" width="399" height="258">
		</rect>
	</clipPath>
	<polyline fill="none" stroke="rgb(238,46,47)" stroke-width="2" stroke-opacity="1" clip-path="url(#clipArea1)" points="59.000000,251.126498 59.750124,248.400492 60.500235,245.838927 61.250359,243.423249 62.000483,241.137873 62.750595,238.969575 63.500718,236.907181 64.250842,234.941257 65.000954,233.063809 65.751078,231.267761 66.501202,229.547271 67.251326,227.897417 68.001437,226.313688 68.751561,224.792394 69.501685,223.330356 70.251796,221.924705 71.001920,220.573081 71.752044,219.273333 72.502155,218.023716 73.252279,216.822592 74.002403,215.668422 74.752515,214.560079 75.502639,213.496229 76.252763,212.475642 77.002874,211.497396 77.752998,210.560159 78.503122,209.663006 79.253246,208.804606 80.003357,207.983729 80.753481,207.199143 81.503605,206.449312 82.253716,205.732697 83.003840,205.047761 83.753964,204.392864 84.504076,203.765954 85.254200,203.165289 86.004324,202.588922 86.754435,202.034801 87.504559,201.500877 88.254683,200.984997 89.004794,200.485212 89.754918,199.999370 90.505042,199.525522 91.255166,199.061722 92.005277,198.606020 92.755401,198.156778 93.505525,197.712354 94.255637,197.271108 95.005761,196.831707 95.755885,196.393024 96.505996,195.953828 97.256120,195.513402 98.006244,195.070824 98.756355,194.625682 99.506479,194.177362 100.256603,193.725659 101.006714,193.270265 101.756838,192.811181 102.506962,192.348405 103.257074,191.882042 104.007198,191.411988 104.757322,190.938653 105.507446,190.462140 106.257557,189.982552 107.007681,189.500298 107.757805,189.015583 108.507916,188.528613 109.258040,188.039490 110.008164,187.548625 110.758275,187.056221 111.508399,186.562382 112.258523,186.067416 113.008635,185.571424 113.758759,185.074510 114.508883,184.577083 115.258994,184.079041 116.009118,183.580588 116.759242,183.082034 117.509366,182.583171 118.259477,182.084412 119.009601,181.585652 119.759725,181.087097 120.509836,180.588748 121.259960,180.090705 122.010084,179.593073 122.760196,179.095954 123.510320,178.599347 124.260444,178.103253 125.010555,177.607774 125.760679,177.112910 126.510803,176.618866 127.260914,176.125437 128.011038,175.632829 128.761162,175.141040 129.511286,174.649970 130.261397,174.159822 131.011521,173.670596 131.761645,173.182088 132.511757,172.694606 133.261881,172.208046 134.012005,171.722306 134.762116,171.237592 135.512240,170.753800 136.262364,170.270931 137.012475,169.788984 137.762599,169.308063 138.512723,168.828064 139.262834,168.349091 140.012958,167.871040 140.763082,167.394015 141.513206,166.917912 142.263318,166.442834 143.013442,165.968679 143.763566,165.495550 144.513677,165.023343 145.263801,164.552161 146.013925,164.081902 146.764036,163.612565 147.514160,163.144254 148.264284,162.676865 149.014395,162.210502 149.764519,161.745061 150.514643,161.280543 151.264755,160.816947 152.014879,160.354275 152.765003,159.892525 153.515120,159.431697 154.265238,158.971895 155.015362,158.512913 155.765479,158.054854 156.515597,157.597717 157.265721,157.141503 158.015839,156.686110 158.765963,156.231638 159.516080,155.778090 160.266198,155.325464 161.016322,154.873659 161.766440,154.422673 162.516557,153.972610 163.266681,153.523368 164.016799,153.075048 164.766923,152.627548 165.517040,152.180869 166.267158,151.735112 167.017282,151.290072 167.767400,150.845956 168.517517,150.402659 169.267641,149.960286 170.017759,149.518630 170.767883,149.077794 171.518001,148.637778 172.268118,148.198685 173.018242,147.760309 173.768360,147.322754 174.518477,146.886019 175.268601,146.450104 176.018719,146.015009 176.768843,145.580734 177.518961,145.147177 178.269078,144.714440 179.019202,144.282626 179.769320,143.851427 180.519438,143.421151 181.269561,142.991592 182.019679,142.562956 182.769803,142.134935 183.519921,141.707837 184.270038,141.281456 185.020162,140.855896 185.770280,140.431155 186.520398,140.007133 187.270522,139.583930 188.020639,139.161548 188.770757,138.739985 189.520881,138.319141 190.270998,137.899117 191.021122,137.479810 191.771240,137.061323 192.521358,136.643657 193.271482,136.226810 194.021599,135.810682 194.771717,135.395373 195.521841,134.980885 196.271959,134.567114 197.022083,134.154164 197.772200,133.742033 198.522318,133.330723 199.272442,132.920131 200.022559,132.510358 200.772677,132.101304 201.522801,131.693172 202.272919,131.285757 203.023043,130.879163 203.773160,130.473389 204.523278,130.068332 205.273402,129.664096 206.023520,129.260680 206.773640,128.858084 207.523761,128.456308 208.273879,128.055250 209.024000,127.655012 209.774120,127.255594 210.524241,126.856996 211.274359,126.459219 212.024480,126.062159 212.774600,125.665919 213.524721,125.270499 214.274839,124.875900 215.024960,124.482018 215.775081,124.089059 216.525201,123.696817 217.275319,123.305396 218.025440,122.914795 218.775561,122.525014 219.525681,122.135951 220.275799,121.747810 221.025920,121.360387 221.776041,120.973784 222.526161,120.588001 223.276279,120.202936 224.026400,119.818794 224.776521,119.435369 225.526642,119.052764 226.276759,118.670877 227.026880,118.289913 227.777001,117.909667 228.527122,117.530240 229.277239,117.151634 230.027360,116.773745 230.777481,116.396677 231.527598,116.020428 232.277719,115.645000 233.027840,115.270289 233.777959,114.896399 234.528080,114.523226 235.278199,114.150874 236.028320,113.779341 236.778439,113.408526 237.528560,113.038532 238.278679,112.669357 239.028800,112.300900 239.778919,111.933161 240.529040,111.566242 241.279159,111.200041 242.029280,110.834660 242.779399,110.469996 243.529520,110.106153 244.279639,109.743027 245.029760,109.380619 245.779880,109.019031 246.530000,108.658160 247.280120,108.298007 248.030240,107.938572 248.780360,107.579957 249.530480,107.222060 250.280600,106.864778 251.030720,106.508316 251.780840,106.152572 252.530960,105.797647 253.281080,105.443338 254.031200,105.089747 254.781320,104.736873 255.531440,104.384717 256.281560,104.033176 257.031680,103.682455 257.781800,103.332349 258.531920,102.982961 259.282040,102.634291 260.032160,102.286338 260.782280,101.939000 261.532400,101.592278 262.282520,101.246375 263.032640,100.901088 263.782760,100.556416 264.532880,100.212461 265.283000,99.869122 266.033120,99.526397 266.783240,99.184391 267.533360,98.842999 268.283480,98.502325 269.033600,98.162164 269.783720,97.822720 270.533840,97.483891 271.283960,97.145678 272.034081,96.808080 272.784200,96.471097 273.534319,96.134728 274.284440,95.798975 275.034559,95.463735 275.784680,95.129212 276.534799,94.795202 277.284920,94.461807 278.035039,94.129027 278.785160,93.796760 279.535279,93.465108 280.285400,93.134071 281.035519,92.803546 281.785640,92.473535 282.535759,92.144138 283.285880,91.815254 284.035999,91.486985 284.786120,91.159228 285.536239,90.831985 286.286360,90.505356 287.036481,90.179240 287.786599,89.853636 288.536720,89.528545 289.286840,89.203967 290.036961,88.879901 290.787079,88.556348 291.537200,88.233308 292.287320,87.910780 293.037441,87.588765 293.787559,87.267159 294.537680,86.946169 295.287800,86.625589 296.037921,86.305522 296.788039,85.985967 297.538160,85.666822 298.288280,85.348190 299.038401,85.030071 299.788519,84.712361 300.538640,84.395062 301.288761,84.078378 302.038881,83.762001 302.788999,83.446137 303.539120,83.130785 304.289241,82.815742 305.039361,82.501313 305.789479,82.187191 306.539600,81.873583 307.289721,81.560384 308.039841,81.247596 308.789959,80.935320 309.540080,80.623454 310.290201,80.311998 311.040322,80.000953 311.790442,79.690317 312.540560,79.380092 313.290678,79.070379 314.040802,78.761076 314.790919,78.452081 315.541037,78.143598 316.291161,77.835526 317.041278,77.527863 317.791402,77.220611 318.541520,76.913768 319.291638,76.607336 320.041762,76.301314 320.791879,75.995702 321.541997,75.690500 322.292121,75.385708 323.042239,75.081326 323.792363,74.777354 324.542480,74.473793 325.292598,74.170743 326.042722,73.868002 326.792839,73.565670 327.542957,73.263852 328.293081,72.962340 329.043199,72.661342 329.793323,72.360651 330.543440,72.060472 331.293558,71.760704 332.043682,71.461448 332.793800,71.162499 333.543917,70.864064 334.294041,70.566038 335.044159,70.268423 335.794283,69.971320 336.544400,69.674627 337.294518,69.378447 338.044642,69.082676 338.794760,68.787316 339.544877,68.492469 340.295001,68.198134 341.045119,67.904209 341.795243,67.610797 342.545361,67.317897 343.295478,67.025510 344.045602,66.733636 344.795720,66.442274 345.545837,66.151425 346.295961,65.860986 347.046079,65.571264 347.796203,65.281953 348.546321,64.993257 349.296438,64.705073 350.046562,64.417504 350.796680,64.130551 351.546798,63.844110 352.296921,63.558284 353.047039,63.273074 353.797163,62.988478 354.547281,62.704600 355.297398,62.421235 356.047522,62.138587 356.797640,61.856658 357.547758,61.575343 358.297882,61.294745 359.047999,61.014866 359.798117,60.735704 360.548241,60.457260 361.298358,60.179636 362.048482,59.902729 362.798600,59.626643 363.548718,59.351274 364.298842,59.076828 365.048959,58.803100 365.799083,58.530294 366.549195,58.258411 367.299319,57.987348 368.049443,57.717208 368.799554,57.447990 369.549678,57.179798 370.299802,56.912529 371.049926,56.646182 371.800037,56.380962 372.550161,56.116666 373.300285,55.853497 374.050396,55.591456 374.800520,55.330440 375.550644,55.070552 376.300756,54.811894 377.050880,54.554364 377.801004,54.298064 378.551115,54.042994 379.301239,53.789257 380.051363,53.536750 380.801474,53.285576 381.551598,53.035838 382.301722,52.787432 383.051846,52.540461 383.801957,52.294926 384.552081,52.050826 385.302205,51.808366 386.052317,51.567444 386.802441,51.328162 387.552565,51.090418 388.302676,50.854417 389.052800,50.620159 389.802924,50.387644 390.553035,50.156974 391.303159,49.928149 392.053283,49.701170 392.803394,49.476241 393.553518,49.253260 394.303642,49.032330 395.053766,48.813552 395.803878,48.596825 396.554002,48.382455 397.304125,48.170341 398.054237,47.960586 398.804361,47.753290 399.554485,47.548353 400.304596,47.346081 401.054720,47.146474 401.804844,46.949533 402.554955,46.755463 403.305079,46.564161 404.055203,46.375934 404.805315,46.190783 405.555439,46.008913 406.305562,45.830220 407.055674,45.655014 407.805798,45.483293 408.555922,45.315262 409.306046,45.151128 410.056157,44.990889 410.806281,44.834854 411.556405,44.683124 412.306516,44.535905 413.056640,44.393403 413.806764,44.255821 414.556876,44.123467 415.306999,43.996548 416.057123,43.875369 416.807235,43.760239 417.557359,43.651465 418.307483,43.549663 419.057594,43.455037 419.807718,43.368100 420.557842,43.289570 421.307966,43.219856 422.058077,43.159882 422.808201,43.110365 423.558325,43.072227 424.308436,43.046495 425.058560,43.034705 425.808684,43.038191 426.558796,43.058900 427.308920,43.098985 428.059044,43.161522 428.809155,43.249792 429.559279,43.368715 430.309403,43.524443 431.059514,43.725792 431.809638,43.985783 432.559762,44.324919 433.309886,44.779903 434.059997,45.429675 434.059997,45.429675"/>
	<clipPath id="clipArea2">
		<rect x="59" y="17" width="399" height="258">
		</rect>
	</clipPath>
	<polyline fill="none" stroke="rgb(0,0,0)" stroke-dasharray="4,2" stroke-width="1" stroke-opacity="1" clip-path="url(#clipArea2)" points="59.000000,227.190849 59.750124,226.222342 60.500235,225.300790 61.250359,224.421374 62.000483,223.579787 62.750595,222.771930 63.500718,221.994418 64.250842,221.244074 65.000954,220.518130 65.751078,219.814126 66.501202,219.129805 67.251326,218.463015 68.001437,217.812115 68.751561,217.175261 69.501685,216.551222 70.251796,215.938562 71.001920,215.336052 71.752044,214.742769 72.502155,214.157688 73.252279,213.579885 74.002403,213.008644 74.752515,212.443348 75.502639,211.883282 76.252763,211.328033 77.002874,210.776886 77.752998,210.229532 78.503122,209.685561 79.253246,209.144563 80.003357,208.606333 80.753481,208.070563 81.503605,207.536844 82.253716,207.005176 83.003840,206.475147 83.753964,205.946759 84.504076,205.419806 85.254200,204.894084 86.004324,204.369489 86.754435,203.845920 87.504559,203.323273 88.254683,202.801548 89.004794,202.280644 89.754918,201.760355 90.505042,201.240784 91.255166,200.721828 92.005277,200.203384 92.755401,199.685556 93.505525,199.168240 94.255637,198.651334 95.005761,198.134941 95.755885,197.619061 96.505996,197.103590 97.256120,196.588427 98.006244,196.073777 98.756355,195.559639 99.506479,195.045809 100.256603,194.532389 101.006714,194.019379 101.756838,193.506881 102.506962,192.994691 103.257074,192.483014 104.007198,191.971747 104.757322,191.460890 105.507446,190.950545 106.257557,190.440611 107.007681,189.931189 107.757805,189.422177 108.507916,188.913781 109.258040,188.405794 110.008164,187.898320 110.758275,187.391359 111.508399,186.884910 112.258523,186.379076 113.008635,185.873755 113.758759,185.369050 114.508883,184.864856 115.258994,184.361278 116.009118,183.858315 116.759242,183.355865 117.509366,182.854132 118.259477,182.353014 119.009601,181.852511 119.759725,181.352624 120.509836,180.853454 121.259960,180.354899 122.010084,179.857062 122.760196,179.359840 123.510320,178.863336 124.260444,178.367549 125.010555,177.872480 125.760679,177.378129 126.510803,176.884495 127.260914,176.391579 128.011038,175.899381 128.761162,175.407900 129.511286,174.917239 130.261397,174.427296 131.011521,173.938173 131.761645,173.449768 132.511757,172.962183 133.261881,172.475316 134.012005,171.989268 134.762116,171.504041 135.512240,171.019532 136.262364,170.535842 137.012475,170.052973 137.762599,169.570924 138.512723,169.089695 139.262834,168.609287 140.012958,168.129698 140.763082,167.650930 141.513206,167.172982 142.263318,166.695854 143.013442,166.219546 143.763566,165.744058 144.513677,165.269493 145.263801,164.795646 146.013925,164.322721 146.764036,163.850616 147.514160,163.379332 148.264284,162.908970 149.014395,162.439429 149.764519,161.970707 150.514643,161.502806 151.264755,161.035828 152.014879,160.569669 152.765003,160.104434 153.515120,159.640018 154.265238,159.176423 155.015362,158.713750 155.765479,158.251897 156.515597,157.790865 157.265721,157.330755 158.015839,156.871466 158.765963,156.413099 159.516080,155.955552 160.266198,155.498826 161.016322,155.043022 161.766440,154.588038 162.516557,154.133977 163.266681,153.680736 164.016799,153.228418 164.766923,152.776920 165.517040,152.326242 166.267158,151.876487 167.017282,151.427552 167.767400,150.979539 168.517517,150.532347 169.267641,150.086078 170.017759,149.640628 170.767883,149.195999 171.518001,148.752293 172.268118,148.309406 173.018242,147.867443 173.768360,147.426299 174.518477,146.986078 175.268601,146.546678 176.018719,146.108097 176.768843,145.670439 177.518961,145.233602 178.269078,144.797584 179.019202,144.362489 179.769320,143.928215 180.519438,143.494863 181.269561,143.062331 182.019679,142.630722 182.769803,142.199830 183.519921,141.769964 184.270038,141.340815 185.020162,140.912589 185.770280,140.485183 186.520398,140.058700 187.270522,139.633037 188.020639,139.208194 188.770757,138.784274 189.520881,138.361174 190.270998,137.938894 191.021122,137.517435 191.771240,137.096898 192.521358,136.677283 193.271482,136.258387 194.021599,135.840413 194.771717,135.423259 195.521841,135.007028 196.271959,134.591617 197.022083,134.177026 197.772200,133.763255 198.522318,133.350407 199.272442,132.938379 200.022559,132.527172 200.772677,132.116784 201.522801,131.707319 202.272919,131.298675 203.023043,130.890850 203.773160,130.483948 204.523278,130.077867 205.273402,129.672605 206.023520,129.268164 206.773640,128.864542 207.523761,128.461844 208.273879,128.059966 209.024000,127.658907 209.774120,127.258669 210.524241,126.859354 211.274359,126.460756 212.024480,126.063081 212.774600,125.666226 213.524721,125.270192 214.274839,124.875080 215.024960,124.480685 215.775081,124.087214 216.525201,123.694459 217.275319,123.302628 218.025440,122.911617 218.775561,122.521426 219.525681,122.132055 220.275799,121.743504 221.025920,121.355876 221.776041,120.968966 222.526161,120.582875 223.276279,120.197708 224.026400,119.813258 224.776521,119.429628 225.526642,119.046921 226.276759,118.664931 227.026880,118.283762 227.777001,117.903413 228.527122,117.523986 229.277239,117.145278 230.027360,116.767286 230.777481,116.390218 231.527598,116.013969 232.277719,115.638439 233.027840,115.263831 233.777959,114.889940 234.528080,114.516768 235.278199,114.144517 236.028320,113.772985 236.778439,113.402273 237.528560,113.032381 238.278679,112.663206 239.028800,112.294852 239.778919,111.927318 240.529040,111.560501 241.279159,111.194505 242.029280,110.829226 242.779399,110.464767 243.529520,110.101027 244.279639,109.738106 245.029760,109.375903 245.779880,109.014520 246.530000,108.653752 247.280120,108.293907 248.030240,107.934677 248.780360,107.576267 249.530480,107.218575 250.280600,106.861600 251.030720,106.505445 251.780840,106.149906 252.530960,105.795187 253.281080,105.441185 254.031200,105.087799 254.781320,104.735233 255.531440,104.383384 256.281560,104.032151 257.031680,103.681737 257.781800,103.331939 258.531920,102.982859 259.282040,102.634496 260.032160,102.286850 260.782280,101.939820 261.532400,101.593508 262.282520,101.247913 263.032640,100.902933 263.782760,100.558568 264.532880,100.214921 265.283000,99.871992 266.033120,99.529678 266.783240,99.187979 267.533360,98.846895 268.283480,98.506528 269.033600,98.166777 269.783720,97.827641 270.533840,97.489120 271.283960,97.151214 272.034081,96.814026 272.784200,96.477350 273.534319,96.141290 274.284440,95.805844 275.034559,95.471014 275.784680,95.136696 276.534799,94.802994 277.284920,94.469906 278.035039,94.137434 278.785160,93.805474 279.535279,93.474027 280.285400,93.143195 281.035519,92.812978 281.785640,92.483274 282.535759,92.154082 283.285880,91.825403 284.035999,91.497339 284.786120,91.169788 285.536239,90.842749 286.286360,90.516223 287.036481,90.190209 287.786599,89.864708 288.536720,89.539720 289.286840,89.215142 290.036961,88.891179 290.787079,88.567626 291.537200,88.244688 292.287320,87.922057 293.037441,87.600042 293.787559,87.278437 294.537680,86.957242 295.287800,86.636559 296.037921,86.316389 296.788039,85.996527 297.538160,85.677279 298.288280,85.358340 299.038401,85.039913 299.788519,84.721896 300.538640,84.404289 301.288761,84.087092 302.038881,83.770408 302.788999,83.454031 303.539120,83.138064 304.289241,82.822610 305.039361,82.507464 305.789479,82.192728 306.539600,81.878504 307.289721,81.564485 308.039841,81.250979 308.789959,80.937883 309.540080,80.625094 310.290201,80.312716 311.040322,80.000645 311.790442,79.689087 312.540560,79.377836 313.290678,79.066893 314.040802,78.756360 314.790919,78.446237 315.541037,78.136422 316.291161,77.826914 317.041278,77.517816 317.791402,77.209128 318.541520,76.900748 319.291638,76.592676 320.041762,76.285013 320.791879,75.977658 321.541997,75.670713 322.292121,75.364076 323.042239,75.057746 323.792363,74.751827 324.542480,74.446215 325.292598,74.141013 326.042722,73.836118 326.792839,73.531531 327.542957,73.227355 328.293081,72.923485 329.043199,72.619924 329.793323,72.316772 330.543440,72.014030 331.293558,71.711596 332.043682,71.409470 332.793800,71.107754 333.543917,70.806345 334.294041,70.505346 335.044159,70.204655 335.794283,69.904374 336.544400,69.604503 337.294518,69.304940 338.044642,69.005786 338.794760,68.706941 339.544877,68.408607 340.295001,68.110582 341.045119,67.812966 341.795243,67.515761 342.545361,67.218966 343.295478,66.922580 344.045602,66.626605 344.795720,66.331142 345.545837,66.035987 346.295961,65.741345 347.046079,65.447113 347.796203,65.153290 348.546321,64.859981 349.296438,64.567183 350.046562,64.274796 350.796680,63.982922 351.546798,63.691560 352.296921,63.400609 353.047039,63.110272 353.797163,62.820345 354.547281,62.531034 355.297398,62.242235 356.047522,61.954051 356.797640,61.666380 357.547758,61.379324 358.297882,61.092781 359.047999,60.806853 359.798117,60.521642 360.548241,60.236944 361.298358,59.952861 362.048482,59.669496 362.798600,59.386848 363.548718,59.104713 364.298842,58.823399 365.048959,58.542801 365.799083,58.262819 366.549195,57.983657 367.299319,57.705213 368.049443,57.427589 368.799554,57.150785 369.549678,56.874699 370.299802,56.599432 371.049926,56.324986 371.800037,56.051463 372.550161,55.778760 373.300285,55.506979 374.050396,55.236122 374.800520,54.966084 375.550644,54.697174 376.300756,54.429084 377.050880,54.162020 377.801004,53.895980 378.551115,53.630966 379.301239,53.366977 380.051363,53.104116 380.801474,52.842280 381.551598,52.581674 382.301722,52.322093 383.051846,52.063743 383.801957,51.806520 384.552081,51.550528 385.302205,51.295663 386.052317,51.042234 386.802441,50.789932 387.552565,50.538963 388.302676,50.289430 389.052800,50.041126 389.802924,49.794258 390.553035,49.548723 391.303159,49.304725 392.053283,49.062060 392.803394,48.820933 393.553518,48.581344 394.303642,48.343293 395.053766,48.106779 395.803878,47.871803 396.554002,47.638468 397.304125,47.406773 398.054237,47.176820 398.804361,46.948508 399.554485,46.721939 400.304596,46.497113 401.054720,46.274132 401.804844,46.052894 402.554955,45.833501 403.305079,45.616056 404.055203,45.400456 404.805315,45.186805 405.555439,44.975101 406.305562,44.765345 407.055674,44.557742 407.805798,44.352087 408.555922,44.148585 409.306046,43.947133 410.056157,43.747834 410.806281,43.550791 411.556405,43.355900 412.306516,43.163265 413.056640,42.972886 413.806764,42.784864 414.556876,42.599098 415.306999,42.415792 416.057123,42.234844 416.807235,42.056357 417.557359,41.880228 418.307483,41.706764 419.057594,41.535658 419.807718,41.367218 420.557842,41.201340 421.307966,41.038128 422.058077,40.877480 422.808201,40.719599 423.558325,40.564384 424.308436,40.412039 425.058560,40.262360 425.808684,40.115551 426.558796,39.971613 427.308920,39.830545 428.059044,39.692348 428.809155,39.557125 429.559279,39.424976 430.309403,39.295699 431.059514,39.169599 431.809638,39.046575 432.559762,38.926627 433.309886,38.809754 434.059997,38.696162 434.059997,38.696162"/>
</svg>
