<?xml version="1.0" standalone="no"?>
<!DOCTYPE svg PUBLIC "-//W3C//DTD SVG 1.1//EN" "http://www.w3.org/Graphics/SVG/1.1/DTD/svg11.dtd">
<svg width="586" height="421" version="1.1" xmlns="http://www.w3.org/2000/svg" xmlns:xlink="http://www.w3.org/1999/xlink">
	<polyline style="shape-rendering:crispEdges" fill="none" stroke="rgb(229,229,229)" stroke-width="1" stroke-opacity="1" points="59.000000,17.000000 59.000000,396.000000"/>
	<polyline style="shape-rendering:crispEdges" fill="none" stroke="rgb(229,229,229)" stroke-width="1" stroke-opacity="1" points="121.750000,17.000000 121.750000,396.000000"/>
	<polyline style="shape-rendering:crispEdges" fill="none" stroke="rgb(229,229,229)" stroke-width="1" stroke-opacity="1" points="184.500000,17.000000 184.500000,396.000000"/>
	<polyline style="shape-rendering:crispEdges" fill="none" stroke="rgb(229,229,229)" stroke-width="1" stroke-opacity="1" points="247.250000,17.000000 247.250000,396.000000"/>
	<polyline style="shape-rendering:crispEdges" fill="none" stroke="rgb(229,229,229)" stroke-width="1" stroke-opacity="1" points="310.000000,17.000000 310.000000,396.000000"/>
	<polyline style="shape-rendering:crispEdges" fill="none" stroke="rgb(229,229,229)" stroke-width="1" stroke-opacity="1" points="372.750000,17.000000 372.750000,396.000000"/>
	<polyline style="shape-rendering:crispEdges" fill="none" stroke="rgb(229,229,229)" stroke-width="1" stroke-opacity="1" points="435.500000,17.000000 435.500000,396.000000"/>
	<polyline style="shape-rendering:crispEdges" fill="none" stroke="rgb(229,229,229)" stroke-width="1" stroke-opacity="1" points="498.250000,17.000000 498.250000,396.000000"/>
	<polyline style="shape-rendering:crispEdges" fill="none" stroke="rgb(229,229,229)" stroke-width="1" stroke-opacity="1" points="561.000000,17.000000 561.000000,396.000000"/>
	<polyline style="shape-rendering:crispEdges" fill="none" stroke="rgb(229,229,229)" stroke-width="1" stroke-opacity="1" points="59.000000,396.000000 561.000000,396.000000"/>
	<polyline style="shape-rendering:crispEdges" fill="none" stroke="rgb(229,229,229)" stroke-width="1" stroke-opacity="1" points="59.000000,370.733333 561.000000,370.733333"/>
	<polyline style="shape-rendering:crispEdges" fill="none" stroke="rgb(229,229,229)" stroke-width="1" stroke-opacity="1" points="59.000000,345.466667 561.000000,345.466667"/>
	<polyline style="shape-rendering:crispEdges" fill="none" stroke="rgb(229,229,229)" stroke-width="1" stroke-opacity="1" points="59.000000,320.200000 561.000000,320.200000"/>
	<polyline style="shape-rendering:crispEdges" fill="none" stroke="rgb(229,229,229)" stroke-width="1" stroke-opacity="1" points="59.000000,294.933333 561.000000,294.933333"/>
	<polyline style="shape-rendering:crispEdges" fill="none" stroke="rgb(229,229,229)" stroke-width="1" stroke-opacity="1" points="59.000000,269.666667 561.000000,269.666667"/>
	<polyline style="shape-rendering:crispEdges" fill="none" stroke="rgb(229,229,229)" stroke-width="1" stroke-opacity="1" points="59.000000,244.400000 561.000000,244.400000"/>
	<polyline style="shape-rendering:crispEdges" fill="none" stroke="rgb(229,229,229)" stroke-width="1" stroke-opacity="1" points="59.000000,219.133333 561.000000,219.133333"/>
	<polyline style="shape-rendering:crispEdges" fill="none" stroke="rgb(229,229,229)" stroke-width="1" stroke-opacity="1" points="59.000000,193.866667 561.000000,193.866667"/>
	<polyline style="shape-rendering:crispEdges" fill="none" stroke="rgb(229,229,229)" stroke-width="1" stroke-opacity="1" points="59.000000,168.600000 561.000000,168.600000"/>
	<polyline style="shape-rendering:crispEdges" fill="none" stroke="rgb(229,229,229)" stroke-width="1" stroke-opacity="1" points="59.000000,143.333333 561.000000,143.333333"/>
	<polyline style="shape-rendering:crispEdges" fill="none" stroke="rgb(229,229,229)" stroke-width="1" stroke-opacity="1" points="59.000000,118.066667 561.000000,118.066667"/>
	<polyline style="shape-rendering:crispEdges" fill="none" stroke="rgb(229,229,229)" stroke-width="1" stroke-opacity="1" points="59.000000,92.800000 561.000000,92.800000"/>
	<polyline style="shape-rendering:crispEdges" fill="none" stroke="rgb(229,229,229)" stroke-width="1" stroke-opacity="1" points="59.000000,67.533333 561.000000,67.533333"/>
	<polyline style="shape-rendering:crispEdges" fill="none" stroke="rgb(229,229,229)" stroke-width="1" stroke-opacity="1" points="59.000000,42.266667 561.000000,42.266667"/>
	<polyline style="shape-rendering:crispEdges" fill="none" stroke="rgb(229,229,229)" stroke-width="1" stroke-opacity="1" points="59.000000,17.000000 561.000000,17.000000"/>
	<polyline style="shape-rendering:crispEdges" fill="none" stroke="rgb(0,0,0)" stroke-width="1" stroke-opacity="1" points="59.000000,396.000000 561.000000,396.000000"/>
	<polyline style="shape-rendering:crispEdges" fill="none" stroke="rgb(0,0,0)" stroke-width="1" stroke-opacity="1" points="561.000000,396.000000 561.000000,17.000000"/>
	<polyline style="shape-rendering:crispEdges" fill="none" stroke="rgb(0,0,0)" stroke-width="1" stroke-opacity="1" points="561.000000,17.000000 59.000000,17.000000"/>
	<polyline style="shape-rendering:crispEdges" fill="none" stroke="rgb(0,0,0)" stroke-width="1" stroke-opacity="1" points="59.000000,17.000000 59.000000,396.000000"/>
	<polyline style="shape-rendering:crispEdges" fill="none" stroke="rgb(0,0,0)" stroke-width="1" stroke-opacity="1" points="59.000000,396.000000 59.000000,400.000000"/>
	<polyline style="shape-rendering:crispEdges" fill="none" stroke="rgb(0,0,0)" stroke-width="1" stroke-opacity="1" points="121.750000,396.000000 121.750000,400.000000"/>
	<polyline style="shape-rendering:crispEdges" fill="none" stroke="rgb(0,0,0)" stroke-width="1" stroke-opacity="1" points="184.500000,396.000000 184.500000,400.000000"/>
	<polyline style="shape-rendering:crispEdges" fill="none" stroke="rgb(0,0,0)" stroke-width="1" stroke-opacity="1" points="247.250000,396.000000 247.250000,400.000000"/>
	<polyline style="shape-rendering:crispEdges" fill="none" stroke="rgb(0,0,0)" stroke-width="1" stroke-opacity="1" points="310.000000,396.000000 310.000000,400.000000"/>
	<polyline style="shape-rendering:crispEdges" fill="none" stroke="rgb(0,0,0)" stroke-width="1" stroke-opacity="1" points="372.750000,396.000000 372.750000,400.000000"/>
	<polyline style="shape-rendering:crispEdges" fill="none" stroke="rgb(0,0,0)" stroke-width="1" stroke-opacity="1" points="435.500000,396.000000 435.500000,400.000000"/>
	<polyline style="shape-rendering:crispEdges" fill="none" stroke="rgb(0,0,0)" stroke-width="1" stroke-opacity="1" points="498.250000,396.000000 498.250000,400.000000"/>
	<polyline style="shape-rendering:crispEdges" fill="none" stroke="rgb(0,0,0)" stroke-width="1" stroke-opacity="1" points="561.000000,396.000000 561.000000,400.000000"/>
	<polyline style="shape-rendering:crispEdges" fill="none" stroke="rgb(0,0,0)" stroke-width="1" stroke-opacity="1" points="59.000000,396.000000 59.000000,402.400000"/>
	<text style="shape-rendering:crispEdges" x="59" y="412.5" fill="rgb(0,0,0)" dominant-baseline="central" font-size="11" font-family="Arial" text-anchor="middle">20</text>
	<polyline style="shape-rendering:crispEdges" fill="none" stroke="rgb(0,0,0)" stroke-width="1" stroke-opacity="1" points="184.500000,396.000000 184.500000,402.400000"/>
	<text style="shape-rendering:crispEdges" x="184.5" y="412.5" fill="rgb(0,0,0)" dominant-baseline="central" font-size="11" font-family="Arial" text-anchor="middle">30</text>
	<polyline style="shape-rendering:crispEdges" fill="none" stroke="rgb(0,0,0)" stroke-width="1" stroke-opacity="1" points="310.000000,396.000000 310.000000,402.400000"/>
	<text style="shape-rendering:crispEdges" x="310" y="412.5" fill="rgb(0,0,0)" dominant-baseline="central" font-size="11" font-family="Arial" text-anchor="middle">40</text>
	<polyline style="shape-rendering:crispEdges" fill="none" stroke="rgb(0,0,0)" stroke-width="1" stroke-opacity="1" points="435.500000,396.000000 435.500000,402.400000"/>
	<text style="shape-rendering:crispEdges" x="435.5" y="412.5" fill="rgb(0,0,0)" dominant-baseline="central" font-size="11" font-family="Arial" text-anchor="middle">50</text>
	<polyline style="shape-rendering:crispEdges" fill="none" stroke="rgb(0,0,0)" stroke-width="1" stroke-opacity="1" points="561.000000,396.000000 561.000000,402.400000"/>
	<text style="shape-rendering:crispEdges" x="561" y="412.5" fill="rgb(0,0,0)" dominant-baseline="central" font-size="11" font-family="Arial" text-anchor="middle">60</text>
	<polyline style="shape-rendering:crispEdges" fill="none" stroke="rgb(0,0,0)" stroke-width="1" stroke-opacity="1" points="55.000000,396.000000 59.000000,396.000000"/>
	<polyline style="shape-rendering:crispEdges" fill="none" stroke="rgb(0,0,0)" stroke-width="1" stroke-opacity="1" points="55.000000,370.733333 59.000000,370.733333"/>
	<polyline style="shape-rendering:crispEdges" fill="none" stroke="rgb(0,0,0)" stroke-width="1" stroke-opacity="1" points="55.000000,345.466667 59.000000,345.466667"/>
	<polyline style="shape-rendering:crispEdges" fill="none" stroke="rgb(0,0,0)" stroke-width="1" stroke-opacity="1" points="55.000000,320.200000 59.000000,320.200000"/>
	<polyline style="shape-rendering:crispEdges" fill="none" stroke="rgb(0,0,0)" stroke-width="1" stroke-opacity="1" points="55.000000,294.933333 59.000000,294.933333"/>
	<polyline style="shape-rendering:crispEdges" fill="none" stroke="rgb(0,0,0)" stroke-width="1" stroke-opacity="1" points="55.000000,269.666667 59.000000,269.666667"/>
	<polyline style="shape-rendering:crispEdges" fill="none" stroke="rgb(0,0,0)" stroke-width="1" stroke-opacity="1" points="55.000000,244.400000 59.000000,244.400000"/>
	<polyline style="shape-rendering:crispEdges" fill="none" stroke="rgb(0,0,0)" stroke-width="1" stroke-opacity="1" points="55.000000,219.133333 59.000000,219.133333"/>
	<polyline style="shape-rendering:crispEdges" fill="none" stroke="rgb(0,0,0)" stroke-width="1" stroke-opacity="1" points="55.000000,193.866667 59.000000,193.866667"/>
	<polyline style="shape-rendering:crispEdges" fill="none" stroke="rgb(0,0,0)" stroke-width="1" stroke-opacity="1" points="55.000000,168.600000 59.000000,168.600000"/>
	<polyline style="shape-rendering:crispEdges" fill="none" stroke="rgb(0,0,0)" stroke-width="1" stroke-opacity="1" points="55.000000,143.333333 59.000000,143.333333"/>
	<polyline style="shape-rendering:crispEdges" fill="none" stroke="rgb(0,0,0)" stroke-width="1" stroke-opacity="1" points="55.000000,118.066667 59.000000,118.066667"/>
	<polyline style="shape-rendering:crispEdges" fill="none" stroke="rgb(0,0,0)" stroke-width="1" stroke-opacity="1" points="55.000000,92.800000 59.000000,92.800000"/>
	<polyline style="shape-rendering:crispEdges" fill="none" stroke="rgb(0,0,0)" stroke-width="1" stroke-opacity="1" points="55.000000,67.533333 59.000000,67.533333"/>
	<polyline style="shape-rendering:crispEdges" fill="none" stroke="rgb(0,0,0)" stroke-width="1" stroke-opacity="1" points="55.000000,42.266667 59.000000,42.266667"/>
	<polyline style="shape-rendering:crispEdges" fill="none" stroke="rgb(0,0,0)" stroke-width="1" stroke-opacity="1" points="55.000000,17.000000 59.000000,17.000000"/>
	<rect style="shape-rendering:crispEdges" fill="none" stroke="none" stroke-dasharray="none" stroke-width="1" stroke-opacity="1" x="0" y="362.733" width="51" height="16"/>
	<polyline style="shape-rendering:crispEdges" fill="none" stroke="rgb(0,0,0)" stroke-width="1" stroke-opacity="1" points="52.600000,370.733333 59.000000,370.733333"/>
	<text style="shape-rendering:crispEdges" x="51" y="370.733" fill="rgb(0,0,0)" dominant-baseline="central" font-size="11" font-family="Arial" text-anchor="end">7.32</text>
	<polyline style="shape-rendering:crispEdges" fill="none" stroke="rgb(0,0,0)" stroke-width="1" stroke-opacity="1" points="52.600000,320.200000 59.000000,320.200000"/>
	<text style="shape-rendering:crispEdges" x="51" y="320.2" fill="rgb(0,0,0)" dominant-baseline="central" font-size="11" font-family="Arial" text-anchor="end">7.36</text>
	<polyline style="shape-rendering:crispEdges" fill="none" stroke="rgb(0,0,0)" stroke-width="1" stroke-opacity="1" points="52.600000,269.666667 59.000000,269.666667"/>
	<text style="shape-rendering:crispEdges" x="51" y="269.667" fill="rgb(0,0,0)" dominant-baseline="central" font-size="11" font-family="Arial" text-anchor="end">7.40</text>
	<polyline style="shape-rendering:crispEdges" fill="none" stroke="rgb(0,0,0)" stroke-width="1" stroke-opacity="1" points="52.600000,219.133333 59.000000,219.133333"/>
	<text style="shape-rendering:crispEdges" x="51" y="219.133" fill="rgb(0,0,0)" dominant-baseline="central" font-size="11" font-family="Arial" text-anchor="end">7.44</text>
	<polyline style="shape-rendering:crispEdges" fill="none" stroke="rgb(0,0,0)" stroke-width="1" stroke-opacity="1" points="52.600000,168.600000 59.000000,168.600000"/>
	<text style="shape-rendering:crispEdges" x="51" y="168.6" fill="rgb(0,0,0)" dominant-baseline="central" font-size="11" font-family="Arial" text-anchor="end">7.48</text>
	<polyline style="shape-rendering:crispEdges" fill="none" stroke="rgb(0,0,0)" stroke-width="1" stroke-opacity="1" points="52.600000,118.066667 59.000000,118.066667"/>
	<text style="shape-rendering:crispEdges" x="51" y="118.067" fill="rgb(0,0,0)" dominant-baseline="central" font-size="11" font-family="Arial" text-anchor="end">7.52</text>
	<polyline style="shape-rendering:crispEdges" fill="none" stroke="rgb(0,0,0)" stroke-width="1" stroke-opacity="1" points="52.600000,67.533333 59.000000,67.533333"/>
	<text style="shape-rendering:crispEdges" x="51" y="67.5333" fill="rgb(0,0,0)" dominant-baseline="central" font-size="11" font-family="Arial" text-anchor="end">7.56</text>
	<polyline style="shape-rendering:crispEdges" fill="none" stroke="rgb(0,0,0)" stroke-width="1" stroke-opacity="1" points="52.600000,17.000000 59.000000,17.000000"/>
	<text style="shape-rendering:crispEdges" x="51" y="17" fill="rgb(0,0,0)" dominant-baseline="central" font-size="11" font-family="Arial" text-anchor="end">7.60</text>
	<clipPath id="clipArea1">
		<rect x="59" y="17" width="502" height="379">
		</rect>
	</clipPath>
	<polyline fill="none" stroke="rgb(238,46,47)" stroke-width="4" stroke-opacity="1" clip-path="url(#clipArea1)" points="59.000000,73.745399 60.003999,74.869485 61.007998,75.989354 62.011997,77.105007 63.015996,78.215841 64.019995,79.322457 65.023994,80.424857 66.027993,81.523643 67.031992,82.617609 68.035991,83.707358 69.039990,84.792891 70.043989,85.874206 71.047989,86.951907 72.052011,88.024789 73.056011,89.094659 74.060010,90.159710 75.064009,91.221147 76.068008,92.278366 77.072007,93.331971 78.076006,94.381359 79.080005,95.427133 80.084004,96.469293 81.088003,97.507235 82.092002,98.541563 83.096001,99.572277 84.100000,100.598774 85.103999,101.622259 86.107998,102.641527 87.111997,103.657180 88.115996,104.669822 89.119995,105.678247 90.123994,106.683660 91.127993,107.684855 92.131992,108.683039 93.135991,109.677609 94.139990,110.668564 95.143989,111.656507 96.147989,112.640835 97.152011,113.621550 98.156011,114.599252 99.160010,115.573339 100.164009,116.543813 101.168008,117.511274 102.172007,118.475723 103.176006,119.436558 104.180005,120.394381 105.184004,121.349192 106.188003,122.300388 107.192002,123.248572 108.196001,124.193745 109.200000,125.135905 110.203999,126.074451 111.207998,127.010587 112.211997,127.943109 113.215996,128.872619 114.219995,129.799116 115.223994,130.723205 116.227993,131.643678 117.231992,132.561140 118.235991,133.476192 119.239990,134.387630 120.243989,135.296658 121.247989,136.202674 122.252011,137.105678 123.256011,138.006272 124.260010,138.903855 125.264009,139.798425 126.268008,140.689983 127.272007,141.579132 128.276006,142.465269 129.280005,143.348996 130.284004,144.229711 131.288003,145.108016 132.292002,145.983310 133.296001,146.856194 134.300000,147.726065 135.303999,148.593527 136.307998,149.458580 137.311997,150.320621 138.315996,151.180251 139.319995,152.036870 140.323994,152.891682 141.327993,153.743482 142.331992,154.592872 143.335991,155.439852 144.339990,156.283820 145.343989,157.125982 146.347989,157.965131 147.352011,158.801870 148.356011,159.636803 149.360010,160.468723 150.364009,161.298234 151.368008,162.125335 152.372007,162.950026 153.376006,163.772910 154.380005,164.592783 155.384004,165.410245 156.388003,166.225901 157.392002,167.039146 158.396001,167.849983 159.400000,168.658409 160.403999,169.464426 161.407998,170.268033 162.411997,171.069833 163.415996,171.869224 164.419995,172.666807 165.423994,173.461378 166.427993,174.254142 167.431992,175.044497 168.435991,175.833044 169.439990,176.619182 170.443989,177.403512 171.447989,178.185433 172.452011,178.964944 173.456011,179.742648 174.460010,180.518545 175.464009,181.292032 176.468008,182.063109 177.472007,182.832379 178.476006,183.599842 179.480005,184.364896 180.484004,185.128142 181.488003,185.888979 182.492002,186.648008 183.496001,187.405230 184.500000,188.160043 185.503999,188.913048 186.507998,189.664246 187.511997,190.413637 188.515996,191.160618 189.519995,191.905793 190.523994,192.649159 191.527993,193.390117 192.531992,194.129869 193.535991,194.867212 194.539990,195.602748 195.543989,196.336476 196.547989,197.068397 197.552011,197.798511 198.556011,198.526818 199.560010,199.252715 200.564009,199.977407 201.568008,200.699690 202.572007,201.420768 203.576006,202.139436 204.580005,202.856900 205.584004,203.571954 206.588003,204.285803 207.592002,204.997845 208.596001,205.707477 209.600000,206.415904 210.604023,207.122525 211.607998,207.827338 212.612021,208.530343 213.615996,209.231542 214.620019,209.931536 215.623994,210.629120 216.628017,211.325499 217.631992,212.020071 218.636015,212.712836 219.639990,213.403794 220.644013,214.093547 221.647989,214.781493 222.652011,215.467631 223.655987,216.151962 224.660010,216.835089 225.663985,217.516408 226.668008,218.195920 227.671983,218.874227 228.676006,219.550727 229.679981,220.225420 230.684004,220.898908 231.687979,221.570589 232.692002,222.240462 233.695977,222.909131 234.700000,223.575993 235.704023,224.241649 236.707998,224.905499 237.712021,225.567541 238.715996,226.228379 239.720019,226.888011 240.723994,227.545837 241.728017,228.201855 242.731992,228.856668 243.736015,229.510277 244.739990,230.162079 245.744013,230.812073 246.747989,231.461465 247.752011,232.108447 248.755987,232.754827 249.760010,233.398797 250.763985,234.042164 251.768008,234.683725 252.771983,235.324081 253.776006,235.962629 254.779981,236.599973 255.784004,237.235510 256.787979,237.870444 257.792002,238.502968 258.795977,239.134890 259.800000,239.765005 260.804023,240.393915 261.807998,241.021620 262.812021,241.647518 263.815996,242.272814 264.820019,242.896303 265.823994,243.517984 266.828017,244.139063 267.831992,244.758334 268.836015,245.376401 269.839990,245.992661 270.844013,246.608318 271.847989,247.222168 272.852011,247.835415 273.855987,248.446856 274.860010,249.056489 275.863985,249.665519 276.868008,250.273345 277.871983,250.879364 278.876006,251.484178 279.879981,252.088389 280.884004,252.690794 281.887979,253.291993 282.892002,253.891385 283.895977,254.490175 284.900000,255.087760 285.904023,255.684141 286.907998,256.278714 287.912021,256.872684 288.915996,257.464848 289.920019,258.056409 290.923994,258.646162 291.928017,259.235314 292.931992,259.822658 293.936015,260.408797 294.939990,260.994334 295.944013,261.578064 296.947989,262.161191 297.952011,262.742511 298.955987,263.323229 299.960010,263.902742 300.963985,264.480448 301.968008,265.057551 302.971983,265.633450 303.976006,266.208143 304.979981,266.781632 305.984004,267.353916 306.987979,267.924995 307.992002,268.494870 308.995977,269.064142 310.000000,269.631607 311.004023,270.198469 312.007998,270.764127 313.012021,271.328580 314.015996,271.891828 315.020019,272.453871 316.023994,273.015312 317.028017,273.574945 318.031992,274.133976 319.036015,274.691803 320.039990,275.249027 321.044013,275.804443 322.047989,276.359258 323.052011,276.912867 324.055987,277.465272 325.060010,278.016472 326.063985,278.567069 327.068008,279.115860 328.071983,279.664048 329.076006,280.211633 330.079981,280.757411 331.084004,281.302587 332.087979,281.846558 333.092002,282.389927 334.095977,282.932091 335.100000,283.473050 336.104023,284.012804 337.107998,284.551956 338.112021,285.089903 339.115996,285.626645 340.120019,286.162785 341.123994,286.697720 342.128017,287.231450 343.131992,287.764578 344.136015,288.296501 345.139990,288.827219 346.144013,289.357335 347.147989,289.886246 348.152011,290.414554 349.155987,290.941056 350.160010,291.467557 351.163985,291.992251 352.168008,292.516945 353.171983,293.039832 354.176006,293.562117 355.179981,294.083196 356.184004,294.603674 357.187979,295.122946 358.192002,295.641616 359.195977,296.159081 360.200000,296.675944 361.204023,297.191602 362.207998,297.706056 363.212021,298.219906 364.215996,298.732553 365.220019,299.244596 366.223994,299.756037 367.228017,300.266274 368.231992,300.775305 369.236015,301.283735 370.239990,301.790959 371.244013,302.297581 372.247989,302.802998 373.252011,303.307813 374.255987,303.812025 375.260010,304.315033 376.263985,304.816836 377.268008,305.318036 378.271983,305.818634 379.276006,306.318027 380.279981,306.816216 381.284004,307.314404 382.287979,307.811387 383.292002,308.307166 384.295977,308.802342 385.300000,309.296314 386.304023,309.790285 387.307998,310.282450 388.312021,310.774614 389.315996,311.264971 390.320019,311.755328 391.323994,312.244480 392.328017,312.733030 393.331992,313.220375 394.336015,313.707118 395.339990,314.193258 396.344013,314.678194 397.347989,315.162527 398.352011,315.645655 399.355987,316.128783 400.360010,316.610104 401.363985,317.091425 402.368008,317.571541 403.371983,318.051055 404.376006,318.529364 405.379981,319.007071 406.384004,319.484175 407.387979,319.960677 408.392002,320.435974 409.395977,320.910668 410.400000,321.384158 411.404023,321.857648 412.407998,322.329933 413.412021,322.801013 414.415996,323.272093 415.420019,323.741968 416.423994,324.211241 417.428017,324.679310 418.431992,325.146775 419.436015,325.613639 420.439990,326.079899 421.444013,326.545558 422.447989,327.010012 423.452011,327.473863 424.455987,327.937112 425.460010,328.399156 426.463985,328.860598 427.468008,329.321437 428.471983,329.781674 429.476006,330.241308 430.479981,330.699738 431.484004,331.157565 432.487979,331.614790 433.492002,332.071412 434.495977,332.526830 435.500000,332.982248 436.504023,333.436460 437.507998,333.890071 438.512021,334.342477 439.515996,334.794882 440.520019,335.246083 441.523994,335.696681 442.528017,336.146677 443.531992,336.596071 444.536015,337.044862 445.539990,337.492448 446.544013,337.940035 447.547989,338.386416 448.552011,338.832196 449.555987,339.276770 450.560010,339.721344 451.563985,340.165316 452.568008,340.608083 453.571983,341.050248 454.576006,341.491810 455.579981,341.932770 456.584004,342.373128 457.587979,342.812883 458.592002,343.252036 459.595977,343.689984 460.600000,344.127932 461.604023,344.564675 462.607998,345.000815 463.612021,345.436354 464.615996,345.871290 465.620019,346.305623 466.623994,346.739354 467.628017,347.171880 468.631992,347.604407 469.636015,348.036331 470.639990,348.467050 471.644013,348.897166 472.647989,349.327283 473.652011,349.756195 474.655987,350.184504 475.660010,350.612211 476.663985,351.039316 477.668008,351.465818 478.671983,351.891718 479.676006,352.317015 480.679981,352.741710 481.684004,353.165201 482.687979,353.588691 483.692002,354.011579 484.695977,354.433262 485.700000,354.854945 486.704023,355.275423 487.707998,355.695901 488.712021,356.115174 489.715996,356.534448 490.720019,356.952516 491.723994,357.370585 492.728017,357.787449 493.731992,358.204312 494.736015,358.619971 495.739990,359.035630 496.744013,359.450084 497.747989,359.863936 498.752011,360.277788 499.755987,360.690435 500.760010,361.103082 501.763985,361.514524 502.768008,361.925966 503.771983,362.336203 504.776006,362.746441 505.779981,363.155473 506.784004,363.564506 507.787979,363.972333 508.792002,364.380161 509.795977,364.787386 510.800000,365.193407 511.804023,365.599427 512.807998,366.004845 513.812021,366.409661 514.815996,366.813272 515.820019,367.216883 516.823994,367.619891 517.828017,368.022297 518.831992,368.424703 519.836015,368.825905 520.839990,369.226503 521.844013,369.626500 522.847989,370.025894 523.852011,370.425288 524.855987,370.823477 525.860010,371.221666 526.863985,371.619253 527.868008,372.015635 528.871983,372.412017 529.876006,372.807797 530.879981,373.202974 531.884004,373.597549 532.887979,373.991521 533.892002,374.385494 534.895977,374.778261 535.900000,375.170426 536.904023,375.562592 537.907998,375.954154 538.912021,376.345115 539.915996,376.734870 540.920019,377.124626 541.923994,377.514381 542.928017,377.902932 543.931992,378.290881 544.936015,378.678829 545.939990,379.065572 546.944013,379.452316 547.947989,379.838457 548.952011,380.223996 549.955987,380.608932 550.960010,380.993266 551.963985,381.377600 552.968008,381.760729 553.971983,382.143858 554.976006,382.526385 555.979981,382.908309 556.984004,383.289631 557.987979,383.670953 558.992002,384.051070 559.995977,384.431187 561.000000,384.810100 561.000000,384.810100"/>
	<clipPath id="clipArea2">
		<rect x="59" y="17" width="502" height="379">
		</rect>
	</clipPath>
	<polyline fill="none" stroke="rgb(0,0,0)" stroke-dasharray="4,2" stroke-width="2" stroke-opacity="1" clip-path="url(#clipArea2)" points="59.000000,72.745407 60.003999,73.879132 61.007998,75.008640 62.011997,76.133931 63.015996,77.254403 64.019995,78.370056 65.023994,79.482094 66.027993,80.589314 67.031992,81.692316 68.035991,82.791101 69.039990,83.885670 70.043989,84.976021 71.047989,86.062759 72.052011,87.144677 73.056011,88.222378 74.060010,89.296465 75.064009,90.366335 76.068008,91.431988 77.072007,92.494027 78.076006,93.551849 79.080005,94.606056 80.084004,95.656047 81.088003,96.702423 82.092002,97.744582 83.096001,98.783127 84.100000,99.818058 85.103999,100.848772 86.107998,101.876473 87.111997,102.899958 88.115996,103.919829 89.119995,104.936085 90.123994,105.948726 91.127993,106.957753 92.131992,107.963166 93.135991,108.964965 94.139990,109.963751 95.143989,110.958320 96.147989,111.949878 97.152011,112.937821 98.156011,113.922752 99.160010,114.903466 100.164009,115.881168 101.168008,116.855858 102.172007,117.826934 103.176006,118.794998 104.180005,119.759447 105.184004,120.720282 106.188003,121.678707 107.192002,122.633518 108.196001,123.584714 109.200000,124.533501 110.203999,125.478673 111.207998,126.420833 112.211997,127.359379 113.215996,128.295515 114.219995,129.228640 115.223994,130.158149 116.227993,131.084647 117.231992,132.008735 118.235991,132.929209 119.239990,133.847273 120.243989,134.761723 121.247989,135.673763 122.252011,136.582791 123.256011,137.488807 124.260010,138.391811 125.264009,139.292405 126.268008,140.189988 127.272007,141.084558 128.276006,141.976116 129.280005,142.865265 130.284004,143.751402 131.288003,144.635129 132.292002,145.515844 133.296001,146.394149 134.300000,147.269443 135.303999,148.141724 136.307998,149.011596 137.311997,149.879058 138.315996,150.744111 139.319995,151.606151 140.323994,152.465180 141.327993,153.322401 142.331992,154.176610 143.335991,155.028410 144.339990,155.877198 145.343989,156.724178 146.347989,157.568146 147.352011,158.409705 148.356011,159.248854 149.360010,160.085594 150.364009,160.919924 151.368008,161.751242 152.372007,162.580752 153.376006,163.407853 154.380005,164.232545 155.384004,165.054224 156.388003,165.874097 157.392002,166.691559 158.396001,167.506612 159.400000,168.319256 160.403999,169.130092 161.407998,169.937916 162.411997,170.743933 163.415996,171.546938 164.419995,172.348738 165.423994,173.147526 166.427993,173.944507 167.431992,174.739078 168.435991,175.531240 169.439990,176.320992 170.443989,177.108936 171.447989,177.895074 172.452011,178.678802 173.456011,179.460120 174.460010,180.239029 175.464009,181.016130 176.468008,181.791425 177.472007,182.564309 178.476006,183.335387 179.480005,184.104055 180.484004,184.870313 181.488003,185.635366 182.492002,186.397408 183.496001,187.158244 184.500000,187.916671 185.503999,188.673291 186.507998,189.427501 187.511997,190.179904 188.515996,190.930500 189.519995,191.678686 190.523994,192.425667 191.527993,193.170239 192.531992,193.912401 193.535991,194.653358 194.539990,195.391906 195.543989,196.128647 196.547989,196.863580 197.552011,197.596706 198.556011,198.328025 199.560010,199.056934 200.564009,199.784638 201.568008,200.509933 202.572007,201.234023 203.576006,201.955703 204.580005,202.675576 205.584004,203.393642 206.588003,204.110503 207.592002,204.824955 208.596001,205.537599 209.600000,206.248436 210.604023,206.958068 211.607998,207.665291 212.612021,208.371309 213.615996,209.074917 214.620019,209.777320 215.623994,210.477916 216.628017,211.176705 217.631992,211.873687 218.636015,212.568862 219.639990,213.262229 220.644013,213.954391 221.647989,214.644747 222.652011,215.333295 223.655987,216.020036 224.660010,216.705572 225.663985,217.389301 226.668008,218.071222 227.671983,218.751337 228.676006,219.430246 229.679981,220.107349 230.684004,220.782644 231.687979,221.456734 232.692002,222.129018 233.695977,222.799493 234.700000,223.468765 235.704023,224.136229 236.707998,224.802488 237.712021,225.466940 238.715996,226.129584 239.720019,226.791024 240.723994,227.450657 241.728017,228.109085 242.731992,228.765705 243.736015,229.421121 244.739990,230.074730 245.744013,230.727134 246.747989,231.377730 247.752011,232.027122 248.755987,232.674707 249.760010,233.321087 250.763985,233.966262 251.768008,234.609629 252.771983,235.251190 253.776006,235.891546 254.779981,236.530697 255.784004,237.168643 256.787979,237.804782 257.792002,238.439113 258.795977,239.072843 259.800000,239.704765 260.804023,240.334880 261.807998,240.964392 262.812021,241.592097 263.815996,242.217995 264.820019,242.843291 265.823994,243.466779 266.828017,244.089063 267.831992,244.710142 268.836015,245.329413 269.839990,245.947480 270.844013,246.564342 271.847989,247.179999 272.852011,247.793849 273.855987,248.407097 274.860010,249.018537 275.863985,249.628773 276.868008,250.237803 277.871983,250.845027 278.876006,251.451648 279.879981,252.056462 280.884004,252.660071 281.887979,253.262475 282.892002,253.863675 283.895977,254.463669 284.900000,255.062459 285.904023,255.659442 286.907998,256.255822 287.912021,256.850395 288.915996,257.444366 289.920019,258.036529 290.923994,258.627488 291.928017,259.217844 292.931992,259.806393 293.936015,260.393737 294.939990,260.979877 295.944013,261.565413 296.947989,262.149143 297.952011,262.731668 298.955987,263.312988 299.960010,263.893706 300.963985,264.472617 301.968008,265.050322 302.971983,265.627426 303.976006,266.202722 304.979981,266.777415 305.984004,267.350302 306.987979,267.922586 307.992002,268.493665 308.995977,269.063540 310.000000,269.632209 311.004023,270.199674 312.007998,270.765934 313.012021,271.330989 314.015996,271.895442 315.020019,272.458088 316.023994,273.020131 317.028017,273.580969 318.031992,274.140603 319.036015,274.699634 320.039990,275.256858 321.044013,275.813479 322.047989,276.368294 323.052011,276.923108 324.055987,277.476115 325.060010,278.027918 326.063985,278.579117 327.068008,279.129113 328.071983,279.677903 329.076006,280.225488 330.079981,280.772471 331.084004,281.318250 332.087979,281.862823 333.092002,282.406794 334.095977,282.948958 335.100000,283.490520 336.104023,284.031479 337.107998,284.570630 338.112021,285.109180 339.115996,285.646524 340.120019,286.183267 341.123994,286.718804 342.128017,287.253137 343.131992,287.786264 344.136015,288.318790 345.139990,288.850110 346.144013,289.380829 347.147989,289.910342 348.152011,290.438650 349.155987,290.965754 350.160010,291.492256 351.163985,292.018154 352.168008,292.542849 353.171983,293.066338 354.176006,293.588622 355.179981,294.110305 356.184004,294.631384 357.187979,295.151259 358.192002,295.669929 359.195977,296.187394 360.200000,296.704257 361.204023,297.220518 362.207998,297.735573 363.212021,298.249424 364.215996,298.762673 365.220019,299.275319 366.223994,299.786760 367.228017,300.296996 368.231992,300.806630 369.236015,301.315060 370.239990,301.822886 371.244013,302.329508 372.247989,302.835528 373.252011,303.340343 374.255987,303.844555 375.260010,304.347563 376.263985,304.849968 377.268008,305.351168 378.271983,305.851766 379.276006,306.351159 380.279981,306.849950 381.284004,307.348138 382.287979,307.845122 383.292002,308.341503 384.295977,308.836679 385.300000,309.331253 386.304023,309.824622 387.307998,310.317389 388.312021,310.808951 389.315996,311.299911 390.320019,311.790268 391.323994,312.279420 392.328017,312.767970 393.331992,313.255917 394.336015,313.742660 395.339990,314.228198 396.344013,314.713736 397.347989,315.198069 398.352011,315.681197 399.355987,316.164325 400.360010,316.645646 401.363985,317.126967 402.368008,317.607083 403.371983,318.086597 404.376006,318.564906 405.379981,319.043215 406.384004,319.519717 407.387979,319.996219 408.392002,320.471516 409.395977,320.946210 410.400000,321.419700 411.404023,321.893190 412.407998,322.364872 413.412021,322.836555 414.415996,323.307033 415.420019,323.776908 416.423994,324.246181 417.428017,324.714851 418.431992,325.182317 419.436015,325.649180 420.439990,326.114839 421.444013,326.580497 422.447989,327.044951 423.452011,327.508802 424.455987,327.971449 425.460010,328.433493 426.463985,328.895537 427.468008,329.355774 428.471983,329.816011 429.476006,330.275043 430.479981,330.733473 431.484004,331.191300 432.487979,331.648525 433.492002,332.105147 434.495977,332.560565 435.500000,333.015380 436.504023,333.469593 437.507998,333.922601 438.512021,334.375609 439.515996,334.827412 440.520019,335.278613 441.523994,335.729211 442.528017,336.179207 443.531992,336.627998 444.536015,337.076187 445.539990,337.523774 446.544013,337.970757 447.547989,338.417139 448.552011,338.862918 449.555987,339.307493 450.560010,339.752067 451.563985,340.195436 452.568008,340.638204 453.571983,341.080368 454.576006,341.521931 455.579981,341.962288 456.584004,342.402646 457.587979,342.841798 458.592002,343.280349 459.595977,343.718297 460.600000,344.155642 461.604023,344.592385 462.607998,345.028526 463.612021,345.464064 464.615996,345.898398 465.620019,346.332731 466.623994,346.765860 467.628017,347.198386 468.631992,347.630310 469.636015,348.061632 470.639990,348.492351 471.644013,348.922467 472.647989,349.351981 473.652011,349.780893 474.655987,350.208600 475.660010,350.636307 476.663985,351.062810 477.668008,351.489312 478.671983,351.914609 479.676006,352.339907 480.679981,352.763999 481.684004,353.187490 482.687979,353.610377 483.692002,354.033265 484.695977,354.454948 485.700000,354.876029 486.704023,355.296507 487.707998,355.716383 488.712021,356.135656 489.715996,356.554327 490.720019,356.972396 491.723994,357.389862 492.728017,357.806123 493.731992,358.222384 494.736015,358.638043 495.739990,359.053100 496.744013,359.467554 497.747989,359.881406 498.752011,360.294655 499.755987,360.706700 500.760010,361.118744 501.763985,361.530186 502.768008,361.941026 503.771983,362.351263 504.776006,362.760898 505.779981,363.169931 506.784004,363.578361 507.787979,363.986189 508.792002,364.393414 509.795977,364.800037 510.800000,365.206057 511.804023,365.611475 512.807998,366.016291 513.812021,366.420504 514.815996,366.824718 515.820019,367.227726 516.823994,367.630132 517.828017,368.032538 518.831992,368.433739 519.836015,368.834941 520.839990,369.234937 521.844013,369.634933 522.847989,370.034328 523.852011,370.432517 524.855987,370.830706 525.860010,371.228293 526.863985,371.625277 527.868008,372.021659 528.871983,372.417439 529.876006,372.813218 530.879981,373.207793 531.884004,373.602368 532.887979,373.995738 533.892002,374.389108 534.895977,374.781273 535.900000,375.173438 536.904023,375.565001 537.907998,375.955962 538.912021,376.346320 539.915996,376.736677 540.920019,377.125831 541.923994,377.514381 542.928017,377.902932 543.931992,378.290881 544.936015,378.678226 545.939990,379.064970 546.944013,379.451111 547.947989,379.836650 548.952011,380.221586 549.955987,380.606523 550.960010,380.990254 551.963985,381.373986 552.968008,381.757115 553.971983,382.139641 554.976006,382.521566 555.979981,382.903490 556.984004,383.284210 557.987979,383.664929 558.992002,384.045046 559.995977,384.423958 561.000000,384.803473 561.000000,384.803473"/>
</svg>
