<?xml version="1.0" standalone="no"?>
<!DOCTYPE svg PUBLIC "-//W3C//DTD SVG 1.1//EN" "http://www.w3.org/Graphics/SVG/1.1/DTD/svg11.dtd">
<svg width="300" height="300" version="1.1" xmlns="http://www.w3.org/2000/svg" xmlns:xlink="http://www.w3.org/1999/xlink">
	<polyline style="shape-rendering:crispEdges" fill="none" stroke="rgb(229,229,229)" stroke-width="1" stroke-opacity="1" points="59.000000,17.000000 59.000000,275.000000"/>
	<polyline style="shape-rendering:crispEdges" fill="none" stroke="rgb(229,229,229)" stroke-width="1" stroke-opacity="1" points="113.000000,17.000000 113.000000,275.000000"/>
	<polyline style="shape-rendering:crispEdges" fill="none" stroke="rgb(229,229,229)" stroke-width="1" stroke-opacity="1" points="167.000000,17.000000 167.000000,275.000000"/>
	<polyline style="shape-rendering:crispEdges" fill="none" stroke="rgb(229,229,229)" stroke-width="1" stroke-opacity="1" points="221.000000,17.000000 221.000000,275.000000"/>
	<polyline style="shape-rendering:crispEdges" fill="none" stroke="rgb(229,229,229)" stroke-width="1" stroke-opacity="1" points="275.000000,17.000000 275.000000,275.000000"/>
	<polyline style="shape-rendering:crispEdges" fill="none" stroke="rgb(229,229,229)" stroke-width="1" stroke-opacity="1" points="59.000000,275.000000 275.000000,275.000000"/>
	<polyline style="shape-rendering:crispEdges" fill="none" stroke="rgb(229,229,229)" stroke-width="1" stroke-opacity="1" points="59.000000,238.142857 275.000000,238.142857"/>
	<polyline style="shape-rendering:crispEdges" fill="none" stroke="rgb(229,229,229)" stroke-width="1" stroke-opacity="1" points="59.000000,201.285714 275.000000,201.285714"/>
	<polyline style="shape-rendering:crispEdges" fill="none" stroke="rgb(229,229,229)" stroke-width="1" stroke-opacity="1" points="59.000000,164.428571 275.000000,164.428571"/>
	<polyline style="shape-rendering:crispEdges" fill="none" stroke="rgb(229,229,229)" stroke-width="1" stroke-opacity="1" points="59.000000,127.571429 275.000000,127.571429"/>
	<polyline style="shape-rendering:crispEdges" fill="none" stroke="rgb(229,229,229)" stroke-width="1" stroke-opacity="1" points="59.000000,90.714286 275.000000,90.714286"/>
	<polyline style="shape-rendering:crispEdges" fill="none" stroke="rgb(229,229,229)" stroke-width="1" stroke-opacity="1" points="59.000000,53.857143 275.000000,53.857143"/>
	<polyline style="shape-rendering:crispEdges" fill="none" stroke="rgb(229,229,229)" stroke-width="1" stroke-opacity="1" points="59.000000,17.000000 275.000000,17.000000"/>
	<polyline style="shape-rendering:crispEdges" fill="none" stroke="rgb(192,192,192)" stroke-width="1" stroke-opacity="1" points="59.000000,90.714286 275.000000,90.714286"/>
	<polyline style="shape-rendering:crispEdges" fill="none" stroke="rgb(0,0,0)" stroke-width="1" stroke-opacity="1" points="59.000000,275.000000 275.000000,275.000000"/>
	<polyline style="shape-rendering:crispEdges" fill="none" stroke="rgb(0,0,0)" stroke-width="1" stroke-opacity="1" points="275.000000,275.000000 275.000000,17.000000"/>
	<polyline style="shape-rendering:crispEdges" fill="none" stroke="rgb(0,0,0)" stroke-width="1" stroke-opacity="1" points="275.000000,17.000000 59.000000,17.000000"/>
	<polyline style="shape-rendering:crispEdges" fill="none" stroke="rgb(0,0,0)" stroke-width="1" stroke-opacity="1" points="59.000000,17.000000 59.000000,275.000000"/>
	<polyline style="shape-rendering:crispEdges" fill="none" stroke="rgb(0,0,0)" stroke-width="1" stroke-opacity="1" points="59.000000,275.000000 59.000000,279.000000"/>
	<polyline style="shape-rendering:crispEdges" fill="none" stroke="rgb(0,0,0)" stroke-width="1" stroke-opacity="1" points="113.000000,275.000000 113.000000,279.000000"/>
	<polyline style="shape-rendering:crispEdges" fill="none" stroke="rgb(0,0,0)" stroke-width="1" stroke-opacity="1" points="167.000000,275.000000 167.000000,279.000000"/>
	<polyline style="shape-rendering:crispEdges" fill="none" stroke="rgb(0,0,0)" stroke-width="1" stroke-opacity="1" points="221.000000,275.000000 221.000000,279.000000"/>
	<polyline style="shape-rendering:crispEdges" fill="none" stroke="rgb(0,0,0)" stroke-width="1" stroke-opacity="1" points="275.000000,275.000000 275.000000,279.000000"/>
	<polyline style="shape-rendering:crispEdges" fill="none" stroke="rgb(0,0,0)" stroke-width="1" stroke-opacity="1" points="59.000000,275.000000 59.000000,281.400000"/>
	<text style="shape-rendering:crispEdges" x="59" y="291.5" fill="rgb(0,0,0)" dominant-baseline="central" font-size="11" font-family="Arial" text-anchor="middle">6</text>
	<polyline style="shape-rendering:crispEdges" fill="none" stroke="rgb(0,0,0)" stroke-width="1" stroke-opacity="1" points="167.000000,275.000000 167.000000,281.400000"/>
	<text style="shape-rendering:crispEdges" x="167" y="291.5" fill="rgb(0,0,0)" dominant-baseline="central" font-size="11" font-family="Arial" text-anchor="middle">7</text>
	<polyline style="shape-rendering:crispEdges" fill="none" stroke="rgb(0,0,0)" stroke-width="1" stroke-opacity="1" points="275.000000,275.000000 275.000000,281.400000"/>
	<text style="shape-rendering:crispEdges" x="275" y="291.5" fill="rgb(0,0,0)" dominant-baseline="central" font-size="11" font-family="Arial" text-anchor="middle">8</text>
	<polyline style="shape-rendering:crispEdges" fill="none" stroke="rgb(0,0,0)" stroke-width="1" stroke-opacity="1" points="55.000000,275.000000 59.000000,275.000000"/>
	<polyline style="shape-rendering:crispEdges" fill="none" stroke="rgb(0,0,0)" stroke-width="1" stroke-opacity="1" points="55.000000,238.142857 59.000000,238.142857"/>
	<polyline style="shape-rendering:crispEdges" fill="none" stroke="rgb(0,0,0)" stroke-width="1" stroke-opacity="1" points="55.000000,201.285714 59.000000,201.285714"/>
	<polyline style="shape-rendering:crispEdges" fill="none" stroke="rgb(0,0,0)" stroke-width="1" stroke-opacity="1" points="55.000000,164.428571 59.000000,164.428571"/>
	<polyline style="shape-rendering:crispEdges" fill="none" stroke="rgb(0,0,0)" stroke-width="1" stroke-opacity="1" points="55.000000,127.571429 59.000000,127.571429"/>
	<polyline style="shape-rendering:crispEdges" fill="none" stroke="rgb(0,0,0)" stroke-width="1" stroke-opacity="1" points="55.000000,90.714286 59.000000,90.714286"/>
	<polyline style="shape-rendering:crispEdges" fill="none" stroke="rgb(0,0,0)" stroke-width="1" stroke-opacity="1" points="55.000000,53.857143 59.000000,53.857143"/>
	<polyline style="shape-rendering:crispEdges" fill="none" stroke="rgb(0,0,0)" stroke-width="1" stroke-opacity="1" points="55.000000,17.000000 59.000000,17.000000"/>
	<rect style="shape-rendering:crispEdges" fill="none" stroke="none" stroke-dasharray="none" stroke-width="1" stroke-opacity="1" x="0" y="267" width="51" height="16"/>
	<polyline style="shape-rendering:crispEdges" fill="none" stroke="rgb(0,0,0)" stroke-width="1" stroke-opacity="1" points="52.600000,275.000000 59.000000,275.000000"/>
	<text style="shape-rendering:crispEdges" x="51" y="275" fill="rgb(0,0,0)" dominant-baseline="central" font-size="11" font-family="Arial" text-anchor="end">-1.0</text>
	<polyline style="shape-rendering:crispEdges" fill="none" stroke="rgb(0,0,0)" stroke-width="1" stroke-opacity="1" points="52.600000,238.142857 59.000000,238.142857"/>
	<text style="shape-rendering:crispEdges" x="51" y="238.143" fill="rgb(0,0,0)" dominant-baseline="central" font-size="11" font-family="Arial" text-anchor="end">-0.8</text>
	<polyline style="shape-rendering:crispEdges" fill="none" stroke="rgb(0,0,0)" stroke-width="1" stroke-opacity="1" points="52.600000,201.285714 59.000000,201.285714"/>
	<text style="shape-rendering:crispEdges" x="51" y="201.286" fill="rgb(0,0,0)" dominant-baseline="central" font-size="11" font-family="Arial" text-anchor="end">-0.6</text>
	<polyline style="shape-rendering:crispEdges" fill="none" stroke="rgb(0,0,0)" stroke-width="1" stroke-opacity="1" points="52.600000,164.428571 59.000000,164.428571"/>
	<text style="shape-rendering:crispEdges" x="51" y="164.429" fill="rgb(0,0,0)" dominant-baseline="central" font-size="11" font-family="Arial" text-anchor="end">-0.4</text>
	<polyline style="shape-rendering:crispEdges" fill="none" stroke="rgb(0,0,0)" stroke-width="1" stroke-opacity="1" points="52.600000,127.571429 59.000000,127.571429"/>
	<text style="shape-rendering:crispEdges" x="51" y="127.571" fill="rgb(0,0,0)" dominant-baseline="central" font-size="11" font-family="Arial" text-anchor="end">-0.2</text>
	<polyline style="shape-rendering:crispEdges" fill="none" stroke="rgb(0,0,0)" stroke-width="1" stroke-opacity="1" points="52.600000,90.714286 59.000000,90.714286"/>
	<text style="shape-rendering:crispEdges" x="51" y="90.7143" fill="rgb(0,0,0)" dominant-baseline="central" font-size="11" font-family="Arial" text-anchor="end">0.0</text>
	<polyline style="shape-rendering:crispEdges" fill="none" stroke="rgb(0,0,0)" stroke-width="1" stroke-opacity="1" points="52.600000,53.857143 59.000000,53.857143"/>
	<text style="shape-rendering:crispEdges" x="51" y="53.8571" fill="rgb(0,0,0)" dominant-baseline="central" font-size="11" font-family="Arial" text-anchor="end">0.2</text>
	<polyline style="shape-rendering:crispEdges" fill="none" stroke="rgb(0,0,0)" stroke-width="1" stroke-opacity="1" points="52.600000,17.000000 59.000000,17.000000"/>
	<text style="shape-rendering:crispEdges" x="51" y="17" fill="rgb(0,0,0)" dominant-baseline="central" font-size="11" font-family="Arial" text-anchor="end">0.4</text>
	<clipPath id="clipArea1">
		<rect x="59" y="17" width="216" height="258">
		</rect>
	</clipPath>
	<polyline fill="none" stroke="rgb(0,0,0)" stroke-width="2" stroke-opacity="1" clip-path="url(#clipArea1)" points="56.368328,36.762567 60.356365,39.634001 64.249903,42.330945 68.046675,44.828961 71.745239,47.112042 75.345236,49.171010 78.846819,51.002121 82.250813,52.605944 85.558556,53.986392 88.771645,55.149984 91.892191,56.105216 94.922358,56.862064 97.864616,57.431596 100.721491,57.825630 103.495659,58.056492 106.189850,58.136773 108.806845,58.079172 111.349270,57.896333 113.819906,57.600724 116.221483,57.204545 118.556524,56.719630 120.827604,56.157392 123.037247,55.528758 125.187769,54.844135 127.281591,54.113384 129.320877,53.345783 131.307789,52.550032 133.244335,51.734237 135.132524,50.905918 136.974211,50.072016 138.771196,49.238893 140.525181,48.412370 142.237812,47.597726 143.910583,46.799720 145.545040,46.022634 147.142572,45.270274 148.704519,44.546014 150.232168,43.852801 151.726755,43.193201 153.189413,42.569431 154.621326,41.983348 156.023474,41.436512 157.396885,40.930196 158.742538,40.465407 160.061361,40.042913 161.354280,39.663269 162.622068,39.326815 163.865498,39.033727 165.085443,38.784016 166.282627,38.577549 167.457666,38.414065 168.611334,38.293183 169.744247,38.214431 170.857025,38.177249 171.950285,38.180989 173.024593,38.224954 174.080465,38.308380 175.118467,38.430459 176.139114,38.590346 177.142870,38.787168 178.130198,39.020024 179.101612,39.287985 180.057526,39.590125 180.998299,39.925491 181.924395,40.293146 182.836226,40.692140 183.734100,41.121521 184.618431,41.580351 185.489578,42.067696 186.347851,42.582634 187.193558,43.124252 188.027060,43.691662 188.848665,44.283973 189.658632,44.900321 190.457218,45.539864 191.244783,46.201766 192.021534,46.885216 192.787779,47.589427 193.543724,48.313624 194.289576,49.057051 195.025642,49.818982 195.752131,50.598698 196.469297,51.395512 197.177246,52.208744 197.876234,53.037750 198.566519,53.881890 199.248255,54.740553 199.921597,55.613142 200.586750,56.499082 201.243870,57.397814 201.893213,58.308798 202.534832,59.231514 203.168983,60.165453 203.795771,61.110126 204.415348,62.065064 205.027870,63.029805 205.633492,64.003916 206.232367,64.986966 206.824598,65.978547 207.410341,66.978260 207.989698,67.985721 208.562824,69.000562 209.129822,70.022424 209.690794,71.050966 210.245895,72.085856 210.795229,73.126771 211.338898,74.173403 211.877005,75.225456 212.409653,76.282641 212.936893,77.344681 213.458933,78.411310 213.975822,79.482272 214.487614,80.557316 214.994410,81.636205 215.496365,82.718708 215.993479,83.804603 216.485855,84.893676 216.973648,85.985721 217.456858,87.080540 217.935587,88.177940 218.409939,89.277738 218.879965,90.379755 219.345716,91.483822 219.807297,92.589772 220.264757,93.697446 220.718149,94.806694 221.167576,95.917365 221.613140,97.029319 222.054790,98.142419 222.492682,99.256534 222.926813,100.371535 223.357340,101.487303 223.784210,102.603718 224.207527,103.720666 224.627342,104.838041 225.043707,105.955736 225.456673,107.073650 225.866343,108.191687 226.272665,109.309753 226.675795,110.427755 227.075680,111.545611 227.472475,112.663233 227.866129,113.780542 228.256744,114.897462 228.644321,116.013919 229.028963,117.129837 229.410669,118.245154 229.789492,119.359795 230.165482,120.473706 230.538691,121.586817 230.909119,122.699075 231.276817,123.810418 231.641787,124.920798 232.004181,126.030156 232.363949,127.138448 232.721090,128.245620 233.075760,129.351627 233.427855,130.456427 233.777529,131.559974 234.124731,132.662228 234.469513,133.763149 234.811926,134.862698 235.152021,135.960844 235.489799,137.057542 235.825260,138.152769 236.158455,139.246485 236.489435,140.338664 236.818253,141.429277 237.144855,142.518292 237.469296,143.605681 237.791676,144.691417 238.111944,145.775483 238.430101,146.857853 238.746250,147.938498 239.060390,149.017396 239.372522,150.094537 239.682697,151.169893 239.990967,152.243442 240.297228,153.315173 240.601635,154.385064 240.904188,155.453105 241.204887,156.519273 241.503733,157.583556 241.800776,158.645940 242.096016,159.706412 242.389505,160.764957 242.681192,161.821568 242.971231,162.876229 243.259520,163.928925 243.546108,164.979654 243.831049,166.028406 244.114290,167.075164 244.395935,168.119929 244.675983,169.162689 244.954384,170.203434 245.231239,171.242157 245.506498,172.278854 245.780264,173.313519 246.052433,174.346146 246.323109,175.376724 246.592291,176.405254 246.860031,177.431736 247.126278,178.456157 247.391031,179.478514 247.654394,180.498811 247.916315,181.517033 248.176846,182.533189 248.435986,183.547274 248.693735,184.559279 248.950146,185.569207 249.205166,186.577059 249.458847,187.582824 249.711241,188.586524 249.962347,189.588126 250.212114,190.587652 250.460594,191.585091 250.707838,192.580453 250.953794,193.573729 251.198515,194.564929 251.441948,195.554042 251.684248,196.541079 251.925261,197.526029 252.165140,198.508903 252.403784,199.489711 252.641294,200.468433 252.877621,201.445079 253.112762,202.419659 253.346823,203.392164 253.579699,204.362604 253.811493,205.330989 254.042154,206.297298 254.271683,207.261554 254.500181,208.223744 254.727547,209.183892 254.953882,210.141974 255.179136,211.098024 255.403309,212.052020 255.626503,213.003973 255.848616,213.953883 256.069750,214.901772 256.289803,215.847618 256.508928,216.791442 256.726973,217.733235 256.944090,218.673017 257.160229,219.610779 257.375389,220.546530 257.589571,221.480271 257.802774,222.412013 258.015102,223.341756 258.226452,224.269499 258.436823,225.195255 258.646370,226.119022 258.854939,227.040812 259.062632,227.960625 259.269398,228.878461 259.475288,229.794331 259.680304,230.708245 259.884392,231.620193 260.087656,232.530187 260.290045,233.438235 260.491610,234.344340 260.692299,235.248500 260.892164,236.150739 261.091154,237.051043 261.289371,237.949415 261.486713,238.845876 261.683283,239.740425 261.879028,240.633063 262.073950,241.523800 262.268099,242.412637 262.461475,243.299575 262.654028,244.184633 262.845860,245.067814 263.036867,245.949105 263.227154,246.828529 263.416668,247.706085 263.605410,248.581785 263.793430,249.455629 263.980679,250.327616 264.167206,251.197758 264.353012,252.066066 264.538097,252.932528 264.722462,253.797178 264.906105,254.659994 265.089027,255.520986 265.271280,256.380177 265.452812,257.237555 265.633675,258.093132 265.813816,258.946908 265.993288,259.798893 266.172091,260.649098 266.350224,261.497513 266.527687,262.344160 266.704481,263.189038 266.880606,264.032148 267.056061,264.873500 267.230898,265.713095 267.405117,266.550943 267.578667,267.387056 267.751598,268.221422 267.923861,269.054064 268.095556,269.884970 268.266582,270.714163 268.436991,271.541631 268.606833,272.367397 268.776005,273.191460 268.944611,274.013820 269.112598,274.834478 269.280020,275.653455 269.446823,276.470752 269.613060,277.286357 269.778679,278.100314 269.943783,278.912580 270.108269,279.723198 270.272188,280.532147 270.435490,281.339448 270.598276,282.145101 270.760496,282.949107 270.922201,283.751487 271.083288,284.552241 271.243860,285.351348 271.403866,286.148851 271.563356,286.944750 271.722281,287.739024 271.880690,288.531694 272.038584,289.322760 272.195911,290.112245 272.352724,290.900125 272.509022,291.686424 272.664804,292.471142 272.820072,293.254299 272.974825,294.035875 273.129114,294.815891 273.282837,295.594347 273.436096,296.371244 273.588840,297.146602 273.741070,297.920423 273.892836,298.692684 274.044086,299.463430 274.194874,300.232637 274.345198,301.000307 274.495007,301.766483 274.644352,302.531121 274.793234,303.294265 274.941652,304.055893 275.089607,304.816028"/>
</svg>
