<?xml version="1.0" standalone="no"?>
<!DOCTYPE svg PUBLIC "-//W3C//DTD SVG 1.1//EN" "http://www.w3.org/Graphics/SVG/1.1/DTD/svg11.dtd">
<svg width="300" height="300" version="1.1" xmlns="http://www.w3.org/2000/svg" xmlns:xlink="http://www.w3.org/1999/xlink">
	<polyline style="shape-rendering:crispEdges" fill="none" stroke="rgb(229,229,229)" stroke-width="1" stroke-opacity="1" points="59.000000,17.000000 59.000000,275.000000"/>
	<polyline style="shape-rendering:crispEdges" fill="none" stroke="rgb(229,229,229)" stroke-width="1" stroke-opacity="1" points="113.000000,17.000000 113.000000,275.000000"/>
	<polyline style="shape-rendering:crispEdges" fill="none" stroke="rgb(229,229,229)" stroke-width="1" stroke-opacity="1" points="167.000000,17.000000 167.000000,275.000000"/>
	<polyline style="shape-rendering:crispEdges" fill="none" stroke="rgb(229,229,229)" stroke-width="1" stroke-opacity="1" points="221.000000,17.000000 221.000000,275.000000"/>
	<polyline style="shape-rendering:crispEdges" fill="none" stroke="rgb(229,229,229)" stroke-width="1" stroke-opacity="1" points="275.000000,17.000000 275.000000,275.000000"/>
	<polyline style="shape-rendering:crispEdges" fill="none" stroke="rgb(229,229,229)" stroke-width="1" stroke-opacity="1" points="59.000000,275.000000 275.000000,275.000000"/>
	<polyline style="shape-rendering:crispEdges" fill="none" stroke="rgb(229,229,229)" stroke-width="1" stroke-opacity="1" points="59.000000,238.142857 275.000000,238.142857"/>
	<polyline style="shape-rendering:crispEdges" fill="none" stroke="rgb(229,229,229)" stroke-width="1" stroke-opacity="1" points="59.000000,201.285714 275.000000,201.285714"/>
	<polyline style="shape-rendering:crispEdges" fill="none" stroke="rgb(229,229,229)" stroke-width="1" stroke-opacity="1" points="59.000000,164.428571 275.000000,164.428571"/>
	<polyline style="shape-rendering:crispEdges" fill="none" stroke="rgb(229,229,229)" stroke-width="1" stroke-opacity="1" points="59.000000,127.571429 275.000000,127.571429"/>
	<polyline style="shape-rendering:crispEdges" fill="none" stroke="rgb(229,229,229)" stroke-width="1" stroke-opacity="1" points="59.000000,90.714286 275.000000,90.714286"/>
	<polyline style="shape-rendering:crispEdges" fill="none" stroke="rgb(229,229,229)" stroke-width="1" stroke-opacity="1" points="59.000000,53.857143 275.000000,53.857143"/>
	<polyline style="shape-rendering:crispEdges" fill="none" stroke="rgb(229,229,229)" stroke-width="1" stroke-opacity="1" points="59.000000,17.000000 275.000000,17.000000"/>
	<polyline style="shape-rendering:crispEdges" fill="none" stroke="rgb(0,0,0)" stroke-width="1" stroke-opacity="1" points="59.000000,275.000000 275.000000,275.000000"/>
	<polyline style="shape-rendering:crispEdges" fill="none" stroke="rgb(0,0,0)" stroke-width="1" stroke-opacity="1" points="275.000000,275.000000 275.000000,17.000000"/>
	<polyline style="shape-rendering:crispEdges" fill="none" stroke="rgb(0,0,0)" stroke-width="1" stroke-opacity="1" points="275.000000,17.000000 59.000000,17.000000"/>
	<polyline style="shape-rendering:crispEdges" fill="none" stroke="rgb(0,0,0)" stroke-width="1" stroke-opacity="1" points="59.000000,17.000000 59.000000,275.000000"/>
	<polyline style="shape-rendering:crispEdges" fill="none" stroke="rgb(0,0,0)" stroke-width="1" stroke-opacity="1" points="59.000000,275.000000 59.000000,279.000000"/>
	<polyline style="shape-rendering:crispEdges" fill="none" stroke="rgb(0,0,0)" stroke-width="1" stroke-opacity="1" points="113.000000,275.000000 113.000000,279.000000"/>
	<polyline style="shape-rendering:crispEdges" fill="none" stroke="rgb(0,0,0)" stroke-width="1" stroke-opacity="1" points="167.000000,275.000000 167.000000,279.000000"/>
	<polyline style="shape-rendering:crispEdges" fill="none" stroke="rgb(0,0,0)" stroke-width="1" stroke-opacity="1" points="221.000000,275.000000 221.000000,279.000000"/>
	<polyline style="shape-rendering:crispEdges" fill="none" stroke="rgb(0,0,0)" stroke-width="1" stroke-opacity="1" points="275.000000,275.000000 275.000000,279.000000"/>
	<polyline style="shape-rendering:crispEdges" fill="none" stroke="rgb(0,0,0)" stroke-width="1" stroke-opacity="1" points="59.000000,275.000000 59.000000,281.400000"/>
	<text style="shape-rendering:crispEdges" x="59" y="291.5" fill="rgb(0,0,0)" dominant-baseline="central" font-size="11" font-family="Arial" text-anchor="middle">6</text>
	<polyline style="shape-rendering:crispEdges" fill="none" stroke="rgb(0,0,0)" stroke-width="1" stroke-opacity="1" points="167.000000,275.000000 167.000000,281.400000"/>
	<text style="shape-rendering:crispEdges" x="167" y="291.5" fill="rgb(0,0,0)" dominant-baseline="central" font-size="11" font-family="Arial" text-anchor="middle">7</text>
	<polyline style="shape-rendering:crispEdges" fill="none" stroke="rgb(0,0,0)" stroke-width="1" stroke-opacity="1" points="275.000000,275.000000 275.000000,281.400000"/>
	<text style="shape-rendering:crispEdges" x="275" y="291.5" fill="rgb(0,0,0)" dominant-baseline="central" font-size="11" font-family="Arial" text-anchor="middle">8</text>
	<polyline style="shape-rendering:crispEdges" fill="none" stroke="rgb(0,0,0)" stroke-width="1" stroke-opacity="1" points="55.000000,275.000000 59.000000,275.000000"/>
	<polyline style="shape-rendering:crispEdges" fill="none" stroke="rgb(0,0,0)" stroke-width="1" stroke-opacity="1" points="55.000000,238.142857 59.000000,238.142857"/>
	<polyline style="shape-rendering:crispEdges" fill="none" stroke="rgb(0,0,0)" stroke-width="1" stroke-opacity="1" points="55.000000,201.285714 59.000000,201.285714"/>
	<polyline style="shape-rendering:crispEdges" fill="none" stroke="rgb(0,0,0)" stroke-width="1" stroke-opacity="1" points="55.000000,164.428571 59.000000,164.428571"/>
	<polyline style="shape-rendering:crispEdges" fill="none" stroke="rgb(0,0,0)" stroke-width="1" stroke-opacity="1" points="55.000000,127.571429 59.000000,127.571429"/>
	<polyline style="shape-rendering:crispEdges" fill="none" stroke="rgb(0,0,0)" stroke-width="1" stroke-opacity="1" points="55.000000,90.714286 59.000000,90.714286"/>
	<polyline style="shape-rendering:crispEdges" fill="none" stroke="rgb(0,0,0)" stroke-width="1" stroke-opacity="1" points="55.000000,53.857143 59.000000,53.857143"/>
	<polyline style="shape-rendering:crispEdges" fill="none" stroke="rgb(0,0,0)" stroke-width="1" stroke-opacity="1" points="55.000000,17.000000 59.000000,17.000000"/>
	<rect style="shape-rendering:crispEdges" fill="none" stroke="none" stroke-dasharray="none" stroke-width="1" stroke-opacity="1" x="0" y="267" width="51" height="16"/>
	<polyline style="shape-rendering:crispEdges" fill="none" stroke="rgb(0,0,0)" stroke-width="1" stroke-opacity="1" points="52.600000,275.000000 59.000000,275.000000"/>
	<text style="shape-rendering:crispEdges" x="51" y="275" fill="rgb(0,0,0)" dominant-baseline="central" font-size="11" font-family="Arial" text-anchor="end">-2.3</text>
	<polyline style="shape-rendering:crispEdges" fill="none" stroke="rgb(0,0,0)" stroke-width="1" stroke-opacity="1" points="52.600000,238.142857 59.000000,238.142857"/>
	<text style="shape-rendering:crispEdges" x="51" y="238.143" fill="rgb(0,0,0)" dominant-baseline="central" font-size="11" font-family="Arial" text-anchor="end">-2.2</text>
	<polyline style="shape-rendering:crispEdges" fill="none" stroke="rgb(0,0,0)" stroke-width="1" stroke-opacity="1" points="52.600000,201.285714 59.000000,201.285714"/>
	<text style="shape-rendering:crispEdges" x="51" y="201.286" fill="rgb(0,0,0)" dominant-baseline="central" font-size="11" font-family="Arial" text-anchor="end">-2.1</text>
	<polyline style="shape-rendering:crispEdges" fill="none" stroke="rgb(0,0,0)" stroke-width="1" stroke-opacity="1" points="52.600000,164.428571 59.000000,164.428571"/>
	<text style="shape-rendering:crispEdges" x="51" y="164.429" fill="rgb(0,0,0)" dominant-baseline="central" font-size="11" font-family="Arial" text-anchor="end">-2.0</text>
	<polyline style="shape-rendering:crispEdges" fill="none" stroke="rgb(0,0,0)" stroke-width="1" stroke-opacity="1" points="52.600000,127.571429 59.000000,127.571429"/>
	<text style="shape-rendering:crispEdges" x="51" y="127.571" fill="rgb(0,0,0)" dominant-baseline="central" font-size="11" font-family="Arial" text-anchor="end">-1.9</text>
	<polyline style="shape-rendering:crispEdges" fill="none" stroke="rgb(0,0,0)" stroke-width="1" stroke-opacity="1" points="52.600000,90.714286 59.000000,90.714286"/>
	<text style="shape-rendering:crispEdges" x="51" y="90.7143" fill="rgb(0,0,0)" dominant-baseline="central" font-size="11" font-family="Arial" text-anchor="end">-1.8</text>
	<polyline style="shape-rendering:crispEdges" fill="none" stroke="rgb(0,0,0)" stroke-width="1" stroke-opacity="1" points="52.600000,53.857143 59.000000,53.857143"/>
	<text style="shape-rendering:crispEdges" x="51" y="53.8571" fill="rgb(0,0,0)" dominant-baseline="central" font-size="11" font-family="Arial" text-anchor="end">-1.7</text>
	<polyline style="shape-rendering:crispEdges" fill="none" stroke="rgb(0,0,0)" stroke-width="1" stroke-opacity="1" points="52.600000,17.000000 59.000000,17.000000"/>
	<text style="shape-rendering:crispEdges" x="51" y="17" fill="rgb(0,0,0)" dominant-baseline="central" font-size="11" font-family="Arial" text-anchor="end">-1.6</text>
	<clipPath id="clipArea1">
		<rect x="59" y="17" width="216" height="258">
		</rect>
	</clipPath>
	<polyline fill="none" stroke="rgb(0,0,0)" stroke-dasharray="4,2" stroke-width="1" stroke-opacity="1" clip-path="url(#clipArea1)" points="56.368328,11.136422 60.356365,15.972715 64.249903,20.694419 68.046675,25.298768 71.745239,29.784046 75.345236,34.149772 78.846819,38.396121 82.250813,42.524191 85.558556,46.535476 88.771645,50.432041 91.892191,54.216303 94.922358,57.890985 97.864616,61.459032 100.721491,64.923607 103.495659,68.287874 106.189850,71.555128 108.806845,74.728707 111.349270,77.811952 113.819906,80.808113 116.221483,83.720442 118.556524,86.552147 120.827604,89.306346 123.037247,91.985941 125.187769,94.593961 127.281591,97.133133 129.320877,99.606178 131.307789,102.015691 133.244335,104.364175 135.132524,106.653959 136.974211,108.887415 138.771196,111.066610 140.525181,113.193650 142.237812,115.270515 143.910583,117.299137 145.545040,119.281229 147.142572,121.218549 148.704519,123.112723 150.232168,124.965332 151.726755,126.777783 153.189413,128.551613 154.621326,130.288053 156.023474,131.988420 157.396885,133.653989 158.742538,135.285903 160.061361,136.885214 161.354280,138.453111 162.622068,139.990559 163.865498,141.498526 165.085443,142.977933 166.282627,144.429748 167.457666,145.854761 168.611334,147.253808 169.744247,148.627678 170.857025,149.977163 171.950285,151.302923 173.024593,152.605747 174.080465,153.886207 175.118467,155.145006 176.139114,156.382715 177.142870,157.599993 178.130198,158.797368 179.101612,159.975367 180.057526,161.134560 180.998299,162.275476 181.924395,163.398597 182.836226,164.504319 183.734100,165.593169 184.618431,166.665675 185.489578,167.722099 186.347851,168.762882 187.193558,169.788463 188.027060,170.799281 188.848665,171.795599 189.658632,172.777858 190.457218,173.746320 191.244783,174.701426 192.021534,175.643438 192.787779,176.572621 193.543724,177.489325 194.289576,178.393903 195.025642,179.286530 195.752131,180.167557 196.469297,181.037161 197.177246,181.895693 197.876234,182.743416 198.566519,183.580506 199.248255,184.407228 199.921597,185.223755 200.586750,186.030441 201.243870,186.827373 201.893213,187.614814 202.534832,188.392941 203.168983,189.161929 203.795771,189.922041 204.415348,190.673366 205.027870,191.416256 205.633492,192.150621 206.232367,192.876902 206.824598,193.595098 207.410341,194.305386 207.989698,195.008029 208.562824,195.703026 209.129822,196.390643 209.690794,197.070965 210.245895,197.744170 210.795229,198.410257 211.338898,199.069578 211.877005,199.722132 212.409653,200.368096 212.936893,201.007557 213.458933,201.640603 213.975822,202.267411 214.487614,202.888067 214.994410,203.502659 215.496365,204.111364 215.993479,204.714182 216.485855,205.311375 216.973648,205.902857 217.456858,206.488891 217.935587,207.069388 218.409939,207.644701 218.879965,208.214654 219.345716,208.779510 219.807297,209.339181 220.264757,209.894019 220.718149,210.443848 221.167576,210.988845 221.613140,211.529184 222.054790,212.064777 222.492682,212.595801 222.926813,213.122344 223.357340,213.644405 223.784210,214.162073 224.207527,214.675434 224.627342,215.184490 225.043707,215.689415 225.456673,216.190299 225.866343,216.687052 226.272665,217.179851 226.675795,217.668696 227.075680,218.153674 227.472475,218.634785 227.866129,219.112206 228.256744,219.585849 228.644321,220.055976 229.028963,220.522413 229.410669,220.985247 229.789492,221.444653 230.165482,221.900633 230.538691,222.353185 230.909119,222.802399 231.276817,223.248361 231.641787,223.690983 232.004181,224.130443 232.363949,224.566738 232.721090,224.999871 233.075760,225.429927 233.427855,225.856909 233.777529,226.280990 234.124731,226.701995 234.469513,227.120189 234.811926,227.535395 235.152021,227.947789 235.489799,228.357459 235.825260,228.764229 236.158455,229.168363 236.489435,229.569772 236.818253,229.968458 237.144855,230.364507 237.469296,230.758008 237.791676,231.148961 238.111944,231.537277 238.430101,231.923221 238.746250,232.306617 239.060390,232.687552 239.372522,233.066026 239.682697,233.442216 239.990967,233.816033 240.297228,234.187478 240.601635,234.556638 240.904188,234.923513 241.204887,235.288103 241.503733,235.650584 241.800776,236.010781 242.096016,236.368781 242.389505,236.724760 242.681192,237.078541 242.971231,237.430214 243.259520,237.779778 243.546108,238.127321 243.831049,238.472843 244.114290,238.816431 244.395935,239.157998 244.675983,239.497545 244.954384,239.835158 245.231239,240.170925 245.506498,240.504760 245.780264,240.836661 246.052433,241.166804 246.323109,241.495015 246.592291,241.821468 246.860031,242.146163 247.126278,242.469013 247.391031,242.790106 247.654394,243.109529 247.916315,243.427106 248.176846,243.743102 248.435986,244.057341 248.693735,244.369910 248.950146,244.680809 249.205166,244.990126 249.458847,245.297774 249.711241,245.603840 249.962347,245.908325 250.212114,246.211227 250.460594,246.512548 250.707838,246.812375 250.953794,247.110620 251.198515,247.407460 251.441948,247.702717 251.684248,247.996481 251.925261,248.288839 252.165140,248.579703 252.403784,248.869073 252.641294,249.157124 252.877621,249.443682 253.112762,249.728922 253.346823,250.012668 253.579699,250.295096 253.811493,250.576206 254.042154,250.855910 254.271683,251.134296 254.500181,251.411363 254.727547,251.687113 254.953882,251.961544 255.179136,252.234745 255.403309,252.506628 255.626503,252.777281 255.848616,253.046616 256.069750,253.314808 256.289803,253.581682 256.508928,253.847414 256.726973,254.111828 256.944090,254.375099 257.160229,254.637228 257.375389,254.898127 257.589571,255.157883 257.802774,255.416497 258.015102,255.673881 258.226452,255.930210 258.436823,256.185397 258.646370,256.439441 258.854939,256.692431 259.062632,256.944279 259.269398,257.194984 259.475288,257.444723 259.680304,257.693319 259.884392,257.940861 260.087656,258.187349 260.290045,258.432781 260.491610,258.677160 260.692299,258.920572 260.892164,259.162929 261.091154,259.404319 261.289371,259.644656 261.486713,259.884025 261.683283,260.122340 261.879028,260.359689 262.073950,260.596158 262.268099,260.831573 262.461475,261.066110 262.654028,261.299592 262.845860,261.532195 263.036867,261.763832 263.227154,261.994590 263.416668,262.224469 263.605410,262.453293 263.793430,262.681327 263.980679,262.908394 264.167206,263.134670 264.353012,263.359980 264.538097,263.584411 264.722462,263.807963 264.906105,264.030724 265.089027,264.252519 265.271280,264.473523 265.452812,264.693648 265.633675,264.912982 265.813816,265.131438 265.993288,265.349102 266.172091,265.565976 266.350224,265.781971 266.527687,265.997175 266.704481,266.211588 266.880606,266.425123 267.056061,266.637954 267.230898,266.849995 267.405117,267.061245 267.578667,267.271703 267.751598,267.481371 267.923861,267.690336 268.095556,267.898511 268.266582,268.105894 268.436991,268.312574 268.606833,268.518552 268.776005,268.723738 268.944611,268.928221 269.112598,269.131914 269.280020,269.334904 269.446823,269.537278 269.613060,269.738774 269.778679,269.939654 269.943783,270.139832 270.108269,270.339307 270.272188,270.538078 270.435490,270.736235 270.598276,270.933600 270.760496,271.130351 270.922201,271.326398 271.083288,271.521743 271.243860,271.716472 271.403866,271.910586 271.563356,272.103910 271.722281,272.296706 271.880690,272.488799 272.038584,272.680277 272.195911,272.871052 272.352724,273.061212 272.509022,273.250757 272.664804,273.439687 272.820072,273.628001 272.974825,273.815701 273.129114,274.002697 273.282837,274.189166 273.436096,274.375021 273.588840,274.560260 273.741070,274.744883 273.892836,274.928892 274.044086,275.112374 274.194874,275.295240 274.345198,275.477491 274.495007,275.659215 274.644352,275.840324 274.793234,276.020818 274.941652,276.200784 275.089607,276.380224"/>
	<clipPath id="clipArea2">
		<rect x="59" y="17" width="216" height="258">
		</rect>
	</clipPath>
	<polyline fill="none" stroke="rgb(238,46,47)" stroke-width="2" stroke-opacity="1" clip-path="url(#clipArea2)" points="56.368328,-76.186487 60.356365,-70.918073 64.249903,-65.494297 68.046675,-59.936161 71.745239,-54.265063 75.345236,-48.502487 78.846819,-42.669744 82.250813,-36.787616 85.558556,-30.876094 88.771645,-24.954027 91.892191,-19.039165 94.922358,-13.147898 97.864616,-7.295076 100.721491,-1.494275 103.495659,4.242553 106.189850,9.904820 108.806845,15.483475 111.349270,20.970608 113.819906,26.359718 116.221483,31.645443 118.556524,36.823435 120.827604,41.890398 123.037247,46.843827 125.187769,51.682052 127.281591,56.404065 129.320877,61.009555 131.307789,65.498613 133.244335,69.871852 135.132524,74.130327 136.974211,78.275313 138.771196,82.308478 140.525181,86.231626 142.237812,90.046819 143.910583,93.756300 145.545040,97.362265 147.142572,100.867218 148.704519,104.273620 150.232168,107.583976 151.726755,110.800834 153.189413,113.926785 154.621326,116.964336 156.023474,119.916076 157.396885,122.784469 158.742538,125.572060 160.061361,128.281312 161.354280,130.914597 162.622068,133.474286 163.865498,135.962710 165.085443,138.382109 166.282627,140.734635 167.457666,143.022530 168.611334,145.247770 169.744247,147.412465 170.857025,149.518548 171.950285,151.567864 173.024593,153.562390 174.080465,155.503796 175.118467,157.393840 176.139114,159.234191 177.142870,161.026519 178.130198,162.772361 179.101612,164.473212 180.057526,166.130520 180.998299,167.745650 181.924395,169.320093 182.836226,170.855081 183.734100,172.351843 184.618431,173.811699 185.489578,175.235701 186.347851,176.625169 187.193558,177.980982 188.027060,179.304280 188.848665,180.596208 189.658632,181.857555 190.457218,183.089377 191.244783,184.292552 192.021534,185.468046 192.787779,186.616563 193.543724,187.738981 194.289576,188.836179 195.025642,189.908772 195.752131,190.957640 196.469297,191.983308 197.177246,192.986657 197.876234,193.968300 198.566519,194.928766 199.248255,195.868757 199.921597,196.788889 200.586750,197.689600 201.243870,198.571594 201.893213,199.435398 202.534832,200.281452 203.168983,201.110282 203.795771,201.922328 204.415348,202.718118 205.027870,203.498090 205.633492,204.262596 206.232367,205.012251 206.824598,205.747232 207.410341,206.468065 207.989698,207.175101 208.562824,207.868693 209.129822,208.549279 209.690794,209.217036 210.245895,209.872402 210.795229,210.515729 211.338898,211.147194 211.877005,211.767323 212.409653,212.376204 212.936893,212.974188 213.458933,213.561540 213.975822,214.138522 214.487614,214.705399 214.994410,215.262434 215.496365,215.809891 215.993479,216.347857 216.485855,216.876773 216.973648,217.396725 217.456858,217.907977 217.935587,218.410706 218.409939,218.905087 218.879965,219.391383 219.345716,219.869770 219.807297,220.340425 220.264757,220.803435 220.718149,221.259151 221.167576,221.707573 221.613140,222.148878 222.054790,222.583328 222.492682,223.011100 222.926813,223.432194 223.357340,223.846784 223.784210,224.255136 224.207527,224.657337 224.627342,225.053386 225.043707,225.443636 225.456673,225.827998 225.866343,226.206736 226.272665,226.579938 226.675795,226.947692 227.075680,227.310173 227.472475,227.667382 227.866129,228.019494 228.256744,228.366686 228.644321,228.708868 229.028963,229.046305 229.410669,229.379085 229.789492,229.707296 230.165482,230.030937 230.538691,230.350096 230.909119,230.665037 231.276817,230.975585 231.641787,231.282091 232.004181,231.584466 232.363949,231.882799 232.721090,232.177266 233.075760,232.467866 233.427855,232.754688 233.777529,233.037731 234.124731,233.317171 234.469513,233.593008 234.811926,233.865419 235.152021,234.134314 235.489799,234.399782 235.825260,234.661999 236.158455,234.920964 236.489435,235.176679 236.818253,235.429317 237.144855,235.678792 237.469296,235.925279 237.791676,236.168779 238.111944,236.409379 238.430101,236.647079 238.746250,236.881967 239.060390,237.114043 239.372522,237.343395 239.682697,237.570110 239.990967,237.794102 240.297228,238.015545 240.601635,238.234440 240.904188,238.450874 241.204887,238.664760 241.503733,238.876273 241.800776,239.085414 242.096016,239.292182 242.389505,239.496666 242.681192,239.698865 242.971231,239.898866 243.259520,240.096584 243.546108,240.292192 243.831049,240.485691 244.114290,240.677081 244.395935,240.866450 244.675983,241.053710 244.954384,241.239037 245.231239,241.422431 245.506498,241.603803 245.780264,241.783330 246.052433,241.960924 246.323109,242.136761 246.592291,242.310752 246.860031,242.482897 247.126278,242.653286 247.391031,242.822004 247.654394,242.988965 247.916315,243.154257 248.176846,243.317879 248.435986,243.479831 248.693735,243.640202 248.950146,243.798990 249.205166,243.956197 249.458847,244.111823 249.711241,244.265954 249.962347,244.418592 250.212114,244.569824 250.460594,244.719473 250.707838,244.867805 250.953794,245.014643 251.198515,245.160075 251.441948,245.304189 251.684248,245.446897 251.925261,245.588286 252.165140,245.728358 252.403784,245.867111 252.641294,246.004635 252.877621,246.140840 253.112762,246.275815 253.346823,246.409559 253.579699,246.542074 253.811493,246.673358 254.042154,246.803500 254.271683,246.932411 254.500181,247.060268 254.727547,247.186895 254.953882,247.312468 255.179136,247.436898 255.403309,247.560273 255.626503,247.682506 255.848616,247.803685 256.069750,247.923809 256.289803,248.042966 256.508928,248.161069 256.726973,248.278118 256.944090,248.394200 257.160229,248.509227 257.375389,248.623376 257.589571,248.736470 257.802774,248.848686 258.015102,248.959935 258.226452,249.070305 258.436823,249.179708 258.646370,249.288145 258.854939,249.395791 259.062632,249.502558 259.269398,249.608359 259.475288,249.713369 259.680304,249.817500 259.884392,249.920840 260.087656,250.023301 260.290045,250.124972 260.491610,250.225763 260.692299,250.325852 260.892164,250.425062 261.091154,250.523482 261.289371,250.621198 261.486713,250.718123 261.683283,250.814257 261.879028,250.909689 262.073950,251.004417 262.268099,251.098355 262.461475,251.191590 262.654028,251.284121 262.845860,251.375862 263.036867,251.466988 263.227154,251.557410 263.416668,251.647130 263.605410,251.736234 263.793430,251.824636 263.980679,251.912334 264.167206,251.999418 264.353012,252.085886 264.538097,252.171651 264.722462,252.256802 264.906105,252.341337 265.089027,252.425257 265.271280,252.508561 265.452812,252.591339 265.633675,252.673414 265.813816,252.754961 265.993288,252.835893 266.172091,252.916210 266.350224,252.996000 266.527687,253.075175 266.704481,253.153910 266.880606,253.231942 267.056061,253.309535 267.230898,253.386513 267.405117,253.462964 267.578667,253.538887 267.751598,253.614371 267.923861,253.689240 268.095556,253.763582 268.266582,253.837484 268.436991,253.910859 268.606833,253.983707 268.776005,254.056027 268.944611,254.127909 269.112598,254.199262 269.280020,254.270177 269.446823,254.340652 269.613060,254.410600 269.778679,254.480109 269.943783,254.549090 270.108269,254.617632 270.272188,254.685822 270.435490,254.753486 270.598276,254.820709 270.760496,254.887494 270.922201,254.953839 271.083288,255.019745 271.243860,255.085211 271.403866,255.150326 271.563356,255.215001 271.722281,255.279237 271.880690,255.343034 272.038584,255.406479 272.195911,255.469485 272.352724,255.532140 272.509022,255.594354 272.664804,255.656130 272.820072,255.717642 272.974825,255.778627 273.129114,255.839348 273.282837,255.899630 273.436096,255.959560 273.588840,256.019139 273.741070,256.078278 273.892836,256.137154 274.044086,256.195590 274.194874,256.253675 274.345198,256.311496 274.495007,256.368878 274.644352,256.425909 274.793234,256.482676 274.941652,256.539003 275.089607,256.595067"/>
</svg>
