<?xml version="1.0" standalone="no"?>
<!DOCTYPE svg PUBLIC "-//W3C//DTD SVG 1.1//EN" "http://www.w3.org/Graphics/SVG/1.1/DTD/svg11.dtd">
<svg width="586" height="421" version="1.1" xmlns="http://www.w3.org/2000/svg" xmlns:xlink="http://www.w3.org/1999/xlink">
	<polyline style="shape-rendering:crispEdges" fill="none" stroke="rgb(229,229,229)" stroke-width="1" stroke-opacity="1" points="59.000000,17.000000 59.000000,396.000000"/>
	<polyline style="shape-rendering:crispEdges" fill="none" stroke="rgb(229,229,229)" stroke-width="1" stroke-opacity="1" points="121.750000,17.000000 121.750000,396.000000"/>
	<polyline style="shape-rendering:crispEdges" fill="none" stroke="rgb(229,229,229)" stroke-width="1" stroke-opacity="1" points="184.500000,17.000000 184.500000,396.000000"/>
	<polyline style="shape-rendering:crispEdges" fill="none" stroke="rgb(229,229,229)" stroke-width="1" stroke-opacity="1" points="247.250000,17.000000 247.250000,396.000000"/>
	<polyline style="shape-rendering:crispEdges" fill="none" stroke="rgb(229,229,229)" stroke-width="1" stroke-opacity="1" points="310.000000,17.000000 310.000000,396.000000"/>
	<polyline style="shape-rendering:crispEdges" fill="none" stroke="rgb(229,229,229)" stroke-width="1" stroke-opacity="1" points="372.750000,17.000000 372.750000,396.000000"/>
	<polyline style="shape-rendering:crispEdges" fill="none" stroke="rgb(229,229,229)" stroke-width="1" stroke-opacity="1" points="435.500000,17.000000 435.500000,396.000000"/>
	<polyline style="shape-rendering:crispEdges" fill="none" stroke="rgb(229,229,229)" stroke-width="1" stroke-opacity="1" points="498.250000,17.000000 498.250000,396.000000"/>
	<polyline style="shape-rendering:crispEdges" fill="none" stroke="rgb(229,229,229)" stroke-width="1" stroke-opacity="1" points="561.000000,17.000000 561.000000,396.000000"/>
	<polyline style="shape-rendering:crispEdges" fill="none" stroke="rgb(229,229,229)" stroke-width="1" stroke-opacity="1" points="59.000000,396.000000 561.000000,396.000000"/>
	<polyline style="shape-rendering:crispEdges" fill="none" stroke="rgb(229,229,229)" stroke-width="1" stroke-opacity="1" points="59.000000,370.733333 561.000000,370.733333"/>
	<polyline style="shape-rendering:crispEdges" fill="none" stroke="rgb(229,229,229)" stroke-width="1" stroke-opacity="1" points="59.000000,345.466667 561.000000,345.466667"/>
	<polyline style="shape-rendering:crispEdges" fill="none" stroke="rgb(229,229,229)" stroke-width="1" stroke-opacity="1" points="59.000000,320.200000 561.000000,320.200000"/>
	<polyline style="shape-rendering:crispEdges" fill="none" stroke="rgb(229,229,229)" stroke-width="1" stroke-opacity="1" points="59.000000,294.933333 561.000000,294.933333"/>
	<polyline style="shape-rendering:crispEdges" fill="none" stroke="rgb(229,229,229)" stroke-width="1" stroke-opacity="1" points="59.000000,269.666667 561.000000,269.666667"/>
	<polyline style="shape-rendering:crispEdges" fill="none" stroke="rgb(229,229,229)" stroke-width="1" stroke-opacity="1" points="59.000000,244.400000 561.000000,244.400000"/>
	<polyline style="shape-rendering:crispEdges" fill="none" stroke="rgb(229,229,229)" stroke-width="1" stroke-opacity="1" points="59.000000,219.133333 561.000000,219.133333"/>
	<polyline style="shape-rendering:crispEdges" fill="none" stroke="rgb(229,229,229)" stroke-width="1" stroke-opacity="1" points="59.000000,193.866667 561.000000,193.866667"/>
	<polyline style="shape-rendering:crispEdges" fill="none" stroke="rgb(229,229,229)" stroke-width="1" stroke-opacity="1" points="59.000000,168.600000 561.000000,168.600000"/>
	<polyline style="shape-rendering:crispEdges" fill="none" stroke="rgb(229,229,229)" stroke-width="1" stroke-opacity="1" points="59.000000,143.333333 561.000000,143.333333"/>
	<polyline style="shape-rendering:crispEdges" fill="none" stroke="rgb(229,229,229)" stroke-width="1" stroke-opacity="1" points="59.000000,118.066667 561.000000,118.066667"/>
	<polyline style="shape-rendering:crispEdges" fill="none" stroke="rgb(229,229,229)" stroke-width="1" stroke-opacity="1" points="59.000000,92.800000 561.000000,92.800000"/>
	<polyline style="shape-rendering:crispEdges" fill="none" stroke="rgb(229,229,229)" stroke-width="1" stroke-opacity="1" points="59.000000,67.533333 561.000000,67.533333"/>
	<polyline style="shape-rendering:crispEdges" fill="none" stroke="rgb(229,229,229)" stroke-width="1" stroke-opacity="1" points="59.000000,42.266667 561.000000,42.266667"/>
	<polyline style="shape-rendering:crispEdges" fill="none" stroke="rgb(229,229,229)" stroke-width="1" stroke-opacity="1" points="59.000000,17.000000 561.000000,17.000000"/>
	<polyline style="shape-rendering:crispEdges" fill="none" stroke="rgb(0,0,0)" stroke-width="1" stroke-opacity="1" points="59.000000,396.000000 561.000000,396.000000"/>
	<polyline style="shape-rendering:crispEdges" fill="none" stroke="rgb(0,0,0)" stroke-width="1" stroke-opacity="1" points="561.000000,396.000000 561.000000,17.000000"/>
	<polyline style="shape-rendering:crispEdges" fill="none" stroke="rgb(0,0,0)" stroke-width="1" stroke-opacity="1" points="561.000000,17.000000 59.000000,17.000000"/>
	<polyline style="shape-rendering:crispEdges" fill="none" stroke="rgb(0,0,0)" stroke-width="1" stroke-opacity="1" points="59.000000,17.000000 59.000000,396.000000"/>
	<polyline style="shape-rendering:crispEdges" fill="none" stroke="rgb(0,0,0)" stroke-width="1" stroke-opacity="1" points="59.000000,396.000000 59.000000,400.000000"/>
	<polyline style="shape-rendering:crispEdges" fill="none" stroke="rgb(0,0,0)" stroke-width="1" stroke-opacity="1" points="121.750000,396.000000 121.750000,400.000000"/>
	<polyline style="shape-rendering:crispEdges" fill="none" stroke="rgb(0,0,0)" stroke-width="1" stroke-opacity="1" points="184.500000,396.000000 184.500000,400.000000"/>
	<polyline style="shape-rendering:crispEdges" fill="none" stroke="rgb(0,0,0)" stroke-width="1" stroke-opacity="1" points="247.250000,396.000000 247.250000,400.000000"/>
	<polyline style="shape-rendering:crispEdges" fill="none" stroke="rgb(0,0,0)" stroke-width="1" stroke-opacity="1" points="310.000000,396.000000 310.000000,400.000000"/>
	<polyline style="shape-rendering:crispEdges" fill="none" stroke="rgb(0,0,0)" stroke-width="1" stroke-opacity="1" points="372.750000,396.000000 372.750000,400.000000"/>
	<polyline style="shape-rendering:crispEdges" fill="none" stroke="rgb(0,0,0)" stroke-width="1" stroke-opacity="1" points="435.500000,396.000000 435.500000,400.000000"/>
	<polyline style="shape-rendering:crispEdges" fill="none" stroke="rgb(0,0,0)" stroke-width="1" stroke-opacity="1" points="498.250000,396.000000 498.250000,400.000000"/>
	<polyline style="shape-rendering:crispEdges" fill="none" stroke="rgb(0,0,0)" stroke-width="1" stroke-opacity="1" points="561.000000,396.000000 561.000000,400.000000"/>
	<polyline style="shape-rendering:crispEdges" fill="none" stroke="rgb(0,0,0)" stroke-width="1" stroke-opacity="1" points="59.000000,396.000000 59.000000,402.400000"/>
	<text style="shape-rendering:crispEdges" x="59" y="412.5" fill="rgb(0,0,0)" dominant-baseline="central" font-size="11" font-family="Arial" text-anchor="middle">4</text>
	<polyline style="shape-rendering:crispEdges" fill="none" stroke="rgb(0,0,0)" stroke-width="1" stroke-opacity="1" points="184.500000,396.000000 184.500000,402.400000"/>
	<text style="shape-rendering:crispEdges" x="184.5" y="412.5" fill="rgb(0,0,0)" dominant-baseline="central" font-size="11" font-family="Arial" text-anchor="middle">5</text>
	<polyline style="shape-rendering:crispEdges" fill="none" stroke="rgb(0,0,0)" stroke-width="1" stroke-opacity="1" points="310.000000,396.000000 310.000000,402.400000"/>
	<text style="shape-rendering:crispEdges" x="310" y="412.5" fill="rgb(0,0,0)" dominant-baseline="central" font-size="11" font-family="Arial" text-anchor="middle">6</text>
	<polyline style="shape-rendering:crispEdges" fill="none" stroke="rgb(0,0,0)" stroke-width="1" stroke-opacity="1" points="435.500000,396.000000 435.500000,402.400000"/>
	<text style="shape-rendering:crispEdges" x="435.5" y="412.5" fill="rgb(0,0,0)" dominant-baseline="central" font-size="11" font-family="Arial" text-anchor="middle">7</text>
	<polyline style="shape-rendering:crispEdges" fill="none" stroke="rgb(0,0,0)" stroke-width="1" stroke-opacity="1" points="561.000000,396.000000 561.000000,402.400000"/>
	<text style="shape-rendering:crispEdges" x="561" y="412.5" fill="rgb(0,0,0)" dominant-baseline="central" font-size="11" font-family="Arial" text-anchor="middle">8</text>
	<polyline style="shape-rendering:crispEdges" fill="none" stroke="rgb(0,0,0)" stroke-width="1" stroke-opacity="1" points="55.000000,396.000000 59.000000,396.000000"/>
	<polyline style="shape-rendering:crispEdges" fill="none" stroke="rgb(0,0,0)" stroke-width="1" stroke-opacity="1" points="55.000000,370.733333 59.000000,370.733333"/>
	<polyline style="shape-rendering:crispEdges" fill="none" stroke="rgb(0,0,0)" stroke-width="1" stroke-opacity="1" points="55.000000,345.466667 59.000000,345.466667"/>
	<polyline style="shape-rendering:crispEdges" fill="none" stroke="rgb(0,0,0)" stroke-width="1" stroke-opacity="1" points="55.000000,320.200000 59.000000,320.200000"/>
	<polyline style="shape-rendering:crispEdges" fill="none" stroke="rgb(0,0,0)" stroke-width="1" stroke-opacity="1" points="55.000000,294.933333 59.000000,294.933333"/>
	<polyline style="shape-rendering:crispEdges" fill="none" stroke="rgb(0,0,0)" stroke-width="1" stroke-opacity="1" points="55.000000,269.666667 59.000000,269.666667"/>
	<polyline style="shape-rendering:crispEdges" fill="none" stroke="rgb(0,0,0)" stroke-width="1" stroke-opacity="1" points="55.000000,244.400000 59.000000,244.400000"/>
	<polyline style="shape-rendering:crispEdges" fill="none" stroke="rgb(0,0,0)" stroke-width="1" stroke-opacity="1" points="55.000000,219.133333 59.000000,219.133333"/>
	<polyline style="shape-rendering:crispEdges" fill="none" stroke="rgb(0,0,0)" stroke-width="1" stroke-opacity="1" points="55.000000,193.866667 59.000000,193.866667"/>
	<polyline style="shape-rendering:crispEdges" fill="none" stroke="rgb(0,0,0)" stroke-width="1" stroke-opacity="1" points="55.000000,168.600000 59.000000,168.600000"/>
	<polyline style="shape-rendering:crispEdges" fill="none" stroke="rgb(0,0,0)" stroke-width="1" stroke-opacity="1" points="55.000000,143.333333 59.000000,143.333333"/>
	<polyline style="shape-rendering:crispEdges" fill="none" stroke="rgb(0,0,0)" stroke-width="1" stroke-opacity="1" points="55.000000,118.066667 59.000000,118.066667"/>
	<polyline style="shape-rendering:crispEdges" fill="none" stroke="rgb(0,0,0)" stroke-width="1" stroke-opacity="1" points="55.000000,92.800000 59.000000,92.800000"/>
	<polyline style="shape-rendering:crispEdges" fill="none" stroke="rgb(0,0,0)" stroke-width="1" stroke-opacity="1" points="55.000000,67.533333 59.000000,67.533333"/>
	<polyline style="shape-rendering:crispEdges" fill="none" stroke="rgb(0,0,0)" stroke-width="1" stroke-opacity="1" points="55.000000,42.266667 59.000000,42.266667"/>
	<polyline style="shape-rendering:crispEdges" fill="none" stroke="rgb(0,0,0)" stroke-width="1" stroke-opacity="1" points="55.000000,17.000000 59.000000,17.000000"/>
	<rect style="shape-rendering:crispEdges" fill="none" stroke="none" stroke-dasharray="none" stroke-width="1" stroke-opacity="1" x="0" y="388" width="51" height="16"/>
	<polyline style="shape-rendering:crispEdges" fill="none" stroke="rgb(0,0,0)" stroke-width="1" stroke-opacity="1" points="52.600000,396.000000 59.000000,396.000000"/>
	<text style="shape-rendering:crispEdges" x="51" y="396" fill="rgb(0,0,0)" dominant-baseline="central" font-size="11" font-family="Arial" text-anchor="end">0</text>
	<polyline style="shape-rendering:crispEdges" fill="none" stroke="rgb(0,0,0)" stroke-width="1" stroke-opacity="1" points="52.600000,345.466667 59.000000,345.466667"/>
	<text style="shape-rendering:crispEdges" x="51" y="345.467" fill="rgb(0,0,0)" dominant-baseline="central" font-size="11" font-family="Arial" text-anchor="end">20</text>
	<polyline style="shape-rendering:crispEdges" fill="none" stroke="rgb(0,0,0)" stroke-width="1" stroke-opacity="1" points="52.600000,294.933333 59.000000,294.933333"/>
	<text style="shape-rendering:crispEdges" x="51" y="294.933" fill="rgb(0,0,0)" dominant-baseline="central" font-size="11" font-family="Arial" text-anchor="end">40</text>
	<polyline style="shape-rendering:crispEdges" fill="none" stroke="rgb(0,0,0)" stroke-width="1" stroke-opacity="1" points="52.600000,244.400000 59.000000,244.400000"/>
	<text style="shape-rendering:crispEdges" x="51" y="244.4" fill="rgb(0,0,0)" dominant-baseline="central" font-size="11" font-family="Arial" text-anchor="end">60</text>
	<polyline style="shape-rendering:crispEdges" fill="none" stroke="rgb(0,0,0)" stroke-width="1" stroke-opacity="1" points="52.600000,193.866667 59.000000,193.866667"/>
	<text style="shape-rendering:crispEdges" x="51" y="193.867" fill="rgb(0,0,0)" dominant-baseline="central" font-size="11" font-family="Arial" text-anchor="end">80</text>
	<polyline style="shape-rendering:crispEdges" fill="none" stroke="rgb(0,0,0)" stroke-width="1" stroke-opacity="1" points="52.600000,143.333333 59.000000,143.333333"/>
	<text style="shape-rendering:crispEdges" x="51" y="143.333" fill="rgb(0,0,0)" dominant-baseline="central" font-size="11" font-family="Arial" text-anchor="end">100</text>
	<polyline style="shape-rendering:crispEdges" fill="none" stroke="rgb(0,0,0)" stroke-width="1" stroke-opacity="1" points="52.600000,92.800000 59.000000,92.800000"/>
	<text style="shape-rendering:crispEdges" x="51" y="92.8" fill="rgb(0,0,0)" dominant-baseline="central" font-size="11" font-family="Arial" text-anchor="end">120</text>
	<polyline style="shape-rendering:crispEdges" fill="none" stroke="rgb(0,0,0)" stroke-width="1" stroke-opacity="1" points="52.600000,42.266667 59.000000,42.266667"/>
	<text style="shape-rendering:crispEdges" x="51" y="42.2667" fill="rgb(0,0,0)" dominant-baseline="central" font-size="11" font-family="Arial" text-anchor="end">140</text>
	<clipPath id="clipArea1">
		<rect x="59" y="17" width="502" height="379">
		</rect>
	</clipPath>
	<polyline fill="none" stroke="rgb(0,0,0)" stroke-width="4" stroke-opacity="1" clip-path="url(#clipArea1)" points="58.957332,198.730026 60.023795,198.730026 61.092832,198.730026 62.164561,198.730026 63.239163,198.730026 64.316936,198.730026 65.398061,198.730026 66.482717,198.730026 67.571202,198.730026 68.663637,198.730026 69.760321,198.730026 70.861494,198.730026 71.967334,198.730026 73.078140,198.730026 74.194154,198.730026 75.315613,198.730026 76.442817,198.730026 77.575945,198.730026 78.715417,198.730026 79.861412,198.730026 81.014228,198.730026 82.174166,198.730026 83.341585,198.730026 84.516783,198.730026 85.700060,198.730026 86.891775,198.730026 88.092346,198.730026 89.302014,198.730026 90.521256,198.730026 91.750373,198.730026 92.989902,198.730026 94.240144,198.730026 95.501576,198.730026 96.774617,198.730026 98.059867,198.730026 99.357683,198.730026 100.668605,198.730026 101.993232,198.730026 103.332041,198.730026 104.685691,198.730026 106.054720,198.730026 107.439788,198.730026 108.841612,198.730026 110.260850,198.730026 111.698280,198.730026 113.154621,198.730026 114.630710,198.730026 116.127385,198.730026 117.645544,198.730026 119.186144,198.730026 120.750142,198.730026 122.338676,198.730026 123.952823,198.730026 125.593660,198.730026 127.262623,198.730026 128.960850,198.730026 130.689836,198.730026 132.451017,198.730026 134.245950,198.730026 136.076370,198.730026 137.944012,198.730026 139.850791,198.730026 141.798683,198.730026 143.789781,198.730026 145.826540,198.730026 147.911233,198.730026 150.046493,198.730026 152.235134,198.730026 154.480146,198.730026 156.784643,198.730026 159.152034,198.730026 161.585852,198.730026 164.089985,198.730026 166.668562,198.730026 169.325834,198.730026 172.066407,198.730026 174.895128,198.730026 177.817086,198.730026 180.837545,198.730026 183.962011,198.730026 187.196110,198.730026 190.545526,198.730026 194.015825,198.730026 197.612513,198.730026 201.340556,198.730026 205.204443,198.730026 209.207705,198.730026 213.352735,198.730026 217.640191,198.730026 222.068937,198.730026 226.635321,198.730026 231.333002,198.730026 236.152942,198.730026 241.082933,198.730026 246.107895,198.730026 251.210474,198.730026 256.371160,198.730026 261.569428,198.730026 266.784152,198.730026 271.994688,198.730026 277.181466,198.730026 282.326473,198.730026 287.413732,198.730026 292.429418,198.730026 297.361983,198.730026 302.201970,198.730026 306.941900,198.730026 311.576147,198.730026 316.100581,198.730026 320.512571,198.730026 324.810440,198.730026 328.993769,198.730026 333.062739,198.730026 337.018305,198.730026 340.862025,198.730026 344.595754,198.730026 348.221944,198.730026 351.743110,198.730026 355.162124,198.730026 358.481918,198.730026 361.705604,198.730026 364.836353,198.730026 367.877398,198.730026 370.831790,198.730026 373.702761,198.730026 376.493483,198.730026 379.206887,198.730026 381.845966,198.730026 384.413652,198.730026 386.912639,198.730026 389.345738,198.730026 391.715464,198.730026 394.024329,198.730026 396.274667,198.730026 398.468813,198.730026 400.608921,198.730026 402.697085,198.730026 404.735280,198.730026 406.725420,198.730026 408.669243,198.730026 410.568542,198.730026 412.424934,198.730026 414.239974,198.730026 416.015158,198.730026 417.751924,198.730026 419.451586,198.730026 421.115523,198.730026 422.744870,198.730026 424.340825,198.730026 425.904524,198.730026 427.437045,198.730026 428.939465,198.730026 430.412681,198.730026 431.857592,198.730026 433.275214,198.730026 434.666386,198.730026 436.031825,198.730026 437.372430,198.730026 438.688917,198.730026 439.982006,198.730026 441.252414,198.730026 442.500801,198.730026 443.727763,198.730026 444.933960,198.730026 446.119989,198.730026 447.286391,198.730026 448.433702,198.730026 449.562521,198.730026 450.673328,198.730026 451.766541,198.730026 452.842699,198.730026 453.902281,198.730026 454.945644,198.730026 455.973269,198.730026 456.985575,198.730026 457.982919,198.730026 458.965662,198.730026 459.934222,198.730026 460.888958,198.730026 461.830170,198.730026 462.758156,198.730026 463.673336,198.730026 464.575949,198.730026 465.466354,198.730026 466.344790,198.730026 467.211498,198.730026 468.066834,198.730026 468.911041,198.730026 469.744415,198.730026 470.567078,198.730026 471.379328,198.730026 472.181464,198.730026 472.973666,198.730026 473.756114,198.730026 474.529047,198.730026 475.292645,198.730026 476.047206,198.730026 476.792791,198.730026 477.529698,198.730026 478.258048,198.730026 478.978020,198.730026 479.689794,198.730026 480.393548,198.730026 481.089463,198.730026 481.777658,198.730026 482.458313,198.730026 483.131548,198.730026 483.797541,198.730026 484.456413,198.730026 485.108284,198.730026 485.753332,198.730026 486.391678,198.730026 487.023441,198.730026 487.648741,198.730026 488.267698,198.730026 488.880372,198.730026 489.487001,198.730026 490.087646,198.730026 490.682366,198.730026 491.271281,198.730026 491.854572,198.730026 492.432237,198.730026 493.004396,198.730026 493.571230,198.730026 494.132737,198.730026 494.689039,198.730026 495.240253,198.730026 495.786441,198.730026 496.327661,198.730026 496.864035,198.730026 497.395621,198.730026 497.922479,198.730026 498.444729,198.730026 498.962492,198.730026 499.475706,198.730026 499.984551,198.730026 500.489028,198.730026 500.989316,198.730026 501.485355,198.730026 501.977265,198.730026 502.465106,198.730026 502.948937,198.730026 503.428819,198.730026 503.904870,198.730026 504.377032,198.730026 504.845484,198.730026 505.310165,198.730026 505.771256,198.730026 506.228696,198.730026 506.682606,198.730026 507.132985,198.730026 507.579952,198.730026 508.023509,198.730026 508.463715,198.730026 508.900629,198.730026 509.334312,198.730026 509.764763,198.730026 510.192042,198.730026 510.616150,198.730026 511.037266,198.730026 511.455329,198.730026 511.870341,198.730026 512.282480,198.730026 512.691627,198.730026 513.097962,198.730026 513.501424,198.730026 513.902073,198.730026 514.299969,198.730026 514.695173,198.730026 515.087684,198.730026 515.477501,198.730026 515.864686,198.730026 516.249297,198.730026 516.631395,198.730026 517.010920,198.730026 517.387931,198.730026 517.762549,198.730026 518.134713,198.730026 518.504423,198.730026 518.871800,198.730026 519.236843,198.730026 519.599551,198.730026 519.959986,198.730026 520.318207,198.730026 520.674093,198.730026 521.027826,198.730026 521.379404,198.730026 521.728827,198.730026 522.076097,198.730026 522.421272,198.730026 522.764352,198.730026 523.105397,198.730026 523.444349,198.730026 523.781385,198.730026 524.116386,198.730026 524.449413,198.730026 524.780524,198.730026 525.109661,198.730026 525.436943,198.730026 525.762370,198.730026 526.085881,198.730026 526.407598,198.730026 526.727459,198.730026 527.045584,198.730026 527.361855,198.730026 527.676390,198.730026 527.989190,198.730026 528.300314,198.730026 528.609703,198.730026 528.917356,198.730026 529.223393,198.730026 529.527755,198.730026 529.830501,198.730026 530.131631,198.730026 530.431146,198.730026 530.729105,198.730026 531.025447,198.730026 531.320234,198.730026 531.613525,198.730026 531.905320,198.730026 532.195559,198.730026 532.484302,198.730026 532.771608,198.730026 533.057419,198.730026 533.341793,198.730026 533.624671,198.730026 533.906233,198.730026 534.186298,198.730026 534.465047,198.730026 534.742360,198.730026 535.018356,198.730026 535.292976,198.730026 535.566219,198.730026 535.838206,198.730026 536.108816,198.730026 536.378170,198.730026 536.646207,198.730026 536.912928,198.730026 537.178451,198.730026 537.442658,198.730026 537.705669,198.730026 537.967422,198.730026 538.227919,198.730026 538.487279,198.730026 538.745382,198.730026 539.002348,198.730026 539.258058,198.730026 539.512690,198.730026 539.766065,198.730026 540.018364,198.730026 540.269525,198.730026 540.519549,198.730026 540.768437,198.730026 541.016187,198.730026 541.262920,198.730026 541.508516,198.730026 541.752975,198.730026 541.996476,198.730026 542.238841,198.730026 542.480188,198.730026 542.720458,198.730026 542.959710,198.730026 543.197945,198.730026 543.435103,198.730026 543.671304,198.730026 543.906487,198.730026 544.140713,198.730026 544.373921,198.730026 544.606172,198.730026 544.837406,198.730026 545.067742,198.730026 545.297060,198.730026 545.525481,198.730026 545.752945,198.730026 545.979451,198.730026 546.205059,198.730026 546.429770,198.730026 546.653523,198.730026 546.876439,198.730026 547.098397,198.730026 547.319517,198.730026 547.539739,198.730026 547.759064,198.730026 547.977551,198.730026 548.195140,198.730026 548.411892,198.730026 548.627806,198.730026 548.842882,198.730026 549.057120,198.730026 549.270520,198.730026 549.483083,198.730026 549.694867,198.730026 549.905814,198.730026 550.115983,198.730026 550.325314,198.730026 550.533867,198.730026 550.741642,198.730026 550.948639,198.730026 551.154859,198.730026 551.360300,198.730026 551.564963,198.730026 551.768848,198.730026 551.972016,198.730026 552.174465,198.730026 552.376136,198.730026 552.577089,198.730026 552.777264,198.730026 552.976781,198.730026 553.175519,198.730026 553.373540,198.730026 553.570903,198.730026 553.767487,198.730026 553.963413,198.730026 554.158621,198.730026 554.353171,198.730026 554.547003,198.730026 554.740176,198.730026 554.932631,198.730026 555.124488,198.730026 555.315627,198.730026 555.506108,198.730026 555.695870,198.730026 555.885034,198.730026 556.073539,198.730026 556.261447,198.730026 556.448636,198.730026 556.635226,198.730026 556.821159,198.730026 557.006493,198.730026 557.191169,198.730026 557.375246,198.730026 557.558725,198.730026 557.741545,198.730026 557.923767,198.730026 558.105391,198.730026 558.286416,198.730026 558.466843,198.730026 558.646672,198.730026 558.825961,198.730026 559.004593,198.730026 559.182686,198.730026 559.360180,198.730026 559.537076,198.730026 559.713434,198.730026 559.889193,198.730026 560.064414,198.730026 560.239095,198.730026 560.413179,198.730026 560.586724,198.730026 560.759730,198.730026 560.932198,198.730026 561.104127,198.730026"/>
	<clipPath id="clipArea2">
		<rect x="59" y="17" width="502" height="379">
		</rect>
	</clipPath>
	<polyline fill="none" stroke="rgb(0,0,0)" stroke-width="4" stroke-opacity="1" clip-path="url(#clipArea2)" points="58.957332,31.552083 60.023795,31.552083 61.092832,31.552083 62.164561,31.552083 63.239163,31.552083 64.316936,31.552083 65.398061,31.552083 66.482717,31.552083 67.571202,31.552083 68.663637,31.552083 69.760321,31.552083 70.861494,31.552083 71.967334,31.552083 73.078140,31.552083 74.194154,31.552083 75.315613,31.552083 76.442817,31.552083 77.575945,31.552083 78.715417,31.552083 79.861412,31.552083 81.014228,31.552083 82.174166,31.552083 83.341585,31.552083 84.516783,31.552083 85.700060,31.552083 86.891775,31.552083 88.092346,31.552083 89.302014,31.552083 90.521256,31.552083 91.750373,31.552083 92.989902,31.552083 94.240144,31.552083 95.501576,31.552083 96.774617,31.552083 98.059867,31.552083 99.357683,31.552083 100.668605,31.552083 101.993232,31.552083 103.332041,31.552083 104.685691,31.552083 106.054720,31.552083 107.439788,31.552083 108.841612,31.552083 110.260850,31.552083 111.698280,31.552083 113.154621,31.552083 114.630710,31.552083 116.127385,31.552083 117.645544,31.552083 119.186144,31.552083 120.750142,31.552083 122.338676,31.552083 123.952823,31.552083 125.593660,31.552083 127.262623,31.552083 128.960850,31.552083 130.689836,31.552083 132.451017,31.552083 134.245950,31.552083 136.076370,31.552083 137.944012,31.552083 139.850791,31.552083 141.798683,31.552083 143.789781,31.552083 145.826540,31.552083 147.911233,31.552083 150.046493,31.552083 152.235134,31.552083 154.480146,31.552083 156.784643,31.552083 159.152034,31.552083 161.585852,31.552083 164.089985,31.552083 166.668562,31.552083 169.325834,31.552083 172.066407,31.552083 174.895128,31.552083 177.817086,31.552083 180.837545,31.552083 183.962011,31.552083 187.196110,31.552083 190.545526,31.552083 194.015825,31.552083 197.612513,31.552083 201.340556,31.552083 205.204443,31.552083 209.207705,31.552083 213.352735,31.552083 217.640191,31.552083 222.068937,31.552083 226.635321,31.552083 231.333002,31.552083 236.152942,31.552083 241.082933,31.552083 246.107895,31.552083 251.210474,31.552083 256.371160,31.552083 261.569428,31.552083 266.784152,31.552083 271.994688,31.552083 277.181466,31.552083 282.326473,31.552083 287.413732,31.552083 292.429418,31.552083 297.361983,31.552083 302.201970,31.552083 306.941900,31.552083 311.576147,31.552083 316.100581,31.552083 320.512571,31.552083 324.810440,31.552083 328.993769,31.552083 333.062739,31.552083 337.018305,31.552083 340.862025,31.552083 344.595754,31.552083 348.221944,31.552083 351.743110,31.552083 355.162124,31.552083 358.481918,31.552083 361.705604,31.552083 364.836353,31.552083 367.877398,31.552083 370.831790,31.552083 373.702761,31.552083 376.493483,31.552083 379.206887,31.552083 381.845966,31.552083 384.413652,31.552083 386.912639,31.552083 389.345738,31.552083 391.715464,31.552083 394.024329,31.552083 396.274667,31.552083 398.468813,31.552083 400.608921,31.552083 402.697085,31.552083 404.735280,31.552083 406.725420,31.552083 408.669243,31.552083 410.568542,31.552083 412.424934,31.552083 414.239974,31.552083 416.015158,31.552083 417.751924,31.552083 419.451586,31.552083 421.115523,31.552083 422.744870,31.552083 424.340825,31.552083 425.904524,31.552083 427.437045,31.552083 428.939465,31.552083 430.412681,31.552083 431.857592,31.552083 433.275214,31.552083 434.666386,31.552083 436.031825,31.552083 437.372430,31.552083 438.688917,31.552083 439.982006,31.552083 441.252414,31.552083 442.500801,31.552083 443.727763,31.552083 444.933960,31.552083 446.119989,31.552083 447.286391,31.552083 448.433702,31.552083 449.562521,31.552083 450.673328,31.552083 451.766541,31.552083 452.842699,31.552083 453.902281,31.552083 454.945644,31.552083 455.973269,31.552083 456.985575,31.552083 457.982919,31.552083 458.965662,31.552083 459.934222,31.552083 460.888958,31.552083 461.830170,31.552083 462.758156,31.552083 463.673336,31.552083 464.575949,31.552083 465.466354,31.552083 466.344790,31.552083 467.211498,31.552083 468.066834,31.552083 468.911041,31.552083 469.744415,31.552083 470.567078,31.552083 471.379328,31.552083 472.181464,31.552083 472.973666,31.552083 473.756114,31.552083 474.529047,31.552083 475.292645,31.552083 476.047206,31.552083 476.792791,31.552083 477.529698,31.552083 478.258048,31.552083 478.978020,31.552083 479.689794,31.552083 480.393548,31.552083 481.089463,31.552083 481.777658,31.552083 482.458313,31.552083 483.131548,31.552083 483.797541,31.552083 484.456413,31.552083 485.108284,31.552083 485.753332,31.552083 486.391678,31.552083 487.023441,31.552083 487.648741,31.552083 488.267698,31.552083 488.880372,31.552083 489.487001,31.552083 490.087646,31.552083 490.682366,31.552083 491.271281,31.552083 491.854572,31.552083 492.432237,31.552083 493.004396,31.552083 493.571230,31.552083 494.132737,31.552083 494.689039,31.552083 495.240253,31.552083 495.786441,31.552083 496.327661,31.552083 496.864035,31.552083 497.395621,31.552083 497.922479,31.552083 498.444729,31.552083 498.962492,31.552083 499.475706,31.552083 499.984551,31.552083 500.489028,31.552083 500.989316,31.552083 501.485355,31.552083 501.977265,31.552083 502.465106,31.552083 502.948937,31.552083 503.428819,31.552083 503.904870,31.552083 504.377032,31.552083 504.845484,31.552083 505.310165,31.552083 505.771256,31.552083 506.228696,31.552083 506.682606,31.552083 507.132985,31.552083 507.579952,31.552083 508.023509,31.552083 508.463715,31.552083 508.900629,31.552083 509.334312,31.552083 509.764763,31.552083 510.192042,31.552083 510.616150,31.552083 511.037266,31.552083 511.455329,31.552083 511.870341,31.552083 512.282480,31.552083 512.691627,31.552083 513.097962,31.552083 513.501424,31.552083 513.902073,31.552083 514.299969,31.552083 514.695173,31.552083 515.087684,31.552083 515.477501,31.552083 515.864686,31.552083 516.249297,31.552083 516.631395,31.552083 517.010920,31.552083 517.387931,31.552083 517.762549,31.552083 518.134713,31.552083 518.504423,31.552083 518.871800,31.552083 519.236843,31.552083 519.599551,31.552083 519.959986,31.552083 520.318207,31.552083 520.674093,31.552083 521.027826,31.552083 521.379404,31.552083 521.728827,31.552083 522.076097,31.552083 522.421272,31.552083 522.764352,31.552083 523.105397,31.552083 523.444349,31.552083 523.781385,31.552083 524.116386,31.552083 524.449413,31.552083 524.780524,31.552083 525.109661,31.552083 525.436943,31.552083 525.762370,31.552083 526.085881,31.552083 526.407598,31.552083 526.727459,31.552083 527.045584,31.552083 527.361855,31.552083 527.676390,31.552083 527.989190,31.552083 528.300314,31.552083 528.609703,31.552083 528.917356,31.552083 529.223393,31.552083 529.527755,31.552083 529.830501,31.552083 530.131631,31.552083 530.431146,31.552083 530.729105,31.552083 531.025447,31.552083 531.320234,31.552083 531.613525,31.552083 531.905320,31.552083 532.195559,31.552083 532.484302,31.552083 532.771608,31.552083 533.057419,31.552083 533.341793,31.552083 533.624671,31.552083 533.906233,31.552083 534.186298,31.552083 534.465047,31.552083 534.742360,31.552083 535.018356,31.552083 535.292976,31.552083 535.566219,31.552083 535.838206,31.552083 536.108816,31.552083 536.378170,31.552083 536.646207,31.552083 536.912928,31.552083 537.178451,31.552083 537.442658,31.552083 537.705669,31.552083 537.967422,31.552083 538.227919,31.552083 538.487279,31.552083 538.745382,31.552083 539.002348,31.552083 539.258058,31.552083 539.512690,31.552083 539.766065,31.552083 540.018364,31.552083 540.269525,31.552083 540.519549,31.552083 540.768437,31.552083 541.016187,31.552083 541.262920,31.552083 541.508516,31.552083 541.752975,31.552083 541.996476,31.552083 542.238841,31.552083 542.480188,31.552083 542.720458,31.552083 542.959710,31.552083 543.197945,31.552083 543.435103,31.552083 543.671304,31.552083 543.906487,31.552083 544.140713,31.552083 544.373921,31.552083 544.606172,31.552083 544.837406,31.552083 545.067742,31.552083 545.297060,31.552083 545.525481,31.552083 545.752945,31.552083 545.979451,31.552083 546.205059,31.552083 546.429770,31.552083 546.653523,31.552083 546.876439,31.552083 547.098397,31.552083 547.319517,31.552083 547.539739,31.552083 547.759064,31.552083 547.977551,31.552083 548.195140,31.552083 548.411892,31.552083 548.627806,31.552083 548.842882,31.552083 549.057120,31.552083 549.270520,31.552083 549.483083,31.552083 549.694867,31.552083 549.905814,31.552083 550.115983,31.552083 550.325314,31.552083 550.533867,31.552083 550.741642,31.552083 550.948639,31.552083 551.154859,31.552083 551.360300,31.552083 551.564963,31.552083 551.768848,31.552083 551.972016,31.552083 552.174465,31.552083 552.376136,31.552083 552.577089,31.552083 552.777264,31.552083 552.976781,31.552083 553.175519,31.552083 553.373540,31.552083 553.570903,31.552083 553.767487,31.552083 553.963413,31.552083 554.158621,31.552083 554.353171,31.552083 554.547003,31.552083 554.740176,31.552083 554.932631,31.552083 555.124488,31.552083 555.315627,31.552083 555.506108,31.552083 555.695870,31.552083 555.885034,31.552083 556.073539,31.552083 556.261447,31.552083 556.448636,31.552083 556.635226,31.552083 556.821159,31.552083 557.006493,31.552083 557.191169,31.552083 557.375246,31.552083 557.558725,31.552083 557.741545,31.552083 557.923767,31.552083 558.105391,31.552083 558.286416,31.552083 558.466843,31.552083 558.646672,31.552083 558.825961,31.552083 559.004593,31.552083 559.182686,31.552083 559.360180,31.552083 559.537076,31.552083 559.713434,31.552083 559.889193,31.552083 560.064414,31.552083 560.239095,31.552083 560.413179,31.552083 560.586724,31.552083 560.759730,31.552083 560.932198,31.552083 561.104127,31.552083"/>
	<clipPath id="clipArea3">
		<rect x="59" y="17" width="502" height="379">
		</rect>
	</clipPath>
	<polyline fill="none" stroke="rgb(28,108,200)" stroke-width="2" stroke-opacity="1" clip-path="url(#clipArea3)" points="58.957332,291.489962 60.023795,292.283265 61.092832,293.076473 62.164561,293.869574 63.239163,294.662550 64.316936,295.455411 65.398061,296.248126 66.482717,297.040707 67.571202,297.833134 68.663637,298.625397 69.760321,299.417496 70.861494,300.209412 71.967334,301.001144 73.078140,301.792675 74.194154,302.583993 75.315613,303.375099 76.442817,304.165964 77.575945,304.956589 78.715417,305.746962 79.861412,306.537066 81.014228,307.326890 82.174166,308.116426 83.341585,308.905643 84.516783,309.694542 85.700060,310.483113 86.891775,311.271318 88.092346,312.059166 89.302014,312.846620 90.521256,313.633668 91.750373,314.420302 92.989902,315.206488 94.240144,315.992206 95.501576,316.777443 96.774617,317.562168 98.059867,318.346363 99.357683,319.130000 100.668605,319.913048 101.993232,320.695485 103.332041,321.477280 104.685691,322.258396 106.054720,323.038808 107.439788,323.818474 108.841612,324.597358 110.260850,325.375424 111.698280,326.152622 113.154621,326.928914 114.630710,327.704246 116.127385,328.478567 117.645544,329.251833 119.186144,330.023970 120.750142,330.794927 122.338676,331.564631 123.952823,332.333015 125.593660,333.099996 127.262623,333.865498 128.960850,334.629423 130.689836,335.391682 132.451017,336.152171 134.245950,336.910772 136.076370,337.667372 137.944012,338.421833 139.850791,339.174014 141.798683,339.923762 143.789781,340.670907 145.826540,341.415267 147.911233,342.156638 150.046493,342.894805 152.235134,343.629526 154.480146,344.360537 156.784643,345.087547 159.152034,345.810244 161.585852,346.528281 164.089985,347.241263 166.668562,347.948775 169.325834,348.650340 172.066407,349.345447 174.895128,350.033518 177.817086,350.713921 180.837545,351.385954 183.962011,352.048849 187.196110,352.701754 190.545526,353.343734 194.015825,353.973767 197.612513,354.590725 201.340556,355.193419 205.204443,355.780539 209.207705,356.350719 213.352735,356.902524 217.640191,357.434485 222.068937,357.945134 226.635321,358.433043 231.333002,358.896894 236.152942,359.335526 241.082933,359.748009 246.107895,360.133700 251.210474,360.492287 256.371160,360.823826 261.569428,361.128742 266.784152,361.407802 271.994688,361.662089 277.181466,361.892920 282.326473,362.101801 287.413732,362.290346 292.429418,362.460212 297.361983,362.613054 302.201970,362.750472 306.941900,362.873989 311.576147,362.985026 316.100581,363.084900 320.512571,363.174801 324.810440,363.255812 328.993769,363.328908 333.062739,363.394960 337.018305,363.454740 340.862025,363.508937 344.595754,363.558166 348.221944,363.602965 351.743110,363.643813 355.162124,363.681133 358.481918,363.715299 361.705604,363.746644 364.836353,363.775458 367.877398,363.802000 370.831790,363.826501 373.702761,363.849166 376.493483,363.870170 379.206887,363.889681 381.845966,363.907835 384.413652,363.924763 386.912639,363.940577 389.345738,363.955377 391.715464,363.969256 394.024329,363.982292 396.274667,363.994562 398.468813,364.006128 400.608921,364.017051 402.697085,364.027381 404.735280,364.037169 406.725420,364.046456 408.669243,364.055280 410.568542,364.063679 412.424934,364.071687 414.239974,364.079328 416.015158,364.086633 417.751924,364.093624 419.451586,364.100322 421.115523,364.106751 422.744870,364.112927 424.340825,364.118867 425.904524,364.124587 427.437045,364.130103 428.939465,364.135426 430.412681,364.140568 431.857592,364.145541 433.275214,364.150356 434.666386,364.155023 436.031825,364.159548 437.372430,364.163941 438.688917,364.168211 439.982006,364.172363 441.252414,364.176406 442.500801,364.180341 443.727763,364.184180 444.933960,364.187924 446.119989,364.191580 447.286391,364.195153 448.433702,364.198645 449.562521,364.202061 450.673328,364.205403 451.766541,364.208681 452.842699,364.211890 453.902281,364.215040 454.945644,364.218129 455.973269,364.221162 456.985575,364.224143 457.982919,364.227071 458.965662,364.229950 459.934222,364.232784 460.888958,364.235569 461.830170,364.238314 462.758156,364.241018 463.673336,364.243683 464.575949,364.246309 465.466354,364.248899 466.344790,364.251454 467.211498,364.253977 468.066834,364.256466 468.911041,364.258923 469.744415,364.261352 470.567078,364.263752 471.379328,364.266123 472.181464,364.268470 472.973666,364.270791 473.756114,364.273085 474.529047,364.275357 475.292645,364.277605 476.047206,364.279832 476.792791,364.282034 477.529698,364.284217 478.258048,364.286381 478.978020,364.288526 479.689794,364.290651 480.393548,364.292757 481.089463,364.294844 481.777658,364.296916 482.458313,364.298971 483.131548,364.301007 483.797541,364.303032 484.456413,364.305039 485.108284,364.307031 485.753332,364.309007 486.391678,364.310971 487.023441,364.312921 487.648741,364.314858 488.267698,364.316781 488.880372,364.318692 489.487001,364.320590 490.087646,364.322477 490.682366,364.324352 491.271281,364.326214 491.854572,364.328067 492.432237,364.329908 493.004396,364.331740 493.571230,364.333559 494.132737,364.335369 494.689039,364.337169 495.240253,364.338959 495.786441,364.340740 496.327661,364.342511 496.864035,364.344275 497.395621,364.346026 497.922479,364.347771 498.444729,364.349508 498.962492,364.351236 499.475706,364.352954 499.984551,364.354665 500.489028,364.356368 500.989316,364.358065 501.485355,364.359754 501.977265,364.361433 502.465106,364.363106 502.948937,364.364773 503.428819,364.366431 503.904870,364.368084 504.377032,364.369727 504.845484,364.371366 505.310165,364.372997 505.771256,364.374624 506.228696,364.376243 506.682606,364.377855 507.132985,364.379460 507.579952,364.381062 508.023509,364.382655 508.463715,364.384243 508.900629,364.385826 509.334312,364.387402 509.764763,364.388973 510.192042,364.390539 510.616150,364.392098 511.037266,364.393652 511.455329,364.395202 511.870341,364.396746 512.282480,364.398284 512.691627,364.399819 513.097962,364.401346 513.501424,364.402869 513.902073,364.404387 514.299969,364.405900 514.695173,364.407409 515.087684,364.408913 515.477501,364.410411 515.864686,364.411908 516.249297,364.413397 516.631395,364.414881 517.010920,364.416363 517.387931,364.417840 517.762549,364.419310 518.134713,364.420777 518.504423,364.422243 518.871800,364.423700 519.236843,364.425156 519.599551,364.426606 519.959986,364.428052 520.318207,364.429495 520.674093,364.430934 521.027826,364.432368 521.379404,364.433799 521.728827,364.435223 522.076097,364.436647 522.421272,364.438066 522.764352,364.439481 523.105397,364.440891 523.444349,364.442298 523.781385,364.443703 524.116386,364.445103 524.449413,364.446498 524.780524,364.447890 525.109661,364.449281 525.436943,364.450666 525.762370,364.452047 526.085881,364.453425 526.407598,364.454801 526.727459,364.456172 527.045584,364.457541 527.361855,364.458905 527.676390,364.460266 527.989190,364.461625 528.300314,364.462980 528.609703,364.464331 528.917356,364.465678 529.223393,364.467023 529.527755,364.468365 529.830501,364.469705 530.131631,364.471040 530.431146,364.472372 530.729105,364.473700 531.025447,364.475025 531.320234,364.476348 531.613525,364.477669 531.905320,364.478987 532.195559,364.480300 532.484302,364.481611 532.771608,364.482917 533.057419,364.484223 533.341793,364.485524 533.624671,364.486823 533.906233,364.488119 534.186298,364.489413 534.465047,364.490702 534.742360,364.491989 535.018356,364.493273 535.292976,364.494555 535.566219,364.495835 535.838206,364.497112 536.108816,364.498384 536.378170,364.499656 536.646207,364.500924 536.912928,364.502189 537.178451,364.503451 537.442658,364.504712 537.705669,364.505967 537.967422,364.507222 538.227919,364.508473 538.487279,364.509724 538.745382,364.510969 539.002348,364.512213 539.258058,364.513454 539.512690,364.514692 539.766065,364.515931 540.018364,364.517162 540.269525,364.518393 540.519549,364.519622 540.768437,364.520849 541.016187,364.522073 541.262920,364.523295 541.508516,364.524511 541.752975,364.525728 541.996476,364.526943 542.238841,364.528152 542.480188,364.529362 542.720458,364.530569 542.959710,364.531772 543.197945,364.532974 543.435103,364.534174 543.671304,364.535369 543.906487,364.536564 544.140713,364.537757 544.373921,364.538948 544.606172,364.540135 544.837406,364.541319 545.067742,364.542502 545.297060,364.543682 545.525481,364.544861 545.752945,364.546037 545.979451,364.547210 546.205059,364.548381 546.429770,364.549552 546.653523,364.550718 546.876439,364.551882 547.098397,364.553046 547.319517,364.554205 547.539739,364.555364 547.759064,364.556521 547.977551,364.557675 548.195140,364.558824 548.411892,364.559974 548.627806,364.561123 548.842882,364.562268 549.057120,364.563410 549.270520,364.564552 549.483083,364.565689 549.694867,364.566827 549.905814,364.567962 550.115983,364.569094 550.325314,364.570224 550.533867,364.571352 550.741642,364.572477 550.948639,364.573603 551.154859,364.574723 551.360300,364.575844 551.564963,364.576962 551.768848,364.578077 551.972016,364.579191 552.174465,364.580304 552.376136,364.581412 552.577089,364.582521 552.777264,364.583627 552.976781,364.584730 553.175519,364.585834 553.373540,364.586933 553.570903,364.588031 553.767487,364.589125 553.963413,364.590219 554.158621,364.591313 554.353171,364.592402 554.547003,364.593492 554.740176,364.594576 554.932631,364.595660 555.124488,364.596745 555.315627,364.597824 555.506108,364.598904 555.695870,364.599978 555.885034,364.601053 556.073539,364.602128 556.261447,364.603198 556.448636,364.604267 556.635226,364.605335 556.821159,364.606400 557.006493,364.607463 557.191169,364.608525 557.375246,364.609585 557.558725,364.610643 557.741545,364.611699 557.923767,364.612754 558.105391,364.613807 558.286416,364.614858 558.466843,364.615906 558.646672,364.616954 558.825961,364.618000 559.004593,364.619043 559.182686,364.620084 559.360180,364.621125 559.537076,364.622164 559.713434,364.623200 559.889193,364.624233 560.064414,364.625267 560.239095,364.626299 560.413179,364.627327 560.586724,364.628356 560.759730,364.629383 560.932198,364.630407 561.104127,364.631429"/>
	<clipPath id="clipArea4">
		<rect x="59" y="17" width="502" height="379">
		</rect>
	</clipPath>
	<polyline fill="none" stroke="rgb(238,46,47)" stroke-width="2" stroke-opacity="1" clip-path="url(#clipArea4)" points="58.957332,32.057948 60.023795,32.067201 61.092832,32.076647 62.164561,32.086246 63.239163,32.096078 64.316936,32.106102 65.398061,32.116280 66.482717,32.126689 67.571202,32.137330 68.663637,32.148203 69.760321,32.159267 70.861494,32.170564 71.967334,32.182130 73.078140,32.193927 74.194154,32.205995 75.315613,32.218332 76.442817,32.230901 77.575945,32.243816 78.715417,32.256963 79.861412,32.270457 81.014228,32.284259 82.174166,32.298370 83.341585,32.312828 84.516783,32.327632 85.700060,32.342822 86.891775,32.358360 88.092346,32.374282 89.302014,32.390629 90.521256,32.407362 91.750373,32.424557 92.989902,32.442214 94.240144,32.460335 95.501576,32.478918 96.774617,32.498040 98.059867,32.517664 99.357683,32.537867 100.668605,32.558647 101.993232,32.580006 103.332041,32.602020 104.685691,32.624651 106.054720,32.648015 107.439788,32.672073 108.841612,32.696863 110.260850,32.722424 111.698280,32.748833 113.154621,32.776129 114.630710,32.804274 116.127385,32.833421 117.645544,32.863531 119.186144,32.894683 120.750142,32.926952 122.338676,32.960378 123.952823,32.995038 125.593660,33.031009 127.262623,33.068329 128.960850,33.107076 130.689836,33.147365 132.451017,33.189273 134.245950,33.232877 136.076370,33.278332 137.944012,33.325715 139.850791,33.375141 141.798683,33.426765 143.789781,33.480740 145.826540,33.537183 147.911233,33.596325 150.046493,33.658281 152.235134,33.723360 154.480146,33.791677 156.784643,33.863503 159.152034,33.939146 161.585852,34.018875 164.089985,34.103038 166.668562,34.191905 169.325834,34.285976 172.066407,34.385561 174.895128,34.491199 177.817086,34.603390 180.837545,34.722715 183.962011,34.849711 187.196110,34.985112 190.545526,35.129651 194.015825,35.284059 197.612513,35.449224 201.340556,35.625993 205.204443,35.815370 209.207705,36.018240 213.352735,36.235646 217.640191,36.468511 222.068937,36.717762 226.635321,36.984208 231.333002,37.268465 236.152942,37.571036 241.082933,37.892074 246.107895,38.231503 251.210474,38.588820 256.371160,38.963294 261.569428,39.353806 266.784152,39.758891 271.994688,40.176931 277.181466,40.606036 282.326473,41.044278 287.413732,41.489729 292.429418,41.940385 297.361983,42.394357 302.201970,42.849987 306.941900,43.305616 311.576147,43.759781 316.100581,44.211324 320.512571,44.659050 324.810440,45.102073 328.993769,45.539621 333.062739,45.971077 337.018305,46.395864 340.862025,46.813633 344.595754,47.224078 348.221944,47.627004 351.743110,48.022220 355.162124,48.409687 358.481918,48.789327 361.705604,49.161217 364.836353,49.525320 367.877398,49.881789 370.831790,50.230625 373.702761,50.572019 376.493483,50.906050 379.206887,51.232833 381.845966,51.552560 384.413652,51.865270 386.912639,52.171195 389.345738,52.470451 391.715464,52.763152 394.024329,53.049491 396.274667,53.329547 398.468813,53.603510 400.608921,53.871498 402.697085,54.133626 404.735280,54.390086 406.725420,54.640957 408.669243,54.886390 410.568542,55.126543 412.424934,55.361490 414.239974,55.591348 416.015158,55.816310 417.751924,56.036414 419.451586,56.251853 421.115523,56.462666 422.744870,56.669044 424.340825,56.871028 425.904524,57.068771 427.437045,57.262350 428.939465,57.451919 430.412681,57.637518 431.857592,57.819299 433.275214,57.997303 434.666386,58.171682 436.031825,58.342514 437.372430,58.509876 438.688917,58.673846 439.982006,58.834538 441.252414,58.992031 442.500801,59.146439 443.727763,59.297763 444.933960,59.446157 446.119989,59.591698 447.286391,59.734386 448.433702,59.874375 449.562521,60.011704 450.673328,60.146411 451.766541,60.278612 452.842699,60.408385 453.902281,60.535728 454.945644,60.660758 455.973269,60.783475 456.985575,60.904033 457.982919,61.022394 458.965662,61.138672 459.934222,61.252907 460.888958,61.365138 461.830170,61.475440 462.758156,61.583815 463.673336,61.690340 464.575949,61.795090 465.466354,61.898068 466.344790,61.999349 467.211498,62.098972 468.066834,62.196937 468.911041,62.293322 469.744415,62.388126 470.567078,62.481465 471.379328,62.573300 472.181464,62.663671 472.973666,62.752653 473.756114,62.840286 474.529047,62.926570 475.292645,63.011504 476.047206,63.095204 476.792791,63.177632 477.529698,63.258865 478.258048,63.338865 478.978020,63.417707 479.689794,63.495432 480.393548,63.572038 481.089463,63.647527 481.777658,63.721974 482.458313,63.795381 483.131548,63.867747 483.797541,63.939148 484.456413,64.009548 485.108284,64.079022 485.753332,64.147532 486.391678,64.215156 487.023441,64.281892 487.648741,64.347704 488.267698,64.412706 488.880372,64.476859 489.487001,64.540165 490.087646,64.602661 490.682366,64.664385 491.271281,64.725339 491.854572,64.785560 492.432237,64.845010 493.004396,64.903728 493.571230,64.961713 494.132737,65.019042 494.689039,65.075678 495.240253,65.131620 495.786441,65.186906 496.327661,65.241537 496.864035,65.295551 497.395621,65.348948 497.922479,65.401690 498.444729,65.453853 498.962492,65.505438 499.475706,65.556445 499.984551,65.606873 500.489028,65.656762 500.989316,65.706072 501.485355,65.754882 501.977265,65.803151 502.465106,65.850881 502.948937,65.898109 503.428819,65.944837 503.904870,65.991063 504.377032,66.036826 504.845484,66.082088 505.310165,66.126888 505.771256,66.171264 506.228696,66.215138 506.682606,66.258588 507.132985,66.301614 507.579952,66.344178 508.023509,66.386356 508.463715,66.428109 508.900629,66.469439 509.334312,66.510345 509.764763,66.550904 510.192042,66.591038 510.616150,66.630787 511.037266,66.670189 511.455329,66.709206 511.870341,66.747837 512.282480,66.786121 512.691627,66.824058 513.097962,66.861609 513.501424,66.898852 513.902073,66.935748 514.299969,66.972297 514.695173,67.008538 515.087684,67.044432 515.477501,67.080017 515.864686,67.115294 516.249297,67.150262 516.631395,67.184883 517.010920,67.219235 517.387931,67.253317 517.762549,67.287051 518.134713,67.320555 518.504423,67.353749 518.871800,67.386636 519.236843,67.419252 519.599551,67.451638 519.959986,67.483714 520.318207,67.515521 520.674093,67.547097 521.027826,67.578403 521.379404,67.609439 521.728827,67.640243 522.076097,67.670816 522.421272,67.701120 522.764352,67.731153 523.105397,67.760994 523.444349,67.790565 523.781385,67.819943 524.116386,67.849051 524.449413,67.877966 524.780524,67.906650 525.109661,67.935103 525.436943,67.963363 525.762370,67.991392 526.085881,68.019189 526.407598,68.046794 526.727459,68.074206 527.045584,68.101386 527.361855,68.128374 527.676390,68.155169 527.989190,68.181771 528.300314,68.208180 528.609703,68.234358 528.917356,68.260382 529.223393,68.286213 529.527755,68.311890 529.830501,68.337336 530.131631,68.362627 530.431146,68.387726 530.729105,68.412670 531.025447,68.437422 531.320234,68.461980 531.613525,68.486385 531.905320,68.510635 532.195559,68.534732 532.484302,68.558635 532.771608,68.582384 533.057419,68.605979 533.341793,68.629381 533.624671,68.652668 533.906233,68.675762 534.186298,68.698740 534.465047,68.721564 534.742360,68.744195 535.018356,68.766710 535.292976,68.789072 535.566219,68.811279 535.838206,68.833370 536.108816,68.855307 536.378170,68.877090 536.646207,68.898719 536.912928,68.920232 537.178451,68.941629 537.442658,68.962872 537.705669,68.983961 537.967422,69.004935 538.227919,69.025792 538.487279,69.046496 538.745382,69.067084 539.002348,69.087556 539.258058,69.107874 539.512690,69.128076 539.766065,69.148162 540.018364,69.168133 540.269525,69.187988 540.519549,69.207728 540.768437,69.227313 541.016187,69.246822 541.262920,69.266176 541.508516,69.285453 541.752975,69.304614 541.996476,69.323621 542.238841,69.342551 542.480188,69.361365 542.720458,69.380064 542.959710,69.398685 543.197945,69.417153 543.435103,69.435543 543.671304,69.453817 543.906487,69.472015 544.140713,69.490097 544.373921,69.508063 544.606172,69.525913 544.837406,69.543687 545.067742,69.561383 545.297060,69.578925 545.525481,69.596428 545.752945,69.613777 545.979451,69.631088 546.205059,69.648283 546.429770,69.665363 546.653523,69.682365 546.876439,69.699290 547.098397,69.716099 547.319517,69.732832 547.539739,69.749487 547.759064,69.766027 547.977551,69.782489 548.195140,69.798875 548.411892,69.815183 548.627806,69.831376 548.842882,69.847491 549.057120,69.863529 549.270520,69.879491 549.483083,69.895375 549.694867,69.911143 549.905814,69.926873 550.115983,69.942488 550.325314,69.958025 550.533867,69.973524 550.741642,69.988907 550.948639,70.004213 551.154859,70.019441 551.360300,70.034632 551.564963,70.049706 551.768848,70.064704 551.972016,70.079662 552.174465,70.094506 552.376136,70.109310 552.577089,70.123999 552.777264,70.138650 552.976781,70.153223 553.175519,70.167758 553.373540,70.182177 553.570903,70.196519 553.767487,70.210823 553.963413,70.225049 554.158621,70.239198 554.353171,70.253309 554.547003,70.267343 554.740176,70.281299 554.932631,70.295179 555.124488,70.309019 555.315627,70.322783 555.506108,70.336470 555.695870,70.350118 555.885034,70.363689 556.073539,70.377183 556.261447,70.390638 556.448636,70.404016 556.635226,70.417317 556.821159,70.430580 557.006493,70.443804 557.191169,70.456951 557.375246,70.470020 557.558725,70.483052 557.741545,70.496006 557.923767,70.508921 558.105391,70.521798 558.286416,70.534560 558.466843,70.547321 558.646672,70.560005 558.825961,70.572612 559.004593,70.585181 559.182686,70.597711 559.360180,70.610164 559.537076,70.622578 559.713434,70.634915 559.889193,70.647214 560.064414,70.659474 560.239095,70.671657 560.413179,70.683802 560.586724,70.695908 560.759730,70.707936 560.932198,70.719927 561.104127,70.731878"/>
</svg>
