<?xml version="1.0" standalone="no"?>
<!DOCTYPE svg PUBLIC "-//W3C//DTD SVG 1.1//EN" "http://www.w3.org/Graphics/SVG/1.1/DTD/svg11.dtd">
<svg width="483" height="300" version="1.1" xmlns="http://www.w3.org/2000/svg" xmlns:xlink="http://www.w3.org/1999/xlink">
	<polyline style="shape-rendering:crispEdges" fill="none" stroke="rgb(229,229,229)" stroke-width="1" stroke-opacity="1" points="59.000000,17.000000 59.000000,275.000000"/>
	<polyline style="shape-rendering:crispEdges" fill="none" stroke="rgb(229,229,229)" stroke-width="1" stroke-opacity="1" points="108.875000,17.000000 108.875000,275.000000"/>
	<polyline style="shape-rendering:crispEdges" fill="none" stroke="rgb(229,229,229)" stroke-width="1" stroke-opacity="1" points="158.750000,17.000000 158.750000,275.000000"/>
	<polyline style="shape-rendering:crispEdges" fill="none" stroke="rgb(229,229,229)" stroke-width="1" stroke-opacity="1" points="208.625000,17.000000 208.625000,275.000000"/>
	<polyline style="shape-rendering:crispEdges" fill="none" stroke="rgb(229,229,229)" stroke-width="1" stroke-opacity="1" points="258.500000,17.000000 258.500000,275.000000"/>
	<polyline style="shape-rendering:crispEdges" fill="none" stroke="rgb(229,229,229)" stroke-width="1" stroke-opacity="1" points="308.375000,17.000000 308.375000,275.000000"/>
	<polyline style="shape-rendering:crispEdges" fill="none" stroke="rgb(229,229,229)" stroke-width="1" stroke-opacity="1" points="358.250000,17.000000 358.250000,275.000000"/>
	<polyline style="shape-rendering:crispEdges" fill="none" stroke="rgb(229,229,229)" stroke-width="1" stroke-opacity="1" points="408.125000,17.000000 408.125000,275.000000"/>
	<polyline style="shape-rendering:crispEdges" fill="none" stroke="rgb(229,229,229)" stroke-width="1" stroke-opacity="1" points="458.000000,17.000000 458.000000,275.000000"/>
	<polyline style="shape-rendering:crispEdges" fill="none" stroke="rgb(229,229,229)" stroke-width="1" stroke-opacity="1" points="59.000000,275.000000 458.000000,275.000000"/>
	<polyline style="shape-rendering:crispEdges" fill="none" stroke="rgb(229,229,229)" stroke-width="1" stroke-opacity="1" points="59.000000,232.000000 458.000000,232.000000"/>
	<polyline style="shape-rendering:crispEdges" fill="none" stroke="rgb(229,229,229)" stroke-width="1" stroke-opacity="1" points="59.000000,189.000000 458.000000,189.000000"/>
	<polyline style="shape-rendering:crispEdges" fill="none" stroke="rgb(229,229,229)" stroke-width="1" stroke-opacity="1" points="59.000000,146.000000 458.000000,146.000000"/>
	<polyline style="shape-rendering:crispEdges" fill="none" stroke="rgb(229,229,229)" stroke-width="1" stroke-opacity="1" points="59.000000,103.000000 458.000000,103.000000"/>
	<polyline style="shape-rendering:crispEdges" fill="none" stroke="rgb(229,229,229)" stroke-width="1" stroke-opacity="1" points="59.000000,60.000000 458.000000,60.000000"/>
	<polyline style="shape-rendering:crispEdges" fill="none" stroke="rgb(229,229,229)" stroke-width="1" stroke-opacity="1" points="59.000000,17.000000 458.000000,17.000000"/>
	<polyline style="shape-rendering:crispEdges" fill="none" stroke="rgb(192,192,192)" stroke-width="1" stroke-opacity="1" points="258.500000,17.000000 258.500000,275.000000"/>
	<polyline style="shape-rendering:crispEdges" fill="none" stroke="rgb(0,0,0)" stroke-width="1" stroke-opacity="1" points="59.000000,275.000000 458.000000,275.000000"/>
	<polyline style="shape-rendering:crispEdges" fill="none" stroke="rgb(0,0,0)" stroke-width="1" stroke-opacity="1" points="458.000000,275.000000 458.000000,17.000000"/>
	<polyline style="shape-rendering:crispEdges" fill="none" stroke="rgb(0,0,0)" stroke-width="1" stroke-opacity="1" points="458.000000,17.000000 59.000000,17.000000"/>
	<polyline style="shape-rendering:crispEdges" fill="none" stroke="rgb(0,0,0)" stroke-width="1" stroke-opacity="1" points="59.000000,17.000000 59.000000,275.000000"/>
	<polyline style="shape-rendering:crispEdges" fill="none" stroke="rgb(0,0,0)" stroke-width="1" stroke-opacity="1" points="59.000000,275.000000 59.000000,279.000000"/>
	<polyline style="shape-rendering:crispEdges" fill="none" stroke="rgb(0,0,0)" stroke-width="1" stroke-opacity="1" points="108.875000,275.000000 108.875000,279.000000"/>
	<polyline style="shape-rendering:crispEdges" fill="none" stroke="rgb(0,0,0)" stroke-width="1" stroke-opacity="1" points="158.750000,275.000000 158.750000,279.000000"/>
	<polyline style="shape-rendering:crispEdges" fill="none" stroke="rgb(0,0,0)" stroke-width="1" stroke-opacity="1" points="208.625000,275.000000 208.625000,279.000000"/>
	<polyline style="shape-rendering:crispEdges" fill="none" stroke="rgb(0,0,0)" stroke-width="1" stroke-opacity="1" points="258.500000,275.000000 258.500000,279.000000"/>
	<polyline style="shape-rendering:crispEdges" fill="none" stroke="rgb(0,0,0)" stroke-width="1" stroke-opacity="1" points="308.375000,275.000000 308.375000,279.000000"/>
	<polyline style="shape-rendering:crispEdges" fill="none" stroke="rgb(0,0,0)" stroke-width="1" stroke-opacity="1" points="358.250000,275.000000 358.250000,279.000000"/>
	<polyline style="shape-rendering:crispEdges" fill="none" stroke="rgb(0,0,0)" stroke-width="1" stroke-opacity="1" points="408.125000,275.000000 408.125000,279.000000"/>
	<polyline style="shape-rendering:crispEdges" fill="none" stroke="rgb(0,0,0)" stroke-width="1" stroke-opacity="1" points="458.000000,275.000000 458.000000,279.000000"/>
	<polyline style="shape-rendering:crispEdges" fill="none" stroke="rgb(0,0,0)" stroke-width="1" stroke-opacity="1" points="59.000000,275.000000 59.000000,281.400000"/>
	<text style="shape-rendering:crispEdges" x="59" y="291.5" fill="rgb(0,0,0)" dominant-baseline="central" font-size="11" font-family="Arial" text-anchor="middle">-20</text>
	<polyline style="shape-rendering:crispEdges" fill="none" stroke="rgb(0,0,0)" stroke-width="1" stroke-opacity="1" points="158.750000,275.000000 158.750000,281.400000"/>
	<text style="shape-rendering:crispEdges" x="158.75" y="291.5" fill="rgb(0,0,0)" dominant-baseline="central" font-size="11" font-family="Arial" text-anchor="middle">-10</text>
	<polyline style="shape-rendering:crispEdges" fill="none" stroke="rgb(0,0,0)" stroke-width="1" stroke-opacity="1" points="258.500000,275.000000 258.500000,281.400000"/>
	<text style="shape-rendering:crispEdges" x="258.5" y="291.5" fill="rgb(0,0,0)" dominant-baseline="central" font-size="11" font-family="Arial" text-anchor="middle">0</text>
	<polyline style="shape-rendering:crispEdges" fill="none" stroke="rgb(0,0,0)" stroke-width="1" stroke-opacity="1" points="358.250000,275.000000 358.250000,281.400000"/>
	<text style="shape-rendering:crispEdges" x="358.25" y="291.5" fill="rgb(0,0,0)" dominant-baseline="central" font-size="11" font-family="Arial" text-anchor="middle">10</text>
	<polyline style="shape-rendering:crispEdges" fill="none" stroke="rgb(0,0,0)" stroke-width="1" stroke-opacity="1" points="458.000000,275.000000 458.000000,281.400000"/>
	<text style="shape-rendering:crispEdges" x="458" y="291.5" fill="rgb(0,0,0)" dominant-baseline="central" font-size="11" font-family="Arial" text-anchor="middle">20</text>
	<polyline style="shape-rendering:crispEdges" fill="none" stroke="rgb(0,0,0)" stroke-width="1" stroke-opacity="1" points="55.000000,275.000000 59.000000,275.000000"/>
	<polyline style="shape-rendering:crispEdges" fill="none" stroke="rgb(0,0,0)" stroke-width="1" stroke-opacity="1" points="55.000000,232.000000 59.000000,232.000000"/>
	<polyline style="shape-rendering:crispEdges" fill="none" stroke="rgb(0,0,0)" stroke-width="1" stroke-opacity="1" points="55.000000,189.000000 59.000000,189.000000"/>
	<polyline style="shape-rendering:crispEdges" fill="none" stroke="rgb(0,0,0)" stroke-width="1" stroke-opacity="1" points="55.000000,146.000000 59.000000,146.000000"/>
	<polyline style="shape-rendering:crispEdges" fill="none" stroke="rgb(0,0,0)" stroke-width="1" stroke-opacity="1" points="55.000000,103.000000 59.000000,103.000000"/>
	<polyline style="shape-rendering:crispEdges" fill="none" stroke="rgb(0,0,0)" stroke-width="1" stroke-opacity="1" points="55.000000,60.000000 59.000000,60.000000"/>
	<polyline style="shape-rendering:crispEdges" fill="none" stroke="rgb(0,0,0)" stroke-width="1" stroke-opacity="1" points="55.000000,17.000000 59.000000,17.000000"/>
	<rect style="shape-rendering:crispEdges" fill="none" stroke="none" stroke-dasharray="none" stroke-width="1" stroke-opacity="1" x="0" y="267" width="51" height="16"/>
	<polyline style="shape-rendering:crispEdges" fill="none" stroke="rgb(0,0,0)" stroke-width="1" stroke-opacity="1" points="52.600000,275.000000 59.000000,275.000000"/>
	<text style="shape-rendering:crispEdges" x="51" y="275" fill="rgb(0,0,0)" dominant-baseline="central" font-size="11" font-family="Arial" text-anchor="end">0</text>
	<polyline style="shape-rendering:crispEdges" fill="none" stroke="rgb(0,0,0)" stroke-width="1" stroke-opacity="1" points="52.600000,232.000000 59.000000,232.000000"/>
	<text style="shape-rendering:crispEdges" x="51" y="232" fill="rgb(0,0,0)" dominant-baseline="central" font-size="11" font-family="Arial" text-anchor="end">10</text>
	<polyline style="shape-rendering:crispEdges" fill="none" stroke="rgb(0,0,0)" stroke-width="1" stroke-opacity="1" points="52.600000,189.000000 59.000000,189.000000"/>
	<text style="shape-rendering:crispEdges" x="51" y="189" fill="rgb(0,0,0)" dominant-baseline="central" font-size="11" font-family="Arial" text-anchor="end">20</text>
	<polyline style="shape-rendering:crispEdges" fill="none" stroke="rgb(0,0,0)" stroke-width="1" stroke-opacity="1" points="52.600000,146.000000 59.000000,146.000000"/>
	<text style="shape-rendering:crispEdges" x="51" y="146" fill="rgb(0,0,0)" dominant-baseline="central" font-size="11" font-family="Arial" text-anchor="end">30</text>
	<polyline style="shape-rendering:crispEdges" fill="none" stroke="rgb(0,0,0)" stroke-width="1" stroke-opacity="1" points="52.600000,103.000000 59.000000,103.000000"/>
	<text style="shape-rendering:crispEdges" x="51" y="103" fill="rgb(0,0,0)" dominant-baseline="central" font-size="11" font-family="Arial" text-anchor="end">40</text>
	<polyline style="shape-rendering:crispEdges" fill="none" stroke="rgb(0,0,0)" stroke-width="1" stroke-opacity="1" points="52.600000,60.000000 59.000000,60.000000"/>
	<text style="shape-rendering:crispEdges" x="51" y="60" fill="rgb(0,0,0)" dominant-baseline="central" font-size="11" font-family="Arial" text-anchor="end">50</text>
	<polyline style="shape-rendering:crispEdges" fill="none" stroke="rgb(0,0,0)" stroke-width="1" stroke-opacity="1" points="52.600000,17.000000 59.000000,17.000000"/>
	<text style="shape-rendering:crispEdges" x="51" y="17" fill="rgb(0,0,0)" dominant-baseline="central" font-size="11" font-family="Arial" text-anchor="end">60</text>
	<clipPath id="clipArea1">
		<rect x="59" y="17" width="399" height="258">
		</rect>
	</clipPath>
	<polyline fill="none" stroke="rgb(238,46,47)" stroke-width="2" stroke-opacity="1" clip-path="url(#clipArea1)" points="59.000000,222.756425 59.797999,222.707400 60.595998,222.658440 61.393998,222.609550 62.191997,222.560730 62.989996,222.511984 63.787995,222.463316 64.585995,222.414725 65.383994,222.366213 66.181993,222.317783 66.979992,222.269438 67.777992,222.221172 68.575991,222.172996 69.374009,222.124906 70.172008,222.076906 70.970008,222.028996 71.768007,221.981173 72.566006,221.933443 73.364005,221.885808 74.162005,221.838264 74.960004,221.790809 75.758003,221.743453 76.556002,221.696192 77.354002,221.649024 78.152001,221.601955 78.950000,221.554981 79.747999,221.508100 80.545998,221.461322 81.343998,221.414635 82.141997,221.368050 82.939996,221.321559 83.737995,221.275167 84.535995,221.228873 85.333994,221.182673 86.131993,221.136576 86.929992,221.090573 87.727992,221.044669 88.525991,220.998863 89.324009,220.953151 90.122008,220.907542 90.920008,220.862027 91.718007,220.816607 92.516006,220.771289 93.314005,220.726065 94.112005,220.680936 94.910004,220.635905 95.708003,220.590973 96.506002,220.546135 97.304002,220.501391 98.102001,220.456745 98.900000,220.412190 99.697999,220.367733 100.495998,220.323371 101.293998,220.279107 102.091997,220.234933 102.889996,220.190854 103.687995,220.146864 104.486004,220.102974 105.284003,220.059173 106.082003,220.015467 106.880002,219.971850 107.678001,219.928329 108.476000,219.884897 109.274000,219.841556 110.071999,219.798309 110.869998,219.755148 111.667997,219.712081 112.465997,219.669105 113.263996,219.626219 114.062005,219.583419 114.860004,219.540713 115.658003,219.498093 116.456002,219.455560 117.254002,219.413121 118.052001,219.370763 118.850000,219.328497 119.647999,219.286320 120.445998,219.244225 121.243998,219.202221 122.041997,219.160302 122.839996,219.118470 123.637995,219.076724 124.436004,219.035064 125.234003,218.993490 126.032003,218.951998 126.830002,218.910596 127.628001,218.869277 128.426000,218.828039 129.224000,218.786888 130.021999,218.745822 130.819998,218.704839 131.617997,218.663941 132.415997,218.623122 133.213996,218.582389 134.012005,218.541742 134.810004,218.501173 135.608003,218.460685 136.406002,218.420284 137.204002,218.379965 138.002001,218.339724 138.800000,218.299569 139.597999,218.259492 140.395998,218.219497 141.193998,218.179584 141.991997,218.139753 142.789996,218.100000 143.587995,218.060328 144.386004,218.020739 145.184003,217.981228 145.982003,217.941795 146.780002,217.902448 147.578001,217.863174 148.376000,217.823983 149.174000,217.784874 149.971999,217.745842 150.769998,217.706889 151.567997,217.668013 152.365997,217.629220 153.163996,217.590504 153.962005,217.551866 154.760004,217.513306 155.558003,217.474829 156.356002,217.436425 157.154002,217.398103 157.952001,217.359859 158.750000,217.321688 159.547999,217.283600 160.345998,217.245586 161.143998,217.207653 161.941997,217.169795 162.739996,217.132018 163.537995,217.094315 164.336004,217.056691 165.134003,217.019144 165.932003,216.981675 166.730002,216.944279 167.528001,216.906962 168.326000,216.869723 169.124000,216.832561 169.921999,216.795474 170.719998,216.758464 171.517997,216.721528 172.315997,216.684670 173.113996,216.647890 173.912005,216.611184 174.710004,216.574555 175.508003,216.538005 176.306002,216.501524 177.104002,216.465126 177.902001,216.428797 178.700000,216.392550 179.497999,216.356372 180.295998,216.320273 181.093998,216.284247 181.892002,216.248300 182.690001,216.212426 183.488000,216.176626 184.285999,216.140904 185.083999,216.105256 185.881998,216.069681 186.680002,216.034181 187.478001,215.998754 188.276000,215.963405 189.074000,215.928130 189.871999,215.892925 190.669998,215.857797 191.468002,215.822744 192.266001,215.787764 193.064001,215.752858 193.862000,215.718025 194.659999,215.683267 195.457998,215.648583 196.256002,215.613968 197.054002,215.579431 197.852001,215.544964 198.650000,215.510570 199.447999,215.476251 200.245998,215.442005 201.043998,215.407833 201.842002,215.373731 202.640001,215.339702 203.438000,215.305743 204.235999,215.271859 205.033999,215.238047 205.831998,215.204306 206.630002,215.170638 207.428001,215.137041 208.226000,215.103512 209.024000,215.070062 209.821999,215.036678 210.619998,215.003367 211.418002,214.970126 212.216001,214.936954 213.014001,214.903857 213.812000,214.870829 214.609999,214.837867 215.407998,214.804982 216.206002,214.772164 217.004002,214.739415 217.802001,214.706736 218.600000,214.674126 219.397999,214.641590 220.196001,214.609120 220.994000,214.576720 221.791999,214.544385 222.590001,214.512124 223.388000,214.479928 224.185999,214.447803 224.984001,214.415747 225.782000,214.383757 226.580000,214.351836 227.378001,214.319981 228.176000,214.288196 228.974000,214.256476 229.771999,214.224826 230.570000,214.193242 231.368000,214.161727 232.165999,214.130274 232.964001,214.098890 233.762000,214.067573 234.559999,214.036320 235.358001,214.005134 236.156000,213.974017 236.953999,213.942962 237.752001,213.911972 238.550000,213.881048 239.348000,213.850189 240.146000,213.819396 240.944000,213.788665 241.742001,213.757999 242.540000,213.727399 243.338000,213.696864 244.135999,213.666391 244.934000,213.635980 245.732000,213.605634 246.530000,213.575350 247.328000,213.545131 248.126000,213.514973 248.924000,213.484878 249.722000,213.454848 250.520000,213.424879 251.318000,213.394968 252.116000,213.365122 252.914000,213.335338 253.712000,213.305615 254.510000,213.275950 255.308000,213.246351 256.106000,213.216808 256.904000,213.187328 257.702000,213.157909 258.500000,213.128547 259.298000,213.099247 260.096000,213.070008 260.894000,213.040827 261.692000,213.011703 262.490000,212.982640 263.288000,212.953640 264.086000,212.924692 264.884000,212.895806 265.682000,212.866977 266.480000,212.838206 267.278000,212.809492 268.076000,212.780836 268.874000,212.752237 269.672000,212.723695 270.470000,212.695211 271.268000,212.666785 272.066000,212.638415 272.864001,212.610099 273.662000,212.581841 274.460000,212.553635 275.257999,212.525492 276.056000,212.497397 276.854000,212.469364 277.652000,212.441380 278.450000,212.413454 279.247999,212.385585 280.046001,212.357765 280.844000,212.330002 281.641999,212.302293 282.440001,212.274642 283.238000,212.247039 284.035999,212.219490 284.834001,212.191998 285.632000,212.164556 286.430000,212.137170 287.228001,212.109834 288.026000,212.082552 288.824000,212.055318 289.621999,212.028142 290.420000,212.001016 291.218000,211.973942 292.015999,211.946922 292.814001,211.919951 293.612000,211.893029 294.409999,211.866161 295.208001,211.839346 296.006000,211.812576 296.803999,211.785863 297.602001,211.759196 298.400000,211.732581 299.197999,211.706016 299.995998,211.679501 300.793998,211.653038 301.592002,211.626621 302.390001,211.600257 303.188000,211.573938 303.985999,211.547672 304.783999,211.521452 305.581998,211.495285 306.380002,211.469162 307.178001,211.443090 307.976000,211.417070 308.774000,211.391091 309.571999,211.365166 310.369998,211.339286 311.168002,211.313455 311.966001,211.287673 312.764001,211.261937 313.562000,211.236249 314.359999,211.210611 315.157998,211.185018 315.956002,211.159470 316.754002,211.133971 317.552001,211.108518 318.350000,211.083113 319.147999,211.057754 319.945998,211.032444 320.743998,211.007179 321.542002,210.981959 322.340001,210.956784 323.138000,210.931658 323.935999,210.906578 324.733999,210.881542 325.531998,210.856552 326.330002,210.831611 327.128001,210.806711 327.926000,210.781860 328.724000,210.757055 329.521999,210.732294 330.319998,210.707574 331.118002,210.682904 331.916001,210.658279 332.714001,210.633698 333.512000,210.609163 334.309999,210.584669 335.107998,210.560224 335.906002,210.535820 336.704002,210.511466 337.502001,210.487152 338.300000,210.462884 339.097999,210.438660 339.895998,210.414478 340.693998,210.390345 341.491997,210.366252 342.289996,210.342205 343.087995,210.318203 343.886004,210.294242 344.684003,210.270331 345.482003,210.246460 346.280002,210.222630 347.078001,210.198845 347.876000,210.175106 348.674000,210.151412 349.471999,210.127758 350.269998,210.104150 351.067997,210.080587 351.865997,210.057064 352.663996,210.033583 353.462005,210.010151 354.260004,209.986756 355.058003,209.963410 355.856002,209.940106 356.654002,209.916842 357.452001,209.893627 358.250000,209.870449 359.047999,209.847317 359.845998,209.824229 360.643998,209.801183 361.441997,209.778181 362.239996,209.755221 363.037995,209.732306 363.836004,209.709431 364.634003,209.686602 365.432003,209.663814 366.230002,209.641071 367.028001,209.618369 367.826000,209.595712 368.624000,209.573096 369.421999,209.550521 370.219998,209.527992 371.017997,209.505507 371.815997,209.483063 372.613996,209.460661 373.412005,209.438303 374.210004,209.415986 375.008003,209.393715 375.806002,209.371485 376.604002,209.349299 377.402001,209.327155 378.200000,209.305052 378.997999,209.282993 379.795998,209.260976 380.593998,209.239004 381.391997,209.217073 382.189996,209.195187 382.987995,209.173342 383.786004,209.151542 384.584003,209.129783 385.382003,209.108066 386.180002,209.086393 386.978001,209.064765 387.776000,209.043179 388.574000,209.021633 389.371999,209.000133 390.169998,208.978673 390.967997,208.957259 391.765997,208.935885 392.563996,208.914553 393.362005,208.893266 394.160004,208.872024 394.958003,208.850822 395.756002,208.829662 396.554002,208.808547 397.352001,208.787477 398.150000,208.766448 398.947999,208.745461 399.745998,208.724518 400.543998,208.703620 401.341997,208.682763 402.139996,208.661948 402.937995,208.641177 403.736004,208.620452 404.534003,208.599767 405.332003,208.579124 406.130002,208.558526 406.928001,208.537972 407.726000,208.517460 408.524000,208.496993 409.321999,208.476571 410.119998,208.456186 410.917997,208.435850 411.715997,208.415555 412.513996,208.395306 413.312005,208.375097 414.110004,208.354933 414.908003,208.334811 415.706002,208.314733 416.504002,208.294701 417.302001,208.274713 418.100000,208.254767 418.897999,208.234862 419.695998,208.215006 420.493998,208.195187 421.291997,208.175417 422.089996,208.155688 422.887995,208.136004 423.685995,208.116365 424.483994,208.096772 425.281993,208.077219 426.079992,208.057711 426.877992,208.038245 427.675991,208.018828 428.474009,207.999451 429.272008,207.980120 430.070008,207.960830 430.868007,207.941589 431.666006,207.922389 432.464005,207.903234 433.262005,207.884125 434.060004,207.865060 434.858003,207.846036 435.656002,207.827058 436.454002,207.808129 437.252001,207.789240 438.050000,207.770397 438.847999,207.751599 439.645998,207.732842 440.443998,207.714134 441.241997,207.695471 442.039996,207.676850 442.837995,207.658277 443.635995,207.639746 444.433994,207.621263 445.231993,207.602822 446.029992,207.584430 446.827992,207.566079 447.625991,207.547777 448.424009,207.529520 449.222008,207.511304 450.020008,207.493138 450.818007,207.475016 451.616006,207.456940 452.414005,207.438909 453.212005,207.420923 454.010004,207.402986 454.808003,207.385090 455.606002,207.367243 456.404002,207.349442 457.202001,207.331685 458.000000,207.313978 458.000000,207.313978"/>
	<clipPath id="clipArea2">
		<rect x="59" y="17" width="399" height="258">
		</rect>
	</clipPath>
	<polyline fill="none" stroke="rgb(238,46,47)" stroke-width="2" stroke-opacity="1" clip-path="url(#clipArea2)" points="59.000000,175.964116 59.797999,175.735398 60.595998,175.506212 61.393998,175.276551 62.191997,175.046447 62.989996,174.815892 63.787995,174.584894 64.585995,174.353478 65.383994,174.121643 66.181993,173.889398 66.979992,173.656744 67.777992,173.423695 68.575991,173.190261 69.374009,172.956434 70.172008,172.722237 70.970008,172.487663 71.768007,172.252720 72.566006,172.017416 73.364005,171.781743 74.162005,171.545726 74.960004,171.309348 75.758003,171.072625 76.556002,170.835558 77.354002,170.598146 78.152001,170.360390 78.950000,170.122297 79.747999,169.883869 80.545998,169.645112 81.343998,169.406011 82.141997,169.166590 82.939996,168.926832 83.737995,168.686755 84.535995,168.446342 85.333994,168.205608 86.131993,167.964547 86.929992,167.723166 87.727992,167.481456 88.525991,167.239427 89.324009,166.997070 90.122008,166.754393 90.920008,166.511387 91.718007,166.268062 92.516006,166.024417 93.314005,165.780445 94.112005,165.536152 94.910004,165.291531 95.708003,165.046590 96.506002,164.801321 97.304002,164.555733 98.102001,164.309816 98.900000,164.063571 99.697999,163.816998 100.495998,163.570105 101.293998,163.322876 102.091997,163.075319 102.889996,162.827434 103.687995,162.579221 104.486004,162.330672 105.284003,162.081786 106.082003,161.832572 106.880002,161.583030 107.678001,161.333144 108.476000,161.082921 109.274000,160.832362 110.071999,160.581467 110.869998,160.330236 111.667997,160.078660 112.465997,159.826740 113.263996,159.574483 114.062005,159.321882 114.860004,159.068937 115.658003,158.815638 116.456002,158.562004 117.254002,158.308017 118.052001,158.053677 118.850000,157.798993 119.647999,157.543956 120.445998,157.288574 121.243998,157.032832 122.041997,156.776745 122.839996,156.520298 123.637995,156.263498 124.436004,156.006336 125.234003,155.748823 126.032003,155.490956 126.830002,155.232721 127.628001,154.974132 128.426000,154.715183 129.224000,154.455873 130.021999,154.196202 130.819998,153.936171 131.617997,153.675770 132.415997,153.415008 133.213996,153.153886 134.012005,152.892394 134.810004,152.630542 135.608003,152.368320 136.406002,152.105730 137.204002,151.842778 138.002001,151.579458 138.800000,151.315760 139.597999,151.051701 140.395998,150.787273 141.193998,150.522477 141.991997,150.257311 142.789996,149.991776 143.587995,149.725872 144.386004,149.459590 145.184003,149.192940 145.982003,148.925920 146.780002,148.658532 147.578001,148.390774 148.376000,148.122639 149.174000,147.854136 149.971999,147.585262 150.769998,147.316012 151.567997,147.046393 152.365997,146.776404 153.163996,146.506039 153.962005,146.235304 154.760004,145.964200 155.558003,145.692719 156.356002,145.420869 157.154002,145.148649 157.952001,144.876061 158.750000,144.603095 159.547999,144.329761 160.345998,144.056057 161.143998,143.781984 161.941997,143.507542 162.739996,143.232731 163.537995,142.957543 164.336004,142.681994 165.134003,142.406067 165.932003,142.129780 166.730002,141.853124 167.528001,141.576098 168.326000,141.298704 169.124000,141.020940 169.921999,140.742816 170.719998,140.464322 171.517997,140.185468 172.315997,139.906245 173.113996,139.626652 173.912005,139.346699 174.710004,139.066385 175.508003,138.785709 176.306002,138.504665 177.104002,138.223260 177.902001,137.941494 178.700000,137.659367 179.497999,137.376871 180.295998,137.094031 181.093998,136.810830 181.892002,136.527251 182.690001,136.243328 183.488000,135.959061 184.285999,135.674416 185.083999,135.389411 185.881998,135.104061 186.680002,134.818366 187.478001,134.532294 188.276000,134.245878 189.074000,133.959118 189.871999,133.671996 190.669998,133.384513 191.468002,133.096687 192.266001,132.808515 193.064001,132.519983 193.862000,132.231106 194.659999,131.941885 195.457998,131.652303 196.256002,131.362376 197.054002,131.072105 197.852001,130.781490 198.650000,130.490514 199.447999,130.199209 200.245998,129.907544 201.043998,129.615551 201.842002,129.323196 202.640001,129.030514 203.438000,128.737471 204.235999,128.444100 205.033999,128.150384 205.831998,127.856324 206.630002,127.561919 207.428001,127.267170 208.226000,126.972077 209.024000,126.676655 209.821999,126.380889 210.619998,126.084795 211.418002,125.788340 212.216001,125.491573 213.014001,125.194446 213.812000,124.896990 214.609999,124.599190 215.407998,124.301062 216.206002,124.002589 217.004002,123.703789 217.802001,123.404644 218.600000,123.105170 219.397999,122.805369 220.196001,122.505207 220.994000,122.204733 221.791999,121.903915 222.590001,121.602769 223.388000,121.301278 224.185999,120.999459 224.984001,120.697296 225.782000,120.394821 226.580000,120.091985 227.378001,119.788837 228.176000,119.485345 228.974000,119.181525 229.771999,118.877361 230.570000,118.572868 231.368000,118.268048 232.165999,117.962899 232.964001,117.657406 233.762000,117.351585 234.559999,117.045419 235.358001,116.738925 236.156000,116.432103 236.953999,116.124953 237.752001,115.817459 238.550000,115.509637 239.348000,115.201470 240.146000,114.892975 240.944000,114.584152 241.742001,114.274984 242.540000,113.965489 243.338000,113.655649 244.135999,113.345481 244.934000,113.034985 245.732000,112.724144 246.530000,112.412975 247.328000,112.101462 248.126000,111.789605 248.924000,111.477419 249.722000,111.164905 250.520000,110.852031 251.318000,110.538844 252.116000,110.225297 252.914000,109.911422 253.712000,109.597202 254.510000,109.282655 255.308000,108.967762 256.106000,108.652526 256.904000,108.336945 257.702000,108.021019 258.500000,107.704765 259.298000,107.388167 260.096000,107.071225 260.894000,106.753921 261.692000,106.436290 262.490000,106.118314 263.288000,105.799993 264.086000,105.481328 264.884000,105.162302 265.682000,104.842949 266.480000,104.523234 267.278000,104.203175 268.076000,103.882771 268.874000,103.562023 269.672000,103.240914 270.470000,102.919460 271.268000,102.597662 272.066000,102.275504 272.864001,101.952984 273.662000,101.630120 274.460000,101.306911 275.257999,100.983342 276.056000,100.659411 276.854000,100.335136 277.652000,100.010501 278.450000,99.685504 279.247999,99.360163 280.046001,99.034445 280.844000,98.708382 281.641999,98.381958 282.440001,98.055174 283.238000,97.728028 284.035999,97.400522 284.834001,97.072655 285.632000,96.744427 286.430000,96.415838 287.228001,96.086872 288.026000,95.757561 288.824000,95.427874 289.621999,95.097825 290.420000,94.767415 291.218000,94.436628 292.015999,94.105481 292.814001,93.773972 293.612000,93.442086 294.409999,93.109823 295.208001,92.777215 296.006000,92.444214 296.803999,92.110852 297.602001,91.777129 298.400000,91.443028 299.197999,91.108551 299.995998,90.773696 300.793998,90.438480 301.592002,90.102887 302.390001,89.766933 303.188000,89.430585 303.985999,89.093877 304.783999,88.756791 305.581998,88.419328 306.380002,88.081488 307.178001,87.743287 307.976000,87.404692 308.774000,87.065736 309.571999,86.726387 310.369998,86.386677 311.168002,86.046589 311.966001,85.706108 312.764001,85.365266 313.562000,85.024047 314.359999,84.682434 315.157998,84.340460 315.956002,83.998109 316.754002,83.655364 317.552001,83.312258 318.350000,82.968775 319.147999,82.624899 319.945998,82.280661 320.743998,81.936030 321.542002,81.591038 322.340001,81.245652 323.138000,80.899889 323.935999,80.553765 324.733999,80.207248 325.531998,79.860369 326.330002,79.513097 327.128001,79.165448 327.926000,78.817437 328.724000,78.469050 329.521999,78.120269 330.319998,77.771127 331.118002,77.421607 331.916001,77.071711 332.714001,76.721437 333.512000,76.370802 334.309999,76.019773 335.107998,75.668384 335.906002,75.316634 336.704002,74.964490 337.502001,74.611985 338.300000,74.259120 339.097999,73.905861 339.895998,73.552257 340.693998,73.198276 341.491997,72.843917 342.289996,72.489198 343.087995,72.134118 343.886004,71.778661 344.684003,71.422859 345.482003,71.066680 346.280002,70.710124 347.078001,70.353223 347.876000,69.995961 348.674000,69.638339 349.471999,69.280355 350.269998,68.922011 351.067997,68.563322 351.865997,68.204273 352.663996,67.844862 353.462005,67.485091 354.260004,67.124992 355.058003,66.764515 355.856002,66.403710 356.654002,66.042545 357.452001,65.681034 358.250000,65.319180 359.047999,64.956997 359.845998,64.594454 360.643998,64.231566 361.441997,63.868350 362.239996,63.504789 363.037995,63.140884 363.836004,62.776651 364.634003,62.412090 365.432003,62.047201 366.230002,61.681968 367.028001,61.316422 367.826000,60.950533 368.624000,60.584331 369.421999,60.217802 370.219998,59.850944 371.017997,59.483775 371.815997,59.116294 372.613996,58.748485 373.412005,58.380365 374.210004,58.011932 375.008003,57.643205 375.806002,57.274149 376.604002,56.904799 377.402001,56.535152 378.200000,56.165195 378.997999,55.794942 379.795998,55.424377 380.593998,55.053534 381.391997,54.682395 382.189996,54.310961 382.987995,53.939248 383.786004,53.567240 384.584003,53.194953 385.382003,52.822387 386.180002,52.449542 386.978001,52.076435 387.776000,51.703033 388.574000,51.329368 389.371999,50.955441 390.169998,50.581234 390.967997,50.206782 391.765997,49.832051 392.563996,49.457074 393.362005,49.081851 394.160004,48.706365 394.958003,48.330634 395.756002,47.954639 396.554002,47.578416 397.352001,47.201962 398.150000,46.825246 398.947999,46.448317 399.745998,46.071142 400.543998,45.693754 401.341997,45.316119 402.139996,44.938272 402.937995,44.560211 403.736004,44.181920 404.534003,43.803433 405.332003,43.424716 406.130002,43.045802 406.928001,42.666691 407.726000,42.287367 408.524000,41.907846 409.321999,41.528145 410.119998,41.148231 410.917997,40.768152 411.715997,40.387877 412.513996,40.007421 413.312005,39.626801 414.110004,39.246001 414.908003,38.865020 415.706002,38.483892 416.504002,38.102583 417.302001,37.721127 418.100000,37.339523 418.897999,36.957755 419.695998,36.575839 420.493998,36.193792 421.291997,35.811598 422.089996,35.429256 422.887995,35.046799 423.685995,34.664211 424.483994,34.281491 425.281993,33.898657 426.079992,33.515708 426.877992,33.132644 427.675991,32.749465 428.474009,32.366204 429.272008,31.982829 430.070008,31.599355 430.868007,31.215799 431.666006,30.832145 432.464005,30.448425 433.262005,30.064606 434.060004,29.680738 434.858003,29.296789 435.656002,28.912774 436.454002,28.528693 437.252001,28.144563 438.050000,27.760383 438.847999,27.376155 439.645998,26.991893 440.443998,26.607599 441.241997,26.223256 442.039996,25.838896 442.837995,25.454504 443.635995,25.070111 444.433994,24.685702 445.231993,24.301277 446.029992,23.916851 446.827992,23.532442 447.625991,23.148017 448.424009,22.763625 449.222008,22.379248 450.020008,21.994889 450.818007,21.610562 451.616006,21.226284 452.414005,20.842023 453.212005,20.457827 454.010004,20.073664 454.808003,19.689567 455.606002,19.305535 456.404002,18.921569 457.202001,18.537685 458.000000,18.153883 458.000000,18.153883"/>
	<clipPath id="clipArea3">
		<rect x="59" y="17" width="399" height="258">
		</rect>
	</clipPath>
	<polyline fill="none" stroke="rgb(238,46,47)" stroke-width="2" stroke-opacity="1" clip-path="url(#clipArea3)" points="59.000000,266.546706 59.797999,266.542801 60.595998,266.538906 61.393998,266.535021 62.191997,266.531146 62.989996,266.527281 63.787995,266.523426 64.585995,266.519581 65.383994,266.515747 66.181993,266.511924 66.979992,266.508111 67.777992,266.504308 68.575991,266.500517 69.374009,266.496737 70.172008,266.492968 70.970008,266.489210 71.768007,266.485463 72.566006,266.481727 73.364005,266.478003 74.162005,266.474291 74.960004,266.470589 75.758003,266.466899 76.556002,266.463220 77.354002,266.459553 78.152001,266.455897 78.950000,266.452253 79.747999,266.448620 80.545998,266.444999 81.343998,266.441389 82.141997,266.437790 82.939996,266.434204 83.737995,266.430628 84.535995,266.427065 85.333994,266.423512 86.131993,266.419971 86.929992,266.416442 87.727992,266.412924 88.525991,266.409417 89.324009,266.405922 90.122008,266.402438 90.920008,266.398966 91.718007,266.395503 92.516006,266.392054 93.314005,266.388614 94.112005,266.385187 94.910004,266.381770 95.708003,266.378364 96.506002,266.374970 97.304002,266.371587 98.102001,266.368215 98.900000,266.364853 99.697999,266.361503 100.495998,266.358163 101.293998,266.354835 102.091997,266.351516 102.889996,266.348209 103.687995,266.344913 104.486004,266.341627 105.284003,266.338353 106.082003,266.335087 106.880002,266.331833 107.678001,266.328591 108.476000,266.325358 109.274000,266.322135 110.071999,266.318923 110.869998,266.315721 111.667997,266.312531 112.465997,266.309350 113.263996,266.306179 114.062005,266.303018 114.860004,266.299868 115.658003,266.296728 116.456002,266.293598 117.254002,266.290478 118.052001,266.287367 118.850000,266.284267 119.647999,266.281177 120.445998,266.278097 121.243998,266.275027 122.041997,266.271966 122.839996,266.268915 123.637995,266.265874 124.436004,266.262843 125.234003,266.259821 126.032003,266.256809 126.830002,266.253806 127.628001,266.250814 128.426000,266.247831 129.224000,266.244858 130.021999,266.241893 130.819998,266.238938 131.617997,266.235993 132.415997,266.233056 133.213996,266.230130 134.012005,266.227212 134.810004,266.224304 135.608003,266.221405 136.406002,266.218515 137.204002,266.215635 138.002001,266.212764 138.800000,266.209901 139.597999,266.207048 140.395998,266.204204 141.193998,266.201369 141.991997,266.198543 142.789996,266.195726 143.587995,266.192918 144.386004,266.190119 145.184003,266.187328 145.982003,266.184547 146.780002,266.181775 147.578001,266.179011 148.376000,266.176256 149.174000,266.173510 149.971999,266.170772 150.769998,266.168043 151.567997,266.165324 152.365997,266.162613 153.163996,266.159909 153.962005,266.157216 154.760004,266.154530 155.558003,266.151853 156.356002,266.149185 157.154002,266.146525 157.952001,266.143874 158.750000,266.141231 159.547999,266.138597 160.345998,266.135971 161.143998,266.133354 161.941997,266.130745 162.739996,266.128144 163.537995,266.125551 164.336004,266.122967 165.134003,266.120392 165.932003,266.117824 166.730002,266.115265 167.528001,266.112714 168.326000,266.110171 169.124000,266.107637 169.921999,266.105110 170.719998,266.102592 171.517997,266.100082 172.315997,266.097580 173.113996,266.095086 173.912005,266.092600 174.710004,266.090122 175.508003,266.087652 176.306002,266.085191 177.104002,266.082738 177.902001,266.080291 178.700000,266.077853 179.497999,266.075424 180.295998,266.073001 181.093998,266.070587 181.892002,266.068181 182.690001,266.065783 183.488000,266.063392 184.285999,266.061009 185.083999,266.058634 185.881998,266.056267 186.680002,266.053907 187.478001,266.051555 188.276000,266.049211 189.074000,266.046875 189.871999,266.044546 190.669998,266.042225 191.468002,266.039911 192.266001,266.037605 193.064001,266.035307 193.862000,266.033015 194.659999,266.030732 195.457998,266.028456 196.256002,266.026188 197.054002,266.023927 197.852001,266.021674 198.650000,266.019427 199.447999,266.017188 200.245998,266.014957 201.043998,266.012733 201.842002,266.010516 202.640001,266.008307 203.438000,266.006105 204.235999,266.003910 205.033999,266.001722 205.831998,265.999543 206.630002,265.997369 207.428001,265.995203 208.226000,265.993044 209.024000,265.990892 209.821999,265.988748 210.619998,265.986611 211.418002,265.984479 212.216001,265.982356 213.014001,265.980240 213.812000,265.978130 214.609999,265.976028 215.407998,265.973932 216.206002,265.971844 217.004002,265.969762 217.802001,265.967688 218.600000,265.965619 219.397999,265.963558 220.196001,265.961504 220.994000,265.959456 221.791999,265.957415 222.590001,265.955381 223.388000,265.953353 224.185999,265.951333 224.984001,265.949319 225.782000,265.947312 226.580000,265.945311 227.378001,265.943317 228.176000,265.941329 228.974000,265.939347 229.771999,265.937372 230.570000,265.935405 231.368000,265.933443 232.165999,265.931488 232.964001,265.929539 233.762000,265.927597 234.559999,265.925661 235.358001,265.923731 236.156000,265.921808 236.953999,265.919891 237.752001,265.917980 238.550000,265.916075 239.348000,265.914177 240.146000,265.912285 240.944000,265.910398 241.742001,265.908519 242.540000,265.906645 243.338000,265.904778 244.135999,265.902916 244.934000,265.901061 245.732000,265.899211 246.530000,265.897368 247.328000,265.895531 248.126000,265.893699 248.924000,265.891874 249.722000,265.890054 250.520000,265.888241 251.318000,265.886432 252.116000,265.884631 252.914000,265.882835 253.712000,265.881044 254.510000,265.879259 255.308000,265.877480 256.106000,265.875708 256.904000,265.873940 257.702000,265.872178 258.500000,265.870422 259.298000,265.868671 260.096000,265.866926 260.894000,265.865187 261.692000,265.863452 262.490000,265.861725 263.288000,265.860002 264.086000,265.858284 264.884000,265.856572 265.682000,265.854866 266.480000,265.853166 267.278000,265.851470 268.076000,265.849779 268.874000,265.848094 269.672000,265.846415 270.470000,265.844740 271.268000,265.843071 272.066000,265.841408 272.864001,265.839749 273.662000,265.838095 274.460000,265.836448 275.257999,265.834804 276.056000,265.833166 276.854000,265.831534 277.652000,265.829906 278.450000,265.828284 279.247999,265.826666 280.046001,265.825054 280.844000,265.823446 281.641999,265.821844 282.440001,265.820246 283.238000,265.818653 284.035999,265.817066 284.834001,265.815483 285.632000,265.813906 286.430000,265.812333 287.228001,265.810764 288.026000,265.809201 288.824000,265.807643 289.621999,265.806088 290.420000,265.804540 291.218000,265.802995 292.015999,265.801457 292.814001,265.799922 293.612000,265.798391 294.409999,265.796867 295.208001,265.795345 296.006000,265.793829 296.803999,265.792318 297.602001,265.790811 298.400000,265.789309 299.197999,265.787811 299.995998,265.786318 300.793998,265.784829 301.592002,265.783345 302.390001,265.781866 303.188000,265.780391 303.985999,265.778920 304.783999,265.777454 305.581998,265.775992 306.380002,265.774534 307.178001,265.773081 307.976000,265.771632 308.774000,265.770188 309.571999,265.768748 310.369998,265.767312 311.168002,265.765881 311.966001,265.764454 312.764001,265.763031 313.562000,265.761612 314.359999,265.760198 315.157998,265.758788 315.956002,265.757382 316.754002,265.755981 317.552001,265.754583 318.350000,265.753189 319.147999,265.751800 319.945998,265.750416 320.743998,265.749035 321.542002,265.747658 322.340001,265.746285 323.138000,265.744917 323.935999,265.743552 324.733999,265.742192 325.531998,265.740835 326.330002,265.739483 327.128001,265.738134 327.926000,265.736790 328.724000,265.735450 329.521999,265.734113 330.319998,265.732780 331.118002,265.731452 331.916001,265.730128 332.714001,265.728807 333.512000,265.727490 334.309999,265.726178 335.107998,265.724869 335.906002,265.723564 336.704002,265.722263 337.502001,265.720965 338.300000,265.719672 339.097999,265.718383 339.895998,265.717097 340.693998,265.715814 341.491997,265.714537 342.289996,265.713263 343.087995,265.711991 343.886004,265.710725 344.684003,265.709462 345.482003,265.708202 346.280002,265.706947 347.078001,265.705695 347.876000,265.704447 348.674000,265.703202 349.471999,265.701962 350.269998,265.700724 351.067997,265.699491 351.865997,265.698262 352.663996,265.697036 353.462005,265.695814 354.260004,265.694595 355.058003,265.693380 355.856002,265.692168 356.654002,265.690960 357.452001,265.689757 358.250000,265.688556 359.047999,265.687359 359.845998,265.686166 360.643998,265.684975 361.441997,265.683789 362.239996,265.682606 363.037995,265.681427 363.836004,265.680252 364.634003,265.679079 365.432003,265.677911 366.230002,265.676746 367.028001,265.675585 367.826000,265.674426 368.624000,265.673272 369.421999,265.672120 370.219998,265.670973 371.017997,265.669829 371.815997,265.668688 372.613996,265.667551 373.412005,265.666417 374.210004,265.665286 375.008003,265.664160 375.806002,265.663036 376.604002,265.661917 377.402001,265.660800 378.200000,265.659687 378.997999,265.658576 379.795998,265.657470 380.593998,265.656367 381.391997,265.655267 382.189996,265.654171 382.987995,265.653078 383.786004,265.651989 384.584003,265.650902 385.382003,265.649819 386.180002,265.648740 386.978001,265.647663 387.776000,265.646590 388.574000,265.645521 389.371999,265.644454 390.169998,265.643391 390.967997,265.642331 391.765997,265.641275 392.563996,265.640221 393.362005,265.639171 394.160004,265.638125 394.958003,265.637082 395.756002,265.636042 396.554002,265.635005 397.352001,265.633972 398.150000,265.632940 398.947999,265.631914 399.745998,265.630890 400.543998,265.629869 401.341997,265.628852 402.139996,265.627838 402.937995,265.626826 403.736004,265.625818 404.534003,265.624814 405.332003,265.623813 406.130002,265.622814 406.928001,265.621819 407.726000,265.620828 408.524000,265.619838 409.321999,265.618853 410.119998,265.617871 410.917997,265.616892 411.715997,265.615915 412.513996,265.614942 413.312005,265.613972 414.110004,265.613005 414.908003,265.612043 415.706002,265.611082 416.504002,265.610124 417.302001,265.609170 418.100000,265.608219 418.897999,265.607271 419.695998,265.606326 420.493998,265.605384 421.291997,265.604446 422.089996,265.603510 422.887995,265.602577 423.685995,265.601648 424.483994,265.600721 425.281993,265.599798 426.079992,265.598877 426.877992,265.597960 427.675991,265.597046 428.474009,265.596135 429.272008,265.595226 430.070008,265.594321 430.868007,265.593419 431.666006,265.592520 432.464005,265.591624 433.262005,265.590731 434.060004,265.589841 434.858003,265.588954 435.656002,265.588070 436.454002,265.587189 437.252001,265.586311 438.050000,265.585436 438.847999,265.584564 439.645998,265.583695 440.443998,265.582829 441.241997,265.581965 442.039996,265.581105 442.837995,265.580248 443.635995,265.579394 444.433994,265.578543 445.231993,265.577694 446.029992,265.576850 446.827992,265.576007 447.625991,265.575167 448.424009,265.574331 449.222008,265.573497 450.020008,265.572667 450.818007,265.571838 451.616006,265.571014 452.414005,265.570192 453.212005,265.569373 454.010004,265.568557 454.808003,265.567744 455.606002,265.566934 456.404002,265.566126 457.202001,265.565322 458.000000,265.564521 458.000000,265.564521"/>
	<clipPath id="clipArea4">
		<rect x="59" y="17" width="399" height="258">
		</rect>
	</clipPath>
	<polyline fill="none" stroke="rgb(0,0,0)" stroke-dasharray="4,2" stroke-width="2" stroke-opacity="1" clip-path="url(#clipArea4)" points="59.000000,266.905245 59.797999,266.896889 60.595998,266.888592 61.393998,266.880355 62.191997,266.872176 62.989996,266.864056 63.787995,266.855993 64.585995,266.847988 65.383994,266.840039 66.181993,266.832146 66.979992,266.824310 67.777992,266.816529 68.575991,266.808804 69.374009,266.801133 70.172008,266.793516 70.970008,266.785953 71.768007,266.778443 72.566006,266.770987 73.364005,266.763583 74.162005,266.756231 74.960004,266.748930 75.758003,266.741681 76.556002,266.734483 77.354002,266.727336 78.152001,266.720238 78.950000,266.713190 79.747999,266.706191 80.545998,266.699241 81.343998,266.692340 82.141997,266.685486 82.939996,266.678681 83.737995,266.671922 84.535995,266.665211 85.333994,266.658546 86.131993,266.651927 86.929992,266.645354 87.727992,266.638826 88.525991,266.632344 89.324009,266.625906 90.122008,266.619512 90.920008,266.613163 91.718007,266.606857 92.516006,266.600594 93.314005,266.594373 94.112005,266.588196 94.910004,266.582060 95.708003,266.575967 96.506002,266.569915 97.304002,266.563903 98.102001,266.557933 98.900000,266.552003 99.697999,266.546114 100.495998,266.540264 101.293998,266.534453 102.091997,266.528682 102.889996,266.522950 103.687995,266.517256 104.486004,266.511600 105.284003,266.505982 106.082003,266.500401 106.880002,266.494858 107.678001,266.489352 108.476000,266.483882 109.274000,266.478449 110.071999,266.473051 110.869998,266.467690 111.667997,266.462363 112.465997,266.457072 113.263996,266.451816 114.062005,266.446595 114.860004,266.441407 115.658003,266.436254 116.456002,266.431134 117.254002,266.426048 118.052001,266.420995 118.850000,266.415975 119.647999,266.410987 120.445998,266.406032 121.243998,266.401109 122.041997,266.396218 122.839996,266.391358 123.637995,266.386530 124.436004,266.381732 125.234003,266.376966 126.032003,266.372229 126.830002,266.367524 127.628001,266.362848 128.426000,266.358203 129.224000,266.353586 130.021999,266.348998 130.819998,266.344441 131.617997,266.339912 132.415997,266.335411 133.213996,266.330939 134.012005,266.326495 134.810004,266.322079 135.608003,266.317691 136.406002,266.313330 137.204002,266.308996 138.002001,266.304689 138.800000,266.300410 139.597999,266.296156 140.395998,266.291930 141.193998,266.287728 141.991997,266.283554 142.789996,266.279405 143.587995,266.275281 144.386004,266.271184 145.184003,266.267111 145.982003,266.263062 146.780002,266.259039 147.578001,266.255040 148.376000,266.251065 149.174000,266.247115 149.971999,266.243189 150.769998,266.239286 151.567997,266.235406 152.365997,266.231550 153.163996,266.227718 153.962005,266.223909 154.760004,266.220123 155.558003,266.216358 156.356002,266.212616 157.154002,266.208898 157.952001,266.205200 158.750000,266.201524 159.547999,266.197872 160.345998,266.194239 161.143998,266.190629 161.941997,266.187040 162.739996,266.183472 163.537995,266.179924 164.336004,266.176399 165.134003,266.172893 165.932003,266.169407 166.730002,266.165942 167.528001,266.162497 168.326000,266.159072 169.124000,266.155667 169.921999,266.152282 170.719998,266.148916 171.517997,266.145569 172.315997,266.142242 173.113996,266.138934 173.912005,266.135644 174.710004,266.132374 175.508003,266.129122 176.306002,266.125888 177.104002,266.122673 177.902001,266.119477 178.700000,266.116297 179.497999,266.113137 180.295998,266.109994 181.093998,266.106868 181.892002,266.103760 182.690001,266.100669 183.488000,266.097596 184.285999,266.094540 185.083999,266.091501 185.881998,266.088479 186.680002,266.085473 187.478001,266.082484 188.276000,266.079512 189.074000,266.076556 189.871999,266.073616 190.669998,266.070692 191.468002,266.067785 192.266001,266.064893 193.064001,266.062017 193.862000,266.059157 194.659999,266.056312 195.457998,266.053482 196.256002,266.050669 197.054002,266.047870 197.852001,266.045086 198.650000,266.042318 199.447999,266.039563 200.245998,266.036825 201.043998,266.034100 201.842002,266.031390 202.640001,266.028695 203.438000,266.026013 204.235999,266.023347 205.033999,266.020693 205.831998,266.018055 206.630002,266.015430 207.428001,266.012819 208.226000,266.010222 209.024000,266.007639 209.821999,266.005068 210.619998,266.002512 211.418002,265.999968 212.216001,265.997438 213.014001,265.994921 213.812000,265.992416 214.609999,265.989925 215.407998,265.987447 216.206002,265.984982 217.004002,265.982529 217.802001,265.980088 218.600000,265.977662 219.397999,265.975246 220.196001,265.972843 220.994000,265.970453 221.791999,265.968074 222.590001,265.965707 223.388000,265.963353 224.185999,265.961010 224.984001,265.958679 225.782000,265.956360 226.580000,265.954053 227.378001,265.951757 228.176000,265.949473 228.974000,265.947200 229.771999,265.944938 230.570000,265.942688 231.368000,265.940449 232.165999,265.938221 232.964001,265.936004 233.762000,265.933798 234.559999,265.931603 235.358001,265.929418 236.156000,265.927244 236.953999,265.925081 237.752001,265.922928 238.550000,265.920787 239.348000,265.918655 240.146000,265.916534 240.944000,265.914423 241.742001,265.912323 242.540000,265.910231 243.338000,265.908151 244.135999,265.906081 244.934000,265.904021 245.732000,265.901970 246.530000,265.899929 247.328000,265.897898 248.126000,265.895876 248.924000,265.893865 249.722000,265.891863 250.520000,265.889870 251.318000,265.887887 252.116000,265.885912 252.914000,265.883948 253.712000,265.881993 254.510000,265.880047 255.308000,265.878110 256.106000,265.876182 256.904000,265.874263 257.702000,265.872353 258.500000,265.870451 259.298000,265.868560 260.096000,265.866676 260.894000,265.864802 261.692000,265.862935 262.490000,265.861078 263.288000,265.859229 264.086000,265.857388 264.884000,265.855556 265.682000,265.853732 266.480000,265.851917 267.278000,265.850109 268.076000,265.848311 268.874000,265.846520 269.672000,265.844737 270.470000,265.842963 271.268000,265.841196 272.066000,265.839438 272.864001,265.837688 273.662000,265.835945 274.460000,265.834210 275.257999,265.832483 276.056000,265.830763 276.854000,265.829052 277.652000,265.827347 278.450000,265.825650 279.247999,265.823962 280.046001,265.822280 280.844000,265.820606 281.641999,265.818939 282.440001,265.817279 283.238000,265.815627 284.035999,265.813982 284.834001,265.812344 285.632000,265.810714 286.430000,265.809090 287.228001,265.807474 288.026000,265.805865 288.824000,265.804262 289.621999,265.802667 290.420000,265.801078 291.218000,265.799496 292.015999,265.797922 292.814001,265.796353 293.612000,265.794792 294.409999,265.793237 295.208001,265.791689 296.006000,265.790148 296.803999,265.788613 297.602001,265.787084 298.400000,265.785563 299.197999,265.784048 299.995998,265.782539 300.793998,265.781036 301.592002,265.779539 302.390001,265.778049 303.188000,265.776566 303.985999,265.775087 304.783999,265.773616 305.581998,265.772151 306.380002,265.770692 307.178001,265.769239 307.976000,265.767792 308.774000,265.766351 309.571999,265.764916 310.369998,265.763487 311.168002,265.762063 311.966001,265.760646 312.764001,265.759235 313.562000,265.757829 314.359999,265.756429 315.157998,265.755034 315.956002,265.753646 316.754002,265.752263 317.552001,265.750885 318.350000,265.749514 319.147999,265.748148 319.945998,265.746788 320.743998,265.745432 321.542002,265.744083 322.340001,265.742738 323.138000,265.741399 323.935999,265.740067 324.733999,265.738738 325.531998,265.737415 326.330002,265.736098 327.128001,265.734786 327.926000,265.733479 328.724000,265.732177 329.521999,265.730880 330.319998,265.729589 331.118002,265.728302 331.916001,265.727021 332.714001,265.725744 333.512000,265.724473 334.309999,265.723207 335.107998,265.721945 335.906002,265.720689 336.704002,265.719437 337.502001,265.718191 338.300000,265.716949 339.097999,265.715712 339.895998,265.714480 340.693998,265.713252 341.491997,265.712030 342.289996,265.710812 343.087995,265.709599 343.886004,265.708390 344.684003,265.707186 345.482003,265.705987 346.280002,265.704792 347.078001,265.703602 347.876000,265.702416 348.674000,265.701235 349.471999,265.700058 350.269998,265.698886 351.067997,265.697719 351.865997,265.696555 352.663996,265.695397 353.462005,265.694242 354.260004,265.693092 355.058003,265.691946 355.856002,265.690804 356.654002,265.689667 357.452001,265.688534 358.250000,265.687405 359.047999,265.686280 359.845998,265.685160 360.643998,265.684043 361.441997,265.682931 362.239996,265.681823 363.037995,265.680720 363.836004,265.679620 364.634003,265.678524 365.432003,265.677432 366.230002,265.676344 367.028001,265.675261 367.826000,265.674180 368.624000,265.673105 369.421999,265.672032 370.219998,265.670964 371.017997,265.669900 371.815997,265.668840 372.613996,265.667784 373.412005,265.666731 374.210004,265.665682 375.008003,265.664637 375.806002,265.663596 376.604002,265.662558 377.402001,265.661524 378.200000,265.660495 378.997999,265.659467 379.795998,265.658445 380.593998,265.657426 381.391997,265.656410 382.189996,265.655398 382.987995,265.654391 383.786004,265.653386 384.584003,265.652384 385.382003,265.651387 386.180002,265.650392 386.978001,265.649402 387.776000,265.648415 388.574000,265.647432 389.371999,265.646451 390.169998,265.645474 390.967997,265.644500 391.765997,265.643531 392.563996,265.642564 393.362005,265.641601 394.160004,265.640642 394.958003,265.639685 395.756002,265.638732 396.554002,265.637781 397.352001,265.636835 398.150000,265.635892 398.947999,265.634952 399.745998,265.634015 400.543998,265.633081 401.341997,265.632150 402.139996,265.631223 402.937995,265.630298 403.736004,265.629378 404.534003,265.628460 405.332003,265.627545 406.130002,265.626633 406.928001,265.625725 407.726000,265.624820 408.524000,265.623917 409.321999,265.623017 410.119998,265.622121 410.917997,265.621227 411.715997,265.620338 412.513996,265.619450 413.312005,265.618566 414.110004,265.617684 414.908003,265.616806 415.706002,265.615930 416.504002,265.615058 417.302001,265.614188 418.100000,265.613321 418.897999,265.612457 419.695998,265.611596 420.493998,265.610738 421.291997,265.609883 422.089996,265.609030 422.887995,265.608180 423.685995,265.607333 424.483994,265.606488 425.281993,265.605646 426.079992,265.604808 426.877992,265.603972 427.675991,265.603139 428.474009,265.602308 429.272008,265.601480 430.070008,265.600655 430.868007,265.599833 431.666006,265.599012 432.464005,265.598195 433.262005,265.597381 434.060004,265.596569 434.858003,265.595759 435.656002,265.594953 436.454002,265.594149 437.252001,265.593347 438.050000,265.592548 438.847999,265.591752 439.645998,265.590957 440.443998,265.590166 441.241997,265.589378 442.039996,265.588591 442.837995,265.587807 443.635995,265.587026 444.433994,265.586247 445.231993,265.585470 446.029992,265.584696 446.827992,265.583924 447.625991,265.583156 448.424009,265.582389 449.222008,265.581625 450.020008,265.580862 450.818007,265.580103 451.616006,265.579346 452.414005,265.578590 453.212005,265.577838 454.010004,265.577088 454.808003,265.576340 455.606002,265.575595 456.404002,265.574851 457.202001,265.574110 458.000000,265.573372 458.000000,265.573372"/>
	<clipPath id="clipArea5">
		<rect x="59" y="17" width="399" height="258">
		</rect>
	</clipPath>
	<polyline fill="none" stroke="rgb(0,0,0)" stroke-dasharray="4,2" stroke-width="2" stroke-opacity="1" clip-path="url(#clipArea5)" points="59.000000,227.066451 59.797999,226.969709 60.595998,226.873504 61.393998,226.777841 62.191997,226.682706 62.989996,226.588101 63.787995,226.494025 64.585995,226.400465 65.383994,226.307426 66.181993,226.214900 66.979992,226.122882 67.777992,226.031376 68.575991,225.940372 69.374009,225.849867 70.172008,225.759858 70.970008,225.670342 71.768007,225.581318 72.566006,225.492777 73.364005,225.404721 74.162005,225.317144 74.960004,225.230047 75.758003,225.143418 76.556002,225.057260 77.354002,224.971570 78.152001,224.886343 78.950000,224.801575 79.747999,224.717263 80.545998,224.633406 81.343998,224.550000 82.141997,224.467040 82.939996,224.384524 83.737995,224.302451 84.535995,224.220812 85.333994,224.139612 86.131993,224.058843 86.929992,223.978500 87.727992,223.898583 88.525991,223.819094 89.324009,223.740022 90.122008,223.661364 90.920008,223.583125 91.718007,223.505296 92.516006,223.427873 93.314005,223.350860 94.112005,223.274245 94.910004,223.198032 95.708003,223.122216 96.506002,223.046794 97.304002,222.971766 98.102001,222.897123 98.900000,222.822870 99.697999,222.748998 100.495998,222.675508 101.293998,222.602394 102.091997,222.529659 102.889996,222.457296 103.687995,222.385302 104.486004,222.313678 105.284003,222.242418 106.082003,222.171519 106.880002,222.100982 107.678001,222.030800 108.476000,221.960976 109.274000,221.891504 110.071999,221.822381 110.869998,221.753611 111.667997,221.685181 112.465997,221.617095 113.263996,221.549350 114.062005,221.481945 114.860004,221.414873 115.658003,221.348136 116.456002,221.281732 117.254002,221.215656 118.052001,221.149904 118.850000,221.084479 119.647999,221.019375 120.445998,220.954595 121.243998,220.890130 122.041997,220.825981 122.839996,220.762144 123.637995,220.698619 124.436004,220.635405 125.234003,220.572495 126.032003,220.509892 126.830002,220.447592 127.628001,220.385592 128.426000,220.323892 129.224000,220.262486 130.021999,220.201380 130.819998,220.140561 131.617997,220.080034 132.415997,220.019797 133.213996,219.959847 134.012005,219.900181 134.810004,219.840797 135.608003,219.781696 136.406002,219.722870 137.204002,219.664327 138.002001,219.606055 138.800000,219.548057 139.597999,219.490331 140.395998,219.432874 141.193998,219.375684 141.991997,219.318761 142.789996,219.262105 143.587995,219.205710 144.386004,219.149575 145.184003,219.093697 145.982003,219.038078 146.780002,218.982713 147.578001,218.927602 148.376000,218.872746 149.174000,218.818140 149.971999,218.763780 150.769998,218.709665 151.567997,218.655801 152.365997,218.602179 153.163996,218.548795 153.962005,218.495657 154.760004,218.442757 155.558003,218.390090 156.356002,218.337661 157.154002,218.285470 157.952001,218.233509 158.750000,218.181778 159.547999,218.130276 160.345998,218.079003 161.143998,218.027957 161.941997,217.977135 162.739996,217.926540 163.537995,217.876166 164.336004,217.826009 165.134003,217.776073 165.932003,217.726355 166.730002,217.676854 167.528001,217.627571 168.326000,217.578497 169.124000,217.529636 169.921999,217.480988 170.719998,217.432545 171.517997,217.384316 172.315997,217.336291 173.113996,217.288468 173.912005,217.240853 174.710004,217.193440 175.508003,217.146227 176.306002,217.099216 177.104002,217.052405 177.902001,217.005791 178.700000,216.959370 179.497999,216.913146 180.295998,216.867119 181.093998,216.821280 181.892002,216.775634 182.690001,216.730181 183.488000,216.684912 184.285999,216.639832 185.083999,216.594940 185.881998,216.550234 186.680002,216.505711 187.478001,216.461373 188.276000,216.417216 189.074000,216.373239 189.871999,216.329438 190.669998,216.285822 191.468002,216.242378 192.266001,216.199115 193.064001,216.156024 193.862000,216.113109 194.659999,216.070366 195.457998,216.027796 196.256002,215.985394 197.054002,215.943163 197.852001,215.901102 198.650000,215.859208 199.447999,215.817482 200.245998,215.775921 201.043998,215.734523 201.842002,215.693289 202.640001,215.652220 203.438000,215.611310 204.235999,215.570561 205.033999,215.529971 205.831998,215.489541 206.630002,215.449271 207.428001,215.409153 208.226000,215.369195 209.024000,215.329389 209.821999,215.289738 210.619998,215.250239 211.418002,215.210896 212.216001,215.171701 213.014001,215.132657 213.812000,215.093761 214.609999,215.055012 215.407998,215.016416 216.206002,214.977962 217.004002,214.939657 217.802001,214.901495 218.600000,214.863476 219.397999,214.825601 220.196001,214.787870 220.994000,214.750282 221.791999,214.712829 222.590001,214.675520 223.388000,214.638351 224.185999,214.601316 224.984001,214.564421 225.782000,214.527666 226.580000,214.491042 227.378001,214.454557 228.176000,214.418203 228.974000,214.381981 229.771999,214.345894 230.570000,214.309942 231.368000,214.274118 232.165999,214.238424 232.964001,214.202858 233.762000,214.167423 234.559999,214.132119 235.358001,214.096938 236.156000,214.061885 236.953999,214.026958 237.752001,213.992159 238.550000,213.957483 239.348000,213.922929 240.146000,213.888499 240.944000,213.854192 241.742001,213.820003 242.540000,213.785942 243.338000,213.751996 244.135999,213.718172 244.934000,213.684468 245.732000,213.650878 246.530000,213.617411 247.328000,213.584056 248.126000,213.550823 248.924000,213.517700 249.722000,213.484697 250.520000,213.451805 251.318000,213.419027 252.116000,213.386364 252.914000,213.353812 253.712000,213.321375 254.510000,213.289044 255.308000,213.256828 256.106000,213.224719 256.904000,213.192720 257.702000,213.160833 258.500000,213.129051 259.298000,213.097381 260.096000,213.065813 260.894000,213.034356 261.692000,213.003001 262.490000,212.971753 263.288000,212.940611 264.086000,212.909572 264.884000,212.878636 265.682000,212.847802 266.480000,212.817075 267.278000,212.786446 268.076000,212.755920 268.874000,212.725496 269.672000,212.695170 270.470000,212.664943 271.268000,212.634819 272.066000,212.604793 272.864001,212.574865 273.662000,212.545032 274.460000,212.515301 275.257999,212.485660 276.056000,212.456122 276.854000,212.426675 277.652000,212.397325 278.450000,212.368070 279.247999,212.338909 280.046001,212.309843 280.844000,212.280871 281.641999,212.251989 282.440001,212.223197 283.238000,212.194504 284.035999,212.165897 284.834001,212.137380 285.632000,212.108957 286.430000,212.080620 287.228001,212.052374 288.026000,212.024218 288.824000,211.996152 289.621999,211.968172 290.420000,211.940279 291.218000,211.912475 292.015999,211.884754 292.814001,211.857123 293.612000,211.829578 294.409999,211.802115 295.208001,211.774742 296.006000,211.747447 296.803999,211.720242 297.602001,211.693119 298.400000,211.666079 299.197999,211.639120 299.995998,211.612243 300.793998,211.585453 301.592002,211.558740 302.390001,211.532110 303.188000,211.505561 303.985999,211.479090 304.783999,211.452702 305.581998,211.426395 306.380002,211.400162 307.178001,211.374012 307.976000,211.347939 308.774000,211.321944 309.571999,211.296027 310.369998,211.270188 311.168002,211.244426 311.966001,211.218739 312.764001,211.193129 313.562000,211.167594 314.359999,211.142136 315.157998,211.116752 315.956002,211.091442 316.754002,211.066206 317.552001,211.041047 318.350000,211.015958 319.147999,210.990944 319.945998,210.966003 320.743998,210.941135 321.542002,210.916338 322.340001,210.891614 323.138000,210.866960 323.935999,210.842380 324.733999,210.817869 325.531998,210.793429 326.330002,210.769058 327.128001,210.744756 327.926000,210.720525 328.724000,210.696367 329.521999,210.672270 330.319998,210.648248 331.118002,210.624291 331.916001,210.600404 332.714001,210.576582 333.512000,210.552831 334.309999,210.529144 335.107998,210.505524 335.906002,210.481969 336.704002,210.458484 337.502001,210.435060 338.300000,210.411706 339.097999,210.388413 339.895998,210.365186 340.693998,210.342025 341.491997,210.318929 342.289996,210.295895 343.087995,210.272922 343.886004,210.250015 344.684003,210.227174 345.482003,210.204394 346.280002,210.181675 347.078001,210.159019 347.876000,210.136423 348.674000,210.113889 349.471999,210.091421 350.269998,210.069010 351.067997,210.046661 351.865997,210.024369 352.663996,210.002142 353.462005,209.979974 354.260004,209.957862 355.058003,209.935816 355.856002,209.913824 356.654002,209.891892 357.452001,209.870019 358.250000,209.848207 359.047999,209.826448 359.845998,209.804750 360.643998,209.783111 361.441997,209.761524 362.239996,209.739999 363.037995,209.718531 363.836004,209.697117 364.634003,209.675760 365.432003,209.654460 366.230002,209.633214 367.028001,209.612025 367.826000,209.590894 368.624000,209.569816 369.421999,209.548791 370.219998,209.527823 371.017997,209.506909 371.815997,209.486049 372.613996,209.465241 373.412005,209.444491 374.210004,209.423790 375.008003,209.403147 375.806002,209.382553 376.604002,209.362012 377.402001,209.341524 378.200000,209.321090 378.997999,209.300709 379.795998,209.280377 380.593998,209.260099 381.391997,209.239869 382.189996,209.219693 382.987995,209.199571 383.786004,209.179493 384.584003,209.159469 385.382003,209.139498 386.180002,209.119572 386.978001,209.099700 387.776000,209.079877 388.574000,209.060103 389.371999,209.040378 390.169998,209.020702 390.967997,209.001076 391.765997,208.981499 392.563996,208.961971 393.362005,208.942488 394.160004,208.923058 394.958003,208.903674 395.756002,208.884334 396.554002,208.865044 397.352001,208.845803 398.150000,208.826607 398.947999,208.807461 399.745998,208.788359 400.543998,208.769303 401.341997,208.750295 402.139996,208.731333 402.937995,208.712416 403.736004,208.693549 404.534003,208.674722 405.332003,208.655944 406.130002,208.637212 406.928001,208.618520 407.726000,208.599878 408.524000,208.581277 409.321999,208.562725 410.119998,208.544214 410.917997,208.525748 411.715997,208.507327 412.513996,208.488947 413.312005,208.470613 414.110004,208.452323 414.908003,208.434075 415.706002,208.415871 416.504002,208.397709 417.302001,208.379587 418.100000,208.361511 418.897999,208.343480 419.695998,208.325485 420.493998,208.307536 421.291997,208.289632 422.089996,208.271765 422.887995,208.253943 423.685995,208.236158 424.483994,208.218418 425.281993,208.200719 426.079992,208.183061 426.877992,208.165439 427.675991,208.147863 428.474009,208.130324 429.272008,208.112830 430.070008,208.095373 430.868007,208.077957 431.666006,208.060582 432.464005,208.043244 433.262005,208.025947 434.060004,208.008690 434.858003,207.991471 435.656002,207.974293 436.454002,207.957152 437.252001,207.940051 438.050000,207.922988 438.847999,207.905961 439.645998,207.888976 440.443998,207.872027 441.241997,207.855120 442.039996,207.838249 442.837995,207.821415 443.635995,207.804618 444.433994,207.787858 445.231993,207.771139 446.029992,207.754453 446.827992,207.737808 447.625991,207.721196 448.424009,207.704624 449.222008,207.688090 450.020008,207.671588 450.818007,207.655124 451.616006,207.638696 452.414005,207.622305 453.212005,207.605951 454.010004,207.589634 454.808003,207.573350 455.606002,207.557102 456.404002,207.540892 457.202001,207.524714 458.000000,207.508573 458.000000,207.508573"/>
	<clipPath id="clipArea6">
		<rect x="59" y="17" width="399" height="258">
		</rect>
	</clipPath>
	<polyline fill="none" stroke="rgb(0,0,0)" stroke-dasharray="4,2" stroke-width="2" stroke-opacity="1" clip-path="url(#clipArea6)" points="59.000000,193.444947 59.797999,193.101398 60.595998,192.757858 61.393998,192.414318 62.191997,192.070777 62.989996,191.727245 63.787995,191.383721 64.585995,191.040197 65.383994,190.696681 66.181993,190.353165 66.979992,190.009650 67.777992,189.666142 68.575991,189.322643 69.374009,188.979143 70.172008,188.635652 70.970008,188.292161 71.768007,187.948678 72.566006,187.605195 73.364005,187.261720 74.162005,186.918246 74.960004,186.574779 75.758003,186.231321 76.556002,185.887862 77.354002,185.544404 78.152001,185.200954 78.950000,184.857512 79.747999,184.514070 80.545998,184.170636 81.343998,183.827202 82.141997,183.483768 82.939996,183.140351 83.737995,182.796934 84.535995,182.453516 85.333994,182.110107 86.131993,181.766698 86.929992,181.423305 87.727992,181.079904 88.525991,180.736512 89.324009,180.393127 90.122008,180.049743 90.920008,179.706366 91.718007,179.362998 92.516006,179.019630 93.314005,178.676262 94.112005,178.332902 94.910004,177.989550 95.708003,177.646198 96.506002,177.302855 97.304002,176.959511 98.102001,176.616176 98.900000,176.272849 99.697999,175.929522 100.495998,175.586203 101.293998,175.242884 102.091997,174.899573 102.889996,174.556262 103.687995,174.212960 104.486004,173.869665 105.284003,173.526371 106.082003,173.183085 106.880002,172.839799 107.678001,172.496521 108.476000,172.153251 109.274000,171.809981 110.071999,171.466712 110.869998,171.123458 111.667997,170.780205 112.465997,170.436952 113.263996,170.093707 114.062005,169.750470 114.860004,169.407233 115.658003,169.064004 116.456002,168.720775 117.254002,168.377555 118.052001,168.034342 118.850000,167.691130 119.647999,167.347926 120.445998,167.004730 121.243998,166.661534 122.041997,166.318338 122.839996,165.975159 123.637995,165.631971 124.436004,165.288800 125.234003,164.945628 126.032003,164.602465 126.830002,164.259302 127.628001,163.916147 128.426000,163.573001 129.224000,163.229854 130.021999,162.886707 130.819998,162.543577 131.617997,162.200447 132.415997,161.857316 133.213996,161.514202 134.012005,161.171088 134.810004,160.827975 135.608003,160.484869 136.406002,160.141771 137.204002,159.798674 138.002001,159.455585 138.800000,159.112503 139.597999,158.769422 140.395998,158.426349 141.193998,158.083277 141.991997,157.740212 142.789996,157.397155 143.587995,157.054099 144.386004,156.711051 145.184003,156.368011 145.982003,156.024970 146.780002,155.681939 147.578001,155.338907 148.376000,154.995883 149.174000,154.652868 149.971999,154.309852 150.769998,153.966845 151.567997,153.623846 152.365997,153.280847 153.163996,152.937856 153.962005,152.594865 154.760004,152.251890 155.558003,151.908908 156.356002,151.565941 157.154002,151.222975 157.952001,150.880017 158.750000,150.537059 159.547999,150.194109 160.345998,149.851159 161.143998,149.508226 161.941997,149.165292 162.739996,148.822359 163.537995,148.479434 164.336004,148.136517 165.134003,147.793608 165.932003,147.450699 166.730002,147.107798 167.528001,146.764898 168.326000,146.422005 169.124000,146.079121 169.921999,145.736237 170.719998,145.393361 171.517997,145.050493 172.315997,144.707625 173.113996,144.364765 173.912005,144.021914 174.710004,143.679062 175.508003,143.336219 176.306002,142.993376 177.104002,142.650541 177.902001,142.307714 178.700000,141.964895 179.497999,141.622077 180.295998,141.279266 181.093998,140.936456 181.892002,140.593653 182.690001,140.250859 183.488000,139.908074 184.285999,139.565288 185.083999,139.222502 185.881998,138.879733 186.680002,138.536963 187.478001,138.194202 188.276000,137.851441 189.074000,137.508688 189.871999,137.165943 190.669998,136.823198 191.468002,136.480453 192.266001,136.137725 193.064001,135.794996 193.862000,135.452284 194.659999,135.109572 195.457998,134.766860 196.256002,134.424148 197.054002,134.081453 197.852001,133.738757 198.650000,133.396078 199.447999,133.053399 200.245998,132.710719 201.043998,132.368040 201.842002,132.025377 202.640001,131.682714 203.438000,131.340068 204.235999,130.997422 205.033999,130.654775 205.831998,130.312129 206.630002,129.969499 207.428001,129.626869 208.226000,129.284255 209.024000,128.941625 209.821999,128.599028 210.619998,128.256414 211.418002,127.913817 212.216001,127.571220 213.014001,127.228623 213.812000,126.886042 214.609999,126.543461 215.407998,126.200897 216.206002,125.858332 217.004002,125.515768 217.802001,125.173204 218.600000,124.830656 219.397999,124.488108 220.196001,124.145576 220.994000,123.803045 221.791999,123.460513 222.590001,123.117981 223.388000,122.775466 224.185999,122.432951 224.984001,122.090452 225.782000,121.747953 226.580000,121.405455 227.378001,121.062972 228.176000,120.720473 228.974000,120.378008 229.771999,120.035525 230.570000,119.693059 231.368000,119.350593 232.165999,119.008144 232.964001,118.665694 233.762000,118.323244 234.559999,117.980811 235.358001,117.638378 236.156000,117.295945 236.953999,116.953512 237.752001,116.611095 238.550000,116.268695 239.348000,115.926278 240.146000,115.583878 240.944000,115.241494 241.742001,114.899093 242.540000,114.556709 243.338000,114.214342 244.135999,113.871958 244.934000,113.529590 245.732000,113.187239 246.530000,112.844872 247.328000,112.502520 248.126000,112.160186 248.924000,111.817834 249.722000,111.475500 250.520000,111.133181 251.318000,110.790847 252.116000,110.448545 252.914000,110.106226 253.712000,109.763924 254.510000,109.421622 255.308000,109.079321 256.106000,108.737035 256.904000,108.394749 257.702000,108.052480 258.500000,107.710195 259.298000,107.367942 260.096000,107.025673 260.894000,106.683420 261.692000,106.341167 262.490000,105.998931 263.288000,105.656695 264.086000,105.314458 264.884000,104.972222 265.682000,104.630002 266.480000,104.287782 267.278000,103.945579 268.076000,103.603375 268.874000,103.261172 269.672000,102.918985 270.470000,102.576797 271.268000,102.234610 272.066000,101.892440 272.864001,101.550269 273.662000,101.208098 274.460000,100.865944 275.257999,100.523790 276.056000,100.181635 276.854000,99.839497 277.652000,99.497359 278.450000,99.155222 279.247999,98.813100 280.046001,98.470979 280.844000,98.128873 281.641999,97.786768 282.440001,97.444663 283.238000,97.102558 284.035999,96.760469 284.834001,96.418381 285.632000,96.076308 286.430000,95.734236 287.228001,95.392164 288.026000,95.050092 288.824000,94.708036 289.621999,94.365980 290.420000,94.023940 291.218000,93.681901 292.015999,93.339861 292.814001,92.997838 293.612000,92.655815 294.409999,92.313792 295.208001,91.971785 296.006000,91.629779 296.803999,91.287772 297.602001,90.945782 298.400000,90.603791 299.197999,90.261801 299.995998,89.919827 300.793998,89.577853 301.592002,89.235896 302.390001,88.893938 303.188000,88.551981 303.985999,88.210023 304.783999,87.868082 305.581998,87.526141 306.380002,87.184217 307.178001,86.842292 307.976000,86.500367 308.774000,86.158443 309.571999,85.816534 310.369998,85.474643 311.168002,85.132734 311.966001,84.790842 312.764001,84.448967 313.562000,84.107075 314.359999,83.765200 315.157998,83.423341 315.956002,83.081465 316.754002,82.739606 317.552001,82.397763 318.350000,82.055921 319.147999,81.714078 319.945998,81.372235 320.743998,81.030409 321.542002,80.688583 322.340001,80.346773 323.138000,80.004947 323.935999,79.663153 324.733999,79.321344 325.531998,78.979550 326.330002,78.637757 327.128001,78.295980 327.926000,77.954203 328.724000,77.612426 329.521999,77.270665 330.319998,76.928904 331.118002,76.587144 331.916001,76.245399 332.714001,75.903655 333.512000,75.561911 334.309999,75.220183 335.107998,74.878455 335.906002,74.536728 336.704002,74.195016 337.502001,73.853305 338.300000,73.511610 339.097999,73.169915 339.895998,72.828220 340.693998,72.486525 341.491997,72.144846 342.289996,71.803184 343.087995,71.461505 343.886004,71.119843 344.684003,70.778181 345.482003,70.436535 346.280002,70.094889 347.078001,69.753243 347.876000,69.411614 348.674000,69.069984 349.471999,68.728371 350.269998,68.386742 351.067997,68.045129 351.865997,67.703532 352.663996,67.361936 353.462005,67.020339 354.260004,66.678743 355.058003,66.337162 355.856002,65.995582 356.654002,65.654018 357.452001,65.312455 358.250000,64.970891 359.047999,64.629343 359.845998,64.287796 360.643998,63.946249 361.441997,63.604718 362.239996,63.263187 363.037995,62.921656 363.836004,62.580141 364.634003,62.238626 365.432003,61.897112 366.230002,61.555614 367.028001,61.214116 367.826000,60.872617 368.624000,60.531136 369.421999,60.189654 370.219998,59.848188 371.017997,59.506723 371.815997,59.165258 372.613996,58.823809 373.412005,58.482360 374.210004,58.140911 375.008003,57.799462 375.806002,57.458029 376.604002,57.116613 377.402001,56.775180 378.200000,56.433781 378.997999,56.092365 379.795998,55.750965 380.593998,55.409565 381.391997,55.068165 382.189996,54.726782 382.987995,54.385398 383.786004,54.044032 384.584003,53.702665 385.382003,53.361298 386.180002,53.019931 386.978001,52.678580 387.776000,52.337230 388.574000,51.995895 389.371999,51.654561 390.169998,51.313227 390.967997,50.971909 391.765997,50.630592 392.563996,50.289274 393.362005,49.947972 394.160004,49.606671 394.958003,49.265386 395.756002,48.924101 396.554002,48.582816 397.352001,48.241531 398.150000,47.900263 398.947999,47.558994 399.745998,47.217742 400.543998,46.876490 401.341997,46.535238 402.139996,46.194002 402.937995,45.852766 403.736004,45.511531 404.534003,45.170311 405.332003,44.829092 406.130002,44.487873 406.928001,44.146670 407.726000,43.805467 408.524000,43.464264 409.321999,43.123077 410.119998,42.781891 410.917997,42.440721 411.715997,42.099551 412.513996,41.758381 413.312005,41.417210 414.110004,41.076057 414.908003,40.734903 415.706002,40.393766 416.504002,40.052628 417.302001,39.711491 418.100000,39.370370 418.897999,39.029249 419.695998,38.688128 420.493998,38.347024 421.291997,38.005919 422.089996,37.664831 422.887995,37.323743 423.685995,36.982655 424.483994,36.641567 425.281993,36.300495 426.079992,35.959423 426.877992,35.618368 427.675991,35.277313 428.474009,34.936258 429.272008,34.595219 430.070008,34.254180 430.868007,33.913141 431.666006,33.572118 432.464005,33.231096 433.262005,32.890073 434.060004,32.549067 434.858003,32.208061 435.656002,31.867055 436.454002,31.526065 437.252001,31.185076 438.050000,30.844102 438.847999,30.503129 439.645998,30.162156 440.443998,29.821199 441.241997,29.480242 442.039996,29.139285 442.837995,28.798345 443.635995,28.457404 444.433994,28.116464 445.231993,27.775540 446.029992,27.434616 446.827992,27.093692 447.625991,26.752784 448.424009,26.411876 449.222008,26.070969 450.020008,25.730077 450.818007,25.389186 451.616006,25.048311 452.414005,24.707436 453.212005,24.366562 454.010004,24.025703 454.808003,23.684845 455.606002,23.343986 456.404002,23.003144 457.202001,22.662302 458.000000,22.321460 458.000000,22.321460"/>
</svg>
